<svg width="1920" height="1055" viewBox="0 0 1920 1055" fill="none" xmlns="http://www.w3.org/2000/svg">
<rect width="1920" height="1055" fill="#171717"/>
<rect opacity="0.8" x="96.1049" y="242.157" width="536.325" height="715.414" rx="11.3109" fill="#D3D3D3"/>
<rect x="130.038" y="326.988" width="99.9129" height="99.9129" rx="11.3109" fill="#E5E5E5"/>
<path d="M219.582 403.966C219.582 408.139 218.23 411.433 215.526 413.85C212.822 416.267 209.229 417.475 204.747 417.475H156.184C151.702 417.475 148.109 416.267 145.405 413.85C142.701 411.433 141.349 408.139 141.349 403.966C141.349 402.123 141.413 400.323 141.543 398.567C141.673 396.811 141.932 394.916 142.321 392.882C142.71 390.847 143.201 388.961 143.793 387.222C144.386 385.484 145.182 383.788 146.183 382.137C147.183 380.485 148.331 379.076 149.628 377.912C150.924 376.747 152.508 375.816 154.378 375.121C156.249 374.425 158.314 374.078 160.574 374.078C160.907 374.078 161.685 374.452 162.907 375.199C164.13 375.947 165.509 376.781 167.047 377.703C168.584 378.624 170.584 379.459 173.048 380.207C175.511 380.954 177.984 381.328 180.465 381.328C182.947 381.328 185.42 380.954 187.883 380.207C190.346 379.459 192.347 378.624 193.884 377.703C195.421 376.781 196.801 375.947 198.023 375.199C199.246 374.452 200.024 374.078 200.357 374.078C202.617 374.078 204.682 374.425 206.553 375.121C208.423 375.816 210.007 376.747 211.303 377.912C212.6 379.076 213.748 380.485 214.748 382.137C215.748 383.788 216.545 385.484 217.137 387.222C217.73 388.961 218.221 390.847 218.61 392.882C218.999 394.916 219.258 396.811 219.388 398.567C219.517 400.323 219.582 402.123 219.582 403.966ZM201.802 357.386C201.802 362.915 199.718 367.636 195.551 371.548C191.384 375.46 186.355 377.416 180.465 377.416C174.576 377.416 169.547 375.46 165.38 371.548C161.213 367.636 159.129 362.915 159.129 357.386C159.129 351.857 161.213 347.137 165.38 343.225C169.547 339.313 174.576 337.357 180.465 337.357C186.355 337.357 191.384 339.313 195.551 343.225C199.718 347.137 201.802 351.857 201.802 357.386Z" fill="#949494"/>
<rect x="252.572" y="326.988" width="99.9129" height="99.9129" rx="11.3109" fill="#E5E5E5"/>
<path d="M342.117 403.966C342.117 408.139 340.765 411.433 338.061 413.85C335.357 416.267 331.764 417.475 327.281 417.475H278.719C274.237 417.475 270.643 416.267 267.939 413.85C265.235 411.433 263.883 408.139 263.883 403.966C263.883 402.123 263.948 400.323 264.078 398.567C264.207 396.811 264.467 394.916 264.856 392.882C265.245 390.847 265.735 388.961 266.328 387.222C266.921 385.484 267.717 383.788 268.717 382.137C269.717 380.485 270.866 379.076 272.162 377.912C273.459 376.747 275.042 375.816 276.913 375.121C278.784 374.425 280.849 374.078 283.108 374.078C283.442 374.078 284.22 374.452 285.442 375.199C286.664 375.947 288.044 376.781 289.581 377.703C291.119 378.624 293.119 379.459 295.582 380.207C298.046 380.954 300.518 381.328 303 381.328C305.482 381.328 307.954 380.954 310.418 380.207C312.881 379.459 314.881 378.624 316.419 377.703C317.956 376.781 319.336 375.947 320.558 375.199C321.781 374.452 322.558 374.078 322.892 374.078C325.151 374.078 327.217 374.425 329.087 375.121C330.958 375.816 332.541 376.747 333.838 377.912C335.134 379.076 336.283 380.485 337.283 382.137C338.283 383.788 339.079 385.484 339.672 387.222C340.265 388.961 340.756 390.847 341.145 392.882C341.533 394.916 341.793 396.811 341.922 398.567C342.052 400.323 342.117 402.123 342.117 403.966ZM324.337 357.386C324.337 362.915 322.253 367.636 318.086 371.548C313.918 375.46 308.89 377.416 303 377.416C297.11 377.416 292.082 375.46 287.915 371.548C283.747 367.636 281.664 362.915 281.664 357.386C281.664 351.857 283.747 347.137 287.915 343.225C292.082 339.313 297.11 337.357 303 337.357C308.89 337.357 313.918 339.313 318.086 343.225C322.253 347.137 324.337 351.857 324.337 357.386Z" fill="#949494"/>
<rect x="375.107" y="326.988" width="99.9129" height="99.9129" rx="11.3109" fill="#E5E5E5"/>
<path d="M464.652 403.966C464.652 408.139 463.3 411.433 460.595 413.85C457.891 416.267 454.298 417.475 449.816 417.475H401.253C396.771 417.475 393.178 416.267 390.474 413.85C387.77 411.433 386.418 408.139 386.418 403.966C386.418 402.123 386.483 400.323 386.612 398.567C386.742 396.811 387.001 394.916 387.39 392.882C387.779 390.847 388.27 388.961 388.863 387.222C389.455 385.484 390.252 383.788 391.252 382.137C392.252 380.485 393.4 379.076 394.697 377.912C395.993 376.747 397.577 375.816 399.448 375.121C401.318 374.425 403.383 374.078 405.643 374.078C405.976 374.078 406.754 374.452 407.977 375.199C409.199 375.947 410.579 376.781 412.116 377.703C413.653 378.624 415.654 379.459 418.117 380.207C420.58 380.954 423.053 381.328 425.535 381.328C428.017 381.328 430.489 380.954 432.953 380.207C435.416 379.459 437.416 378.624 438.953 377.703C440.491 376.781 441.87 375.947 443.093 375.199C444.315 374.452 445.093 374.078 445.427 374.078C447.686 374.078 449.751 374.425 451.622 375.121C453.493 375.816 455.076 376.747 456.373 377.912C457.669 379.076 458.817 380.485 459.818 382.137C460.818 383.788 461.614 385.484 462.207 387.222C462.799 388.961 463.29 390.847 463.679 392.882C464.068 394.916 464.327 396.811 464.457 398.567C464.587 400.323 464.652 402.123 464.652 403.966ZM446.871 357.386C446.871 362.915 444.788 367.636 440.62 371.548C436.453 375.46 431.425 377.416 425.535 377.416C419.645 377.416 414.616 375.46 410.449 371.548C406.282 367.636 404.198 362.915 404.198 357.386C404.198 351.857 406.282 347.137 410.449 343.225C414.616 339.313 419.645 337.357 425.535 337.357C431.425 337.357 436.453 339.313 440.62 343.225C444.788 347.137 446.871 351.857 446.871 357.386Z" fill="#949494"/>
<rect x="497.642" y="326.988" width="99.9129" height="99.9129" rx="11.3109" fill="#E5E5E5"/>
<path d="M587.186 403.966C587.186 408.139 585.834 411.433 583.13 413.85C580.426 416.267 576.833 417.475 572.351 417.475H523.788C519.306 417.475 515.713 416.267 513.009 413.85C510.305 411.433 508.953 408.139 508.953 403.966C508.953 402.123 509.017 400.323 509.147 398.567C509.277 396.811 509.536 394.916 509.925 392.882C510.314 390.847 510.805 388.961 511.397 387.222C511.99 385.484 512.787 383.788 513.787 382.137C514.787 380.485 515.935 379.076 517.232 377.912C518.528 376.747 520.112 375.816 521.982 375.121C523.853 374.425 525.918 374.078 528.178 374.078C528.511 374.078 529.289 374.452 530.511 375.199C531.734 375.947 533.114 376.781 534.651 377.703C536.188 378.624 538.188 379.459 540.652 380.207C543.115 380.954 545.588 381.328 548.069 381.328C550.551 381.328 553.024 380.954 555.487 380.207C557.951 379.459 559.951 378.624 561.488 377.703C563.025 376.781 564.405 375.947 565.628 375.199C566.85 374.452 567.628 374.078 567.961 374.078C570.221 374.078 572.286 374.425 574.157 375.121C576.027 375.816 577.611 376.747 578.907 377.912C580.204 379.076 581.352 380.485 582.352 382.137C583.352 383.788 584.149 385.484 584.741 387.222C585.334 388.961 585.825 390.847 586.214 392.882C586.603 394.916 586.862 396.811 586.992 398.567C587.121 400.323 587.186 402.123 587.186 403.966ZM569.406 357.386C569.406 362.915 567.322 367.636 563.155 371.548C558.988 375.46 553.959 377.416 548.069 377.416C542.18 377.416 537.151 375.46 532.984 371.548C528.817 367.636 526.733 362.915 526.733 357.386C526.733 351.857 528.817 347.137 532.984 343.225C537.151 339.313 542.18 337.357 548.069 337.357C553.959 337.357 558.988 339.313 563.155 343.225C567.322 347.137 569.406 351.857 569.406 357.386Z" fill="#949494"/>
<rect x="130.038" y="449.523" width="99.9129" height="99.9129" rx="11.3109" fill="#E5E5E5"/>
<path d="M219.582 526.501C219.582 530.673 218.23 533.968 215.526 536.385C212.822 538.802 209.229 540.01 204.747 540.01H156.184C151.702 540.01 148.109 538.802 145.405 536.385C142.701 533.968 141.349 530.673 141.349 526.501C141.349 524.657 141.413 522.858 141.543 521.102C141.673 519.346 141.932 517.451 142.321 515.416C142.71 513.382 143.201 511.496 143.793 509.757C144.386 508.018 145.182 506.323 146.183 504.671C147.183 503.02 148.331 501.611 149.628 500.446C150.924 499.281 152.508 498.351 154.378 497.656C156.249 496.96 158.314 496.612 160.574 496.612C160.907 496.612 161.685 496.986 162.907 497.734C164.13 498.482 165.509 499.316 167.047 500.238C168.584 501.159 170.584 501.994 173.048 502.741C175.511 503.489 177.984 503.863 180.465 503.863C182.947 503.863 185.42 503.489 187.883 502.741C190.346 501.994 192.347 501.159 193.884 500.238C195.421 499.316 196.801 498.482 198.023 497.734C199.246 496.986 200.024 496.612 200.357 496.612C202.617 496.612 204.682 496.96 206.553 497.656C208.423 498.351 210.007 499.281 211.303 500.446C212.6 501.611 213.748 503.02 214.748 504.671C215.748 506.323 216.545 508.018 217.137 509.757C217.73 511.496 218.221 513.382 218.61 515.416C218.999 517.451 219.258 519.346 219.388 521.102C219.517 522.858 219.582 524.657 219.582 526.501ZM201.802 479.921C201.802 485.45 199.718 490.171 195.551 494.083C191.384 497.995 186.355 499.951 180.465 499.951C174.576 499.951 169.547 497.995 165.38 494.083C161.213 490.171 159.129 485.45 159.129 479.921C159.129 474.392 161.213 469.671 165.38 465.759C169.547 461.847 174.576 459.891 180.465 459.891C186.355 459.891 191.384 461.847 195.551 465.759C199.718 469.671 201.802 474.392 201.802 479.921Z" fill="#949494"/>
<rect x="252.572" y="449.523" width="99.9129" height="99.9129" rx="11.3109" fill="#E5E5E5"/>
<path d="M342.117 526.501C342.117 530.673 340.765 533.968 338.061 536.385C335.357 538.802 331.764 540.01 327.281 540.01H278.719C274.237 540.01 270.643 538.802 267.939 536.385C265.235 533.968 263.883 530.673 263.883 526.501C263.883 524.657 263.948 522.858 264.078 521.102C264.207 519.346 264.467 517.451 264.856 515.416C265.245 513.382 265.735 511.496 266.328 509.757C266.921 508.018 267.717 506.323 268.717 504.671C269.717 503.02 270.866 501.611 272.162 500.446C273.459 499.281 275.042 498.351 276.913 497.656C278.784 496.96 280.849 496.612 283.108 496.612C283.442 496.612 284.22 496.986 285.442 497.734C286.664 498.482 288.044 499.316 289.581 500.238C291.119 501.159 293.119 501.994 295.582 502.741C298.046 503.489 300.518 503.863 303 503.863C305.482 503.863 307.954 503.489 310.418 502.741C312.881 501.994 314.881 501.159 316.419 500.238C317.956 499.316 319.336 498.482 320.558 497.734C321.781 496.986 322.558 496.612 322.892 496.612C325.151 496.612 327.217 496.96 329.087 497.656C330.958 498.351 332.541 499.281 333.838 500.446C335.134 501.611 336.283 503.02 337.283 504.671C338.283 506.323 339.079 508.018 339.672 509.757C340.265 511.496 340.756 513.382 341.145 515.416C341.533 517.451 341.793 519.346 341.922 521.102C342.052 522.858 342.117 524.657 342.117 526.501ZM324.337 479.921C324.337 485.45 322.253 490.171 318.086 494.083C313.918 497.995 308.89 499.951 303 499.951C297.11 499.951 292.082 497.995 287.915 494.083C283.747 490.171 281.664 485.45 281.664 479.921C281.664 474.392 283.747 469.671 287.915 465.759C292.082 461.847 297.11 459.891 303 459.891C308.89 459.891 313.918 461.847 318.086 465.759C322.253 469.671 324.337 474.392 324.337 479.921Z" fill="#949494"/>
<rect x="375.107" y="449.523" width="99.9129" height="99.9129" rx="11.3109" fill="#E5E5E5"/>
<path d="M464.652 526.501C464.652 530.673 463.3 533.968 460.595 536.385C457.891 538.802 454.298 540.01 449.816 540.01H401.253C396.771 540.01 393.178 538.802 390.474 536.385C387.77 533.968 386.418 530.673 386.418 526.501C386.418 524.657 386.483 522.858 386.612 521.102C386.742 519.346 387.001 517.451 387.39 515.416C387.779 513.382 388.27 511.496 388.863 509.757C389.455 508.018 390.252 506.323 391.252 504.671C392.252 503.02 393.4 501.611 394.697 500.446C395.993 499.281 397.577 498.351 399.448 497.656C401.318 496.96 403.383 496.612 405.643 496.612C405.976 496.612 406.754 496.986 407.977 497.734C409.199 498.482 410.579 499.316 412.116 500.238C413.653 501.159 415.654 501.994 418.117 502.741C420.58 503.489 423.053 503.863 425.535 503.863C428.017 503.863 430.489 503.489 432.953 502.741C435.416 501.994 437.416 501.159 438.953 500.238C440.491 499.316 441.87 498.482 443.093 497.734C444.315 496.986 445.093 496.612 445.427 496.612C447.686 496.612 449.751 496.96 451.622 497.656C453.493 498.351 455.076 499.281 456.373 500.446C457.669 501.611 458.817 503.02 459.818 504.671C460.818 506.323 461.614 508.018 462.207 509.757C462.799 511.496 463.29 513.382 463.679 515.416C464.068 517.451 464.327 519.346 464.457 521.102C464.587 522.858 464.652 524.657 464.652 526.501ZM446.871 479.921C446.871 485.45 444.788 490.171 440.62 494.083C436.453 497.995 431.425 499.951 425.535 499.951C419.645 499.951 414.616 497.995 410.449 494.083C406.282 490.171 404.198 485.45 404.198 479.921C404.198 474.392 406.282 469.671 410.449 465.759C414.616 461.847 419.645 459.891 425.535 459.891C431.425 459.891 436.453 461.847 440.62 465.759C444.788 469.671 446.871 474.392 446.871 479.921Z" fill="#949494"/>
<rect x="497.642" y="449.523" width="99.9129" height="99.9129" rx="11.3109" fill="#E5E5E5"/>
<path d="M587.186 526.501C587.186 530.673 585.834 533.968 583.13 536.385C580.426 538.802 576.833 540.01 572.351 540.01H523.788C519.306 540.01 515.713 538.802 513.009 536.385C510.305 533.968 508.953 530.673 508.953 526.501C508.953 524.657 509.017 522.858 509.147 521.102C509.277 519.346 509.536 517.451 509.925 515.416C510.314 513.382 510.805 511.496 511.397 509.757C511.99 508.018 512.787 506.323 513.787 504.671C514.787 503.02 515.935 501.611 517.232 500.446C518.528 499.281 520.112 498.351 521.982 497.656C523.853 496.96 525.918 496.612 528.178 496.612C528.511 496.612 529.289 496.986 530.511 497.734C531.734 498.482 533.114 499.316 534.651 500.238C536.188 501.159 538.188 501.994 540.652 502.741C543.115 503.489 545.588 503.863 548.069 503.863C550.551 503.863 553.024 503.489 555.487 502.741C557.951 501.994 559.951 501.159 561.488 500.238C563.025 499.316 564.405 498.482 565.628 497.734C566.85 496.986 567.628 496.612 567.961 496.612C570.221 496.612 572.286 496.96 574.157 497.656C576.027 498.351 577.611 499.281 578.907 500.446C580.204 501.611 581.352 503.02 582.352 504.671C583.352 506.323 584.149 508.018 584.741 509.757C585.334 511.496 585.825 513.382 586.214 515.416C586.603 517.451 586.862 519.346 586.992 521.102C587.121 522.858 587.186 524.657 587.186 526.501ZM569.406 479.921C569.406 485.45 567.322 490.171 563.155 494.083C558.988 497.995 553.959 499.951 548.069 499.951C542.18 499.951 537.151 497.995 532.984 494.083C528.817 490.171 526.733 485.45 526.733 479.921C526.733 474.392 528.817 469.671 532.984 465.759C537.151 461.847 542.18 459.891 548.069 459.891C553.959 459.891 558.988 461.847 563.155 465.759C567.322 469.671 569.406 474.392 569.406 479.921Z" fill="#949494"/>
<rect x="130.038" y="572.058" width="99.9129" height="99.9129" rx="11.3109" fill="#E5E5E5"/>
<path d="M219.582 649.035C219.582 653.208 218.23 656.503 215.526 658.92C212.822 661.336 209.229 662.545 204.747 662.545H156.184C151.702 662.545 148.109 661.336 145.405 658.92C142.701 656.503 141.349 653.208 141.349 649.035C141.349 647.192 141.413 645.393 141.543 643.637C141.673 641.881 141.932 639.985 142.321 637.951C142.71 635.917 143.201 634.03 143.793 632.292C144.386 630.553 145.182 628.858 146.183 627.206C147.183 625.554 148.331 624.146 149.628 622.981C150.924 621.816 152.508 620.886 154.378 620.19C156.249 619.495 158.314 619.147 160.574 619.147C160.907 619.147 161.685 619.521 162.907 620.269C164.13 621.016 165.509 621.851 167.047 622.772C168.584 623.694 170.584 624.528 173.048 625.276C175.511 626.024 177.984 626.397 180.465 626.397C182.947 626.397 185.42 626.024 187.883 625.276C190.346 624.528 192.347 623.694 193.884 622.772C195.421 621.851 196.801 621.016 198.023 620.269C199.246 619.521 200.024 619.147 200.357 619.147C202.617 619.147 204.682 619.495 206.553 620.19C208.423 620.886 210.007 621.816 211.303 622.981C212.6 624.146 213.748 625.554 214.748 627.206C215.748 628.858 216.545 630.553 217.137 632.292C217.73 634.03 218.221 635.917 218.61 637.951C218.999 639.985 219.258 641.881 219.388 643.637C219.517 645.393 219.582 647.192 219.582 649.035ZM201.802 602.456C201.802 607.985 199.718 612.705 195.551 616.617C191.384 620.529 186.355 622.485 180.465 622.485C174.576 622.485 169.547 620.529 165.38 616.617C161.213 612.705 159.129 607.985 159.129 602.456C159.129 596.927 161.213 592.206 165.38 588.294C169.547 584.382 174.576 582.426 180.465 582.426C186.355 582.426 191.384 584.382 195.551 588.294C199.718 592.206 201.802 596.927 201.802 602.456Z" fill="#949494"/>
<rect x="252.572" y="572.058" width="99.9129" height="99.9129" rx="11.3109" fill="#E5E5E5"/>
<path d="M342.117 649.035C342.117 653.208 340.765 656.503 338.061 658.92C335.357 661.336 331.764 662.545 327.281 662.545H278.719C274.237 662.545 270.643 661.336 267.939 658.92C265.235 656.503 263.883 653.208 263.883 649.035C263.883 647.192 263.948 645.393 264.078 643.637C264.207 641.881 264.467 639.985 264.856 637.951C265.245 635.917 265.735 634.03 266.328 632.292C266.921 630.553 267.717 628.858 268.717 627.206C269.717 625.554 270.866 624.146 272.162 622.981C273.459 621.816 275.042 620.886 276.913 620.19C278.784 619.495 280.849 619.147 283.108 619.147C283.442 619.147 284.22 619.521 285.442 620.269C286.664 621.016 288.044 621.851 289.581 622.772C291.119 623.694 293.119 624.528 295.582 625.276C298.046 626.024 300.518 626.397 303 626.397C305.482 626.397 307.954 626.024 310.418 625.276C312.881 624.528 314.881 623.694 316.419 622.772C317.956 621.851 319.336 621.016 320.558 620.269C321.781 619.521 322.558 619.147 322.892 619.147C325.151 619.147 327.217 619.495 329.087 620.19C330.958 620.886 332.541 621.816 333.838 622.981C335.134 624.146 336.283 625.554 337.283 627.206C338.283 628.858 339.079 630.553 339.672 632.292C340.265 634.03 340.756 635.917 341.145 637.951C341.533 639.985 341.793 641.881 341.922 643.637C342.052 645.393 342.117 647.192 342.117 649.035ZM324.337 602.456C324.337 607.985 322.253 612.705 318.086 616.617C313.918 620.529 308.89 622.485 303 622.485C297.11 622.485 292.082 620.529 287.915 616.617C283.747 612.705 281.664 607.985 281.664 602.456C281.664 596.927 283.747 592.206 287.915 588.294C292.082 584.382 297.11 582.426 303 582.426C308.89 582.426 313.918 584.382 318.086 588.294C322.253 592.206 324.337 596.927 324.337 602.456Z" fill="#949494"/>
<rect x="375.107" y="572.058" width="99.9129" height="99.9129" rx="11.3109" fill="#E5E5E5"/>
<path d="M464.652 649.035C464.652 653.208 463.3 656.503 460.595 658.92C457.891 661.336 454.298 662.545 449.816 662.545H401.253C396.771 662.545 393.178 661.336 390.474 658.92C387.77 656.503 386.418 653.208 386.418 649.035C386.418 647.192 386.483 645.393 386.612 643.637C386.742 641.881 387.001 639.985 387.39 637.951C387.779 635.917 388.27 634.03 388.863 632.292C389.455 630.553 390.252 628.858 391.252 627.206C392.252 625.554 393.4 624.146 394.697 622.981C395.993 621.816 397.577 620.886 399.448 620.19C401.318 619.495 403.383 619.147 405.643 619.147C405.976 619.147 406.754 619.521 407.977 620.269C409.199 621.016 410.579 621.851 412.116 622.772C413.653 623.694 415.654 624.528 418.117 625.276C420.58 626.024 423.053 626.397 425.535 626.397C428.017 626.397 430.489 626.024 432.953 625.276C435.416 624.528 437.416 623.694 438.953 622.772C440.491 621.851 441.87 621.016 443.093 620.269C444.315 619.521 445.093 619.147 445.427 619.147C447.686 619.147 449.751 619.495 451.622 620.19C453.493 620.886 455.076 621.816 456.373 622.981C457.669 624.146 458.817 625.554 459.818 627.206C460.818 628.858 461.614 630.553 462.207 632.292C462.799 634.03 463.29 635.917 463.679 637.951C464.068 639.985 464.327 641.881 464.457 643.637C464.587 645.393 464.652 647.192 464.652 649.035ZM446.871 602.456C446.871 607.985 444.788 612.705 440.62 616.617C436.453 620.529 431.425 622.485 425.535 622.485C419.645 622.485 414.616 620.529 410.449 616.617C406.282 612.705 404.198 607.985 404.198 602.456C404.198 596.927 406.282 592.206 410.449 588.294C414.616 584.382 419.645 582.426 425.535 582.426C431.425 582.426 436.453 584.382 440.62 588.294C444.788 592.206 446.871 596.927 446.871 602.456Z" fill="#949494"/>
<rect x="497.642" y="572.058" width="99.9129" height="99.9129" rx="11.3109" fill="#E5E5E5"/>
<path d="M587.186 649.035C587.186 653.208 585.834 656.503 583.13 658.92C580.426 661.336 576.833 662.545 572.351 662.545H523.788C519.306 662.545 515.713 661.336 513.009 658.92C510.305 656.503 508.953 653.208 508.953 649.035C508.953 647.192 509.017 645.393 509.147 643.637C509.277 641.881 509.536 639.985 509.925 637.951C510.314 635.917 510.805 634.03 511.397 632.292C511.99 630.553 512.787 628.858 513.787 627.206C514.787 625.554 515.935 624.146 517.232 622.981C518.528 621.816 520.112 620.886 521.982 620.19C523.853 619.495 525.918 619.147 528.178 619.147C528.511 619.147 529.289 619.521 530.511 620.269C531.734 621.016 533.114 621.851 534.651 622.772C536.188 623.694 538.188 624.528 540.652 625.276C543.115 626.024 545.588 626.397 548.069 626.397C550.551 626.397 553.024 626.024 555.487 625.276C557.951 624.528 559.951 623.694 561.488 622.772C563.025 621.851 564.405 621.016 565.628 620.269C566.85 619.521 567.628 619.147 567.961 619.147C570.221 619.147 572.286 619.495 574.157 620.19C576.027 620.886 577.611 621.816 578.907 622.981C580.204 624.146 581.352 625.554 582.352 627.206C583.352 628.858 584.149 630.553 584.741 632.292C585.334 634.03 585.825 635.917 586.214 637.951C586.603 639.985 586.862 641.881 586.992 643.637C587.121 645.393 587.186 647.192 587.186 649.035ZM569.406 602.456C569.406 607.985 567.322 612.705 563.155 616.617C558.988 620.529 553.959 622.485 548.069 622.485C542.18 622.485 537.151 620.529 532.984 616.617C528.817 612.705 526.733 607.985 526.733 602.456C526.733 596.927 528.817 592.206 532.984 588.294C537.151 584.382 542.18 582.426 548.069 582.426C553.959 582.426 558.988 584.382 563.155 588.294C567.322 592.206 569.406 596.927 569.406 602.456Z" fill="#949494"/>
<rect x="130.038" y="694.592" width="99.9129" height="99.9129" rx="11.3109" fill="#E5E5E5"/>
<path d="M219.582 771.57C219.582 775.743 218.23 779.038 215.526 781.454C212.822 783.871 209.229 785.08 204.747 785.08H156.184C151.702 785.08 148.109 783.871 145.405 781.454C142.701 779.038 141.349 775.743 141.349 771.57C141.349 769.727 141.413 767.927 141.543 766.171C141.673 764.415 141.932 762.52 142.321 760.486C142.71 758.451 143.201 756.565 143.793 754.826C144.386 753.088 145.182 751.392 146.183 749.741C147.183 748.089 148.331 746.681 149.628 745.516C150.924 744.351 152.508 743.421 154.378 742.725C156.249 742.03 158.314 741.682 160.574 741.682C160.907 741.682 161.685 742.056 162.907 742.803C164.13 743.551 165.509 744.385 167.047 745.307C168.584 746.229 170.584 747.063 173.048 747.811C175.511 748.558 177.984 748.932 180.465 748.932C182.947 748.932 185.42 748.558 187.883 747.811C190.346 747.063 192.347 746.229 193.884 745.307C195.421 744.385 196.801 743.551 198.023 742.803C199.246 742.056 200.024 741.682 200.357 741.682C202.617 741.682 204.682 742.03 206.553 742.725C208.423 743.421 210.007 744.351 211.303 745.516C212.6 746.681 213.748 748.089 214.748 749.741C215.748 751.392 216.545 753.088 217.137 754.826C217.73 756.565 218.221 758.451 218.61 760.486C218.999 762.52 219.258 764.415 219.388 766.171C219.517 767.927 219.582 769.727 219.582 771.57ZM201.802 724.99C201.802 730.519 199.718 735.24 195.551 739.152C191.384 743.064 186.355 745.02 180.465 745.02C174.576 745.02 169.547 743.064 165.38 739.152C161.213 735.24 159.129 730.519 159.129 724.99C159.129 719.461 161.213 714.741 165.38 710.829C169.547 706.917 174.576 704.961 180.465 704.961C186.355 704.961 191.384 706.917 195.551 710.829C199.718 714.741 201.802 719.461 201.802 724.99Z" fill="#949494"/>
<rect x="252.572" y="694.592" width="99.9129" height="99.9129" rx="11.3109" fill="#E5E5E5"/>
<path d="M342.117 771.57C342.117 775.743 340.765 779.038 338.061 781.454C335.357 783.871 331.764 785.08 327.281 785.08H278.719C274.237 785.08 270.643 783.871 267.939 781.454C265.235 779.038 263.883 775.743 263.883 771.57C263.883 769.727 263.948 767.927 264.078 766.171C264.207 764.415 264.467 762.52 264.856 760.486C265.245 758.451 265.735 756.565 266.328 754.826C266.921 753.088 267.717 751.392 268.717 749.741C269.717 748.089 270.866 746.681 272.162 745.516C273.459 744.351 275.042 743.421 276.913 742.725C278.784 742.03 280.849 741.682 283.108 741.682C283.442 741.682 284.22 742.056 285.442 742.803C286.664 743.551 288.044 744.385 289.581 745.307C291.119 746.229 293.119 747.063 295.582 747.811C298.046 748.558 300.518 748.932 303 748.932C305.482 748.932 307.954 748.558 310.418 747.811C312.881 747.063 314.881 746.229 316.419 745.307C317.956 744.385 319.336 743.551 320.558 742.803C321.781 742.056 322.558 741.682 322.892 741.682C325.151 741.682 327.217 742.03 329.087 742.725C330.958 743.421 332.541 744.351 333.838 745.516C335.134 746.681 336.283 748.089 337.283 749.741C338.283 751.392 339.079 753.088 339.672 754.826C340.265 756.565 340.756 758.451 341.145 760.486C341.533 762.52 341.793 764.415 341.922 766.171C342.052 767.927 342.117 769.727 342.117 771.57ZM324.337 724.99C324.337 730.519 322.253 735.24 318.086 739.152C313.918 743.064 308.89 745.02 303 745.02C297.11 745.02 292.082 743.064 287.915 739.152C283.747 735.24 281.664 730.519 281.664 724.99C281.664 719.461 283.747 714.741 287.915 710.829C292.082 706.917 297.11 704.961 303 704.961C308.89 704.961 313.918 706.917 318.086 710.829C322.253 714.741 324.337 719.461 324.337 724.99Z" fill="#949494"/>
<rect x="375.107" y="694.592" width="99.9129" height="99.9129" rx="11.3109" fill="#E5E5E5"/>
<path d="M464.652 771.57C464.652 775.743 463.3 779.038 460.595 781.454C457.891 783.871 454.298 785.08 449.816 785.08H401.253C396.771 785.08 393.178 783.871 390.474 781.454C387.77 779.038 386.418 775.743 386.418 771.57C386.418 769.727 386.483 767.927 386.612 766.171C386.742 764.415 387.001 762.52 387.39 760.486C387.779 758.451 388.27 756.565 388.863 754.826C389.455 753.088 390.252 751.392 391.252 749.741C392.252 748.089 393.4 746.681 394.697 745.516C395.993 744.351 397.577 743.421 399.448 742.725C401.318 742.03 403.383 741.682 405.643 741.682C405.976 741.682 406.754 742.056 407.977 742.803C409.199 743.551 410.579 744.385 412.116 745.307C413.653 746.229 415.654 747.063 418.117 747.811C420.58 748.558 423.053 748.932 425.535 748.932C428.017 748.932 430.489 748.558 432.953 747.811C435.416 747.063 437.416 746.229 438.953 745.307C440.491 744.385 441.87 743.551 443.093 742.803C444.315 742.056 445.093 741.682 445.427 741.682C447.686 741.682 449.751 742.03 451.622 742.725C453.493 743.421 455.076 744.351 456.373 745.516C457.669 746.681 458.817 748.089 459.818 749.741C460.818 751.392 461.614 753.088 462.207 754.826C462.799 756.565 463.29 758.451 463.679 760.486C464.068 762.52 464.327 764.415 464.457 766.171C464.587 767.927 464.652 769.727 464.652 771.57ZM446.871 724.99C446.871 730.519 444.788 735.24 440.62 739.152C436.453 743.064 431.425 745.02 425.535 745.02C419.645 745.02 414.616 743.064 410.449 739.152C406.282 735.24 404.198 730.519 404.198 724.99C404.198 719.461 406.282 714.741 410.449 710.829C414.616 706.917 419.645 704.961 425.535 704.961C431.425 704.961 436.453 706.917 440.62 710.829C444.788 714.741 446.871 719.461 446.871 724.99Z" fill="#949494"/>
<rect x="497.642" y="694.592" width="99.9129" height="99.9129" rx="11.3109" fill="#E5E5E5"/>
<path d="M587.186 771.57C587.186 775.743 585.834 779.038 583.13 781.454C580.426 783.871 576.833 785.08 572.351 785.08H523.788C519.306 785.08 515.713 783.871 513.009 781.454C510.305 779.038 508.953 775.743 508.953 771.57C508.953 769.727 509.017 767.927 509.147 766.171C509.277 764.415 509.536 762.52 509.925 760.486C510.314 758.451 510.805 756.565 511.397 754.826C511.99 753.088 512.787 751.392 513.787 749.741C514.787 748.089 515.935 746.681 517.232 745.516C518.528 744.351 520.112 743.421 521.982 742.725C523.853 742.03 525.918 741.682 528.178 741.682C528.511 741.682 529.289 742.056 530.511 742.803C531.734 743.551 533.114 744.385 534.651 745.307C536.188 746.229 538.188 747.063 540.652 747.811C543.115 748.558 545.588 748.932 548.069 748.932C550.551 748.932 553.024 748.558 555.487 747.811C557.951 747.063 559.951 746.229 561.488 745.307C563.025 744.385 564.405 743.551 565.628 742.803C566.85 742.056 567.628 741.682 567.961 741.682C570.221 741.682 572.286 742.03 574.157 742.725C576.027 743.421 577.611 744.351 578.907 745.516C580.204 746.681 581.352 748.089 582.352 749.741C583.352 751.392 584.149 753.088 584.741 754.826C585.334 756.565 585.825 758.451 586.214 760.486C586.603 762.52 586.862 764.415 586.992 766.171C587.121 767.927 587.186 769.727 587.186 771.57ZM569.406 724.99C569.406 730.519 567.322 735.24 563.155 739.152C558.988 743.064 553.959 745.02 548.069 745.02C542.18 745.02 537.151 743.064 532.984 739.152C528.817 735.24 526.733 730.519 526.733 724.99C526.733 719.461 528.817 714.741 532.984 710.829C537.151 706.917 542.18 704.961 548.069 704.961C553.959 704.961 558.988 706.917 563.155 710.829C567.322 714.741 569.406 719.461 569.406 724.99Z" fill="#949494"/>
<rect x="130.038" y="817.127" width="99.9129" height="99.9129" rx="11.3109" fill="#E5E5E5"/>
<path d="M219.582 894.105C219.582 898.277 218.23 901.572 215.526 903.989C212.822 906.406 209.229 907.614 204.747 907.614H156.184C151.702 907.614 148.109 906.406 145.405 903.989C142.701 901.572 141.349 898.277 141.349 894.105C141.349 892.262 141.413 890.462 141.543 888.706C141.673 886.95 141.932 885.055 142.321 883.02C142.71 880.986 143.201 879.1 143.793 877.361C144.386 875.622 145.182 873.927 146.183 872.275C147.183 870.624 148.331 869.215 149.628 868.05C150.924 866.885 152.508 865.955 154.378 865.26C156.249 864.564 158.314 864.217 160.574 864.217C160.907 864.217 161.685 864.59 162.907 865.338C164.13 866.086 165.509 866.92 167.047 867.842C168.584 868.763 170.584 869.598 173.048 870.345C175.511 871.093 177.984 871.467 180.465 871.467C182.947 871.467 185.42 871.093 187.883 870.345C190.346 869.598 192.347 868.763 193.884 867.842C195.421 866.92 196.801 866.086 198.023 865.338C199.246 864.59 200.024 864.217 200.357 864.217C202.617 864.217 204.682 864.564 206.553 865.26C208.423 865.955 210.007 866.885 211.303 868.05C212.6 869.215 213.748 870.624 214.748 872.275C215.748 873.927 216.545 875.622 217.137 877.361C217.73 879.1 218.221 880.986 218.61 883.02C218.999 885.055 219.258 886.95 219.388 888.706C219.517 890.462 219.582 892.262 219.582 894.105ZM201.802 847.525C201.802 853.054 199.718 857.775 195.551 861.687C191.384 865.599 186.355 867.555 180.465 867.555C174.576 867.555 169.547 865.599 165.38 861.687C161.213 857.775 159.129 853.054 159.129 847.525C159.129 841.996 161.213 837.276 165.38 833.364C169.547 829.451 174.576 827.495 180.465 827.495C186.355 827.495 191.384 829.451 195.551 833.364C199.718 837.276 201.802 841.996 201.802 847.525Z" fill="#949494"/>
<path d="M223.183 121.662L213.877 132.605L203.464 129.279C202.974 129.119 202.44 129.155 201.968 129.378C198.252 131.132 197.078 133.998 198.445 137.976C199.046 139.71 200.611 141.022 203.139 141.91L139.172 206.282L82.0701 206.458C81.6284 178.767 91.376 155.254 111.312 135.919C139.674 108.429 189.409 102.266 223.183 121.662Z" fill="white" fill-opacity="0.32"/>
<path d="M82.0701 206.458L139.172 206.282L269.753 206.341C270.084 216.597 269.686 226.36 268.56 235.63L82.2113 235.598C81.5324 226.642 81.4854 216.929 82.0701 206.458Z" fill="#BBBBBB"/>
<path d="M82.2113 235.598L268.56 235.63C259.4 287.854 215.55 310.898 167.498 308.273C123.275 305.878 88.6664 281.46 82.2113 235.598Z" fill="#D3D3D3"/>
<path d="M139.172 206.282L203.139 141.91C222.873 149.152 235.461 162.844 240.902 182.985C241.957 186.914 240.412 193.599 247.229 194.189C258.552 195.158 251.509 174.733 249.12 169.306C241.921 152.966 230.173 140.732 213.877 132.605L223.183 121.662C254.384 137.497 271.66 171.538 269.753 206.341L139.172 206.282Z" fill="#F5F5F5" fill-opacity="0.49"/>
<path d="M213.877 132.605C230.173 140.732 241.921 152.966 249.12 169.306C251.509 174.733 258.552 195.158 247.229 194.189C240.412 193.599 241.957 186.914 240.902 182.985C235.461 162.844 222.873 149.152 203.139 141.91C200.611 141.022 199.046 139.71 198.445 137.976C197.078 133.998 198.252 131.132 201.968 129.378C202.44 129.155 202.974 129.119 203.464 129.279L213.877 132.605Z" fill="white"/>
<path d="M173.041 272.141H144.13V266.373H173.041V272.141ZM207.686 279.64L205.583 285.036C202.868 284.357 200.866 283.407 199.101 282.05C197.337 283.475 195.199 284.357 192.552 284.968L191.195 281.948C190.924 283.712 189.906 285.104 186.207 285.104L184.51 280.726H183.051V272.006C182.814 272.006 182.508 272.039 182.237 272.039C182.237 275.942 182.033 282.559 181.015 285.137L177.113 282.016C177.724 280.285 177.961 275.738 177.961 272.277C177.758 272.277 177.554 272.277 177.351 272.277L177.045 267.187C177.351 267.187 177.69 267.187 177.995 267.187V256.838H181.66C182.203 255.718 182.644 254.598 182.644 254.598L188.073 254.971C188.073 254.971 187.836 255.718 187.395 256.838H191.297V263.896C193.095 261.792 193.163 259.077 193.163 256.295C193.163 256.023 193.163 255.718 193.163 255.446H203.309V261.894C203.309 262.844 203.309 262.844 203.886 262.844C204.225 262.844 204.259 262.267 204.259 261.147C204.259 260.536 204.259 259.79 204.259 258.874L207.551 260.943C207.551 265.66 207.415 267.594 204.293 267.594H202.02C199.067 267.594 198.864 266.848 198.864 263.828V260.197H197.88C197.88 260.197 197.88 265.626 194.86 268.544H206.329V272.582C206.329 272.582 205.311 276.281 202.936 278.521C204.565 279.097 205.99 279.437 207.686 279.64ZM184.884 261.419H182.237V262.674L184.884 261.419ZM187.021 264.472V261.419H185.494C185.8 261.928 186.512 263.183 187.021 264.472ZM183.662 267.017C183.594 266.848 183.526 266.678 183.458 266.542C182.915 265.117 182.508 264.099 182.237 263.488V267.051C182.712 267.051 183.187 267.017 183.662 267.017ZM187.021 266.814V265.558L184.137 266.983C185.087 266.95 186.037 266.916 187.021 266.814ZM193.808 268.544L191.297 264.778V266.475C191.942 266.407 192.315 266.373 192.315 266.373L192.213 268.544H193.808ZM200.594 273.668H197.065C197.54 274.415 198.185 275.229 198.932 276.01C199.644 275.331 200.255 274.483 200.594 273.668ZM194.962 273.668H191.908V271.123C191.908 271.123 191.636 271.157 191.297 271.157V279.505C192.485 279.301 193.672 278.996 194.792 278.521C193.469 277.265 192.179 275.433 192.179 275.433L194.962 273.668ZM187.021 279.267V271.666C186.75 271.666 186.444 271.734 186.173 271.734V280.217C186.818 280.217 187.021 279.946 187.021 279.267Z" fill="#606060"/>
<rect opacity="0.8" x="670.133" y="242.157" width="414.733" height="589.109" rx="11.3109" fill="#9AC193"/>
<rect x="705.008" y="326.988" width="99.9129" height="99.9129" rx="11.3109" fill="#C2DABE"/>
<path d="M794.553 403.966C794.553 408.139 793.201 411.433 790.497 413.85C787.792 416.267 784.199 417.475 779.717 417.475H731.155C726.672 417.475 723.079 416.267 720.375 413.85C717.671 411.433 716.319 408.139 716.319 403.966C716.319 402.123 716.384 400.323 716.514 398.567C716.643 396.811 716.902 394.916 717.291 392.882C717.68 390.847 718.171 388.961 718.764 387.222C719.357 385.484 720.153 383.788 721.153 382.137C722.153 380.485 723.302 379.076 724.598 377.912C725.895 376.747 727.478 375.816 729.349 375.121C731.219 374.425 733.284 374.078 735.544 374.078C735.877 374.078 736.655 374.452 737.878 375.199C739.1 375.947 740.48 376.781 742.017 377.703C743.555 378.624 745.555 379.459 748.018 380.207C750.481 380.954 752.954 381.328 755.436 381.328C757.918 381.328 760.39 380.954 762.854 380.207C765.317 379.459 767.317 378.624 768.855 377.703C770.392 376.781 771.772 375.947 772.994 375.199C774.216 374.452 774.994 374.078 775.328 374.078C777.587 374.078 779.652 374.425 781.523 375.121C783.394 375.816 784.977 376.747 786.274 377.912C787.57 379.076 788.719 380.485 789.719 382.137C790.719 383.788 791.515 385.484 792.108 387.222C792.701 388.961 793.191 390.847 793.58 392.882C793.969 394.916 794.229 396.811 794.358 398.567C794.488 400.323 794.553 402.123 794.553 403.966ZM776.772 357.386C776.772 362.915 774.689 367.636 770.521 371.548C766.354 375.46 761.326 377.416 755.436 377.416C749.546 377.416 744.518 375.46 740.35 371.548C736.183 367.636 734.099 362.915 734.099 357.386C734.099 351.857 736.183 347.137 740.35 343.225C744.518 339.313 749.546 337.357 755.436 337.357C761.326 337.357 766.354 339.313 770.521 343.225C774.689 347.137 776.772 351.857 776.772 357.386Z" fill="#6C8767"/>
<rect x="827.543" y="326.988" width="99.9129" height="99.9129" rx="11.3109" fill="#C2DABE"/>
<path d="M917.087 403.966C917.087 408.139 915.735 411.433 913.031 413.85C910.327 416.267 906.734 417.475 902.252 417.475H853.689C849.207 417.475 845.614 416.267 842.91 413.85C840.206 411.433 838.854 408.139 838.854 403.966C838.854 402.123 838.919 400.323 839.048 398.567C839.178 396.811 839.437 394.916 839.826 392.882C840.215 390.847 840.706 388.961 841.299 387.222C841.891 385.484 842.688 383.788 843.688 382.137C844.688 380.485 845.836 379.076 847.133 377.912C848.429 376.747 850.013 375.816 851.883 375.121C853.754 374.425 855.819 374.078 858.079 374.078C858.412 374.078 859.19 374.452 860.412 375.199C861.635 375.947 863.015 376.781 864.552 377.703C866.089 378.624 868.089 379.459 870.553 380.207C873.016 380.954 875.489 381.328 877.971 381.328C880.452 381.328 882.925 380.954 885.388 380.207C887.852 379.459 889.852 378.624 891.389 377.703C892.926 376.781 894.306 375.947 895.529 375.199C896.751 374.452 897.529 374.078 897.862 374.078C900.122 374.078 902.187 374.425 904.058 375.121C905.928 375.816 907.512 376.747 908.808 377.912C910.105 379.076 911.253 380.485 912.253 382.137C913.254 383.788 914.05 385.484 914.643 387.222C915.235 388.961 915.726 390.847 916.115 392.882C916.504 394.916 916.763 396.811 916.893 398.567C917.023 400.323 917.087 402.123 917.087 403.966ZM899.307 357.386C899.307 362.915 897.223 367.636 893.056 371.548C888.889 375.46 883.86 377.416 877.971 377.416C872.081 377.416 867.052 375.46 862.885 371.548C858.718 367.636 856.634 362.915 856.634 357.386C856.634 351.857 858.718 347.137 862.885 343.225C867.052 339.313 872.081 337.357 877.971 337.357C883.86 337.357 888.889 339.313 893.056 343.225C897.223 347.137 899.307 351.857 899.307 357.386Z" fill="#6C8767"/>
<rect x="950.078" y="326.988" width="99.9129" height="99.9129" rx="11.3109" fill="#C2DABE"/>
<path d="M1039.62 403.966C1039.62 408.139 1038.27 411.433 1035.57 413.85C1032.86 416.267 1029.27 417.475 1024.79 417.475H976.224C971.742 417.475 968.149 416.267 965.445 413.85C962.74 411.433 961.388 408.139 961.388 403.966C961.388 402.123 961.453 400.323 961.583 398.567C961.713 396.811 961.972 394.916 962.361 392.882C962.75 390.847 963.241 388.961 963.833 387.222C964.426 385.484 965.222 383.788 966.222 382.137C967.223 380.485 968.371 379.076 969.667 377.912C970.964 376.747 972.547 375.816 974.418 375.121C976.289 374.425 978.354 374.078 980.613 374.078C980.947 374.078 981.725 374.452 982.947 375.199C984.17 375.947 985.549 376.781 987.087 377.703C988.624 378.624 990.624 379.459 993.088 380.207C995.551 380.954 998.023 381.328 1000.51 381.328C1002.99 381.328 1005.46 380.954 1007.92 380.207C1010.39 379.459 1012.39 378.624 1013.92 377.703C1015.46 376.781 1016.84 375.947 1018.06 375.199C1019.29 374.452 1020.06 374.078 1020.4 374.078C1022.66 374.078 1024.72 374.425 1026.59 375.121C1028.46 375.816 1030.05 376.747 1031.34 377.912C1032.64 379.076 1033.79 380.485 1034.79 382.137C1035.79 383.788 1036.58 385.484 1037.18 387.222C1037.77 388.961 1038.26 390.847 1038.65 392.882C1039.04 394.916 1039.3 396.811 1039.43 398.567C1039.56 400.323 1039.62 402.123 1039.62 403.966ZM1021.84 357.386C1021.84 362.915 1019.76 367.636 1015.59 371.548C1011.42 375.46 1006.4 377.416 1000.51 377.416C994.616 377.416 989.587 375.46 985.42 371.548C981.252 367.636 979.169 362.915 979.169 357.386C979.169 351.857 981.252 347.137 985.42 343.225C989.587 339.313 994.616 337.357 1000.51 337.357C1006.4 337.357 1011.42 339.313 1015.59 343.225C1019.76 347.137 1021.84 351.857 1021.84 357.386Z" fill="#6C8767"/>
<rect x="705.008" y="449.523" width="99.9129" height="99.9129" rx="11.3109" fill="#C2DABE"/>
<path d="M794.553 526.501C794.553 530.673 793.201 533.968 790.497 536.385C787.792 538.802 784.199 540.01 779.717 540.01H731.155C726.672 540.01 723.079 538.802 720.375 536.385C717.671 533.968 716.319 530.673 716.319 526.501C716.319 524.657 716.384 522.858 716.514 521.102C716.643 519.346 716.902 517.451 717.291 515.416C717.68 513.382 718.171 511.496 718.764 509.757C719.357 508.018 720.153 506.323 721.153 504.671C722.153 503.02 723.302 501.611 724.598 500.446C725.895 499.281 727.478 498.351 729.349 497.656C731.219 496.96 733.284 496.612 735.544 496.612C735.877 496.612 736.655 496.986 737.878 497.734C739.1 498.482 740.48 499.316 742.017 500.238C743.555 501.159 745.555 501.994 748.018 502.741C750.481 503.489 752.954 503.863 755.436 503.863C757.918 503.863 760.39 503.489 762.854 502.741C765.317 501.994 767.317 501.159 768.855 500.238C770.392 499.316 771.772 498.482 772.994 497.734C774.216 496.986 774.994 496.612 775.328 496.612C777.587 496.612 779.652 496.96 781.523 497.656C783.394 498.351 784.977 499.281 786.274 500.446C787.57 501.611 788.719 503.02 789.719 504.671C790.719 506.323 791.515 508.018 792.108 509.757C792.701 511.496 793.191 513.382 793.58 515.416C793.969 517.451 794.229 519.346 794.358 521.102C794.488 522.858 794.553 524.657 794.553 526.501ZM776.772 479.921C776.772 485.45 774.689 490.171 770.521 494.083C766.354 497.995 761.326 499.951 755.436 499.951C749.546 499.951 744.518 497.995 740.35 494.083C736.183 490.171 734.099 485.45 734.099 479.921C734.099 474.392 736.183 469.671 740.35 465.759C744.518 461.847 749.546 459.891 755.436 459.891C761.326 459.891 766.354 461.847 770.521 465.759C774.689 469.671 776.772 474.392 776.772 479.921Z" fill="#6C8767"/>
<rect x="827.543" y="449.523" width="99.9129" height="99.9129" rx="11.3109" fill="#C2DABE"/>
<path d="M917.087 526.501C917.087 530.673 915.735 533.968 913.031 536.385C910.327 538.802 906.734 540.01 902.252 540.01H853.689C849.207 540.01 845.614 538.802 842.91 536.385C840.206 533.968 838.854 530.673 838.854 526.501C838.854 524.657 838.919 522.858 839.048 521.102C839.178 519.346 839.437 517.451 839.826 515.416C840.215 513.382 840.706 511.496 841.299 509.757C841.891 508.018 842.688 506.323 843.688 504.671C844.688 503.02 845.836 501.611 847.133 500.446C848.429 499.281 850.013 498.351 851.883 497.656C853.754 496.96 855.819 496.612 858.079 496.612C858.412 496.612 859.19 496.986 860.412 497.734C861.635 498.482 863.015 499.316 864.552 500.238C866.089 501.159 868.089 501.994 870.553 502.741C873.016 503.489 875.489 503.863 877.971 503.863C880.452 503.863 882.925 503.489 885.388 502.741C887.852 501.994 889.852 501.159 891.389 500.238C892.926 499.316 894.306 498.482 895.529 497.734C896.751 496.986 897.529 496.612 897.862 496.612C900.122 496.612 902.187 496.96 904.058 497.656C905.928 498.351 907.512 499.281 908.808 500.446C910.105 501.611 911.253 503.02 912.253 504.671C913.254 506.323 914.05 508.018 914.643 509.757C915.235 511.496 915.726 513.382 916.115 515.416C916.504 517.451 916.763 519.346 916.893 521.102C917.023 522.858 917.087 524.657 917.087 526.501ZM899.307 479.921C899.307 485.45 897.223 490.171 893.056 494.083C888.889 497.995 883.86 499.951 877.971 499.951C872.081 499.951 867.052 497.995 862.885 494.083C858.718 490.171 856.634 485.45 856.634 479.921C856.634 474.392 858.718 469.671 862.885 465.759C867.052 461.847 872.081 459.891 877.971 459.891C883.86 459.891 888.889 461.847 893.056 465.759C897.223 469.671 899.307 474.392 899.307 479.921Z" fill="#6C8767"/>
<rect x="950.078" y="449.523" width="99.9129" height="99.9129" rx="11.3109" fill="#C2DABE"/>
<path d="M1039.62 526.501C1039.62 530.673 1038.27 533.968 1035.57 536.385C1032.86 538.802 1029.27 540.01 1024.79 540.01H976.224C971.742 540.01 968.149 538.802 965.445 536.385C962.74 533.968 961.388 530.673 961.388 526.501C961.388 524.657 961.453 522.858 961.583 521.102C961.713 519.346 961.972 517.451 962.361 515.416C962.75 513.382 963.241 511.496 963.833 509.757C964.426 508.018 965.222 506.323 966.222 504.671C967.223 503.02 968.371 501.611 969.667 500.446C970.964 499.281 972.547 498.351 974.418 497.656C976.289 496.96 978.354 496.612 980.613 496.612C980.947 496.612 981.725 496.986 982.947 497.734C984.17 498.482 985.549 499.316 987.087 500.238C988.624 501.159 990.624 501.994 993.088 502.741C995.551 503.489 998.023 503.863 1000.51 503.863C1002.99 503.863 1005.46 503.489 1007.92 502.741C1010.39 501.994 1012.39 501.159 1013.92 500.238C1015.46 499.316 1016.84 498.482 1018.06 497.734C1019.29 496.986 1020.06 496.612 1020.4 496.612C1022.66 496.612 1024.72 496.96 1026.59 497.656C1028.46 498.351 1030.05 499.281 1031.34 500.446C1032.64 501.611 1033.79 503.02 1034.79 504.671C1035.79 506.323 1036.58 508.018 1037.18 509.757C1037.77 511.496 1038.26 513.382 1038.65 515.416C1039.04 517.451 1039.3 519.346 1039.43 521.102C1039.56 522.858 1039.62 524.657 1039.62 526.501ZM1021.84 479.921C1021.84 485.45 1019.76 490.171 1015.59 494.083C1011.42 497.995 1006.4 499.951 1000.51 499.951C994.616 499.951 989.587 497.995 985.42 494.083C981.252 490.171 979.169 485.45 979.169 479.921C979.169 474.392 981.252 469.671 985.42 465.759C989.587 461.847 994.616 459.891 1000.51 459.891C1006.4 459.891 1011.42 461.847 1015.59 465.759C1019.76 469.671 1021.84 474.392 1021.84 479.921Z" fill="#6C8767"/>
<rect x="705.008" y="572.058" width="99.9129" height="99.9129" rx="11.3109" fill="#C2DABE"/>
<path d="M794.553 649.035C794.553 653.208 793.201 656.503 790.497 658.92C787.792 661.336 784.199 662.545 779.717 662.545H731.155C726.672 662.545 723.079 661.336 720.375 658.92C717.671 656.503 716.319 653.208 716.319 649.035C716.319 647.192 716.384 645.393 716.514 643.637C716.643 641.881 716.902 639.985 717.291 637.951C717.68 635.917 718.171 634.03 718.764 632.292C719.357 630.553 720.153 628.858 721.153 627.206C722.153 625.554 723.302 624.146 724.598 622.981C725.895 621.816 727.478 620.886 729.349 620.19C731.219 619.495 733.284 619.147 735.544 619.147C735.877 619.147 736.655 619.521 737.878 620.269C739.1 621.016 740.48 621.851 742.017 622.772C743.555 623.694 745.555 624.528 748.018 625.276C750.481 626.024 752.954 626.397 755.436 626.397C757.918 626.397 760.39 626.024 762.854 625.276C765.317 624.528 767.317 623.694 768.855 622.772C770.392 621.851 771.772 621.016 772.994 620.269C774.216 619.521 774.994 619.147 775.328 619.147C777.587 619.147 779.652 619.495 781.523 620.19C783.394 620.886 784.977 621.816 786.274 622.981C787.57 624.146 788.719 625.554 789.719 627.206C790.719 628.858 791.515 630.553 792.108 632.292C792.701 634.03 793.191 635.917 793.58 637.951C793.969 639.985 794.229 641.881 794.358 643.637C794.488 645.393 794.553 647.192 794.553 649.035ZM776.772 602.456C776.772 607.985 774.689 612.705 770.521 616.617C766.354 620.529 761.326 622.485 755.436 622.485C749.546 622.485 744.518 620.529 740.35 616.617C736.183 612.705 734.099 607.985 734.099 602.456C734.099 596.927 736.183 592.206 740.35 588.294C744.518 584.382 749.546 582.426 755.436 582.426C761.326 582.426 766.354 584.382 770.521 588.294C774.689 592.206 776.772 596.927 776.772 602.456Z" fill="#6C8767"/>
<rect x="827.543" y="572.058" width="99.9129" height="99.9129" rx="11.3109" fill="#C2DABE"/>
<path d="M917.087 649.035C917.087 653.208 915.735 656.503 913.031 658.92C910.327 661.336 906.734 662.545 902.252 662.545H853.689C849.207 662.545 845.614 661.336 842.91 658.92C840.206 656.503 838.854 653.208 838.854 649.035C838.854 647.192 838.919 645.393 839.048 643.637C839.178 641.881 839.437 639.985 839.826 637.951C840.215 635.917 840.706 634.03 841.299 632.292C841.891 630.553 842.688 628.858 843.688 627.206C844.688 625.554 845.836 624.146 847.133 622.981C848.429 621.816 850.013 620.886 851.883 620.19C853.754 619.495 855.819 619.147 858.079 619.147C858.412 619.147 859.19 619.521 860.412 620.269C861.635 621.016 863.015 621.851 864.552 622.772C866.089 623.694 868.089 624.528 870.553 625.276C873.016 626.024 875.489 626.397 877.971 626.397C880.452 626.397 882.925 626.024 885.388 625.276C887.852 624.528 889.852 623.694 891.389 622.772C892.926 621.851 894.306 621.016 895.529 620.269C896.751 619.521 897.529 619.147 897.862 619.147C900.122 619.147 902.187 619.495 904.058 620.19C905.928 620.886 907.512 621.816 908.808 622.981C910.105 624.146 911.253 625.554 912.253 627.206C913.254 628.858 914.05 630.553 914.643 632.292C915.235 634.03 915.726 635.917 916.115 637.951C916.504 639.985 916.763 641.881 916.893 643.637C917.023 645.393 917.087 647.192 917.087 649.035ZM899.307 602.456C899.307 607.985 897.223 612.705 893.056 616.617C888.889 620.529 883.86 622.485 877.971 622.485C872.081 622.485 867.052 620.529 862.885 616.617C858.718 612.705 856.634 607.985 856.634 602.456C856.634 596.927 858.718 592.206 862.885 588.294C867.052 584.382 872.081 582.426 877.971 582.426C883.86 582.426 888.889 584.382 893.056 588.294C897.223 592.206 899.307 596.927 899.307 602.456Z" fill="#6C8767"/>
<rect x="950.078" y="572.058" width="99.9129" height="99.9129" rx="11.3109" fill="#C2DABE"/>
<path d="M1039.62 649.035C1039.62 653.208 1038.27 656.503 1035.57 658.92C1032.86 661.336 1029.27 662.545 1024.79 662.545H976.224C971.742 662.545 968.149 661.336 965.445 658.92C962.74 656.503 961.388 653.208 961.388 649.035C961.388 647.192 961.453 645.393 961.583 643.637C961.713 641.881 961.972 639.985 962.361 637.951C962.75 635.917 963.241 634.03 963.833 632.292C964.426 630.553 965.222 628.858 966.222 627.206C967.223 625.554 968.371 624.146 969.667 622.981C970.964 621.816 972.547 620.886 974.418 620.19C976.289 619.495 978.354 619.147 980.613 619.147C980.947 619.147 981.725 619.521 982.947 620.269C984.17 621.016 985.549 621.851 987.087 622.772C988.624 623.694 990.624 624.528 993.088 625.276C995.551 626.024 998.023 626.397 1000.51 626.397C1002.99 626.397 1005.46 626.024 1007.92 625.276C1010.39 624.528 1012.39 623.694 1013.92 622.772C1015.46 621.851 1016.84 621.016 1018.06 620.269C1019.29 619.521 1020.06 619.147 1020.4 619.147C1022.66 619.147 1024.72 619.495 1026.59 620.19C1028.46 620.886 1030.05 621.816 1031.34 622.981C1032.64 624.146 1033.79 625.554 1034.79 627.206C1035.79 628.858 1036.58 630.553 1037.18 632.292C1037.77 634.03 1038.26 635.917 1038.65 637.951C1039.04 639.985 1039.3 641.881 1039.43 643.637C1039.56 645.393 1039.62 647.192 1039.62 649.035ZM1021.84 602.456C1021.84 607.985 1019.76 612.705 1015.59 616.617C1011.42 620.529 1006.4 622.485 1000.51 622.485C994.616 622.485 989.587 620.529 985.42 616.617C981.252 612.705 979.169 607.985 979.169 602.456C979.169 596.927 981.252 592.206 985.42 588.294C989.587 584.382 994.616 582.426 1000.51 582.426C1006.4 582.426 1011.42 584.382 1015.59 588.294C1019.76 592.206 1021.84 596.927 1021.84 602.456Z" fill="#6C8767"/>
<rect x="705.008" y="694.592" width="99.9129" height="99.9129" rx="11.3109" fill="#C2DABE"/>
<path d="M794.553 771.57C794.553 775.743 793.201 779.038 790.497 781.454C787.792 783.871 784.199 785.08 779.717 785.08H731.155C726.672 785.08 723.079 783.871 720.375 781.454C717.671 779.038 716.319 775.743 716.319 771.57C716.319 769.727 716.384 767.927 716.514 766.171C716.643 764.415 716.902 762.52 717.291 760.486C717.68 758.451 718.171 756.565 718.764 754.826C719.357 753.088 720.153 751.392 721.153 749.741C722.153 748.089 723.302 746.681 724.598 745.516C725.895 744.351 727.478 743.421 729.349 742.725C731.219 742.03 733.284 741.682 735.544 741.682C735.877 741.682 736.655 742.056 737.878 742.803C739.1 743.551 740.48 744.385 742.017 745.307C743.555 746.229 745.555 747.063 748.018 747.811C750.481 748.558 752.954 748.932 755.436 748.932C757.918 748.932 760.39 748.558 762.854 747.811C765.317 747.063 767.317 746.229 768.855 745.307C770.392 744.385 771.772 743.551 772.994 742.803C774.216 742.056 774.994 741.682 775.328 741.682C777.587 741.682 779.652 742.03 781.523 742.725C783.394 743.421 784.977 744.351 786.274 745.516C787.57 746.681 788.719 748.089 789.719 749.741C790.719 751.392 791.515 753.088 792.108 754.826C792.701 756.565 793.191 758.451 793.58 760.486C793.969 762.52 794.229 764.415 794.358 766.171C794.488 767.927 794.553 769.727 794.553 771.57ZM776.772 724.99C776.772 730.519 774.689 735.24 770.521 739.152C766.354 743.064 761.326 745.02 755.436 745.02C749.546 745.02 744.518 743.064 740.35 739.152C736.183 735.24 734.099 730.519 734.099 724.99C734.099 719.461 736.183 714.741 740.35 710.829C744.518 706.917 749.546 704.961 755.436 704.961C761.326 704.961 766.354 706.917 770.521 710.829C774.689 714.741 776.772 719.461 776.772 724.99Z" fill="#6C8767"/>
<rect x="827.543" y="694.592" width="99.9129" height="99.9129" rx="11.3109" fill="#C2DABE"/>
<path d="M917.087 771.57C917.087 775.743 915.735 779.038 913.031 781.454C910.327 783.871 906.734 785.08 902.252 785.08H853.689C849.207 785.08 845.614 783.871 842.91 781.454C840.206 779.038 838.854 775.743 838.854 771.57C838.854 769.727 838.919 767.927 839.048 766.171C839.178 764.415 839.437 762.52 839.826 760.486C840.215 758.451 840.706 756.565 841.299 754.826C841.891 753.088 842.688 751.392 843.688 749.741C844.688 748.089 845.836 746.681 847.133 745.516C848.429 744.351 850.013 743.421 851.883 742.725C853.754 742.03 855.819 741.682 858.079 741.682C858.412 741.682 859.19 742.056 860.412 742.803C861.635 743.551 863.015 744.385 864.552 745.307C866.089 746.229 868.089 747.063 870.553 747.811C873.016 748.558 875.489 748.932 877.971 748.932C880.452 748.932 882.925 748.558 885.388 747.811C887.852 747.063 889.852 746.229 891.389 745.307C892.926 744.385 894.306 743.551 895.529 742.803C896.751 742.056 897.529 741.682 897.862 741.682C900.122 741.682 902.187 742.03 904.058 742.725C905.928 743.421 907.512 744.351 908.808 745.516C910.105 746.681 911.253 748.089 912.253 749.741C913.254 751.392 914.05 753.088 914.643 754.826C915.235 756.565 915.726 758.451 916.115 760.486C916.504 762.52 916.763 764.415 916.893 766.171C917.023 767.927 917.087 769.727 917.087 771.57ZM899.307 724.99C899.307 730.519 897.223 735.24 893.056 739.152C888.889 743.064 883.86 745.02 877.971 745.02C872.081 745.02 867.052 743.064 862.885 739.152C858.718 735.24 856.634 730.519 856.634 724.99C856.634 719.461 858.718 714.741 862.885 710.829C867.052 706.917 872.081 704.961 877.971 704.961C883.86 704.961 888.889 706.917 893.056 710.829C897.223 714.741 899.307 719.461 899.307 724.99Z" fill="#6C8767"/>
<path d="M797.211 121.662L787.905 132.605L777.492 129.279C777.002 129.119 776.468 129.155 775.996 129.378C772.28 131.132 771.106 133.998 772.473 137.976C773.074 139.71 774.639 141.022 777.167 141.91L713.2 206.282L656.098 206.458C655.656 178.767 665.404 155.254 685.34 135.919C713.702 108.429 763.437 102.266 797.211 121.662Z" fill="white" fill-opacity="0.32"/>
<path d="M656.098 206.458L713.2 206.282L778.49 206.311L843.781 206.341C844.112 216.597 843.714 226.36 842.588 235.63L656.239 235.598C655.56 226.642 655.513 216.929 656.098 206.458Z" fill="#9AC193"/>
<path d="M656.239 235.598L842.588 235.63C833.428 287.854 789.578 310.898 741.526 308.273C697.303 305.878 662.694 281.46 656.239 235.598Z" fill="#B5E3B1"/>
<path d="M713.2 206.282L777.167 141.91C796.901 149.152 809.488 162.844 814.93 182.985C815.985 186.914 814.44 193.599 821.257 194.189C832.58 195.158 825.537 174.733 823.148 169.306C815.949 152.966 804.201 140.732 787.905 132.605L797.211 121.662C828.412 137.497 845.688 171.538 843.781 206.341L778.49 206.311L713.2 206.282Z" fill="#F5F5F5" fill-opacity="0.49"/>
<path d="M787.905 132.605C804.201 140.732 815.949 152.966 823.148 169.306C825.537 174.733 832.58 195.158 821.257 194.189C814.44 193.599 815.985 186.914 814.93 182.985C809.488 162.844 796.901 149.152 777.167 141.91C774.639 141.022 773.074 139.71 772.473 137.976C771.106 133.998 772.28 131.132 775.996 129.378C776.468 129.155 777.002 129.119 777.492 129.279L787.905 132.605Z" fill="white"/>
<path d="M747.68 277.978H738.925V285.036H733.157V254.632H738.925V258.365H746.865V263.454H738.925V265.66H746.526V270.411H738.925V272.888H747.68V277.978ZM733.021 274.788C732.444 274.958 731.901 275.127 731.29 275.297C730.646 279.165 728.644 283.034 722.536 285.137L719.075 280.217C722.468 279.064 724.164 277.978 724.979 276.79C722.909 277.231 720.635 277.638 718.023 278.012L717.208 272.582C720.228 272.413 723.045 272.107 725.793 271.666C725.793 271.055 725.793 270.479 725.793 270.004H718.43V265.253H725.827V263.454H717.955V258.365H725.827V254.632H731.596V268.578C731.596 269.189 731.596 269.834 731.596 270.512C731.833 270.479 732.037 270.411 732.24 270.377L733.021 274.788ZM781.613 272.447C781.613 282.491 781.545 284.459 777.133 284.459H772.213C769.736 284.459 768.616 283.644 768.616 281.405V274.788L765.393 276.994C765.393 276.994 763.153 271.632 761.219 268.239C761.015 275.67 759.76 280.998 755.111 284.934L751.039 279.81C755.009 276.586 755.824 272.956 755.824 264.506V255.548H774.046V277.808C774.046 278.588 774.385 278.622 774.894 278.622C774.962 278.622 774.996 278.622 775.03 278.622H775.572C776.387 278.622 776.489 278.385 776.489 274.245C776.489 272.956 776.489 271.293 776.489 269.121L781.613 271.53C781.613 271.836 781.613 272.141 781.613 272.447ZM768.616 271.123V261.011H761.253V264.506C761.253 265.015 761.253 265.728 761.253 266.237L764.816 263.794C766.411 266.508 767.564 268.918 768.616 271.123Z" fill="#606060"/>
<rect opacity="0.8" x="1122.57" y="242.157" width="294.083" height="715.414" rx="11.3109" fill="#A4C4D2"/>
<rect x="1157.44" y="326.988" width="99.9129" height="99.9129" rx="11.3109" fill="#C8DCE4"/>
<path d="M1246.99 403.966C1246.99 408.139 1245.64 411.433 1242.93 413.85C1240.23 416.267 1236.64 417.475 1232.15 417.475H1183.59C1179.11 417.475 1175.52 416.267 1172.81 413.85C1170.11 411.433 1168.76 408.139 1168.76 403.966C1168.76 402.123 1168.82 400.323 1168.95 398.567C1169.08 396.811 1169.34 394.916 1169.73 392.882C1170.12 390.847 1170.61 388.961 1171.2 387.222C1171.79 385.484 1172.59 383.788 1173.59 382.137C1174.59 380.485 1175.74 379.076 1177.03 377.912C1178.33 376.747 1179.91 375.816 1181.78 375.121C1183.66 374.425 1185.72 374.078 1187.98 374.078C1188.31 374.078 1189.09 374.452 1190.31 375.199C1191.54 375.947 1192.92 376.781 1194.45 377.703C1195.99 378.624 1197.99 379.459 1200.45 380.207C1202.92 380.954 1205.39 381.328 1207.87 381.328C1210.35 381.328 1212.83 380.954 1215.29 380.207C1217.75 379.459 1219.75 378.624 1221.29 377.703C1222.83 376.781 1224.21 375.947 1225.43 375.199C1226.65 374.452 1227.43 374.078 1227.76 374.078C1230.02 374.078 1232.09 374.425 1233.96 375.121C1235.83 375.816 1237.41 376.747 1238.71 377.912C1240.01 379.076 1241.15 380.485 1242.15 382.137C1243.15 383.788 1243.95 385.484 1244.54 387.222C1245.14 388.961 1245.63 390.847 1246.02 392.882C1246.41 394.916 1246.66 396.811 1246.79 398.567C1246.92 400.323 1246.99 402.123 1246.99 403.966ZM1229.21 357.386C1229.21 362.915 1227.12 367.636 1222.96 371.548C1218.79 375.46 1213.76 377.416 1207.87 377.416C1201.98 377.416 1196.95 375.46 1192.79 371.548C1188.62 367.636 1186.54 362.915 1186.54 357.386C1186.54 351.857 1188.62 347.137 1192.79 343.225C1196.95 339.313 1201.98 337.357 1207.87 337.357C1213.76 337.357 1218.79 339.313 1222.96 343.225C1227.12 347.137 1229.21 351.857 1229.21 357.386Z" fill="#738993"/>
<rect x="1279.98" y="326.988" width="99.9129" height="99.9129" rx="11.3109" fill="#C8DCE4"/>
<path d="M1369.52 403.966C1369.52 408.139 1368.17 411.433 1365.47 413.85C1362.76 416.267 1359.17 417.475 1354.69 417.475H1306.13C1301.64 417.475 1298.05 416.267 1295.35 413.85C1292.64 411.433 1291.29 408.139 1291.29 403.966C1291.29 402.123 1291.35 400.323 1291.48 398.567C1291.61 396.811 1291.87 394.916 1292.26 392.882C1292.65 390.847 1293.14 388.961 1293.73 387.222C1294.33 385.484 1295.12 383.788 1296.12 382.137C1297.12 380.485 1298.27 379.076 1299.57 377.912C1300.87 376.747 1302.45 375.816 1304.32 375.121C1306.19 374.425 1308.26 374.078 1310.51 374.078C1310.85 374.078 1311.63 374.452 1312.85 375.199C1314.07 375.947 1315.45 376.781 1316.99 377.703C1318.53 378.624 1320.53 379.459 1322.99 380.207C1325.45 380.954 1327.92 381.328 1330.41 381.328C1332.89 381.328 1335.36 380.954 1337.82 380.207C1340.29 379.459 1342.29 378.624 1343.83 377.703C1345.36 376.781 1346.74 375.947 1347.96 375.199C1349.19 374.452 1349.96 374.078 1350.3 374.078C1352.56 374.078 1354.62 374.425 1356.49 375.121C1358.36 375.816 1359.95 376.747 1361.24 377.912C1362.54 379.076 1363.69 380.485 1364.69 382.137C1365.69 383.788 1366.49 385.484 1367.08 387.222C1367.67 388.961 1368.16 390.847 1368.55 392.882C1368.94 394.916 1369.2 396.811 1369.33 398.567C1369.46 400.323 1369.52 402.123 1369.52 403.966ZM1351.74 357.386C1351.74 362.915 1349.66 367.636 1345.49 371.548C1341.32 375.46 1336.3 377.416 1330.41 377.416C1324.52 377.416 1319.49 375.46 1315.32 371.548C1311.15 367.636 1309.07 362.915 1309.07 357.386C1309.07 351.857 1311.15 347.137 1315.32 343.225C1319.49 339.313 1324.52 337.357 1330.41 337.357C1336.3 337.357 1341.32 339.313 1345.49 343.225C1349.66 347.137 1351.74 351.857 1351.74 357.386Z" fill="#738993"/>
<rect x="1157.44" y="449.523" width="99.9129" height="99.9129" rx="11.3109" fill="#C8DCE4"/>
<path d="M1246.99 526.501C1246.99 530.673 1245.64 533.968 1242.93 536.385C1240.23 538.802 1236.64 540.01 1232.15 540.01H1183.59C1179.11 540.01 1175.52 538.802 1172.81 536.385C1170.11 533.968 1168.76 530.673 1168.76 526.501C1168.76 524.657 1168.82 522.858 1168.95 521.102C1169.08 519.346 1169.34 517.451 1169.73 515.416C1170.12 513.382 1170.61 511.496 1171.2 509.757C1171.79 508.018 1172.59 506.323 1173.59 504.671C1174.59 503.02 1175.74 501.611 1177.03 500.446C1178.33 499.281 1179.91 498.351 1181.78 497.656C1183.66 496.96 1185.72 496.612 1187.98 496.612C1188.31 496.612 1189.09 496.986 1190.31 497.734C1191.54 498.482 1192.92 499.316 1194.45 500.238C1195.99 501.159 1197.99 501.994 1200.45 502.741C1202.92 503.489 1205.39 503.863 1207.87 503.863C1210.35 503.863 1212.83 503.489 1215.29 502.741C1217.75 501.994 1219.75 501.159 1221.29 500.238C1222.83 499.316 1224.21 498.482 1225.43 497.734C1226.65 496.986 1227.43 496.612 1227.76 496.612C1230.02 496.612 1232.09 496.96 1233.96 497.656C1235.83 498.351 1237.41 499.281 1238.71 500.446C1240.01 501.611 1241.15 503.02 1242.15 504.671C1243.15 506.323 1243.95 508.018 1244.54 509.757C1245.14 511.496 1245.63 513.382 1246.02 515.416C1246.41 517.451 1246.66 519.346 1246.79 521.102C1246.92 522.858 1246.99 524.657 1246.99 526.501ZM1229.21 479.921C1229.21 485.45 1227.12 490.171 1222.96 494.083C1218.79 497.995 1213.76 499.951 1207.87 499.951C1201.98 499.951 1196.95 497.995 1192.79 494.083C1188.62 490.171 1186.54 485.45 1186.54 479.921C1186.54 474.392 1188.62 469.671 1192.79 465.759C1196.95 461.847 1201.98 459.891 1207.87 459.891C1213.76 459.891 1218.79 461.847 1222.96 465.759C1227.12 469.671 1229.21 474.392 1229.21 479.921Z" fill="#738993"/>
<rect x="1279.98" y="449.523" width="99.9129" height="99.9129" rx="11.3109" fill="#C8DCE4"/>
<path d="M1369.52 526.501C1369.52 530.673 1368.17 533.968 1365.47 536.385C1362.76 538.802 1359.17 540.01 1354.69 540.01H1306.13C1301.64 540.01 1298.05 538.802 1295.35 536.385C1292.64 533.968 1291.29 530.673 1291.29 526.501C1291.29 524.657 1291.35 522.858 1291.48 521.102C1291.61 519.346 1291.87 517.451 1292.26 515.416C1292.65 513.382 1293.14 511.496 1293.73 509.757C1294.33 508.018 1295.12 506.323 1296.12 504.671C1297.12 503.02 1298.27 501.611 1299.57 500.446C1300.87 499.281 1302.45 498.351 1304.32 497.656C1306.19 496.96 1308.26 496.612 1310.51 496.612C1310.85 496.612 1311.63 496.986 1312.85 497.734C1314.07 498.482 1315.45 499.316 1316.99 500.238C1318.53 501.159 1320.53 501.994 1322.99 502.741C1325.45 503.489 1327.92 503.863 1330.41 503.863C1332.89 503.863 1335.36 503.489 1337.82 502.741C1340.29 501.994 1342.29 501.159 1343.83 500.238C1345.36 499.316 1346.74 498.482 1347.96 497.734C1349.19 496.986 1349.96 496.612 1350.3 496.612C1352.56 496.612 1354.62 496.96 1356.49 497.656C1358.36 498.351 1359.95 499.281 1361.24 500.446C1362.54 501.611 1363.69 503.02 1364.69 504.671C1365.69 506.323 1366.49 508.018 1367.08 509.757C1367.67 511.496 1368.16 513.382 1368.55 515.416C1368.94 517.451 1369.2 519.346 1369.33 521.102C1369.46 522.858 1369.52 524.657 1369.52 526.501ZM1351.74 479.921C1351.74 485.45 1349.66 490.171 1345.49 494.083C1341.32 497.995 1336.3 499.951 1330.41 499.951C1324.52 499.951 1319.49 497.995 1315.32 494.083C1311.15 490.171 1309.07 485.45 1309.07 479.921C1309.07 474.392 1311.15 469.671 1315.32 465.759C1319.49 461.847 1324.52 459.891 1330.41 459.891C1336.3 459.891 1341.32 461.847 1345.49 465.759C1349.66 469.671 1351.74 474.392 1351.74 479.921Z" fill="#738993"/>
<rect x="1157.44" y="572.058" width="99.9129" height="99.9129" rx="11.3109" fill="#C8DCE4"/>
<path d="M1246.99 649.035C1246.99 653.208 1245.64 656.503 1242.93 658.92C1240.23 661.336 1236.64 662.545 1232.15 662.545H1183.59C1179.11 662.545 1175.52 661.336 1172.81 658.92C1170.11 656.503 1168.76 653.208 1168.76 649.035C1168.76 647.192 1168.82 645.393 1168.95 643.637C1169.08 641.881 1169.34 639.985 1169.73 637.951C1170.12 635.917 1170.61 634.03 1171.2 632.292C1171.79 630.553 1172.59 628.858 1173.59 627.206C1174.59 625.554 1175.74 624.146 1177.03 622.981C1178.33 621.816 1179.91 620.886 1181.78 620.19C1183.66 619.495 1185.72 619.147 1187.98 619.147C1188.31 619.147 1189.09 619.521 1190.31 620.269C1191.54 621.016 1192.92 621.851 1194.45 622.772C1195.99 623.694 1197.99 624.528 1200.45 625.276C1202.92 626.024 1205.39 626.397 1207.87 626.397C1210.35 626.397 1212.83 626.024 1215.29 625.276C1217.75 624.528 1219.75 623.694 1221.29 622.772C1222.83 621.851 1224.21 621.016 1225.43 620.269C1226.65 619.521 1227.43 619.147 1227.76 619.147C1230.02 619.147 1232.09 619.495 1233.96 620.19C1235.83 620.886 1237.41 621.816 1238.71 622.981C1240.01 624.146 1241.15 625.554 1242.15 627.206C1243.15 628.858 1243.95 630.553 1244.54 632.292C1245.14 634.03 1245.63 635.917 1246.02 637.951C1246.41 639.985 1246.66 641.881 1246.79 643.637C1246.92 645.393 1246.99 647.192 1246.99 649.035ZM1229.21 602.456C1229.21 607.985 1227.12 612.705 1222.96 616.617C1218.79 620.529 1213.76 622.485 1207.87 622.485C1201.98 622.485 1196.95 620.529 1192.79 616.617C1188.62 612.705 1186.54 607.985 1186.54 602.456C1186.54 596.927 1188.62 592.206 1192.79 588.294C1196.95 584.382 1201.98 582.426 1207.87 582.426C1213.76 582.426 1218.79 584.382 1222.96 588.294C1227.12 592.206 1229.21 596.927 1229.21 602.456Z" fill="#738993"/>
<rect x="1279.98" y="572.058" width="99.9129" height="99.9129" rx="11.3109" fill="#C8DCE4"/>
<path d="M1369.52 649.035C1369.52 653.208 1368.17 656.503 1365.47 658.92C1362.76 661.336 1359.17 662.545 1354.69 662.545H1306.13C1301.64 662.545 1298.05 661.336 1295.35 658.92C1292.64 656.503 1291.29 653.208 1291.29 649.035C1291.29 647.192 1291.35 645.393 1291.48 643.637C1291.61 641.881 1291.87 639.985 1292.26 637.951C1292.65 635.917 1293.14 634.03 1293.73 632.292C1294.33 630.553 1295.12 628.858 1296.12 627.206C1297.12 625.554 1298.27 624.146 1299.57 622.981C1300.87 621.816 1302.45 620.886 1304.32 620.19C1306.19 619.495 1308.26 619.147 1310.51 619.147C1310.85 619.147 1311.63 619.521 1312.85 620.269C1314.07 621.016 1315.45 621.851 1316.99 622.772C1318.53 623.694 1320.53 624.528 1322.99 625.276C1325.45 626.024 1327.92 626.397 1330.41 626.397C1332.89 626.397 1335.36 626.024 1337.82 625.276C1340.29 624.528 1342.29 623.694 1343.83 622.772C1345.36 621.851 1346.74 621.016 1347.96 620.269C1349.19 619.521 1349.96 619.147 1350.3 619.147C1352.56 619.147 1354.62 619.495 1356.49 620.19C1358.36 620.886 1359.95 621.816 1361.24 622.981C1362.54 624.146 1363.69 625.554 1364.69 627.206C1365.69 628.858 1366.49 630.553 1367.08 632.292C1367.67 634.03 1368.16 635.917 1368.55 637.951C1368.94 639.985 1369.2 641.881 1369.33 643.637C1369.46 645.393 1369.52 647.192 1369.52 649.035ZM1351.74 602.456C1351.74 607.985 1349.66 612.705 1345.49 616.617C1341.32 620.529 1336.3 622.485 1330.41 622.485C1324.52 622.485 1319.49 620.529 1315.32 616.617C1311.15 612.705 1309.07 607.985 1309.07 602.456C1309.07 596.927 1311.15 592.206 1315.32 588.294C1319.49 584.382 1324.52 582.426 1330.41 582.426C1336.3 582.426 1341.32 584.382 1345.49 588.294C1349.66 592.206 1351.74 596.927 1351.74 602.456Z" fill="#738993"/>
<rect x="1157.44" y="694.592" width="99.9129" height="99.9129" rx="11.3109" fill="#C8DCE4"/>
<path d="M1246.99 771.57C1246.99 775.743 1245.64 779.038 1242.93 781.454C1240.23 783.871 1236.64 785.08 1232.15 785.08H1183.59C1179.11 785.08 1175.52 783.871 1172.81 781.454C1170.11 779.038 1168.76 775.743 1168.76 771.57C1168.76 769.727 1168.82 767.927 1168.95 766.171C1169.08 764.415 1169.34 762.52 1169.73 760.486C1170.12 758.451 1170.61 756.565 1171.2 754.826C1171.79 753.088 1172.59 751.392 1173.59 749.741C1174.59 748.089 1175.74 746.681 1177.03 745.516C1178.33 744.351 1179.91 743.421 1181.78 742.725C1183.66 742.03 1185.72 741.682 1187.98 741.682C1188.31 741.682 1189.09 742.056 1190.31 742.803C1191.54 743.551 1192.92 744.385 1194.45 745.307C1195.99 746.229 1197.99 747.063 1200.45 747.811C1202.92 748.558 1205.39 748.932 1207.87 748.932C1210.35 748.932 1212.83 748.558 1215.29 747.811C1217.75 747.063 1219.75 746.229 1221.29 745.307C1222.83 744.385 1224.21 743.551 1225.43 742.803C1226.65 742.056 1227.43 741.682 1227.76 741.682C1230.02 741.682 1232.09 742.03 1233.96 742.725C1235.83 743.421 1237.41 744.351 1238.71 745.516C1240.01 746.681 1241.15 748.089 1242.15 749.741C1243.15 751.392 1243.95 753.088 1244.54 754.826C1245.14 756.565 1245.63 758.451 1246.02 760.486C1246.41 762.52 1246.66 764.415 1246.79 766.171C1246.92 767.927 1246.99 769.727 1246.99 771.57ZM1229.21 724.99C1229.21 730.519 1227.12 735.24 1222.96 739.152C1218.79 743.064 1213.76 745.02 1207.87 745.02C1201.98 745.02 1196.95 743.064 1192.79 739.152C1188.62 735.24 1186.54 730.519 1186.54 724.99C1186.54 719.461 1188.62 714.741 1192.79 710.829C1196.95 706.917 1201.98 704.961 1207.87 704.961C1213.76 704.961 1218.79 706.917 1222.96 710.829C1227.12 714.741 1229.21 719.461 1229.21 724.99Z" fill="#738993"/>
<rect x="1279.98" y="694.592" width="99.9129" height="99.9129" rx="11.3109" fill="#C8DCE4"/>
<path d="M1369.52 771.57C1369.52 775.743 1368.17 779.038 1365.47 781.454C1362.76 783.871 1359.17 785.08 1354.69 785.08H1306.13C1301.64 785.08 1298.05 783.871 1295.35 781.454C1292.64 779.038 1291.29 775.743 1291.29 771.57C1291.29 769.727 1291.35 767.927 1291.48 766.171C1291.61 764.415 1291.87 762.52 1292.26 760.486C1292.65 758.451 1293.14 756.565 1293.73 754.826C1294.33 753.088 1295.12 751.392 1296.12 749.741C1297.12 748.089 1298.27 746.681 1299.57 745.516C1300.87 744.351 1302.45 743.421 1304.32 742.725C1306.19 742.03 1308.26 741.682 1310.51 741.682C1310.85 741.682 1311.63 742.056 1312.85 742.803C1314.07 743.551 1315.45 744.385 1316.99 745.307C1318.53 746.229 1320.53 747.063 1322.99 747.811C1325.45 748.558 1327.92 748.932 1330.41 748.932C1332.89 748.932 1335.36 748.558 1337.82 747.811C1340.29 747.063 1342.29 746.229 1343.83 745.307C1345.36 744.385 1346.74 743.551 1347.96 742.803C1349.19 742.056 1349.96 741.682 1350.3 741.682C1352.56 741.682 1354.62 742.03 1356.49 742.725C1358.36 743.421 1359.95 744.351 1361.24 745.516C1362.54 746.681 1363.69 748.089 1364.69 749.741C1365.69 751.392 1366.49 753.088 1367.08 754.826C1367.67 756.565 1368.16 758.451 1368.55 760.486C1368.94 762.52 1369.2 764.415 1369.33 766.171C1369.46 767.927 1369.52 769.727 1369.52 771.57ZM1351.74 724.99C1351.74 730.519 1349.66 735.24 1345.49 739.152C1341.32 743.064 1336.3 745.02 1330.41 745.02C1324.52 745.02 1319.49 743.064 1315.32 739.152C1311.15 735.24 1309.07 730.519 1309.07 724.99C1309.07 719.461 1311.15 714.741 1315.32 710.829C1319.49 706.917 1324.52 704.961 1330.41 704.961C1336.3 704.961 1341.32 706.917 1345.49 710.829C1349.66 714.741 1351.74 719.461 1351.74 724.99Z" fill="#738993"/>
<rect x="1157.44" y="817.127" width="99.9129" height="99.9129" rx="11.3109" fill="#C8DCE4"/>
<path d="M1246.99 894.105C1246.99 898.277 1245.64 901.572 1242.93 903.989C1240.23 906.406 1236.64 907.614 1232.15 907.614H1183.59C1179.11 907.614 1175.52 906.406 1172.81 903.989C1170.11 901.572 1168.76 898.277 1168.76 894.105C1168.76 892.262 1168.82 890.462 1168.95 888.706C1169.08 886.95 1169.34 885.055 1169.73 883.02C1170.12 880.986 1170.61 879.1 1171.2 877.361C1171.79 875.622 1172.59 873.927 1173.59 872.275C1174.59 870.624 1175.74 869.215 1177.03 868.05C1178.33 866.885 1179.91 865.955 1181.78 865.26C1183.66 864.564 1185.72 864.217 1187.98 864.217C1188.31 864.217 1189.09 864.59 1190.31 865.338C1191.54 866.086 1192.92 866.92 1194.45 867.842C1195.99 868.763 1197.99 869.598 1200.45 870.345C1202.92 871.093 1205.39 871.467 1207.87 871.467C1210.35 871.467 1212.83 871.093 1215.29 870.345C1217.75 869.598 1219.75 868.763 1221.29 867.842C1222.83 866.92 1224.21 866.086 1225.43 865.338C1226.65 864.59 1227.43 864.217 1227.76 864.217C1230.02 864.217 1232.09 864.564 1233.96 865.26C1235.83 865.955 1237.41 866.885 1238.71 868.05C1240.01 869.215 1241.15 870.624 1242.15 872.275C1243.15 873.927 1243.95 875.622 1244.54 877.361C1245.14 879.1 1245.63 880.986 1246.02 883.02C1246.41 885.055 1246.66 886.95 1246.79 888.706C1246.92 890.462 1246.99 892.262 1246.99 894.105ZM1229.21 847.525C1229.21 853.054 1227.12 857.775 1222.96 861.687C1218.79 865.599 1213.76 867.555 1207.87 867.555C1201.98 867.555 1196.95 865.599 1192.79 861.687C1188.62 857.775 1186.54 853.054 1186.54 847.525C1186.54 841.996 1188.62 837.276 1192.79 833.364C1196.95 829.451 1201.98 827.495 1207.87 827.495C1213.76 827.495 1218.79 829.451 1222.96 833.364C1227.12 837.276 1229.21 841.996 1229.21 847.525Z" fill="#738993"/>
<path d="M1249.65 121.662L1240.34 132.605L1229.93 129.279C1229.44 129.119 1228.9 129.155 1228.43 129.378C1224.72 131.132 1223.54 133.998 1224.91 137.976C1225.51 139.71 1227.07 141.022 1229.6 141.91L1165.64 206.282L1108.53 206.458C1108.09 178.767 1117.84 155.254 1137.78 135.919C1166.14 108.429 1215.87 102.266 1249.65 121.662Z" fill="white" fill-opacity="0.32"/>
<path d="M1108.53 206.458L1165.64 206.282L1230.93 206.311L1296.22 206.341C1296.55 216.597 1296.15 226.36 1295.02 235.63L1108.68 235.598C1108 226.642 1107.95 216.929 1108.53 206.458Z" fill="#A4C4D2"/>
<path d="M1108.68 235.598L1295.02 235.63C1285.86 287.854 1242.01 310.898 1193.96 308.273C1149.74 305.878 1115.13 281.46 1108.68 235.598Z" fill="#B6DAE9"/>
<path d="M1165.64 206.282L1229.6 141.91C1249.34 149.152 1261.92 162.844 1267.37 182.985C1268.42 186.914 1266.88 193.599 1273.69 194.189C1285.02 195.158 1277.97 174.733 1275.58 169.306C1268.38 152.966 1256.64 140.732 1240.34 132.605L1249.65 121.662C1280.85 137.497 1298.12 171.538 1296.22 206.341L1230.93 206.311L1165.64 206.282Z" fill="#F5F5F5" fill-opacity="0.49"/>
<path d="M1240.34 132.605C1256.64 140.732 1268.38 152.966 1275.58 169.306C1277.97 174.733 1285.02 195.158 1273.69 194.189C1266.88 193.599 1268.42 186.914 1267.37 182.985C1261.92 162.844 1249.34 149.152 1229.6 141.91C1227.07 141.022 1225.51 139.71 1224.91 137.976C1223.54 133.998 1224.72 131.132 1228.43 129.378C1228.9 129.155 1229.44 129.119 1229.93 129.279L1240.34 132.605Z" fill="white"/>
<path d="M1183.62 262.504L1181.59 267.934C1176.91 265.728 1173.89 262.267 1172.66 260.468C1171.68 262.165 1169.47 264.812 1164.72 267.323L1161.94 262.403C1168.46 259.959 1169.85 255.141 1169.85 255.141H1174.94C1174.94 255.141 1177.65 260.265 1183.62 262.504ZM1176.29 265.49C1176.29 265.49 1173.31 269.732 1166.49 272.447L1163.71 268.51C1170.53 265.932 1172.87 262.504 1172.87 262.504L1176.29 265.49ZM1164.04 279.335C1164.04 279.335 1159.91 281.066 1153.56 282.762L1152.68 277.231C1153.8 276.96 1154.82 276.688 1155.73 276.417V270.92H1153.12V265.66H1155.73V261.351H1152.92V256.091H1163.98V261.351H1161.16V265.66H1163.6V270.92H1161.16V274.788C1163.16 274.109 1164.04 273.702 1164.04 273.702V279.335ZM1180.2 269.393C1179.69 270.139 1175.92 275.331 1166.76 278.453L1164.15 274.143C1172.87 271.361 1176.19 267.119 1176.63 266.576L1180.2 269.393ZM1183.35 274.381C1182.71 275.331 1177.92 281.948 1166.9 285.104L1163.64 280.489C1174.33 277.876 1179.18 271.938 1180.13 270.852L1183.35 274.381ZM1216 267.221C1215.55 278.724 1210.46 284.764 1201.2 284.764C1194.31 284.764 1189.73 282.151 1189.73 274.245V255.888H1195.57V273.838C1195.57 277.435 1197.54 279.03 1201.27 279.03C1206.9 279.03 1209.58 275.195 1210.13 267.221H1216ZM1250.57 281.099H1244.64C1244.64 272.141 1243.52 265.524 1239.07 257.652H1245.52C1248.77 263.76 1250.57 269.834 1250.57 281.099ZM1237.37 281.507C1236.02 282.491 1233.06 284.086 1230.15 284.086C1225.02 284.086 1222.04 280.048 1222.04 269.732C1222.04 265.015 1222.71 259.925 1223.29 256.838H1229.23C1228.31 261.588 1227.8 266.135 1227.8 270.479C1227.8 274.856 1228.75 277.978 1231.06 277.978C1233.27 277.978 1235.41 276.349 1237.37 274.856V281.507Z" fill="#606060"/>
<rect opacity="0.8" x="1454.35" y="242.156" width="167.778" height="715.414" rx="11.3109" fill="#CCB6E9"/>
<rect x="1488.29" y="326.988" width="99.9129" height="99.9129" rx="11.3109" fill="#E0D3F2"/>
<path d="M1577.83 403.966C1577.83 408.139 1576.48 411.433 1573.78 413.85C1571.07 416.267 1567.48 417.475 1563 417.475H1514.43C1509.95 417.475 1506.36 416.267 1503.65 413.85C1500.95 411.433 1499.6 408.139 1499.6 403.966C1499.6 402.123 1499.66 400.323 1499.79 398.567C1499.92 396.811 1500.18 394.916 1500.57 392.882C1500.96 390.847 1501.45 388.961 1502.04 387.222C1502.64 385.484 1503.43 383.788 1504.43 382.137C1505.43 380.485 1506.58 379.076 1507.88 377.912C1509.17 376.747 1510.76 375.816 1512.63 375.121C1514.5 374.425 1516.56 374.078 1518.82 374.078C1519.16 374.078 1519.93 374.452 1521.16 375.199C1522.38 375.947 1523.76 376.781 1525.3 377.703C1526.83 378.624 1528.83 379.459 1531.3 380.207C1533.76 380.954 1536.23 381.328 1538.72 381.328C1541.2 381.328 1543.67 380.954 1546.13 380.207C1548.6 379.459 1550.6 378.624 1552.13 377.703C1553.67 376.781 1555.05 375.947 1556.27 375.199C1557.5 374.452 1558.27 374.078 1558.61 374.078C1560.87 374.078 1562.93 374.425 1564.8 375.121C1566.67 375.816 1568.26 376.747 1569.55 377.912C1570.85 379.076 1572 380.485 1573 382.137C1574 383.788 1574.79 385.484 1575.39 387.222C1575.98 388.961 1576.47 390.847 1576.86 392.882C1577.25 394.916 1577.51 396.811 1577.64 398.567C1577.77 400.323 1577.83 402.123 1577.83 403.966ZM1560.05 357.386C1560.05 362.915 1557.97 367.636 1553.8 371.548C1549.63 375.46 1544.6 377.416 1538.72 377.416C1532.83 377.416 1527.8 375.46 1523.63 371.548C1519.46 367.636 1517.38 362.915 1517.38 357.386C1517.38 351.857 1519.46 347.137 1523.63 343.225C1527.8 339.313 1532.83 337.357 1538.72 337.357C1544.6 337.357 1549.63 339.313 1553.8 343.225C1557.97 347.137 1560.05 351.857 1560.05 357.386Z" fill="#8F7FA3"/>
<rect x="1488.29" y="449.523" width="99.9129" height="99.9129" rx="11.3109" fill="#E0D3F2"/>
<path d="M1577.83 526.501C1577.83 530.673 1576.48 533.968 1573.78 536.385C1571.07 538.802 1567.48 540.01 1563 540.01H1514.43C1509.95 540.01 1506.36 538.802 1503.65 536.385C1500.95 533.968 1499.6 530.673 1499.6 526.501C1499.6 524.657 1499.66 522.858 1499.79 521.102C1499.92 519.346 1500.18 517.451 1500.57 515.416C1500.96 513.382 1501.45 511.496 1502.04 509.757C1502.64 508.018 1503.43 506.323 1504.43 504.671C1505.43 503.02 1506.58 501.611 1507.88 500.446C1509.17 499.281 1510.76 498.351 1512.63 497.656C1514.5 496.96 1516.56 496.612 1518.82 496.612C1519.16 496.612 1519.93 496.986 1521.16 497.734C1522.38 498.482 1523.76 499.316 1525.3 500.238C1526.83 501.159 1528.83 501.994 1531.3 502.741C1533.76 503.489 1536.23 503.863 1538.72 503.863C1541.2 503.863 1543.67 503.489 1546.13 502.741C1548.6 501.994 1550.6 501.159 1552.13 500.238C1553.67 499.316 1555.05 498.482 1556.27 497.734C1557.5 496.986 1558.27 496.612 1558.61 496.612C1560.87 496.612 1562.93 496.96 1564.8 497.656C1566.67 498.351 1568.26 499.281 1569.55 500.446C1570.85 501.611 1572 503.02 1573 504.671C1574 506.323 1574.79 508.018 1575.39 509.757C1575.98 511.496 1576.47 513.382 1576.86 515.416C1577.25 517.451 1577.51 519.346 1577.64 521.102C1577.77 522.858 1577.83 524.657 1577.83 526.501ZM1560.05 479.921C1560.05 485.45 1557.97 490.171 1553.8 494.083C1549.63 497.995 1544.6 499.951 1538.72 499.951C1532.83 499.951 1527.8 497.995 1523.63 494.083C1519.46 490.171 1517.38 485.45 1517.38 479.921C1517.38 474.392 1519.46 469.671 1523.63 465.759C1527.8 461.847 1532.83 459.891 1538.72 459.891C1544.6 459.891 1549.63 461.847 1553.8 465.759C1557.97 469.671 1560.05 474.392 1560.05 479.921Z" fill="#8F7FA3"/>
<rect x="1488.29" y="572.058" width="99.9129" height="99.9129" rx="11.3109" fill="#E0D3F2"/>
<path d="M1577.83 649.035C1577.83 653.208 1576.48 656.503 1573.78 658.92C1571.07 661.336 1567.48 662.545 1563 662.545H1514.43C1509.95 662.545 1506.36 661.336 1503.65 658.92C1500.95 656.503 1499.6 653.208 1499.6 649.035C1499.6 647.192 1499.66 645.393 1499.79 643.637C1499.92 641.881 1500.18 639.985 1500.57 637.951C1500.96 635.917 1501.45 634.03 1502.04 632.292C1502.64 630.553 1503.43 628.858 1504.43 627.206C1505.43 625.554 1506.58 624.146 1507.88 622.981C1509.17 621.816 1510.76 620.886 1512.63 620.19C1514.5 619.495 1516.56 619.147 1518.82 619.147C1519.16 619.147 1519.93 619.521 1521.16 620.269C1522.38 621.016 1523.76 621.851 1525.3 622.772C1526.83 623.694 1528.83 624.528 1531.3 625.276C1533.76 626.024 1536.23 626.397 1538.72 626.397C1541.2 626.397 1543.67 626.024 1546.13 625.276C1548.6 624.528 1550.6 623.694 1552.13 622.772C1553.67 621.851 1555.05 621.016 1556.27 620.269C1557.5 619.521 1558.27 619.147 1558.61 619.147C1560.87 619.147 1562.93 619.495 1564.8 620.19C1566.67 620.886 1568.26 621.816 1569.55 622.981C1570.85 624.146 1572 625.554 1573 627.206C1574 628.858 1574.79 630.553 1575.39 632.292C1575.98 634.03 1576.47 635.917 1576.86 637.951C1577.25 639.985 1577.51 641.881 1577.64 643.637C1577.77 645.393 1577.83 647.192 1577.83 649.035ZM1560.05 602.456C1560.05 607.985 1557.97 612.705 1553.8 616.617C1549.63 620.529 1544.6 622.485 1538.72 622.485C1532.83 622.485 1527.8 620.529 1523.63 616.617C1519.46 612.705 1517.38 607.985 1517.38 602.456C1517.38 596.927 1519.46 592.206 1523.63 588.294C1527.8 584.382 1532.83 582.426 1538.72 582.426C1544.6 582.426 1549.63 584.382 1553.8 588.294C1557.97 592.206 1560.05 596.927 1560.05 602.456Z" fill="#8F7FA3"/>
<rect x="1488.29" y="694.592" width="99.9129" height="99.9129" rx="11.3109" fill="#E0D3F2"/>
<path d="M1577.83 771.57C1577.83 775.743 1576.48 779.038 1573.78 781.454C1571.07 783.871 1567.48 785.08 1563 785.08H1514.43C1509.95 785.08 1506.36 783.871 1503.65 781.454C1500.95 779.038 1499.6 775.743 1499.6 771.57C1499.6 769.727 1499.66 767.927 1499.79 766.171C1499.92 764.415 1500.18 762.52 1500.57 760.486C1500.96 758.451 1501.45 756.565 1502.04 754.826C1502.64 753.088 1503.43 751.392 1504.43 749.741C1505.43 748.089 1506.58 746.681 1507.88 745.516C1509.17 744.351 1510.76 743.421 1512.63 742.725C1514.5 742.03 1516.56 741.682 1518.82 741.682C1519.16 741.682 1519.93 742.056 1521.16 742.803C1522.38 743.551 1523.76 744.385 1525.3 745.307C1526.83 746.229 1528.83 747.063 1531.3 747.811C1533.76 748.558 1536.23 748.932 1538.72 748.932C1541.2 748.932 1543.67 748.558 1546.13 747.811C1548.6 747.063 1550.6 746.229 1552.13 745.307C1553.67 744.385 1555.05 743.551 1556.27 742.803C1557.5 742.056 1558.27 741.682 1558.61 741.682C1560.87 741.682 1562.93 742.03 1564.8 742.725C1566.67 743.421 1568.26 744.351 1569.55 745.516C1570.85 746.681 1572 748.089 1573 749.741C1574 751.392 1574.79 753.088 1575.39 754.826C1575.98 756.565 1576.47 758.451 1576.86 760.486C1577.25 762.52 1577.51 764.415 1577.64 766.171C1577.77 767.927 1577.83 769.727 1577.83 771.57ZM1560.05 724.99C1560.05 730.519 1557.97 735.24 1553.8 739.152C1549.63 743.064 1544.6 745.02 1538.72 745.02C1532.83 745.02 1527.8 743.064 1523.63 739.152C1519.46 735.24 1517.38 730.519 1517.38 724.99C1517.38 719.461 1519.46 714.741 1523.63 710.829C1527.8 706.917 1532.83 704.961 1538.72 704.961C1544.6 704.961 1549.63 706.917 1553.8 710.829C1557.97 714.741 1560.05 719.461 1560.05 724.99Z" fill="#8F7FA3"/>
<rect x="1488.29" y="817.127" width="99.9129" height="99.9129" rx="11.3109" fill="#E0D3F2"/>
<path d="M1577.83 894.105C1577.83 898.277 1576.48 901.572 1573.78 903.989C1571.07 906.406 1567.48 907.614 1563 907.614H1514.43C1509.95 907.614 1506.36 906.406 1503.65 903.989C1500.95 901.572 1499.6 898.277 1499.6 894.105C1499.6 892.262 1499.66 890.462 1499.79 888.706C1499.92 886.95 1500.18 885.055 1500.57 883.02C1500.96 880.986 1501.45 879.1 1502.04 877.361C1502.64 875.622 1503.43 873.927 1504.43 872.275C1505.43 870.624 1506.58 869.215 1507.88 868.05C1509.17 866.885 1510.76 865.955 1512.63 865.26C1514.5 864.564 1516.56 864.217 1518.82 864.217C1519.16 864.217 1519.93 864.59 1521.16 865.338C1522.38 866.086 1523.76 866.92 1525.3 867.842C1526.83 868.763 1528.83 869.598 1531.3 870.345C1533.76 871.093 1536.23 871.467 1538.72 871.467C1541.2 871.467 1543.67 871.093 1546.13 870.345C1548.6 869.598 1550.6 868.763 1552.13 867.842C1553.67 866.92 1555.05 866.086 1556.27 865.338C1557.5 864.59 1558.27 864.217 1558.61 864.217C1560.87 864.217 1562.93 864.564 1564.8 865.26C1566.67 865.955 1568.26 866.885 1569.55 868.05C1570.85 869.215 1572 870.624 1573 872.275C1574 873.927 1574.79 875.622 1575.39 877.361C1575.98 879.1 1576.47 880.986 1576.86 883.02C1577.25 885.055 1577.51 886.95 1577.64 888.706C1577.77 890.462 1577.83 892.262 1577.83 894.105ZM1560.05 847.525C1560.05 853.054 1557.97 857.775 1553.8 861.687C1549.63 865.599 1544.6 867.555 1538.72 867.555C1532.83 867.555 1527.8 865.599 1523.63 861.687C1519.46 857.775 1517.38 853.054 1517.38 847.525C1517.38 841.996 1519.46 837.276 1523.63 833.364C1527.8 829.451 1532.83 827.495 1538.72 827.495C1544.6 827.495 1549.63 829.451 1553.8 833.364C1557.97 837.276 1560.05 841.996 1560.05 847.525Z" fill="#8F7FA3"/>
<path d="M1586.15 121.662L1576.84 132.605L1566.43 129.279C1565.94 129.119 1565.4 129.155 1564.93 129.378C1561.21 131.132 1560.04 133.998 1561.41 137.976C1562.01 139.71 1563.57 141.022 1566.1 141.91L1502.13 206.282L1445.03 206.458C1444.59 178.767 1454.34 155.254 1474.28 135.919C1502.64 108.429 1552.37 102.266 1586.15 121.662Z" fill="white" fill-opacity="0.32"/>
<path d="M1445.03 206.458L1502.13 206.282L1567.42 206.311L1632.72 206.341C1633.05 216.597 1632.65 226.36 1631.52 235.63L1445.17 235.598C1444.5 226.642 1444.45 216.929 1445.03 206.458Z" fill="#B5A4D2"/>
<path d="M1445.17 235.598L1631.52 235.63C1622.36 287.854 1578.51 310.898 1530.46 308.273C1486.24 305.878 1451.63 281.46 1445.17 235.598Z" fill="#CCB6E9"/>
<path d="M1502.13 206.282L1566.1 141.91C1585.84 149.152 1598.42 162.844 1603.86 182.985C1604.92 186.914 1603.37 193.599 1610.19 194.189C1621.51 195.158 1614.47 174.733 1612.08 169.306C1604.88 152.966 1593.14 140.732 1576.84 132.605L1586.15 121.662C1617.35 137.497 1634.62 171.538 1632.72 206.341L1567.42 206.311L1502.13 206.282Z" fill="#F5F5F5" fill-opacity="0.49"/>
<path d="M1576.84 132.605C1593.14 140.732 1604.88 152.966 1612.08 169.306C1614.47 174.733 1621.51 195.158 1610.19 194.189C1603.37 193.599 1604.92 186.914 1603.86 182.985C1598.42 162.844 1585.84 149.152 1566.1 141.91C1563.57 141.022 1562.01 139.71 1561.41 137.976C1560.04 133.998 1561.21 131.132 1564.93 129.378C1565.4 129.155 1565.94 129.119 1566.43 129.279L1576.84 132.605Z" fill="white"/>
<path d="M1536.58 269.155H1530.1V278.996H1535.77V284.425H1518.56V278.996H1524.67V269.155H1517.68V263.726H1524.67V254.564H1530.1V263.726H1536.58V269.155ZM1516.83 285.103H1511.4V277.74C1510.55 279.572 1509.1 281.371 1507.67 282.423L1506.08 276.145C1508.48 274.313 1510.59 271.361 1511.4 269.8V265.49L1510.01 266.882C1510.01 266.882 1508.59 263.929 1506.11 260.129L1509.47 256.532C1510.25 257.754 1511.1 259.45 1511.4 260.333V254.564H1516.83V285.103ZM1570.48 279.64L1567.22 285.069C1561.18 281.88 1557.62 277.638 1555.45 273.906C1553.14 278.554 1549.2 282.423 1543.61 285.036L1540.04 279.776C1547.68 276.552 1550.8 271.429 1551.88 266.949H1540.82V261.351H1552.26V254.564H1558.06V261.351H1569.7V266.949H1558.33C1559.52 270.105 1562.64 275.874 1570.48 279.64Z" fill="#606060"/>
<rect opacity="0.8" x="1659.84" y="242.157" width="167.778" height="217.735" rx="11.3109" fill="#E9D3B6"/>
<rect x="1693.77" y="326.988" width="99.9129" height="99.9129" rx="11.3109" fill="#F2E5D3"/>
<path d="M1783.31 403.966C1783.31 408.139 1781.96 411.433 1779.26 413.85C1776.55 416.267 1772.96 417.475 1768.48 417.475H1719.92C1715.43 417.475 1711.84 416.267 1709.14 413.85C1706.43 411.433 1705.08 408.139 1705.08 403.966C1705.08 402.123 1705.14 400.323 1705.27 398.567C1705.4 396.811 1705.66 394.916 1706.05 392.882C1706.44 390.847 1706.93 388.961 1707.52 387.222C1708.12 385.483 1708.91 383.788 1709.91 382.136C1710.91 380.485 1712.06 379.076 1713.36 377.911C1714.66 376.746 1716.24 375.816 1718.11 375.121C1719.98 374.425 1722.05 374.078 1724.3 374.078C1724.64 374.078 1725.42 374.451 1726.64 375.199C1727.86 375.947 1729.24 376.781 1730.78 377.703C1732.32 378.624 1734.32 379.459 1736.78 380.206C1739.24 380.954 1741.71 381.328 1744.2 381.328C1746.68 381.328 1749.15 380.954 1751.61 380.206C1754.08 379.459 1756.08 378.624 1757.62 377.703C1759.15 376.781 1760.53 375.947 1761.75 375.199C1762.98 374.451 1763.75 374.078 1764.09 374.078C1766.35 374.078 1768.41 374.425 1770.28 375.121C1772.15 375.816 1773.74 376.746 1775.03 377.911C1776.33 379.076 1777.48 380.485 1778.48 382.136C1779.48 383.788 1780.28 385.483 1780.87 387.222C1781.46 388.961 1781.95 390.847 1782.34 392.882C1782.73 394.916 1782.99 396.811 1783.12 398.567C1783.25 400.323 1783.31 402.123 1783.31 403.966ZM1765.53 357.386C1765.53 362.915 1763.45 367.636 1759.28 371.548C1755.11 375.46 1750.09 377.416 1744.2 377.416C1738.31 377.416 1733.28 375.46 1729.11 371.548C1724.94 367.636 1722.86 362.915 1722.86 357.386C1722.86 351.857 1724.94 347.137 1729.11 343.225C1733.28 339.312 1738.31 337.356 1744.2 337.356C1750.09 337.356 1755.11 339.312 1759.28 343.225C1763.45 347.137 1765.53 351.857 1765.53 357.386Z" fill="#A3947F"/>
<path d="M1791.63 121.662L1782.32 132.605L1771.91 129.279C1771.42 129.119 1770.88 129.155 1770.41 129.378C1766.7 131.132 1765.52 133.998 1766.89 137.976C1767.49 139.711 1769.05 141.022 1771.58 141.911L1707.62 206.282L1650.51 206.458C1650.07 178.767 1659.82 155.254 1679.76 135.919C1708.12 108.429 1757.85 102.266 1791.63 121.662Z" fill="white" fill-opacity="0.32"/>
<path d="M1650.51 206.458L1707.62 206.282L1772.91 206.311L1838.2 206.341C1838.53 216.597 1838.13 226.36 1837 235.631L1650.66 235.598C1649.98 226.642 1649.93 216.929 1650.51 206.458Z" fill="#D2BEA4"/>
<path d="M1650.66 235.598L1837 235.631C1827.84 287.854 1783.99 310.898 1735.94 308.273C1691.72 305.878 1657.11 281.46 1650.66 235.598Z" fill="#E9D3B6"/>
<path d="M1707.62 206.282L1771.58 141.911C1791.32 149.152 1803.9 162.844 1809.35 182.985C1810.4 186.914 1808.86 193.6 1815.67 194.19C1827 195.158 1819.95 174.733 1817.56 169.306C1810.37 152.966 1798.62 140.732 1782.32 132.605L1791.63 121.662C1822.83 137.498 1840.1 171.538 1838.2 206.341L1772.91 206.311L1707.62 206.282Z" fill="#F5F5F5" fill-opacity="0.49"/>
<path d="M1782.32 132.605C1798.62 140.732 1810.37 152.966 1817.56 169.306C1819.95 174.733 1827 195.158 1815.67 194.19C1808.86 193.6 1810.4 186.914 1809.35 182.985C1803.9 162.844 1791.32 149.152 1771.58 141.911C1769.05 141.022 1767.49 139.711 1766.89 137.976C1765.52 133.998 1766.7 131.132 1770.41 129.378C1770.88 129.155 1771.42 129.119 1771.91 129.279L1782.32 132.605Z" fill="white"/>
<path d="M1722.46 261.995H1704.4V256.566H1722.46V261.995ZM1703.93 255.684C1703.39 257.584 1702.71 259.349 1701.99 260.977V285.104H1696.57V269.902C1695.85 271.123 1695.07 271.938 1695.07 271.938L1693.65 264.846C1693.65 264.846 1696.4 261.317 1698.57 254.632L1703.93 255.684ZM1724.19 271.157H1719.84C1720.49 272.616 1722.49 277.197 1724.15 282.321L1718.72 285.07C1718.52 284.289 1718.32 283.509 1718.11 282.796C1715.13 283.373 1710.34 284.052 1703.56 284.289L1702.98 278.588C1703.66 278.588 1704.34 278.487 1704.98 278.487C1706.17 275.806 1707.08 273.261 1707.76 271.157H1702.74V265.728H1724.19V271.157ZM1718.59 271.157H1713.87C1713.29 273.091 1712.48 275.501 1711.43 278.046C1713.57 277.808 1715.26 277.604 1716.55 277.435C1715.57 274.483 1714.86 272.854 1714.86 272.854L1718.59 271.157ZM1739.29 259.043H1728.53V255.175H1739.29V259.043ZM1739.83 264.506H1727.61V260.061H1739.83V264.506ZM1739.29 269.189H1728.53V265.524H1739.29V269.189ZM1758.12 280.149C1758.12 283.814 1756.56 284.527 1754.01 284.527H1751.54C1748.65 284.527 1747.84 284.153 1747.84 281.303V273.397H1747.13C1746.92 278.826 1745.84 282.864 1741.42 285.137L1739.52 281.914V284.289H1733.35V285.104H1728.26V274.89H1739.52V279.369C1741.42 277.944 1742 276.247 1742.17 273.397H1740.41V261.283H1743.16C1742.54 259.79 1741.87 258.025 1740.85 256.295L1746.01 254.632C1747.16 256.363 1748.35 259.824 1748.35 259.824L1745.06 261.283H1748.99C1750.45 258.297 1751.37 254.7 1751.37 254.7L1757.17 255.65C1757.17 255.65 1755.95 258.704 1754.76 261.283H1757.07V273.397H1753V278.792C1753 279.165 1753.06 279.165 1753.5 279.165C1753.78 279.165 1753.84 279.064 1753.84 278.588V274.618L1758.12 276.179V280.149ZM1739.29 273.872H1728.53V270.207H1739.29V273.872ZM1751.64 268.646V266.067H1745.84V268.646H1751.64ZM1734.77 280.285V278.826H1733.01V280.285H1734.77ZM1791.44 259.077C1791.44 282.219 1791.31 285.036 1780.38 285.036L1778.51 279.267C1778.89 279.267 1779.26 279.267 1779.6 279.267C1785.98 279.267 1786.01 278.86 1786.01 263.319H1780.58C1779.6 264.88 1778.68 266.441 1776.75 267.73L1775.7 263.896V283.135H1767.79V285.104H1762.36V258.67H1765.38C1765.92 257.584 1766.6 256.091 1766.98 254.564L1772.44 255.141C1772.07 256.43 1771.62 257.618 1771.18 258.67H1775.7V260.401C1777.56 257.55 1778.38 254.598 1778.38 254.598L1783.94 254.937C1783.94 254.937 1783.74 256.159 1783.13 257.923H1791.44V259.077ZM1784.52 273.736L1779.7 276.213C1778.38 272.481 1776.27 268.782 1776.27 268.782L1780.62 266.475C1780.62 266.475 1783.06 270.037 1784.52 273.736ZM1770.27 268.001V263.556H1767.79V268.001H1770.27ZM1770.27 278.046V272.956H1767.79V278.046H1770.27Z" fill="#606060"/>
<path d="M1477.56 110.652C1477.56 125.064 1467.79 137.958 1454 137.958C1467.79 137.958 1477.56 150.852 1477.56 165.263C1477.56 150.852 1487.34 137.958 1501.13 137.958C1487.34 137.958 1477.56 125.064 1477.56 110.652Z" fill="white"/>
<path d="M1665.14 110.653C1665.14 132.547 1650.28 152.135 1629.32 152.135C1650.28 152.135 1665.14 171.725 1665.14 193.618C1665.14 171.725 1680 152.135 1700.95 152.135C1680 152.135 1665.14 132.547 1665.14 110.653Z" fill="white"/>
<path d="M1698.13 97C1698.13 111.412 1688.35 124.305 1674.56 124.305C1688.35 124.305 1698.13 137.199 1698.13 151.61C1698.13 137.199 1707.9 124.305 1721.69 124.305C1707.9 124.305 1698.13 111.412 1698.13 97Z" fill="white"/>
</svg>
