<svg width="1921" height="1051" viewBox="0 0 1921 1051" fill="none" xmlns="http://www.w3.org/2000/svg">
<g clip-path="url(#clip0_1_2)">
<rect width="1920" height="1050" transform="translate(0.5 0.00726318)" fill="#171717"/>
<rect x="1" width="986" height="1050" fill="#131313"/>
<path d="M319.353 118.455C316.973 119.385 314.564 120.254 312.128 121.063C295.613 126.614 285.068 139.74 282.125 157.008C280.311 167.637 284.105 177.749 293.911 182.464C295.678 183.319 297.119 184.291 298.235 185.379L292.614 185.421L248.174 185.463C231.463 183.817 223.526 171.361 226.679 155.041C229.971 138.08 241.911 125.164 257.966 120.463C262.504 119.133 269.362 118.459 278.54 118.441C292.126 118.431 305.73 118.436 319.353 118.455Z" fill="#252525"/>
<path d="M319.353 118.455C450.554 118.427 581.778 118.427 713.026 118.455C720.474 118.455 726.212 119.082 730.238 120.338C747.228 125.596 760.479 141.539 761.455 159.63C762.236 174.137 754.076 184.779 739.207 185.407L298.235 185.379C297.119 184.291 295.678 183.319 293.911 182.464C284.105 177.749 280.311 167.637 282.125 157.008C285.068 139.74 295.613 126.614 312.128 121.063C314.564 120.254 316.973 119.385 319.353 118.455Z" fill="#3A3A3A"/>
<path d="M248.174 185.463L292.614 185.421C292.856 192.274 292.949 199.123 292.893 205.967C292.791 217.851 298.761 225.825 310.803 229.888L270.505 230.125C244.282 227.391 248.202 204.697 248.174 185.463Z" fill="#505050"/>
<path d="M292.614 185.421L298.235 185.379L739.207 185.407C739.179 194.32 740.853 208.547 737.422 216.498C733.73 225.062 726.877 229.577 716.861 230.042L315.141 230.028L310.803 229.888C298.761 225.825 292.791 217.851 292.893 205.967C292.949 199.123 292.856 192.274 292.614 185.421Z" fill="#606060"/>
<path d="M716.861 230.042V452.992L679.953 452.923C690.582 416.936 675.197 382.609 640.158 368.061C631.194 364.351 620.351 363.007 607.63 364.03C618.249 343.079 619.105 322.547 610.196 302.434C597.517 271.371 561.362 256.948 530.605 265.875C509.357 272.04 494.451 286.24 485.886 308.473C486.184 308.585 485.974 308.762 485.258 309.003C470.213 284.631 448.257 273.296 419.393 274.997C375.092 279.586 348.701 325.421 364.31 366.234C349.106 370.585 336.887 379.034 327.653 391.578C319.312 374.923 315.141 357.92 315.141 340.569C315.141 303.763 315.141 266.916 315.141 230.028L716.861 230.042Z" fill="white" fill-opacity="0.39"/>
<path d="M310.803 229.888L315.141 230.028C315.141 266.916 315.141 303.763 315.141 340.569C315.141 357.92 319.312 374.923 327.653 391.578C319.553 403.108 315.364 415.862 315.085 429.838C315.085 430.191 315.239 430.54 315.545 430.884C315.508 431.005 315.448 431.107 315.364 431.191C315.262 431.293 315.211 431.414 315.211 431.554C316.299 464.36 339.119 492.118 372.023 496.735C372.609 496.818 372.665 497.037 372.191 497.39L371.619 497.822L292.781 497.836L270.505 497.822V230.125L310.803 229.888Z" fill="white" fill-opacity="0.29"/>
<path d="M610.196 302.434L488.829 358.436C481.688 342.703 480.632 326.518 485.663 309.882C485.784 309.473 485.649 309.18 485.258 309.003C485.974 308.762 486.184 308.585 485.886 308.473C494.451 286.24 509.357 272.04 530.605 265.875C561.362 256.948 597.517 271.371 610.196 302.434Z" fill="#878787"/>
<path d="M485.258 309.003C485.649 309.18 485.784 309.473 485.663 309.882C480.632 326.518 481.688 342.703 488.829 358.436L490.28 361.854C489.676 362.356 489.406 362.951 489.471 363.639C467.804 365.629 450.489 375.532 437.526 393.349L431.333 385.008L425.363 330.003L419.393 274.997C448.257 273.296 470.213 284.631 485.258 309.003Z" fill="#9AC193"/>
<path d="M419.393 274.997L425.363 330.003L431.333 385.008C411.731 366.327 389.39 360.068 364.31 366.234C348.701 325.421 375.092 279.586 419.393 274.997Z" fill="#878787"/>
<path d="M610.196 302.434C619.105 322.547 618.249 343.079 607.63 364.03L604.129 365.09C584.517 369.191 569.392 379.782 558.754 396.864L551.724 397.157L546.563 389.667C532.251 372.12 513.802 363.435 491.214 363.611C491.149 362.998 490.838 362.412 490.28 361.854L488.829 358.436L610.196 302.434Z" fill="#CCB6E9"/>
<path d="M490.28 361.854C490.838 362.412 491.149 362.998 491.214 363.611C490.843 363.872 490.261 363.881 489.471 363.639C489.406 362.951 489.676 362.356 490.28 361.854Z" fill="#505050"/>
<path d="M607.63 364.03C620.351 363.007 631.194 364.351 640.158 368.061C675.197 382.609 690.582 416.936 679.953 452.923C670.645 476.728 653.586 491.355 628.776 496.804L604.129 365.09L607.63 364.03Z" fill="#E9D3B6"/>
<path d="M489.471 363.639C490.261 363.881 490.843 363.872 491.214 363.611C513.802 363.435 532.251 372.12 546.563 389.667L493.746 430.794L440.93 471.92L437.652 468.112C445.063 456.833 448.829 444.423 448.95 430.884C448.848 416.973 445.04 404.461 437.526 393.349C450.489 375.532 467.804 365.629 489.471 363.639Z" fill="#B6DAE9"/>
<path d="M431.333 385.008L437.526 393.349C445.04 404.461 448.848 416.973 448.95 430.884H315.545C315.239 430.54 315.085 430.191 315.085 429.838C315.364 415.862 319.553 403.108 327.653 391.578C336.887 379.034 349.106 370.585 364.31 366.234C389.39 360.068 411.731 366.327 431.333 385.008Z" fill="#C2C2C2"/>
<path d="M604.129 365.09L628.776 496.804C627.902 496.218 626.437 496.497 624.382 497.641L606.402 497.46C582.355 492.299 565.259 479.085 555.113 457.819C547.711 439.946 547.711 421.948 555.113 403.824L558.754 396.864C569.392 379.782 584.517 369.191 604.129 365.09Z" fill="#878787"/>
<path d="M546.563 389.667L551.724 397.157L555.113 403.824C547.711 421.948 547.711 439.946 555.113 457.819C543.731 480.852 525.458 494.07 500.295 497.474L487.518 497.488C485.677 496.948 483.803 496.563 481.897 496.33C465.744 494.349 450.791 484.418 440.93 471.92L493.746 430.794L546.563 389.667Z" fill="#878787"/>
<path d="M558.754 396.864L555.113 403.824L551.724 397.157L558.754 396.864Z" fill="white" fill-opacity="0.39"/>
<path d="M315.545 430.884H448.95C448.829 444.423 445.063 456.833 437.652 468.112C426.67 483.958 411.187 493.745 391.203 497.474L371.619 497.822L372.191 497.39C372.665 497.037 372.609 496.818 372.023 496.735C339.119 492.118 316.299 464.36 315.211 431.554C315.211 431.414 315.262 431.293 315.364 431.191C315.448 431.107 315.508 431.005 315.545 430.884Z" fill="#878787"/>
<path d="M679.953 452.923L716.861 452.992L716.875 497.697L624.382 497.641C626.437 496.497 627.902 496.218 628.776 496.804C653.586 491.355 670.645 476.728 679.953 452.923Z" fill="white" fill-opacity="0.29"/>
<path d="M555.113 457.819C565.259 479.085 582.355 492.299 606.402 497.46C570.396 498.074 535.027 498.078 500.295 497.474C525.458 494.07 543.731 480.852 555.113 457.819Z" fill="white" fill-opacity="0.29"/>
<path d="M437.652 468.112L440.93 471.92C450.791 484.418 465.744 494.349 481.897 496.33C483.803 496.563 485.677 496.948 487.518 497.488C455.576 498.064 423.471 498.06 391.203 497.474C411.187 493.745 426.67 483.958 437.652 468.112Z" fill="white" fill-opacity="0.29"/>
<path d="M391.203 497.474C423.471 498.06 455.576 498.064 487.518 497.488L500.295 497.474C535.027 498.078 570.396 498.074 606.402 497.46L624.382 497.641L716.875 497.697C731.521 498.618 739.179 508.27 739.179 522.26C739.179 580.806 739.179 639.612 739.179 698.679L683.385 698.721C683.454 680.49 685.407 659.805 677.861 642.579C664.777 612.729 636.601 596.493 603.627 598.502C573.358 602.617 548.739 622.619 540.816 652.147C537.231 665.552 538.221 683.517 538.18 698.693C478.545 698.702 419.105 698.693 359.86 698.665C346.535 698.665 337.301 697.958 332.158 696.545C308.32 689.989 293.716 667.56 293.576 643.248C293.316 594.829 293.051 546.358 292.781 497.836L371.619 497.822L391.203 497.474ZM672.045 547.618C672.045 543.312 670.334 539.183 667.289 536.138C664.244 533.093 660.114 531.382 655.808 531.382H554.737C550.43 531.382 546.301 533.093 543.256 536.138C540.211 539.183 538.5 543.312 538.5 547.618V548.483C538.5 552.789 540.211 556.919 543.256 559.964C546.301 563.008 550.43 564.719 554.737 564.719H655.808C660.114 564.719 664.244 563.008 667.289 559.964C670.334 556.919 672.045 552.789 672.045 548.483V547.618ZM336.58 551.817C326.937 549.743 319.353 552.468 313.83 559.99C310.417 564.649 309.548 570.945 311.221 578.877C308.283 585.516 306.539 590.226 305.991 593.006C299.672 624.753 312.03 653.905 340.374 668.62C359.716 678.672 379.97 678.863 401.134 669.192C409.606 670.68 416.134 669.676 420.718 666.179C427.953 660.656 430.501 653.142 428.362 643.639C447.095 610.735 436.773 569.768 403.366 551.147C382.406 539.458 360.144 539.682 336.58 551.817Z" fill="#3A3A3A"/>
<path d="M270.505 497.822L292.781 497.836C293.051 546.358 293.316 594.829 293.576 643.248C293.716 667.56 308.32 689.989 332.158 696.545C337.301 697.958 346.535 698.665 359.86 698.665C419.105 698.693 478.545 698.702 538.18 698.693L538.207 720.578L260.155 721.038C259.718 721.038 259.402 721.229 259.207 721.61C248.564 741.696 258.761 765.645 282.71 765.645C444.914 765.655 607.197 765.65 769.559 765.631C769.969 767.268 770.564 769.142 771.345 771.252C776.004 783.904 766.993 787.963 756.322 787.963C581.211 787.963 406.1 787.963 230.989 787.963C223.289 787.963 217.291 787.265 215.185 779.621C213.386 773.038 223.554 748.796 226.149 741.333C230.389 729.142 235.522 722.098 248.578 721.038C249.099 721.001 249.359 720.718 249.359 720.187C248.941 658.285 248.639 596.41 248.453 534.562C248.453 533.065 248.346 530.043 248.132 525.496C247.42 510.264 254.674 499.148 270.505 497.822Z" fill="#252525"/>
<path d="M655.808 531.382H554.737C545.77 531.382 538.5 538.651 538.5 547.618V548.483C538.5 557.45 545.77 564.719 554.737 564.719H655.808C664.775 564.719 672.045 557.45 672.045 548.483V547.618C672.045 538.651 664.775 531.382 655.808 531.382Z" fill="#1E1E1E"/>
<path d="M428.362 643.639C426.372 639.808 424.866 637.381 423.843 636.358C397.117 609.623 370.382 582.894 343.638 556.169C342.773 555.304 340.421 553.853 336.58 551.817C360.144 539.682 382.406 539.458 403.366 551.147C436.773 569.768 447.095 610.735 428.362 643.639Z" fill="#505050"/>
<path d="M336.58 551.817C340.421 553.853 342.773 555.304 343.638 556.169C370.382 582.894 397.117 609.623 423.843 636.358C424.866 637.381 426.372 639.808 428.362 643.639C430.501 653.142 427.953 660.656 420.718 666.179C416.134 669.676 409.606 670.68 401.134 669.192C384.852 654.174 368.843 638.627 353.109 622.549C352.746 622.177 346.177 615.607 333.4 602.84C325.514 594.954 318.121 586.967 311.221 578.877C309.548 570.945 310.417 564.649 313.83 559.99C319.353 552.468 326.937 549.743 336.58 551.817Z" fill="#D4D4D6"/>
<path d="M311.221 578.877C318.121 586.967 325.514 594.954 333.4 602.84C346.177 615.607 352.746 622.177 353.109 622.549C368.843 638.627 384.852 654.174 401.134 669.192C379.97 678.863 359.716 678.672 340.374 668.62C312.03 653.905 299.672 624.753 305.991 593.006C306.539 590.226 308.283 585.516 311.221 578.877Z" fill="#505050"/>
<path d="M683.385 698.721L683.413 720.927L661.053 720.983C661.039 700.353 663.187 674.311 659.254 655.927C653.2 627.612 632.849 607.15 603.682 600.036C603.124 599.906 602.99 599.59 603.278 599.088L603.627 598.502C636.601 596.493 664.777 612.729 677.861 642.579C685.407 659.805 683.454 680.49 683.385 698.721Z" fill="#1A1A1A"/>
<path d="M603.627 598.502L603.278 599.088C602.99 599.59 603.124 599.906 603.682 600.036C632.849 607.15 653.2 627.612 659.254 655.927C663.187 674.311 661.039 700.353 661.053 720.983L538.626 720.969C538.542 720.969 538.468 720.945 538.403 720.899C537.956 720.601 537.891 720.494 538.207 720.578L538.18 698.693C538.221 683.517 537.231 665.552 540.816 652.147C548.739 622.619 573.358 602.617 603.627 598.502Z" fill="#1E1E1E"/>
<path d="M739.179 698.679L739.193 720.913L683.413 720.927L683.385 698.721L739.179 698.679Z" fill="#252525"/>
<path d="M538.207 720.578C537.891 720.494 537.956 720.601 538.403 720.899C538.468 720.945 538.542 720.969 538.626 720.969L661.053 720.983L683.413 720.927L739.193 720.913C749.645 721.852 756.615 727.348 760.102 737.4C764.101 748.93 767.253 758.341 769.559 765.631C607.197 765.65 444.914 765.655 282.71 765.645C258.761 765.645 248.564 741.696 259.207 721.61C259.402 721.229 259.718 721.038 260.155 721.038L538.207 720.578Z" fill="#3A3A3A"/>
<path d="M896.624 499.181C896.624 494.031 900.799 489.856 905.949 489.856H985.211C990.361 489.856 994.536 494.031 994.536 499.181V549.535C994.536 554.685 990.361 558.86 985.211 558.86H905.949C900.799 558.86 896.624 554.685 896.624 549.535V499.181Z" fill="#2D2D2D"/>
<path d="M978.605 463.662C978.624 455.354 986.361 449.491 991.853 453.623L1074.94 516.145C1079.95 519.918 1079.32 529.367 1073.77 533.571L990.397 596.751C984.849 600.955 978.298 596.949 978.315 589.365L978.605 463.662Z" fill="#2D2D2D"/>
<path d="M1686.49 212.133C1681.44 214.611 1676.37 216.215 1671.26 216.945C1668.37 213.018 1665.05 208.85 1660.09 208.479C1659.56 208.436 1659.09 208.576 1658.66 208.898C1653.94 212.514 1653.5 216.527 1657.33 220.936C1630.43 228.903 1599.15 236.323 1570.13 245.899C1569.65 246.06 1569.32 246.376 1569.13 246.849C1568.85 247.621 1568.34 248.324 1567.6 248.957L1510.69 218.023C1532.39 177.932 1578.77 155.722 1624.21 168.79C1649.73 176.13 1670.49 190.577 1686.49 212.133Z" fill="white" fill-opacity="0.32"/>
<path d="M1671.26 216.945C1686.43 237.836 1691.85 264.005 1682.29 288.147C1679.18 296.001 1667.4 293.49 1670.24 284.719C1677.98 260.813 1673.67 239.552 1657.33 220.936C1653.5 216.527 1653.94 212.514 1658.66 208.898C1659.09 208.576 1659.56 208.436 1660.09 208.479C1665.05 208.85 1668.37 213.018 1671.26 216.945Z" fill="white"/>
<path d="M1686.49 212.133C1706.44 245.706 1707.62 280.872 1687.74 314.622L1567.6 248.957C1568.34 248.324 1568.85 247.621 1569.13 246.849C1569.32 246.376 1569.65 246.06 1570.13 245.899C1599.15 236.323 1630.43 228.903 1657.33 220.936C1673.67 239.552 1677.98 260.813 1670.24 284.719C1667.4 293.49 1679.18 296.001 1682.29 288.147C1691.85 264.005 1686.43 237.836 1671.26 216.945C1676.37 216.215 1681.44 214.611 1686.49 212.133Z" fill="#F5F5F5" fill-opacity="0.49"/>
<path d="M1510.69 218.023L1567.6 248.957L1687.74 314.622L1672.25 340.245C1668.96 339.032 1664.47 336.87 1658.76 333.759C1604.65 304.284 1550.49 274.708 1496.28 245.03C1500.49 235.534 1505.3 226.532 1510.69 218.023Z" fill="#B5A4D2"/>
<path d="M1496.28 245.03C1550.49 274.708 1604.65 304.284 1658.76 333.759C1664.47 336.87 1668.96 339.032 1672.25 340.245C1644.32 377.053 1596.9 383.812 1556.02 364.402C1532.88 353.41 1514.32 340.084 1501.73 317.97C1488.26 294.268 1486.44 269.955 1496.28 245.03Z" fill="#CCB6E9"/>
<path d="M1324.27 173.603L1313.08 308.345C1312.1 309.547 1311.19 310.1 1310.35 310.003C1309.73 309.928 1309.44 309.585 1309.5 308.973C1309.61 307.771 1309.19 306.935 1308.26 306.462C1307.79 306.216 1307.38 305.894 1307.03 305.497L1249.74 239.67C1257.54 222.342 1271.18 210.491 1290.68 204.118C1293.13 203.313 1297.08 202.707 1302.55 202.299C1312.73 201.543 1311.35 189.118 1301.74 189.681C1275.75 191.226 1253.34 206.645 1240.49 228.614L1229.71 217.476C1250.76 185.336 1285.75 170.416 1324.27 173.603Z" fill="#F5F5F5" fill-opacity="0.49"/>
<path d="M1324.27 173.603C1334.4 174.193 1344.71 175.357 1355.19 177.095L1339.32 371.259C1339.3 371.518 1339.18 371.76 1338.98 371.936C1338.79 372.112 1338.53 372.209 1338.27 372.208C1336 372.198 1334.1 372.514 1332.56 373.158C1324.23 373.083 1315.99 372.46 1307.85 371.291L1313.08 308.345L1324.27 173.603Z" fill="#9AC193"/>
<path d="M1355.19 177.095C1412.55 189.729 1431.64 242.535 1423.02 294.697C1415.51 340.148 1380.97 373.399 1332.56 373.158C1334.1 372.514 1336 372.198 1338.27 372.208C1338.53 372.209 1338.79 372.112 1338.98 371.936C1339.18 371.76 1339.3 371.518 1339.32 371.259L1355.19 177.095Z" fill="#B5E3B1"/>
<path d="M1249.74 239.67C1246.34 246.511 1240.06 246.849 1236.71 240.749C1236.45 240.279 1236.37 239.739 1236.48 239.22C1237.22 235.218 1238.56 231.682 1240.49 228.614C1253.34 206.645 1275.75 191.226 1301.74 189.681C1311.35 189.118 1312.73 201.543 1302.55 202.299C1297.08 202.707 1293.13 203.313 1290.68 204.118C1271.18 210.491 1257.54 222.342 1249.74 239.67Z" fill="white"/>
<path d="M1804.87 561.261L1789.98 557.994L1787.91 546.583C1787.82 546.045 1787.52 545.561 1787.08 545.231C1783.58 542.624 1780.31 542.951 1777.27 546.213C1775.94 547.64 1775.49 549.759 1775.92 552.57L1683.76 524.711L1655.15 471.309C1680.87 457.103 1707.75 454.523 1735.8 463.568C1775.67 476.443 1806.22 519.963 1804.87 561.261Z" fill="white" fill-opacity="0.32"/>
<path d="M1229.71 217.476L1240.49 228.614C1238.56 231.682 1237.22 235.218 1236.48 239.22C1236.37 239.739 1236.45 240.279 1236.71 240.749C1240.06 246.849 1246.34 246.511 1249.74 239.67L1307.03 305.497C1307.38 305.894 1307.79 306.216 1308.26 306.462C1309.19 306.935 1309.61 307.771 1309.5 308.973C1309.44 309.585 1309.73 309.928 1310.35 310.003C1311.19 310.1 1312.1 309.547 1313.08 308.345L1307.85 371.291C1259.94 369.682 1218.58 333.179 1214.46 285.942C1212.42 262.702 1216.22 237.932 1229.71 217.476Z" fill="white" fill-opacity="0.32"/>
<path d="M1655.15 471.309L1683.76 524.711L1748.74 647.06C1739.3 652.479 1729.96 656.97 1720.71 660.532L1627.93 485.955C1635.98 480.859 1645.05 475.977 1655.15 471.309Z" fill="#D2BEA4"/>
<path d="M1627.93 485.955L1720.71 660.532C1667.23 677.962 1623.8 648.364 1602.33 602.044C1582.55 559.426 1588.18 514.845 1627.93 485.955Z" fill="#E9D3B6"/>
<path d="M1683.76 524.711L1775.92 552.57C1778.96 574.662 1772.41 593.273 1756.25 608.402C1753.1 611.347 1746.06 613.23 1748.91 619.909C1753.64 630.998 1769.26 614.228 1773.16 609.287C1784.88 594.405 1790.49 577.307 1789.98 557.994L1804.87 561.261C1805.58 598.375 1782.29 631.513 1748.74 647.06L1683.76 524.711Z" fill="#F5F5F5" fill-opacity="0.49"/>
<path d="M1789.98 557.994C1790.49 577.307 1784.88 594.405 1773.16 609.287C1769.26 614.228 1753.64 630.998 1748.91 619.909C1746.06 613.23 1753.1 611.347 1756.25 608.402C1772.41 593.273 1778.96 574.662 1775.92 552.57C1775.49 549.759 1775.94 547.64 1777.27 546.213C1780.31 542.951 1783.58 542.624 1787.08 545.231C1787.52 545.561 1787.82 546.045 1787.91 546.583L1789.98 557.994Z" fill="white"/>
<path d="M1486.98 579.585C1485.91 584.553 1484.3 589.328 1482.15 593.909C1475.89 593.716 1465.71 592.107 1467.3 602.23C1467.8 605.438 1470.56 606.967 1475.58 606.817L1439.06 687.37C1438.94 687.609 1438.89 687.871 1438.9 688.134C1438.91 688.397 1438.99 688.654 1439.12 688.883L1440.93 692.037L1379.3 715.117C1357.13 662.214 1383.26 605.481 1438.15 586.152C1454.04 580.567 1469.99 577.091 1486.98 579.585Z" fill="white" fill-opacity="0.32"/>
<path d="M1486.98 579.585C1525.86 583.883 1555.47 609.054 1568.53 644.221L1440.93 692.037L1439.12 688.883C1438.99 688.654 1438.91 688.397 1438.9 688.134C1438.89 687.871 1438.94 687.609 1439.06 687.37L1475.58 606.817C1500.39 606.517 1519.28 616.34 1532.23 636.286C1533.83 638.754 1535.11 640.267 1536.08 640.825C1541.43 643.899 1547.51 636.882 1544.16 631.184C1530.18 607.445 1509.61 597.418 1482.15 593.909C1484.3 589.328 1485.91 584.553 1486.98 579.585Z" fill="#F5F5F5" fill-opacity="0.49"/>
<path d="M1482.15 593.909C1509.61 597.418 1530.18 607.445 1544.16 631.184C1547.51 636.882 1541.43 643.899 1536.08 640.825C1535.11 640.267 1533.83 638.754 1532.23 636.286C1519.28 616.34 1500.39 606.517 1475.58 606.817C1470.56 606.967 1467.8 605.438 1467.3 602.23C1465.71 592.107 1475.89 593.716 1482.15 593.909Z" fill="white"/>
<path d="M1568.53 644.221C1572.74 654.113 1576.16 663.727 1578.81 673.062L1391.29 743.427C1386.84 734.854 1382.85 725.417 1379.3 715.117L1440.93 692.037L1568.53 644.221Z" fill="#A4C4D2"/>
<path d="M1578.81 673.062C1592.76 732.418 1545.97 773.749 1492.24 785.498C1451.64 794.366 1412.27 779.655 1391.29 743.427L1578.81 673.062Z" fill="#B6DAE9"/>
<path d="M1151.96 506.433L1161.89 518.001L1156.67 528.36C1156.42 528.847 1156.37 529.413 1156.53 529.944C1157.75 534.129 1160.56 535.836 1164.95 535.063C1166.87 534.721 1168.5 533.299 1169.86 530.797L1226.69 608.51L1217.4 668.374C1188.31 664.241 1165.29 650.124 1148.34 626.025C1124.24 591.743 1126.03 538.605 1151.96 506.433Z" fill="white" fill-opacity="0.32"/>
<path d="M1217.4 668.374L1226.69 608.51L1248.43 471.689C1259.23 473.044 1269.39 475.081 1278.92 477.8L1247.96 673.062C1238.46 672.287 1228.27 670.724 1217.4 668.374Z" fill="#BBBBBB"/>
<path d="M1247.96 673.062L1278.92 477.8C1332.12 496.065 1348.99 545.838 1338.27 595.755C1328.42 641.696 1297.09 673.909 1247.96 673.062Z" fill="#D3D3D3"/>
<path d="M1226.69 608.51L1169.86 530.797C1180.72 511.321 1197.15 500.403 1219.16 498.044C1223.46 497.591 1230.2 500.319 1231.95 493.274C1234.85 481.57 1212.28 485.56 1206.19 487.162C1187.88 491.994 1173.11 502.274 1161.89 518.001L1151.96 506.433C1173.74 476.368 1212.27 463.914 1248.43 471.689L1226.69 608.51Z" fill="#F5F5F5" fill-opacity="0.49"/>
<path d="M1161.89 518.001C1173.11 502.274 1187.88 491.994 1206.19 487.162C1212.28 485.56 1234.85 481.57 1231.95 493.274C1230.2 500.319 1223.46 497.591 1219.16 498.044C1197.15 500.403 1180.72 511.321 1169.86 530.797C1168.5 533.299 1166.87 534.721 1164.95 535.063C1160.56 535.836 1157.75 534.129 1156.53 529.944C1156.37 529.413 1156.42 528.847 1156.67 528.36L1161.89 518.001Z" fill="white"/>
<path d="M1193.55 426.288C1191.34 426.288 1189.52 425.716 1188.1 424.572C1186.69 423.429 1185.85 421.887 1185.6 419.947H1188.96C1189.08 421.017 1189.55 421.85 1190.34 422.446C1191.14 423.018 1192.22 423.304 1193.59 423.304C1195.15 423.304 1196.32 422.882 1197.09 422.036C1197.89 421.191 1198.29 419.997 1198.29 418.455V415.807C1198.29 414.265 1197.89 413.072 1197.09 412.226C1196.32 411.381 1195.16 410.958 1193.62 410.958C1192.65 410.958 1191.81 411.219 1191.09 411.741C1190.37 412.239 1189.84 412.91 1189.52 413.756H1186.16L1186.35 398.686H1200.67V401.745H1189.59L1189.48 410.809H1189.63C1189.86 409.939 1190.4 409.255 1191.27 408.757C1192.17 408.26 1193.29 408.011 1194.63 408.011C1196.84 407.987 1198.56 408.67 1199.78 410.063C1201.02 411.431 1201.64 413.345 1201.64 415.807V418.455C1201.64 420.867 1200.93 422.782 1199.52 424.199C1198.1 425.592 1196.11 426.288 1193.55 426.288Z" fill="white"/>
<path d="M1219.72 425.915V419.947H1207.41V414.688L1217.33 398.686H1221.02L1210.77 415.359V416.889H1219.72V410.249H1223.08V425.915H1219.72Z" fill="white"/>
<path d="M1238.35 426.288C1237.41 426.288 1236.65 426.015 1236.08 425.468C1235.53 424.921 1235.26 424.187 1235.26 423.267C1235.26 422.297 1235.53 421.526 1236.08 420.954C1236.65 420.382 1237.41 420.096 1238.35 420.096C1239.3 420.096 1240.04 420.382 1240.59 420.954C1241.16 421.526 1241.45 422.297 1241.45 423.267C1241.45 424.187 1241.16 424.921 1240.59 425.468C1240.04 426.015 1239.3 426.288 1238.35 426.288Z" fill="white"/>
<path d="M1260.31 426.288C1258.67 426.288 1257.23 425.965 1255.98 425.318C1254.76 424.647 1253.82 423.727 1253.15 422.558C1252.48 421.39 1252.14 420.022 1252.14 418.455H1255.5C1255.5 419.972 1255.92 421.166 1256.77 422.036C1257.64 422.882 1258.83 423.304 1260.35 423.304C1261.89 423.304 1263.08 422.857 1263.93 421.961C1264.77 421.066 1265.19 419.898 1265.19 418.455V416.59C1265.19 415.049 1264.77 413.855 1263.93 413.01C1263.08 412.164 1261.89 411.741 1260.35 411.741H1257.4V408.832L1263.89 401.745H1253.26V398.686H1267.69V401.82L1261.32 408.795C1263.53 408.969 1265.28 409.752 1266.57 411.145C1267.89 412.537 1268.55 414.352 1268.55 416.59V418.455C1268.55 420.022 1268.2 421.39 1267.51 422.558C1266.84 423.727 1265.88 424.647 1264.64 425.318C1263.39 425.965 1261.95 426.288 1260.31 426.288Z" fill="white"/>
<path d="M1277.68 410.995C1276.11 410.995 1274.85 410.548 1273.91 409.653C1272.96 408.757 1272.49 407.527 1272.49 405.96V403.535C1272.49 401.969 1272.96 400.738 1273.91 399.843C1274.85 398.948 1276.11 398.5 1277.68 398.5C1279.24 398.5 1280.5 398.948 1281.44 399.843C1282.39 400.738 1282.86 401.969 1282.86 403.535V405.96C1282.86 407.527 1282.39 408.757 1281.44 409.653C1280.5 410.548 1279.24 410.995 1277.68 410.995ZM1272.42 425.915L1290.99 398.686H1293.75L1275.18 425.915H1272.42ZM1277.68 408.459C1279.29 408.459 1280.1 407.626 1280.1 405.96V403.535C1280.1 401.869 1279.29 401.036 1277.68 401.036C1276.06 401.036 1275.25 401.869 1275.25 403.535V405.96C1275.25 407.626 1276.06 408.459 1277.68 408.459ZM1288.49 426.102C1286.93 426.102 1285.67 425.654 1284.73 424.759C1283.78 423.864 1283.31 422.633 1283.31 421.066V418.642C1283.31 417.075 1283.78 415.844 1284.73 414.949C1285.67 414.054 1286.93 413.606 1288.49 413.606C1290.06 413.606 1291.31 414.054 1292.26 414.949C1293.2 415.844 1293.68 417.075 1293.68 418.642V421.066C1293.68 422.633 1293.2 423.864 1292.26 424.759C1291.31 425.654 1290.06 426.102 1288.49 426.102ZM1288.49 423.528C1290.11 423.528 1290.92 422.707 1290.92 421.066V418.642C1290.92 416.976 1290.11 416.143 1288.49 416.143C1286.88 416.143 1286.07 416.976 1286.07 418.642V421.066C1286.07 422.707 1286.88 423.528 1288.49 423.528Z" fill="white"/>
<path d="M1195.52 458.441C1193.41 457.918 1191.76 456.889 1190.58 455.352C1189.4 453.815 1188.81 451.935 1188.81 449.712V445.684C1188.81 444.222 1189.08 442.902 1189.62 441.723C1190.17 440.529 1190.94 439.522 1191.94 438.702C1192.96 437.881 1194.15 437.299 1195.52 436.956V438.858C1194.57 439.082 1193.74 439.515 1193.04 440.156C1192.34 440.783 1191.79 441.566 1191.41 442.506C1191.02 443.446 1190.82 444.505 1190.82 445.684V449.712C1190.82 450.861 1191.01 451.906 1191.38 452.846C1191.77 453.786 1192.32 454.569 1193.02 455.195C1193.73 455.807 1194.57 456.225 1195.52 456.449V458.441Z" fill="white"/>
<path d="M1204.89 455.979C1203.4 455.979 1202.21 455.561 1201.31 454.725C1200.43 453.89 1199.99 452.741 1199.99 451.279V447.922C1199.99 446.46 1200.43 445.311 1201.31 444.476C1202.21 443.64 1203.4 443.222 1204.89 443.222C1206.31 443.222 1207.45 443.603 1208.32 444.364C1209.18 445.125 1209.64 446.162 1209.68 447.474H1207.67C1207.62 446.684 1207.35 446.079 1206.86 445.662C1206.38 445.229 1205.73 445.013 1204.89 445.013C1204.01 445.013 1203.31 445.266 1202.79 445.774C1202.27 446.266 1202.01 446.975 1202.01 447.9V451.279C1202.01 452.204 1202.27 452.92 1202.79 453.427C1203.31 453.935 1204.01 454.188 1204.89 454.188C1205.73 454.188 1206.38 453.972 1206.86 453.539C1207.35 453.107 1207.62 452.502 1207.67 451.727H1209.68C1209.64 453.04 1209.18 454.076 1208.32 454.837C1207.45 455.598 1206.31 455.979 1204.89 455.979Z" fill="white"/>
<path d="M1218.22 455.934C1216.73 455.934 1215.55 455.516 1214.69 454.681C1213.84 453.83 1213.41 452.682 1213.41 451.234V447.967C1213.41 446.505 1213.84 445.356 1214.69 444.52C1215.55 443.685 1216.73 443.267 1218.22 443.267C1219.71 443.267 1220.89 443.685 1221.74 444.52C1222.6 445.356 1223.03 446.497 1223.03 447.944V451.234C1223.03 452.682 1222.6 453.83 1221.74 454.681C1220.89 455.516 1219.71 455.934 1218.22 455.934ZM1218.22 454.144C1219.1 454.144 1219.79 453.897 1220.28 453.405C1220.77 452.913 1221.02 452.189 1221.02 451.234V447.967C1221.02 447.012 1220.77 446.288 1220.28 445.796C1219.79 445.304 1219.1 445.057 1218.22 445.057C1217.36 445.057 1216.67 445.304 1216.16 445.796C1215.67 446.288 1215.42 447.012 1215.42 447.967V451.234C1215.42 452.189 1215.67 452.913 1216.16 453.405C1216.67 453.897 1217.36 454.144 1218.22 454.144Z" fill="white"/>
<path d="M1226.27 455.755V443.446H1228.04V444.923H1228.17C1228.28 444.416 1228.51 444.006 1228.87 443.692C1229.24 443.379 1229.69 443.222 1230.23 443.222C1230.72 443.222 1231.15 443.379 1231.51 443.692C1231.86 443.991 1232.12 444.401 1232.27 444.923H1232.4C1232.51 444.416 1232.75 444.006 1233.12 443.692C1233.49 443.379 1233.95 443.222 1234.51 443.222C1235.25 443.222 1235.86 443.521 1236.32 444.117C1236.78 444.699 1237.01 445.46 1237.01 446.4V455.755H1235.15V446.378C1235.15 445.856 1235.04 445.46 1234.8 445.192C1234.57 444.908 1234.24 444.767 1233.81 444.767C1233.38 444.767 1233.04 444.908 1232.8 445.192C1232.57 445.46 1232.45 445.848 1232.45 446.355V455.755H1230.84V446.378C1230.84 445.856 1230.71 445.46 1230.45 445.192C1230.22 444.908 1229.88 444.767 1229.45 444.767C1229.03 444.767 1228.7 444.908 1228.46 445.192C1228.24 445.46 1228.13 445.848 1228.13 446.355V455.755H1226.27Z" fill="white"/>
<path d="M1239.69 455.755V443.446H1241.46V444.923H1241.59C1241.7 444.416 1241.93 444.006 1242.29 443.692C1242.66 443.379 1243.11 443.222 1243.65 443.222C1244.14 443.222 1244.57 443.379 1244.93 443.692C1245.28 443.991 1245.54 444.401 1245.69 444.923H1245.82C1245.93 444.416 1246.16 444.006 1246.54 443.692C1246.91 443.379 1247.37 443.222 1247.92 443.222C1248.67 443.222 1249.28 443.521 1249.74 444.117C1250.2 444.699 1250.43 445.46 1250.43 446.4V455.755H1248.57V446.378C1248.57 445.856 1248.45 445.46 1248.22 445.192C1247.99 444.908 1247.66 444.767 1247.23 444.767C1246.8 444.767 1246.46 444.908 1246.22 445.192C1245.99 445.46 1245.87 445.848 1245.87 446.355V455.755H1244.25V446.378C1244.25 445.856 1244.13 445.46 1243.87 445.192C1243.64 444.908 1243.3 444.767 1242.87 444.767C1242.45 444.767 1242.12 444.908 1241.88 445.192C1241.66 445.46 1241.55 445.848 1241.55 446.355V455.755H1239.69Z" fill="white"/>
<path d="M1258.48 455.934C1256.99 455.934 1255.81 455.516 1254.94 454.681C1254.09 453.83 1253.67 452.682 1253.67 451.234V447.967C1253.67 446.505 1254.09 445.356 1254.94 444.52C1255.81 443.685 1256.99 443.267 1258.48 443.267C1259.97 443.267 1261.14 443.685 1261.99 444.52C1262.86 445.356 1263.29 446.497 1263.29 447.944V451.234C1263.29 452.682 1262.86 453.83 1261.99 454.681C1261.14 455.516 1259.97 455.934 1258.48 455.934ZM1258.48 454.144C1259.36 454.144 1260.05 453.897 1260.54 453.405C1261.03 452.913 1261.28 452.189 1261.28 451.234V447.967C1261.28 447.012 1261.03 446.288 1260.54 445.796C1260.05 445.304 1259.36 445.057 1258.48 445.057C1257.61 445.057 1256.93 445.304 1256.42 445.796C1255.93 446.288 1255.68 447.012 1255.68 447.967V451.234C1255.68 452.189 1255.93 452.913 1256.42 453.405C1256.93 453.897 1257.61 454.144 1258.48 454.144Z" fill="white"/>
<path d="M1267.24 455.755V443.446H1269.26V445.796H1269.28C1269.38 444.975 1269.72 444.341 1270.29 443.894C1270.85 443.446 1271.61 443.222 1272.55 443.222C1273.79 443.222 1274.77 443.603 1275.5 444.364C1276.23 445.125 1276.6 446.162 1276.6 447.474V455.755H1274.58V447.698C1274.58 446.818 1274.35 446.147 1273.87 445.684C1273.41 445.207 1272.77 444.968 1271.97 444.968C1271.13 444.968 1270.47 445.222 1269.97 445.729C1269.5 446.236 1269.26 446.967 1269.26 447.922V455.755H1267.24Z" fill="white"/>
<path d="M1281.18 458.441V456.449C1282.15 456.225 1282.98 455.807 1283.68 455.195C1284.39 454.569 1284.92 453.786 1285.3 452.846C1285.68 451.906 1285.88 450.861 1285.88 449.712V445.684C1285.88 444.505 1285.68 443.446 1285.3 442.506C1284.91 441.566 1284.36 440.783 1283.66 440.156C1282.96 439.515 1282.13 439.082 1281.18 438.858V436.956C1282.56 437.299 1283.76 437.881 1284.76 438.702C1285.76 439.522 1286.53 440.529 1287.06 441.723C1287.62 442.902 1287.89 444.222 1287.89 445.684V449.712C1287.89 451.935 1287.3 453.815 1286.12 455.352C1284.94 456.889 1283.3 457.918 1281.18 458.441Z" fill="white"/>
<path d="M1274.02 123.096V119.776L1282.71 110.302C1284.01 108.91 1284.94 107.667 1285.51 106.572C1286.11 105.478 1286.4 104.409 1286.4 103.365C1286.4 101.873 1285.97 100.691 1285.1 99.8212C1284.23 98.926 1283.05 98.4784 1281.56 98.4784C1280.04 98.4784 1278.83 98.9384 1277.94 99.8585C1277.07 100.754 1276.63 101.972 1276.63 103.514H1273.28C1273.35 101.052 1274.13 99.1 1275.63 97.6578C1277.12 96.2155 1279.09 95.4944 1281.56 95.4944C1284.07 95.4944 1286.06 96.2031 1287.52 97.6205C1289.02 99.0379 1289.76 100.965 1289.76 103.402C1289.76 104.695 1289.38 106.05 1288.61 107.468C1287.86 108.885 1286.64 110.514 1284.95 112.354L1277.86 120.038H1290.21V123.096H1274.02Z" fill="white"/>
<path d="M1304.15 123.469C1302.4 123.469 1300.88 123.171 1299.56 122.574C1298.24 121.952 1297.22 121.107 1296.5 120.038C1295.78 118.943 1295.42 117.688 1295.42 116.27C1295.42 114.729 1295.9 113.299 1296.87 111.981C1297.87 110.638 1299.18 109.594 1300.83 108.848C1299.21 108.052 1298 107.107 1297.21 106.013C1296.41 104.894 1296.01 103.7 1296.01 102.432C1296.01 101.064 1296.36 99.8585 1297.06 98.8141C1297.78 97.7697 1298.75 96.9491 1299.97 96.3523C1301.19 95.7555 1302.58 95.4571 1304.15 95.4571C1305.71 95.4571 1307.1 95.7555 1308.32 96.3523C1309.57 96.9491 1310.54 97.7697 1311.23 98.8141C1311.93 99.8585 1312.28 101.064 1312.28 102.432C1312.28 103.675 1311.88 104.857 1311.08 105.976C1310.29 107.07 1309.08 108.027 1307.46 108.848C1309.11 109.594 1310.41 110.638 1311.38 111.981C1312.38 113.299 1312.87 114.729 1312.87 116.27C1312.87 117.688 1312.51 118.943 1311.79 120.038C1311.07 121.107 1310.05 121.952 1308.73 122.574C1307.44 123.171 1305.91 123.469 1304.15 123.469ZM1303.06 107.169L1304.15 107.579L1305.08 107.207C1306.25 106.759 1307.19 106.125 1307.91 105.304C1308.63 104.459 1308.99 103.539 1308.99 102.544C1308.99 101.326 1308.55 100.343 1307.65 99.5974C1306.76 98.8265 1305.59 98.4411 1304.15 98.4411C1302.7 98.4411 1301.53 98.8265 1300.64 99.5974C1299.74 100.368 1299.3 101.35 1299.3 102.544C1299.3 103.564 1299.64 104.484 1300.34 105.304C1301.04 106.125 1301.94 106.746 1303.06 107.169ZM1304.15 120.485C1305.79 120.485 1307.1 120.062 1308.1 119.217C1309.09 118.347 1309.59 117.215 1309.59 115.823C1309.59 114.729 1309.26 113.746 1308.58 112.876C1307.91 111.981 1306.97 111.297 1305.75 110.825L1304.15 110.19L1302.43 110.862C1301.24 111.334 1300.32 112.018 1299.67 112.913C1299.02 113.784 1298.7 114.753 1298.7 115.823C1298.7 117.215 1299.2 118.347 1300.19 119.217C1301.19 120.062 1302.5 120.485 1304.15 120.485Z" fill="white"/>
<path d="M1326.51 123.469C1325.57 123.469 1324.81 123.196 1324.23 122.649C1323.69 122.101 1323.41 121.368 1323.41 120.448C1323.41 119.478 1323.69 118.707 1324.23 118.135C1324.81 117.563 1325.57 117.277 1326.51 117.277C1327.46 117.277 1328.2 117.563 1328.75 118.135C1329.32 118.707 1329.61 119.478 1329.61 120.448C1329.61 121.368 1329.32 122.101 1328.75 122.649C1328.2 123.196 1327.46 123.469 1326.51 123.469Z" fill="white"/>
<path d="M1341.04 123.096V120.038H1348.43V98.6649L1341.04 104.185V100.455L1347.2 95.8674H1351.78V120.038H1357.83V123.096H1341.04Z" fill="white"/>
<path d="M1365.83 108.176C1364.27 108.176 1363.01 107.729 1362.06 106.834C1361.12 105.938 1360.65 104.707 1360.65 103.141V100.716C1360.65 99.1498 1361.12 97.9189 1362.06 97.0237C1363.01 96.1285 1364.27 95.6809 1365.83 95.6809C1367.4 95.6809 1368.65 96.1285 1369.6 97.0237C1370.54 97.9189 1371.02 99.1498 1371.02 100.716V103.141C1371.02 104.707 1370.54 105.938 1369.6 106.834C1368.65 107.729 1367.4 108.176 1365.83 108.176ZM1360.57 123.096L1379.15 95.8674H1381.91L1363.33 123.096H1360.57ZM1365.83 105.64C1367.45 105.64 1368.26 104.807 1368.26 103.141V100.716C1368.26 99.0503 1367.45 98.2173 1365.83 98.2173C1364.22 98.2173 1363.41 99.0503 1363.41 100.716V103.141C1363.41 104.807 1364.22 105.64 1365.83 105.64ZM1376.65 123.283C1375.08 123.283 1373.83 122.835 1372.88 121.94C1371.94 121.045 1371.46 119.814 1371.46 118.247V115.823C1371.46 114.256 1371.94 113.025 1372.88 112.13C1373.83 111.235 1375.08 110.787 1376.65 110.787C1378.22 110.787 1379.47 111.235 1380.42 112.13C1381.36 113.025 1381.83 114.256 1381.83 115.823V118.247C1381.83 119.814 1381.36 121.045 1380.42 121.94C1379.47 122.835 1378.22 123.283 1376.65 123.283ZM1376.65 120.709C1378.27 120.709 1379.07 119.888 1379.07 118.247V115.823C1379.07 114.157 1378.27 113.324 1376.65 113.324C1375.03 113.324 1374.22 114.157 1374.22 115.823V118.247C1374.22 119.888 1375.03 120.709 1376.65 120.709Z" fill="white"/>
<path d="M1270.26 155.621C1268.14 155.099 1266.49 154.07 1265.32 152.533C1264.14 150.996 1263.55 149.116 1263.55 146.893V142.865C1263.55 141.403 1263.82 140.082 1264.35 138.904C1264.91 137.71 1265.68 136.703 1266.68 135.882C1267.7 135.062 1268.89 134.48 1270.26 134.137V136.039C1269.31 136.263 1268.48 136.696 1267.78 137.337C1267.08 137.964 1266.53 138.747 1266.14 139.687C1265.76 140.627 1265.56 141.686 1265.56 142.865V146.893C1265.56 148.042 1265.75 149.087 1266.12 150.027C1266.51 150.966 1267.05 151.75 1267.75 152.376C1268.47 152.988 1269.31 153.406 1270.26 153.63V155.621Z" fill="white"/>
<path d="M1279.52 153.16C1278.1 153.16 1276.97 152.742 1276.12 151.906C1275.27 151.056 1274.84 149.907 1274.84 148.46V140.627H1276.85V148.46C1276.85 149.385 1277.09 150.109 1277.57 150.631C1278.05 151.138 1278.7 151.392 1279.52 151.392C1280.35 151.392 1281.01 151.138 1281.49 150.631C1281.98 150.109 1282.23 149.385 1282.23 148.46V140.627H1284.24V148.46C1284.24 149.907 1283.81 151.056 1282.94 151.906C1282.08 152.742 1280.94 153.16 1279.52 153.16Z" fill="white"/>
<path d="M1288.3 152.936V140.627H1290.32V142.977H1290.34C1290.45 142.156 1290.78 141.522 1291.35 141.075C1291.92 140.627 1292.67 140.403 1293.61 140.403C1294.85 140.403 1295.83 140.784 1296.56 141.545C1297.29 142.305 1297.66 143.342 1297.66 144.655V152.936H1295.65V144.879C1295.65 143.999 1295.41 143.327 1294.93 142.865C1294.47 142.388 1293.83 142.149 1293.03 142.149C1292.19 142.149 1291.53 142.402 1291.03 142.91C1290.56 143.417 1290.32 144.148 1290.32 145.103V152.936H1288.3Z" fill="white"/>
<path d="M1306.47 153.16C1304.98 153.16 1303.78 152.742 1302.89 151.906C1302.01 151.071 1301.57 149.922 1301.57 148.46V145.103C1301.57 143.641 1302.01 142.492 1302.89 141.656C1303.78 140.821 1304.98 140.403 1306.47 140.403C1307.89 140.403 1309.03 140.784 1309.89 141.545C1310.76 142.305 1311.21 143.342 1311.26 144.655H1309.24C1309.2 143.865 1308.93 143.26 1308.44 142.843C1307.96 142.41 1307.3 142.194 1306.47 142.194C1305.59 142.194 1304.89 142.447 1304.36 142.954C1303.84 143.447 1303.58 144.156 1303.58 145.081V148.46C1303.58 149.385 1303.84 150.101 1304.36 150.608C1304.89 151.116 1305.59 151.369 1306.47 151.369C1307.3 151.369 1307.96 151.153 1308.44 150.72C1308.93 150.288 1309.2 149.683 1309.24 148.908H1311.26C1311.21 150.22 1310.76 151.257 1309.89 152.018C1309.03 152.779 1307.89 153.16 1306.47 153.16Z" fill="white"/>
<path d="M1319.8 153.115C1318.31 153.115 1317.13 152.697 1316.26 151.862C1315.41 151.011 1314.99 149.862 1314.99 148.415V145.148C1314.99 143.686 1315.41 142.537 1316.26 141.701C1317.13 140.866 1318.31 140.448 1319.8 140.448C1321.29 140.448 1322.46 140.866 1323.31 141.701C1324.18 142.537 1324.61 143.678 1324.61 145.125V148.415C1324.61 149.862 1324.18 151.011 1323.31 151.862C1322.46 152.697 1321.29 153.115 1319.8 153.115ZM1319.8 151.325C1320.68 151.325 1321.36 151.078 1321.86 150.586C1322.35 150.094 1322.6 149.37 1322.6 148.415V145.148C1322.6 144.193 1322.35 143.469 1321.86 142.977C1321.36 142.485 1320.68 142.238 1319.8 142.238C1318.93 142.238 1318.25 142.485 1317.74 142.977C1317.25 143.469 1317 144.193 1317 145.148V148.415C1317 149.37 1317.25 150.094 1317.74 150.586C1318.25 151.078 1318.93 151.325 1319.8 151.325Z" fill="white"/>
<path d="M1327.85 152.936V140.627H1329.61V142.104H1329.75C1329.85 141.597 1330.08 141.186 1330.44 140.873C1330.81 140.56 1331.27 140.403 1331.81 140.403C1332.3 140.403 1332.72 140.56 1333.08 140.873C1333.44 141.172 1333.69 141.582 1333.84 142.104H1333.98C1334.08 141.597 1334.32 141.186 1334.69 140.873C1335.07 140.56 1335.53 140.403 1336.08 140.403C1336.83 140.403 1337.43 140.702 1337.89 141.298C1338.36 141.88 1338.59 142.641 1338.59 143.581V152.936H1336.73V143.559C1336.73 143.037 1336.61 142.641 1336.37 142.373C1336.15 142.089 1335.82 141.947 1335.39 141.947C1334.96 141.947 1334.62 142.089 1334.38 142.373C1334.14 142.641 1334.02 143.029 1334.02 143.536V152.936H1332.41V143.559C1332.41 143.037 1332.28 142.641 1332.03 142.373C1331.79 142.089 1331.46 141.947 1331.02 141.947C1330.61 141.947 1330.28 142.089 1330.04 142.373C1329.82 142.641 1329.7 143.029 1329.7 143.536V152.936H1327.85Z" fill="white"/>
<path d="M1341.26 152.936V140.627H1343.03V142.104H1343.17C1343.27 141.597 1343.5 141.186 1343.86 140.873C1344.23 140.56 1344.69 140.403 1345.23 140.403C1345.72 140.403 1346.14 140.56 1346.5 140.873C1346.86 141.172 1347.11 141.582 1347.26 142.104H1347.4C1347.5 141.597 1347.74 141.186 1348.11 140.873C1348.49 140.56 1348.95 140.403 1349.5 140.403C1350.25 140.403 1350.85 140.702 1351.31 141.298C1351.78 141.88 1352.01 142.641 1352.01 143.581V152.936H1350.15V143.559C1350.15 143.037 1350.03 142.641 1349.79 142.373C1349.57 142.089 1349.24 141.947 1348.81 141.947C1348.37 141.947 1348.04 142.089 1347.8 142.373C1347.56 142.641 1347.44 143.029 1347.44 143.536V152.936H1345.83V143.559C1345.83 143.037 1345.7 142.641 1345.45 142.373C1345.21 142.089 1344.88 141.947 1344.44 141.947C1344.03 141.947 1343.7 142.089 1343.46 142.373C1343.23 142.641 1343.12 143.029 1343.12 143.536V152.936H1341.26Z" fill="white"/>
<path d="M1360.06 153.115C1358.56 153.115 1357.38 152.697 1356.52 151.862C1355.67 151.011 1355.24 149.862 1355.24 148.415V145.148C1355.24 143.686 1355.67 142.537 1356.52 141.701C1357.38 140.866 1358.56 140.448 1360.06 140.448C1361.55 140.448 1362.72 140.866 1363.57 141.701C1364.43 142.537 1364.87 143.678 1364.87 145.125V148.415C1364.87 149.862 1364.43 151.011 1363.57 151.862C1362.72 152.697 1361.55 153.115 1360.06 153.115ZM1360.06 151.325C1360.94 151.325 1361.62 151.078 1362.11 150.586C1362.61 150.094 1362.85 149.37 1362.85 148.415V145.148C1362.85 144.193 1362.61 143.469 1362.11 142.977C1361.62 142.485 1360.94 142.238 1360.06 142.238C1359.19 142.238 1358.5 142.485 1358 142.977C1357.5 143.469 1357.26 144.193 1357.26 145.148V148.415C1357.26 149.37 1357.5 150.094 1358 150.586C1358.5 151.078 1359.19 151.325 1360.06 151.325Z" fill="white"/>
<path d="M1368.82 152.936V140.627H1370.83V142.977H1370.86C1370.96 142.156 1371.3 141.522 1371.86 141.075C1372.43 140.627 1373.18 140.403 1374.12 140.403C1375.36 140.403 1376.35 140.784 1377.08 141.545C1377.81 142.305 1378.17 143.342 1378.17 144.655V152.936H1376.16V144.879C1376.16 143.999 1375.92 143.327 1375.44 142.865C1374.98 142.388 1374.35 142.149 1373.54 142.149C1372.71 142.149 1372.04 142.402 1371.55 142.91C1371.07 143.417 1370.83 144.148 1370.83 145.103V152.936H1368.82Z" fill="white"/>
<path d="M1382.75 155.621V153.63C1383.72 153.406 1384.56 152.988 1385.26 152.376C1385.96 151.75 1386.5 150.966 1386.87 150.027C1387.26 149.087 1387.45 148.042 1387.45 146.893V142.865C1387.45 141.686 1387.26 140.627 1386.87 139.687C1386.48 138.747 1385.94 137.964 1385.24 137.337C1384.54 136.696 1383.71 136.263 1382.75 136.039V134.137C1384.14 134.48 1385.33 135.062 1386.33 135.882C1387.33 136.703 1388.1 137.71 1388.64 138.904C1389.19 140.082 1389.47 141.403 1389.47 142.865V146.893C1389.47 149.116 1388.88 150.996 1387.7 152.533C1386.52 154.07 1384.87 155.099 1382.75 155.621Z" fill="white"/>
<path d="M1571.7 116.009C1569.49 116.009 1567.67 115.437 1566.26 114.293C1564.84 113.15 1564.01 111.608 1563.76 109.668H1567.12C1567.24 110.738 1567.7 111.571 1568.5 112.167C1569.29 112.739 1570.37 113.025 1571.74 113.025C1573.31 113.025 1574.48 112.603 1575.25 111.757C1576.04 110.912 1576.44 109.718 1576.44 108.176V105.528C1576.44 103.986 1576.04 102.793 1575.25 101.947C1574.48 101.102 1573.32 100.679 1571.78 100.679C1570.81 100.679 1569.96 100.94 1569.24 101.462C1568.52 101.96 1568 102.631 1567.67 103.477H1564.32L1564.5 88.4075H1578.83V91.466H1567.75L1567.64 100.53H1567.79C1568.01 99.6595 1568.56 98.9757 1569.43 98.4784C1570.32 97.9811 1571.44 97.7324 1572.78 97.7324C1575 97.7075 1576.71 98.3913 1577.93 99.7839C1579.18 101.152 1579.8 103.066 1579.8 105.528V108.176C1579.8 110.588 1579.09 112.503 1577.67 113.92C1576.25 115.313 1574.26 116.009 1571.7 116.009Z" fill="white"/>
<path d="M1594.14 116.009C1593.2 116.009 1592.44 115.736 1591.87 115.189C1591.32 114.642 1591.05 113.908 1591.05 112.988C1591.05 112.018 1591.32 111.247 1591.87 110.675C1592.44 110.103 1593.2 109.817 1594.14 109.817C1595.09 109.817 1595.83 110.103 1596.38 110.675C1596.95 111.247 1597.24 112.018 1597.24 112.988C1597.24 113.908 1596.95 114.642 1596.38 115.189C1595.83 115.736 1595.09 116.009 1594.14 116.009Z" fill="white"/>
<path d="M1608.75 115.636V112.317L1617.44 102.842C1618.73 101.45 1619.67 100.207 1620.24 99.1125C1620.83 98.0184 1621.13 96.9491 1621.13 95.9047C1621.13 94.4127 1620.7 93.2316 1619.83 92.3612C1618.96 91.466 1617.78 91.0184 1616.28 91.0184C1614.77 91.0184 1613.56 91.4785 1612.67 92.3985C1611.8 93.2937 1611.36 94.5122 1611.36 96.0539H1608C1608.08 93.5921 1608.86 91.6401 1610.35 90.1979C1611.85 88.7556 1613.82 88.0345 1616.28 88.0345C1618.8 88.0345 1620.78 88.7432 1622.25 90.1606C1623.74 91.5779 1624.49 93.5051 1624.49 95.942C1624.49 97.2351 1624.1 98.5903 1623.33 100.008C1622.59 101.425 1621.37 103.054 1619.68 104.894L1612.59 112.578H1624.94V115.636H1608.75Z" fill="white"/>
<path d="M1633.46 100.716C1631.9 100.716 1630.64 100.269 1629.7 99.3736C1628.75 98.4784 1628.28 97.2475 1628.28 95.6809V93.2564C1628.28 91.6898 1628.75 90.459 1629.7 89.5638C1630.64 88.6686 1631.9 88.221 1633.46 88.221C1635.03 88.221 1636.29 88.6686 1637.23 89.5638C1638.18 90.459 1638.65 91.6898 1638.65 93.2564V95.6809C1638.65 97.2475 1638.18 98.4784 1637.23 99.3736C1636.29 100.269 1635.03 100.716 1633.46 100.716ZM1628.21 115.636L1646.78 88.4075H1649.54L1630.97 115.636H1628.21ZM1633.46 98.18C1635.08 98.18 1635.89 97.347 1635.89 95.6809V93.2564C1635.89 91.5904 1635.08 90.7574 1633.46 90.7574C1631.85 90.7574 1631.04 91.5904 1631.04 93.2564V95.6809C1631.04 97.347 1631.85 98.18 1633.46 98.18ZM1644.28 115.823C1642.71 115.823 1641.46 115.375 1640.51 114.48C1639.57 113.585 1639.1 112.354 1639.1 110.787V108.363C1639.1 106.796 1639.57 105.565 1640.51 104.67C1641.46 103.775 1642.71 103.327 1644.28 103.327C1645.85 103.327 1647.1 103.775 1648.05 104.67C1648.99 105.565 1649.47 106.796 1649.47 108.363V110.787C1649.47 112.354 1648.99 113.585 1648.05 114.48C1647.1 115.375 1645.85 115.823 1644.28 115.823ZM1644.28 113.249C1645.9 113.249 1646.71 112.428 1646.71 110.787V108.363C1646.71 106.697 1645.9 105.864 1644.28 105.864C1642.67 105.864 1641.86 106.697 1641.86 108.363V110.787C1641.86 112.428 1642.67 113.249 1644.28 113.249Z" fill="white"/>
<path d="M1575.91 148.162C1573.8 147.639 1572.15 146.61 1570.97 145.073C1569.79 143.536 1569.2 141.656 1569.2 139.433V135.405C1569.2 133.943 1569.47 132.622 1570.01 131.444C1570.56 130.25 1571.33 129.243 1572.33 128.423C1573.35 127.602 1574.54 127.02 1575.91 126.677V128.579C1574.96 128.803 1574.13 129.236 1573.43 129.877C1572.73 130.504 1572.18 131.287 1571.8 132.227C1571.41 133.167 1571.22 134.226 1571.22 135.405V139.433C1571.22 140.582 1571.4 141.627 1571.77 142.567C1572.16 143.507 1572.71 144.29 1573.41 144.916C1574.12 145.528 1574.96 145.946 1575.91 146.17V148.162Z" fill="white"/>
<path d="M1585.19 145.7C1584.22 145.7 1583.37 145.506 1582.64 145.118C1581.93 144.73 1581.37 144.185 1580.96 143.484C1580.58 142.768 1580.38 141.94 1580.38 141V137.643C1580.38 136.688 1580.58 135.86 1580.96 135.159C1581.37 134.458 1581.93 133.913 1582.64 133.525C1583.37 133.137 1584.22 132.943 1585.19 132.943C1586.16 132.943 1587.01 133.137 1587.72 133.525C1588.45 133.913 1589.01 134.458 1589.4 135.159C1589.8 135.86 1590.01 136.688 1590.01 137.643V139.814H1582.35V141C1582.35 141.97 1582.6 142.716 1583.09 143.238C1583.58 143.745 1584.28 143.999 1585.19 143.999C1585.97 143.999 1586.6 143.865 1587.07 143.596C1587.55 143.313 1587.84 142.895 1587.95 142.343H1589.96C1589.83 143.372 1589.32 144.193 1588.44 144.805C1587.57 145.401 1586.49 145.7 1585.19 145.7ZM1582.35 138.292H1588.04V137.643C1588.04 136.673 1587.79 135.927 1587.3 135.405C1586.82 134.883 1586.12 134.622 1585.19 134.622C1584.28 134.622 1583.58 134.883 1583.09 135.405C1582.6 135.927 1582.35 136.673 1582.35 137.643V138.292Z" fill="white"/>
<path d="M1593.98 149.504V133.167H1595.99V135.517H1596.02C1596.12 134.711 1596.47 134.085 1597.07 133.637C1597.68 133.175 1598.45 132.943 1599.37 132.943C1600.61 132.943 1601.6 133.354 1602.33 134.174C1603.07 134.98 1603.45 136.091 1603.45 137.509V141.112C1603.45 142.529 1603.07 143.648 1602.33 144.469C1601.6 145.289 1600.61 145.7 1599.37 145.7C1598.45 145.7 1597.69 145.468 1597.09 145.006C1596.49 144.543 1596.14 143.917 1596.02 143.126H1595.95L1595.99 145.924V149.504H1593.98ZM1598.7 143.954C1599.55 143.954 1600.22 143.7 1600.69 143.193C1601.19 142.686 1601.43 141.955 1601.43 141V137.643C1601.43 136.688 1601.19 135.957 1600.69 135.45C1600.22 134.943 1599.55 134.689 1598.7 134.689C1597.88 134.689 1597.23 134.95 1596.73 135.472C1596.24 135.994 1595.99 136.718 1595.99 137.643V141C1595.99 141.925 1596.24 142.649 1596.73 143.171C1597.23 143.693 1597.88 143.954 1598.7 143.954Z" fill="white"/>
<path d="M1607.22 145.476V143.641H1611.58V135.002H1607.67V133.167H1613.6V143.641H1617.74V145.476H1607.22ZM1612.37 130.951C1611.88 130.951 1611.49 130.825 1611.2 130.571C1610.92 130.317 1610.78 129.974 1610.78 129.542C1610.78 129.094 1610.92 128.743 1611.2 128.49C1611.49 128.221 1611.88 128.087 1612.37 128.087C1612.86 128.087 1613.25 128.221 1613.53 128.49C1613.81 128.743 1613.96 129.094 1613.96 129.542C1613.96 129.974 1613.81 130.317 1613.53 130.571C1613.25 130.825 1612.86 130.951 1612.37 130.951Z" fill="white"/>
<path d="M1625.54 145.7C1624.05 145.7 1622.86 145.282 1621.96 144.446C1621.08 143.611 1620.64 142.462 1620.64 141V137.643C1620.64 136.181 1621.08 135.032 1621.96 134.197C1622.86 133.361 1624.05 132.943 1625.54 132.943C1626.96 132.943 1628.1 133.324 1628.96 134.085C1629.83 134.846 1630.29 135.882 1630.33 137.195H1628.32C1628.27 136.405 1628 135.8 1627.51 135.383C1627.03 134.95 1626.38 134.734 1625.54 134.734C1624.66 134.734 1623.96 134.987 1623.44 135.495C1622.91 135.987 1622.65 136.696 1622.65 137.621V141C1622.65 141.925 1622.91 142.641 1623.44 143.148C1623.96 143.656 1624.66 143.909 1625.54 143.909C1626.38 143.909 1627.03 143.693 1627.51 143.26C1628 142.828 1628.27 142.223 1628.32 141.448H1630.33C1630.29 142.761 1629.83 143.797 1628.96 144.558C1628.1 145.319 1626.96 145.7 1625.54 145.7Z" fill="white"/>
<path d="M1634.73 148.162V146.17C1635.7 145.946 1636.54 145.528 1637.24 144.916C1637.94 144.29 1638.47 143.507 1638.85 142.567C1639.24 141.627 1639.43 140.582 1639.43 139.433V135.405C1639.43 134.226 1639.24 133.167 1638.85 132.227C1638.46 131.287 1637.92 130.504 1637.21 129.877C1636.51 129.236 1635.68 128.803 1634.73 128.579V126.677C1636.12 127.02 1637.31 127.602 1638.31 128.423C1639.31 129.243 1640.08 130.25 1640.62 131.444C1641.17 132.622 1641.44 133.943 1641.44 135.405V139.433C1641.44 141.656 1640.85 143.536 1639.68 145.073C1638.5 146.61 1636.85 147.639 1634.73 148.162Z" fill="white"/>
<path d="M1424.08 525V521.941H1431.46V500.569L1424.08 506.089V502.359L1430.23 497.771H1434.82V521.941H1440.86V525H1424.08Z" fill="white"/>
<path d="M1446.44 525V521.941H1453.83V500.569L1446.44 506.089V502.359L1452.6 497.771H1457.19V521.941H1463.23V525H1446.44Z" fill="white"/>
<path d="M1476.64 525.373C1475.7 525.373 1474.94 525.099 1474.37 524.552C1473.82 524.005 1473.55 523.272 1473.55 522.352C1473.55 521.382 1473.82 520.611 1474.37 520.039C1474.94 519.467 1475.7 519.181 1476.64 519.181C1477.59 519.181 1478.33 519.467 1478.88 520.039C1479.45 520.611 1479.74 521.382 1479.74 522.352C1479.74 523.272 1479.45 524.005 1478.88 524.552C1478.33 525.099 1477.59 525.373 1476.64 525.373Z" fill="white"/>
<path d="M1494.94 525L1504.68 500.83H1494.16V505.231H1490.8V497.771H1508.15V500.904L1498.63 525H1494.94Z" fill="white"/>
<path d="M1515.96 510.08C1514.4 510.08 1513.14 509.633 1512.2 508.737C1511.25 507.842 1510.78 506.611 1510.78 505.045V502.62C1510.78 501.054 1511.25 499.823 1512.2 498.928C1513.14 498.032 1514.4 497.585 1515.96 497.585C1517.53 497.585 1518.79 498.032 1519.73 498.928C1520.68 499.823 1521.15 501.054 1521.15 502.62V505.045C1521.15 506.611 1520.68 507.842 1519.73 508.737C1518.79 509.633 1517.53 510.08 1515.96 510.08ZM1510.7 525L1529.28 497.771H1532.04L1513.46 525H1510.7ZM1515.96 507.544C1517.58 507.544 1518.39 506.711 1518.39 505.045V502.62C1518.39 500.954 1517.58 500.121 1515.96 500.121C1514.35 500.121 1513.54 500.954 1513.54 502.62V505.045C1513.54 506.711 1514.35 507.544 1515.96 507.544ZM1526.78 525.186C1525.21 525.186 1523.96 524.739 1523.01 523.844C1522.07 522.948 1521.6 521.718 1521.6 520.151V517.727C1521.6 516.16 1522.07 514.929 1523.01 514.034C1523.96 513.139 1525.21 512.691 1526.78 512.691C1528.35 512.691 1529.6 513.139 1530.55 514.034C1531.49 514.929 1531.97 516.16 1531.97 517.727V520.151C1531.97 521.718 1531.49 522.948 1530.55 523.844C1529.6 524.739 1528.35 525.186 1526.78 525.186ZM1526.78 522.613C1528.4 522.613 1529.2 521.792 1529.2 520.151V517.727C1529.2 516.061 1528.4 515.227 1526.78 515.227C1525.16 515.227 1524.36 516.061 1524.36 517.727V520.151C1524.36 521.792 1525.16 522.613 1526.78 522.613Z" fill="white"/>
<path d="M1447.23 557.525C1445.11 557.003 1443.46 555.974 1442.29 554.437C1441.11 552.9 1440.52 551.02 1440.52 548.797V544.769C1440.52 543.307 1440.79 541.986 1441.32 540.808C1441.87 539.614 1442.65 538.607 1443.65 537.786C1444.66 536.966 1445.86 536.384 1447.23 536.041V537.943C1446.28 538.167 1445.45 538.599 1444.75 539.241C1444.05 539.868 1443.5 540.651 1443.11 541.591C1442.73 542.531 1442.53 543.59 1442.53 544.769V548.797C1442.53 549.946 1442.72 550.99 1443.09 551.93C1443.48 552.87 1444.02 553.654 1444.72 554.28C1445.44 554.892 1446.28 555.31 1447.23 555.533V557.525Z" fill="white"/>
<path d="M1452.24 554.84V542.531H1454.25V544.881H1454.27C1454.38 544.06 1454.71 543.426 1455.28 542.978C1455.85 542.531 1456.6 542.307 1457.54 542.307C1458.82 542.307 1459.84 542.717 1460.61 543.538C1461.37 544.344 1461.75 545.44 1461.75 546.828V547.678H1459.73V547.007C1459.73 546.067 1459.49 545.343 1459.02 544.836C1458.54 544.314 1457.85 544.053 1456.94 544.053C1455.14 544.053 1454.25 545.037 1454.25 547.007V554.84H1452.24Z" fill="white"/>
<path d="M1468.85 555.063C1467.56 555.063 1466.53 554.735 1465.79 554.079C1465.04 553.407 1464.67 552.505 1464.67 551.371C1464.67 550.222 1465.04 549.319 1465.79 548.663C1466.53 548.006 1467.54 547.678 1468.81 547.678H1472.61V546.447C1472.61 545.701 1472.38 545.119 1471.92 544.702C1471.47 544.284 1470.85 544.075 1470.04 544.075C1469.32 544.075 1468.72 544.232 1468.23 544.545C1467.74 544.858 1467.43 545.269 1467.31 545.776H1465.3C1465.37 545.09 1465.62 544.485 1466.03 543.963C1466.47 543.441 1467.03 543.038 1467.71 542.755C1468.41 542.456 1469.19 542.307 1470.04 542.307C1471.46 542.307 1472.58 542.673 1473.4 543.404C1474.22 544.135 1474.63 545.127 1474.63 546.38V554.84H1472.66V552.49H1472.64C1472.55 553.281 1472.16 553.907 1471.47 554.37C1470.8 554.832 1469.93 555.063 1468.85 555.063ZM1469.35 553.475C1470.3 553.475 1471.09 553.236 1471.7 552.758C1472.31 552.281 1472.61 551.669 1472.61 550.923V549.178H1468.85C1468.18 549.178 1467.65 549.364 1467.27 549.737C1466.88 550.11 1466.68 550.617 1466.68 551.259C1466.68 551.945 1466.92 552.49 1467.38 552.893C1467.86 553.281 1468.51 553.475 1469.35 553.475Z" fill="white"/>
<path d="M1479.07 554.84V542.531H1481.09V544.881H1481.11C1481.21 544.06 1481.55 543.426 1482.12 542.978C1482.68 542.531 1483.44 542.307 1484.38 542.307C1485.66 542.307 1486.68 542.717 1487.44 543.538C1488.2 544.344 1488.58 545.44 1488.58 546.828V547.678H1486.57V547.007C1486.57 546.067 1486.33 545.343 1485.85 544.836C1485.38 544.314 1484.68 544.053 1483.77 544.053C1481.98 544.053 1481.09 545.037 1481.09 547.007V554.84H1479.07Z" fill="white"/>
<path d="M1496.77 555.063C1495.8 555.063 1494.95 554.87 1494.22 554.482C1493.5 554.094 1492.94 553.549 1492.54 552.848C1492.15 552.132 1491.96 551.304 1491.96 550.364V547.007C1491.96 546.052 1492.15 545.224 1492.54 544.523C1492.94 543.821 1493.5 543.277 1494.22 542.889C1494.95 542.501 1495.8 542.307 1496.77 542.307C1497.74 542.307 1498.58 542.501 1499.3 542.889C1500.03 543.277 1500.59 543.821 1500.97 544.523C1501.38 545.224 1501.58 546.052 1501.58 547.007V549.178H1493.93V550.364C1493.93 551.334 1494.17 552.08 1494.66 552.602C1495.16 553.109 1495.86 553.363 1496.77 553.363C1497.54 553.363 1498.17 553.228 1498.65 552.96C1499.12 552.676 1499.42 552.259 1499.52 551.707H1501.53C1501.4 552.736 1500.89 553.557 1500.01 554.168C1499.15 554.765 1498.07 555.063 1496.77 555.063ZM1493.93 547.656H1499.61V547.007C1499.61 546.037 1499.36 545.291 1498.87 544.769C1498.39 544.247 1497.69 543.985 1496.77 543.985C1495.86 543.985 1495.16 544.247 1494.66 544.769C1494.17 545.291 1493.93 546.037 1493.93 547.007V547.656Z" fill="white"/>
<path d="M1506.05 557.525V555.533C1507.02 555.31 1507.85 554.892 1508.55 554.28C1509.25 553.654 1509.79 552.87 1510.16 551.93C1510.55 550.99 1510.75 549.946 1510.75 548.797V544.769C1510.75 543.59 1510.55 542.531 1510.16 541.591C1509.78 540.651 1509.23 539.868 1508.53 539.241C1507.83 538.599 1507 538.167 1506.05 537.943V536.041C1507.43 536.384 1508.63 536.966 1509.63 537.786C1510.63 538.607 1511.39 539.614 1511.93 540.808C1512.48 541.986 1512.76 543.307 1512.76 544.769V548.797C1512.76 551.02 1512.17 552.9 1510.99 554.437C1509.81 555.974 1508.16 557.003 1506.05 557.525Z" fill="white"/>
<path d="M1669.44 410.366C1666.93 410.366 1664.93 409.645 1663.44 408.202C1661.97 406.735 1661.24 404.783 1661.24 402.346V390.41C1661.24 387.974 1661.97 386.034 1663.44 384.592C1664.93 383.125 1666.93 382.391 1669.44 382.391C1671.95 382.391 1673.94 383.125 1675.41 384.592C1676.9 386.034 1677.65 387.974 1677.65 390.41V402.346C1677.65 403.963 1677.31 405.38 1676.64 406.598C1675.97 407.792 1675.01 408.725 1673.77 409.396C1672.55 410.042 1671.11 410.366 1669.44 410.366ZM1669.44 407.494C1670.93 407.494 1672.13 407.021 1673.02 406.076C1673.94 405.106 1674.4 403.863 1674.4 402.346V390.41C1674.4 388.894 1673.94 387.663 1673.02 386.718C1672.13 385.748 1670.93 385.263 1669.44 385.263C1667.95 385.263 1666.74 385.748 1665.82 386.718C1664.93 387.663 1664.48 388.894 1664.48 390.41V402.346C1664.48 403.863 1664.93 405.106 1665.82 406.076C1666.74 407.021 1667.95 407.494 1669.44 407.494ZM1669.44 398.579C1668.77 398.579 1668.22 398.368 1667.8 397.945C1667.4 397.522 1667.2 396.963 1667.2 396.266C1667.2 395.595 1667.4 395.06 1667.8 394.663C1668.22 394.24 1668.77 394.028 1669.44 394.028C1670.11 394.028 1670.65 394.24 1671.05 394.663C1671.47 395.06 1671.68 395.595 1671.68 396.266C1671.68 396.963 1671.47 397.522 1671.05 397.945C1670.65 398.368 1670.11 398.579 1669.44 398.579Z" fill="white"/>
<path d="M1691.81 410.366C1690.86 410.366 1690.1 410.092 1689.53 409.545C1688.99 408.998 1688.71 408.265 1688.71 407.344C1688.71 406.375 1688.99 405.604 1689.53 405.032C1690.1 404.46 1690.86 404.174 1691.81 404.174C1692.75 404.174 1693.5 404.46 1694.05 405.032C1694.62 405.604 1694.9 406.375 1694.9 407.344C1694.9 408.265 1694.62 408.998 1694.05 409.545C1693.5 410.092 1692.75 410.366 1691.81 410.366Z" fill="white"/>
<path d="M1710.11 409.993L1719.84 385.823H1709.32V390.224H1705.97V382.764H1723.31V385.897L1713.8 409.993H1710.11Z" fill="white"/>
<path d="M1731.13 395.073C1729.56 395.073 1728.31 394.625 1727.36 393.73C1726.42 392.835 1725.94 391.604 1725.94 390.037V387.613C1725.94 386.046 1726.42 384.815 1727.36 383.92C1728.31 383.025 1729.56 382.578 1731.13 382.578C1732.7 382.578 1733.95 383.025 1734.9 383.92C1735.84 384.815 1736.31 386.046 1736.31 387.613V390.037C1736.31 391.604 1735.84 392.835 1734.9 393.73C1733.95 394.625 1732.7 395.073 1731.13 395.073ZM1725.87 409.993L1744.45 382.764H1747.21L1728.63 409.993H1725.87ZM1731.13 392.537C1732.75 392.537 1733.55 391.703 1733.55 390.037V387.613C1733.55 385.947 1732.75 385.114 1731.13 385.114C1729.51 385.114 1728.7 385.947 1728.7 387.613V390.037C1728.7 391.703 1729.51 392.537 1731.13 392.537ZM1741.95 410.179C1740.38 410.179 1739.12 409.732 1738.18 408.836C1737.23 407.941 1736.76 406.71 1736.76 405.144V402.719C1736.76 401.153 1737.23 399.922 1738.18 399.027C1739.12 398.131 1740.38 397.684 1741.95 397.684C1743.51 397.684 1744.77 398.131 1745.71 399.027C1746.66 399.922 1747.13 401.153 1747.13 402.719V405.144C1747.13 406.71 1746.66 407.941 1745.71 408.836C1744.77 409.732 1743.51 410.179 1741.95 410.179ZM1741.95 407.606C1743.56 407.606 1744.37 406.785 1744.37 405.144V402.719C1744.37 401.053 1743.56 400.22 1741.95 400.22C1740.33 400.22 1739.52 401.053 1739.52 402.719V405.144C1739.52 406.785 1740.33 407.606 1741.95 407.606Z" fill="white"/>
<path d="M1640.03 442.518C1637.91 441.996 1636.26 440.966 1635.09 439.43C1633.91 437.893 1633.32 436.013 1633.32 433.79V429.762C1633.32 428.299 1633.59 426.979 1634.12 425.8C1634.68 424.607 1635.45 423.6 1636.45 422.779C1637.47 421.958 1638.66 421.377 1640.03 421.033V422.936C1639.08 423.16 1638.25 423.592 1637.55 424.234C1636.85 424.86 1636.3 425.644 1635.91 426.584C1635.53 427.524 1635.33 428.583 1635.33 429.762V433.79C1635.33 434.939 1635.52 435.983 1635.89 436.923C1636.28 437.863 1636.82 438.646 1637.53 439.273C1638.24 439.885 1639.08 440.302 1640.03 440.526V442.518Z" fill="white"/>
<path d="M1651.1 439.832C1650.01 439.832 1649.14 439.519 1648.48 438.893C1647.84 438.251 1647.52 437.408 1647.52 436.364V425.33H1643.27V423.495H1649.53V436.364C1649.53 436.871 1649.68 437.274 1649.96 437.572C1650.24 437.856 1650.62 437.997 1651.1 437.997H1654.91V439.832H1651.1Z" fill="white"/>
<path d="M1662.73 440.056C1661.76 440.056 1660.91 439.862 1660.18 439.474C1659.46 439.086 1658.9 438.542 1658.5 437.841C1658.11 437.125 1657.92 436.296 1657.92 435.356V432C1657.92 431.045 1658.11 430.217 1658.5 429.515C1658.9 428.814 1659.46 428.27 1660.18 427.882C1660.91 427.494 1661.76 427.3 1662.73 427.3C1663.7 427.3 1664.54 427.494 1665.26 427.882C1665.99 428.27 1666.55 428.814 1666.94 429.515C1667.34 430.217 1667.54 431.045 1667.54 432V434.17H1659.89V435.356C1659.89 436.326 1660.13 437.072 1660.63 437.595C1661.12 438.102 1661.82 438.355 1662.73 438.355C1663.51 438.355 1664.13 438.221 1664.61 437.953C1665.09 437.669 1665.38 437.251 1665.48 436.699H1667.5C1667.36 437.729 1666.86 438.549 1665.97 439.161C1665.11 439.758 1664.03 440.056 1662.73 440.056ZM1659.89 432.649H1665.57V432C1665.57 431.03 1665.33 430.284 1664.83 429.762C1664.36 429.239 1663.65 428.978 1662.73 428.978C1661.82 428.978 1661.12 429.239 1660.63 429.762C1660.13 430.284 1659.89 431.03 1659.89 432V432.649Z" fill="white"/>
<path d="M1673.04 443.861V442.026H1676.95C1678.16 442.026 1678.77 441.444 1678.77 440.28V438.713L1678.81 436.476H1678.77C1678.69 437.266 1678.36 437.893 1677.76 438.355C1677.18 438.818 1676.42 439.049 1675.5 439.049C1674.23 439.049 1673.23 438.639 1672.5 437.818C1671.77 436.983 1671.4 435.864 1671.4 434.461V431.865C1671.4 430.463 1671.77 429.351 1672.5 428.531C1673.23 427.71 1674.23 427.3 1675.5 427.3C1676.42 427.3 1677.18 427.531 1677.76 427.994C1678.36 428.456 1678.69 429.083 1678.77 429.873H1678.79V427.524H1680.78V440.28C1680.78 441.384 1680.44 442.257 1679.75 442.899C1679.08 443.54 1678.14 443.861 1676.93 443.861H1673.04ZM1676.1 437.304C1676.94 437.304 1677.6 437.042 1678.07 436.52C1678.55 435.998 1678.79 435.274 1678.79 434.349V432C1678.79 431.075 1678.55 430.351 1678.07 429.829C1677.6 429.307 1676.94 429.045 1676.1 429.045C1675.25 429.045 1674.59 429.299 1674.11 429.806C1673.65 430.314 1673.42 431.045 1673.42 432V434.349C1673.42 435.304 1673.65 436.035 1674.11 436.543C1674.59 437.05 1675.25 437.304 1676.1 437.304Z" fill="white"/>
<path d="M1689.57 440.056C1688.6 440.056 1687.75 439.862 1687.02 439.474C1686.3 439.086 1685.74 438.542 1685.34 437.841C1684.95 437.125 1684.76 436.296 1684.76 435.356V432C1684.76 431.045 1684.95 430.217 1685.34 429.515C1685.74 428.814 1686.3 428.27 1687.02 427.882C1687.75 427.494 1688.6 427.3 1689.57 427.3C1690.54 427.3 1691.38 427.494 1692.1 427.882C1692.83 428.27 1693.39 428.814 1693.78 429.515C1694.18 430.217 1694.38 431.045 1694.38 432V434.17H1686.73V435.356C1686.73 436.326 1686.97 437.072 1687.46 437.595C1687.96 438.102 1688.66 438.355 1689.57 438.355C1690.34 438.355 1690.97 438.221 1691.45 437.953C1691.93 437.669 1692.22 437.251 1692.32 436.699H1694.33C1694.2 437.729 1693.69 438.549 1692.81 439.161C1691.95 439.758 1690.87 440.056 1689.57 440.056ZM1686.73 432.649H1692.41V432C1692.41 431.03 1692.16 430.284 1691.67 429.762C1691.19 429.239 1690.49 428.978 1689.57 428.978C1688.66 428.978 1687.96 429.239 1687.46 429.762C1686.97 430.284 1686.73 431.03 1686.73 432V432.649Z" fill="white"/>
<path d="M1698.33 439.832V427.524H1700.35V429.873H1700.37C1700.47 429.053 1700.81 428.419 1701.38 427.971C1701.94 427.524 1702.7 427.3 1703.64 427.3C1704.87 427.3 1705.86 427.68 1706.59 428.441C1707.32 429.202 1707.69 430.239 1707.69 431.552V439.832H1705.67V431.776C1705.67 430.895 1705.43 430.224 1704.96 429.762C1704.49 429.284 1703.86 429.045 1703.05 429.045C1702.22 429.045 1701.55 429.299 1701.06 429.806C1700.59 430.314 1700.35 431.045 1700.35 432V439.832H1698.33Z" fill="white"/>
<path d="M1715.69 440.056C1714.47 440.056 1713.47 439.646 1712.71 438.825C1711.97 438.005 1711.59 436.893 1711.59 435.491V431.888C1711.59 430.47 1711.97 429.351 1712.71 428.531C1713.46 427.71 1714.45 427.3 1715.69 427.3C1716.62 427.3 1717.38 427.531 1717.97 427.994C1718.57 428.456 1718.92 429.083 1719.02 429.873H1719.09L1719.05 427.076V423.495H1721.06V439.832H1719.05V437.483H1719.02C1718.92 438.288 1718.57 438.922 1717.97 439.385C1717.38 439.832 1716.62 440.056 1715.69 440.056ZM1716.36 438.311C1717.2 438.311 1717.85 438.05 1718.33 437.527C1718.81 437.005 1719.05 436.282 1719.05 435.356V432C1719.05 431.075 1718.81 430.351 1718.33 429.829C1717.85 429.307 1717.2 429.045 1716.36 429.045C1715.51 429.045 1714.84 429.299 1714.35 429.806C1713.85 430.314 1713.61 431.045 1713.61 432V435.356C1713.61 436.311 1713.85 437.042 1714.35 437.55C1714.84 438.057 1715.51 438.311 1716.36 438.311Z" fill="white"/>
<path d="M1728.75 440.056C1727.45 440.056 1726.43 439.728 1725.69 439.072C1724.94 438.4 1724.57 437.498 1724.57 436.364C1724.57 435.215 1724.94 434.312 1725.69 433.656C1726.43 432.999 1727.44 432.671 1728.71 432.671H1732.51V431.44C1732.51 430.694 1732.28 430.112 1731.82 429.694C1731.37 429.277 1730.74 429.068 1729.94 429.068C1729.22 429.068 1728.62 429.224 1728.12 429.538C1727.63 429.851 1727.33 430.261 1727.21 430.769H1725.19C1725.27 430.082 1725.51 429.478 1725.93 428.956C1726.36 428.434 1726.92 428.031 1727.61 427.747C1728.31 427.449 1729.09 427.3 1729.94 427.3C1731.35 427.3 1732.47 427.665 1733.29 428.396C1734.11 429.127 1734.53 430.12 1734.53 431.373V439.832H1732.56V437.483H1732.53C1732.44 438.273 1732.06 438.9 1731.37 439.363C1730.7 439.825 1729.83 440.056 1728.75 440.056ZM1729.24 438.467C1730.2 438.467 1730.98 438.229 1731.59 437.751C1732.21 437.274 1732.51 436.662 1732.51 435.916V434.17H1728.75C1728.08 434.17 1727.55 434.357 1727.16 434.73C1726.77 435.103 1726.58 435.61 1726.58 436.252C1726.58 436.938 1726.81 437.483 1727.27 437.885C1727.75 438.273 1728.41 438.467 1729.24 438.467Z" fill="white"/>
<path d="M1738.97 439.832V427.524H1740.98V429.873H1741.01C1741.11 429.053 1741.45 428.419 1742.01 427.971C1742.58 427.524 1743.33 427.3 1744.27 427.3C1745.56 427.3 1746.58 427.71 1747.34 428.531C1748.1 429.336 1748.48 430.433 1748.48 431.82V432.671H1746.47V432C1746.47 431.06 1746.23 430.336 1745.75 429.829C1745.27 429.307 1744.58 429.045 1743.67 429.045C1741.88 429.045 1740.98 430.03 1740.98 432V439.832H1738.97Z" fill="white"/>
<path d="M1753.96 443.861L1755.77 439.072L1751.07 427.524H1753.26L1756.26 435.133C1756.37 435.386 1756.46 435.692 1756.55 436.05C1756.66 436.393 1756.74 436.684 1756.8 436.923C1756.86 436.684 1756.94 436.393 1757.04 436.05C1757.15 435.692 1757.25 435.386 1757.36 435.133L1760.15 427.524H1762.26L1756.06 443.861H1753.96Z" fill="white"/>
<path d="M1765.94 442.518V440.526C1766.91 440.302 1767.75 439.885 1768.45 439.273C1769.15 438.646 1769.69 437.863 1770.06 436.923C1770.45 435.983 1770.64 434.939 1770.64 433.79V429.762C1770.64 428.583 1770.45 427.524 1770.06 426.584C1769.67 425.644 1769.13 424.86 1768.43 424.234C1767.73 423.592 1766.9 423.16 1765.94 422.936V421.033C1767.33 421.377 1768.52 421.958 1769.52 422.779C1770.52 423.6 1771.29 424.607 1771.83 425.8C1772.38 426.979 1772.66 428.299 1772.66 429.762V433.79C1772.66 436.013 1772.07 437.893 1770.89 439.43C1769.71 440.966 1768.06 441.996 1765.94 442.518Z" fill="white"/>
<path d="M1479.48 738.687L1479.42 744.497C1474.26 744.025 1470.23 741.801 1468.46 740.526C1468.12 742.461 1466.95 745.709 1463.33 749.701L1459.03 746.022C1464.33 741.489 1463.98 736.476 1463.98 736.476L1468.78 734.731C1468.78 734.731 1473.09 738.625 1479.48 738.687ZM1473.6 744.011C1473.6 744.011 1472.24 749.028 1466.75 753.921L1462.78 751.168C1468.32 746.403 1469.35 742.374 1469.35 742.374L1473.6 744.011ZM1466.81 761.244C1466.81 761.244 1463.51 764.292 1458.11 768.064L1455.39 763.159C1456.35 762.519 1457.21 761.915 1457.98 761.345L1456.1 756.17L1453.64 757.065L1451.84 752.113L1454.3 751.217L1452.82 747.16L1450.17 748.125L1448.37 743.173L1458.78 739.382L1460.59 744.334L1457.93 745.299L1459.41 749.357L1461.71 748.52L1463.51 753.472L1461.21 754.309L1462.54 757.951C1464.19 756.626 1464.88 755.94 1464.88 755.94L1466.81 761.244ZM1478.61 746.348C1478.39 747.225 1476.62 753.404 1469.07 759.483L1465.13 756.321C1472.39 750.712 1474.06 745.579 1474.29 744.917L1478.61 746.348ZM1483.29 749.963C1483.01 751.078 1480.77 758.948 1471.47 765.699L1466.82 762.47C1475.99 756.347 1478.53 749.093 1479.05 747.745L1483.29 749.963ZM1511.58 732.035C1515.1 743.017 1512.38 750.448 1503.66 753.623C1497.17 755.983 1491.96 755.093 1489.25 747.649L1482.96 730.364L1488.46 728.364L1494.61 745.265C1495.84 748.652 1498.24 749.479 1501.76 748.2C1507.06 746.27 1508.27 741.741 1506.05 734.046L1511.58 732.035ZM1548.89 733.252L1543.3 735.287C1540.23 726.853 1536.91 721.006 1530.02 715.117L1536.09 712.908C1541.25 717.542 1545.03 722.645 1548.89 733.252ZM1536.6 738.159C1535.66 739.551 1533.43 742.064 1530.68 743.064C1525.85 744.82 1521.66 742.042 1518.12 732.329C1516.51 727.888 1515.4 722.863 1514.89 719.758L1520.48 717.723C1521.24 722.51 1522.32 726.965 1523.81 731.055C1525.31 735.176 1527.27 737.79 1529.45 736.999C1531.52 736.244 1532.98 733.977 1534.32 731.897L1536.6 738.159Z" fill="#606060"/>
<path d="M1389.27 284.37L1388.58 293.115L1395.63 293.669L1395.17 299.432L1364.8 297.041L1365.26 291.279L1368.99 291.573L1369.61 283.641L1374.69 284.041L1374.07 291.973L1376.27 292.146L1376.87 284.554L1381.62 284.927L1381.02 292.52L1383.49 292.714L1384.18 283.97L1389.27 284.37ZM1384.93 298.762C1385.05 299.351 1385.18 299.907 1385.3 300.53C1389.11 301.478 1392.82 303.782 1394.44 310.049L1389.25 313.119C1388.37 309.639 1387.42 307.859 1386.29 306.952C1386.57 309.054 1386.8 311.357 1386.97 313.997L1381.48 314.383C1381.55 311.353 1381.47 308.516 1381.24 305.736C1380.63 305.688 1380.05 305.643 1379.58 305.605L1379 312.96L1374.26 312.587L1374.84 305.198L1373.04 305.056L1372.42 312.92L1367.34 312.52L1367.96 304.656L1364.23 304.363L1364.68 298.601L1378.61 299.697C1379.22 299.745 1379.87 299.796 1380.54 299.849C1380.53 299.609 1380.48 299.4 1380.46 299.194L1384.93 298.762ZM1386.41 250.04C1396.44 250.829 1398.4 251.052 1398.06 255.458L1397.67 260.373C1397.47 262.847 1396.57 263.902 1394.34 263.726L1387.73 263.206L1389.68 266.599C1389.68 266.599 1384.14 268.415 1380.6 270.08C1388.01 270.867 1393.23 272.54 1396.8 277.493L1391.36 281.158C1388.45 276.939 1384.89 275.84 1376.45 275.176L1367.5 274.472L1368.93 256.27L1391.17 258.02C1391.95 258.081 1392.01 257.745 1392.05 257.236C1392.05 257.169 1392.06 257.135 1392.06 257.101L1392.1 256.559C1392.17 255.745 1391.94 255.625 1387.8 255.299C1386.51 255.198 1384.85 255.067 1382.68 254.896L1385.49 249.968C1385.8 249.992 1386.1 250.016 1386.41 250.04ZM1384.06 262.917L1373.96 262.123L1373.39 269.478L1376.88 269.753C1377.38 269.793 1378.1 269.849 1378.61 269.889L1376.44 266.138C1379.28 264.758 1381.78 263.795 1384.06 262.917Z" fill="#606060"/>
<path d="M1297.29 587.848L1292.51 616.419L1286.81 615.465L1291.59 586.895L1297.29 587.848ZM1310.43 554.851L1315.41 557.822C1314.3 560.393 1313.03 562.214 1311.39 563.733C1312.51 565.713 1313.03 567.971 1313.19 570.688L1309.98 571.53C1311.68 572.09 1312.89 573.326 1312.28 576.981L1307.67 577.934L1307.43 579.376L1298.81 577.934C1298.77 578.168 1298.76 578.476 1298.71 578.744C1302.57 579.389 1309.07 580.685 1311.45 582.117L1307.72 585.457C1306.11 584.568 1301.66 583.581 1298.24 583.009C1298.2 583.21 1298.17 583.411 1298.14 583.612L1293.06 583.072C1293.11 582.77 1293.16 582.435 1293.21 582.133L1282.99 580.422L1283.59 576.8C1282.58 576.078 1281.54 575.457 1281.54 575.457L1282.81 570.154C1282.81 570.154 1283.51 570.512 1284.54 571.133L1285.19 567.277L1292.16 568.444C1290.38 566.319 1287.71 565.803 1284.96 565.342C1284.69 565.297 1284.39 565.247 1284.12 565.202L1285.8 555.176L1292.17 556.242C1293.11 556.399 1293.11 556.399 1293.2 555.829C1293.26 555.493 1292.69 555.364 1291.59 555.179C1290.98 555.078 1290.25 554.955 1289.34 554.803L1291.93 551.893C1296.59 552.673 1298.48 553.127 1297.97 556.212L1297.59 558.459C1297.1 561.376 1296.33 561.454 1293.35 560.954L1289.76 560.354L1289.59 561.327C1289.59 561.327 1294.96 562.224 1297.34 565.691L1299.24 554.357L1303.23 555.025C1303.23 555.025 1306.72 556.643 1308.54 559.36C1309.38 557.846 1309.95 556.494 1310.43 554.851ZM1288.65 574.372L1288.21 576.988L1289.46 577.195L1288.65 574.372ZM1292.02 572.764L1289.01 572.259L1288.75 573.768C1289.31 573.551 1290.67 573.054 1292.02 572.764ZM1293.98 576.505C1293.8 576.544 1293.63 576.583 1293.48 576.628C1291.98 576.929 1290.91 577.163 1290.26 577.33L1293.78 577.919C1293.86 577.45 1293.9 576.975 1293.98 576.505ZM1294.34 573.152L1293.1 572.944L1294.03 576.03C1294.15 575.085 1294.28 574.141 1294.34 573.152ZM1297.17 566.731L1293.03 568.59L1294.71 568.87C1294.75 568.222 1294.78 567.847 1294.78 567.847L1296.91 568.307L1297.17 566.731ZM1303.36 560.872L1302.77 564.359C1303.59 564.013 1304.5 563.511 1305.4 562.902C1304.84 562.086 1304.1 561.342 1303.36 560.872ZM1302.42 566.438L1301.92 569.456L1299.4 569.035C1299.4 569.035 1299.39 569.309 1299.34 569.645L1307.59 571.025C1307.58 569.818 1307.48 568.594 1307.19 567.408C1305.73 568.509 1303.71 569.48 1303.71 569.48L1302.42 566.438ZM1306.64 575.211L1299.13 573.954C1299.09 574.222 1299.1 574.535 1299.06 574.804L1307.44 576.207C1307.55 575.569 1307.32 575.323 1306.64 575.211Z" fill="#606060"/>
<path d="M1767.13 460.115C1749.45 471.163 1725.28 467.677 1713.5 448.821C1725.28 467.677 1717.82 490.931 1700.14 501.978C1717.82 490.931 1741.99 494.417 1753.77 513.272C1741.99 494.417 1749.45 471.163 1767.13 460.115Z" fill="white"/>
<path d="M1796.7 482.908C1785.07 490.179 1769.16 487.889 1761.41 475.484C1769.16 487.889 1764.24 503.192 1752.61 510.463C1764.24 503.192 1780.15 505.481 1787.9 517.887C1780.15 505.481 1785.07 490.179 1796.7 482.908Z" fill="white"/>
<path d="M422.352 873.854H419.263V867.095H422.352V873.854ZM417.115 873.854H414.071V867.095H417.115V873.854ZM411.833 905.633H403.642V901.292H410.938C415.011 901.292 416.309 899.591 416.309 895.876V880.165H402.255C401.628 894.219 394.332 902.679 385.828 906.081V901.381C392.005 897.756 397.286 890.907 397.51 880.165H385.828V875.823H397.51V868.348H402.299V875.823H421.188V896.234C421.188 902.634 418.413 905.633 411.833 905.633ZM450.55 871.661V876.226C445.134 875.42 437.48 874.57 432.199 874.346V869.96C437.704 870.184 445.09 870.9 450.55 871.661ZM450.192 884.283V888.759C444.687 887.953 437.033 887.103 431.841 886.924V882.537C437.346 882.761 444.821 883.432 450.192 884.283ZM462.814 876.45H467.738C465.769 897.353 453.102 905.365 432.915 905.812V901.292C451.759 900.441 460.8 893.727 462.814 876.45ZM492.803 906.886H488.283L484.209 883.432L476.377 883.746V879.628L483.493 879.359L482.419 873.227H486.806L487.88 879.225L511.379 878.375C510.125 889.206 503.59 895.115 495.802 897.442V893.101C500.95 891.265 504.486 887.595 505.963 882.582L488.551 883.253L492.803 906.886ZM557.347 869.378C557.347 871.661 555.511 873.496 553.229 873.496C550.991 873.496 549.111 871.661 549.111 869.378C549.111 867.095 550.991 865.26 553.229 865.26C555.511 865.26 557.347 867.095 557.347 869.378ZM540.83 906.797H536.175V878.643H520.286V874.346H536.175V868.214H540.83V874.346H556.854V878.643H540.83V906.797ZM557.66 899.412V904.648C550.275 900.262 547.32 891.892 546.56 882.358H551.125C551.662 889.52 553.99 896.01 557.66 899.412ZM519.57 904.604V899.412C523.195 896.01 525.433 889.52 526.015 882.358H530.491C529.64 891.892 526.776 900.262 519.57 904.604ZM555.422 869.378C555.422 868.214 554.482 867.229 553.229 867.229C552.065 867.229 551.036 868.214 551.036 869.378C551.036 870.631 552.065 871.571 553.229 871.571C554.482 871.571 555.422 870.631 555.422 869.378ZM584.919 873.496V878.464C579.055 876.987 572.431 875.779 566.746 875.331V870.586C572.341 871.079 579.189 872.153 584.919 873.496ZM596.198 876.629H601.256C598.839 896.95 586.306 904.514 567.328 905.499V900.889C582.591 899.591 593.691 894.712 596.198 876.629Z" fill="white"/>
<path d="M426.874 947.68V944.905H431.917C433.568 944.905 434.394 944.119 434.394 942.548V940.906L434.454 937.863H434.394C434.255 938.937 433.797 939.782 433.021 940.399C432.265 940.996 431.281 941.294 430.067 941.294C428.376 941.294 427.043 940.737 426.069 939.623C425.094 938.509 424.606 936.997 424.606 935.088V931.775C424.606 929.886 425.094 928.384 426.069 927.27C427.043 926.156 428.376 925.599 430.067 925.599C431.281 925.599 432.265 925.907 433.021 926.524C433.797 927.12 434.255 927.956 434.394 929.03H434.424L434.394 925.897H437.587V942.607C437.587 944.179 437.079 945.412 436.065 946.307C435.07 947.223 433.698 947.68 431.947 947.68H426.874ZM431.112 938.519C432.126 938.519 432.922 938.211 433.499 937.594C434.095 936.958 434.394 936.072 434.394 934.938V931.955C434.394 930.84 434.095 929.975 433.499 929.358C432.922 928.722 432.126 928.404 431.112 928.404C430.057 928.404 429.242 928.712 428.665 929.329C428.108 929.945 427.829 930.821 427.829 931.955V934.938C427.829 936.092 428.108 936.978 428.665 937.594C429.242 938.211 430.057 938.519 431.112 938.519ZM447.422 942.607C445.711 942.607 444.359 942.17 443.364 941.294C442.389 940.399 441.902 939.186 441.902 937.654C441.902 936.102 442.429 934.889 443.483 934.013C444.538 933.118 445.99 932.671 447.84 932.671H452.346V931.149C452.346 930.254 452.057 929.567 451.48 929.09C450.923 928.593 450.148 928.344 449.153 928.344C448.258 928.344 447.502 928.543 446.885 928.941C446.288 929.319 445.94 929.816 445.841 930.433H442.708C442.787 929.478 443.105 928.642 443.662 927.926C444.239 927.19 445.005 926.623 445.96 926.225C446.915 925.808 447.999 925.599 449.213 925.599C451.162 925.599 452.704 926.096 453.838 927.091C454.992 928.065 455.568 929.398 455.568 931.089V942.309H452.435V939.355H452.376C452.216 940.369 451.689 941.165 450.794 941.742C449.919 942.319 448.795 942.607 447.422 942.607ZM448.377 940.16C449.531 940.16 450.476 939.872 451.212 939.295C451.968 938.698 452.346 937.942 452.346 937.027V934.879H447.929C447.054 934.879 446.368 935.108 445.871 935.565C445.373 936.023 445.125 936.649 445.125 937.445C445.125 938.281 445.413 938.947 445.99 939.444C446.567 939.922 447.363 940.16 448.377 940.16ZM466.389 942.577C464.598 942.577 463.136 942.17 462.002 941.354C460.888 940.519 460.331 939.395 460.331 937.982H463.584C463.584 938.599 463.842 939.066 464.359 939.385C464.897 939.703 465.593 939.862 466.448 939.862H467.702C468.696 939.862 469.432 939.673 469.91 939.295C470.407 938.917 470.656 938.4 470.656 937.743C470.656 937.107 470.427 936.61 469.969 936.251C469.512 935.873 468.845 935.615 467.97 935.476L465.732 935.118C462.41 934.62 460.749 933.019 460.749 930.313C460.749 928.801 461.246 927.648 462.241 926.852C463.255 926.036 464.708 925.628 466.597 925.628H467.731C469.502 925.628 470.914 926.026 471.969 926.822C473.043 927.598 473.58 928.642 473.58 929.955H470.327C470.327 929.438 470.089 929.04 469.611 928.762C469.154 928.483 468.517 928.344 467.702 928.344H466.568C464.777 928.344 463.882 929 463.882 930.313C463.882 931.427 464.668 932.104 466.239 932.342L468.507 932.701C470.317 932.979 471.65 933.516 472.506 934.312C473.361 935.088 473.789 936.192 473.789 937.624C473.789 939.176 473.272 940.389 472.237 941.265C471.223 942.14 469.701 942.577 467.672 942.577H466.389ZM478.402 942.309V920.526H481.625V925.897L481.595 929.03H481.625C481.784 927.956 482.242 927.12 482.998 926.524C483.754 925.907 484.748 925.599 485.982 925.599C487.613 925.599 488.916 926.126 489.891 927.18C490.865 928.215 491.353 929.617 491.353 931.388V942.309H488.13V931.746C488.13 930.671 487.842 929.836 487.265 929.239C486.688 928.642 485.902 928.344 484.907 928.344C483.893 928.344 483.087 928.662 482.49 929.299C481.913 929.935 481.625 930.821 481.625 931.955V942.309H478.402ZM501.099 942.607C499.388 942.607 498.035 942.17 497.041 941.294C496.066 940.399 495.578 939.186 495.578 937.654C495.578 936.102 496.106 934.889 497.16 934.013C498.214 933.118 499.666 932.671 501.516 932.671H506.022V931.149C506.022 930.254 505.734 929.567 505.157 929.09C504.6 928.593 503.824 928.344 502.829 928.344C501.934 928.344 501.178 928.543 500.562 928.941C499.965 929.319 499.617 929.816 499.517 930.433H496.384C496.464 929.478 496.782 928.642 497.339 927.926C497.916 927.19 498.682 926.623 499.637 926.225C500.591 925.808 501.676 925.599 502.889 925.599C504.839 925.599 506.38 926.096 507.514 927.091C508.668 928.065 509.245 929.398 509.245 931.089V942.309H506.112V939.355H506.052C505.893 940.369 505.366 941.165 504.471 941.742C503.595 942.319 502.471 942.607 501.099 942.607ZM502.054 940.16C503.207 940.16 504.152 939.872 504.888 939.295C505.644 938.698 506.022 937.942 506.022 937.027V934.879H501.606C500.731 934.879 500.044 935.108 499.547 935.565C499.05 936.023 498.801 936.649 498.801 937.445C498.801 938.281 499.09 938.947 499.666 939.444C500.243 939.922 501.039 940.16 502.054 940.16ZM514.217 947.68V925.897H517.38V928.941H517.409C517.648 927.886 518.155 927.071 518.931 926.494C519.727 925.897 520.712 925.599 521.885 925.599C523.517 925.599 524.82 926.156 525.794 927.27C526.789 928.384 527.286 929.886 527.286 931.775V936.401C527.286 938.31 526.799 939.822 525.824 940.936C524.849 942.05 523.536 942.607 521.885 942.607C520.732 942.607 519.757 942.319 518.961 941.742C518.165 941.145 517.648 940.32 517.409 939.265H517.35L517.439 942.995V947.68H514.217ZM520.751 939.802C521.786 939.802 522.592 939.504 523.168 938.907C523.765 938.29 524.064 937.405 524.064 936.251V931.955C524.064 930.801 523.765 929.925 523.168 929.329C522.592 928.712 521.786 928.404 520.751 928.404C519.717 928.404 518.901 928.722 518.305 929.358C517.728 929.975 517.439 930.85 517.439 931.984V936.192C517.439 937.346 517.728 938.241 518.305 938.877C518.901 939.494 519.717 939.802 520.751 939.802ZM538.524 942.577C536.475 942.577 534.854 942.011 533.66 940.877C532.487 939.723 531.9 938.171 531.9 936.222V931.984C531.9 930.035 532.487 928.493 533.66 927.359C534.854 926.205 536.475 925.628 538.524 925.628C540.573 925.628 542.195 926.205 543.388 927.359C544.582 928.493 545.179 930.035 545.179 931.984V936.222C545.179 938.171 544.582 939.723 543.388 940.877C542.195 942.011 540.573 942.577 538.524 942.577ZM538.524 939.743C539.598 939.743 540.434 939.444 541.031 938.847C541.647 938.231 541.956 937.356 541.956 936.222V931.984C541.956 930.85 541.647 929.985 541.031 929.388C540.434 928.772 539.598 928.463 538.524 928.463C537.45 928.463 536.615 928.772 536.018 929.388C535.421 929.985 535.123 930.85 535.123 931.984V936.222C535.123 937.356 535.421 938.231 536.018 938.847C536.615 939.444 537.45 939.743 538.524 939.743ZM549.971 942.309V925.897H553.164V929.03H553.194C553.353 927.956 553.81 927.12 554.566 926.524C555.322 925.907 556.317 925.599 557.55 925.599C559.182 925.599 560.485 926.126 561.459 927.18C562.434 928.215 562.922 929.617 562.922 931.388V942.309H559.699V931.746C559.699 930.671 559.41 929.846 558.833 929.269C558.257 928.692 557.471 928.404 556.476 928.404C555.462 928.404 554.656 928.712 554.059 929.329C553.482 929.945 553.194 930.821 553.194 931.955V942.309H549.971Z" fill="white"/>
<path d="M1365.31 905.633H1357.11V901.292H1364.41C1368.48 901.292 1369.78 899.591 1369.78 895.876V880.165H1355.73C1355.1 894.219 1347.8 902.679 1339.3 906.081V901.381C1345.48 897.756 1350.76 890.907 1350.98 880.165H1339.3V875.823H1350.98V868.348H1355.77V875.823H1374.66V896.234C1374.66 902.634 1371.89 905.633 1365.31 905.633ZM1390.28 905.902V901.515C1404.6 898.293 1412.75 888.759 1413.87 874.973H1385.27V870.542H1415.57C1415.53 870.407 1415.53 870.273 1415.53 870.139C1415.53 867.767 1417.5 865.797 1419.82 865.797C1422.2 865.797 1424.12 867.767 1424.12 870.139C1424.12 872.466 1422.2 874.436 1419.82 874.436C1419.51 874.436 1419.24 874.391 1418.93 874.301C1417.76 893.324 1405.41 903.574 1390.28 905.902ZM1422.11 870.139C1422.11 868.841 1421.12 867.856 1419.82 867.856C1418.61 867.856 1417.58 868.841 1417.58 870.139C1417.58 871.347 1418.61 872.377 1419.82 872.377C1421.12 872.377 1422.11 871.347 1422.11 870.139ZM1464.9 905.499H1444.71C1436.7 905.499 1434.1 902.187 1434.1 896.278V879.852H1427.3V875.42H1434.1V868.348H1438.85V875.42H1465.39C1463.78 885.491 1456.97 891.892 1448.96 893.951V889.52C1453.03 887.908 1457.29 884.507 1459.3 879.852H1438.85V895.562C1438.85 899.009 1440.46 901.068 1445.2 901.068H1464.9V905.499ZM1490.63 906.036V869.691H1495.2V900.173C1502.81 897.8 1506.52 890.683 1507.51 880.836H1512.16C1510.91 895.652 1504.28 904.246 1490.63 906.036ZM1473.53 906.931V901.471C1476.31 898.427 1479.85 893.951 1479.85 880.702V869.736H1484.41V880.434C1484.41 896.726 1479.31 902.948 1473.53 906.931ZM1554.06 887.64V892.653C1545.37 889.967 1537.23 887.819 1528.59 885.805V906.439H1523.71V868.527H1528.59V881.015C1537.63 883.074 1546 885.089 1554.06 887.64ZM1586.51 907.155H1581.54V885.939C1575.94 888.893 1569.45 890.863 1562.56 892.161V887.595C1578.99 884.193 1588.03 877.3 1592.73 868.886H1598.28C1595.41 874.794 1591.39 879.315 1586.51 882.806V907.155Z" fill="white"/>
<path d="M1380.3 942.607C1378.26 942.607 1376.61 942.04 1375.38 940.906C1374.17 939.773 1373.56 938.221 1373.56 936.251V931.955C1373.56 929.985 1374.17 928.433 1375.38 927.3C1376.61 926.166 1378.26 925.599 1380.3 925.599C1382.27 925.599 1383.86 926.116 1385.05 927.15C1386.24 928.185 1386.87 929.597 1386.93 931.388H1383.77C1383.71 930.453 1383.37 929.726 1382.75 929.209C1382.13 928.692 1381.32 928.433 1380.3 928.433C1379.21 928.433 1378.35 928.742 1377.71 929.358C1377.09 929.955 1376.78 930.811 1376.78 931.925V936.251C1376.78 937.385 1377.09 938.261 1377.71 938.877C1378.35 939.474 1379.21 939.773 1380.3 939.773C1381.32 939.773 1382.13 939.514 1382.75 938.997C1383.37 938.479 1383.71 937.743 1383.77 936.789H1386.93C1386.87 938.579 1386.24 940.001 1385.05 941.056C1383.86 942.09 1382.27 942.607 1380.3 942.607ZM1396.44 942.607C1394.73 942.607 1393.37 942.17 1392.38 941.294C1391.4 940.399 1390.92 939.186 1390.92 937.654C1390.92 936.102 1391.44 934.889 1392.5 934.013C1393.55 933.118 1395 932.671 1396.85 932.671H1401.36V931.149C1401.36 930.254 1401.07 929.567 1400.49 929.09C1399.94 928.593 1399.16 928.344 1398.17 928.344C1397.27 928.344 1396.52 928.543 1395.9 928.941C1395.3 929.319 1394.95 929.816 1394.85 930.433H1391.72C1391.8 929.478 1392.12 928.642 1392.68 927.926C1393.25 927.19 1394.02 926.623 1394.97 926.225C1395.93 925.808 1397.01 925.599 1398.23 925.599C1400.18 925.599 1401.72 926.096 1402.85 927.091C1404.01 928.065 1404.58 929.398 1404.58 931.089V942.309H1401.45V939.355H1401.39C1401.23 940.369 1400.7 941.165 1399.81 941.742C1398.93 942.319 1397.81 942.607 1396.44 942.607ZM1397.39 940.16C1398.55 940.16 1399.49 939.872 1400.23 939.295C1400.98 938.698 1401.36 937.942 1401.36 937.027V934.879H1396.94C1396.07 934.879 1395.38 935.108 1394.88 935.565C1394.39 936.023 1394.14 936.649 1394.14 937.445C1394.14 938.281 1394.43 938.947 1395 939.444C1395.58 939.922 1396.38 940.16 1397.39 940.16ZM1409.55 947.68V925.897H1412.72V928.941H1412.75C1412.99 927.886 1413.49 927.071 1414.27 926.494C1415.06 925.897 1416.05 925.599 1417.22 925.599C1418.85 925.599 1420.16 926.156 1421.13 927.27C1422.13 928.384 1422.62 929.886 1422.62 931.775V936.401C1422.62 938.31 1422.14 939.822 1421.16 940.936C1420.19 942.05 1418.87 942.607 1417.22 942.607C1416.07 942.607 1415.09 942.319 1414.3 941.742C1413.5 941.145 1412.99 940.32 1412.75 939.265H1412.69L1412.78 942.995V947.68H1409.55ZM1416.09 939.802C1417.12 939.802 1417.93 939.504 1418.51 938.907C1419.1 938.29 1419.4 937.405 1419.4 936.251V931.955C1419.4 930.801 1419.1 929.925 1418.51 929.329C1417.93 928.712 1417.12 928.404 1416.09 928.404C1415.05 928.404 1414.24 928.722 1413.64 929.358C1413.07 929.975 1412.78 930.85 1412.78 931.984V936.192C1412.78 937.346 1413.07 938.241 1413.64 938.877C1414.24 939.494 1415.05 939.802 1416.09 939.802ZM1433.29 942.577C1431.5 942.577 1430.04 942.17 1428.91 941.354C1427.79 940.519 1427.24 939.395 1427.24 937.982H1430.49C1430.49 938.599 1430.75 939.066 1431.27 939.385C1431.8 939.703 1432.5 939.862 1433.35 939.862H1434.61C1435.6 939.862 1436.34 939.673 1436.82 939.295C1437.31 938.917 1437.56 938.4 1437.56 937.743C1437.56 937.107 1437.33 936.61 1436.88 936.251C1436.42 935.873 1435.75 935.615 1434.88 935.476L1432.64 935.118C1429.32 934.62 1427.66 933.019 1427.66 930.313C1427.66 928.801 1428.15 927.648 1429.15 926.852C1430.16 926.036 1431.61 925.628 1433.5 925.628H1434.64C1436.41 925.628 1437.82 926.026 1438.87 926.822C1439.95 927.598 1440.49 928.642 1440.49 929.955H1437.23C1437.23 929.438 1437 929.04 1436.52 928.762C1436.06 928.483 1435.42 928.344 1434.61 928.344H1433.47C1431.68 928.344 1430.79 929 1430.79 930.313C1430.79 931.427 1431.57 932.104 1433.15 932.342L1435.41 932.701C1437.22 932.979 1438.56 933.516 1439.41 934.312C1440.27 935.088 1440.7 936.192 1440.7 937.624C1440.7 939.176 1440.18 940.389 1439.14 941.265C1438.13 942.14 1436.61 942.577 1434.58 942.577H1433.29ZM1451.72 942.607C1449.73 942.607 1448.15 942.04 1446.98 940.906C1445.83 939.753 1445.25 938.191 1445.25 936.222V925.897H1448.47V936.192C1448.47 937.346 1448.76 938.241 1449.34 938.877C1449.91 939.494 1450.71 939.802 1451.72 939.802C1452.76 939.802 1453.56 939.494 1454.14 938.877C1454.74 938.241 1455.04 937.346 1455.04 936.192V925.897H1458.26V936.222C1458.26 938.191 1457.66 939.753 1456.47 940.906C1455.3 942.04 1453.71 942.607 1451.72 942.607ZM1472.18 942.309C1470.63 942.309 1469.39 941.861 1468.45 940.966C1467.54 940.051 1467.08 938.838 1467.08 937.326V923.45H1461.56V920.526H1470.3V937.266C1470.3 937.922 1470.48 938.44 1470.84 938.818C1471.2 939.196 1471.69 939.385 1472.3 939.385H1477.26V942.309H1472.18ZM1487.54 942.607C1486.21 942.607 1485.04 942.349 1484.05 941.831C1483.05 941.294 1482.28 940.548 1481.72 939.593C1481.18 938.639 1480.91 937.525 1480.91 936.251V931.955C1480.91 930.681 1481.18 929.567 1481.72 928.612C1482.28 927.658 1483.05 926.922 1484.05 926.404C1485.04 925.867 1486.21 925.599 1487.54 925.599C1488.89 925.599 1490.06 925.867 1491.06 926.404C1492.05 926.922 1492.82 927.658 1493.36 928.612C1493.91 929.567 1494.19 930.681 1494.19 931.955V934.879H1484.02V936.251C1484.02 938.738 1485.2 939.981 1487.57 939.981C1489.5 939.981 1490.61 939.335 1490.91 938.042H1494.1C1493.86 939.434 1493.15 940.548 1491.95 941.384C1490.76 942.199 1489.29 942.607 1487.54 942.607ZM1484.02 931.955V932.701L1491.06 932.671V931.925C1491.06 930.711 1490.76 929.786 1490.16 929.15C1489.57 928.493 1488.69 928.165 1487.54 928.165C1486.38 928.165 1485.51 928.493 1484.91 929.15C1484.32 929.806 1484.02 930.741 1484.02 931.955ZM1525.11 942.309C1523.66 942.309 1522.51 941.891 1521.65 941.056C1520.8 940.22 1520.37 939.086 1520.37 937.654V928.821H1515.83V925.897H1520.37V921.272H1523.59V925.897H1530.04V928.821H1523.59V937.624C1523.59 938.141 1523.74 938.569 1524.04 938.907C1524.34 939.225 1524.75 939.385 1525.26 939.385H1529.74V942.309H1525.11ZM1541.21 942.577C1539.17 942.577 1537.54 942.011 1536.35 940.877C1535.18 939.723 1534.59 938.171 1534.59 936.222V931.984C1534.59 930.035 1535.18 928.493 1536.35 927.359C1537.54 926.205 1539.17 925.628 1541.21 925.628C1543.26 925.628 1544.89 926.205 1546.08 927.359C1547.27 928.493 1547.87 930.035 1547.87 931.984V936.222C1547.87 938.171 1547.27 939.723 1546.08 940.877C1544.89 942.011 1543.26 942.577 1541.21 942.577ZM1541.21 939.743C1542.29 939.743 1543.12 939.444 1543.72 938.847C1544.34 938.231 1544.65 937.356 1544.65 936.222V931.984C1544.65 930.85 1544.34 929.985 1543.72 929.388C1543.12 928.772 1542.29 928.463 1541.21 928.463C1540.14 928.463 1539.31 928.772 1538.71 929.388C1538.11 929.985 1537.81 930.85 1537.81 931.984V936.222C1537.81 937.356 1538.11 938.231 1538.71 938.847C1539.31 939.444 1540.14 939.743 1541.21 939.743ZM1555.29 947.68L1557.67 941.354L1551.38 925.897H1554.87L1558.48 935.147C1558.64 935.545 1558.79 936.023 1558.93 936.58C1559.09 937.137 1559.21 937.594 1559.29 937.952C1559.37 937.594 1559.48 937.137 1559.61 936.58C1559.77 936.023 1559.93 935.545 1560.09 935.147L1563.49 925.897H1566.84L1558.66 947.68H1555.29Z" fill="white"/>
<path d="M1598.36 153.311C1591.61 165.254 1576.53 170.832 1563.8 163.629C1576.53 170.832 1579.52 186.626 1572.76 198.569C1579.52 186.626 1594.59 181.047 1607.32 188.25C1594.59 181.047 1591.61 165.254 1598.36 153.311Z" fill="white"/>
<path d="M1567.23 320.465L1561.43 317.573L1557.04 326.38L1562.11 328.908L1559.69 333.767L1544.29 326.091L1546.71 321.232L1552.18 323.957L1556.57 315.151L1550.32 312.032L1552.74 307.173L1558.99 310.292L1563.08 302.093L1567.94 304.515L1563.85 312.715L1569.65 315.606L1567.23 320.465ZM1542.44 325.926L1537.58 323.504L1540.87 316.914C1539.29 318.175 1537.18 319.134 1535.44 319.439L1536.81 313.11C1539.78 312.545 1542.98 310.841 1544.41 309.808L1546.33 305.951L1544.47 306.576C1544.47 306.576 1544.51 303.298 1543.99 298.791L1548.6 297.071C1548.75 298.513 1548.75 300.41 1548.63 301.335L1551.21 296.173L1556.07 298.595L1542.44 325.926ZM1592.89 344.974L1587.55 348.38C1583.57 342.83 1582.27 337.444 1581.99 333.135C1577.86 336.266 1572.61 337.971 1566.43 337.811L1565.59 331.515C1573.86 332.036 1578.94 328.844 1581.91 325.32L1572.01 320.384L1574.51 315.373L1584.74 320.476L1587.77 314.402L1592.96 316.991L1589.93 323.065L1600.35 328.258L1597.85 333.269L1587.68 328.197C1587.33 331.551 1587.55 338.106 1592.89 344.974Z" fill="#606060"/>
<path d="M1645.11 568.482L1636.5 552.618L1641.27 550.027L1649.89 565.892L1645.11 568.482ZM1641.82 549.189C1639.89 549.618 1638.02 549.864 1636.25 550.015L1615.04 561.527L1612.45 556.755L1625.81 549.502C1624.4 549.458 1623.31 549.161 1623.31 549.161L1628.86 544.525C1628.86 544.525 1633.28 545.256 1640.19 543.975L1641.82 549.189ZM1637.89 574.375L1635.82 570.558C1634.84 571.82 1631.77 575.766 1628.06 579.672L1623.06 576.212C1623.64 575.661 1624.23 575.109 1624.76 574.59C1622.83 572.241 1619.95 568.361 1616.5 562.51L1621.24 559.283C1621.56 559.879 1621.98 560.427 1622.28 560.994C1625.21 560.758 1627.88 560.349 1630.05 559.942L1627.66 555.528L1632.43 552.937L1642.66 571.784L1637.89 574.375ZM1635.22 569.454L1632.97 565.309C1630.99 565.725 1628.49 566.159 1625.75 566.449C1626.98 568.214 1627.96 569.608 1628.73 570.66C1630.85 568.387 1631.94 566.984 1631.94 566.984L1635.22 569.454ZM1655.74 581.865L1650.61 572.411L1654.01 570.566L1659.14 580.019L1655.74 581.865ZM1651.2 584.949L1645.37 574.213L1649.28 572.092L1655.1 582.827L1651.2 584.949ZM1646.82 586.706L1641.69 577.253L1644.91 575.504L1650.04 584.957L1646.82 586.706ZM1646.18 608.486C1642.96 610.235 1641.59 609.203 1640.37 606.966L1639.19 604.789C1637.81 602.255 1637.75 601.361 1640.26 600.001L1647.21 596.228L1646.87 595.602C1642 598.014 1637.93 598.986 1633.83 596.194L1635.75 592.986L1633.67 594.12L1630.72 588.692L1630 589.081L1627.58 584.608L1636.55 579.734L1641.93 589.635L1637.99 591.772C1640.15 592.762 1641.92 592.459 1644.5 591.248L1643.66 589.698L1654.31 583.917L1655.62 586.333C1656.64 585.084 1657.86 583.645 1658.9 581.925L1662.82 585.664C1661.85 587.504 1659.38 590.199 1659.38 590.199L1656.52 588.003L1658.4 591.462C1661.72 591.319 1665.32 590.408 1665.32 590.408L1667.25 595.961C1667.25 595.961 1663.99 596.345 1661.15 596.531L1662.26 598.559L1651.61 604.34L1649.67 600.761L1644.93 603.335C1644.6 603.514 1644.63 603.573 1644.84 603.961C1644.97 604.199 1645.09 604.21 1645.51 603.984L1649 602.089L1649.67 606.592L1646.18 608.486ZM1642.71 588.94L1637.58 579.487L1640.8 577.738L1645.93 587.192L1642.71 588.94ZM1653.19 597.301L1655.46 596.071L1652.69 590.972L1650.43 592.202L1653.19 597.301ZM1634.92 588.034L1636.2 587.338L1635.36 585.787L1634.08 586.484L1634.92 588.034ZM1680.6 627.715C1660.26 638.758 1657.72 639.982 1652.5 630.38L1656.68 625.987C1656.86 626.315 1657.04 626.643 1657.2 626.941C1660.25 632.548 1660.62 632.383 1674.28 624.968L1671.69 620.196C1669.85 620.076 1668.04 620.016 1665.98 618.932L1668.85 616.177L1651.94 625.358L1648.17 618.41L1646.44 619.349L1643.85 614.578L1667.08 601.965L1668.52 604.619C1669.73 604.578 1671.37 604.462 1672.89 604.061L1674.99 609.137C1673.68 609.425 1672.42 609.604 1671.29 609.718L1673.44 613.684L1671.92 614.51C1675.32 614.79 1678.3 614.097 1678.3 614.097L1680.66 619.149C1680.66 619.149 1679.48 619.553 1677.64 619.859L1681.61 627.165L1680.6 627.715ZM1664.41 628.626L1659.93 625.574C1662.58 622.63 1664.83 619.016 1664.83 619.016L1668.93 621.732C1668.93 621.732 1666.96 625.579 1664.41 628.626ZM1662.65 613.365L1666.56 611.244L1665.37 609.067L1661.47 611.188L1662.65 613.365ZM1653.82 618.158L1658.3 615.729L1657.11 613.552L1652.64 615.981L1653.82 618.158Z" fill="#606060"/>
</g>
<defs>
<clipPath id="clip0_1_2">
<rect width="1920" height="1050" fill="white" transform="translate(0.5 0.00726318)"/>
</clipPath>
</defs>
</svg>
