<svg version="1.1" viewBox="0.0 0.0 960.0 384.0" fill="none" stroke="none" stroke-linecap="square" stroke-miterlimit="10" xmlns:xlink="http://www.w3.org/1999/xlink" xmlns="http://www.w3.org/2000/svg"><clipPath id="g163df6ed213_0_4.0"><path d="m0 0l960.0 0l0 384.0l-960.0 0l0 -384.0z" clip-rule="nonzero"/></clipPath><g clip-path="url(#g163df6ed213_0_4.0)"><path fill="#161616" d="m0 0l960.0 0l0 384.0l-960.0 0z" fill-rule="evenodd"/><path fill="#000000" fill-opacity="0.0" d="m0 115.11808l960.0 0l0 89.637794l-960.0 0z" fill-rule="evenodd"/><path fill="#ea9999" d="m81.744385 183.48712q-3.625 0 -5.8125 -1.9375q-2.1875 -1.953125 -2.1875 -5.3125l0.96875 1.125l-0.96875 0l0 5.59375l-4.796875 0l0 -38.921875l4.796875 0l0 8.53125l-0.109375 6.65625l1.078125 0l-0.96875 1.125q0 -3.3125 2.203125 -5.28125q2.21875 -1.96875 5.796875 -1.96875q4.421875 0 7.09375 2.9375q2.671875 2.921875 2.671875 7.984375l0 8.59375q0 5.015625 -2.671875 7.953125q-2.671875 2.921875 -7.09375 2.921875zm-1.59375 -4.15625q3.03125 0 4.796875 -1.8125q1.765625 -1.8125 1.765625 -5.234375l0 -8.0q0 -3.40625 -1.765625 -5.21875q-1.765625 -1.8125 -4.796875 -1.8125q-2.9375 0 -4.671875 1.875q-1.734375 1.859375 -1.734375 5.15625l0 8.0q0 3.3125 1.734375 5.1875q1.734375 1.859375 4.671875 1.859375zm33.590576 4.15625q-3.625 0 -5.8125 -1.9375q-2.1875 -1.953125 -2.1875 -5.3125l0.96875 1.125l-0.96875 0l0 5.59375l-4.796875 0l0 -38.921875l4.796875 0l0 8.53125l-0.109375 6.65625l1.078125 0l-0.96875 1.125q0 -3.3125 2.203125 -5.28125q2.21875 -1.96875 5.796875 -1.96875q4.421875 0 7.09375 2.9375q2.671875 2.921875 2.671875 7.984375l0 8.59375q0 5.015625 -2.671875 7.953125q-2.671875 2.921875 -7.09375 2.921875zm-1.59375 -4.15625q3.03125 0 4.796875 -1.8125q1.765625 -1.8125 1.765625 -5.234375l0 -8.0q0 -3.40625 -1.765625 -5.21875q-1.765625 -1.8125 -4.796875 -1.8125q-2.9375 0 -4.671875 1.875q-1.734375 1.859375 -1.734375 5.15625l0 8.0q0 3.3125 1.734375 5.1875q1.734375 1.859375 4.671875 1.859375zm33.590576 4.15625q-3.625 0 -5.8125 -1.9375q-2.1875 -1.953125 -2.1875 -5.3125l0.96875 1.125l-0.96875 0l0 5.59375l-4.796875 0l0 -38.921875l4.796875 0l0 8.53125l-0.109375 6.65625l1.078125 0l-0.96875 1.125q0 -3.3125 2.203125 -5.28125q2.21875 -1.96875 5.796875 -1.96875q4.421875 0 7.09375 2.9375q2.671875 2.921875 2.671875 7.984375l0 8.59375q0 5.015625 -2.671875 7.953125q-2.671875 2.921875 -7.09375 2.921875zm-1.59375 -4.15625q3.03125 0 4.796875 -1.8125q1.765625 -1.8125 1.765625 -5.234375l0 -8.0q0 -3.40625 -1.765625 -5.21875q-1.765625 -1.8125 -4.796875 -1.8125q-2.9375 0 -4.671875 1.875q-1.734375 1.859375 -1.734375 5.15625l0 8.0q0 3.3125 1.734375 5.1875q1.734375 1.859375 4.671875 1.859375zm33.590576 4.15625q-3.625 0 -5.8125 -1.9375q-2.1875 -1.953125 -2.1875 -5.3125l0.96875 1.125l-0.96875 0l0 5.59375l-4.796875 0l0 -38.921875l4.796875 0l0 8.53125l-0.109375 6.65625l1.078125 0l-0.96875 1.125q0 -3.3125 2.203125 -5.28125q2.21875 -1.96875 5.796875 -1.96875q4.421875 0 7.09375 2.9375q2.671875 2.921875 2.671875 7.984375l0 8.59375q0 5.015625 -2.671875 7.953125q-2.671875 2.921875 -7.09375 2.921875zm-1.59375 -4.15625q3.03125 0 4.796875 -1.8125q1.765625 -1.8125 1.765625 -5.234375l0 -8.0q0 -3.40625 -1.765625 -5.21875q-1.765625 -1.8125 -4.796875 -1.8125q-2.9375 0 -4.671875 1.875q-1.734375 1.859375 -1.734375 5.15625l0 8.0q0 3.3125 1.734375 5.1875q1.734375 1.859375 4.671875 1.859375zm33.590576 4.15625q-3.625 0 -5.8125 -1.9375q-2.1875 -1.953125 -2.1875 -5.3125l0.96875 1.125l-0.96875 0l0 5.59375l-4.796875 0l0 -38.921875l4.796875 0l0 8.53125l-0.109375 6.65625l1.078125 0l-0.96875 1.125q0 -3.3125 2.203125 -5.28125q2.21875 -1.96875 5.796875 -1.96875q4.421875 0 7.09375 2.9375q2.671875 2.921875 2.671875 7.984375l0 8.59375q0 5.015625 -2.671875 7.953125q-2.671875 2.921875 -7.09375 2.921875zm-1.59375 -4.15625q3.03125 0 4.796875 -1.8125q1.765625 -1.8125 1.765625 -5.234375l0 -8.0q0 -3.40625 -1.765625 -5.21875q-1.765625 -1.8125 -4.796875 -1.8125q-2.9375 0 -4.671875 1.875q-1.734375 1.859375 -1.734375 5.15625l0 8.0q0 3.3125 1.734375 5.1875q1.734375 1.859375 4.671875 1.859375zm33.590576 4.15625q-3.625 0 -5.8125 -1.9375q-2.1875 -1.953125 -2.1875 -5.3125l0.96875 1.125l-0.96875 0l0 5.59375l-4.796875 0l0 -38.921875l4.796875 0l0 8.53125l-0.109375 6.65625l1.078125 0l-0.96875 1.125q0 -3.3125 2.203125 -5.28125q2.21875 -1.96875 5.796875 -1.96875q4.421875 0 7.09375 2.9375q2.671875 2.921875 2.671875 7.984375l0 8.59375q0 5.015625 -2.671875 7.953125q-2.671875 2.921875 -7.09375 2.921875zm-1.59375 -4.15625q3.03125 0 4.796875 -1.8125q1.765625 -1.8125 1.765625 -5.234375l0 -8.0q0 -3.40625 -1.765625 -5.21875q-1.765625 -1.8125 -4.796875 -1.8125q-2.9375 0 -4.671875 1.875q-1.734375 1.859375 -1.734375 5.15625l0 8.0q0 3.3125 1.734375 5.1875q1.734375 1.859375 4.671875 1.859375zm33.590576 4.15625q-3.625 0 -5.8125 -1.9375q-2.1875 -1.953125 -2.1875 -5.3125l0.96875 1.125l-0.96875 0l0 5.59375l-4.796875 0l0 -38.921875l4.796875 0l0 8.53125l-0.109375 6.65625l1.078125 0l-0.96875 1.125q0 -3.3125 2.203125 -5.28125q2.21875 -1.96875 5.796875 -1.96875q4.421875 0 7.09375 2.9375q2.671875 2.921875 2.671875 7.984375l0 8.59375q0 5.015625 -2.671875 7.953125q-2.671875 2.921875 -7.09375 2.921875zm-1.59375 -4.15625q3.03125 0 4.796875 -1.8125q1.765625 -1.8125 1.765625 -5.234375l0 -8.0q0 -3.40625 -1.765625 -5.21875q-1.765625 -1.8125 -4.796875 -1.8125q-2.9375 0 -4.671875 1.875q-1.734375 1.859375 -1.734375 5.15625l0 8.0q0 3.3125 1.734375 5.1875q1.734375 1.859375 4.671875 1.859375zm33.590576 4.15625q-3.625 0 -5.8125 -1.9375q-2.1875 -1.953125 -2.1875 -5.3125l0.96875 1.125l-0.96875 0l0 5.59375l-4.796875 0l0 -38.921875l4.796875 0l0 8.53125l-0.109375 6.65625l1.078125 0l-0.96875 1.125q0 -3.3125 2.203125 -5.28125q2.21875 -1.96875 5.796875 -1.96875q4.421875 0 7.09375 2.9375q2.671875 2.921875 2.671875 7.984375l0 8.59375q0 5.015625 -2.671875 7.953125q-2.671875 2.921875 -7.09375 2.921875zm-1.59375 -4.15625q3.03125 0 4.796875 -1.8125q1.765625 -1.8125 1.765625 -5.234375l0 -8.0q0 -3.40625 -1.765625 -5.21875q-1.765625 -1.8125 -4.796875 -1.8125q-2.9375 0 -4.671875 1.875q-1.734375 1.859375 -1.734375 5.15625l0 8.0q0 3.3125 1.734375 5.1875q1.734375 1.859375 4.671875 1.859375zm33.590576 4.15625q-3.625 0 -5.8125 -1.9375q-2.1875 -1.953125 -2.1875 -5.3125l0.96875 1.125l-0.96875 0l0 5.59375l-4.796875 0l0 -38.921875l4.796875 0l0 8.53125l-0.109375 6.65625l1.078125 0l-0.96875 1.125q0 -3.3125 2.203125 -5.28125q2.21875 -1.96875 5.796875 -1.96875q4.421875 0 7.09375 2.9375q2.671875 2.921875 2.671875 7.984375l0 8.59375q0 5.015625 -2.671875 7.953125q-2.671875 2.921875 -7.09375 2.921875zm-1.59375 -4.15625q3.03125 0 4.796875 -1.8125q1.765625 -1.8125 1.765625 -5.234375l0 -8.0q0 -3.40625 -1.765625 -5.21875q-1.765625 -1.8125 -4.796875 -1.8125q-2.9375 0 -4.671875 1.875q-1.734375 1.859375 -1.734375 5.15625l0 8.0q0 3.3125 1.734375 5.1875q1.734375 1.859375 4.671875 1.859375zm33.590576 4.15625q-3.625 0 -5.8125 -1.9375q-2.1875 -1.953125 -2.1875 -5.3125l0.96875 1.125l-0.96875 0l0 5.59375l-4.796875 0l0 -38.921875l4.796875 0l0 8.53125l-0.109375 6.65625l1.078125 0l-0.96875 1.125q0 -3.3125 2.203125 -5.28125q2.21875 -1.96875 5.796875 -1.96875q4.421875 0 7.09375 2.9375q2.671875 2.921875 2.671875 7.984375l0 8.59375q0 5.015625 -2.671875 7.953125q-2.671875 2.921875 -7.09375 2.921875zm-1.59375 -4.15625q3.03125 0 4.796875 -1.8125q1.765625 -1.8125 1.765625 -5.234375l0 -8.0q0 -3.40625 -1.765625 -5.21875q-1.765625 -1.8125 -4.796875 -1.8125q-2.9375 0 -4.671875 1.875q-1.734375 1.859375 -1.734375 5.15625l0 8.0q0 3.3125 1.734375 5.1875q1.734375 1.859375 4.671875 1.859375zm33.590576 4.15625q-3.625 0 -5.8125 -1.9375q-2.1875 -1.953125 -2.1875 -5.3125l0.96875 1.125l-0.96875 0l0 5.59375l-4.796875 0l0 -38.921875l4.796875 0l0 8.53125l-0.109375 6.65625l1.078125 0l-0.96875 1.125q0 -3.3125 2.203125 -5.28125q2.21875 -1.96875 5.796875 -1.96875q4.421875 0 7.09375 2.9375q2.671875 2.921875 2.671875 7.984375l0 8.59375q0 5.015625 -2.671875 7.953125q-2.671875 2.921875 -7.09375 2.921875zm-1.59375 -4.15625q3.03125 0 4.796875 -1.8125q1.765625 -1.8125 1.765625 -5.234375l0 -8.0q0 -3.40625 -1.765625 -5.21875q-1.765625 -1.8125 -4.796875 -1.8125q-2.9375 0 -4.671875 1.875q-1.734375 1.859375 -1.734375 5.15625l0 8.0q0 3.3125 1.734375 5.1875q1.734375 1.859375 4.671875 1.859375zm33.590576 4.15625q-3.625 0 -5.8125 -1.9375q-2.1875 -1.953125 -2.1875 -5.3125l0.96875 1.125l-0.96875 0l0 5.59375l-4.796875 0l0 -38.921875l4.796875 0l0 8.53125l-0.109375 6.65625l1.078125 0l-0.96875 1.125q0 -3.3125 2.203125 -5.28125q2.21875 -1.96875 5.796875 -1.96875q4.421875 0 7.09375 2.9375q2.671875 2.921875 2.671875 7.984375l0 8.59375q0 5.015625 -2.671875 7.953125q-2.671875 2.921875 -7.09375 2.921875zm-1.59375 -4.15625q3.03125 0 4.796875 -1.8125q1.765625 -1.8125 1.765625 -5.234375l0 -8.0q0 -3.40625 -1.765625 -5.21875q-1.765625 -1.8125 -4.796875 -1.8125q-2.9375 0 -4.671875 1.875q-1.734375 1.859375 -1.734375 5.15625l0 8.0q0 3.3125 1.734375 5.1875q1.734375 1.859375 4.671875 1.859375zm33.590576 4.15625q-3.625 0 -5.8125 -1.9375q-2.1875 -1.953125 -2.1875 -5.3125l0.96875 1.125l-0.96875 0l0 5.59375l-4.796875 0l0 -38.921875l4.796875 0l0 8.53125l-0.109375 6.65625l1.078125 0l-0.96875 1.125q0 -3.3125 2.203125 -5.28125q2.21875 -1.96875 5.796875 -1.96875q4.421875 0 7.09375 2.9375q2.671875 2.921875 2.671875 7.984375l0 8.59375q0 5.015625 -2.671875 7.953125q-2.671875 2.921875 -7.09375 2.921875zm-1.59375 -4.15625q3.03125 0 4.796875 -1.8125q1.765625 -1.8125 1.765625 -5.234375l0 -8.0q0 -3.40625 -1.765625 -5.21875q-1.765625 -1.8125 -4.796875 -1.8125q-2.9375 0 -4.671875 1.875q-1.734375 1.859375 -1.734375 5.15625l0 8.0q0 3.3125 1.734375 5.1875q1.734375 1.859375 4.671875 1.859375zm33.590576 4.15625q-3.625 0 -5.8125 -1.9375q-2.1875 -1.953125 -2.1875 -5.3125l0.96875 1.125l-0.96875 0l0 5.59375l-4.796875 0l0 -38.921875l4.796875 0l0 8.53125l-0.109375 6.65625l1.078125 0l-0.96875 1.125q0 -3.3125 2.203125 -5.28125q2.21875 -1.96875 5.796875 -1.96875q4.421875 0 7.09375 2.9375q2.671875 2.921875 2.671875 7.984375l0 8.59375q0 5.015625 -2.671875 7.953125q-2.671875 2.921875 -7.09375 2.921875zm-1.59375 -4.15625q3.03125 0 4.796875 -1.8125q1.765625 -1.8125 1.765625 -5.234375l0 -8.0q0 -3.40625 -1.765625 -5.21875q-1.765625 -1.8125 -4.796875 -1.8125q-2.9375 0 -4.671875 1.875q-1.734375 1.859375 -1.734375 5.15625l0 8.0q0 3.3125 1.734375 5.1875q1.734375 1.859375 4.671875 1.859375zm33.590576 4.15625q-3.625 0 -5.8125 -1.9375q-2.1875 -1.953125 -2.1875 -5.3125l0.96875 1.125l-0.96875 0l0 5.59375l-4.796875 0l0 -38.921875l4.796875 0l0 8.53125l-0.109375 6.65625l1.078125 0l-0.96875 1.125q0 -3.3125 2.203125 -5.28125q2.21875 -1.96875 5.796875 -1.96875q4.421875 0 7.09375 2.9375q2.671875 2.921875 2.671875 7.984375l0 8.59375q0 5.015625 -2.671875 7.953125q-2.671875 2.921875 -7.09375 2.921875zm-1.59375 -4.15625q3.03125 0 4.796875 -1.8125q1.765625 -1.8125 1.765625 -5.234375l0 -8.0q0 -3.40625 -1.765625 -5.21875q-1.765625 -1.8125 -4.796875 -1.8125q-2.9375 0 -4.671875 1.875q-1.734375 1.859375 -1.734375 5.15625l0 8.0q0 3.3125 1.734375 5.1875q1.734375 1.859375 4.671875 1.859375zm33.590576 4.15625q-3.625 0 -5.8125 -1.9375q-2.1875 -1.953125 -2.1875 -5.3125l0.96875 1.125l-0.96875 0l0 5.59375l-4.796875 0l0 -38.921875l4.796875 0l0 8.53125l-0.109375 6.65625l1.078125 0l-0.96875 1.125q0 -3.3125 2.203125 -5.28125q2.21875 -1.96875 5.796875 -1.96875q4.421875 0 7.09375 2.9375q2.671875 2.921875 2.671875 7.984375l0 8.59375q0 5.015625 -2.671875 7.953125q-2.671875 2.921875 -7.09375 2.921875zm-1.59375 -4.15625q3.03125 0 4.796875 -1.8125q1.765625 -1.8125 1.765625 -5.234375l0 -8.0q0 -3.40625 -1.765625 -5.21875q-1.765625 -1.8125 -4.796875 -1.8125q-2.9375 0 -4.671875 1.875q-1.734375 1.859375 -1.734375 5.15625l0 8.0q0 3.3125 1.734375 5.1875q1.734375 1.859375 4.671875 1.859375zm33.590576 4.15625q-3.625 0 -5.8125 -1.9375q-2.1875 -1.953125 -2.1875 -5.3125l0.96875 1.125l-0.96875 0l0 5.59375l-4.796875 0l0 -38.921875l4.796875 0l0 8.53125l-0.109375 6.65625l1.078125 0l-0.96875 1.125q0 -3.3125 2.203125 -5.28125q2.21875 -1.96875 5.796875 -1.96875q4.421875 0 7.09375 2.9375q2.671875 2.921875 2.671875 7.984375l0 8.59375q0 5.015625 -2.671875 7.953125q-2.671875 2.921875 -7.09375 2.921875zm-1.59375 -4.15625q3.03125 0 4.796875 -1.8125q1.765625 -1.8125 1.765625 -5.234375l0 -8.0q0 -3.40625 -1.765625 -5.21875q-1.765625 -1.8125 -4.796875 -1.8125q-2.9375 0 -4.671875 1.875q-1.734375 1.859375 -1.734375 5.15625l0 8.0q0 3.3125 1.734375 5.1875q1.734375 1.859375 4.671875 1.859375zm33.590576 4.15625q-3.625 0 -5.8125 -1.9375q-2.1875 -1.953125 -2.1875 -5.3125l0.96875 1.125l-0.96875 0l0 5.59375l-4.796875 0l0 -38.921875l4.796875 0l0 8.53125l-0.109375 6.65625l1.078125 0l-0.96875 1.125q0 -3.3125 2.203125 -5.28125q2.21875 -1.96875 5.796875 -1.96875q4.421875 0 7.09375 2.9375q2.671875 2.921875 2.671875 7.984375l0 8.59375q0 5.015625 -2.671875 7.953125q-2.671875 2.921875 -7.09375 2.921875zm-1.59375 -4.15625q3.03125 0 4.796875 -1.8125q1.765625 -1.8125 1.765625 -5.234375l0 -8.0q0 -3.40625 -1.765625 -5.21875q-1.765625 -1.8125 -4.796875 -1.8125q-2.9375 0 -4.671875 1.875q-1.734375 1.859375 -1.734375 5.15625l0 8.0q0 3.3125 1.734375 5.1875q1.734375 1.859375 4.671875 1.859375zm33.590576 4.15625q-3.625 0 -5.8125 -1.9375q-2.1875 -1.953125 -2.1875 -5.3125l0.96875 1.125l-0.96875 0l0 5.59375l-4.796875 0l0 -38.921875l4.796875 0l0 8.53125l-0.109375 6.65625l1.078125 0l-0.96875 1.125q0 -3.3125 2.203125 -5.28125q2.21875 -1.96875 5.796875 -1.96875q4.421875 0 7.09375 2.9375q2.671875 2.921875 2.671875 7.984375l0 8.59375q0 5.015625 -2.671875 7.953125q-2.671875 2.921875 -7.09375 2.921875zm-1.59375 -4.15625q3.03125 0 4.796875 -1.8125q1.765625 -1.8125 1.765625 -5.234375l0 -8.0q0 -3.40625 -1.765625 -5.21875q-1.765625 -1.8125 -4.796875 -1.8125q-2.9375 0 -4.671875 1.875q-1.734375 1.859375 -1.734375 5.15625l0 8.0q0 3.3125 1.734375 5.1875q1.734375 1.859375 4.671875 1.859375zm33.590576 4.15625q-3.625 0 -5.8125 -1.9375q-2.1875 -1.953125 -2.1875 -5.3125l0.96875 1.125l-0.96875 0l0 5.59375l-4.796875 0l0 -38.921875l4.796875 0l0 8.53125l-0.109375 6.65625l1.078125 0l-0.96875 1.125q0 -3.3125 2.203125 -5.28125q2.21875 -1.96875 5.796875 -1.96875q4.421875 0 7.09375 2.9375q2.671875 2.921875 2.671875 7.984375l0 8.59375q0 5.015625 -2.671875 7.953125q-2.671875 2.921875 -7.09375 2.921875zm-1.59375 -4.15625q3.03125 0 4.796875 -1.8125q1.765625 -1.8125 1.765625 -5.234375l0 -8.0q0 -3.40625 -1.765625 -5.21875q-1.765625 -1.8125 -4.796875 -1.8125q-2.9375 0 -4.671875 1.875q-1.734375 1.859375 -1.734375 5.15625l0 8.0q0 3.3125 1.734375 5.1875q1.734375 1.859375 4.671875 1.859375zm33.590576 4.15625q-3.625 0 -5.8125 -1.9375q-2.1875 -1.953125 -2.1875 -5.3125l0.96875 1.125l-0.96875 0l0 5.59375l-4.796875 0l0 -38.921875l4.796875 0l0 8.53125l-0.109375 6.65625l1.078125 0l-0.96875 1.125q0 -3.3125 2.203125 -5.28125q2.21875 -1.96875 5.796875 -1.96875q4.421875 0 7.09375 2.9375q2.671875 2.921875 2.671875 7.984375l0 8.59375q0 5.015625 -2.671875 7.953125q-2.671875 2.921875 -7.09375 2.921875zm-1.59375 -4.15625q3.03125 0 4.796875 -1.8125q1.765625 -1.8125 1.765625 -5.234375l0 -8.0q0 -3.40625 -1.765625 -5.21875q-1.765625 -1.8125 -4.796875 -1.8125q-2.9375 0 -4.671875 1.875q-1.734375 1.859375 -1.734375 5.15625l0 8.0q0 3.3125 1.734375 5.1875q1.734375 1.859375 4.671875 1.859375zm33.590576 4.15625q-3.625 0 -5.8125 -1.9375q-2.1875 -1.953125 -2.1875 -5.3125l0.96875 1.125l-0.96875 0l0 5.59375l-4.796875 0l0 -38.921875l4.796875 0l0 8.53125l-0.109375 6.65625l1.078125 0l-0.96875 1.125q0 -3.3125 2.203125 -5.28125q2.21875 -1.96875 5.796875 -1.96875q4.421875 0 7.09375 2.9375q2.671875 2.921875 2.671875 7.984375l0 8.59375q0 5.015625 -2.671875 7.953125q-2.671875 2.921875 -7.09375 2.921875zm-1.59375 -4.15625q3.03125 0 4.796875 -1.8125q1.765625 -1.8125 1.765625 -5.234375l0 -8.0q0 -3.40625 -1.765625 -5.21875q-1.765625 -1.8125 -4.796875 -1.8125q-2.9375 0 -4.671875 1.875q-1.734375 1.859375 -1.734375 5.15625l0 8.0q0 3.3125 1.734375 5.1875q1.734375 1.859375 4.671875 1.859375z" fill-rule="nonzero"/><path fill="#010000" fill-opacity="0.0" d="m767.97144 128.56128l31.996826 0l0 70.393005l-31.996826 0l0 -70.393005z" fill-rule="nonzero"/><path fill="#ff0000" d="m786.47144 183.48712q-3.625 0 -5.765625 -2.046875q-2.125 -2.0625 -2.125 -5.625l1.5 1.546875l-1.5 0l0 5.59375l-6.5 0l0 -38.921875l6.65625 0l0 8.203125l-0.203125 6.984375l1.546875 0l-1.5 1.546875q0 -3.5625 2.125 -5.609375q2.140625 -2.0625 5.765625 -2.0625q4.4375 0 7.09375 3.046875q2.671875 3.03125 2.671875 8.203125l0 7.9375q0 5.125 -2.671875 8.171875q-2.65625 3.03125 -7.09375 3.03125zm-2.34375 -5.75q2.5625 0 4.0 -1.5q1.4375 -1.5 1.4375 -4.265625l0 -7.359375q0 -2.78125 -1.4375 -4.265625q-1.4375 -1.5 -4.0 -1.5q-2.5 0 -3.953125 1.53125q-1.4375 1.515625 -1.4375 4.234375l0 7.359375q0 2.71875 1.4375 4.25q1.453125 1.515625 3.953125 1.515625z" fill-rule="nonzero"/><path fill="#e9d3b6" d="m817.6714 183.48712q-3.625 0 -5.8125 -1.9375q-2.1875 -1.953125 -2.1875 -5.3125l0.96875 1.125l-0.96875 0l0 5.59375l-4.796875 0l0 -38.921875l4.796875 0l0 8.53125l-0.109375 6.65625l1.078125 0l-0.96875 1.125q0 -3.3125 2.203125 -5.28125q2.21875 -1.96875 5.796875 -1.96875q4.421875 0 7.09375 2.9375q2.671875 2.921875 2.671875 7.984375l0 8.59375q0 5.015625 -2.671875 7.953125q-2.671875 2.921875 -7.09375 2.921875zm-1.59375 -4.15625q3.03125 0 4.796875 -1.8125q1.765625 -1.8125 1.765625 -5.234375l0 -8.0q0 -3.40625 -1.765625 -5.21875q-1.765625 -1.8125 -4.796875 -1.8125q-2.9375 0 -4.671875 1.875q-1.734375 1.859375 -1.734375 5.15625l0 8.0q0 3.3125 1.734375 5.1875q1.734375 1.859375 4.671875 1.859375zm32.1062 4.15625q-3.53125 0 -6.171875 -1.328125q-2.640625 -1.34375 -4.078125 -3.875q-1.4375 -2.53125 -1.4375 -6.0l0 -8.0q0 -3.515625 1.4375 -6.015625q1.4375 -2.515625 4.078125 -3.84375q2.640625 -1.328125 6.171875 -1.328125q5.0625 0 8.15625 2.71875q3.09375 2.71875 3.25 7.40625l-4.796875 0q-0.15625 -2.828125 -1.890625 -4.34375q-1.734375 -1.515625 -4.71875 -1.515625q-3.15625 0 -5.03125 1.78125q-1.859375 1.78125 -1.859375 5.09375l0 8.046875q0 3.3125 1.859375 5.125q1.875 1.8125 5.03125 1.8125q2.984375 0 4.71875 -1.546875q1.734375 -1.546875 1.890625 -4.3125l4.796875 0q-0.15625 4.6875 -3.25 7.40625q-3.09375 2.71875 -8.15625 2.71875zm30.074951 0q-4.375 0 -7.078125 -2.921875q-2.6875 -2.9375 -2.6875 -7.953125l0 -8.59375q0 -5.0625 2.65625 -7.984375q2.671875 -2.9375 7.109375 -2.9375q3.625 0 5.8125 1.96875q2.1875 1.96875 2.1875 5.28125l-0.96875 -1.125l1.0625 0l-0.09375 -6.65625l0 -8.53125l4.796875 0l0 38.921875l-4.796875 0l0 -5.59375l-0.96875 0l0.96875 -1.125q0 3.359375 -2.1875 5.3125q-2.1875 1.9375 -5.8125 1.9375zm1.59375 -4.15625q2.984375 0 4.6875 -1.859375q1.71875 -1.875 1.71875 -5.1875l0 -8.0q0 -3.296875 -1.71875 -5.15625q-1.703125 -1.875 -4.6875 -1.875q-3.03125 0 -4.796875 1.8125q-1.765625 1.8125 -1.765625 5.21875l0 8.0q0 3.421875 1.765625 5.234375q1.765625 1.8125 4.796875 1.8125z" fill-rule="nonzero"/><path fill="#ff0000" d="m767.97144 164.55588l31.996826 0l0 4.800003l-31.996826 0l0 -4.800003z" fill-rule="nonzero"/><path fill="#000000" fill-opacity="0.0" d="m0 52.000725l960.0 0l0 89.637794l-960.0 0z" fill-rule="evenodd"/><path fill="#434343" d="m66.713135 119.838524l10.390625 -15.09375l-9.75 -14.234375l5.640625 0l5.8125 9.0625q0.375 0.59375 0.71875 1.28125q0.359375 0.6875 0.5625 1.125q0.171875 -0.4375 0.515625 -1.125q0.34375 -0.6875 0.71875 -1.28125l5.859375 -9.0625l5.609375 0l-9.765625 14.296875l10.34375 15.03125l-5.65625 0l-6.28125 -9.59375q-0.375 -0.59375 -0.734375 -1.359375q-0.34375 -0.78125 -0.609375 -1.265625q-0.203125 0.484375 -0.609375 1.265625q-0.40625 0.765625 -0.828125 1.359375l-6.34375 9.59375l-5.59375 0zm31.996826 0l10.390625 -15.09375l-9.75 -14.234375l5.640625 0l5.8125 9.0625q0.375 0.59375 0.71875 1.28125q0.359375 0.6875 0.5625 1.125q0.171875 -0.4375 0.515625 -1.125q0.34375 -0.6875 0.71875 -1.28125l5.859375 -9.0625l5.609375 0l-9.765625 14.296875l10.34375 15.03125l-5.65625 0l-6.28125 -9.59375q-0.375 -0.59375 -0.734375 -1.359375q-0.34375 -0.78125 -0.609375 -1.265625q-0.203125 0.484375 -0.609375 1.265625q-0.40625 0.765625 -0.828125 1.359375l-6.34375 9.59375l-5.59375 0zm31.996826 0l10.390625 -15.09375l-9.75 -14.234375l5.640625 0l5.8125 9.0625q0.375 0.59375 0.71875 1.28125q0.359375 0.6875 0.5625 1.125q0.171875 -0.4375 0.515625 -1.125q0.34375 -0.6875 0.71875 -1.28125l5.859375 -9.0625l5.609375 0l-9.765625 14.296875l10.34375 15.03125l-5.65625 0l-6.28125 -9.59375q-0.375 -0.59375 -0.734375 -1.359375q-0.34375 -0.78125 -0.609375 -1.265625q-0.203125 0.484375 -0.609375 1.265625q-0.40625 0.765625 -0.828125 1.359375l-6.34375 9.59375l-5.59375 0zm31.996826 0l10.390625 -15.09375l-9.75 -14.234375l5.640625 0l5.8125 9.0625q0.375 0.59375 0.71875 1.28125q0.359375 0.6875 0.5625 1.125q0.171875 -0.4375 0.515625 -1.125q0.34375 -0.6875 0.71875 -1.28125l5.859375 -9.0625l5.609375 0l-9.765625 14.296875l10.34375 15.03125l-5.65625 0l-6.28125 -9.59375q-0.375 -0.59375 -0.734375 -1.359375q-0.34375 -0.78125 -0.609375 -1.265625q-0.203125 0.484375 -0.609375 1.265625q-0.40625 0.765625 -0.828125 1.359375l-6.34375 9.59375l-5.59375 0zm31.996826 0l10.390625 -15.09375l-9.75 -14.234375l5.640625 0l5.8125 9.0625q0.375 0.59375 0.71875 1.28125q0.359375 0.6875 0.5625 1.125q0.171875 -0.4375 0.515625 -1.125q0.34375 -0.6875 0.71875 -1.28125l5.859375 -9.0625l5.609375 0l-9.765625 14.296875l10.34375 15.03125l-5.65625 0l-6.28125 -9.59375q-0.375 -0.59375 -0.734375 -1.359375q-0.34375 -0.78125 -0.609375 -1.265625q-0.203125 0.484375 -0.609375 1.265625q-0.40625 0.765625 -0.828125 1.359375l-6.34375 9.59375l-5.59375 0zm31.996826 0l10.390625 -15.09375l-9.75 -14.234375l5.640625 0l5.8125 9.0625q0.375 0.59375 0.71875 1.28125q0.359375 0.6875 0.5625 1.125q0.171875 -0.4375 0.515625 -1.125q0.34375 -0.6875 0.71875 -1.28125l5.859375 -9.0625l5.609375 0l-9.765625 14.296875l10.34375 15.03125l-5.65625 0l-6.28125 -9.59375q-0.375 -0.59375 -0.734375 -1.359375q-0.34375 -0.78125 -0.609375 -1.265625q-0.203125 0.484375 -0.609375 1.265625q-0.40625 0.765625 -0.828125 1.359375l-6.34375 9.59375l-5.59375 0zm31.996826 0l10.390625 -15.09375l-9.75 -14.234375l5.640625 0l5.8125 9.0625q0.375 0.59375 0.71875 1.28125q0.359375 0.6875 0.5625 1.125q0.171875 -0.4375 0.515625 -1.125q0.34375 -0.6875 0.71875 -1.28125l5.859375 -9.0625l5.609375 0l-9.765625 14.296875l10.34375 15.03125l-5.65625 0l-6.28125 -9.59375q-0.375 -0.59375 -0.734375 -1.359375q-0.34375 -0.78125 -0.609375 -1.265625q-0.203125 0.484375 -0.609375 1.265625q-0.40625 0.765625 -0.828125 1.359375l-6.34375 9.59375l-5.59375 0zm31.996826 0l10.390625 -15.09375l-9.75 -14.234375l5.640625 0l5.8125 9.0625q0.375 0.59375 0.71875 1.28125q0.359375 0.6875 0.5625 1.125q0.171875 -0.4375 0.515625 -1.125q0.34375 -0.6875 0.71875 -1.28125l5.859375 -9.0625l5.609375 0l-9.765625 14.296875l10.34375 15.03125l-5.65625 0l-6.28125 -9.59375q-0.375 -0.59375 -0.734375 -1.359375q-0.34375 -0.78125 -0.609375 -1.265625q-0.203125 0.484375 -0.609375 1.265625q-0.40625 0.765625 -0.828125 1.359375l-6.34375 9.59375l-5.59375 0zm31.996826 0l10.390625 -15.09375l-9.75 -14.234375l5.640625 0l5.8125 9.0625q0.375 0.59375 0.71875 1.28125q0.359375 0.6875 0.5625 1.125q0.171875 -0.4375 0.515625 -1.125q0.34375 -0.6875 0.71875 -1.28125l5.859375 -9.0625l5.609375 0l-9.765625 14.296875l10.34375 15.03125l-5.65625 0l-6.28125 -9.59375q-0.375 -0.59375 -0.734375 -1.359375q-0.34375 -0.78125 -0.609375 -1.265625q-0.203125 0.484375 -0.609375 1.265625q-0.40625 0.765625 -0.828125 1.359375l-6.34375 9.59375l-5.59375 0zm31.996826 0l10.390625 -15.09375l-9.75 -14.234375l5.640625 0l5.8125 9.0625q0.375 0.59375 0.71875 1.28125q0.359375 0.6875 0.5625 1.125q0.171875 -0.4375 0.515625 -1.125q0.34375 -0.6875 0.71875 -1.28125l5.859375 -9.0625l5.609375 0l-9.765625 14.296875l10.34375 15.03125l-5.65625 0l-6.28125 -9.59375q-0.375 -0.59375 -0.734375 -1.359375q-0.34375 -0.78125 -0.609375 -1.265625q-0.203125 0.484375 -0.609375 1.265625q-0.40625 0.765625 -0.828125 1.359375l-6.34375 9.59375l-5.59375 0zm31.996826 0l10.390625 -15.09375l-9.75 -14.234375l5.640625 0l5.8125 9.0625q0.375 0.59375 0.71875 1.28125q0.359375 0.6875 0.5625 1.125q0.171875 -0.4375 0.515625 -1.125q0.34375 -0.6875 0.71875 -1.28125l5.859375 -9.0625l5.609375 0l-9.765625 14.296875l10.34375 15.03125l-5.65625 0l-6.28125 -9.59375q-0.375 -0.59375 -0.734375 -1.359375q-0.34375 -0.78125 -0.609375 -1.265625q-0.203125 0.484375 -0.609375 1.265625q-0.40625 0.765625 -0.828125 1.359375l-6.34375 9.59375l-5.59375 0zm31.996826 0l10.390625 -15.09375l-9.75 -14.234375l5.640625 0l5.8125 9.0625q0.375 0.59375 0.71875 1.28125q0.359375 0.6875 0.5625 1.125q0.171875 -0.4375 0.515625 -1.125q0.34375 -0.6875 0.71875 -1.28125l5.859375 -9.0625l5.609375 0l-9.765625 14.296875l10.34375 15.03125l-5.65625 0l-6.28125 -9.59375q-0.375 -0.59375 -0.734375 -1.359375q-0.34375 -0.78125 -0.609375 -1.265625q-0.203125 0.484375 -0.609375 1.265625q-0.40625 0.765625 -0.828125 1.359375l-6.34375 9.59375l-5.59375 0zm31.996826 0l10.390625 -15.09375l-9.75 -14.234375l5.640625 0l5.8125 9.0625q0.375 0.59375 0.71875 1.28125q0.359375 0.6875 0.5625 1.125q0.171875 -0.4375 0.515625 -1.125q0.34375 -0.6875 0.71875 -1.28125l5.859375 -9.0625l5.609375 0l-9.765625 14.296875l10.34375 15.03125l-5.65625 0l-6.28125 -9.59375q-0.375 -0.59375 -0.734375 -1.359375q-0.34375 -0.78125 -0.609375 -1.265625q-0.203125 0.484375 -0.609375 1.265625q-0.40625 0.765625 -0.828125 1.359375l-6.34375 9.59375l-5.59375 0zm31.996826 0l10.390625 -15.09375l-9.75 -14.234375l5.640625 0l5.8125 9.0625q0.375 0.59375 0.71875 1.28125q0.359375 0.6875 0.5625 1.125q0.171875 -0.4375 0.515625 -1.125q0.34375 -0.6875 0.71875 -1.28125l5.859375 -9.0625l5.609375 0l-9.765625 14.296875l10.34375 15.03125l-5.65625 0l-6.28125 -9.59375q-0.375 -0.59375 -0.734375 -1.359375q-0.34375 -0.78125 -0.609375 -1.265625q-0.203125 0.484375 -0.609375 1.265625q-0.40625 0.765625 -0.828125 1.359375l-6.34375 9.59375l-5.59375 0zm31.996826 0l10.390625 -15.09375l-9.75 -14.234375l5.640625 0l5.8125 9.0625q0.375 0.59375 0.71875 1.28125q0.359375 0.6875 0.5625 1.125q0.171875 -0.4375 0.515625 -1.125q0.34375 -0.6875 0.71875 -1.28125l5.859375 -9.0625l5.609375 0l-9.765625 14.296875l10.34375 15.03125l-5.65625 0l-6.28125 -9.59375q-0.375 -0.59375 -0.734375 -1.359375q-0.34375 -0.78125 -0.609375 -1.265625q-0.203125 0.484375 -0.609375 1.265625q-0.40625 0.765625 -0.828125 1.359375l-6.34375 9.59375l-5.59375 0zm31.996826 0l10.390625 -15.09375l-9.75 -14.234375l5.640625 0l5.8125 9.0625q0.375 0.59375 0.71875 1.28125q0.359375 0.6875 0.5625 1.125q0.171875 -0.4375 0.515625 -1.125q0.34375 -0.6875 0.71875 -1.28125l5.859375 -9.0625l5.609375 0l-9.765625 14.296875l10.34375 15.03125l-5.65625 0l-6.28125 -9.59375q-0.375 -0.59375 -0.734375 -1.359375q-0.34375 -0.78125 -0.609375 -1.265625q-0.203125 0.484375 -0.609375 1.265625q-0.40625 0.765625 -0.828125 1.359375l-6.34375 9.59375l-5.59375 0zm31.996826 0l10.390625 -15.09375l-9.75 -14.234375l5.640625 0l5.8125 9.0625q0.375 0.59375 0.71875 1.28125q0.359375 0.6875 0.5625 1.125q0.171875 -0.4375 0.515625 -1.125q0.34375 -0.6875 0.71875 -1.28125l5.859375 -9.0625l5.609375 0l-9.765625 14.296875l10.34375 15.03125l-5.65625 0l-6.28125 -9.59375q-0.375 -0.59375 -0.734375 -1.359375q-0.34375 -0.78125 -0.609375 -1.265625q-0.203125 0.484375 -0.609375 1.265625q-0.40625 0.765625 -0.828125 1.359375l-6.34375 9.59375l-5.59375 0zm31.996826 0l10.390625 -15.09375l-9.75 -14.234375l5.640625 0l5.8125 9.0625q0.375 0.59375 0.71875 1.28125q0.359375 0.6875 0.5625 1.125q0.171875 -0.4375 0.515625 -1.125q0.34375 -0.6875 0.71875 -1.28125l5.859375 -9.0625l5.609375 0l-9.765625 14.296875l10.34375 15.03125l-5.65625 0l-6.28125 -9.59375q-0.375 -0.59375 -0.734375 -1.359375q-0.34375 -0.78125 -0.609375 -1.265625q-0.203125 0.484375 -0.609375 1.265625q-0.40625 0.765625 -0.828125 1.359375l-6.34375 9.59375l-5.59375 0zm31.996826 0l10.390625 -15.09375l-9.75 -14.234375l5.640625 0l5.8125 9.0625q0.375 0.59375 0.71875 1.28125q0.359375 0.6875 0.5625 1.125q0.171875 -0.4375 0.515625 -1.125q0.34375 -0.6875 0.71875 -1.28125l5.859375 -9.0625l5.609375 0l-9.765625 14.296875l10.34375 15.03125l-5.65625 0l-6.28125 -9.59375q-0.375 -0.59375 -0.734375 -1.359375q-0.34375 -0.78125 -0.609375 -1.265625q-0.203125 0.484375 -0.609375 1.265625q-0.40625 0.765625 -0.828125 1.359375l-6.34375 9.59375l-5.59375 0zm31.996826 0l10.390625 -15.09375l-9.75 -14.234375l5.640625 0l5.8125 9.0625q0.375 0.59375 0.71875 1.28125q0.359375 0.6875 0.5625 1.125q0.171875 -0.4375 0.515625 -1.125q0.34375 -0.6875 0.71875 -1.28125l5.859375 -9.0625l5.609375 0l-9.765625 14.296875l10.34375 15.03125l-5.65625 0l-6.28125 -9.59375q-0.375 -0.59375 -0.734375 -1.359375q-0.34375 -0.78125 -0.609375 -1.265625q-0.203125 0.484375 -0.609375 1.265625q-0.40625 0.765625 -0.828125 1.359375l-6.34375 9.59375l-5.59375 0zm31.996826 0l10.390625 -15.09375l-9.75 -14.234375l5.640625 0l5.8125 9.0625q0.375 0.59375 0.71875 1.28125q0.359375 0.6875 0.5625 1.125q0.171875 -0.4375 0.515625 -1.125q0.34375 -0.6875 0.71875 -1.28125l5.859375 -9.0625l5.609375 0l-9.765625 14.296875l10.34375 15.03125l-5.65625 0l-6.28125 -9.59375q-0.375 -0.59375 -0.734375 -1.359375q-0.34375 -0.78125 -0.609375 -1.265625q-0.203125 0.484375 -0.609375 1.265625q-0.40625 0.765625 -0.828125 1.359375l-6.34375 9.59375l-5.59375 0zm31.996826 0l10.390625 -15.09375l-9.75 -14.234375l5.640625 0l5.8125 9.0625q0.375 0.59375 0.71875 1.28125q0.359375 0.6875 0.5625 1.125q0.171875 -0.4375 0.515625 -1.125q0.34375 -0.6875 0.71875 -1.28125l5.859375 -9.0625l5.609375 0l-9.765625 14.296875l10.34375 15.03125l-5.65625 0l-6.28125 -9.59375q-0.375 -0.59375 -0.734375 -1.359375q-0.34375 -0.78125 -0.609375 -1.265625q-0.203125 0.484375 -0.609375 1.265625q-0.40625 0.765625 -0.828125 1.359375l-6.34375 9.59375l-5.59375 0z" fill-rule="nonzero"/><path fill="#e9d3b6" d="m781.40894 120.369774q-4.640625 0 -7.3125 -2.375q-2.65625 -2.375 -2.65625 -6.421875q0 -4.109375 2.65625 -6.453125q2.671875 -2.34375 7.203125 -2.34375l9.0625 0l0 -2.9375q0 -2.71875 -1.625 -4.1875q-1.625 -1.46875 -4.609375 -1.46875q-2.609375 0 -4.375 1.09375q-1.75 1.09375 -2.015625 2.96875l-4.8125 0q0.484375 -3.796875 3.578125 -6.03125q3.09375 -2.234375 7.734375 -2.234375q5.0625 0 8.0 2.609375q2.9375 2.609375 2.9375 7.09375l0 20.15625l-4.703125 0l0 -5.59375l-0.796875 0l0.796875 -0.8125q0 3.203125 -2.484375 5.078125q-2.46875 1.859375 -6.578125 1.859375zm1.171875 -3.78125q3.421875 0 5.59375 -1.703125q2.1875 -1.71875 2.1875 -4.375l0 -4.15625l-8.953125 0q-2.40625 0 -3.796875 1.328125q-1.375 1.328125 -1.375 3.625q0 2.453125 1.671875 3.875q1.6875 1.40625 4.671875 1.40625zm35.090576 3.78125q-3.625 0 -5.8125 -1.9375q-2.1875 -1.953125 -2.1875 -5.3125l0.96875 1.125l-0.96875 0l0 5.59375l-4.796875 0l0 -38.921875l4.796875 0l0 8.53125l-0.109375 6.65625l1.078125 0l-0.96875 1.125q0 -3.3125 2.203125 -5.28125q2.21875 -1.96875 5.796875 -1.96875q4.421875 0 7.09375 2.9375q2.671875 2.921875 2.671875 7.984375l0 8.59375q0 5.015625 -2.671875 7.953125q-2.671875 2.921875 -7.09375 2.921875zm-1.59375 -4.15625q3.03125 0 4.796875 -1.8125q1.765625 -1.8125 1.765625 -5.234375l0 -8.0q0 -3.40625 -1.765625 -5.21875q-1.765625 -1.8125 -4.796875 -1.8125q-2.9375 0 -4.671875 1.875q-1.734375 1.859375 -1.734375 5.15625l0 8.0q0 3.3125 1.734375 5.1875q1.734375 1.859375 4.671875 1.859375zm32.1062 4.15625q-3.53125 0 -6.171875 -1.328125q-2.640625 -1.34375 -4.078125 -3.875q-1.4375 -2.53125 -1.4375 -6.0l0 -8.0q0 -3.515625 1.4375 -6.015625q1.4375 -2.515625 4.078125 -3.84375q2.640625 -1.328125 6.171875 -1.328125q5.0625 0 8.15625 2.71875q3.09375 2.71875 3.25 7.40625l-4.796875 0q-0.15625 -2.828125 -1.890625 -4.34375q-1.734375 -1.515625 -4.71875 -1.515625q-3.15625 0 -5.03125 1.78125q-1.859375 1.78125 -1.859375 5.09375l0 8.046875q0 3.3125 1.859375 5.125q1.875 1.8125 5.03125 1.8125q2.984375 0 4.71875 -1.546875q1.734375 -1.546875 1.890625 -4.3125l4.796875 0q-0.15625 4.6875 -3.25 7.40625q-3.09375 2.71875 -8.15625 2.71875zm30.074951 0q-4.375 0 -7.078125 -2.921875q-2.6875 -2.9375 -2.6875 -7.953125l0 -8.59375q0 -5.0625 2.65625 -7.984375q2.671875 -2.9375 7.109375 -2.9375q3.625 0 5.8125 1.96875q2.1875 1.96875 2.1875 5.28125l-0.96875 -1.125l1.0625 0l-0.09375 -6.65625l0 -8.53125l4.796875 0l0 38.921875l-4.796875 0l0 -5.59375l-0.96875 0l0.96875 -1.125q0 3.359375 -2.1875 5.3125q-2.1875 1.9375 -5.8125 1.9375zm1.59375 -4.15625q2.984375 0 4.6875 -1.859375q1.71875 -1.875 1.71875 -5.1875l0 -8.0q0 -3.296875 -1.71875 -5.15625q-1.703125 -1.875 -4.6875 -1.875q-3.03125 0 -4.796875 1.8125q-1.765625 1.8125 -1.765625 5.21875l0 8.0q0 3.421875 1.765625 5.234375q1.765625 1.8125 4.796875 1.8125z" fill-rule="nonzero"/><path fill="#000000" fill-opacity="0.0" d="m63.520428 190.22707l0 17.476913" fill-rule="evenodd"/><path stroke="#ffffff" stroke-width="2.0" stroke-linejoin="round" stroke-linecap="butt" d="m63.520428 190.22707l0 17.476913" fill-rule="evenodd"/><path fill="#000000" fill-opacity="0.0" d="m801.00586 190.22707l0 17.476913" fill-rule="evenodd"/><path stroke="#ffffff" stroke-width="2.0" stroke-linejoin="round" stroke-linecap="butt" d="m801.00586 190.22707l0 17.476913" fill-rule="evenodd"/><path fill="#000000" fill-opacity="0.0" d="m63.520428 207.70398l737.3134 0" fill-rule="evenodd"/><path stroke="#ffffff" stroke-width="2.0" stroke-linejoin="round" stroke-linecap="butt" d="m63.520428 207.70398l737.3134 0" fill-rule="evenodd"/><path fill="#000000" fill-opacity="0.0" d="m424.19278 207.7032l0 11.815918" fill-rule="evenodd"/><path stroke="#ffffff" stroke-width="2.0" stroke-linejoin="round" stroke-linecap="butt" d="m424.19278 207.7032l0 11.815918" fill-rule="evenodd"/><path fill="#000000" fill-opacity="0.0" d="m343.79562 214.33098l160.91339 0l0 42.425186l-160.91339 0z" fill-rule="evenodd"/><path fill="#ffffff" d="m368.69788 236.2716q-0.90625 0 -1.453125 -0.484375q-0.546875 -0.5 -0.546875 -1.328125l0.25 0.265625l-0.25 0l0 1.40625l-1.203125 0l0 -9.734375l1.203125 0l0 2.140625l-0.015625 1.65625l0.265625 0l-0.25 0.28125q0 -0.828125 0.546875 -1.3125q0.5625 -0.5 1.453125 -0.5q1.109375 0 1.765625 0.734375q0.671875 0.734375 0.671875 2.0l0 2.15625q0 1.25 -0.671875 1.984375q-0.65625 0.734375 -1.765625 0.734375zm-0.390625 -1.046875q0.75 0 1.1875 -0.453125q0.453125 -0.453125 0.453125 -1.3125l0 -2.0q0 -0.84375 -0.453125 -1.296875q-0.4375 -0.453125 -1.1875 -0.453125q-0.734375 0 -1.171875 0.46875q-0.4375 0.46875 -0.4375 1.28125l0 2.0q0 0.828125 0.4375 1.296875q0.4375 0.46875 1.171875 0.46875zm7.9499817 1.046875q-1.265625 0 -2.03125 -0.75q-0.75 -0.765625 -0.75 -2.0625l0 -4.65625l1.203125 0l0 4.65625q0 0.828125 0.421875 1.296875q0.421875 0.453125 1.15625 0.453125q0.75 0 1.171875 -0.453125q0.4375 -0.46875 0.4375 -1.296875l0 -4.65625l1.203125 0l0 4.65625q0 1.296875 -0.78125 2.0625q-0.765625 0.75 -2.03125 0.75zm6.949951 -0.140625l0 -5.5l-2.140625 0l0 -1.09375l2.140625 0l0 -1.265625q0 -0.875 0.546875 -1.375q0.546875 -0.5 1.5 -0.5l2.140625 0l0 1.09375l-2.140625 0q-0.40625 0 -0.640625 0.203125q-0.21875 0.1875 -0.21875 0.578125l0 1.265625l3.0 0l0 1.09375l-3.0 0l0 5.5l-1.1875 0zm7.9968567 0l0 -5.5l-2.140625 0l0 -1.09375l2.140625 0l0 -1.265625q0 -0.875 0.546875 -1.375q0.546875 -0.5 1.5 -0.5l2.140625 0l0 1.09375l-2.140625 0q-0.40625 0 -0.640625 0.203125q-0.21875 0.1875 -0.21875 0.578125l0 1.265625l3.0 0l0 1.09375l-3.0 0l0 5.5l-1.1875 0zm9.059326 0.140625q-0.875 0 -1.515625 -0.34375q-0.640625 -0.359375 -1.0 -0.984375q-0.34375 -0.640625 -0.34375 -1.484375l0 -2.0q0 -0.84375 0.34375 -1.46875q0.359375 -0.625 1.0 -0.96875q0.640625 -0.359375 1.515625 -0.359375q0.859375 0 1.5 0.359375q0.65625 0.34375 1.0 0.96875q0.359375 0.625 0.359375 1.46875l0 1.296875l-4.546875 0l0 0.703125q0 0.875 0.4375 1.34375q0.4375 0.453125 1.25 0.453125q0.6875 0 1.109375 -0.25q0.4375 -0.25 0.53125 -0.734375l1.203125 0q-0.125 0.90625 -0.90625 1.453125q-0.78125 0.546875 -1.9375 0.546875zm1.6875 -4.3125l0 -0.5q0 -0.859375 -0.4375 -1.328125q-0.421875 -0.46875 -1.25 -0.46875q-0.8125 0 -1.25 0.46875q-0.4375 0.46875 -0.4375 1.328125l0 0.390625l3.46875 0l-0.09375 0.109375zm3.7937317 4.171875l0 -7.328125l1.171875 0l0 1.390625l0.28125 0l-0.390625 0.875q0 -1.1875 0.515625 -1.796875q0.515625 -0.609375 1.515625 -0.609375q1.171875 0 1.859375 0.734375q0.6875 0.71875 0.6875 1.96875l0 0.4375l-1.203125 0l0 -0.34375q0 -0.859375 -0.421875 -1.3125q-0.421875 -0.46875 -1.1875 -0.46875q-0.765625 0 -1.203125 0.46875q-0.4375 0.46875 -0.4375 1.3125l0 4.671875l-1.1875 0zm18.509308 0.109375q-0.875 0 -1.515625 -0.328125q-0.640625 -0.34375 -1.0 -0.96875q-0.34375 -0.640625 -0.34375 -1.5l0 -1.953125q0 -0.875 0.34375 -1.5q0.359375 -0.625 1.0 -0.953125q0.640625 -0.34375 1.515625 -0.34375q0.875 0 1.515625 0.34375q0.640625 0.328125 0.984375 0.953125q0.359375 0.625 0.359375 1.484375l0 1.96875q0 0.859375 -0.359375 1.5q-0.34375 0.625 -0.984375 0.96875q-0.640625 0.328125 -1.515625 0.328125zm0 -1.0625q0.78125 0 1.21875 -0.4375q0.453125 -0.453125 0.453125 -1.296875l0 -1.953125q0 -0.84375 -0.453125 -1.28125q-0.4375 -0.453125 -1.21875 -0.453125q-0.78125 0 -1.234375 0.453125q-0.4375 0.4375 -0.4375 1.28125l0 1.953125q0 0.84375 0.4375 1.296875q0.453125 0.4375 1.234375 0.4375zm7.184326 0.953125l-2.453125 -7.328125l1.21875 0l1.625 4.921875q0.15625 0.453125 0.265625 0.859375q0.125 0.40625 0.1875 0.625q0.0625 -0.21875 0.171875 -0.625q0.125 -0.40625 0.265625 -0.859375l1.578125 -4.921875l1.21875 0l-2.453125 7.328125l-1.625 0zm8.809357 0.140625q-0.875 0 -1.515625 -0.34375q-0.640625 -0.359375 -1.0 -0.984375q-0.34375 -0.640625 -0.34375 -1.484375l0 -2.0q0 -0.84375 0.34375 -1.46875q0.359375 -0.625 1.0 -0.96875q0.640625 -0.359375 1.515625 -0.359375q0.859375 0 1.5 0.359375q0.65625 0.34375 1.0 0.96875q0.359375 0.625 0.359375 1.46875l0 1.296875l-4.546875 0l0 0.703125q0 0.875 0.4375 1.34375q0.4375 0.453125 1.25 0.453125q0.6875 0 1.109375 -0.25q0.4375 -0.25 0.53125 -0.734375l1.203125 0q-0.125 0.90625 -0.90625 1.453125q-0.78125 0.546875 -1.9375 0.546875zm1.6875 -4.3125l0 -0.5q0 -0.859375 -0.4375 -1.328125q-0.421875 -0.46875 -1.25 -0.46875q-0.8125 0 -1.25 0.46875q-0.4375 0.46875 -0.4375 1.328125l0 0.390625l3.46875 0l-0.09375 0.109375zm3.7937012 4.171875l0 -7.328125l1.171875 0l0 1.390625l0.28125 0l-0.390625 0.875q0 -1.1875 0.515625 -1.796875q0.515625 -0.609375 1.515625 -0.609375q1.171875 0 1.859375 0.734375q0.6875 0.71875 0.6875 1.96875l0 0.4375l-1.203125 0l0 -0.34375q0 -0.859375 -0.421875 -1.3125q-0.421875 -0.46875 -1.1875 -0.46875q-0.765625 0 -1.203125 0.46875q-0.4375 0.46875 -0.4375 1.3125l0 4.671875l-1.1875 0zm9.449982 0l0 -5.5l-2.140625 0l0 -1.09375l2.140625 0l0 -1.265625q0 -0.875 0.546875 -1.375q0.546875 -0.5 1.5 -0.5l2.140625 0l0 1.09375l-2.140625 0q-0.40625 0 -0.640625 0.203125q-0.21875 0.1875 -0.21875 0.578125l0 1.265625l3.0 0l0 1.09375l-3.0 0l0 5.5l-1.1875 0zm10.059326 0q-0.640625 0 -1.125 -0.25q-0.46875 -0.25 -0.75 -0.71875q-0.265625 -0.46875 -0.265625 -1.09375l0 -6.578125l-2.453125 0l0 -1.09375l3.65625 0l0 7.671875q0 0.453125 0.25 0.71875q0.265625 0.25 0.6875 0.25l2.328125 0l0 1.09375l-2.328125 0zm6.9968567 0.109375q-0.875 0 -1.515625 -0.328125q-0.640625 -0.34375 -1.0 -0.96875q-0.34375 -0.640625 -0.34375 -1.5l0 -1.953125q0 -0.875 0.34375 -1.5q0.359375 -0.625 1.0 -0.953125q0.640625 -0.34375 1.515625 -0.34375q0.875 0 1.515625 0.34375q0.640625 0.328125 0.984375 0.953125q0.359375 0.625 0.359375 1.484375l0 1.96875q0 0.859375 -0.359375 1.5q-0.34375 0.625 -0.984375 0.96875q-0.640625 0.328125 -1.515625 0.328125zm0 -1.0625q0.78125 0 1.21875 -0.4375q0.453125 -0.453125 0.453125 -1.296875l0 -1.953125q0 -0.84375 -0.453125 -1.28125q-0.4375 -0.453125 -1.21875 -0.453125q-0.78125 0 -1.234375 0.453125q-0.4375 0.4375 -0.4375 1.28125l0 1.953125q0 0.84375 0.4375 1.296875q0.453125 0.4375 1.234375 0.4375zm5.637451 0.953125l-1.171875 -7.328125l1.0625 0l0.734375 5.203125q0.046875 0.28125 0.09375 0.625q0.046875 0.34375 0.0625 0.5625q0.03125 -0.21875 0.09375 -0.5625q0.0625 -0.34375 0.09375 -0.625l0.8125 -5.203125l1.15625 0l0.8125 5.203125q0.03125 0.28125 0.09375 0.625q0.0625 0.34375 0.09375 0.5625q0.015625 -0.21875 0.078125 -0.5625q0.0625 -0.34375 0.09375 -0.625l0.765625 -5.203125l1.015625 0l-1.234375 7.328125l-1.3125 0l-0.78125 -5.0625q-0.0625 -0.375 -0.125 -0.75q-0.0625 -0.375 -0.09375 -0.578125q-0.03125 0.203125 -0.078125 0.578125q-0.046875 0.375 -0.125 0.75l-0.828125 5.0625l-1.3125 0z" fill-rule="nonzero"/><path fill="#000000" fill-opacity="0.0" d="m769.40533 69.86635l0 -13.337559" fill-rule="evenodd"/><path stroke="#ffffff" stroke-width="2.0" stroke-linejoin="round" stroke-linecap="butt" d="m769.40533 69.86635l0 -13.337559" fill-rule="evenodd"/><path fill="#000000" fill-opacity="0.0" d="m898.13434 69.86635l0 -13.337559" fill-rule="evenodd"/><path stroke="#ffffff" stroke-width="2.0" stroke-linejoin="round" stroke-linecap="butt" d="m898.13434 69.86635l0 -13.337559" fill-rule="evenodd"/><path fill="#000000" fill-opacity="0.0" d="m769.40533 56.52879l128.69897 0" fill-rule="evenodd"/><path stroke="#ffffff" stroke-width="2.0" stroke-linejoin="round" stroke-linecap="butt" d="m769.40533 56.52879l128.69897 0" fill-rule="evenodd"/><path fill="#000000" fill-opacity="0.0" d="m832.36115 56.52939l0 -9.017345" fill-rule="evenodd"/><path stroke="#ffffff" stroke-width="2.0" stroke-linejoin="round" stroke-linecap="butt" d="m832.36115 56.52939l0 -9.017345" fill-rule="evenodd"/><path fill="#000000" fill-opacity="0.0" d="m748.1467 9.624673l171.24408 0l0 42.425198l-171.24408 0z" fill-rule="evenodd"/><path fill="#ffffff" d="m811.09686 36.747795q-0.921875 0 -1.71875 -0.328125q-0.78125 -0.34375 -1.359375 -0.9375q-0.5625 -0.59375 -0.875 -1.40625q-0.3125 -0.8125 -0.3125 -1.78125q0 -0.9531231 0.3125 -1.7656231q0.3125 -0.8125 0.875 -1.40625q0.578125 -0.59375 1.359375 -0.921875q0.796875 -0.34375 1.703125 -0.34375q1.046875 0 1.875 0.421875q0.828125 0.40625 1.359375 1.15625l-0.84375 0.828125l-0.125 0.125l-0.09375 -0.09375q0 -0.15625 -0.078125 -0.28125q-0.0625 -0.125 -0.28125 -0.359375q-0.40625 -0.359375 -0.875 -0.515625q-0.46875 -0.15625 -1.078125 -0.15625q-0.546875 0 -1.03125 0.234375q-0.484375 0.21875 -0.875 0.640625q-0.375 0.421875 -0.609375 1.015625q-0.21875 0.59375 -0.21875 1.3281231q0 0.71875 0.21875 1.328125q0.234375 0.609375 0.625 1.0625q0.390625 0.4375 0.9375 0.703125q0.546875 0.25 1.1875 0.25q0.4375 0 0.828125 -0.125q0.390625 -0.125 0.734375 -0.359375q0.359375 -0.234375 0.65625 -0.5625l0.78125 0.90625q-0.625 0.671875 -1.40625 1.015625q-0.765625 0.328125 -1.671875 0.328125l0 0zm7.953125 0q-1.453125 0 -2.234375 -0.65625q-0.78125 -0.671875 -0.78125 -1.6875q0 -0.6875 0.328125 -1.234375q0.328125 -0.5625 0.921875 -0.9375q0.59375 -0.3906231 1.375 -0.5937481q0.78125 -0.203125 1.65625 -0.203125q0.3125 0 0.640625 0.015625q0.328125 0 0.6875 0.03125q0.375 0.03125 0.765625 0.078125l0.03125 1.0312481q-0.328125 -0.0625 -0.671875 -0.078125q-0.34375 -0.03125 -0.6875 -0.046875q-0.328125 -0.03125 -0.65625 -0.03125q-0.671875 0 -1.234375 0.125q-0.546875 0.109375 -0.96875 0.328125q-0.40625 0.21875 -0.640625 0.578125q-0.21875 0.359375 -0.21875 0.859375q0 0.390625 0.140625 0.671875q0.140625 0.265625 0.375 0.421875q0.25 0.15625 0.578125 0.234375q0.328125 0.0625 0.71875 0.0625q0.734375 0 1.296875 -0.21875q0.578125 -0.234375 0.96875 -0.6875q0.40625 -0.453125 0.609375 -1.09375q0.203125 -0.65625 0.203125 -1.5q0 -1.2656231 -0.296875 -1.9687481q-0.296875 -0.71875 -0.890625 -1.015625q-0.578125 -0.296875 -1.5 -0.296875q-0.609375 0 -1.203125 0.234375q-0.59375 0.234375 -1.078125 0.71875l-0.65625 -0.859375q0.59375 -0.59375 1.375 -0.890625q0.78125 -0.3125 1.65625 -0.3125q0.84375 0 1.53125 0.21875q0.6875 0.203125 1.1875 0.6875q0.5 0.46875 0.765625 1.265625q0.265625 0.796875 0.265625 2.015623l0 4.53125l-1.453125 0l0 -1.3125q-0.234375 0.46875 -0.59375 0.765625q-0.34375 0.296875 -0.734375 0.46875q-0.390625 0.15625 -0.796875 0.21875q-0.40625 0.0625 -0.78125 0.0625zm6.734375 -0.203125l0 -8.531248l1.3125 0l0 1.515625q0.328125 -0.515625 0.765625 -0.890625q0.453125 -0.390625 1.0 -0.609375q0.546875 -0.21875 1.125 -0.21875q0.703125 0 1.265625 0.359375q0.5625 0.359375 0.890625 1.140625q0.34375 0.78125 0.34375 2.0625l0 5.171873l-1.3125 0l0 -5.124998q0 -0.90625 -0.203125 -1.4375q-0.203125 -0.53125 -0.5625 -0.765625q-0.359375 -0.234375 -0.796875 -0.234375q-0.4375 0 -0.875 0.1875q-0.4375 0.1875 -0.8125 0.53125q-0.375 0.34375 -0.609375 0.84375q-0.21875 0.484375 -0.21875 1.09375l0 4.906248l-1.3125 0zm11.921875 0.203125q-1.453125 0 -2.234375 -0.65625q-0.78125 -0.671875 -0.78125 -1.6875q0 -0.6875 0.328125 -1.234375q0.328125 -0.5625 0.921875 -0.9375q0.59375 -0.3906231 1.375 -0.5937481q0.78125 -0.203125 1.65625 -0.203125q0.3125 0 0.640625 0.015625q0.328125 0 0.6875 0.03125q0.375 0.03125 0.765625 0.078125l0.03125 1.0312481q-0.328125 -0.0625 -0.671875 -0.078125q-0.34375 -0.03125 -0.6875 -0.046875q-0.328125 -0.03125 -0.65625 -0.03125q-0.671875 0 -1.234375 0.125q-0.546875 0.109375 -0.96875 0.328125q-0.40625 0.21875 -0.640625 0.578125q-0.21875 0.359375 -0.21875 0.859375q0 0.390625 0.140625 0.671875q0.140625 0.265625 0.375 0.421875q0.25 0.15625 0.578125 0.234375q0.328125 0.0625 0.71875 0.0625q0.734375 0 1.296875 -0.21875q0.578125 -0.234375 0.96875 -0.6875q0.40625 -0.453125 0.609375 -1.09375q0.203125 -0.65625 0.203125 -1.5q0 -1.2656231 -0.296875 -1.9687481q-0.296875 -0.71875 -0.890625 -1.015625q-0.578125 -0.296875 -1.5 -0.296875q-0.609375 0 -1.203125 0.234375q-0.59375 0.234375 -1.078125 0.71875l-0.65625 -0.859375q0.59375 -0.59375 1.375 -0.890625q0.78125 -0.3125 1.65625 -0.3125q0.84375 0 1.53125 0.21875q0.6875 0.203125 1.1875 0.6875q0.5 0.46875 0.765625 1.265625q0.265625 0.796875 0.265625 2.015623l0 4.53125l-1.453125 0l0 -1.3125q-0.234375 0.46875 -0.59375 0.765625q-0.34375 0.296875 -0.734375 0.46875q-0.390625 0.15625 -0.796875 0.21875q-0.40625 0.0625 -0.78125 0.0625zm7.609375 -8.734373l1.40625 0l-0.0625 2.484375l-0.171875 -0.28125q0.109375 -0.578125 0.390625 -1.015625q0.28125 -0.453125 0.671875 -0.75q0.390625 -0.3125 0.859375 -0.46875q0.46875 -0.171875 0.96875 -0.171875q0.671875 0 1.234375 0.234375q0.578125 0.234375 1.03125 0.703125l-0.59375 1.046875l-0.078125 0.171875l-0.125 -0.078125q-0.046875 -0.15625 -0.125 -0.28125q-0.0625 -0.140625 -0.3125 -0.3125q-0.296875 -0.1875 -0.546875 -0.25q-0.25 -0.078125 -0.578125 -0.078125q-0.453125 0 -0.921875 0.1875q-0.46875 0.171875 -0.859375 0.546875q-0.375 0.375 -0.609375 0.953125q-0.21875 0.578125 -0.21875 1.3749981l0 4.53125l-1.359375 0l0 -8.546873zm9.484375 11.781248q-0.609375 0 -1.109375 -0.1875q-0.484375 -0.1875 -0.859375 -0.546875l0.578125 -0.90625l0.109375 -0.171875l0.125 0.078125q0.03125 0.140625 0.125 0.234375q0.09375 0.109375 0.359375 0.28125q0.15625 0.0625 0.34375 0.078125q0.1875 0.03125 0.390625 0.03125q0.515625 0 0.859375 -0.25q0.34375 -0.234375 0.59375 -0.734375q0.265625 -0.5 0.515625 -1.265625l1.625 -5.015623q0.28125 -0.859375 0.53125 -1.703125q0.265625 -0.84375 0.359375 -1.703125l1.34375 0q-0.125 0.859375 -0.40625 1.75q-0.28125 0.875 -0.609375 1.75l-2.125 5.999998q-0.4375 1.25 -1.140625 1.765625q-0.703125 0.515625 -1.609375 0.515625l0 0zm-1.515625 -11.781248l1.390625 0l2.765625 7.109373l-0.59375 1.671875l-3.5625 -8.781248z" fill-rule="nonzero"/><path fill="#eeeeee" d="m657.93634 309.5843l13.653748 -14.557892l0 0c-28.54181 -18.266785 -14.389832 -41.458206 32.69458 -53.577866c47.08441 -12.119675 111.69202 -9.201233 149.25952 6.742325c37.567444 15.9435425 35.80017 39.694397 -4.0828247 54.8703c-39.883057 15.175934 -104.82941 16.810303 -150.04218 3.7758484z" fill-rule="evenodd"/><path stroke="#595959" stroke-width="1.0" stroke-linejoin="round" stroke-linecap="butt" d="m657.93634 309.5843l13.653748 -14.557892l0 0c-28.54181 -18.266785 -14.389832 -41.458206 32.69458 -53.577866c47.08441 -12.119675 111.69202 -9.201233 149.25952 6.742325c37.567444 15.9435425 35.80017 39.694397 -4.0828247 54.8703c-39.883057 15.175934 -104.82941 16.810303 -150.04218 3.7758484z" fill-rule="evenodd"/><path fill="#000000" fill-opacity="0.0" d="m664.88715 246.39896l207.71655 0l0 49.322815l-207.71655 0z" fill-rule="evenodd"/><path fill="#000000" d="m686.5639 269.47894l0 -10.703125l1.328125 0l0 4.578125l3.421875 0l0 -4.578125l1.328125 0l0 10.703125l-1.328125 0l0 -4.921875l-3.421875 0l0 4.921875l-1.328125 0zm11.825012 0.140625q-0.953125 0 -1.671875 -0.375q-0.703125 -0.375 -1.09375 -1.078125q-0.375 -0.703125 -0.375 -1.625l0 -2.1875q0 -0.9375 0.375 -1.625q0.390625 -0.703125 1.09375 -1.078125q0.71875 -0.375 1.671875 -0.375q0.953125 0 1.65625 0.375q0.71875 0.375 1.109375 1.078125q0.390625 0.6875 0.390625 1.625l0 1.421875l-5.015625 0l0 0.765625q0 0.953125 0.484375 1.46875q0.484375 0.5 1.375 0.5q0.765625 0 1.234375 -0.265625q0.46875 -0.28125 0.578125 -0.8125l1.3125 0q-0.125 1.0 -0.984375 1.59375q-0.859375 0.59375 -2.140625 0.59375zm1.875 -4.734375l0 -0.53125q0 -0.953125 -0.484375 -1.46875q-0.46875 -0.515625 -1.390625 -0.515625q-0.890625 0 -1.375 0.515625q-0.484375 0.515625 -0.484375 1.46875l0 0.421875l3.828125 0l-0.09375 0.109375zm5.137512 7.234375l1.1875 -3.140625l-2.984375 -7.5625l1.453125 0l1.875 4.984375q0.109375 0.25 0.1875 0.59375q0.09375 0.34375 0.15625 0.578125q0.0625 -0.234375 0.140625 -0.578125q0.09375 -0.34375 0.1875 -0.59375l1.75 -4.984375l1.421875 0l-3.96875 10.703125l-1.40625 0zm8.606323 -0.296875l1.171875 -4.5625l1.90625 0l-1.90625 4.5625l-1.171875 0zm17.775024 0.296875l1.1875 -3.140625l-2.984375 -7.5625l1.453125 0l1.875 4.984375q0.109375 0.25 0.1875 0.59375q0.09375 0.34375 0.15625 0.578125q0.0625 -0.234375 0.140625 -0.578125q0.09375 -0.34375 0.1875 -0.59375l1.75 -4.984375l1.421875 0l-3.96875 10.703125l-1.40625 0zm10.575012 -2.515625q-0.96875 0 -1.671875 -0.359375q-0.703125 -0.375 -1.09375 -1.078125q-0.375 -0.703125 -0.375 -1.640625l0 -2.140625q0 -0.96875 0.375 -1.65625q0.390625 -0.703125 1.09375 -1.0625q0.703125 -0.359375 1.671875 -0.359375q0.96875 0 1.671875 0.359375q0.703125 0.359375 1.09375 1.0625q0.390625 0.6875 0.390625 1.640625l0 2.15625q0 0.9375 -0.390625 1.640625q-0.390625 0.703125 -1.09375 1.078125q-0.703125 0.359375 -1.671875 0.359375zm0 -1.1875q0.875 0 1.359375 -0.46875q0.484375 -0.484375 0.484375 -1.421875l0 -2.140625q0 -0.9375 -0.484375 -1.421875q-0.484375 -0.484375 -1.359375 -0.484375q-0.84375 0 -1.34375 0.484375q-0.484375 0.484375 -0.484375 1.421875l0 2.140625q0 0.9375 0.484375 1.421875q0.5 0.46875 1.34375 0.46875zm8.778198 1.203125q-1.390625 0 -2.234375 -0.828125q-0.828125 -0.828125 -0.828125 -2.25l0 -5.125l1.328125 0l0 5.125q0 0.921875 0.46875 1.421875q0.46875 0.5 1.265625 0.5q0.828125 0 1.296875 -0.5q0.484375 -0.5 0.484375 -1.421875l0 -5.125l1.3125 0l0 5.125q0 1.421875 -0.84375 2.25q-0.84375 0.828125 -2.25 0.828125zm6.762512 -6.953125l1.171875 -4.5625l1.90625 0l-1.90625 4.5625l-1.171875 0zm8.075012 6.8125l0 -8.0625l1.296875 0l0 1.546875l0.296875 0l-0.421875 0.953125q0 -1.3125 0.5625 -1.96875q0.5625 -0.671875 1.6875 -0.671875q1.265625 0 2.015625 0.796875q0.765625 0.796875 0.765625 2.15625l0 0.484375l-1.328125 0l0 -0.359375q0 -0.953125 -0.46875 -1.453125q-0.453125 -0.515625 -1.296875 -0.515625q-0.828125 0 -1.3125 0.515625q-0.46875 0.515625 -0.46875 1.453125l0 5.125l-1.328125 0zm11.559387 0.140625q-0.953125 0 -1.671875 -0.375q-0.703125 -0.375 -1.09375 -1.078125q-0.375 -0.703125 -0.375 -1.625l0 -2.1875q0 -0.9375 0.375 -1.625q0.390625 -0.703125 1.09375 -1.078125q0.71875 -0.375 1.671875 -0.375q0.953125 0 1.65625 0.375q0.71875 0.375 1.109375 1.078125q0.390625 0.6875 0.390625 1.625l0 1.421875l-5.015625 0l0 0.765625q0 0.953125 0.484375 1.46875q0.484375 0.5 1.375 0.5q0.765625 0 1.234375 -0.265625q0.46875 -0.28125 0.578125 -0.8125l1.3125 0q-0.125 1.0 -0.984375 1.59375q-0.859375 0.59375 -2.140625 0.59375zm1.875 -4.734375l0 -0.53125q0 -0.953125 -0.484375 -1.46875q-0.46875 -0.515625 -1.390625 -0.515625q-0.890625 0 -1.375 0.515625q-0.484375 0.515625 -0.484375 1.46875l0 0.421875l3.828125 0l-0.09375 0.109375zm12.66571 4.59375l0 -8.0625l1.328125 0l0 1.546875l0.28125 0l-0.28125 0.296875q0 -0.953125 0.5625 -1.46875q0.578125 -0.515625 1.59375 -0.515625q1.203125 0 1.921875 0.75q0.71875 0.734375 0.71875 2.03125l0 5.421875l-1.3125 0l0 -5.28125q0 -0.859375 -0.46875 -1.3125q-0.453125 -0.46875 -1.25 -0.46875q-0.8125 0 -1.296875 0.5q-0.46875 0.5 -0.46875 1.4375l0 5.125l-1.328125 0zm11.840637 0.125q-0.96875 0 -1.671875 -0.359375q-0.703125 -0.375 -1.09375 -1.078125q-0.375 -0.703125 -0.375 -1.640625l0 -2.140625q0 -0.96875 0.375 -1.65625q0.390625 -0.703125 1.09375 -1.0625q0.703125 -0.359375 1.671875 -0.359375q0.96875 0 1.671875 0.359375q0.703125 0.359375 1.09375 1.0625q0.390625 0.6875 0.390625 1.640625l0 2.15625q0 0.9375 -0.390625 1.640625q-0.390625 0.703125 -1.09375 1.078125q-0.703125 0.359375 -1.671875 0.359375zm0 -1.1875q0.875 0 1.359375 -0.46875q0.484375 -0.484375 0.484375 -1.421875l0 -2.140625q0 -0.9375 -0.484375 -1.421875q-0.484375 -0.484375 -1.359375 -0.484375q-0.84375 0 -1.34375 0.484375q-0.484375 0.484375 -0.484375 1.421875l0 2.140625q0 0.9375 0.484375 1.421875q0.5 0.46875 1.34375 0.46875zm9.684387 1.0625q-1.046875 0 -1.625 -0.546875q-0.578125 -0.5625 -0.578125 -1.578125l0 -4.734375l-2.265625 0l0 -1.203125l2.265625 0l0 -2.265625l1.3125 0l0 2.265625l3.234375 0l0 1.203125l-3.234375 0l0 4.734375q0 0.921875 0.890625 0.921875l2.1875 0l0 1.203125l-2.1875 0zm17.587585 0q-1.046875 0 -1.625 -0.546875q-0.578125 -0.5625 -0.578125 -1.578125l0 -4.734375l-2.265625 0l0 -1.203125l2.265625 0l0 -2.265625l1.3125 0l0 2.265625l3.234375 0l0 1.203125l-3.234375 0l0 4.734375q0 0.921875 0.890625 0.921875l2.1875 0l0 1.203125l-2.1875 0zm4.856262 0l0 -10.703125l1.328125 0l0 2.640625l0 1.546875l0.28125 0l-0.28125 0.296875q0 -0.953125 0.5625 -1.46875q0.578125 -0.515625 1.59375 -0.515625q1.203125 0 1.921875 0.75q0.71875 0.734375 0.71875 2.03125l0 5.421875l-1.3125 0l0 -5.28125q0 -0.859375 -0.46875 -1.328125q-0.453125 -0.484375 -1.25 -0.484375q-0.8125 0 -1.296875 0.515625q-0.46875 0.515625 -0.46875 1.453125l0 5.125l-1.328125 0zm11.840637 0.140625q-0.953125 0 -1.671875 -0.375q-0.703125 -0.375 -1.09375 -1.078125q-0.375 -0.703125 -0.375 -1.625l0 -2.1875q0 -0.9375 0.375 -1.625q0.390625 -0.703125 1.09375 -1.078125q0.71875 -0.375 1.671875 -0.375q0.953125 0 1.65625 0.375q0.71875 0.375 1.109375 1.078125q0.390625 0.6875 0.390625 1.625l0 1.421875l-5.015625 0l0 0.765625q0 0.953125 0.484375 1.46875q0.484375 0.5 1.375 0.5q0.765625 0 1.234375 -0.265625q0.46875 -0.28125 0.578125 -0.8125l1.3125 0q-0.125 1.0 -0.984375 1.59375q-0.859375 0.59375 -2.140625 0.59375zm1.875 -4.734375l0 -0.53125q0 -0.953125 -0.484375 -1.46875q-0.46875 -0.515625 -1.390625 -0.515625q-0.890625 0 -1.375 0.515625q-0.484375 0.515625 -0.484375 1.46875l0 0.421875l3.828125 0l-0.09375 0.109375z" fill-rule="nonzero"/><path fill="#000000" d="m706.9327 287.20395q-0.8125 0 -1.421875 -0.25q-0.609375 -0.265625 -0.96875 -0.734375q-0.359375 -0.46875 -0.4375 -1.125l1.328125 0q0.078125 0.4375 0.46875 0.6875q0.390625 0.234375 1.03125 0.234375l0.625 0q0.78125 0 1.15625 -0.3125q0.375 -0.3125 0.375 -0.84375q0 -0.5 -0.34375 -0.796875q-0.34375 -0.3125 -1.015625 -0.40625l-1.078125 -0.1875q-1.1875 -0.203125 -1.765625 -0.734375q-0.578125 -0.53125 -0.578125 -1.5625q0 -1.078125 0.6875 -1.671875q0.6875 -0.59375 2.0625 -0.59375l0.5625 0q1.15625 0 1.859375 0.546875q0.703125 0.53125 0.84375 1.453125l-1.3125 0q-0.09375 -0.375 -0.453125 -0.59375q-0.34375 -0.234375 -0.9375 -0.234375l-0.5625 0q-0.75 0 -1.09375 0.28125q-0.34375 0.265625 -0.34375 0.828125q0 0.5 0.296875 0.734375q0.296875 0.234375 0.921875 0.328125l1.078125 0.1875q1.3125 0.203125 1.90625 0.765625q0.59375 0.546875 0.59375 1.609375q0 1.109375 -0.71875 1.75q-0.703125 0.640625 -2.140625 0.640625l-0.625 0zm8.340698 0.015625q-1.265625 0 -2.0 -0.640625q-0.734375 -0.65625 -0.734375 -1.765625q0 -1.140625 0.734375 -1.78125q0.734375 -0.640625 1.984375 -0.640625l2.484375 0l0 -0.8125q0 -0.75 -0.453125 -1.140625q-0.4375 -0.40625 -1.265625 -0.40625q-0.71875 0 -1.203125 0.296875q-0.484375 0.296875 -0.546875 0.8125l-1.328125 0q0.140625 -1.03125 0.984375 -1.640625q0.84375 -0.625 2.125 -0.625q1.390625 0 2.1875 0.71875q0.8125 0.71875 0.8125 1.9375l0 5.546875l-1.28125 0l0 -1.53125l-0.21875 0l0.21875 -0.234375q0 0.890625 -0.6875 1.40625q-0.671875 0.5 -1.8125 0.5zm0.328125 -1.03125q0.9375 0 1.53125 -0.46875q0.609375 -0.46875 0.609375 -1.203125l0 -1.140625l-2.46875 0q-0.65625 0 -1.046875 0.375q-0.375 0.359375 -0.375 0.984375q0 0.671875 0.453125 1.0625q0.46875 0.390625 1.296875 0.390625zm5.746887 0.890625l0 -8.0625l1.15625 0l0 0.96875l0.265625 0l-0.203125 0.359375q0 -0.6875 0.359375 -1.078125q0.359375 -0.390625 0.96875 -0.390625q0.671875 0 1.03125 0.5q0.375 0.5 0.375 1.40625l-0.390625 -0.796875l0.609375 0l-0.28125 0.359375q0 -0.6875 0.375 -1.078125q0.375 -0.390625 1.0 -0.390625q0.75 0 1.171875 0.578125q0.421875 0.5625 0.421875 1.5l0 6.125l-1.21875 0l0 -6.140625q0 -0.5 -0.21875 -0.78125q-0.203125 -0.28125 -0.609375 -0.28125q-0.40625 0 -0.640625 0.28125q-0.21875 0.265625 -0.21875 0.765625l0 6.15625l-1.046875 0l0 -6.140625q0 -0.515625 -0.234375 -0.78125q-0.21875 -0.28125 -0.640625 -0.28125q-0.40625 0 -0.609375 0.28125q-0.203125 0.265625 -0.203125 0.765625l0 6.15625l-1.21875 0zm12.215637 0.140625q-0.953125 0 -1.671875 -0.375q-0.703125 -0.375 -1.09375 -1.078125q-0.375 -0.703125 -0.375 -1.625l0 -2.1875q0 -0.9375 0.375 -1.625q0.390625 -0.703125 1.09375 -1.078125q0.71875 -0.375 1.671875 -0.375q0.953125 0 1.65625 0.375q0.71875 0.375 1.109375 1.078125q0.390625 0.6875 0.390625 1.625l0 1.421875l-5.015625 0l0 0.765625q0 0.953125 0.484375 1.46875q0.484375 0.5 1.375 0.5q0.765625 0 1.234375 -0.265625q0.46875 -0.28125 0.578125 -0.8125l1.3125 0q-0.125 1.0 -0.984375 1.59375q-0.859375 0.59375 -2.140625 0.59375zm1.875 -4.734375l0 -0.53125q0 -0.953125 -0.484375 -1.46875q-0.46875 -0.515625 -1.390625 -0.515625q-0.890625 0 -1.375 0.515625q-0.484375 0.515625 -0.484375 1.46875l0 0.421875l3.828125 0l-0.09375 0.109375zm6.450012 1.4375l-0.296875 -5.78125l0 -1.765625l1.546875 0l0 1.765625l-0.3125 5.78125l-0.9375 0zm0.25 3.234375q-0.375 0 -0.625 -0.25q-0.25 -0.25 -0.25 -0.640625q0 -0.375 0.25 -0.625q0.25 -0.25 0.625 -0.25l0.4375 0q0.4375 0 0.65625 0.25q0.234375 0.234375 0.234375 0.609375q0 0.390625 -0.25 0.65625q-0.25 0.25 -0.640625 0.25l-0.4375 0zm17.806335 0.0625q-0.953125 0 -1.671875 -0.375q-0.703125 -0.375 -1.09375 -1.078125q-0.375 -0.703125 -0.375 -1.625l0 -2.1875q0 -0.9375 0.375 -1.625q0.390625 -0.703125 1.09375 -1.078125q0.71875 -0.375 1.671875 -0.375q0.953125 0 1.65625 0.375q0.71875 0.375 1.109375 1.078125q0.390625 0.6875 0.390625 1.625l0 1.421875l-5.015625 0l0 0.765625q0 0.953125 0.484375 1.46875q0.484375 0.5 1.375 0.5q0.765625 0 1.234375 -0.265625q0.46875 -0.28125 0.578125 -0.8125l1.3125 0q-0.125 1.0 -0.984375 1.59375q-0.859375 0.59375 -2.140625 0.59375zm1.875 -4.734375l0 -0.53125q0 -0.953125 -0.484375 -1.46875q-0.46875 -0.515625 -1.390625 -0.515625q-0.890625 0 -1.375 0.515625q-0.484375 0.515625 -0.484375 1.46875l0 0.421875l3.828125 0l-0.09375 0.109375zm3.2625122 4.59375l2.859375 -4.140625l-2.6875 -3.921875l1.5625 0l1.59375 2.5q0.09375 0.15625 0.1875 0.34375q0.109375 0.1875 0.15625 0.3125q0.046875 -0.125 0.140625 -0.3125q0.09375 -0.1875 0.203125 -0.34375l1.609375 -2.5l1.546875 0l-2.6875 3.921875l2.84375 4.140625l-1.5625 0l-1.71875 -2.640625q-0.109375 -0.15625 -0.203125 -0.359375q-0.09375 -0.21875 -0.171875 -0.359375q-0.046875 0.140625 -0.15625 0.359375q-0.109375 0.203125 -0.234375 0.359375l-1.75 2.640625l-1.53125 0zm9.309387 0l0 -1.203125l2.859375 0l0 -5.65625l-2.5 0l0 -1.203125l3.8125 0l0 6.859375l2.71875 0l0 1.203125l-6.890625 0zm3.359375 -9.515625q-0.484375 0 -0.765625 -0.25q-0.265625 -0.25 -0.265625 -0.671875q0 -0.4375 0.265625 -0.6875q0.28125 -0.265625 0.765625 -0.265625q0.484375 0 0.765625 0.265625q0.28125 0.25 0.28125 0.6875q0 0.421875 -0.28125 0.671875q-0.28125 0.25 -0.765625 0.25zm9.465698 9.515625q-1.046875 0 -1.625 -0.546875q-0.578125 -0.5625 -0.578125 -1.578125l0 -4.734375l-2.265625 0l0 -1.203125l2.265625 0l0 -2.265625l1.3125 0l0 2.265625l3.234375 0l0 1.203125l-3.234375 0l0 4.734375q0 0.921875 0.890625 0.921875l2.1875 0l0 1.203125l-2.1875 0zm10.621887 1.765625q-2.078125 -0.515625 -3.234375 -2.015625q-1.15625 -1.515625 -1.15625 -3.703125l0 -2.640625q0 -1.4375 0.53125 -2.59375q0.53125 -1.171875 1.515625 -1.96875q1.0 -0.8125 2.34375 -1.15625l0 1.25q-0.9375 0.21875 -1.625 0.84375q-0.6875 0.625 -1.078125 1.546875q-0.375 0.921875 -0.375 2.078125l0 2.640625q0 1.125 0.375 2.046875q0.375 0.921875 1.0625 1.53125q0.703125 0.609375 1.640625 0.828125l0 1.3125zm3.7312622 -6.015625l0 -1.171875l4.6875 0l0 1.171875l-4.6875 0zm8.059387 4.25l0 -1.203125l2.90625 0l0 -8.390625l-2.90625 2.15625l0 -1.453125l2.421875 -1.8125l1.8125 0l0 9.5l2.375 0l0 1.203125l-6.609375 0zm9.168823 1.765625l0 -1.3125q0.953125 -0.21875 1.640625 -0.828125q0.6875 -0.609375 1.0625 -1.53125q0.375 -0.921875 0.375 -2.046875l0 -2.640625q0 -1.15625 -0.390625 -2.078125q-0.375 -0.921875 -1.0625 -1.546875q-0.6875 -0.625 -1.625 -0.84375l0 -1.25q1.359375 0.34375 2.34375 1.15625q0.984375 0.796875 1.515625 1.96875q0.53125 1.15625 0.53125 2.59375l0 2.640625q0 2.1875 -1.15625 3.703125q-1.15625 1.5 -3.234375 2.015625zm11.028137 -4.921875l-0.296875 -5.78125l0 -1.765625l1.546875 0l0 1.765625l-0.3125 5.78125l-0.9375 0zm0.25 3.234375q-0.375 0 -0.625 -0.25q-0.25 -0.25 -0.25 -0.640625q0 -0.375 0.25 -0.625q0.25 -0.25 0.625 -0.25l0.4375 0q0.4375 0 0.65625 0.25q0.234375 0.234375 0.234375 0.609375q0 0.390625 -0.25 0.65625q-0.25 0.25 -0.640625 0.25l-0.4375 0z" fill-rule="nonzero"/><path fill="#434343" d="m462.5123 296.31976l175.49606 -21.952759l7.4645386 59.685028l-175.49603 21.952759z" fill-rule="evenodd"/><path stroke="#212326" stroke-width="1.0" stroke-linejoin="round" stroke-linecap="butt" d="m462.5123 296.31976l175.49606 -21.952759l7.4645386 59.685028l-175.49603 21.952759z" fill-rule="evenodd"/><path fill="#ffffff" d="m490.3676 333.1017l-1.9118958 -15.28714l2.2015686 -0.27542114l0.23077393 1.8450012l0.49612427 -0.062042236l-0.30422974 0.7151489q-0.1609497 -1.2868347 0.42816162 -2.1163635q0.5871887 -0.84506226 1.75 -0.99050903q1.2868347 -0.16098022 2.0873108 0.6994629q0.8159485 0.85849 1.031189 2.5794373l-0.9303589 -1.3952942l1.1628418 -0.1454773l-0.44378662 0.7326355q-0.16091919 -1.2868652 0.44369507 -2.1183167q0.61816406 -0.848938 1.7964783 -0.9963379q1.4418945 -0.18035889 2.3683472 0.8060303q0.9264221 0.98638916 1.1494141 2.7693787l1.4523621 11.61264l-2.3101196 0.28897095l-1.4562378 -11.643646q-0.11828613 -0.94577026 -0.5873108 -1.4224854q-0.46902466 -0.4767151 -1.2442322 -0.37976074q-0.74420166 0.09310913 -1.1143494 0.6590576q-0.3701172 0.56591797 -0.25183105 1.5116882l1.4601135 11.674683l-2.000061 0.2501831l-1.4562073 -11.643677q-0.122161865 -0.9767761 -0.6202698 -1.4341125q-0.48260498 -0.45925903 -1.2733154 -0.36035156q-0.7752075 0.09698486 -1.0988159 0.6571045q-0.32363892 0.5601196 -0.20535278 1.5058594l1.4601135 11.674683l-2.3101196 0.28897095zm23.216797 -2.6207275q-1.8139954 0.2268982 -3.2520447 -0.31756592q-1.4400024 -0.55996704 -2.3490295 -1.784729q-0.8954468 -1.242218 -1.1126099 -2.9786987l-0.52160645 -4.170624q-0.22299194 -1.7829895 0.34283447 -3.1764832q0.5812988 -1.3954468 1.8390198 -2.2928772q1.2577515 -0.8974304 3.0717163 -1.1243286q1.7984924 -0.22497559 3.2384949 0.33499146q1.4400024 0.55996704 2.331604 1.7711792q0.90704346 1.209259 1.1300659 2.9922485l0.3373413 2.6977234l-9.504028 1.1888428l0.1842041 1.4729004q0.22494507 1.7984924 1.2599182 2.6453247q1.0349426 0.8468628 2.740387 0.6335144q1.4418945 -0.18035889 2.2616577 -0.80255127q0.81781006 -0.6376953 0.89141846 -1.6861877l2.4961548 -0.31222534q-0.0076293945 1.9535522 -1.4940186 3.2890015q-1.4728394 1.3179932 -3.8914795 1.6205444zm2.3967285 -9.417206l-0.12799072 -1.0232544q-0.22686768 -1.8139954 -1.2463379 -2.6627808q-1.0213623 -0.86428833 -2.74234 -0.64901733q-1.7054443 0.21334839 -2.4980469 1.3045349q-0.79452515 1.0756836 -0.5676575 2.889679l0.10083008 0.8062134l7.2559814 -0.9076233l-0.17443848 0.24224854zm7.7267456 7.867401l-1.9118652 -15.28714l2.2015991 -0.27539062l0.23071289 1.8450012l0.4961548 -0.062072754l-0.30426025 0.71517944q-0.16088867 -1.2868652 0.42816162 -2.116394q0.58721924 -0.84503174 1.75 -0.99050903q1.2868652 -0.1609497 2.0873413 0.6994629q0.815979 0.85849 1.031189 2.5794373l-0.9303589 -1.3952942l1.1628418 -0.1454773l-0.44378662 0.7326355q-0.1609497 -1.2868652 0.44366455 -2.1183167q0.61816406 -0.848938 1.7965088 -0.9963379q1.4418945 -0.18035889 2.3683472 0.8060303q0.92645264 0.98638916 1.1494141 2.7693787l1.4523315 11.61264l-2.3101196 0.28897095l-1.4561768 -11.643646q-0.11828613 -0.94577026 -0.5873413 -1.4224854q-0.46905518 -0.4767151 -1.2442627 -0.37976074q-0.74420166 0.09310913 -1.1143188 0.6590576q-0.3701172 0.5659485 -0.25183105 1.5116882l1.460083 11.674683l-2.0 0.2501831l-1.4562378 -11.643677q-0.12219238 -0.9767456 -0.6203003 -1.434082q-0.48260498 -0.45928955 -1.2733154 -0.36038208q-0.7752075 0.09698486 -1.0988159 0.6571045q-0.3236084 0.5601196 -0.20532227 1.5058899l1.460083 11.674652l-2.3101196 0.28897095zm23.325378 -2.6343079q-1.8450317 0.23080444 -3.3121338 -0.294281q-1.4516602 -0.5270386 -2.3761597 -1.7498474q-0.9089966 -1.2247925 -1.1339722 -3.0232544l-0.52160645 -4.1706543q-0.22875977 -1.8294983 0.35253906 -3.224945q0.59484863 -1.4128723 1.8720093 -2.28125q1.2926025 -0.8703003 3.1375732 -1.1010742q2.6357422 -0.3297119 4.4265747 0.894989q1.7888794 1.209198 2.1727295 3.6491394l-2.4961548 0.31225586q-0.26171875 -1.4631958 -1.2753296 -2.1394958q-0.99816895 -0.67822266 -2.548584 -0.48428345q-1.6434326 0.2055664 -2.5038452 1.2580261q-0.84490967 1.0504761 -0.6296997 2.7714539l0.5255127 4.2016296q0.21520996 1.7209778 1.2947388 2.5464783q1.0950317 0.8235779 2.7385254 0.6180115q1.550415 -0.19393921 2.348816 -1.1126404q0.8139038 -0.9206543 0.7091675 -2.3877563l2.4961548 -0.31222534q0.2288208 2.4593506 -1.2052002 4.087433q-1.4359741 1.6125793 -4.0716553 1.9422913zm10.014954 -1.5362244l-1.9119263 -15.28714l2.2015991 -0.27539062l0.23077393 1.8450012l0.49609375 -0.062072754l-0.30419922 0.71517944q-0.1609497 -1.2868652 0.42816162 -2.116394q0.5871582 -0.84503174 1.75 -0.99050903q1.2868042 -0.1609497 2.0872803 0.6994629q0.815979 0.85849 1.031189 2.5794373l-0.93029785 -1.3952942l1.1627808 -0.14544678l-0.44378662 0.732605q-0.16088867 -1.2868347 0.4437256 -2.1183167q0.61816406 -0.848938 1.7964478 -0.9963074q1.4418945 -0.1803894 2.3683472 0.80599976q0.92645264 0.98638916 1.1494751 2.7693787l1.4523315 11.61264l-2.3101196 0.28897095l-1.4562378 -11.643646q-0.11828613 -0.94577026 -0.5873413 -1.4224854q-0.46899414 -0.4767151 -1.2442017 -0.37973022q-0.74420166 0.09307861 -1.1143799 0.6590271q-0.3701172 0.5659485 -0.25183105 1.5116882l1.460144 11.674683l-2.000061 0.2501831l-1.4562378 -11.643677q-0.12213135 -0.9767456 -0.62023926 -1.434082q-0.48260498 -0.45928955 -1.2733154 -0.36038208q-0.7752075 0.09698486 -1.0988159 0.6571045q-0.32366943 0.5601196 -0.2053833 1.5058899l1.460144 11.674652l-2.3101196 0.28897095zm18.025146 2.8314514l-2.538208 -20.295013l2.4961548 -0.31225586l0.36645508 2.9302979l0.4961548 -0.062042236l-0.42437744 0.63571167q-0.21911621 -1.7519836 0.802124 -2.9032593q1.0348511 -1.1687317 2.9263916 -1.405365q2.2946167 -0.28701782 3.864502 1.0597839q1.5698853 1.3468018 1.8995361 3.9825134l0.56036377 4.4807434q0.21716309 1.7364502 -0.25756836 3.1028137q-0.4611206 1.348938 -1.5056763 2.188202q-1.0290527 0.8373108 -2.5794678 1.03125q-1.8604736 0.23275757 -3.166809 -0.64312744q-1.2927246 -0.89334106 -1.5079346 -2.6143188l0.5698242 0.5270996l-0.5426636 0.06790161l0.48083496 3.467102l0.55651855 4.4497375l-2.4961548 0.31222534zm4.9976807 -7.632477q1.5814209 -0.19781494 2.3624268 -1.2560425q0.79644775 -1.0601807 0.5753784 -2.8276672l-0.52160645 -4.1706543q-0.22296143 -1.782959 -1.2559814 -2.6142883q-1.0175781 -0.8332825 -2.598999 -0.6354675q-1.5349121 0.1920166 -2.3274536 1.2832031q-0.79260254 1.0911865 -0.5773926 2.8121643l0.52160645 4.170624q0.215271 1.7209778 1.2521362 2.583313q1.0349731 0.8468323 2.5698853 0.6548157zm22.37799 2.5074158q-4.0602417 -0.48416138 -6.6185913 -3.0615234q-2.5447998 -2.594818 -3.062561 -6.7344666l-0.62438965 -4.99234q-0.34124756 -2.7287598 0.39117432 -5.0563965q0.73046875 -2.3431702 2.4164429 -4.0972595q1.684082 -1.7695923 4.1627197 -2.7252502l0.29473877 2.3566284q-1.7305908 0.6416321 -2.885559 1.9828796q-1.1550293 1.341217 -1.6646118 3.1843567q-0.4940796 1.8411865 -0.21868896 4.0427856l0.6243286 4.9923706q0.26763916 2.139557 1.1843872 3.8042603q0.932312 1.6627808 2.39563 2.660736q1.4613037 0.9824829 3.2966309 1.1780396l0.3083496 2.4651794zm6.390869 -0.7994385l-0.30828857 -2.465149q1.7615967 -0.64553833 2.9204712 -1.9557495q1.1569214 -1.3257446 1.635498 -3.164978q0.4940796 -1.8411865 0.22650146 -3.980774l-0.62438965 -4.9923706q-0.2753296 -2.2015991 -1.2231445 -3.8624268q-0.932312 -1.6627502 -2.382019 -2.6781616q-1.449707 -1.0154114 -3.2850342 -1.2109985l-0.29473877 -2.3566284q2.6687012 0.3117981 4.7211304 1.6139832q2.050537 1.2866821 3.3355713 3.377716q1.298645 2.0736084 1.6398926 4.8023376l0.62438965 4.9923706q0.51776123 4.139618 -1.3251343 7.2832947q-1.8292847 3.1262207 -5.6607056 4.597534z" fill-rule="nonzero"/></g></svg>