<svg width="1920" height="1050" viewBox="0 0 1920 1050" fill="none" xmlns="http://www.w3.org/2000/svg">
<rect width="1920" height="1050" fill="#171717"/>
<path d="M969.61 324.425L976.76 307.32H981.985L977.585 324.425H969.61ZM956.465 324.425L963.615 307.32H968.84L964.44 324.425H956.465ZM990.654 350V309.85H996.594V326.46H1008.36V309.85H1014.3V350H1008.36V331.85H996.594V350H990.654ZM1035.46 350.495C1031.68 350.495 1028.69 349.45 1026.49 347.36C1024.33 345.233 1023.25 342.373 1023.25 338.78V330.97C1023.25 327.377 1024.33 324.535 1026.49 322.445C1028.69 320.318 1031.68 319.255 1035.46 319.255C1039.23 319.255 1042.22 320.318 1044.42 322.445C1046.62 324.535 1047.72 327.377 1047.72 330.97V338.78C1047.72 342.373 1046.62 345.233 1044.42 347.36C1042.22 349.45 1039.23 350.495 1035.46 350.495ZM1035.46 345.27C1037.44 345.27 1038.98 344.72 1040.08 343.62C1041.21 342.483 1041.78 340.87 1041.78 338.78V330.97C1041.78 328.88 1041.21 327.285 1040.08 326.185C1038.98 325.048 1037.44 324.48 1035.46 324.48C1033.48 324.48 1031.94 325.048 1030.84 326.185C1029.74 327.285 1029.19 328.88 1029.19 330.97V338.78C1029.19 340.87 1029.74 342.483 1030.84 343.62C1031.94 344.72 1033.48 345.27 1035.46 345.27ZM1058.15 350L1053.48 319.75H1058.37L1061.12 339.715C1061.27 340.632 1061.38 341.658 1061.45 342.795C1061.56 343.932 1061.63 344.848 1061.67 345.545H1061.95C1062.02 344.812 1062.11 343.895 1062.22 342.795C1062.37 341.695 1062.51 340.668 1062.66 339.715L1065.8 319.75H1071.13L1074.21 339.715C1074.36 340.668 1074.49 341.695 1074.6 342.795C1074.74 343.895 1074.85 344.812 1074.93 345.545H1075.2C1075.27 344.848 1075.37 343.95 1075.48 342.85C1075.59 341.713 1075.71 340.668 1075.86 339.715L1078.72 319.75H1083.45L1078.56 350H1072.29L1069.32 330.255C1069.17 329.228 1069 328.147 1068.82 327.01C1068.67 325.873 1068.58 324.938 1068.55 324.205H1068.27C1068.2 324.938 1068.09 325.873 1067.94 327.01C1067.83 328.147 1067.7 329.228 1067.56 330.255L1064.48 350H1058.15ZM1120.92 350V319.75H1125.87V323.6H1126.2C1126.42 322.28 1126.97 321.217 1127.85 320.41C1128.76 319.603 1129.88 319.2 1131.2 319.2C1132.45 319.2 1133.51 319.603 1134.39 320.41C1135.31 321.18 1135.95 322.243 1136.32 323.6H1136.54C1136.79 322.28 1137.38 321.217 1138.3 320.41C1139.21 319.603 1140.37 319.2 1141.76 319.2C1143.56 319.2 1145.03 319.933 1146.16 321.4C1147.34 322.83 1147.92 324.682 1147.92 326.955V350H1142.64V327.23C1142.64 324.847 1141.65 323.655 1139.67 323.655C1137.69 323.655 1136.7 324.828 1136.7 327.175V350H1132.14V327.23C1132.14 324.847 1131.13 323.655 1129.11 323.655C1127.17 323.655 1126.2 324.828 1126.2 327.175V350H1120.92ZM1164.35 350.55C1161.19 350.55 1158.7 349.743 1156.87 348.13C1155.07 346.48 1154.17 344.243 1154.17 341.42C1154.17 338.56 1155.14 336.323 1157.09 334.71C1159.03 333.06 1161.71 332.235 1165.12 332.235H1173.42V329.43C1173.42 327.78 1172.89 326.515 1171.83 325.635C1170.8 324.718 1169.37 324.26 1167.54 324.26C1165.89 324.26 1164.49 324.627 1163.36 325.36C1162.26 326.057 1161.61 326.973 1161.43 328.11H1155.66C1155.8 326.35 1156.39 324.81 1157.42 323.49C1158.48 322.133 1159.89 321.088 1161.65 320.355C1163.41 319.585 1165.41 319.2 1167.65 319.2C1171.24 319.2 1174.08 320.117 1176.17 321.95C1178.3 323.747 1179.36 326.203 1179.36 329.32V350H1173.59V344.555H1173.48C1173.18 346.425 1172.21 347.892 1170.56 348.955C1168.95 350.018 1166.88 350.55 1164.35 350.55ZM1166.11 346.04C1168.23 346.04 1169.97 345.508 1171.33 344.445C1172.72 343.345 1173.42 341.952 1173.42 340.265V336.305H1165.28C1163.67 336.305 1162.4 336.727 1161.49 337.57C1160.57 338.413 1160.11 339.568 1160.11 341.035C1160.11 342.575 1160.64 343.803 1161.71 344.72C1162.77 345.6 1164.24 346.04 1166.11 346.04ZM1188.47 350V319.75H1194.35V325.525H1194.41C1194.7 323.545 1195.55 322.005 1196.94 320.905C1198.33 319.768 1200.17 319.2 1202.44 319.2C1205.45 319.2 1207.85 320.172 1209.64 322.115C1211.44 324.022 1212.34 326.607 1212.34 329.87V350H1206.4V330.53C1206.4 328.55 1205.87 327.028 1204.8 325.965C1203.74 324.902 1202.29 324.37 1200.46 324.37C1198.59 324.37 1197.1 324.938 1196 326.075C1194.94 327.212 1194.41 328.825 1194.41 330.915V350H1188.47ZM1226.29 359.9L1230.69 348.24L1219.08 319.75H1225.52L1232.17 336.8C1232.47 337.533 1232.74 338.413 1233 339.44C1233.29 340.467 1233.51 341.31 1233.66 341.97C1233.8 341.31 1234.01 340.467 1234.26 339.44C1234.56 338.413 1234.85 337.533 1235.14 336.8L1241.41 319.75H1247.57L1232.5 359.9H1226.29ZM1299.51 350.55C1295.73 350.55 1292.72 349.505 1290.49 347.415C1288.29 345.288 1287.19 342.428 1287.19 338.835V321.015C1287.19 317.385 1288.29 314.525 1290.49 312.435C1292.72 310.345 1295.73 309.3 1299.51 309.3C1303.25 309.3 1306.22 310.363 1308.42 312.49C1310.65 314.58 1311.77 317.422 1311.77 321.015H1305.83C1305.83 318.925 1305.26 317.33 1304.13 316.23C1303.03 315.13 1301.49 314.58 1299.51 314.58C1297.49 314.58 1295.91 315.13 1294.78 316.23C1293.68 317.33 1293.13 318.907 1293.13 320.96V338.835C1293.13 340.925 1293.68 342.52 1294.78 343.62C1295.91 344.72 1297.49 345.27 1299.51 345.27C1301.49 345.27 1303.03 344.72 1304.13 343.62C1305.26 342.52 1305.83 340.925 1305.83 338.835H1311.77C1311.77 342.428 1310.65 345.288 1308.42 347.415C1306.22 349.505 1303.25 350.55 1299.51 350.55ZM1329.29 350V315.24H1318.57V309.85H1346.01V315.24H1335.23V350H1329.29ZM1353.58 350V309.85H1377.89V315.295H1359.41V327.285H1376.46V332.785H1359.52V350H1353.58ZM1397.18 350.495C1393.88 350.495 1391.18 349.743 1389.09 348.24C1387.04 346.7 1386.01 344.628 1386.01 342.025H1392.01C1392.01 343.162 1392.48 344.023 1393.44 344.61C1394.43 345.197 1395.71 345.49 1397.29 345.49H1399.6C1401.43 345.49 1402.79 345.142 1403.67 344.445C1404.58 343.748 1405.04 342.795 1405.04 341.585C1405.04 340.412 1404.62 339.495 1403.78 338.835C1402.93 338.138 1401.7 337.662 1400.09 337.405L1395.97 336.745C1389.84 335.828 1386.78 332.877 1386.78 327.89C1386.78 325.103 1387.7 322.977 1389.53 321.51C1391.4 320.007 1394.08 319.255 1397.56 319.255H1399.65C1402.91 319.255 1405.52 319.988 1407.46 321.455C1409.44 322.885 1410.43 324.81 1410.43 327.23H1404.44C1404.44 326.277 1404 325.543 1403.12 325.03C1402.27 324.517 1401.1 324.26 1399.6 324.26H1397.51C1394.21 324.26 1392.56 325.47 1392.56 327.89C1392.56 329.943 1394 331.19 1396.9 331.63L1401.08 332.29C1404.42 332.803 1406.87 333.793 1408.45 335.26C1410.03 336.69 1410.82 338.725 1410.82 341.365C1410.82 344.225 1409.86 346.462 1407.96 348.075C1406.09 349.688 1403.28 350.495 1399.54 350.495H1397.18ZM1452.3 350V309.85H1458.24V319.75L1458.18 325.525H1458.24C1458.53 323.545 1459.37 322.005 1460.77 320.905C1462.16 319.768 1463.99 319.2 1466.27 319.2C1469.27 319.2 1471.68 320.172 1473.47 322.115C1475.27 324.022 1476.17 326.607 1476.17 329.87V350H1470.23V330.53C1470.23 328.55 1469.7 327.01 1468.63 325.91C1467.57 324.81 1466.12 324.26 1464.29 324.26C1462.42 324.26 1460.93 324.847 1459.83 326.02C1458.77 327.193 1458.24 328.825 1458.24 330.915V350H1452.3ZM1494.13 350.55C1490.98 350.55 1488.48 349.743 1486.65 348.13C1484.85 346.48 1483.96 344.243 1483.96 341.42C1483.96 338.56 1484.93 336.323 1486.87 334.71C1488.81 333.06 1491.49 332.235 1494.9 332.235H1503.21V329.43C1503.21 327.78 1502.67 326.515 1501.61 325.635C1500.58 324.718 1499.15 324.26 1497.32 324.26C1495.67 324.26 1494.28 324.627 1493.14 325.36C1492.04 326.057 1491.4 326.973 1491.22 328.11H1485.44C1485.59 326.35 1486.17 324.81 1487.2 323.49C1488.26 322.133 1489.68 321.088 1491.44 320.355C1493.2 319.585 1495.19 319.2 1497.43 319.2C1501.02 319.2 1503.87 320.117 1505.96 321.95C1508.08 323.747 1509.15 326.203 1509.15 329.32V350H1503.37V344.555H1503.26C1502.97 346.425 1502 347.892 1500.35 348.955C1498.73 350.018 1496.66 350.55 1494.13 350.55ZM1495.89 346.04C1498.02 346.04 1499.76 345.508 1501.12 344.445C1502.51 343.345 1503.21 341.952 1503.21 340.265V336.305H1495.07C1493.45 336.305 1492.19 336.727 1491.27 337.57C1490.35 338.413 1489.9 339.568 1489.9 341.035C1489.9 342.575 1490.43 343.803 1491.49 344.72C1492.55 345.6 1494.02 346.04 1495.89 346.04ZM1526.34 350L1515.89 319.75H1522.05L1528.59 339.11C1529 340.247 1529.33 341.402 1529.58 342.575C1529.88 343.712 1530.1 344.61 1530.24 345.27C1530.43 344.61 1530.65 343.712 1530.9 342.575C1531.16 341.402 1531.47 340.247 1531.84 339.11L1538.22 319.75H1544.38L1533.98 350H1526.34ZM1563.11 350.55C1560.66 350.55 1558.51 350.073 1556.68 349.12C1554.84 348.13 1553.41 346.755 1552.39 344.995C1551.4 343.235 1550.9 341.182 1550.9 338.835V330.915C1550.9 328.568 1551.4 326.515 1552.39 324.755C1553.41 322.995 1554.84 321.638 1556.68 320.685C1558.51 319.695 1560.66 319.2 1563.11 319.2C1565.61 319.2 1567.77 319.695 1569.6 320.685C1571.44 321.638 1572.85 322.995 1573.84 324.755C1574.86 326.515 1575.38 328.568 1575.38 330.915V336.305H1556.62V338.835C1556.62 343.418 1558.8 345.71 1563.17 345.71C1566.72 345.71 1568.78 344.518 1569.33 342.135H1575.21C1574.77 344.702 1573.45 346.755 1571.25 348.295C1569.05 349.798 1566.34 350.55 1563.11 350.55ZM1556.62 330.915V332.29L1569.6 332.235V330.86C1569.6 328.623 1569.05 326.918 1567.95 325.745C1566.85 324.535 1565.24 323.93 1563.11 323.93C1560.99 323.93 1559.37 324.535 1558.27 325.745C1557.17 326.955 1556.62 328.678 1556.62 330.915ZM1622.03 359.9L1626.43 348.24L1614.83 319.75H1621.26L1627.92 336.8C1628.21 337.533 1628.48 338.413 1628.74 339.44C1629.03 340.467 1629.25 341.31 1629.4 341.97C1629.55 341.31 1629.75 340.467 1630.01 339.44C1630.3 338.413 1630.59 337.533 1630.89 336.8L1637.16 319.75H1643.32L1628.25 359.9H1622.03ZM1662.05 350.495C1658.27 350.495 1655.28 349.45 1653.08 347.36C1650.92 345.233 1649.84 342.373 1649.84 338.78V330.97C1649.84 327.377 1650.92 324.535 1653.08 322.445C1655.28 320.318 1658.27 319.255 1662.05 319.255C1665.83 319.255 1668.81 320.318 1671.01 322.445C1673.21 324.535 1674.31 327.377 1674.31 330.97V338.78C1674.31 342.373 1673.21 345.233 1671.01 347.36C1668.81 349.45 1665.83 350.495 1662.05 350.495ZM1662.05 345.27C1664.03 345.27 1665.57 344.72 1666.67 343.62C1667.81 342.483 1668.37 340.87 1668.37 338.78V330.97C1668.37 328.88 1667.81 327.285 1666.67 326.185C1665.57 325.048 1664.03 324.48 1662.05 324.48C1660.07 324.48 1658.53 325.048 1657.43 326.185C1656.33 327.285 1655.78 328.88 1655.78 330.97V338.78C1655.78 340.87 1656.33 342.483 1657.43 343.62C1658.53 344.72 1660.07 345.27 1662.05 345.27ZM1694.97 350.55C1691.31 350.55 1688.39 349.505 1686.23 347.415C1684.1 345.288 1683.04 342.41 1683.04 338.78V319.75H1688.98V338.725C1688.98 340.852 1689.51 342.502 1690.57 343.675C1691.64 344.812 1693.1 345.38 1694.97 345.38C1696.88 345.38 1698.36 344.812 1699.43 343.675C1700.53 342.502 1701.08 340.852 1701.08 338.725V319.75H1707.02V338.78C1707.02 342.41 1705.92 345.288 1703.72 347.415C1701.55 349.505 1698.64 350.55 1694.97 350.55ZM957.675 430.9V390.75H963.505V396.36H963.56C964 394.417 964.935 392.913 966.365 391.85C967.832 390.75 969.647 390.2 971.81 390.2C974.817 390.2 977.218 391.227 979.015 393.28C980.848 395.333 981.765 398.102 981.765 401.585V410.11C981.765 413.63 980.867 416.417 979.07 418.47C977.273 420.523 974.853 421.55 971.81 421.55C969.683 421.55 967.887 421.018 966.42 419.955C964.953 418.855 964 417.333 963.56 415.39H963.45L963.615 422.265V430.9H957.675ZM969.72 416.38C971.627 416.38 973.112 415.83 974.175 414.73C975.275 413.593 975.825 411.962 975.825 409.835V401.915C975.825 399.788 975.275 398.175 974.175 397.075C973.112 395.938 971.627 395.37 969.72 395.37C967.813 395.37 966.31 395.957 965.21 397.13C964.147 398.267 963.615 399.88 963.615 401.97V409.725C963.615 411.852 964.147 413.502 965.21 414.675C966.31 415.812 967.813 416.38 969.72 416.38ZM1007.15 421C1004.29 421 1002 420.175 1000.28 418.525C998.592 416.838 997.749 414.602 997.749 411.815V386.24H987.574V380.85H1003.69V411.705C1003.69 412.915 1004.02 413.868 1004.68 414.565C1005.34 415.262 1006.24 415.61 1007.37 415.61H1016.5V421H1007.15ZM1032.43 421.55C1029.28 421.55 1026.79 420.743 1024.95 419.13C1023.16 417.48 1022.26 415.243 1022.26 412.42C1022.26 409.56 1023.23 407.323 1025.17 405.71C1027.12 404.06 1029.79 403.235 1033.2 403.235H1041.51V400.43C1041.51 398.78 1040.98 397.515 1039.91 396.635C1038.89 395.718 1037.46 395.26 1035.62 395.26C1033.97 395.26 1032.58 395.627 1031.44 396.36C1030.34 397.057 1029.7 397.973 1029.52 399.11H1023.74C1023.89 397.35 1024.48 395.81 1025.5 394.49C1026.57 393.133 1027.98 392.088 1029.74 391.355C1031.5 390.585 1033.5 390.2 1035.73 390.2C1039.33 390.2 1042.17 391.117 1044.26 392.95C1046.38 394.747 1047.45 397.203 1047.45 400.32V421H1041.67V415.555H1041.56C1041.27 417.425 1040.3 418.892 1038.65 419.955C1037.03 421.018 1034.96 421.55 1032.43 421.55ZM1034.19 417.04C1036.32 417.04 1038.06 416.508 1039.42 415.445C1040.81 414.345 1041.51 412.952 1041.51 411.265V407.305H1033.37C1031.75 407.305 1030.49 407.727 1029.57 408.57C1028.66 409.413 1028.2 410.568 1028.2 412.035C1028.2 413.575 1028.73 414.803 1029.79 415.72C1030.86 416.6 1032.32 417.04 1034.19 417.04ZM1061.4 430.9L1065.8 419.24L1054.19 390.75H1060.63L1067.28 407.8C1067.57 408.533 1067.85 409.413 1068.11 410.44C1068.4 411.467 1068.62 412.31 1068.77 412.97C1068.91 412.31 1069.11 411.467 1069.37 410.44C1069.66 409.413 1069.96 408.533 1070.25 407.8L1076.52 390.75H1082.68L1067.61 430.9H1061.4ZM1101.41 421.55C1098.96 421.55 1096.81 421.073 1094.98 420.12C1093.15 419.13 1091.72 417.755 1090.69 415.995C1089.7 414.235 1089.2 412.182 1089.2 409.835V401.915C1089.2 399.568 1089.7 397.515 1090.69 395.755C1091.72 393.995 1093.15 392.638 1094.98 391.685C1096.81 390.695 1098.96 390.2 1101.41 390.2C1103.91 390.2 1106.07 390.695 1107.9 391.685C1109.74 392.638 1111.15 393.995 1112.14 395.755C1113.17 397.515 1113.68 399.568 1113.68 401.915V407.305H1094.92V409.835C1094.92 414.418 1097.11 416.71 1101.47 416.71C1105.03 416.71 1107.08 415.518 1107.63 413.135H1113.51C1113.07 415.702 1111.75 417.755 1109.55 419.295C1107.35 420.798 1104.64 421.55 1101.41 421.55ZM1094.92 401.915V403.29L1107.9 403.235V401.86C1107.9 399.623 1107.35 397.918 1106.25 396.745C1105.15 395.535 1103.54 394.93 1101.41 394.93C1099.29 394.93 1097.67 395.535 1096.57 396.745C1095.47 397.955 1094.92 399.678 1094.92 401.915ZM1132.14 421.55C1129.13 421.55 1126.71 420.523 1124.88 418.47C1123.08 416.417 1122.18 413.648 1122.18 410.165V401.64C1122.18 398.12 1123.08 395.333 1124.88 393.28C1126.71 391.227 1129.13 390.2 1132.14 390.2C1134.3 390.2 1136.1 390.75 1137.53 391.85C1138.99 392.913 1139.93 394.417 1140.33 396.36H1140.5L1140.33 389.485V380.85H1146.27V421H1140.39V415.39H1140.33C1139.93 417.333 1138.99 418.855 1137.53 419.955C1136.1 421.018 1134.3 421.55 1132.14 421.55ZM1134.23 416.38C1136.13 416.38 1137.62 415.812 1138.68 414.675C1139.78 413.502 1140.33 411.852 1140.33 409.725V401.97C1140.33 399.88 1139.78 398.267 1138.68 397.13C1137.62 395.957 1136.13 395.37 1134.23 395.37C1132.32 395.37 1130.82 395.938 1129.72 397.075C1128.65 398.175 1128.12 399.788 1128.12 401.915V409.835C1128.12 411.962 1128.65 413.593 1129.72 414.73C1130.82 415.83 1132.32 416.38 1134.23 416.38ZM1188.3 421V415.61H1198.81V396.14H1189.4V390.75H1204.75V415.61H1214.48V421H1188.3ZM1201.28 385.525C1200 385.525 1198.97 385.195 1198.2 384.535C1197.43 383.838 1197.05 382.922 1197.05 381.785C1197.05 380.612 1197.43 379.695 1198.2 379.035C1198.97 378.338 1200 377.99 1201.28 377.99C1202.57 377.99 1203.59 378.338 1204.36 379.035C1205.13 379.695 1205.52 380.612 1205.52 381.785C1205.52 382.922 1205.13 383.838 1204.36 384.535C1203.59 385.195 1202.57 385.525 1201.28 385.525ZM1221.45 421V390.75H1227.33V396.525H1227.39C1227.68 394.545 1228.52 393.005 1229.92 391.905C1231.31 390.768 1233.14 390.2 1235.42 390.2C1238.42 390.2 1240.83 391.172 1242.62 393.115C1244.42 395.022 1245.32 397.607 1245.32 400.87V421H1239.38V401.53C1239.38 399.55 1238.85 398.028 1237.78 396.965C1236.72 395.902 1235.27 395.37 1233.44 395.37C1231.57 395.37 1230.08 395.938 1228.98 397.075C1227.92 398.212 1227.39 399.825 1227.39 401.915V421H1221.45ZM1302.59 421C1299.91 421 1297.78 420.23 1296.21 418.69C1294.63 417.15 1293.84 415.06 1293.84 412.42V396.14H1285.48V390.75H1293.84V382.225H1299.78V390.75H1311.66V396.14H1299.78V412.365C1299.78 413.318 1300.06 414.107 1300.61 414.73C1301.16 415.317 1301.91 415.61 1302.86 415.61H1311.11V421H1302.59ZM1320.38 421V380.85H1326.32V390.75L1326.27 396.525H1326.32C1326.62 394.545 1327.46 393.005 1328.85 391.905C1330.25 390.768 1332.08 390.2 1334.35 390.2C1337.36 390.2 1339.76 391.172 1341.56 393.115C1343.36 395.022 1344.25 397.607 1344.25 400.87V421H1338.31V401.53C1338.31 399.55 1337.78 398.01 1336.72 396.91C1335.66 395.81 1334.21 395.26 1332.37 395.26C1330.5 395.26 1329.02 395.847 1327.92 397.02C1326.86 398.193 1326.32 399.825 1326.32 401.915V421H1320.38ZM1365.24 421.55C1362.79 421.55 1360.64 421.073 1358.81 420.12C1356.97 419.13 1355.54 417.755 1354.52 415.995C1353.53 414.235 1353.03 412.182 1353.03 409.835V401.915C1353.03 399.568 1353.53 397.515 1354.52 395.755C1355.54 393.995 1356.97 392.638 1358.81 391.685C1360.64 390.695 1362.79 390.2 1365.24 390.2C1367.74 390.2 1369.9 390.695 1371.73 391.685C1373.57 392.638 1374.98 393.995 1375.97 395.755C1376.99 397.515 1377.51 399.568 1377.51 401.915V407.305H1358.75V409.835C1358.75 414.418 1360.93 416.71 1365.3 416.71C1368.85 416.71 1370.91 415.518 1371.46 413.135H1377.34C1376.9 415.702 1375.58 417.755 1373.38 419.295C1371.18 420.798 1368.47 421.55 1365.24 421.55ZM1358.75 401.915V403.29L1371.73 403.235V401.86C1371.73 399.623 1371.18 397.918 1370.08 396.745C1368.98 395.535 1367.37 394.93 1365.24 394.93C1363.12 394.93 1361.5 395.535 1360.4 396.745C1359.3 397.955 1358.75 399.678 1358.75 401.915ZM1419.37 430.9V390.75H1425.2V396.36H1425.26C1425.7 394.417 1426.63 392.913 1428.06 391.85C1429.53 390.75 1431.35 390.2 1433.51 390.2C1436.52 390.2 1438.92 391.227 1440.71 393.28C1442.55 395.333 1443.46 398.102 1443.46 401.585V410.11C1443.46 413.63 1442.57 416.417 1440.77 418.47C1438.97 420.523 1436.55 421.55 1433.51 421.55C1431.38 421.55 1429.59 421.018 1428.12 419.955C1426.65 418.855 1425.7 417.333 1425.26 415.39H1425.15L1425.31 422.265V430.9H1419.37ZM1431.42 416.38C1433.33 416.38 1434.81 415.83 1435.87 414.73C1436.97 413.593 1437.52 411.962 1437.52 409.835V401.915C1437.52 399.788 1436.97 398.175 1435.87 397.075C1434.81 395.938 1433.33 395.37 1431.42 395.37C1429.51 395.37 1428.01 395.957 1426.91 397.13C1425.85 398.267 1425.31 399.88 1425.31 401.97V409.725C1425.31 411.852 1425.85 413.502 1426.91 414.675C1428.01 415.812 1429.51 416.38 1431.42 416.38ZM1461.15 421.55C1458 421.55 1455.51 420.743 1453.67 419.13C1451.88 417.48 1450.98 415.243 1450.98 412.42C1450.98 409.56 1451.95 407.323 1453.89 405.71C1455.84 404.06 1458.51 403.235 1461.92 403.235H1470.23V400.43C1470.23 398.78 1469.7 397.515 1468.63 396.635C1467.61 395.718 1466.18 395.26 1464.34 395.26C1462.69 395.26 1461.3 395.627 1460.16 396.36C1459.06 397.057 1458.42 397.973 1458.24 399.11H1452.46C1452.61 397.35 1453.2 395.81 1454.22 394.49C1455.29 393.133 1456.7 392.088 1458.46 391.355C1460.22 390.585 1462.22 390.2 1464.45 390.2C1468.05 390.2 1470.89 391.117 1472.98 392.95C1475.1 394.747 1476.17 397.203 1476.17 400.32V421H1470.39V415.555H1470.28C1469.99 417.425 1469.02 418.892 1467.37 419.955C1465.75 421.018 1463.68 421.55 1461.15 421.55ZM1462.91 417.04C1465.04 417.04 1466.78 416.508 1468.14 415.445C1469.53 414.345 1470.23 412.952 1470.23 411.265V407.305H1462.09C1460.47 407.305 1459.21 407.727 1458.29 408.57C1457.38 409.413 1456.92 410.568 1456.92 412.035C1456.92 413.575 1457.45 414.803 1458.51 415.72C1459.58 416.6 1461.04 417.04 1462.91 417.04ZM1496.11 421.495C1492.81 421.495 1490.12 420.743 1488.03 419.24C1485.97 417.7 1484.95 415.628 1484.95 413.025H1490.94C1490.94 414.162 1491.42 415.023 1492.37 415.61C1493.36 416.197 1494.64 416.49 1496.22 416.49H1498.53C1500.36 416.49 1501.72 416.142 1502.6 415.445C1503.52 414.748 1503.98 413.795 1503.98 412.585C1503.98 411.412 1503.55 410.495 1502.71 409.835C1501.87 409.138 1500.64 408.662 1499.03 408.405L1494.9 407.745C1488.78 406.828 1485.72 403.877 1485.72 398.89C1485.72 396.103 1486.63 393.977 1488.47 392.51C1490.34 391.007 1493.01 390.255 1496.5 390.255H1498.59C1501.85 390.255 1504.45 390.988 1506.4 392.455C1508.38 393.885 1509.37 395.81 1509.37 398.23H1503.37C1503.37 397.277 1502.93 396.543 1502.05 396.03C1501.21 395.517 1500.03 395.26 1498.53 395.26H1496.44C1493.14 395.26 1491.49 396.47 1491.49 398.89C1491.49 400.943 1492.94 402.19 1495.84 402.63L1500.02 403.29C1503.35 403.803 1505.81 404.793 1507.39 406.26C1508.96 407.69 1509.75 409.725 1509.75 412.365C1509.75 415.225 1508.8 417.462 1506.89 419.075C1505.02 420.688 1502.22 421.495 1498.48 421.495H1496.11ZM1533.43 421C1530.76 421 1528.63 420.23 1527.05 418.69C1525.48 417.15 1524.69 415.06 1524.69 412.42V396.14H1516.33V390.75H1524.69V382.225H1530.63V390.75H1542.51V396.14H1530.63V412.365C1530.63 413.318 1530.9 414.107 1531.45 414.73C1532 415.317 1532.76 415.61 1533.71 415.61H1541.96V421H1533.43ZM1557.45 409.395L1557.39 398.89H1560.97C1563.02 398.89 1564.67 398.34 1565.92 397.24C1567.16 396.103 1567.79 394.582 1567.79 392.675C1567.79 390.768 1567.16 389.247 1565.92 388.11C1564.67 386.973 1563 386.405 1560.91 386.405H1553.38V380.85H1560.75C1563.35 380.85 1565.62 381.345 1567.57 382.335C1569.51 383.288 1571.01 384.645 1572.08 386.405C1573.18 388.165 1573.73 390.255 1573.73 392.675C1573.73 394.838 1573.27 396.763 1572.35 398.45C1571.44 400.137 1570.17 401.475 1568.56 402.465C1566.98 403.418 1565.13 403.932 1563 404.005V409.395H1557.45ZM1559.37 421.275C1558.31 421.275 1557.45 420.963 1556.79 420.34C1556.13 419.68 1555.8 418.837 1555.8 417.81C1555.8 416.783 1556.13 415.958 1556.79 415.335C1557.45 414.675 1558.31 414.345 1559.37 414.345H1561.02C1562.12 414.345 1562.98 414.675 1563.61 415.335C1564.23 415.958 1564.54 416.765 1564.54 417.755C1564.54 418.782 1564.21 419.625 1563.55 420.285C1562.89 420.945 1562.03 421.275 1560.97 421.275H1559.37ZM1596.75 395.425L1601.15 378.32H1609.13L1601.98 395.425H1596.75ZM1583.61 395.425L1588.01 378.32H1595.98L1588.83 395.425H1583.61Z" fill="#D9D9D9"/>
<mask id="path-2-inside-1_19_825" fill="white">
<path d="M705.638 841.213C765.068 812.151 815.104 766.929 850.011 710.732C884.918 654.536 903.281 589.64 902.997 523.486L551 525L705.638 841.213Z"/>
</mask>
<path d="M705.638 841.213C765.068 812.151 815.104 766.929 850.011 710.732C884.918 654.536 903.281 589.64 902.997 523.486L551 525L705.638 841.213Z" fill="#D9D9D9" stroke="#171717" stroke-width="15.2575" mask="url(#path-2-inside-1_19_825)"/>
<mask id="path-3-inside-2_19_825" fill="white">
<path d="M214.236 422.56C194.281 488.159 193.92 558.157 213.197 623.959C232.473 689.76 270.548 748.499 322.744 792.961C374.941 837.424 438.987 865.674 507.016 874.241C575.046 882.809 644.096 871.321 705.688 841.189L551 525L214.236 422.56Z"/>
</mask>
<path d="M214.236 422.56C194.281 488.159 193.92 558.157 213.197 623.959C232.473 689.76 270.548 748.499 322.744 792.961C374.941 837.424 438.987 865.674 507.016 874.241C575.046 882.809 644.096 871.321 705.688 841.189L551 525L214.236 422.56Z" fill="#80A07B" stroke="#171717" stroke-width="15.2575" mask="url(#path-3-inside-2_19_825)"/>
<mask id="path-4-inside-3_19_825" fill="white">
<path d="M379.107 217.824C299.326 262.469 240.045 336.402 213.807 423.98L551 525L379.107 217.824Z"/>
</mask>
<path d="M379.107 217.824C299.326 262.469 240.045 336.402 213.807 423.98L551 525L379.107 217.824Z" fill="#88A2AD" stroke="#171717" stroke-width="15.2575" mask="url(#path-4-inside-3_19_825)"/>
<mask id="path-5-inside-4_19_825" fill="white">
<path d="M579.979 174.195C509.963 168.411 439.818 183.711 378.571 218.125L551 525L579.979 174.195Z"/>
</mask>
<path d="M579.979 174.195C509.963 168.411 439.818 183.711 378.571 218.125L551 525L579.979 174.195Z" fill="#A997BF" stroke="#171717" stroke-width="15.2575" mask="url(#path-5-inside-4_19_825)"/>
<mask id="path-6-inside-5_19_825" fill="white">
<path d="M903 525C903 436.659 869.783 351.548 809.942 286.562C750.102 221.575 668.014 181.466 579.973 174.194L551 525H903Z"/>
</mask>
<path d="M903 525C903 436.659 869.783 351.548 809.942 286.562C750.102 221.575 668.014 181.466 579.973 174.194L551 525H903Z" fill="#BFAE97" stroke="#171717" stroke-width="15.2575" mask="url(#path-6-inside-5_19_825)"/>
<path d="M697.132 656V652.472H704.116V633.104L697.096 638.324V634.112L703.108 629.72H708.004V652.472H713.656V656H697.132ZM721.886 656L731.39 633.176H722.102V637.46H718.214V629.72H735.422V633.212L726.134 656H721.886ZM747.972 656.36C746.988 656.36 746.208 656.084 745.632 655.532C745.08 654.956 744.804 654.188 744.804 653.228C744.804 652.244 745.08 651.464 745.632 650.888C746.208 650.288 746.988 649.988 747.972 649.988C748.956 649.988 749.724 650.288 750.276 650.888C750.852 651.464 751.14 652.244 751.14 653.228C751.14 654.188 750.852 654.956 750.276 655.532C749.724 656.084 748.956 656.36 747.972 656.36ZM769.558 656.36C767.83 656.36 766.318 656.072 765.022 655.496C763.726 654.896 762.718 654.068 761.998 653.012C761.278 651.932 760.918 650.696 760.918 649.304C760.918 647.816 761.374 646.46 762.286 645.236C763.198 644.012 764.434 643.04 765.994 642.32C762.994 640.832 761.494 638.78 761.494 636.164C761.494 634.844 761.83 633.68 762.502 632.672C763.198 631.64 764.146 630.824 765.346 630.224C766.57 629.624 767.974 629.324 769.558 629.324C771.142 629.324 772.534 629.624 773.734 630.224C774.958 630.824 775.906 631.64 776.578 632.672C777.274 633.68 777.622 634.844 777.622 636.164C777.622 638.78 776.122 640.832 773.122 642.32C774.706 643.064 775.942 644.048 776.83 645.272C777.742 646.496 778.198 647.84 778.198 649.304C778.198 650.72 777.838 651.956 777.118 653.012C776.398 654.068 775.39 654.896 774.094 655.496C772.798 656.072 771.286 656.36 769.558 656.36ZM768.586 640.52L769.558 640.88L770.422 640.556C771.43 640.148 772.246 639.572 772.87 638.828C773.494 638.084 773.806 637.256 773.806 636.344C773.806 635.264 773.41 634.388 772.618 633.716C771.85 633.02 770.83 632.672 769.558 632.672C768.286 632.672 767.254 633.02 766.462 633.716C765.67 634.412 765.274 635.288 765.274 636.344C765.274 637.256 765.574 638.084 766.174 638.828C766.798 639.572 767.602 640.136 768.586 640.52ZM769.558 653.012C770.998 653.012 772.162 652.628 773.05 651.86C773.962 651.092 774.418 650.096 774.418 648.872C774.418 647.912 774.094 647.036 773.446 646.244C772.822 645.428 771.994 644.816 770.962 644.408L769.558 643.832L768.082 644.444C767.05 644.852 766.222 645.464 765.598 646.28C764.998 647.072 764.698 647.936 764.698 648.872C764.698 650.096 765.142 651.092 766.03 651.86C766.942 652.628 768.118 653.012 769.558 653.012ZM785.996 641.6C784.484 641.6 783.248 641.168 782.288 640.304C781.328 639.44 780.848 638.252 780.848 636.74V634.4C780.848 632.888 781.328 631.7 782.288 630.836C783.248 629.972 784.484 629.54 785.996 629.54C787.508 629.54 788.732 629.972 789.668 630.836C790.628 631.7 791.108 632.888 791.108 634.4V636.74C791.108 638.252 790.628 639.44 789.668 640.304C788.732 641.168 787.508 641.6 785.996 641.6ZM780.524 656L798.776 629.72H801.764L783.512 656H780.524ZM785.996 638.972C787.436 638.972 788.156 638.228 788.156 636.74V634.4C788.156 632.888 787.436 632.132 785.996 632.132C784.532 632.132 783.8 632.888 783.8 634.4V636.74C783.8 638.228 784.532 638.972 785.996 638.972ZM796.328 656.18C794.792 656.18 793.544 655.748 792.584 654.884C791.648 653.996 791.18 652.808 791.18 651.32V648.98C791.18 647.492 791.648 646.316 792.584 645.452C793.544 644.564 794.792 644.12 796.328 644.12C797.84 644.12 799.064 644.564 800 645.452C800.96 646.316 801.44 647.492 801.44 648.98V651.32C801.44 652.808 800.96 653.996 800 654.884C799.064 655.748 797.84 656.18 796.328 656.18ZM796.328 653.516C797.768 653.516 798.488 652.784 798.488 651.32V648.98C798.488 647.468 797.768 646.712 796.328 646.712C794.864 646.712 794.132 647.468 794.132 648.98V651.32C794.132 652.784 794.864 653.516 796.328 653.516Z" fill="#171717"/>
<path d="M389.476 679.36C387.82 679.36 386.38 679.048 385.156 678.424C383.956 677.8 383.02 676.924 382.348 675.796C381.676 674.644 381.34 673.312 381.34 671.8H385.228C385.228 673.12 385.6 674.152 386.344 674.896C387.112 675.616 388.168 675.976 389.512 675.976C390.88 675.976 391.936 675.604 392.68 674.86C393.424 674.092 393.796 673.072 393.796 671.8V669.928C393.796 668.584 393.412 667.552 392.644 666.832C391.9 666.088 390.856 665.716 389.512 665.716H386.56V662.476L392.536 656.14H382.456V652.72H396.82V656.104L390.844 662.404C392.956 662.62 394.624 663.4 395.848 664.744C397.072 666.064 397.684 667.78 397.684 669.892V671.8C397.684 673.312 397.336 674.644 396.64 675.796C395.968 676.924 395.02 677.8 393.796 678.424C392.572 679.048 391.132 679.36 389.476 679.36ZM411.314 679.36C409.034 679.36 407.186 678.784 405.77 677.632C404.354 676.456 403.562 674.884 403.394 672.916H407.282C407.378 673.876 407.774 674.62 408.47 675.148C409.166 675.676 410.126 675.94 411.35 675.94C412.718 675.94 413.75 675.58 414.446 674.86C415.166 674.116 415.526 673.072 415.526 671.728V669.172C415.526 667.852 415.178 666.832 414.482 666.112C413.786 665.368 412.754 664.996 411.386 664.996C410.522 664.996 409.778 665.2 409.154 665.608C408.53 666.016 408.074 666.556 407.786 667.228H403.934L404.114 652.72H418.442V656.248H407.822L407.75 664.42H407.858C408.074 663.58 408.602 662.92 409.442 662.44C410.282 661.96 411.35 661.72 412.646 661.72C414.758 661.72 416.414 662.38 417.614 663.7C418.814 664.996 419.414 666.82 419.414 669.172V671.728C419.414 674.08 418.694 675.94 417.254 677.308C415.838 678.676 413.858 679.36 411.314 679.36ZM432.972 679.36C431.988 679.36 431.208 679.084 430.632 678.532C430.08 677.956 429.804 677.188 429.804 676.228C429.804 675.244 430.08 674.464 430.632 673.888C431.208 673.288 431.988 672.988 432.972 672.988C433.956 672.988 434.724 673.288 435.276 673.888C435.852 674.464 436.14 675.244 436.14 676.228C436.14 677.188 435.852 677.956 435.276 678.532C434.724 679.084 433.956 679.36 432.972 679.36ZM454.594 679.36C452.842 679.36 451.306 679 449.986 678.28C448.69 677.56 447.67 676.564 446.926 675.292C446.206 673.996 445.846 672.484 445.846 670.756C445.846 669.628 446.05 668.452 446.458 667.228C446.89 666.004 447.502 664.696 448.294 663.304L454.342 652.72H458.554L451.354 664.96L451.534 665.104C451.99 664.408 452.614 663.868 453.406 663.484C454.198 663.076 455.11 662.872 456.142 662.872C457.558 662.872 458.794 663.208 459.85 663.88C460.93 664.528 461.77 665.452 462.37 666.652C462.97 667.852 463.27 669.244 463.27 670.828C463.27 672.532 462.898 674.032 462.154 675.328C461.434 676.6 460.426 677.596 459.13 678.316C457.834 679.012 456.322 679.36 454.594 679.36ZM454.558 675.976C455.998 675.976 457.162 675.52 458.05 674.608C458.962 673.672 459.418 672.436 459.418 670.9C459.418 669.388 458.962 668.164 458.05 667.228C457.162 666.268 455.998 665.788 454.558 665.788C453.118 665.788 451.942 666.268 451.03 667.228C450.142 668.164 449.698 669.388 449.698 670.9C449.698 672.436 450.142 673.672 451.03 674.608C451.942 675.52 453.118 675.976 454.558 675.976ZM470.996 664.6C469.484 664.6 468.248 664.168 467.288 663.304C466.328 662.44 465.848 661.252 465.848 659.74V657.4C465.848 655.888 466.328 654.7 467.288 653.836C468.248 652.972 469.484 652.54 470.996 652.54C472.508 652.54 473.732 652.972 474.668 653.836C475.628 654.7 476.108 655.888 476.108 657.4V659.74C476.108 661.252 475.628 662.44 474.668 663.304C473.732 664.168 472.508 664.6 470.996 664.6ZM465.524 679L483.776 652.72H486.764L468.512 679H465.524ZM470.996 661.972C472.436 661.972 473.156 661.228 473.156 659.74V657.4C473.156 655.888 472.436 655.132 470.996 655.132C469.532 655.132 468.8 655.888 468.8 657.4V659.74C468.8 661.228 469.532 661.972 470.996 661.972ZM481.328 679.18C479.792 679.18 478.544 678.748 477.584 677.884C476.648 676.996 476.18 675.808 476.18 674.32V671.98C476.18 670.492 476.648 669.316 477.584 668.452C478.544 667.564 479.792 667.12 481.328 667.12C482.84 667.12 484.064 667.564 485 668.452C485.96 669.316 486.44 670.492 486.44 671.98V674.32C486.44 675.808 485.96 676.996 485 677.884C484.064 678.748 482.84 679.18 481.328 679.18ZM481.328 676.516C482.768 676.516 483.488 675.784 483.488 674.32V671.98C483.488 670.468 482.768 669.712 481.328 669.712C479.864 669.712 479.132 670.468 479.132 671.98V674.32C479.132 675.784 479.864 676.516 481.328 676.516Z" fill="#171717"/>
<path d="M310.132 390V386.472H317.116V367.104L310.096 372.324V368.112L316.108 363.72H321.004V386.472H326.656V390H310.132ZM339.062 390.36C337.406 390.36 335.966 390.048 334.742 389.424C333.542 388.8 332.606 387.924 331.934 386.796C331.262 385.644 330.926 384.312 330.926 382.8H334.814C334.814 384.12 335.186 385.152 335.93 385.896C336.698 386.616 337.754 386.976 339.098 386.976C340.466 386.976 341.522 386.604 342.266 385.86C343.01 385.092 343.382 384.072 343.382 382.8V380.928C343.382 379.584 342.998 378.552 342.23 377.832C341.486 377.088 340.442 376.716 339.098 376.716H336.146V373.476L342.122 367.14H332.042V363.72H346.406V367.104L340.43 373.404C342.542 373.62 344.21 374.4 345.434 375.744C346.658 377.064 347.27 378.78 347.27 380.892V382.8C347.27 384.312 346.922 385.644 346.226 386.796C345.554 387.924 344.606 388.8 343.382 389.424C342.158 390.048 340.718 390.36 339.062 390.36ZM360.972 390.36C359.988 390.36 359.208 390.084 358.632 389.532C358.08 388.956 357.804 388.188 357.804 387.228C357.804 386.244 358.08 385.464 358.632 384.888C359.208 384.288 359.988 383.988 360.972 383.988C361.956 383.988 362.724 384.288 363.276 384.888C363.852 385.464 364.14 386.244 364.14 387.228C364.14 388.188 363.852 388.956 363.276 389.532C362.724 390.084 361.956 390.36 360.972 390.36ZM382.486 390.36C380.206 390.36 378.358 389.784 376.942 388.632C375.526 387.456 374.734 385.884 374.566 383.916H378.454C378.55 384.876 378.946 385.62 379.642 386.148C380.338 386.676 381.298 386.94 382.522 386.94C383.89 386.94 384.922 386.58 385.618 385.86C386.338 385.116 386.698 384.072 386.698 382.728V380.172C386.698 378.852 386.35 377.832 385.654 377.112C384.958 376.368 383.926 375.996 382.558 375.996C381.694 375.996 380.95 376.2 380.326 376.608C379.702 377.016 379.246 377.556 378.958 378.228H375.106L375.286 363.72H389.614V367.248H378.994L378.922 375.42H379.03C379.246 374.58 379.774 373.92 380.614 373.44C381.454 372.96 382.522 372.72 383.818 372.72C385.93 372.72 387.586 373.38 388.786 374.7C389.986 375.996 390.586 377.82 390.586 380.172V382.728C390.586 385.08 389.866 386.94 388.426 388.308C387.01 389.676 385.03 390.36 382.486 390.36ZM398.996 375.6C397.484 375.6 396.248 375.168 395.288 374.304C394.328 373.44 393.848 372.252 393.848 370.74V368.4C393.848 366.888 394.328 365.7 395.288 364.836C396.248 363.972 397.484 363.54 398.996 363.54C400.508 363.54 401.732 363.972 402.668 364.836C403.628 365.7 404.108 366.888 404.108 368.4V370.74C404.108 372.252 403.628 373.44 402.668 374.304C401.732 375.168 400.508 375.6 398.996 375.6ZM393.524 390L411.776 363.72H414.764L396.512 390H393.524ZM398.996 372.972C400.436 372.972 401.156 372.228 401.156 370.74V368.4C401.156 366.888 400.436 366.132 398.996 366.132C397.532 366.132 396.8 366.888 396.8 368.4V370.74C396.8 372.228 397.532 372.972 398.996 372.972ZM409.328 390.18C407.792 390.18 406.544 389.748 405.584 388.884C404.648 387.996 404.18 386.808 404.18 385.32V382.98C404.18 381.492 404.648 380.316 405.584 379.452C406.544 378.564 407.792 378.12 409.328 378.12C410.84 378.12 412.064 378.564 413 379.452C413.96 380.316 414.44 381.492 414.44 382.98V385.32C414.44 386.808 413.96 387.996 413 388.884C412.064 389.748 410.84 390.18 409.328 390.18ZM409.328 387.516C410.768 387.516 411.488 386.784 411.488 385.32V382.98C411.488 381.468 410.768 380.712 409.328 380.712C407.864 380.712 407.132 381.468 407.132 382.98V385.32C407.132 386.784 407.864 387.516 409.328 387.516Z" fill="#171717"/>
<path d="M459.84 295L466.968 282.796L466.788 282.688C466.332 283.384 465.708 283.936 464.916 284.344C464.148 284.728 463.248 284.92 462.216 284.92C460.824 284.92 459.588 284.584 458.508 283.912C457.428 283.24 456.588 282.304 455.988 281.104C455.388 279.904 455.088 278.512 455.088 276.928C455.088 275.224 455.448 273.736 456.168 272.464C456.912 271.168 457.932 270.16 459.228 269.44C460.548 268.72 462.06 268.36 463.764 268.36C465.492 268.36 467.016 268.72 468.336 269.44C469.656 270.16 470.676 271.168 471.396 272.464C472.14 273.736 472.512 275.212 472.512 276.892C472.512 278.044 472.284 279.244 471.828 280.492C471.396 281.716 470.808 283.012 470.064 284.38L464.16 295H459.84ZM463.8 281.968C465.24 281.968 466.404 281.5 467.292 280.564C468.204 279.628 468.66 278.392 468.66 276.856C468.66 275.32 468.204 274.084 467.292 273.148C466.404 272.188 465.24 271.708 463.8 271.708C462.36 271.708 461.184 272.188 460.272 273.148C459.384 274.084 458.94 275.32 458.94 276.856C458.94 278.392 459.384 279.628 460.272 280.564C461.184 281.5 462.36 281.968 463.8 281.968ZM485.386 295.36C484.402 295.36 483.622 295.084 483.046 294.532C482.494 293.956 482.218 293.188 482.218 292.228C482.218 291.244 482.494 290.464 483.046 289.888C483.622 289.288 484.402 288.988 485.386 288.988C486.37 288.988 487.138 289.288 487.69 289.888C488.266 290.464 488.554 291.244 488.554 292.228C488.554 293.188 488.266 293.956 487.69 294.532C487.138 295.084 486.37 295.36 485.386 295.36ZM499.232 295V291.328L507.908 282.148C508.964 280.996 509.744 279.952 510.248 279.016C510.752 278.056 511.004 277.12 511.004 276.208C511.004 274.84 510.62 273.772 509.852 273.004C509.108 272.212 508.076 271.816 506.756 271.816C505.412 271.816 504.344 272.224 503.552 273.04C502.784 273.832 502.4 274.924 502.4 276.316H498.512C498.584 273.892 499.364 271.96 500.852 270.52C502.34 269.08 504.32 268.36 506.792 268.36C509.264 268.36 511.232 269.056 512.696 270.448C514.16 271.816 514.892 273.688 514.892 276.064C514.892 277.408 514.532 278.764 513.812 280.132C513.092 281.476 511.94 282.988 510.356 284.668L503.876 291.472H515.288V295H499.232ZM523.41 280.6C521.898 280.6 520.662 280.168 519.702 279.304C518.742 278.44 518.262 277.252 518.262 275.74V273.4C518.262 271.888 518.742 270.7 519.702 269.836C520.662 268.972 521.898 268.54 523.41 268.54C524.922 268.54 526.146 268.972 527.082 269.836C528.042 270.7 528.522 271.888 528.522 273.4V275.74C528.522 277.252 528.042 278.44 527.082 279.304C526.146 280.168 524.922 280.6 523.41 280.6ZM517.938 295L536.19 268.72H539.178L520.926 295H517.938ZM523.41 277.972C524.85 277.972 525.57 277.228 525.57 275.74V273.4C525.57 271.888 524.85 271.132 523.41 271.132C521.946 271.132 521.214 271.888 521.214 273.4V275.74C521.214 277.228 521.946 277.972 523.41 277.972ZM533.742 295.18C532.206 295.18 530.958 294.748 529.998 293.884C529.062 292.996 528.594 291.808 528.594 290.32V287.98C528.594 286.492 529.062 285.316 529.998 284.452C530.958 283.564 532.206 283.12 533.742 283.12C535.254 283.12 536.478 283.564 537.414 284.452C538.374 285.316 538.854 286.492 538.854 287.98V290.32C538.854 291.808 538.374 292.996 537.414 293.884C536.478 294.748 535.254 295.18 533.742 295.18ZM533.742 292.516C535.182 292.516 535.902 291.784 535.902 290.32V287.98C535.902 286.468 535.182 285.712 533.742 285.712C532.278 285.712 531.546 286.468 531.546 287.98V290.32C531.546 291.784 532.278 292.516 533.742 292.516Z" fill="#171717"/>
<path d="M667.06 403V399.328L675.736 390.148C676.792 388.996 677.572 387.952 678.076 387.016C678.58 386.056 678.832 385.12 678.832 384.208C678.832 382.84 678.448 381.772 677.68 381.004C676.936 380.212 675.904 379.816 674.584 379.816C673.24 379.816 672.172 380.224 671.38 381.04C670.612 381.832 670.228 382.924 670.228 384.316H666.34C666.412 381.892 667.192 379.96 668.68 378.52C670.168 377.08 672.148 376.36 674.62 376.36C677.092 376.36 679.06 377.056 680.524 378.448C681.988 379.816 682.72 381.688 682.72 384.064C682.72 385.408 682.36 386.764 681.64 388.132C680.92 389.476 679.768 390.988 678.184 392.668L671.704 399.472H683.116V403H667.06ZM696.062 403.36C694.406 403.36 692.966 403.048 691.742 402.424C690.542 401.8 689.606 400.924 688.934 399.796C688.262 398.644 687.926 397.312 687.926 395.8H691.814C691.814 397.12 692.186 398.152 692.93 398.896C693.698 399.616 694.754 399.976 696.098 399.976C697.466 399.976 698.522 399.604 699.266 398.86C700.01 398.092 700.382 397.072 700.382 395.8V393.928C700.382 392.584 699.998 391.552 699.23 390.832C698.486 390.088 697.442 389.716 696.098 389.716H693.146V386.476L699.122 380.14H689.042V376.72H703.406V380.104L697.43 386.404C699.542 386.62 701.21 387.4 702.434 388.744C703.658 390.064 704.27 391.78 704.27 393.892V395.8C704.27 397.312 703.922 398.644 703.226 399.796C702.554 400.924 701.606 401.8 700.382 402.424C699.158 403.048 697.718 403.36 696.062 403.36ZM717.972 403.36C716.988 403.36 716.208 403.084 715.632 402.532C715.08 401.956 714.804 401.188 714.804 400.228C714.804 399.244 715.08 398.464 715.632 397.888C716.208 397.288 716.988 396.988 717.972 396.988C718.956 396.988 719.724 397.288 720.276 397.888C720.852 398.464 721.14 399.244 721.14 400.228C721.14 401.188 720.852 401.956 720.276 402.532C719.724 403.084 718.956 403.36 717.972 403.36ZM735.598 403L742.726 390.796L742.546 390.688C742.09 391.384 741.466 391.936 740.674 392.344C739.906 392.728 739.006 392.92 737.974 392.92C736.582 392.92 735.346 392.584 734.266 391.912C733.186 391.24 732.346 390.304 731.746 389.104C731.146 387.904 730.846 386.512 730.846 384.928C730.846 383.224 731.206 381.736 731.926 380.464C732.67 379.168 733.69 378.16 734.986 377.44C736.306 376.72 737.818 376.36 739.522 376.36C741.25 376.36 742.774 376.72 744.094 377.44C745.414 378.16 746.434 379.168 747.154 380.464C747.898 381.736 748.27 383.212 748.27 384.892C748.27 386.044 748.042 387.244 747.586 388.492C747.154 389.716 746.566 391.012 745.822 392.38L739.918 403H735.598ZM739.558 389.968C740.998 389.968 742.162 389.5 743.05 388.564C743.962 387.628 744.418 386.392 744.418 384.856C744.418 383.32 743.962 382.084 743.05 381.148C742.162 380.188 740.998 379.708 739.558 379.708C738.118 379.708 736.942 380.188 736.03 381.148C735.142 382.084 734.698 383.32 734.698 384.856C734.698 386.392 735.142 387.628 736.03 388.564C736.942 389.5 738.118 389.968 739.558 389.968ZM755.996 388.6C754.484 388.6 753.248 388.168 752.288 387.304C751.328 386.44 750.848 385.252 750.848 383.74V381.4C750.848 379.888 751.328 378.7 752.288 377.836C753.248 376.972 754.484 376.54 755.996 376.54C757.508 376.54 758.732 376.972 759.668 377.836C760.628 378.7 761.108 379.888 761.108 381.4V383.74C761.108 385.252 760.628 386.44 759.668 387.304C758.732 388.168 757.508 388.6 755.996 388.6ZM750.524 403L768.776 376.72H771.764L753.512 403H750.524ZM755.996 385.972C757.436 385.972 758.156 385.228 758.156 383.74V381.4C758.156 379.888 757.436 379.132 755.996 379.132C754.532 379.132 753.8 379.888 753.8 381.4V383.74C753.8 385.228 754.532 385.972 755.996 385.972ZM766.328 403.18C764.792 403.18 763.544 402.748 762.584 401.884C761.648 400.996 761.18 399.808 761.18 398.32V395.98C761.18 394.492 761.648 393.316 762.584 392.452C763.544 391.564 764.792 391.12 766.328 391.12C767.84 391.12 769.064 391.564 770 392.452C770.96 393.316 771.44 394.492 771.44 395.98V398.32C771.44 399.808 770.96 400.996 770 401.884C769.064 402.748 767.84 403.18 766.328 403.18ZM766.328 400.516C767.768 400.516 768.488 399.784 768.488 398.32V395.98C768.488 394.468 767.768 393.712 766.328 393.712C764.864 393.712 764.132 394.468 764.132 395.98V398.32C764.132 399.784 764.864 400.516 766.328 400.516Z" fill="#171717"/>
<rect x="953" y="508.428" width="193.771" height="33.5666" rx="16.7833" fill="#AEAEAE"/>
<path d="M1181.72 537.799V514.657H1174.58V511.068H1192.85V514.657H1185.67V537.799H1181.72ZM1197.74 537.799V511.068H1201.7V517.659L1201.66 521.504H1201.7C1201.89 520.186 1202.45 519.161 1203.38 518.428C1204.31 517.672 1205.53 517.293 1207.04 517.293C1209.04 517.293 1210.64 517.94 1211.84 519.234C1213.04 520.503 1213.63 522.224 1213.63 524.397V537.799H1209.68V524.837C1209.68 523.518 1209.33 522.493 1208.62 521.761C1207.91 521.028 1206.94 520.662 1205.72 520.662C1204.48 520.662 1203.49 521.053 1202.76 521.834C1202.05 522.615 1201.7 523.701 1201.7 525.093V537.799H1197.74ZM1219.59 537.799V534.211H1226.58V521.248H1220.32V517.659H1230.54V534.211H1237.02V537.799H1219.59ZM1228.23 514.181C1227.38 514.181 1226.69 513.961 1226.18 513.522C1225.67 513.058 1225.41 512.447 1225.41 511.691C1225.41 510.909 1225.67 510.299 1226.18 509.86C1226.69 509.396 1227.38 509.164 1228.23 509.164C1229.08 509.164 1229.77 509.396 1230.28 509.86C1230.79 510.299 1231.05 510.909 1231.05 511.691C1231.05 512.447 1230.79 513.058 1230.28 513.522C1229.77 513.961 1229.08 514.181 1228.23 514.181ZM1248.87 538.129C1246.67 538.129 1244.88 537.628 1243.49 536.628C1242.12 535.602 1241.43 534.223 1241.43 532.49H1245.43C1245.43 533.246 1245.74 533.82 1246.38 534.211C1247.04 534.601 1247.89 534.797 1248.94 534.797H1250.48C1251.7 534.797 1252.6 534.565 1253.19 534.101C1253.8 533.637 1254.1 533.002 1254.1 532.197C1254.1 531.416 1253.82 530.805 1253.26 530.366C1252.7 529.902 1251.88 529.585 1250.81 529.414L1248.06 528.974C1243.99 528.364 1241.95 526.399 1241.95 523.079C1241.95 521.224 1242.56 519.808 1243.78 518.831C1245.02 517.83 1246.81 517.33 1249.12 517.33H1250.52C1252.69 517.33 1254.42 517.818 1255.72 518.795C1257.03 519.747 1257.69 521.028 1257.69 522.639H1253.7C1253.7 522.005 1253.41 521.516 1252.82 521.175C1252.26 520.833 1251.48 520.662 1250.48 520.662H1249.09C1246.89 520.662 1245.79 521.468 1245.79 523.079C1245.79 524.446 1246.76 525.276 1248.69 525.569L1251.47 526.008C1253.69 526.35 1255.33 527.009 1256.38 527.986C1257.42 528.938 1257.95 530.293 1257.95 532.05C1257.95 533.954 1257.31 535.444 1256.05 536.518C1254.8 537.592 1252.93 538.129 1250.44 538.129H1248.87ZM1285.46 537.799V534.211H1292.45V521.248H1286.19V517.659H1296.41V534.211H1302.89V537.799H1285.46ZM1294.1 514.181C1293.25 514.181 1292.56 513.961 1292.05 513.522C1291.54 513.058 1291.28 512.447 1291.28 511.691C1291.28 510.909 1291.54 510.299 1292.05 509.86C1292.56 509.396 1293.25 509.164 1294.1 509.164C1294.95 509.164 1295.64 509.396 1296.15 509.86C1296.66 510.299 1296.92 510.909 1296.92 511.691C1296.92 512.447 1296.66 513.058 1296.15 513.522C1295.64 513.961 1294.95 514.181 1294.1 514.181ZM1314.74 538.129C1312.54 538.129 1310.75 537.628 1309.36 536.628C1307.99 535.602 1307.3 534.223 1307.3 532.49H1311.3C1311.3 533.246 1311.61 533.82 1312.25 534.211C1312.91 534.601 1313.76 534.797 1314.81 534.797H1316.35C1317.57 534.797 1318.47 534.565 1319.06 534.101C1319.67 533.637 1319.97 533.002 1319.97 532.197C1319.97 531.416 1319.69 530.805 1319.13 530.366C1318.57 529.902 1317.75 529.585 1316.68 529.414L1313.93 528.974C1309.86 528.364 1307.82 526.399 1307.82 523.079C1307.82 521.224 1308.43 519.808 1309.65 518.831C1310.89 517.83 1312.68 517.33 1314.99 517.33H1316.39C1318.56 517.33 1320.29 517.818 1321.59 518.795C1322.9 519.747 1323.56 521.028 1323.56 522.639H1319.57C1319.57 522.005 1319.28 521.516 1318.69 521.175C1318.13 520.833 1317.35 520.662 1316.35 520.662H1314.96C1312.76 520.662 1311.66 521.468 1311.66 523.079C1311.66 524.446 1312.63 525.276 1314.55 525.569L1317.34 526.008C1319.56 526.35 1321.2 527.009 1322.24 527.986C1323.29 528.938 1323.82 530.293 1323.82 532.05C1323.82 533.954 1323.18 535.444 1321.92 536.518C1320.67 537.592 1318.8 538.129 1316.31 538.129H1314.74ZM1350.38 537.799V517.659H1353.67V520.223H1353.89C1354.04 519.344 1354.4 518.636 1354.99 518.099C1355.6 517.562 1356.34 517.293 1357.22 517.293C1358.05 517.293 1358.76 517.562 1359.35 518.099C1359.96 518.611 1360.38 519.319 1360.63 520.223H1360.78C1360.95 519.344 1361.34 518.636 1361.95 518.099C1362.56 517.562 1363.33 517.293 1364.25 517.293C1365.45 517.293 1366.43 517.781 1367.18 518.758C1367.96 519.71 1368.36 520.943 1368.36 522.456V537.799H1364.84V522.639C1364.84 521.053 1364.18 520.259 1362.86 520.259C1361.54 520.259 1360.88 521.04 1360.88 522.603V537.799H1357.85V522.639C1357.85 521.053 1357.17 520.259 1355.83 520.259C1354.54 520.259 1353.89 521.04 1353.89 522.603V537.799H1350.38ZM1376.62 544.391L1379.55 536.628L1371.82 517.659H1376.1L1380.53 529.011C1380.73 529.499 1380.91 530.085 1381.08 530.769C1381.28 531.452 1381.43 532.014 1381.52 532.453C1381.62 532.014 1381.76 531.452 1381.93 530.769C1382.12 530.085 1382.32 529.499 1382.51 529.011L1386.69 517.659H1390.79L1380.75 544.391H1376.62ZM1422.03 537.799V523.372H1416.32V519.783H1422.03V516.524C1422.03 514.84 1422.57 513.509 1423.64 512.533C1424.72 511.556 1426.18 511.068 1428.04 511.068H1433.93V514.583H1428.11C1426.69 514.583 1425.99 515.243 1425.99 516.561V519.783H1433.93V523.372H1425.99V537.799H1422.03ZM1439.15 537.799V534.211H1446.15V521.248H1439.89V517.659H1450.1V534.211H1456.58V537.799H1439.15ZM1447.8 514.181C1446.94 514.181 1446.26 513.961 1445.75 513.522C1445.23 513.058 1444.98 512.447 1444.98 511.691C1444.98 510.909 1445.23 510.299 1445.75 509.86C1446.26 509.396 1446.94 509.164 1447.8 509.164C1448.65 509.164 1449.33 509.396 1449.85 509.86C1450.36 510.299 1450.62 510.909 1450.62 511.691C1450.62 512.447 1450.36 513.058 1449.85 513.522C1449.33 513.961 1448.65 514.181 1447.8 514.181ZM1461.84 537.799V517.659H1465.72V521.504H1465.8C1465.99 520.186 1466.57 519.161 1467.52 518.428C1468.47 517.672 1469.7 517.293 1471.22 517.293C1473.29 517.293 1474.95 517.965 1476.2 519.307C1477.47 520.65 1478.1 522.469 1478.1 524.763V526.301H1474.04V525.093C1474.04 523.701 1473.67 522.627 1472.94 521.87C1472.23 521.114 1471.2 520.735 1469.86 520.735C1467.15 520.735 1465.8 522.237 1465.8 525.239V537.799H1461.84ZM1490.39 538.129C1488.19 538.129 1486.4 537.628 1485.01 536.628C1483.64 535.602 1482.96 534.223 1482.96 532.49H1486.95C1486.95 533.246 1487.27 533.82 1487.9 534.211C1488.56 534.601 1489.41 534.797 1490.46 534.797H1492C1493.22 534.797 1494.13 534.565 1494.71 534.101C1495.32 533.637 1495.63 533.002 1495.63 532.197C1495.63 531.416 1495.35 530.805 1494.78 530.366C1494.22 529.902 1493.41 529.585 1492.33 529.414L1489.59 528.974C1485.51 528.364 1483.47 526.399 1483.47 523.079C1483.47 521.224 1484.08 519.808 1485.3 518.831C1486.55 517.83 1488.33 517.33 1490.65 517.33H1492.04C1494.21 517.33 1495.94 517.818 1497.24 518.795C1498.56 519.747 1499.22 521.028 1499.22 522.639H1495.22C1495.22 522.005 1494.93 521.516 1494.35 521.175C1493.78 520.833 1493 520.662 1492 520.662H1490.61C1488.41 520.662 1487.31 521.468 1487.31 523.079C1487.31 524.446 1488.28 525.276 1490.21 525.569L1492.99 526.008C1495.21 526.35 1496.85 527.009 1497.9 527.986C1498.95 528.938 1499.47 530.293 1499.47 532.05C1499.47 533.954 1498.84 535.444 1497.57 536.518C1496.32 537.592 1494.46 538.129 1491.97 538.129H1490.39ZM1515.24 537.799C1513.46 537.799 1512.04 537.287 1510.99 536.261C1509.94 535.236 1509.42 533.845 1509.42 532.087V521.248H1503.85V517.659H1509.42V511.984H1513.37V517.659H1521.28V521.248H1513.37V532.05C1513.37 532.685 1513.56 533.21 1513.92 533.625C1514.29 534.015 1514.79 534.211 1515.42 534.211H1520.92V537.799H1515.24ZM1557.1 538.165C1554.59 538.165 1552.59 537.47 1551.1 536.078C1549.63 534.662 1548.9 532.758 1548.9 530.366V518.502C1548.9 516.085 1549.63 514.181 1551.1 512.789C1552.59 511.398 1554.59 510.702 1557.1 510.702C1559.59 510.702 1561.57 511.41 1563.03 512.826C1564.52 514.217 1565.27 516.109 1565.27 518.502H1561.31C1561.31 517.11 1560.94 516.048 1560.18 515.316C1559.45 514.583 1558.42 514.217 1557.1 514.217C1555.76 514.217 1554.71 514.583 1553.95 515.316C1553.22 516.048 1552.85 517.098 1552.85 518.465V530.366C1552.85 531.757 1553.22 532.819 1553.95 533.552C1554.71 534.284 1555.76 534.65 1557.1 534.65C1558.42 534.65 1559.45 534.284 1560.18 533.552C1560.94 532.819 1561.31 531.757 1561.31 530.366H1565.27C1565.27 532.758 1564.52 534.662 1563.03 536.078C1561.57 537.47 1559.59 538.165 1557.1 538.165ZM1576.94 537.799V514.657H1569.79V511.068H1588.07V514.657H1580.89V537.799H1576.94ZM1593.11 537.799V511.068H1609.29V514.693H1596.99V522.676H1608.34V526.338H1597.06V537.799H1593.11ZM1621.4 529.597L1620.59 515.792V511.068H1625.06V515.792L1624.25 529.597H1621.4ZM1622.28 537.982C1621.59 537.982 1621.03 537.775 1620.59 537.36C1620.15 536.92 1619.93 536.359 1619.93 535.675C1619.93 534.992 1620.15 534.443 1620.59 534.028C1621.03 533.588 1621.59 533.369 1622.28 533.369H1623.38C1624.11 533.369 1624.68 533.588 1625.1 534.028C1625.54 534.443 1625.76 534.98 1625.76 535.639C1625.76 536.322 1625.52 536.884 1625.06 537.323C1624.62 537.763 1624.06 537.982 1623.38 537.982H1622.28Z" fill="#D9D9D9"/>
<path d="M1175.89 594.252V590.664H1183V570.963L1175.86 576.273V571.988L1181.97 567.521H1186.95V590.664H1192.7V594.252H1175.89ZM1199.79 583.963V580.374H1211.51V583.963H1199.79ZM1227.53 594.618C1225.22 594.618 1223.34 594.032 1221.9 592.861C1220.45 591.665 1219.65 590.066 1219.48 588.064H1223.43C1223.53 589.04 1223.93 589.797 1224.64 590.334C1225.35 590.871 1226.33 591.14 1227.57 591.14C1228.96 591.14 1230.01 590.773 1230.72 590.041C1231.45 589.284 1231.82 588.222 1231.82 586.855V584.255C1231.82 582.913 1231.46 581.875 1230.76 581.143C1230.05 580.386 1229 580.008 1227.61 580.008C1226.73 580.008 1225.97 580.215 1225.34 580.63C1224.7 581.045 1224.24 581.595 1223.95 582.278H1220.03L1220.21 567.521H1234.78V571.11H1223.98L1223.91 579.422H1224.02C1224.24 578.567 1224.78 577.896 1225.63 577.408C1226.48 576.92 1227.57 576.675 1228.89 576.675C1231.04 576.675 1232.72 577.347 1233.94 578.689C1235.16 580.008 1235.77 581.863 1235.77 584.255V586.855C1235.77 589.248 1235.04 591.14 1233.58 592.531C1232.14 593.923 1230.12 594.618 1227.53 594.618ZM1271.67 594.618C1269.15 594.618 1267.15 593.923 1265.66 592.531C1264.2 591.115 1263.46 589.211 1263.46 586.819V574.954C1263.46 572.538 1264.2 570.634 1265.66 569.242C1267.15 567.851 1269.15 567.155 1271.67 567.155C1274.16 567.155 1276.13 567.863 1277.6 569.279C1279.09 570.67 1279.83 572.562 1279.83 574.954H1275.88C1275.88 573.563 1275.5 572.501 1274.74 571.769C1274.01 571.036 1272.99 570.67 1271.67 570.67C1270.32 570.67 1269.27 571.036 1268.52 571.769C1267.79 572.501 1267.42 573.551 1267.42 574.918V586.819C1267.42 588.21 1267.79 589.272 1268.52 590.004C1269.27 590.737 1270.32 591.103 1271.67 591.103C1272.99 591.103 1274.01 590.737 1274.74 590.004C1275.5 589.272 1275.88 588.21 1275.88 586.819H1279.83C1279.83 589.211 1279.09 591.115 1277.6 592.531C1276.13 593.923 1274.16 594.618 1271.67 594.618ZM1291.5 594.252V571.11H1284.36V567.521H1302.63V571.11H1295.45V594.252H1291.5ZM1307.67 594.252V567.521H1323.86V571.146H1311.55V579.129H1322.9V582.791H1311.63V594.252H1307.67ZM1336.69 594.582C1334.5 594.582 1332.7 594.081 1331.31 593.08C1329.94 592.055 1329.26 590.676 1329.26 588.943H1333.25C1333.25 589.699 1333.57 590.273 1334.2 590.664C1334.86 591.054 1335.72 591.25 1336.77 591.25H1338.31C1339.53 591.25 1340.43 591.018 1341.02 590.554C1341.63 590.09 1341.93 589.455 1341.93 588.65C1341.93 587.868 1341.65 587.258 1341.09 586.819C1340.53 586.355 1339.71 586.038 1338.64 585.867L1335.89 585.427C1331.81 584.817 1329.77 582.852 1329.77 579.532C1329.77 577.676 1330.38 576.26 1331.6 575.284C1332.85 574.283 1334.63 573.783 1336.95 573.783H1338.34C1340.52 573.783 1342.25 574.271 1343.54 575.247C1344.86 576.199 1345.52 577.481 1345.52 579.092H1341.53C1341.53 578.458 1341.24 577.969 1340.65 577.628C1340.09 577.286 1339.31 577.115 1338.31 577.115H1336.91C1334.72 577.115 1333.62 577.921 1333.62 579.532C1333.62 580.899 1334.58 581.729 1336.51 582.022L1339.29 582.461C1341.52 582.803 1343.15 583.462 1344.2 584.439C1345.25 585.391 1345.78 586.745 1345.78 588.503C1345.78 590.407 1345.14 591.896 1343.87 592.971C1342.63 594.045 1340.76 594.582 1338.27 594.582H1336.69Z" fill="#D9D9D9"/>
<rect x="953" y="564.881" width="193.771" height="33.5666" rx="16.7833" fill="#80A07B"/>
<path d="M1183.73 651.071C1181.95 651.071 1180.39 650.705 1179.04 649.973C1177.73 649.24 1176.69 648.227 1175.93 646.933C1175.2 645.615 1174.83 644.077 1174.83 642.32C1174.83 641.172 1175.04 639.976 1175.46 638.731C1175.89 637.486 1176.52 636.156 1177.32 634.74L1183.47 623.974H1187.76L1180.44 636.424L1180.62 636.571C1181.08 635.863 1181.72 635.313 1182.52 634.923C1183.33 634.508 1184.26 634.3 1185.31 634.3C1186.75 634.3 1188 634.642 1189.08 635.326C1190.18 635.985 1191.03 636.925 1191.64 638.145C1192.25 639.366 1192.56 640.782 1192.56 642.393C1192.56 644.126 1192.18 645.652 1191.42 646.97C1190.69 648.264 1189.66 649.277 1188.34 650.009C1187.03 650.717 1185.49 651.071 1183.73 651.071ZM1183.69 647.629C1185.16 647.629 1186.34 647.165 1187.25 646.238C1188.17 645.286 1188.64 644.028 1188.64 642.466C1188.64 640.928 1188.17 639.683 1187.25 638.731C1186.34 637.755 1185.16 637.266 1183.69 637.266C1182.23 637.266 1181.03 637.755 1180.11 638.731C1179.2 639.683 1178.75 640.928 1178.75 642.466C1178.75 644.028 1179.2 645.286 1180.11 646.238C1181.03 647.165 1182.23 647.629 1183.69 647.629ZM1199.79 640.415V636.827H1211.51V640.415H1199.79ZM1219.81 650.705V647.117H1226.91V627.416L1219.77 632.726V628.441L1225.89 623.974H1230.87V647.117H1236.62V650.705H1219.81ZM1249.56 651.071C1247.03 651.071 1245.01 650.351 1243.52 648.911C1242.03 647.471 1241.29 645.542 1241.29 643.125V631.517C1241.29 629.125 1242.03 627.209 1243.52 625.768C1245.01 624.328 1247.03 623.608 1249.56 623.608C1252.1 623.608 1254.12 624.328 1255.61 625.768C1257.1 627.209 1257.84 629.125 1257.84 631.517V643.125C1257.84 644.736 1257.5 646.14 1256.81 647.336C1256.13 648.508 1255.17 649.424 1253.92 650.083C1252.7 650.742 1251.25 651.071 1249.56 651.071ZM1249.56 647.666C1250.93 647.666 1252.02 647.251 1252.82 646.421C1253.65 645.591 1254.07 644.492 1254.07 643.125V631.517C1254.07 630.175 1253.65 629.088 1252.82 628.258C1252.02 627.428 1250.93 627.013 1249.56 627.013C1248.2 627.013 1247.1 627.428 1246.27 628.258C1245.46 629.088 1245.06 630.175 1245.06 631.517V643.125C1245.06 644.492 1245.46 645.591 1246.27 646.421C1247.1 647.251 1248.2 647.666 1249.56 647.666ZM1249.56 639.61C1248.88 639.61 1248.32 639.39 1247.88 638.951C1247.46 638.511 1247.26 637.938 1247.26 637.23C1247.26 636.546 1247.46 635.997 1247.88 635.582C1248.32 635.142 1248.88 634.923 1249.56 634.923C1250.25 634.923 1250.8 635.142 1251.21 635.582C1251.65 635.997 1251.87 636.546 1251.87 637.23C1251.87 637.938 1251.65 638.511 1251.21 638.951C1250.8 639.39 1250.25 639.61 1249.56 639.61ZM1293.62 651.071C1291.11 651.071 1289.11 650.376 1287.62 648.984C1286.15 647.568 1285.42 645.664 1285.42 643.272V631.407C1285.42 628.991 1286.15 627.086 1287.62 625.695C1289.11 624.303 1291.11 623.608 1293.62 623.608C1296.11 623.608 1298.09 624.316 1299.56 625.732C1301.05 627.123 1301.79 629.015 1301.79 631.407H1297.83C1297.83 630.016 1297.46 628.954 1296.7 628.222C1295.97 627.489 1294.94 627.123 1293.62 627.123C1292.28 627.123 1291.23 627.489 1290.47 628.222C1289.74 628.954 1289.38 630.004 1289.38 631.371V643.272C1289.38 644.663 1289.74 645.725 1290.47 646.457C1291.23 647.19 1292.28 647.556 1293.62 647.556C1294.94 647.556 1295.97 647.19 1296.7 646.457C1297.46 645.725 1297.83 644.663 1297.83 643.272H1301.79C1301.79 645.664 1301.05 647.568 1299.56 648.984C1298.09 650.376 1296.11 651.071 1293.62 651.071ZM1313.46 650.705V627.562H1306.32V623.974H1324.59V627.562H1317.41V650.705H1313.46ZM1329.63 650.705V623.974H1345.81V627.599H1333.51V635.582H1344.86V639.244H1333.58V650.705H1329.63ZM1358.65 651.035C1356.45 651.035 1354.66 650.534 1353.27 649.533C1351.9 648.508 1351.22 647.129 1351.22 645.396H1355.21C1355.21 646.152 1355.53 646.726 1356.16 647.117C1356.82 647.507 1357.67 647.702 1358.72 647.702H1360.26C1361.48 647.702 1362.39 647.471 1362.97 647.007C1363.58 646.543 1363.89 645.908 1363.89 645.103C1363.89 644.321 1363.61 643.711 1363.05 643.272C1362.48 642.808 1361.67 642.49 1360.59 642.32L1357.85 641.88C1353.77 641.27 1351.73 639.305 1351.73 635.985C1351.73 634.129 1352.34 632.713 1353.56 631.737C1354.81 630.736 1356.59 630.236 1358.91 630.236H1360.3C1362.47 630.236 1364.2 630.724 1365.5 631.7C1366.82 632.652 1367.48 633.934 1367.48 635.545H1363.48C1363.48 634.911 1363.19 634.422 1362.61 634.081C1362.04 633.739 1361.26 633.568 1360.26 633.568H1358.87C1356.67 633.568 1355.58 634.373 1355.58 635.985C1355.58 637.352 1356.54 638.182 1358.47 638.475L1361.25 638.914C1363.47 639.256 1365.11 639.915 1366.16 640.891C1367.21 641.844 1367.73 643.198 1367.73 644.956C1367.73 646.86 1367.1 648.349 1365.83 649.424C1364.58 650.498 1362.72 651.035 1360.23 651.035H1358.65Z" fill="#D9D9D9"/>
<rect x="953" y="621.334" width="193.771" height="33.5666" rx="16.7833" fill="#88A2AD"/>
<path d="M1175.89 707.158V703.57H1183V683.869L1175.86 689.179V684.894L1181.97 680.427H1186.95V703.57H1192.7V707.158H1175.89ZM1197.85 707.158V703.57H1204.96V683.869L1197.81 689.179V684.894L1203.93 680.427H1208.91V703.57H1214.66V707.158H1197.85ZM1221.75 696.868V693.28H1233.47V696.868H1221.75ZM1241.69 707.158V703.423L1250.52 694.085C1251.59 692.914 1252.38 691.852 1252.9 690.9C1253.41 689.923 1253.67 688.971 1253.67 688.043C1253.67 686.652 1253.27 685.566 1252.49 684.784C1251.74 683.979 1250.69 683.576 1249.34 683.576C1247.98 683.576 1246.89 683.991 1246.09 684.821C1245.3 685.627 1244.91 686.737 1244.91 688.153H1240.96C1241.03 685.688 1241.83 683.722 1243.34 682.258C1244.85 680.793 1246.87 680.061 1249.38 680.061C1251.9 680.061 1253.9 680.769 1255.39 682.185C1256.88 683.576 1257.62 685.48 1257.62 687.897C1257.62 689.264 1257.25 690.643 1256.52 692.035C1255.79 693.402 1254.62 694.94 1253.01 696.649L1246.41 703.57H1258.02V707.158H1241.69ZM1271.52 707.524C1268.98 707.524 1266.97 706.804 1265.48 705.364C1263.99 703.923 1263.24 701.995 1263.24 699.578V687.97C1263.24 685.578 1263.99 683.661 1265.48 682.221C1266.97 680.781 1268.98 680.061 1271.52 680.061C1274.06 680.061 1276.07 680.781 1277.56 682.221C1279.05 683.661 1279.8 685.578 1279.8 687.97V699.578C1279.8 701.189 1279.45 702.593 1278.77 703.789C1278.09 704.961 1277.12 705.876 1275.88 706.536C1274.66 707.195 1273.21 707.524 1271.52 707.524ZM1271.52 704.119C1272.89 704.119 1273.97 703.704 1274.78 702.874C1275.61 702.044 1276.02 700.945 1276.02 699.578V687.97C1276.02 686.628 1275.61 685.541 1274.78 684.711C1273.97 683.881 1272.89 683.466 1271.52 683.466C1270.15 683.466 1269.06 683.881 1268.23 684.711C1267.42 685.541 1267.02 686.628 1267.02 687.97V699.578C1267.02 700.945 1267.42 702.044 1268.23 702.874C1269.06 703.704 1270.15 704.119 1271.52 704.119ZM1271.52 696.063C1270.84 696.063 1270.28 695.843 1269.84 695.404C1269.42 694.964 1269.21 694.391 1269.21 693.683C1269.21 692.999 1269.42 692.45 1269.84 692.035C1270.28 691.595 1270.84 691.376 1271.52 691.376C1272.2 691.376 1272.75 691.595 1273.17 692.035C1273.61 692.45 1273.83 692.999 1273.83 693.683C1273.83 694.391 1273.61 694.964 1273.17 695.404C1272.75 695.843 1272.2 696.063 1271.52 696.063ZM1315.58 707.524C1313.07 707.524 1311.06 706.829 1309.57 705.437C1308.11 704.021 1307.38 702.117 1307.38 699.725V687.86C1307.38 685.444 1308.11 683.539 1309.57 682.148C1311.06 680.756 1313.07 680.061 1315.58 680.061C1318.07 680.061 1320.05 680.769 1321.51 682.185C1323 683.576 1323.75 685.468 1323.75 687.86H1319.79C1319.79 686.469 1319.41 685.407 1318.66 684.675C1317.92 683.942 1316.9 683.576 1315.58 683.576C1314.24 683.576 1313.19 683.942 1312.43 684.675C1311.7 685.407 1311.33 686.457 1311.33 687.824V699.725C1311.33 701.116 1311.7 702.178 1312.43 702.91C1313.19 703.643 1314.24 704.009 1315.58 704.009C1316.9 704.009 1317.92 703.643 1318.66 702.91C1319.41 702.178 1319.79 701.116 1319.79 699.725H1323.75C1323.75 702.117 1323 704.021 1321.51 705.437C1320.05 706.829 1318.07 707.524 1315.58 707.524ZM1335.41 707.158V684.015H1328.27V680.427H1346.54V684.015H1339.37V707.158H1335.41ZM1351.58 707.158V680.427H1367.77V684.052H1355.47V692.035H1366.82V695.697H1355.54V707.158H1351.58ZM1380.61 707.488C1378.41 707.488 1376.62 706.987 1375.22 705.986C1373.86 704.961 1373.17 703.582 1373.17 701.848H1377.17C1377.17 702.605 1377.48 703.179 1378.12 703.57C1378.78 703.96 1379.63 704.155 1380.68 704.155H1382.22C1383.44 704.155 1384.34 703.923 1384.93 703.46C1385.54 702.996 1385.84 702.361 1385.84 701.556C1385.84 700.774 1385.56 700.164 1385 699.725C1384.44 699.261 1383.62 698.943 1382.55 698.773L1379.8 698.333C1375.73 697.723 1373.69 695.758 1373.69 692.438C1373.69 690.582 1374.3 689.166 1375.52 688.19C1376.76 687.189 1378.54 686.689 1380.86 686.689H1382.26C1384.43 686.689 1386.16 687.177 1387.46 688.153C1388.77 689.105 1389.43 690.387 1389.43 691.998H1385.44C1385.44 691.363 1385.15 690.875 1384.56 690.533C1384 690.192 1383.22 690.021 1382.22 690.021H1380.83C1378.63 690.021 1377.53 690.826 1377.53 692.438C1377.53 693.805 1378.5 694.635 1380.42 694.928L1383.21 695.367C1385.43 695.709 1387.06 696.368 1388.11 697.344C1389.16 698.296 1389.69 699.651 1389.69 701.409C1389.69 703.313 1389.05 704.802 1387.78 705.876C1386.54 706.951 1384.67 707.488 1382.18 707.488H1380.61Z" fill="#D9D9D9"/>
<rect x="953" y="677.787" width="193.771" height="33.5666" rx="16.7833" fill="#A997BF"/>
<path d="M1175.13 763.611V736.88H1180L1182.71 745.448C1182.97 746.278 1183.19 747.06 1183.36 747.792C1183.54 748.5 1183.66 749.049 1183.73 749.44C1183.8 749.049 1183.93 748.488 1184.1 747.755C1184.27 747.023 1184.49 746.242 1184.76 745.412L1187.39 736.88H1192.26V763.611H1188.53V751.674C1188.53 749.379 1188.61 747.182 1188.78 745.082C1188.98 742.958 1189.2 740.932 1189.44 739.004L1185.45 752.003H1181.9L1177.87 739.15C1178.12 740.932 1178.35 742.836 1178.57 744.863C1178.79 746.889 1178.9 749.159 1178.9 751.674V763.611H1175.13ZM1205.65 763.941C1203.14 763.941 1201.15 763.245 1199.68 761.853C1198.24 760.437 1197.52 758.533 1197.52 756.141V750.941C1197.52 748.549 1198.24 746.657 1199.68 745.265C1201.15 743.849 1203.14 743.141 1205.65 743.141C1208.17 743.141 1210.16 743.849 1211.62 745.265C1213.08 746.657 1213.82 748.549 1213.82 750.941V756.141C1213.82 758.533 1213.08 760.437 1211.62 761.853C1210.16 763.245 1208.17 763.941 1205.65 763.941ZM1205.65 760.462C1206.97 760.462 1207.99 760.096 1208.73 759.363C1209.48 758.607 1209.86 757.532 1209.86 756.141V750.941C1209.86 749.55 1209.48 748.488 1208.73 747.755C1207.99 746.999 1206.97 746.62 1205.65 746.62C1204.33 746.62 1203.31 746.999 1202.58 747.755C1201.84 748.488 1201.48 749.55 1201.48 750.941V756.141C1201.48 757.532 1201.84 758.607 1202.58 759.363C1203.31 760.096 1204.33 760.462 1205.65 760.462ZM1220.32 763.611V743.471H1224.2V747.316H1224.28C1224.47 745.998 1225.04 744.972 1226 744.24C1226.95 743.483 1228.18 743.105 1229.69 743.105C1231.77 743.105 1233.43 743.776 1234.67 745.119C1235.94 746.462 1236.58 748.28 1236.58 750.575V752.113H1232.51V750.905C1232.51 749.513 1232.15 748.439 1231.42 747.682C1230.71 746.925 1229.68 746.547 1228.34 746.547C1225.63 746.547 1224.28 748.048 1224.28 751.051V763.611H1220.32ZM1249.56 763.977C1247.93 763.977 1246.5 763.66 1245.28 763.025C1244.06 762.366 1243.11 761.451 1242.42 760.279C1241.76 759.107 1241.43 757.74 1241.43 756.178V750.905C1241.43 749.342 1241.76 747.975 1242.42 746.803C1243.11 745.632 1244.06 744.728 1245.28 744.094C1246.5 743.434 1247.93 743.105 1249.56 743.105C1251.22 743.105 1252.66 743.434 1253.89 744.094C1255.11 744.728 1256.05 745.632 1256.7 746.803C1257.39 747.975 1257.73 749.342 1257.73 750.905V754.493H1245.24V756.178C1245.24 759.229 1246.7 760.755 1249.6 760.755C1251.97 760.755 1253.34 759.961 1253.7 758.375H1257.62C1257.33 760.083 1256.45 761.451 1254.98 762.476C1253.52 763.477 1251.71 763.977 1249.56 763.977ZM1245.24 750.905V751.82L1253.89 751.783V750.868C1253.89 749.379 1253.52 748.244 1252.79 747.462C1252.05 746.657 1250.98 746.254 1249.56 746.254C1248.15 746.254 1247.07 746.657 1246.34 747.462C1245.61 748.268 1245.24 749.415 1245.24 750.905ZM1295.67 763.611C1293.89 763.611 1292.48 763.098 1291.43 762.073C1290.38 761.048 1289.85 759.656 1289.85 757.899V747.06H1284.29V743.471H1289.85V737.795H1293.81V743.471H1301.72V747.06H1293.81V757.862C1293.81 758.497 1293.99 759.022 1294.36 759.437C1294.72 759.827 1295.22 760.022 1295.86 760.022H1301.35V763.611H1295.67ZM1307.52 763.611V736.88H1311.48V743.471L1311.44 747.316H1311.48C1311.67 745.998 1312.24 744.972 1313.16 744.24C1314.09 743.483 1315.31 743.105 1316.83 743.105C1318.83 743.105 1320.43 743.752 1321.62 745.046C1322.82 746.315 1323.42 748.036 1323.42 750.209V763.611H1319.46V750.648C1319.46 749.33 1319.11 748.305 1318.4 747.572C1317.69 746.84 1316.73 746.474 1315.51 746.474C1314.26 746.474 1313.27 746.864 1312.54 747.646C1311.83 748.427 1311.48 749.513 1311.48 750.905V763.611H1307.52ZM1335.38 763.977C1333.28 763.977 1331.62 763.44 1330.4 762.366C1329.2 761.267 1328.6 759.778 1328.6 757.899C1328.6 755.994 1329.25 754.505 1330.54 753.431C1331.84 752.333 1333.62 751.783 1335.89 751.783H1341.42V749.916C1341.42 748.817 1341.06 747.975 1340.36 747.389C1339.67 746.779 1338.72 746.474 1337.5 746.474C1336.4 746.474 1335.47 746.718 1334.72 747.206C1333.98 747.67 1333.56 748.28 1333.44 749.037H1329.59C1329.69 747.865 1330.08 746.84 1330.76 745.961C1331.47 745.058 1332.41 744.362 1333.58 743.874C1334.75 743.361 1336.08 743.105 1337.57 743.105C1339.97 743.105 1341.86 743.715 1343.25 744.936C1344.67 746.132 1345.37 747.768 1345.37 749.843V763.611H1341.53V759.986H1341.46C1341.26 761.231 1340.61 762.207 1339.51 762.915C1338.44 763.623 1337.06 763.977 1335.38 763.977ZM1336.55 760.975C1337.96 760.975 1339.12 760.621 1340.03 759.913C1340.95 759.18 1341.42 758.253 1341.42 757.13V754.493H1336C1334.92 754.493 1334.08 754.774 1333.47 755.335C1332.86 755.897 1332.56 756.666 1332.56 757.642C1332.56 758.668 1332.91 759.485 1333.62 760.096C1334.33 760.682 1335.3 760.975 1336.55 760.975ZM1351.44 763.611V743.471H1355.36V747.316H1355.39C1355.59 745.998 1356.15 744.972 1357.08 744.24C1358 743.483 1359.22 743.105 1360.74 743.105C1362.74 743.105 1364.34 743.752 1365.54 745.046C1366.73 746.315 1367.33 748.036 1367.33 750.209V763.611H1363.37V750.648C1363.37 749.33 1363.02 748.317 1362.31 747.609C1361.61 746.901 1360.64 746.547 1359.42 746.547C1358.18 746.547 1357.19 746.925 1356.45 747.682C1355.75 748.439 1355.39 749.513 1355.39 750.905V763.611H1351.44ZM1395.39 763.611V759.876L1404.21 750.538C1405.29 749.367 1406.08 748.305 1406.59 747.353C1407.1 746.376 1407.36 745.424 1407.36 744.496C1407.36 743.105 1406.97 742.019 1406.19 741.237C1405.43 740.432 1404.38 740.029 1403.04 740.029C1401.67 740.029 1400.59 740.444 1399.78 741.274C1399 742.08 1398.61 743.19 1398.61 744.606H1394.65C1394.73 742.141 1395.52 740.175 1397.04 738.711C1398.55 737.246 1400.56 736.514 1403.08 736.514C1405.59 736.514 1407.59 737.222 1409.08 738.637C1410.57 740.029 1411.32 741.933 1411.32 744.35C1411.32 745.717 1410.95 747.096 1410.22 748.488C1409.49 749.855 1408.31 751.393 1406.7 753.102L1400.11 760.022H1411.72V763.611H1395.39ZM1425.22 763.977C1422.68 763.977 1420.66 763.257 1419.17 761.817C1417.69 760.376 1416.94 758.448 1416.94 756.031V744.423C1416.94 742.031 1417.69 740.114 1419.17 738.674C1420.66 737.234 1422.68 736.514 1425.22 736.514C1427.76 736.514 1429.77 737.234 1431.26 738.674C1432.75 740.114 1433.49 742.031 1433.49 744.423V756.031C1433.49 757.642 1433.15 759.046 1432.47 760.242C1431.78 761.414 1430.82 762.329 1429.57 762.989C1428.35 763.648 1426.9 763.977 1425.22 763.977ZM1425.22 760.572C1426.58 760.572 1427.67 760.157 1428.48 759.327C1429.31 758.497 1429.72 757.398 1429.72 756.031V744.423C1429.72 743.08 1429.31 741.994 1428.48 741.164C1427.67 740.334 1426.58 739.919 1425.22 739.919C1423.85 739.919 1422.75 740.334 1421.92 741.164C1421.12 741.994 1420.71 743.08 1420.71 744.423V756.031C1420.71 757.398 1421.12 758.497 1421.92 759.327C1422.75 760.157 1423.85 760.572 1425.22 760.572ZM1425.22 752.516C1424.53 752.516 1423.97 752.296 1423.53 751.857C1423.12 751.417 1422.91 750.844 1422.91 750.136C1422.91 749.452 1423.12 748.903 1423.53 748.488C1423.97 748.048 1424.53 747.829 1425.22 747.829C1425.9 747.829 1426.45 748.048 1426.86 748.488C1427.3 748.903 1427.52 749.452 1427.52 750.136C1427.52 750.844 1427.3 751.417 1426.86 751.857C1426.45 752.296 1425.9 752.516 1425.22 752.516ZM1445.23 760.169V753.321H1438.46V749.733H1445.23V742.849H1449.11V749.733H1455.89V753.321H1449.11V760.169H1445.23ZM1491.23 763.977C1488.72 763.977 1486.72 763.281 1485.23 761.89C1483.76 760.474 1483.03 758.57 1483.03 756.178V744.313C1483.03 741.896 1483.76 739.992 1485.23 738.601C1486.72 737.209 1488.72 736.514 1491.23 736.514C1493.72 736.514 1495.7 737.222 1497.16 738.637C1498.65 740.029 1499.4 741.921 1499.4 744.313H1495.44C1495.44 742.922 1495.07 741.86 1494.31 741.127C1493.58 740.395 1492.55 740.029 1491.23 740.029C1489.89 740.029 1488.84 740.395 1488.08 741.127C1487.35 741.86 1486.99 742.91 1486.99 744.277V756.178C1486.99 757.569 1487.35 758.631 1488.08 759.363C1488.84 760.096 1489.89 760.462 1491.23 760.462C1492.55 760.462 1493.58 760.096 1494.31 759.363C1495.07 758.631 1495.44 757.569 1495.44 756.178H1499.4C1499.4 758.57 1498.65 760.474 1497.16 761.89C1495.7 763.281 1493.72 763.977 1491.23 763.977ZM1511.07 763.611V740.468H1503.93V736.88H1522.2V740.468H1515.02V763.611H1511.07ZM1527.24 763.611V736.88H1543.42V740.505H1531.12V748.488H1542.47V752.15H1531.19V763.611H1527.24ZM1556.26 763.941C1554.06 763.941 1552.27 763.44 1550.88 762.439C1549.51 761.414 1548.83 760.035 1548.83 758.301H1552.82C1552.82 759.058 1553.14 759.632 1553.77 760.022C1554.43 760.413 1555.28 760.608 1556.33 760.608H1557.87C1559.09 760.608 1560 760.376 1560.58 759.913C1561.19 759.449 1561.5 758.814 1561.5 758.008C1561.5 757.227 1561.22 756.617 1560.65 756.178C1560.09 755.714 1559.28 755.396 1558.2 755.225L1555.45 754.786C1551.38 754.176 1549.34 752.211 1549.34 748.891C1549.34 747.035 1549.95 745.619 1551.17 744.643C1552.42 743.642 1554.2 743.141 1556.52 743.141H1557.91C1560.08 743.141 1561.81 743.63 1563.11 744.606C1564.43 745.558 1565.09 746.84 1565.09 748.451H1561.09C1561.09 747.816 1560.8 747.328 1560.22 746.986C1559.65 746.645 1558.87 746.474 1557.87 746.474H1556.48C1554.28 746.474 1553.18 747.279 1553.18 748.891C1553.18 750.258 1554.15 751.088 1556.08 751.381L1558.86 751.82C1561.08 752.162 1562.72 752.821 1563.77 753.797C1564.82 754.749 1565.34 756.104 1565.34 757.862C1565.34 759.766 1564.71 761.255 1563.44 762.329C1562.19 763.404 1560.32 763.941 1557.83 763.941H1556.26ZM1577.48 755.409L1576.68 741.604V736.88H1581.15V741.604L1580.34 755.409H1577.48ZM1578.36 763.794C1577.68 763.794 1577.12 763.587 1576.68 763.172C1576.24 762.732 1576.02 762.171 1576.02 761.487C1576.02 760.804 1576.24 760.254 1576.68 759.839C1577.12 759.4 1577.68 759.18 1578.36 759.18H1579.46C1580.19 759.18 1580.77 759.4 1581.18 759.839C1581.62 760.254 1581.84 760.791 1581.84 761.451C1581.84 762.134 1581.61 762.696 1581.15 763.135C1580.71 763.574 1580.15 763.794 1579.46 763.794H1578.36Z" fill="#D9D9D9"/>
<rect x="953" y="734.24" width="193.771" height="33.5666" rx="16.7833" fill="#BFAE97"/>
</svg>
