<svg width="577" height="281" viewBox="0 0 577 281" fill="none" xmlns="http://www.w3.org/2000/svg">
<mask id="mask0_8_94" style="mask-type:alpha" maskUnits="userSpaceOnUse" x="-1" y="0" width="578" height="282">
<rect x="-0.5" y="0.5" width="577" height="281" fill="#0F0F0F" stroke="#272727"/>
</mask>
<g mask="url(#mask0_8_94)">
<path d="M574.579 58.1977C571.538 63.468 564.799 65.2742 559.529 62.2316L525.894 42.8121C520.624 39.7699 518.819 33.0322 521.861 27.763L560.407 -39L613.113 -8.56997L574.579 58.1977Z" fill="#E9D3B6"/>
<circle cx="535.877" cy="64.489" r="24.9249" transform="rotate(-150 535.877 64.489)" fill="#F4E9DB"/>
<circle cx="533.984" cy="73.1628" r="1.60661" transform="rotate(-137.5 533.984 73.1628)" fill="#0F0F0F"/>
<circle cx="518.671" cy="64.7344" r="1.60661" transform="rotate(-137.5 518.671 64.7344)" fill="#0F0F0F"/>
<path d="M527.76 70.2505C527.98 70.3772 528.26 70.302 528.387 70.0824L529.548 68.071C530.259 66.8405 529.837 65.267 528.607 64.5566C527.376 63.8461 525.803 64.2677 525.092 65.4982L523.931 67.5097C523.804 67.7293 523.879 68.01 524.099 68.1368L527.76 70.2505Z" stroke="#0F0F0F" stroke-width="0.918063" stroke-linejoin="round"/>
<path d="M566 96.5H525.637L525.739 93.6341C525.759 93.0706 525.469 92.6001 525.033 92.3703C524.594 92.1391 524.04 92.1694 523.597 92.5277L518.688 96.5H491C488.515 96.5 486.5 98.5147 486.5 101V127C486.5 129.485 488.515 131.5 491 131.5H566C568.485 131.5 570.5 129.485 570.5 127V101C570.5 98.5147 568.485 96.5 566 96.5Z" fill="#0F0F0F" stroke="#272727"/>
<path d="M498.843 111.09C498.416 111.09 498.047 111.012 497.735 110.856C497.423 110.694 497.18 110.469 497.006 110.181C496.838 109.886 496.754 109.541 496.754 109.145V106.282C496.754 105.886 496.838 105.543 497.006 105.255C497.18 104.961 497.423 104.736 497.735 104.58C498.047 104.418 498.416 104.337 498.843 104.337C499.263 104.337 499.629 104.418 499.941 104.58C500.253 104.736 500.496 104.961 500.671 105.255C500.845 105.543 500.932 105.886 500.932 106.282H499.797C499.797 105.976 499.713 105.741 499.545 105.579C499.383 105.411 499.149 105.327 498.843 105.327C498.537 105.327 498.299 105.408 498.131 105.57C497.963 105.732 497.879 105.967 497.879 106.273V109.145C497.879 109.451 497.963 109.688 498.131 109.856C498.299 110.019 498.537 110.1 498.843 110.1C499.149 110.1 499.383 110.019 499.545 109.856C499.713 109.688 499.797 109.451 499.797 109.145H500.932C500.932 109.541 500.845 109.886 500.671 110.181C500.496 110.469 500.253 110.694 499.941 110.856C499.629 111.012 499.263 111.09 498.843 111.09ZM502.198 111V104.427H503.323V106.048L503.296 106.993H503.314C503.368 106.669 503.509 106.417 503.738 106.237C503.966 106.051 504.263 105.958 504.629 105.958C505.115 105.958 505.502 106.12 505.791 106.444C506.085 106.768 506.232 107.203 506.232 107.749V111H505.106V107.866C505.106 107.566 505.025 107.335 504.863 107.173C504.707 107.011 504.494 106.93 504.224 106.93C503.942 106.93 503.72 107.014 503.557 107.182C503.401 107.35 503.323 107.59 503.323 107.902V111H502.198ZM509.614 111.09C509.194 111.09 508.828 111.009 508.515 110.847C508.203 110.685 507.96 110.46 507.786 110.172C507.618 109.877 507.534 109.535 507.534 109.145V107.902C507.534 107.512 507.618 107.173 507.786 106.885C507.96 106.591 508.203 106.363 508.515 106.201C508.828 106.039 509.194 105.958 509.614 105.958C510.028 105.958 510.388 106.039 510.694 106.201C511.007 106.363 511.247 106.591 511.415 106.885C511.589 107.173 511.676 107.512 511.676 107.902V108.794H508.623V109.145C508.623 109.847 508.957 110.199 509.623 110.199C510.139 110.199 510.442 110.028 510.532 109.685H511.64C511.556 110.112 511.328 110.454 510.956 110.712C510.589 110.964 510.142 111.09 509.614 111.09ZM508.623 107.902V108.092L510.586 108.083V107.893C510.586 107.551 510.505 107.29 510.343 107.11C510.181 106.924 509.938 106.831 509.614 106.831C509.284 106.831 509.035 106.924 508.867 107.11C508.704 107.296 508.623 107.56 508.623 107.902ZM515.031 111.09C514.611 111.09 514.242 111.012 513.923 110.856C513.611 110.694 513.368 110.469 513.194 110.181C513.02 109.886 512.933 109.541 512.933 109.145V107.902C512.933 107.506 513.02 107.164 513.194 106.876C513.368 106.582 513.611 106.357 513.923 106.201C514.242 106.039 514.611 105.958 515.031 105.958C515.655 105.958 516.154 106.12 516.526 106.444C516.898 106.762 517.093 107.197 517.111 107.749H516.012C515.994 107.491 515.895 107.293 515.715 107.155C515.541 107.011 515.313 106.939 515.031 106.939C514.731 106.939 514.494 107.023 514.32 107.191C514.146 107.353 514.059 107.587 514.059 107.893V109.145C514.059 109.451 514.146 109.688 514.32 109.856C514.494 110.025 514.731 110.109 515.031 110.109C515.319 110.109 515.55 110.04 515.724 109.901C515.898 109.757 515.994 109.556 516.012 109.298H517.111C517.093 109.85 516.898 110.289 516.526 110.613C516.154 110.931 515.655 111.09 515.031 111.09ZM518.422 111V104.427H519.548V107.993H520.34L521.547 106.048H522.798L521.304 108.443L522.825 111H521.547L520.34 108.947H519.548V111H518.422ZM531.201 111.081C530.565 111.081 530.061 110.907 529.689 110.559C529.316 110.205 529.13 109.73 529.13 109.136V107.911C529.13 107.317 529.316 106.846 529.689 106.498C530.061 106.144 530.565 105.967 531.201 105.967C531.838 105.967 532.342 106.144 532.714 106.498C533.086 106.846 533.272 107.314 533.272 107.902V109.136C533.272 109.73 533.086 110.205 532.714 110.559C532.342 110.907 531.838 111.081 531.201 111.081ZM531.201 110.1C531.501 110.1 531.733 110.019 531.895 109.856C532.063 109.688 532.147 109.448 532.147 109.136V107.911C532.147 107.599 532.063 107.362 531.895 107.2C531.733 107.032 531.501 106.948 531.201 106.948C530.901 106.948 530.667 107.032 530.499 107.2C530.337 107.362 530.256 107.599 530.256 107.911V109.136C530.256 109.448 530.337 109.688 530.499 109.856C530.667 110.019 530.901 110.1 531.201 110.1ZM536.6 111.09C535.97 111.09 535.475 110.916 535.115 110.568C534.755 110.214 534.574 109.733 534.574 109.127V106.048H535.7V109.118C535.7 109.436 535.778 109.682 535.934 109.856C536.09 110.025 536.312 110.109 536.6 110.109C536.883 110.109 537.102 110.025 537.258 109.856C537.42 109.682 537.501 109.436 537.501 109.118V106.048H538.626V109.127C538.626 109.733 538.443 110.214 538.077 110.568C537.711 110.916 537.219 111.09 536.6 111.09ZM542.54 111C542.078 111 541.708 110.868 541.432 110.604C541.162 110.334 541.027 109.97 541.027 109.514V107.065H539.685V106.048H541.027V104.652H542.162V106.048H544.062V107.065H542.162V109.487C542.162 109.631 542.201 109.751 542.279 109.847C542.363 109.937 542.477 109.983 542.621 109.983H543.971V111H542.54ZM550.538 111V106.048H551.456V106.714H551.501C551.531 106.486 551.621 106.303 551.771 106.165C551.921 106.027 552.107 105.958 552.33 105.958C552.534 105.958 552.711 106.027 552.861 106.165C553.011 106.303 553.113 106.486 553.167 106.714H553.194C553.23 106.486 553.323 106.303 553.473 106.165C553.629 106.027 553.821 105.958 554.049 105.958C554.343 105.958 554.584 106.078 554.77 106.318C554.962 106.552 555.058 106.855 555.058 107.227V111H554.085V107.308C554.085 106.96 553.941 106.786 553.653 106.786C553.365 106.786 553.221 106.96 553.221 107.308V111H552.375V107.308C552.375 106.96 552.23 106.786 551.942 106.786C551.66 106.786 551.519 106.96 551.519 107.308V111H550.538ZM556.99 112.621L557.693 110.73L555.784 106.048H557.008L557.981 108.578C558.035 108.716 558.086 108.884 558.134 109.082C558.182 109.274 558.218 109.433 558.242 109.559C558.272 109.433 558.311 109.274 558.359 109.082C558.413 108.884 558.464 108.716 558.512 108.578L559.439 106.048H560.61L558.17 112.621H556.99ZM499.608 123C499.116 123 498.72 122.853 498.419 122.559C498.125 122.265 497.978 121.877 497.978 121.397V117.444H496.348V116.427H499.104V121.37C499.104 121.556 499.155 121.706 499.257 121.82C499.365 121.928 499.509 121.983 499.689 121.983H501.139V123H499.608ZM503.657 123.09C503.146 123.09 502.744 122.958 502.45 122.694C502.156 122.424 502.009 122.058 502.009 121.595C502.009 121.109 502.177 120.734 502.513 120.47C502.849 120.2 503.317 120.065 503.918 120.065H505.106V119.65C505.106 119.41 505.028 119.224 504.872 119.092C504.716 118.96 504.497 118.894 504.215 118.894C503.957 118.894 503.744 118.948 503.575 119.056C503.413 119.164 503.323 119.308 503.305 119.488H502.234C502.258 119.026 502.453 118.657 502.819 118.381C503.191 118.099 503.669 117.958 504.251 117.958C504.863 117.958 505.346 118.108 505.701 118.408C506.055 118.708 506.232 119.119 506.232 119.641V123H505.142V122.163H505.124C505.058 122.451 504.896 122.679 504.638 122.847C504.38 123.009 504.053 123.09 503.657 123.09ZM504.026 122.253C504.344 122.253 504.602 122.175 504.8 122.019C505.004 121.856 505.106 121.643 505.106 121.379V120.785H503.945C503.693 120.785 503.494 120.851 503.35 120.983C503.206 121.109 503.134 121.283 503.134 121.505C503.134 121.739 503.212 121.922 503.368 122.055C503.53 122.187 503.75 122.253 504.026 122.253ZM510.145 123C509.683 123 509.314 122.868 509.038 122.604C508.767 122.334 508.632 121.97 508.632 121.514V119.065H507.291V118.048H508.632V116.652H509.767V118.048H511.667V119.065H509.767V121.487C509.767 121.631 509.806 121.751 509.884 121.847C509.968 121.937 510.082 121.983 510.226 121.983H511.577V123H510.145ZM515.013 123.09C514.593 123.09 514.227 123.009 513.914 122.847C513.602 122.685 513.359 122.46 513.185 122.172C513.017 121.877 512.933 121.535 512.933 121.145V119.902C512.933 119.512 513.017 119.173 513.185 118.885C513.359 118.591 513.602 118.363 513.914 118.201C514.227 118.039 514.593 117.958 515.013 117.958C515.427 117.958 515.787 118.039 516.094 118.201C516.406 118.363 516.646 118.591 516.814 118.885C516.988 119.173 517.075 119.512 517.075 119.902V120.794H514.023V121.145C514.023 121.847 514.356 122.199 515.022 122.199C515.538 122.199 515.841 122.028 515.931 121.685H517.039C516.955 122.112 516.727 122.454 516.355 122.712C515.988 122.964 515.541 123.09 515.013 123.09ZM514.023 119.902V120.092L515.985 120.083V119.893C515.985 119.551 515.904 119.29 515.742 119.11C515.58 118.924 515.337 118.831 515.013 118.831C514.683 118.831 514.434 118.924 514.266 119.11C514.104 119.296 514.023 119.56 514.023 119.902ZM520.214 123.081C519.836 123.081 519.503 123.024 519.215 122.91C518.926 122.79 518.701 122.622 518.539 122.406C518.383 122.19 518.305 121.934 518.305 121.64H519.44C519.44 121.814 519.509 121.949 519.647 122.046C519.791 122.136 519.983 122.181 520.223 122.181H520.61C520.892 122.181 521.102 122.13 521.241 122.028C521.379 121.925 521.448 121.784 521.448 121.604C521.448 121.262 521.192 121.052 520.682 120.974L519.989 120.884C518.95 120.734 518.431 120.239 518.431 119.398C518.431 118.93 518.587 118.576 518.899 118.336C519.218 118.09 519.677 117.967 520.277 117.967H520.619C521.177 117.967 521.625 118.093 521.961 118.345C522.303 118.591 522.474 118.918 522.474 119.326H521.34C521.34 119.182 521.277 119.071 521.15 118.993C521.024 118.909 520.844 118.867 520.61 118.867H520.268C519.776 118.867 519.53 119.044 519.53 119.398C519.53 119.704 519.749 119.89 520.187 119.957L520.889 120.065C521.448 120.143 521.862 120.305 522.132 120.551C522.408 120.797 522.546 121.139 522.546 121.577C522.546 122.052 522.381 122.421 522.051 122.685C521.727 122.949 521.247 123.081 520.61 123.081H520.214ZM526.342 123C525.88 123 525.511 122.868 525.235 122.604C524.965 122.334 524.83 121.97 524.83 121.514V119.065H523.488V118.048H524.83V116.652H525.964V118.048H527.864V119.065H525.964V121.487C525.964 121.631 526.003 121.751 526.081 121.847C526.165 121.937 526.279 121.983 526.424 121.983H527.774V123H526.342ZM534.592 124.621V118.048H535.691V118.939H535.709C535.799 118.627 535.958 118.387 536.186 118.219C536.42 118.045 536.708 117.958 537.051 117.958C537.537 117.958 537.927 118.129 538.221 118.471C538.521 118.813 538.671 119.272 538.671 119.848V121.19C538.671 121.772 538.521 122.235 538.221 122.577C537.927 122.919 537.537 123.09 537.051 123.09C536.714 123.09 536.429 123.006 536.195 122.838C535.961 122.664 535.799 122.421 535.709 122.109H535.691L535.718 123.234V124.621H534.592ZM536.636 122.118C536.925 122.118 537.147 122.034 537.303 121.865C537.465 121.697 537.546 121.457 537.546 121.145V119.902C537.546 119.59 537.465 119.35 537.303 119.182C537.147 119.014 536.925 118.93 536.636 118.93C536.348 118.93 536.123 119.017 535.961 119.191C535.799 119.365 535.718 119.611 535.718 119.93V121.118C535.718 121.436 535.799 121.682 535.961 121.856C536.123 122.031 536.348 122.118 536.636 122.118ZM542 123.081C541.363 123.081 540.859 122.907 540.487 122.559C540.115 122.205 539.929 121.73 539.929 121.136V119.911C539.929 119.317 540.115 118.846 540.487 118.498C540.859 118.144 541.363 117.967 542 117.967C542.636 117.967 543.14 118.144 543.512 118.498C543.884 118.846 544.071 119.314 544.071 119.902V121.136C544.071 121.73 543.884 122.205 543.512 122.559C543.14 122.907 542.636 123.081 542 123.081ZM542 122.1C542.3 122.1 542.531 122.019 542.693 121.856C542.861 121.688 542.945 121.448 542.945 121.136V119.911C542.945 119.599 542.861 119.362 542.693 119.2C542.531 119.032 542.3 118.948 542 118.948C541.699 118.948 541.465 119.032 541.297 119.2C541.135 119.362 541.054 119.599 541.054 119.911V121.136C541.054 121.448 541.135 121.688 541.297 121.856C541.465 122.019 541.699 122.1 542 122.1ZM547.21 123.081C546.831 123.081 546.498 123.024 546.21 122.91C545.922 122.79 545.697 122.622 545.535 122.406C545.379 122.19 545.301 121.934 545.301 121.64H546.435C546.435 121.814 546.504 121.949 546.642 122.046C546.786 122.136 546.978 122.181 547.219 122.181H547.606C547.888 122.181 548.098 122.13 548.236 122.028C548.374 121.925 548.443 121.784 548.443 121.604C548.443 121.262 548.188 121.052 547.678 120.974L546.984 120.884C545.946 120.734 545.427 120.239 545.427 119.398C545.427 118.93 545.583 118.576 545.895 118.336C546.213 118.09 546.672 117.967 547.273 117.967H547.615C548.173 117.967 548.62 118.093 548.956 118.345C549.299 118.591 549.47 118.918 549.47 119.326H548.335C548.335 119.182 548.272 119.071 548.146 118.993C548.02 118.909 547.84 118.867 547.606 118.867H547.264C546.771 118.867 546.525 119.044 546.525 119.398C546.525 119.704 546.744 119.89 547.183 119.957L547.885 120.065C548.443 120.143 548.857 120.305 549.127 120.551C549.404 120.797 549.542 121.139 549.542 121.577C549.542 122.052 549.377 122.421 549.046 122.685C548.722 122.949 548.242 123.081 547.606 123.081H547.21ZM553.338 123C552.876 123 552.507 122.868 552.23 122.604C551.96 122.334 551.825 121.97 551.825 121.514V119.065H550.484V118.048H551.825V116.652H552.96V118.048H554.86V119.065H552.96V121.487C552.96 121.631 552.999 121.751 553.077 121.847C553.161 121.937 553.275 121.983 553.419 121.983H554.77V123H553.338ZM557.783 120.902L557.585 117.669V116.427H558.809V117.669L558.611 120.902H557.783ZM558.062 123.045C557.876 123.045 557.726 122.991 557.612 122.883C557.498 122.769 557.44 122.625 557.44 122.451C557.44 122.277 557.498 122.136 557.612 122.028C557.726 121.913 557.876 121.856 558.062 121.856H558.332C558.524 121.856 558.674 121.913 558.782 122.028C558.896 122.136 558.953 122.277 558.953 122.451C558.953 122.625 558.893 122.769 558.773 122.883C558.659 122.991 558.509 123.045 558.323 123.045H558.062Z" fill="white"/>
</g>
</svg>
