<svg width="280" height="280" viewBox="0 0 280 280" fill="none" xmlns="http://www.w3.org/2000/svg">
<g clip-path="url(#clip0_307_357)">
<rect width="280" height="280" rx="24" fill="#0F0F0F"/>
<mask id="mask0_307_357" style="mask-type:alpha" maskUnits="userSpaceOnUse" x="45" y="239" width="112" height="112">
<circle cx="100.825" cy="295.268" r="55.3437" transform="rotate(-90 100.825 295.268)" fill="#C4C4C4"/>
</mask>
<g mask="url(#mask0_307_357)">
<path d="M74.7522 340.427L48.6796 295.268L74.7522 250.109L126.897 250.109L152.97 295.268L126.897 340.427L74.7522 340.427Z" fill="#0F0F0F" stroke="#1D1D1D" stroke-width="5.54"/>
<ellipse cx="100.418" cy="295.172" rx="25.8996" ry="25.2713" fill="#252525"/>
</g>
<mask id="mask1_307_357" style="mask-type:alpha" maskUnits="userSpaceOnUse" x="45" y="151" width="112" height="112">
<circle cx="100.825" cy="206.718" r="55.3437" transform="rotate(-90 100.825 206.718)" fill="#C4C4C4"/>
</mask>
<g mask="url(#mask1_307_357)">
<path d="M74.7522 251.877L48.6796 206.718L74.7522 161.559L126.897 161.559L152.97 206.718L126.897 251.877L74.7522 251.877Z" fill="#0F0F0F" stroke="#1D1D1D" stroke-width="5.54"/>
<path d="M126.318 207.172C126.318 221.128 114.722 232.443 100.418 232.443C86.1145 232.443 74.5188 221.128 74.5188 207.172C74.5188 193.215 86.1145 181.9 100.418 181.9C114.722 181.9 126.318 193.215 126.318 207.172Z" fill="#252525"/>
<path d="M100.677 189.622C99.154 189.629 97.7003 189.754 96.4205 189.973C92.6511 190.617 91.9672 191.964 91.9672 194.448V197.728H100.874V198.822H88.6241C86.0356 198.822 83.7689 200.325 83.0598 203.186C82.2417 206.464 82.2056 208.51 83.0598 211.934C83.6928 214.482 85.2049 216.297 87.7938 216.297H90.8565V212.365C90.8565 209.524 93.3999 207.018 96.4209 207.018H105.318C107.794 207.018 109.771 205.047 109.771 202.644V194.448C109.771 192.115 107.735 190.363 105.318 189.974C103.787 189.728 102.199 189.616 100.677 189.622ZM95.86 192.261C96.7798 192.261 97.5315 192.999 97.5315 193.906C97.5315 194.81 96.7801 195.541 95.86 195.541C94.9365 195.541 94.1888 194.81 94.1888 193.906C94.1884 192.999 94.9365 192.261 95.86 192.261Z" fill="#E9D3B6"/>
<path d="M110.165 198.748V202.442C110.165 205.305 107.638 207.714 104.758 207.714H96.1126C93.7446 207.714 91.7853 209.662 91.7853 211.941V219.861C91.7853 222.115 93.8245 223.441 96.1126 224.087C98.8521 224.861 101.48 225.001 104.758 224.087C106.937 223.481 109.085 222.261 109.085 219.861V216.691H100.44V215.634H113.413C115.928 215.634 116.866 213.948 117.741 211.418C118.645 208.812 118.606 206.307 117.741 202.965C117.119 200.558 115.932 198.748 113.413 198.748L110.165 198.748ZM105.302 218.804C106.2 218.804 106.926 219.511 106.926 220.385C106.926 221.261 106.199 221.974 105.302 221.974C104.408 221.974 103.678 221.261 103.678 220.385C103.678 219.511 104.408 218.804 105.302 218.804Z" fill="#8C7F6D"/>
</g>
<mask id="mask2_307_357" style="mask-type:alpha" maskUnits="userSpaceOnUse" x="45" y="62" width="112" height="112">
<circle cx="100.825" cy="118.169" r="55.3437" transform="rotate(-90 100.825 118.169)" fill="#C4C4C4"/>
</mask>
<g mask="url(#mask2_307_357)">
<path d="M74.7522 163.328L48.6796 118.169L74.7522 73.0095L126.897 73.0095L152.97 118.169L126.897 163.328L74.7522 163.328Z" fill="#0F0F0F" stroke="#1D1D1D" stroke-width="5.54"/>
<path d="M126.318 118.172C126.318 132.128 114.722 143.443 100.418 143.443C86.1145 143.443 74.5188 132.128 74.5188 118.172C74.5188 104.215 86.1145 92.9003 100.418 92.9003C114.722 92.9003 126.318 104.215 126.318 118.172Z" fill="#252525"/>
<path d="M90.3464 113.96H114.088V131.509H90.3464V113.96Z" fill="#252525"/>
<path d="M85.3104 132.913H115.527V103.43H85.3104V132.913ZM109.66 116.992C110.384 117.156 111.041 117.525 111.55 118.054C111.83 118.338 112.074 118.655 112.275 118.997C112.275 119.035 110.97 119.896 110.175 120.377C110.146 120.396 110.03 120.273 109.902 120.087C109.756 119.842 109.55 119.638 109.302 119.492C109.054 119.347 108.772 119.265 108.483 119.254C107.566 119.193 106.977 119.662 106.981 120.433C106.974 120.626 107.019 120.816 107.112 120.985C107.313 121.393 107.687 121.636 108.862 122.132C111.026 123.04 111.951 123.639 112.527 124.49C113.17 125.434 113.312 126.958 112.877 128.085C112.394 129.311 111.209 130.144 109.534 130.42C108.769 130.506 107.996 130.498 107.233 130.396C106.063 130.208 104.986 129.66 104.158 128.833C103.88 128.533 103.339 127.752 103.372 127.696C103.461 127.632 103.554 127.574 103.65 127.524L104.77 126.92L105.637 126.429L105.819 126.691C106.125 127.118 106.514 127.482 106.965 127.762C107.931 128.257 109.251 128.189 109.904 127.616C110.123 127.406 110.26 127.127 110.29 126.829C110.321 126.531 110.243 126.232 110.071 125.983C109.829 125.656 109.346 125.38 107.994 124.804C106.435 124.148 105.763 123.743 105.149 123.096C104.766 122.67 104.483 122.167 104.32 121.622C104.199 121 104.181 120.363 104.267 119.735C104.588 118.266 105.717 117.24 107.366 116.936C108.129 116.843 108.903 116.864 109.66 116.997V116.992ZM102.567 118.228V119.436H98.6442V130.34H95.8619V119.433H91.9289V118.254C91.9167 117.847 91.9264 117.44 91.9579 117.035C91.9773 117.013 94.3752 117.013 97.276 117.013H102.553L102.567 118.228Z" fill="#E9D3B6"/>
</g>
<mask id="mask3_307_357" style="mask-type:alpha" maskUnits="userSpaceOnUse" x="45" y="-26" width="112" height="111">
<circle cx="100.825" cy="29.6187" r="55.3437" transform="rotate(-90 100.825 29.6187)" fill="#C4C4C4"/>
</mask>
<g mask="url(#mask3_307_357)">
<path d="M74.7522 74.7778L48.6796 29.6187L74.7522 -15.5403L126.897 -15.5403L152.97 29.6187L126.897 74.7778L74.7522 74.7778Z" fill="#0F0F0F" stroke="#1D1D1D" stroke-width="5.54"/>
<path d="M126.318 30.1715C126.318 44.1285 114.722 55.4428 100.418 55.4428C86.1145 55.4428 74.5188 44.1285 74.5188 30.1715C74.5188 16.2146 86.1145 4.90027 100.418 4.90027C114.722 4.90027 126.318 16.2146 126.318 30.1715Z" fill="#252525"/>
<path d="M100.778 18.2379C95.3104 18.2379 91.8943 20.8889 90.5263 26.1931C92.576 23.5418 94.9689 22.5476 97.702 23.2105C99.2625 23.5878 100.378 24.6855 101.613 25.9019C103.623 27.8807 105.949 30.1715 111.03 30.1715C116.498 30.1715 119.914 27.5202 121.282 22.2147C119.232 24.8676 116.839 25.8618 114.106 25.1989C112.546 24.8213 111.432 23.7239 110.195 22.5075C108.187 20.5287 105.861 18.2379 100.778 18.2379ZM90.5263 30.1715C85.0588 30.1715 81.6423 32.8229 80.2743 38.1283C82.3241 35.4755 84.7166 34.4812 87.45 35.1442C89.0106 35.5218 90.1258 36.6192 91.3608 37.8356C93.3709 39.8144 95.6974 42.1052 100.778 42.1052C106.246 42.1052 109.662 39.4542 111.03 34.1499C108.98 36.8013 106.588 37.7955 103.854 37.1326C102.294 36.7553 101.18 35.6576 99.9433 34.4412C97.9346 32.4624 95.6087 30.1715 90.5263 30.1715Z" fill="#E9D3B6"/>
</g>
<mask id="mask4_307_357" style="mask-type:alpha" maskUnits="userSpaceOnUse" x="122" y="195" width="112" height="112">
<circle cx="178.306" cy="250.993" r="55.3437" transform="rotate(-90 178.306 250.993)" fill="#C4C4C4"/>
</mask>
<g mask="url(#mask4_307_357)">
<path d="M152.233 296.152L126.161 250.993L152.233 205.834L204.378 205.834L230.451 250.993L204.378 296.152L152.233 296.152Z" fill="#0F0F0F" stroke="#1D1D1D" stroke-width="5.54"/>
<path d="M204.318 251.172C204.318 265.128 192.722 276.443 178.418 276.443C164.115 276.443 152.519 265.128 152.519 251.172C152.519 237.215 164.115 225.9 178.418 225.9C192.722 225.9 204.318 237.215 204.318 251.172Z" fill="#252525"/>
<path d="M163.31 236.43H193.527V265.913H163.31V236.43Z" fill="#1E1E1E"/>
<path d="M191.285 259.012C191.061 257.642 190.151 256.491 187.453 255.418C186.516 254.996 185.471 254.693 185.16 253.997C185.049 253.591 185.035 253.363 185.105 253.118C185.305 252.321 186.275 252.073 187.043 252.301C187.537 252.464 188.006 252.838 188.288 253.435C189.609 252.595 189.606 252.601 190.529 252.024C190.191 251.511 190.011 251.274 189.79 251.054C188.995 250.183 187.913 249.735 186.181 249.769L185.28 249.884C184.415 250.098 183.592 250.543 183.109 251.14C181.66 252.753 182.073 255.575 183.836 256.737C185.573 258.016 188.125 258.307 188.451 259.503C188.769 260.967 187.354 261.441 185.949 261.273C184.913 261.062 184.337 260.545 183.714 259.606C182.568 260.257 182.568 260.257 181.389 260.922C181.668 261.521 181.962 261.793 182.431 262.312C184.648 264.518 190.197 264.41 191.193 261.07C191.233 260.956 191.501 260.191 191.285 259.012ZM179.82 249.946H176.957L176.945 257.208C176.945 258.752 177.027 260.168 176.771 260.602C176.352 261.455 175.266 261.35 174.771 261.184C174.268 260.941 174.012 260.596 173.715 260.108C173.634 259.968 173.573 259.86 173.552 259.851L171.224 261.25C171.611 262.029 172.182 262.706 172.912 263.145C174.003 263.787 175.47 263.984 177.003 263.639C178.002 263.354 178.863 262.763 179.314 261.864C179.966 260.685 179.826 259.258 179.82 257.679C179.835 255.104 179.82 252.529 179.82 249.946Z" fill="#E9D3B6"/>
</g>
<mask id="mask5_307_357" style="mask-type:alpha" maskUnits="userSpaceOnUse" x="122" y="107" width="112" height="111">
<circle cx="178.306" cy="162.444" r="55.3437" transform="rotate(-90 178.306 162.444)" fill="#C4C4C4"/>
</mask>
<g mask="url(#mask5_307_357)">
<path d="M152.233 207.603L126.161 162.444L152.233 117.285L204.378 117.285L230.451 162.444L204.378 207.603L152.233 207.603Z" fill="#0F0F0F" stroke="#1D1D1D" stroke-width="5.54"/>
<ellipse cx="178.418" cy="163.172" rx="25.8996" ry="25.2713" fill="#252525"/>
<path d="M178.45 182.354L194.237 173.459L188.186 170.044L182 173.532C181.947 173.56 181.888 173.574 181.828 173.574C181.768 173.573 181.709 173.558 181.657 173.529C181.604 173.499 181.561 173.457 181.531 173.406C181.5 173.355 181.484 173.297 181.483 173.238V164.957C181.483 164.713 181.612 164.492 181.829 164.371L189.18 160.228C189.233 160.199 189.292 160.184 189.352 160.184C189.412 160.185 189.472 160.201 189.523 160.231C189.631 160.289 189.698 160.399 189.699 160.519V167.49L195.754 170.902V153.113L178.45 162.859V182.354Z" fill="#5D5449"/>
<path d="M174.91 173.535L168.721 170.044L162.665 173.458L178.45 182.354V162.859L161.152 153.113V170.901L167.205 167.49V160.52C167.208 160.4 167.274 160.29 167.38 160.232C167.432 160.202 167.492 160.186 167.552 160.185C167.613 160.185 167.672 160.2 167.725 160.229L175.08 164.371C175.185 164.43 175.272 164.516 175.333 164.619C175.394 164.722 175.426 164.839 175.426 164.957V173.24C175.424 173.36 175.359 173.47 175.253 173.532C175.148 173.593 175.018 173.593 174.91 173.535Z" fill="#8C7F6D"/>
<path d="M179.967 144.218V151.041L186.154 154.526C186.26 154.586 186.324 154.697 186.324 154.819C186.324 154.939 186.259 155.049 186.154 155.109L178.8 159.254C178.695 159.313 178.575 159.343 178.454 159.343C178.332 159.343 178.213 159.313 178.107 159.254L170.756 155.109C170.703 155.08 170.66 155.038 170.63 154.986C170.6 154.935 170.584 154.878 170.584 154.819C170.584 154.76 170.599 154.701 170.63 154.65C170.66 154.598 170.703 154.555 170.756 154.526L176.941 151.041V144.218L161.152 153.113L178.45 162.859L195.753 153.113L179.967 144.218Z" fill="#E9D3B6"/>
</g>
<mask id="mask6_307_357" style="mask-type:alpha" maskUnits="userSpaceOnUse" x="122" y="18" width="112" height="112">
<circle cx="178.306" cy="73.8936" r="55.3437" transform="rotate(-90 178.306 73.8936)" fill="#C4C4C4"/>
</mask>
<g mask="url(#mask6_307_357)">
<path d="M152.233 119.053L126.161 73.8936L152.233 28.7346L204.378 28.7346L230.451 73.8936L204.378 119.053L152.233 119.053Z" fill="#0F0F0F" stroke="#1D1D1D" stroke-width="5.54"/>
<path d="M204.318 74.1715C204.318 88.1285 192.722 99.4428 178.418 99.4428C164.115 99.4428 152.519 88.1285 152.519 74.1715C152.519 60.2146 164.115 48.9003 178.418 48.9003C192.722 48.9003 204.318 60.2146 204.318 74.1715Z" fill="#252525"/>
<path d="M178.778 76.9795C180.566 76.9795 182.016 75.5652 182.016 73.8206C182.016 72.0759 180.566 70.6616 178.778 70.6616C176.99 70.6616 175.541 72.0759 175.541 73.8206C175.541 75.5652 176.99 76.9795 178.778 76.9795Z" fill="#E9D3B6"/>
<path d="M191.965 68.2725C191.295 68.0364 190.595 67.8004 189.864 67.5938C190.047 66.8855 190.199 66.1773 190.321 65.4985C190.96 61.6031 190.26 58.8586 188.311 57.7962C187.732 57.4716 187.092 57.324 186.362 57.324C184.23 57.324 181.519 58.8586 178.778 61.426C176.037 58.8586 173.327 57.324 171.195 57.324C170.464 57.324 169.824 57.4716 169.246 57.7962C167.297 58.8881 166.596 61.6326 167.236 65.4985C167.357 66.1773 167.51 66.8855 167.692 67.5938C166.962 67.8004 166.261 68.0069 165.591 68.2725C161.784 69.689 159.713 71.6368 159.713 73.8206C159.713 76.0043 161.815 77.9521 165.591 79.3686C166.261 79.6047 166.962 79.8408 167.692 80.0473C167.51 80.7556 167.357 81.4638 167.236 82.1426C166.596 86.038 167.297 88.7825 169.246 89.8449C169.824 90.1695 170.464 90.3171 171.195 90.3171C173.357 90.3171 176.068 88.7825 178.778 86.2151C181.519 88.7825 184.23 90.3171 186.362 90.3171C187.092 90.3171 187.732 90.1695 188.311 89.8449C190.26 88.753 190.96 86.0085 190.321 82.1426C190.199 81.4638 190.047 80.7556 189.864 80.0473C190.595 79.8408 191.295 79.6342 191.965 79.3686C195.772 77.9521 197.843 76.0043 197.843 73.8206C197.843 71.6368 195.772 69.689 191.965 68.2725ZM187.458 59.2717C188.707 59.98 189.133 62.1638 188.615 65.2624C188.524 65.8822 188.372 66.5314 188.189 67.2101C186.605 66.856 184.93 66.6199 183.164 66.4724C182.128 65.0559 181.062 63.7869 179.996 62.636C182.25 60.4817 184.534 59.0061 186.392 59.0061C186.788 59.0061 187.153 59.0947 187.458 59.2717ZM184.047 76.7716C183.499 77.716 182.859 78.6603 182.189 79.6047C181.062 79.6932 179.935 79.7227 178.778 79.7227C177.59 79.7227 176.464 79.6932 175.367 79.6047C174.697 78.6603 174.088 77.716 173.54 76.7716C172.961 75.7978 172.413 74.7944 171.926 73.8206C172.413 72.8467 172.961 71.8433 173.54 70.8695C174.088 69.9251 174.728 68.9808 175.398 68.0364C176.525 67.9479 177.651 67.9184 178.809 67.9184C179.996 67.9184 181.123 67.9479 182.22 68.0364C182.89 68.9808 183.499 69.9251 184.047 70.8695C184.626 71.8433 185.174 72.8467 185.661 73.8206C185.143 74.7944 184.626 75.7683 184.047 76.7716ZM186.575 75.7978C187.032 76.8307 187.397 77.834 187.732 78.8374C186.697 79.0735 185.6 79.2505 184.443 79.3981C184.808 78.8374 185.204 78.2472 185.539 77.6274C185.905 77.0077 186.24 76.388 186.575 75.7978ZM178.778 83.7952C178.047 83.0279 177.347 82.2016 176.677 81.3458C177.377 81.3753 178.078 81.4048 178.778 81.4048C179.479 81.4048 180.179 81.3753 180.88 81.3458C180.21 82.2016 179.509 83.0279 178.778 83.7952ZM173.114 79.3686C171.956 79.221 170.86 79.044 169.824 78.8079C170.159 77.834 170.525 76.8011 170.982 75.7683C171.317 76.3585 171.652 76.9782 172.017 77.5684C172.383 78.2177 172.748 78.7784 173.114 79.3686ZM170.982 71.8433C170.525 70.8105 170.159 69.8071 169.824 68.8037C170.86 68.5676 171.956 68.3906 173.114 68.243C172.748 68.8037 172.352 69.3939 172.017 70.0137C171.652 70.6334 171.317 71.2531 170.982 71.8433ZM178.778 63.8459C179.509 64.6132 180.21 65.4395 180.88 66.2953C180.179 66.2658 179.479 66.2363 178.778 66.2363C178.078 66.2363 177.377 66.2658 176.677 66.2953C177.347 65.4395 178.047 64.6132 178.778 63.8459ZM185.539 70.0432L184.443 68.2725C185.6 68.4201 186.697 68.5971 187.732 68.8332C187.397 69.8071 187.032 70.84 186.575 71.8728C186.24 71.2531 185.905 70.6334 185.539 70.0432ZM168.941 65.2624C168.423 62.1638 168.85 59.98 170.098 59.2717C170.403 59.0947 170.768 59.0061 171.164 59.0061C172.992 59.0061 175.276 60.4522 177.56 62.636C176.494 63.7574 175.428 65.0559 174.393 66.4724C172.626 66.6199 170.951 66.8855 169.368 67.2101C169.185 66.5314 169.063 65.8822 168.941 65.2624ZM161.419 73.8206C161.419 72.4335 163.155 70.958 166.2 69.8661C166.809 69.63 167.479 69.4234 168.149 69.2464C168.637 70.7219 169.246 72.286 169.977 73.8501C169.246 75.4141 168.606 76.9487 168.149 78.4242C163.946 77.2438 161.419 75.4732 161.419 73.8206ZM170.098 88.3694C168.85 87.6611 168.423 85.4773 168.941 82.3787C169.033 81.759 169.185 81.1097 169.368 80.431C170.951 80.7851 172.626 81.0212 174.393 81.1687C175.428 82.5853 176.494 83.8542 177.56 85.0051C175.306 87.1594 173.022 88.635 171.164 88.635C170.768 88.635 170.403 88.5464 170.098 88.3694ZM188.615 82.3787C189.133 85.4773 188.707 87.6611 187.458 88.3694C187.153 88.5464 186.788 88.635 186.392 88.635C184.565 88.635 182.281 87.1889 179.996 85.0051C181.062 83.8837 182.128 82.5853 183.164 81.1687C184.93 81.0212 186.605 80.7556 188.189 80.431C188.372 81.1097 188.493 81.759 188.615 82.3787ZM191.356 77.775C190.747 78.0111 190.077 78.2177 189.407 78.3947C188.92 76.9192 188.311 75.3551 187.58 73.791C188.311 72.227 188.95 70.6924 189.407 69.2169C193.61 70.3973 196.138 72.1679 196.138 73.8206C196.138 75.2076 194.371 76.6831 191.356 77.775Z" fill="#E9D3B6"/>
</g>
<mask id="mask7_307_357" style="mask-type:alpha" maskUnits="userSpaceOnUse" x="122" y="-70" width="112" height="111">
<circle cx="178.306" cy="-14.6562" r="55.3437" transform="rotate(-90 178.306 -14.6562)" fill="#C4C4C4"/>
</mask>
<g mask="url(#mask7_307_357)">
<path d="M152.233 30.5029L126.161 -14.6562L152.233 -59.8152L204.378 -59.8152L230.451 -14.6562L204.378 30.5028L152.233 30.5029Z" fill="#0F0F0F" stroke="#1D1D1D" stroke-width="5.54"/>
<path d="M203.799 -14.7288C203.799 -0.771851 192.204 10.5425 177.9 10.5425C163.596 10.5425 152 -0.771851 152 -14.7288C152 -28.6857 163.596 -40.0001 177.9 -40.0001C192.204 -40.0001 203.799 -28.6857 203.799 -14.7288Z" fill="#252525"/>
</g>
<mask id="mask8_307_357" style="mask-type:alpha" maskUnits="userSpaceOnUse" x="200" y="239" width="112" height="112">
<circle cx="255.787" cy="295.268" r="55.3437" transform="rotate(-90 255.787 295.268)" fill="#C4C4C4"/>
</mask>
<g mask="url(#mask8_307_357)">
<path d="M229.714 340.427L203.642 295.268L229.714 250.109L281.86 250.109L307.932 295.268L281.86 340.427L229.714 340.427Z" fill="#0F0F0F" stroke="#1D1D1D" stroke-width="5.54"/>
<ellipse cx="255.418" cy="295.172" rx="25.8996" ry="25.2713" fill="#252525"/>
</g>
<mask id="mask9_307_357" style="mask-type:alpha" maskUnits="userSpaceOnUse" x="200" y="151" width="112" height="112">
<circle cx="255.787" cy="206.718" r="55.3437" transform="rotate(-90 255.787 206.718)" fill="#C4C4C4"/>
</mask>
<g mask="url(#mask9_307_357)">
<path d="M229.714 251.877L203.642 206.718L229.714 161.559L281.86 161.559L307.932 206.718L281.86 251.877L229.714 251.877Z" fill="#0F0F0F" stroke="#1D1D1D" stroke-width="5.54"/>
<path d="M281.318 207.172C281.318 221.128 269.722 232.443 255.418 232.443C241.114 232.443 229.519 221.128 229.519 207.172C229.519 193.215 241.114 181.9 255.418 181.9C269.722 181.9 281.318 193.215 281.318 207.172Z" fill="#252525"/>
<path d="M255.418 190.998L271.601 218.346H239.235L255.418 190.998Z" fill="#E9D3B6"/>
</g>
<mask id="mask10_307_357" style="mask-type:alpha" maskUnits="userSpaceOnUse" x="200" y="62" width="112" height="112">
<circle cx="255.787" cy="118.169" r="55.3437" transform="rotate(-90 255.787 118.169)" fill="#C4C4C4"/>
</mask>
<g mask="url(#mask10_307_357)">
<path d="M229.714 163.328L203.642 118.169L229.714 73.0096L281.86 73.0096L307.932 118.169L281.86 163.328L229.714 163.328Z" fill="#0F0F0F" stroke="#1D1D1D" stroke-width="5.54"/>
<path d="M281.318 118.172C281.318 132.128 269.722 143.443 255.418 143.443C241.114 143.443 229.519 132.128 229.519 118.172C229.519 104.215 241.114 92.9003 255.418 92.9003C269.722 92.9003 281.318 104.215 281.318 118.172Z" fill="#252525"/>
<path d="M270.525 108.292L256.02 100.126C255.78 99.9788 255.449 99.9201 255.089 99.9201C254.728 99.9201 254.398 100.008 254.158 100.126L239.742 108.321C239.232 108.615 238.871 109.349 238.871 109.907V126.269C238.871 126.592 238.932 126.974 239.172 127.297L271.246 109.085C271.066 108.732 270.796 108.468 270.525 108.292Z" fill="#E9D3B6"/>
<path d="M238.871 127.396C239.022 127.633 239.234 127.84 239.445 127.958L254.002 136.216C254.243 136.364 254.576 136.423 254.938 136.423C255.3 136.423 255.633 136.334 255.874 136.216L270.37 127.958C270.884 127.662 271.246 126.922 271.246 126.36V109.875C271.246 109.608 271.216 109.312 271.065 109.046L238.871 127.396Z" fill="#8C7F6D"/>
<path d="M261.616 121.827C260.343 124.063 257.918 125.573 255.16 125.573C251.068 125.573 247.734 122.25 247.734 118.172C247.734 114.093 251.068 110.77 255.16 110.77C257.918 110.77 260.343 112.28 261.616 114.546L265.556 112.28C263.495 108.685 259.615 106.238 255.16 106.238C248.553 106.238 243.188 111.585 243.188 118.172C243.188 124.758 248.553 130.105 255.16 130.105C259.585 130.105 263.465 127.688 265.526 124.123L261.616 121.827ZM265.162 118.836L265.435 117.537H264.162V116.117H265.708L266.071 114.244H267.556L267.193 116.087H268.344L268.708 114.244H270.163L269.799 116.087H270.527V117.507H269.526L269.254 118.806H270.527V120.226H268.981L268.617 122.039H267.132L267.496 120.226H266.344L265.98 122.039H264.525L264.889 120.226H264.162V118.806H265.162V118.836ZM266.617 118.836H267.768L268.041 117.537H266.89L266.617 118.836Z" fill="#252525"/>
</g>
<mask id="mask11_307_357" style="mask-type:alpha" maskUnits="userSpaceOnUse" x="200" y="-26" width="112" height="111">
<circle cx="255.787" cy="29.6187" r="55.3437" transform="rotate(-90 255.787 29.6187)" fill="#C4C4C4"/>
</mask>
<g mask="url(#mask11_307_357)">
<path d="M229.714 74.7778L203.642 29.6187L229.714 -15.5403L281.86 -15.5403L307.932 29.6187L281.86 74.7778L229.714 74.7778Z" fill="#0F0F0F" stroke="#1D1D1D" stroke-width="5.54"/>
<path d="M281.318 30.1715C281.318 44.1285 269.722 55.4428 255.418 55.4428C241.114 55.4428 229.519 44.1285 229.519 30.1715C229.519 16.2146 241.114 4.90027 255.418 4.90027C269.722 4.90027 281.318 16.2146 281.318 30.1715Z" fill="#252525"/>
<path d="M255.808 12.622L240.34 21.426L240.31 38.9755L255.746 47.721L271.216 38.917L271.246 21.3675L255.808 12.622ZM262.972 37.6886L261.547 38.5046L260.11 37.6652V31.6194H251.447V37.6886L250.022 38.5046L248.584 37.6652V22.6457L250.015 21.8385L251.447 22.6618V28.7237H260.11V22.6545L261.542 21.8472L262.972 22.6706V37.6886Z" fill="#E9D3B6"/>
</g>
<mask id="mask12_307_357" style="mask-type:alpha" maskUnits="userSpaceOnUse" x="-32" y="195" width="111" height="112">
<circle cx="23.3437" cy="250.993" r="55.3437" transform="rotate(-90 23.3437 250.993)" fill="#C4C4C4"/>
</mask>
<g mask="url(#mask12_307_357)">
<path d="M-2.72889 296.152L-28.8015 250.993L-2.72889 205.834L49.4163 205.834L75.4888 250.993L49.4163 296.152L-2.72889 296.152Z" fill="#0F0F0F" stroke="#1D1D1D" stroke-width="5.54"/>
<path d="M48.7993 251.271C48.7993 265.228 37.2036 276.543 22.8996 276.543C8.59565 276.543 -3.00002 265.228 -3.00002 251.271C-3.00002 237.314 8.59565 226 22.8996 226C37.2036 226 48.7993 237.314 48.7993 251.271Z" fill="#252525"/>
<path d="M28.3648 234.609C28.6668 234.968 28.8208 235.453 29.1275 236.421L35.8494 257.589C33.3247 256.333 30.6148 255.453 27.8132 254.981L23.4372 240.803C23.4027 240.689 23.3307 240.59 23.2321 240.519C23.1335 240.448 23.0136 240.41 22.8905 240.41C22.7673 240.41 22.6475 240.449 22.5491 240.52C22.4507 240.591 22.3789 240.691 22.3446 240.804L18.0211 254.974C15.2073 255.444 12.4853 256.325 9.94981 257.586L16.7035 236.417C17.0126 235.449 17.1666 234.966 17.4683 234.606C17.735 234.29 18.0814 234.045 18.4749 233.893C18.9197 233.722 19.4483 233.722 20.5034 233.722H25.3279C26.3838 233.722 26.9125 233.722 27.3588 233.894C27.7525 234.046 28.0987 234.292 28.3648 234.609Z" fill="#E9D3B6"/>
<path d="M29.1576 258.252C28.1025 259.164 25.9965 259.785 23.5709 259.785C20.5948 259.785 18.0989 258.849 17.4372 257.589C17.2008 258.311 17.1476 259.137 17.1476 259.665C17.1476 259.665 16.9918 262.255 18.7754 264.057C18.7754 263.834 18.8188 263.614 18.9031 263.409C18.9873 263.203 19.1108 263.017 19.2665 262.859C19.4221 262.702 19.6069 262.577 19.8103 262.492C20.0137 262.407 20.2316 262.364 20.4518 262.364C22.0388 262.364 22.038 263.762 22.0368 264.898V264.998C22.0368 266.721 23.0792 268.198 24.5616 268.821C24.3331 268.347 24.2147 267.826 24.2152 267.299C24.2152 265.654 25.1698 265.043 26.2805 264.332C27.1639 263.766 28.1451 263.138 28.8204 261.877C29.1849 261.198 29.3754 260.438 29.3745 259.665C29.375 259.185 29.3018 258.709 29.1576 258.252Z" fill="#8C7F6D"/>
</g>
<mask id="mask13_307_357" style="mask-type:alpha" maskUnits="userSpaceOnUse" x="-32" y="107" width="111" height="111">
<circle cx="23.3437" cy="162.444" r="55.3437" transform="rotate(-90 23.3437 162.444)" fill="#C4C4C4"/>
</mask>
<g mask="url(#mask13_307_357)">
<path d="M-2.72889 207.603L-28.8015 162.444L-2.72889 117.285L49.4163 117.285L75.4888 162.444L49.4163 207.603L-2.72889 207.603Z" fill="#0F0F0F" stroke="#1D1D1D" stroke-width="5.54"/>
<path d="M49.3181 163.172C49.3181 177.128 37.7225 188.443 23.4185 188.443C9.11451 188.443 -2.48116 177.128 -2.48116 163.172C-2.48116 149.215 9.11451 137.9 23.4185 137.9C37.7225 137.9 49.3181 149.215 49.3181 163.172Z" fill="#252525"/>
<path d="M36.6452 150.266C33.3537 145.601 26.8513 144.219 22.1511 147.184L13.8948 152.394C12.7775 153.088 11.8189 154.004 11.0802 155.085C10.3415 156.167 9.83894 157.388 9.60477 158.673C9.50036 159.249 9.44723 159.837 9.44625 160.427C9.45128 162.025 9.8471 163.599 10.6 165.014C9.89417 166.076 9.41257 167.268 9.18409 168.519C8.94992 169.826 8.9827 171.181 9.2797 172.471C9.57687 173.769 10.1327 174.995 10.9148 176.077C14.2066 180.742 20.7236 182.124 25.4088 179.159L33.6568 173.949C34.7734 173.255 35.7308 172.337 36.4676 171.254C37.2044 170.172 37.7043 168.949 37.9352 167.665C38.0413 167.087 38.0943 166.501 38.0937 165.914C38.0918 164.318 37.7009 162.746 36.9542 161.331C37.6599 160.27 38.1417 159.079 38.3709 157.83C38.4731 157.251 38.5252 156.666 38.5266 156.079C38.5271 153.996 37.8694 151.966 36.6457 150.271L36.6452 150.266Z" fill="#E9D3B6"/>
<path d="M21.6606 176.304C21.1085 176.44 20.5454 176.509 19.9808 176.509C18.9026 176.509 17.8404 176.259 16.8854 175.78C15.9305 175.301 15.1111 174.608 14.4975 173.76C13.7481 172.757 13.3456 171.555 13.3464 170.322C13.3469 169.974 13.3784 169.628 13.4404 169.287C13.4909 169.031 13.5588 168.78 13.6435 168.537L13.8018 168.076L14.2306 168.388C15.2259 169.087 16.3381 169.619 17.5197 169.962L17.8312 170.052L17.8019 170.35V170.505C17.8012 170.877 17.9223 171.241 18.1483 171.545C18.3308 171.803 18.5767 172.015 18.8644 172.162C19.159 172.311 19.4771 172.388 19.7988 172.388C19.9686 172.389 20.138 172.368 20.3038 172.326C20.4839 172.281 20.6578 172.208 20.821 172.11L29.2173 166.957C29.4691 166.804 29.6763 166.592 29.8196 166.342C29.9628 166.092 30.0375 165.811 30.0366 165.526C30.0342 165.153 29.9099 164.79 29.6811 164.489C29.4958 164.233 29.2487 164.025 28.9608 163.881C28.6661 163.735 28.3486 163.661 28.0278 163.662C27.858 163.662 27.6887 163.682 27.5228 163.724C27.3435 163.768 27.1705 163.841 27.0088 163.94L23.8077 165.897C23.2689 166.222 22.6951 166.463 22.1013 166.614C20.7789 166.943 19.3828 166.876 18.1016 166.421C16.8204 165.967 15.7161 165.147 14.9379 164.073C14.1895 163.069 13.7871 161.867 13.7868 160.634C13.7874 160.288 13.819 159.942 13.8808 159.6C14.0244 158.84 14.3314 158.118 14.7824 157.477C15.2334 156.837 15.8185 156.294 16.5007 155.881L24.906 150.756C25.4334 150.435 26.0087 150.192 26.6124 150.036C27.1612 149.902 27.7256 149.834 28.2922 149.834C29.3727 149.832 30.4376 150.08 31.3956 150.558C32.3537 151.036 33.1762 151.729 33.7927 152.578C34.5367 153.584 34.9341 154.786 34.9294 156.019C34.9288 156.367 34.8972 156.715 34.8352 157.056C34.7849 157.312 34.7171 157.563 34.6326 157.806L34.474 158.267L34.0452 157.967C33.0506 157.267 31.9382 156.734 30.7561 156.392L30.4446 156.3L30.4739 156.002V155.847C30.4739 155.474 30.3528 155.109 30.1275 154.804C29.9424 154.549 29.6955 154.341 29.408 154.197C29.114 154.051 28.7971 153.977 28.477 153.978C28.3087 153.981 28.1413 154.006 27.9776 154.051C27.7973 154.094 27.6233 154.167 27.461 154.267L19.0554 159.392C18.8561 159.511 18.6799 159.675 18.5374 159.875C18.4045 160.062 18.3114 160.281 18.2657 160.517C18.245 160.614 18.2321 160.714 18.2273 160.814C18.2271 161.186 18.3482 161.549 18.5738 161.852C18.7587 162.107 19.0055 162.315 19.293 162.459C19.5871 162.605 19.9041 162.679 20.2243 162.678C20.3941 162.679 20.5634 162.658 20.7293 162.616C20.9097 162.572 21.0838 162.5 21.2464 162.4L24.4535 160.432C24.992 160.107 25.5658 159.866 26.1598 159.715C26.712 159.579 27.275 159.511 27.8396 159.51C28.918 159.51 29.9804 159.76 30.9359 160.238C31.8913 160.716 32.7114 161.409 33.326 162.257C33.8053 162.899 34.1455 163.627 34.3265 164.397C34.5076 165.167 34.5259 165.963 34.3804 166.74C34.2376 167.5 33.9309 168.223 33.4798 168.864C33.0287 169.504 32.4432 170.048 31.7605 170.459L23.3698 175.584C22.8305 175.91 22.2555 176.153 21.6606 176.304Z" fill="#252525"/>
</g>
<mask id="mask14_307_357" style="mask-type:alpha" maskUnits="userSpaceOnUse" x="-32" y="18" width="111" height="112">
<circle cx="23.3437" cy="73.8936" r="55.3437" transform="rotate(-90 23.3437 73.8936)" fill="#C4C4C4"/>
</mask>
<g mask="url(#mask14_307_357)">
<path d="M-2.72889 119.053L-28.8015 73.8936L-2.72889 28.7346L49.4163 28.7346L75.4888 73.8936L49.4163 119.053L-2.72889 119.053Z" fill="#0F0F0F" stroke="#1D1D1D" stroke-width="5.54"/>
<path d="M49.3181 74.1715C49.3181 88.1285 37.7225 99.4428 23.4185 99.4428C9.11451 99.4428 -2.48116 88.1285 -2.48116 74.1715C-2.48116 60.2146 9.11451 48.9003 23.4185 48.9003C37.7225 48.9003 49.3181 60.2146 49.3181 74.1715Z" fill="#252525"/>
<path d="M23.4185 56.622C13.4982 56.622 5.43262 64.4919 5.43262 74.1715C5.43262 83.8512 13.4982 91.721 23.4185 91.721C26.566 91.721 29.5168 90.9258 32.0742 89.5548L19.0344 71.7859V81.822H17.1234V68.0841H19.0344L33.2264 88.8692C38.1444 85.7432 41.4043 80.3413 41.4043 74.1715C41.4043 64.4919 33.3388 56.622 23.4185 56.622ZM29.6292 79.8203L27.5215 76.7217V68.0841H29.6292V79.8203Z" fill="#E9D3B6"/>
</g>
<mask id="mask15_307_357" style="mask-type:alpha" maskUnits="userSpaceOnUse" x="-32" y="-70" width="111" height="111">
<circle cx="23.3437" cy="-14.6563" r="55.3437" transform="rotate(-90 23.3437 -14.6563)" fill="#C4C4C4"/>
</mask>
<g mask="url(#mask15_307_357)">
<path d="M-2.72889 30.5027L-28.8015 -14.6563L-2.72889 -59.8153L49.4163 -59.8153L75.4888 -14.6563L49.4163 30.5027L-2.72889 30.5027Z" fill="#0F0F0F" stroke="#1D1D1D" stroke-width="5.54"/>
<path d="M48.7993 -14.7288C48.7993 -0.771851 37.2036 10.5425 22.8996 10.5425C8.59564 10.5425 -3.00002 -0.771851 -3.00002 -14.7288C-3.00002 -28.6857 8.59564 -40.0001 22.8996 -40.0001C37.2036 -40.0001 48.7993 -28.6857 48.7993 -14.7288Z" fill="#252525"/>
</g>
</g>
<defs>
<clipPath id="clip0_307_357">
<rect width="280" height="280" rx="24" fill="white"/>
</clipPath>
</defs>
</svg>
