<svg version="1.1" viewBox="0.0 0.0 2730.6666666666665 1152.0" fill="none" stroke="none" stroke-linecap="square" stroke-miterlimit="10" xmlns:xlink="http://www.w3.org/1999/xlink" xmlns="http://www.w3.org/2000/svg"><clipPath id="g1d80eb03cb9_0_0.0"><path d="m0 0l2730.6667 0l0 1152.0l-2730.6667 0l0 -1152.0z" clip-rule="nonzero"/></clipPath><g clip-path="url(#g1d80eb03cb9_0_0.0)"><path fill="#161616" d="m0 0l2730.6667 0l0 1152.0l-2730.6667 0z" fill-rule="evenodd"/><path fill="#1d1d1d" d="m5.0800524 78.10187l2730.6772 -0.18897247l0 297.76376l-2730.6772 0.18899536z" fill-rule="evenodd"/><path fill="#1d1d1d" d="m5.0800524 418.885l2730.6772 -0.18896484l0 297.7638l-2730.6772 0.18896484z" fill-rule="evenodd"/><path fill="#000000" fill-opacity="0.0" d="m-5.0485563 212.69817l116.34645 0" fill-rule="evenodd"/><path stroke="#e9d3b6" stroke-width="12.0" stroke-linejoin="round" stroke-linecap="butt" d="m-5.0485563 212.69817l116.34645 0" fill-rule="evenodd"/><path fill="#000000" fill-opacity="0.0" d="m234.95145 212.69817l116.346466 0" fill-rule="evenodd"/><path stroke="#e9d3b6" stroke-width="12.0" stroke-linejoin="round" stroke-linecap="butt" d="m234.95145 212.69817l116.346466 0" fill-rule="evenodd"/><path fill="#000000" fill-opacity="0.0" d="m474.95145 212.69817l116.346466 0" fill-rule="evenodd"/><path stroke="#e9d3b6" stroke-width="12.0" stroke-linejoin="round" stroke-linecap="butt" d="m474.95145 212.69817l116.346466 0" fill-rule="evenodd"/><path fill="#000000" fill-opacity="0.0" d="m714.9514 212.69817l116.3465 0" fill-rule="evenodd"/><path stroke="#e9d3b6" stroke-width="12.0" stroke-linejoin="round" stroke-linecap="butt" d="m714.9514 212.69817l116.3465 0" fill-rule="evenodd"/><path fill="#000000" fill-opacity="0.0" d="m954.9514 212.69817l116.346436 0" fill-rule="evenodd"/><path stroke="#e9d3b6" stroke-width="12.0" stroke-linejoin="round" stroke-linecap="butt" d="m954.9514 212.69817l116.346436 0" fill-rule="evenodd"/><path fill="#000000" fill-opacity="0.0" d="m1194.9514 212.69817l116.346436 0" fill-rule="evenodd"/><path stroke="#e9d3b6" stroke-width="12.0" stroke-linejoin="round" stroke-linecap="butt" d="m1194.9514 212.69817l116.346436 0" fill-rule="evenodd"/><path fill="#000000" fill-opacity="0.0" d="m1434.9514 212.69817l116.346436 0" fill-rule="evenodd"/><path stroke="#e9d3b6" stroke-width="12.0" stroke-linejoin="round" stroke-linecap="butt" d="m1434.9514 212.69817l116.346436 0" fill-rule="evenodd"/><path fill="#000000" fill-opacity="0.0" d="m1674.9514 212.69817l116.346436 0" fill-rule="evenodd"/><path stroke="#e9d3b6" stroke-width="12.0" stroke-linejoin="round" stroke-linecap="butt" d="m1674.9514 212.69817l116.346436 0" fill-rule="evenodd"/><path fill="#000000" fill-opacity="0.0" d="m1914.9514 212.69817l116.346436 0" fill-rule="evenodd"/><path stroke="#e9d3b6" stroke-width="12.0" stroke-linejoin="round" stroke-linecap="butt" d="m1914.9514 212.69817l116.346436 0" fill-rule="evenodd"/><path fill="#000000" fill-opacity="0.0" d="m2154.9514 212.69817l116.346436 0" fill-rule="evenodd"/><path stroke="#e9d3b6" stroke-width="12.0" stroke-linejoin="round" stroke-linecap="butt" d="m2154.9514 212.69817l116.346436 0" fill-rule="evenodd"/><path fill="#000000" fill-opacity="0.0" d="m2394.9514 212.69817l116.346436 0" fill-rule="evenodd"/><path stroke="#e9d3b6" stroke-width="12.0" stroke-linejoin="round" stroke-linecap="butt" d="m2394.9514 212.69817l116.346436 0" fill-rule="evenodd"/><path fill="#000000" fill-opacity="0.0" d="m-12.032808 241.08398l2799.118 0" fill-rule="evenodd"/><path stroke="#e9d3b6" stroke-width="12.0" stroke-linejoin="round" stroke-linecap="butt" d="m-12.032808 241.08398l2799.118 0" fill-rule="evenodd"/><path fill="#000000" fill-opacity="0.0" d="m2626.9514 212.69817l116.346436 0" fill-rule="evenodd"/><path stroke="#e9d3b6" stroke-width="12.0" stroke-linejoin="round" stroke-linecap="butt" d="m2626.9514 212.69817l116.346436 0" fill-rule="evenodd"/><path fill="#000000" fill-opacity="0.0" d="m-29.140419 581.8648l2799.1182 0" fill-rule="evenodd"/><path stroke="#e9d3b6" stroke-width="12.0" stroke-linejoin="round" stroke-linecap="butt" d="m-29.140419 581.8648l2799.1182 0" fill-rule="evenodd"/><path fill="#000000" fill-opacity="0.0" d="m-55.82021 553.479l2799.1182 0" fill-rule="evenodd"/><path stroke="#e9d3b6" stroke-width="12.0" stroke-linejoin="round" stroke-linecap="butt" d="m-55.82021 553.479l2799.1182 0" fill-rule="evenodd"/><path fill="#000000" fill-opacity="0.0" d="m1552.29 149.2021l147.14954 0" fill-rule="evenodd"/><path stroke="#666666" stroke-width="4.0" stroke-linejoin="round" stroke-linecap="butt" d="m1552.29 149.2021l133.44128 0" fill-rule="evenodd"/><path fill="#666666" stroke="#666666" stroke-width="4.0" stroke-linecap="butt" d="m1685.7313 149.2021l-4.498413 4.498337l12.359131 -4.498337l-12.359131 -4.498337z" fill-rule="evenodd"/><path fill="#000000" fill-opacity="0.0" d="m1697.7231 304.57742l-143.71655 0" fill-rule="evenodd"/><path stroke="#666666" stroke-width="4.0" stroke-linejoin="round" stroke-linecap="butt" d="m1697.7231 304.57742l-130.0083 0" fill-rule="evenodd"/><path fill="#666666" stroke="#666666" stroke-width="4.0" stroke-linecap="butt" d="m1567.715 304.57742l4.498291 -4.4983215l-12.359131 4.4983215l12.359131 4.498352z" fill-rule="evenodd"/><path fill="#000000" fill-opacity="0.0" d="m-3.4790027 94.56956l2799.1182 0" fill-rule="evenodd"/><path stroke="#f3f3f3" stroke-width="2.0" stroke-linejoin="round" stroke-linecap="butt" d="m-3.4790027 94.56956l2799.1182 0" fill-rule="evenodd"/><path fill="#000000" fill-opacity="0.0" d="m-20.586615 359.20996l2799.1182 0" fill-rule="evenodd"/><path stroke="#f3f3f3" stroke-width="2.0" stroke-linejoin="round" stroke-linecap="butt" d="m-20.586615 359.20996l2799.1182 0" fill-rule="evenodd"/><path fill="#000000" fill-opacity="0.0" d="m-20.586615 435.3517l2799.1182 0" fill-rule="evenodd"/><path stroke="#f3f3f3" stroke-width="2.0" stroke-linejoin="round" stroke-linecap="butt" d="m-20.586615 435.3517l2799.1182 0" fill-rule="evenodd"/><path fill="#000000" fill-opacity="0.0" d="m-37.694225 699.9921l2799.1182 0" fill-rule="evenodd"/><path stroke="#f3f3f3" stroke-width="2.0" stroke-linejoin="round" stroke-linecap="butt" d="m-37.694225 699.9921l2799.1182 0" fill-rule="evenodd"/><path fill="#1d1d1d" d="m4.570866 776.3223l2730.6772 -0.18896484l0 297.76373l-2730.6772 0.18908691z" fill-rule="evenodd"/><path fill="#000000" fill-opacity="0.0" d="m-47.86483 792.79004l2799.118 0" fill-rule="evenodd"/><path stroke="#f3f3f3" stroke-width="2.0" stroke-linejoin="round" stroke-linecap="butt" d="m-47.86483 792.79004l2799.118 0" fill-rule="evenodd"/><path fill="#000000" fill-opacity="0.0" d="m-64.97244 1057.4304l2799.1182 0" fill-rule="evenodd"/><path stroke="#f3f3f3" stroke-width="2.0" stroke-linejoin="round" stroke-linecap="butt" d="m-64.97244 1057.4304l2799.1182 0" fill-rule="evenodd"/><path fill="#000000" fill-opacity="0.0" d="m-4.2637796 925.1102l116.34646 0" fill-rule="evenodd"/><path stroke="#e9d3b6" stroke-width="12.0" stroke-linejoin="round" stroke-linecap="butt" d="m-4.2637796 925.1102l116.34646 0" fill-rule="evenodd"/><path fill="#000000" fill-opacity="0.0" d="m235.73622 925.1102l116.34645 0" fill-rule="evenodd"/><path stroke="#e9d3b6" stroke-width="12.0" stroke-linejoin="round" stroke-linecap="butt" d="m235.73622 925.1102l116.34645 0" fill-rule="evenodd"/><path fill="#000000" fill-opacity="0.0" d="m475.7362 925.1102l116.3465 0" fill-rule="evenodd"/><path stroke="#e9d3b6" stroke-width="12.0" stroke-linejoin="round" stroke-linecap="butt" d="m475.7362 925.1102l116.3465 0" fill-rule="evenodd"/><path fill="#000000" fill-opacity="0.0" d="m715.7362 925.1102l116.3465 0" fill-rule="evenodd"/><path stroke="#e9d3b6" stroke-width="12.0" stroke-linejoin="round" stroke-linecap="butt" d="m715.7362 925.1102l116.3465 0" fill-rule="evenodd"/><path fill="#000000" fill-opacity="0.0" d="m955.7362 925.1102l116.346436 0" fill-rule="evenodd"/><path stroke="#e9d3b6" stroke-width="12.0" stroke-linejoin="round" stroke-linecap="butt" d="m955.7362 925.1102l116.346436 0" fill-rule="evenodd"/><path fill="#000000" fill-opacity="0.0" d="m1195.7362 925.1102l116.346436 0" fill-rule="evenodd"/><path stroke="#e9d3b6" stroke-width="12.0" stroke-linejoin="round" stroke-linecap="butt" d="m1195.7362 925.1102l116.346436 0" fill-rule="evenodd"/><path fill="#000000" fill-opacity="0.0" d="m1435.7362 925.1102l116.346436 0" fill-rule="evenodd"/><path stroke="#e9d3b6" stroke-width="12.0" stroke-linejoin="round" stroke-linecap="butt" d="m1435.7362 925.1102l116.346436 0" fill-rule="evenodd"/><path fill="#000000" fill-opacity="0.0" d="m1675.7362 925.1102l116.346436 0" fill-rule="evenodd"/><path stroke="#e9d3b6" stroke-width="12.0" stroke-linejoin="round" stroke-linecap="butt" d="m1675.7362 925.1102l116.346436 0" fill-rule="evenodd"/><path fill="#000000" fill-opacity="0.0" d="m1915.7362 925.1102l116.346436 0" fill-rule="evenodd"/><path stroke="#e9d3b6" stroke-width="12.0" stroke-linejoin="round" stroke-linecap="butt" d="m1915.7362 925.1102l116.346436 0" fill-rule="evenodd"/><path fill="#000000" fill-opacity="0.0" d="m2155.7363 925.1102l116.346436 0" fill-rule="evenodd"/><path stroke="#e9d3b6" stroke-width="12.0" stroke-linejoin="round" stroke-linecap="butt" d="m2155.7363 925.1102l116.346436 0" fill-rule="evenodd"/><path fill="#000000" fill-opacity="0.0" d="m2395.7363 925.1102l116.346436 0" fill-rule="evenodd"/><path stroke="#e9d3b6" stroke-width="12.0" stroke-linejoin="round" stroke-linecap="butt" d="m2395.7363 925.1102l116.346436 0" fill-rule="evenodd"/><path fill="#000000" fill-opacity="0.0" d="m2627.7363 925.1102l116.346436 0" fill-rule="evenodd"/><path stroke="#e9d3b6" stroke-width="12.0" stroke-linejoin="round" stroke-linecap="butt" d="m2627.7363 925.1102l116.346436 0" fill-rule="evenodd"/><path fill="#000000" fill-opacity="0.0" d="m1552.29 489.98425l147.14954 0" fill-rule="evenodd"/><path stroke="#666666" stroke-width="4.0" stroke-linejoin="round" stroke-linecap="butt" d="m1552.29 489.98425l133.44128 0" fill-rule="evenodd"/><path fill="#666666" stroke="#666666" stroke-width="4.0" stroke-linecap="butt" d="m1685.7313 489.98425l-4.498413 4.4983215l12.359131 -4.4983215l-12.359131 -4.4983215z" fill-rule="evenodd"/><path fill="#000000" fill-opacity="0.0" d="m1697.7231 645.35956l-143.71655 0" fill-rule="evenodd"/><path stroke="#666666" stroke-width="4.0" stroke-linejoin="round" stroke-linecap="butt" d="m1697.7231 645.35956l-130.0083 0" fill-rule="evenodd"/><path fill="#666666" stroke="#666666" stroke-width="4.0" stroke-linecap="butt" d="m1567.715 645.35956l4.498291 -4.498291l-12.359131 4.498291l12.359131 4.498352z" fill-rule="evenodd"/><path fill="#000000" fill-opacity="0.0" d="m1552.29 847.42255l147.14954 0" fill-rule="evenodd"/><path stroke="#666666" stroke-width="4.0" stroke-linejoin="round" stroke-linecap="butt" d="m1552.29 847.42255l133.44128 0" fill-rule="evenodd"/><path fill="#666666" stroke="#666666" stroke-width="4.0" stroke-linecap="butt" d="m1685.7313 847.42255l-4.498413 4.498352l12.359131 -4.498352l-12.359131 -4.498291z" fill-rule="evenodd"/><path fill="#000000" fill-opacity="0.0" d="m1697.7231 1002.7979l-143.71655 0" fill-rule="evenodd"/><path stroke="#666666" stroke-width="4.0" stroke-linejoin="round" stroke-linecap="butt" d="m1697.7231 1002.7979l-130.0083 0" fill-rule="evenodd"/><path fill="#666666" stroke="#666666" stroke-width="4.0" stroke-linecap="butt" d="m1567.715 1002.7979l4.498291 -4.498352l-12.359131 4.498352l12.359131 4.498352z" fill-rule="evenodd"/><path fill="#222222" d="m0 0l530.3937 0l0 1152.0l-530.3937 0z" fill-rule="evenodd"/><path fill="#313131" d="m0 77.91338l530.3937 0l0 297.95276l-530.3937 0z" fill-rule="evenodd"/><path fill="#ffffff" d="m183.0154 214.96977l0 -35.046875l21.03125 0l0 5.234375l-15.125 0l0 9.125l13.4375 0l0 5.1875l-13.4375 0l0 10.265625l15.125 0l0 5.234375l-21.03125 0zm28.22194 0l0 -5.46875l9.21875 0l0 -15.5l-8.015625 0l0 -5.4375l13.78125 0l0 20.9375l8.15625 0l0 5.46875l-23.140625 0zm11.625 -30.8125q-1.828125 0 -2.890625 -0.9375q-1.046875 -0.9375 -1.046875 -2.515625q0 -1.59375 1.046875 -2.53125q1.0625 -0.9375 2.890625 -0.9375q1.8125 0 2.875 0.9375q1.0625 0.9375 1.0625 2.53125q0 1.578125 -1.0625 2.515625q-1.0625 0.9375 -2.875 0.9375zm30.81569 30.8125q-3.796875 0 -5.9375 -2.109375q-2.125 -2.109375 -2.125 -5.8125l0 -13.046875l-7.15625 0l0 -5.4375l7.15625 0l0 -7.4375l6.046875 0l0 7.4375l10.125015 0l0 5.4375l-10.125015 0l0 13.046875q0 2.5 2.453125 2.5l7.1875153 0l0 5.421875l-7.6250153 0zm15.221939 0l0 -35.046875l6.0 0l0 8.640625l-0.15625 5.046875l1.640625 0l-1.640625 1.390625q0 -3.265625 1.890625 -5.078125q1.90625 -1.828125 5.21875 -1.828125q3.890625 0 6.21875 2.59375q2.328125 2.578125 2.328125 6.953125l0 17.328125l-6.0 0l0 -16.703125q0 -2.40625 -1.25 -3.703125q-1.25 -1.296875 -3.5 -1.296875q-2.21875 0 -3.484375 1.34375q-1.265625 1.34375 -1.265625 3.84375l0 16.515625l-6.0 0zm39.55005 0.484375q-3.359375 0 -5.859375 -1.296875q-2.5 -1.296875 -3.875 -3.625q-1.359375 -2.328125 -1.359375 -5.453125l0 -6.625q0 -3.109375 1.359375 -5.4375q1.375 -2.328125 3.875 -3.625q2.5 -1.296875 5.859375 -1.296875q3.3125 0 5.78125 1.296875q2.46875 1.296875 3.828125 3.625q1.375 2.328125 1.375 5.4375l0 4.75l-16.265625 0l0 1.875q0 2.78125 1.34375 4.203125q1.34375 1.421875 3.984375 1.421875q2.015625 0 3.265625 -0.6875q1.25 -0.703125 1.578125 -2.0625l5.90625 0q-0.671875 3.421875 -3.625 5.46875q-2.953125 2.03125 -7.171875 2.03125zm5.171875 -15.609375l0 -1.4375q0 -2.734375 -1.296875 -4.1875q-1.28125 -1.46875 -3.875 -1.46875q-2.59375 0 -3.9375 1.484375q-1.34375 1.484375 -1.34375 4.21875l0 1.015625l10.890625 -0.09375l-0.4375 0.46875zm13.690704 15.125l0 -26.40625l5.65625 0l0 5.046875l1.484375 0l-1.765625 3.078125q0 -4.28125 1.921875 -6.4375q1.921875 -2.15625 5.65625 -2.15625q4.28125 0 6.71875 2.640625q2.453125 2.640625 2.453125 7.296875l0 1.90625l-6.28125 0l0 -1.484375q0 -2.546875 -1.328125 -3.9375q-1.3125 -1.390625 -3.625 -1.390625q-2.34375 0 -3.625 1.390625q-1.265625 1.390625 -1.265625 3.9375l0 16.515625l-6.0 0z" fill-rule="nonzero"/><path fill="#c9daf8" d="m106.802704 273.45413q-4.90625 0 -7.5 -2.703125q-2.59375 -2.71875 -2.59375 -7.375l0 -25.45311l4.328125 0l0 25.45311q0 2.875 1.40625 4.5625q1.421875 1.671875 4.359375 1.671875q2.875 0 4.3125 -1.671875q1.4375 -1.6875 1.4375 -4.5625l0 -25.45311l4.328125 0l0 25.45311q0 4.703125 -2.578125 7.390625q-2.5625 2.6875 -7.5 2.6875zm28.987564 0q-3.453125 0 -5.9375 -1.15625q-2.46875 -1.15625 -3.8125 -3.3125q-1.34375 -2.15625 -1.390625 -5.140625l4.328125 0q0 2.640625 1.796875 4.1875q1.796875 1.53125 5.015625 1.53125q3.015625 0 4.71875 -1.484375q1.71875 -1.5 1.71875 -4.140625q0 -2.109375 -1.140625 -3.6875q-1.125 -1.578125 -3.234375 -2.203125l-4.75 -1.5q-3.609375 -1.0937347 -5.546875 -3.6874847q-1.9375 -2.59375 -1.9375 -6.09375q0 -2.84375 1.265625 -4.921875q1.265625 -2.09375 3.5625 -3.265625q2.3125 -1.171875 5.4375 -1.171875q4.609375 0 7.390625 2.5625q2.78125 2.5625 2.828125 6.84375l-4.3125 0q0 -2.59375 -1.5625 -4.0625q-1.5625 -1.46875 -4.390625 -1.46875q-2.78125 0 -4.34375 1.359375q-1.5625 1.34375 -1.5625 3.734375q0 2.15625 1.15625 3.75q1.15625 1.578125 3.3125 2.25l4.796875 1.53125q3.5 1.109375 5.421875 3.7499847q1.921875 2.640625 1.921875 6.1875q0 2.890625 -1.34375 5.046875q-1.34375 2.15625 -3.765625 3.359375q-2.421875 1.203125 -5.640625 1.203125z" fill-rule="nonzero"/><path fill="#ffffff" d="m193.2029 273.36038q-3.171875 0 -5.484375 -1.203125q-2.296875 -1.203125 -3.578125 -3.484375q-1.265625 -2.28125 -1.265625 -5.40625l0 -7.0q0 -3.1718597 1.265625 -5.4218597q1.28125 -2.265625 3.578125 -3.453125q2.3125 -1.203125 5.484375 -1.203125q3.15625 0 5.453125 1.203125q2.3125 1.1875 3.578125 3.453125q1.28125 2.25 1.28125 5.3749847l0 7.046875q0 3.125 -1.28125 5.40625q-1.265625 2.28125 -3.578125 3.484375q-2.296875 1.203125 -5.453125 1.203125zm0 -3.84375q2.828125 0 4.40625 -1.578125q1.59375 -1.59375 1.59375 -4.671875l0 -7.0q0 -3.0781097 -1.59375 -4.6562347q-1.578125 -1.578125 -4.40625 -1.578125q-2.796875 0 -4.40625 1.578125q-1.59375 1.578125 -1.59375 4.6562347l0 7.0q0 3.078125 1.59375 4.671875q1.609375 1.578125 4.40625 1.578125zm19.72194 3.453125l0 -26.406235l4.21875 0l0 5.046875l1.015625 0l-1.390625 3.125q0 -4.28125 1.84375 -6.453125q1.84375 -2.1875 5.5 -2.1875q4.171875 0 6.640625 2.625q2.46875 2.609375 2.46875 7.0625l0 1.5937347l-4.3125 0l0 -1.203125q0 -3.1249847 -1.515625 -4.7812347q-1.515625 -1.65625 -4.296875 -1.65625q-2.734375 0 -4.296875 1.6875q-1.5625 1.671875 -1.5625 4.7499847l0 16.796875l-4.3125 0z" fill-rule="nonzero"/><path fill="#f4cccc" d="m279.7906 273.45413q-3.171875 0 -5.5 -1.203125q-2.328125 -1.203125 -3.609375 -3.484375q-1.265625 -2.28125 -1.265625 -5.390625l0 -15.843735q0 -3.171875 1.265625 -5.421875q1.28125 -2.265625 3.609375 -3.453125q2.328125 -1.203125 5.5 -1.203125q3.171875 0 5.46875 1.21875q2.3125 1.21875 3.546875 3.484375q1.25 2.25 1.25 5.375l-4.3125 0q0 -2.984375 -1.5625 -4.578125q-1.5625 -1.609375 -4.390625 -1.609375q-2.828125 0 -4.4375 1.578125q-1.609375 1.578125 -1.609375 4.5625l0 15.89061q0 2.96875 1.609375 4.578125q1.609375 1.609375 4.4375 1.609375q2.828125 0 4.390625 -1.609375q1.5625 -1.609375 1.5625 -4.578125l4.3125 0q0 3.0625 -1.25 5.34375q-1.234375 2.28125 -3.546875 3.515625q-2.296875 1.21875 -5.46875 1.21875zm26.300049 0q-4.171875 0 -6.578125 -2.140625q-2.390625 -2.140625 -2.390625 -5.78125q0 -3.703125 2.390625 -5.8125q2.40625 -2.109375 6.484375 -2.109375l8.15625 0l0 -2.6406097q0 -2.453125 -1.46875 -3.765625q-1.453125 -1.328125 -4.140625 -1.328125q-2.359375 0 -3.9375 0.984375q-1.578125 0.984375 -1.828125 2.671875l-4.3125 0q0.421875 -3.40625 3.203125 -5.421875q2.796875 -2.015625 6.96875 -2.015625q4.5625 0 7.203125 2.359375q2.640625 2.34375 2.640625 6.375l0 18.14061l-4.234375 0l0 -5.046875l-0.71875 0l0.71875 -0.71875q0 2.890625 -2.234375 4.578125q-2.21875 1.671875 -5.921875 1.671875zm1.0625 -3.40625q3.0625 0 5.03125 -1.53125q1.96875 -1.546875 1.96875 -3.953125l0 -3.734375l-8.0625 0q-2.15625 0 -3.40625 1.203125q-1.25 1.1875 -1.25 3.25q0 2.21875 1.515625 3.5q1.515625 1.265625 4.203125 1.265625zm20.065704 2.921875l0 -26.406235l4.3125 0l0 5.046875l0.90625 0l-0.90625 1.0q0 -3.109375 1.875 -4.8125q1.875 -1.703125 5.1875 -1.703125q3.984375 0 6.328125 2.453125q2.359375 2.4375 2.359375 6.65625l0 17.76561l-4.328125 0l0 -17.281235q0 -2.828125 -1.515625 -4.34375q-1.5 -1.515625 -4.09375 -1.515625q-2.6875 0 -4.25 1.640625q-1.5625 1.625 -1.5625 4.7031097l0 16.796875l-4.3125 0zm36.471954 0.484375q-4.171875 0 -6.578125 -2.140625q-2.390625 -2.140625 -2.390625 -5.78125q0 -3.703125 2.390625 -5.8125q2.40625 -2.109375 6.484375 -2.109375l8.15625 0l0 -2.6406097q0 -2.453125 -1.46875 -3.765625q-1.453125 -1.328125 -4.140625 -1.328125q-2.359375 0 -3.9375 0.984375q-1.578125 0.984375 -1.828125 2.671875l-4.3125 0q0.421875 -3.40625 3.203125 -5.421875q2.796875 -2.015625 6.96875 -2.015625q4.5625 0 7.203125 2.359375q2.640625 2.34375 2.640625 6.375l0 18.14061l-4.234375 0l0 -5.046875l-0.71875 0l0.71875 -0.71875q0 2.890625 -2.234375 4.578125q-2.21875 1.671875 -5.921875 1.671875zm1.0625 -3.40625q3.0625 0 5.03125 -1.53125q1.96875 -1.546875 1.96875 -3.953125l0 -3.734375l-8.0625 0q-2.15625 0 -3.40625 1.203125q-1.25 1.1875 -1.25 3.25q0 2.21875 1.515625 3.5q1.515625 1.265625 4.203125 1.265625zm28.503174 3.40625q-3.9375 0 -6.359375 -2.640625q-2.421875 -2.640625 -2.421875 -7.15625l0 -7.7343597q0 -4.546875 2.390625 -7.1875q2.40625 -2.640625 6.390625 -2.640625q3.265625 0 5.234375 1.78125q1.96875 1.765625 1.96875 4.734375l-0.859375 -1.0l0.953125 0l-0.09375 -6.0l0 -7.6875l4.328125 0l0 35.04686l-4.328125 0l0 -5.046875l-0.859375 0l0.859375 -1.0q0 3.015625 -1.96875 4.78125q-1.96875 1.75 -5.234375 1.75zm1.4375 -3.75q2.6875 0 4.21875 -1.671875q1.546875 -1.6875 1.546875 -4.65625l0 -7.203125q0 -2.9843597 -1.546875 -4.6562347q-1.53125 -1.6875 -4.21875 -1.6875q-2.734375 0 -4.3125 1.640625q-1.578125 1.625 -1.578125 4.7031097l0 7.203125q0 3.0625 1.578125 4.703125q1.578125 1.625 4.3125 1.625zm26.596924 3.75q-4.171875 0 -6.578125 -2.140625q-2.390625 -2.140625 -2.390625 -5.78125q0 -3.703125 2.390625 -5.8125q2.40625 -2.109375 6.484375 -2.109375l8.15625 0l0 -2.6406097q0 -2.453125 -1.46875 -3.765625q-1.453125 -1.328125 -4.140625 -1.328125q-2.359375 0 -3.9375 0.984375q-1.578125 0.984375 -1.828125 2.671875l-4.3125 0q0.421875 -3.40625 3.203125 -5.421875q2.796875 -2.015625 6.96875 -2.015625q4.5625 0 7.203125 2.359375q2.640625 2.34375 2.640625 6.375l0 18.14061l-4.234375 0l0 -5.046875l-0.71875 0l0.71875 -0.71875q0 2.890625 -2.234375 4.578125q-2.21875 1.671875 -5.921875 1.671875zm1.0625 -3.40625q3.0625 0 5.03125 -1.53125q1.96875 -1.546875 1.96875 -3.953125l0 -3.734375l-8.0625 0q-2.15625 0 -3.40625 1.203125q-1.25 1.1875 -1.25 3.25q0 2.21875 1.515625 3.5q1.515625 1.265625 4.203125 1.265625z" fill-rule="nonzero"/><path fill="#313131" d="m0 418.69553l530.3937 0l0 297.9528l-530.3937 0z" fill-rule="evenodd"/><path fill="#ffffff" d="m183.0154 555.7519l0 -35.046875l21.03125 0l0 5.234375l-15.125 0l0 9.125l13.4375 0l0 5.1875l-13.4375 0l0 10.265625l15.125 0l0 5.234375l-21.03125 0zm28.22194 0l0 -5.46875l9.21875 0l0 -15.5l-8.015625 0l0 -5.4375l13.78125 0l0 20.9375l8.15625 0l0 5.46875l-23.140625 0zm11.625 -30.8125q-1.828125 0 -2.890625 -0.9375q-1.046875 -0.9375 -1.046875 -2.515625q0 -1.59375 1.046875 -2.53125q1.0625 -0.9375 2.890625 -0.9375q1.8125 0 2.875 0.9375q1.0625 0.9375 1.0625 2.53125q0 1.578125 -1.0625 2.515625q-1.0625 0.9375 -2.875 0.9375zm30.81569 30.8125q-3.796875 0 -5.9375 -2.109375q-2.125 -2.109375 -2.125 -5.8125l0 -13.046875l-7.15625 0l0 -5.4375l7.15625 0l0 -7.4375l6.046875 0l0 7.4375l10.125015 0l0 5.4375l-10.125015 0l0 13.046875q0 2.5 2.453125 2.5l7.1875153 0l0 5.421875l-7.6250153 0zm15.221939 0l0 -35.046875l6.0 0l0 8.640625l-0.15625 5.046875l1.640625 0l-1.640625 1.390625q0 -3.265625 1.890625 -5.078125q1.90625 -1.828125 5.21875 -1.828125q3.890625 0 6.21875 2.59375q2.328125 2.578125 2.328125 6.953125l0 17.328125l-6.0 0l0 -16.703125q0 -2.40625 -1.25 -3.703125q-1.25 -1.296875 -3.5 -1.296875q-2.21875 0 -3.484375 1.34375q-1.265625 1.34375 -1.265625 3.84375l0 16.515625l-6.0 0zm39.55005 0.484375q-3.359375 0 -5.859375 -1.296875q-2.5 -1.296875 -3.875 -3.625q-1.359375 -2.328125 -1.359375 -5.453125l0 -6.625q0 -3.109375 1.359375 -5.4375q1.375 -2.328125 3.875 -3.625q2.5 -1.296875 5.859375 -1.296875q3.3125 0 5.78125 1.296875q2.46875 1.296875 3.828125 3.625q1.375 2.328125 1.375 5.4375l0 4.75l-16.265625 0l0 1.875q0 2.78125 1.34375 4.203125q1.34375 1.421875 3.984375 1.421875q2.015625 0 3.265625 -0.6875q1.25 -0.703125 1.578125 -2.0625l5.90625 0q-0.671875 3.421875 -3.625 5.46875q-2.953125 2.03125 -7.171875 2.03125zm5.171875 -15.609375l0 -1.4375q0 -2.734375 -1.296875 -4.1875q-1.28125 -1.46875 -3.875 -1.46875q-2.59375 0 -3.9375 1.484375q-1.34375 1.484375 -1.34375 4.21875l0 1.015625l10.890625 -0.09375l-0.4375 0.46875zm13.690704 15.125l0 -26.40625l5.65625 0l0 5.046875l1.484375 0l-1.765625 3.078125q0 -4.28125 1.921875 -6.4375q1.921875 -2.15625 5.65625 -2.15625q4.28125 0 6.71875 2.640625q2.453125 2.640625 2.453125 7.296875l0 1.90625l-6.28125 0l0 -1.484375q0 -2.546875 -1.328125 -3.9375q-1.3125 -1.390625 -3.625 -1.390625q-2.34375 0 -3.625 1.390625q-1.265625 1.390625 -1.265625 3.9375l0 16.515625l-6.0 0z" fill-rule="nonzero"/><path fill="#c9daf8" d="m106.802704 614.23627q-4.90625 0 -7.5 -2.703125q-2.59375 -2.71875 -2.59375 -7.375l0 -25.453125l4.328125 0l0 25.453125q0 2.875 1.40625 4.5625q1.421875 1.671875 4.359375 1.671875q2.875 0 4.3125 -1.671875q1.4375 -1.6875 1.4375 -4.5625l0 -25.453125l4.328125 0l0 25.453125q0 4.703125 -2.578125 7.390625q-2.5625 2.6875 -7.5 2.6875zm28.987564 0q-3.453125 0 -5.9375 -1.15625q-2.46875 -1.15625 -3.8125 -3.3125q-1.34375 -2.15625 -1.390625 -5.140625l4.328125 0q0 2.640625 1.796875 4.1875q1.796875 1.53125 5.015625 1.53125q3.015625 0 4.71875 -1.484375q1.71875 -1.5 1.71875 -4.140625q0 -2.109375 -1.140625 -3.6875q-1.125 -1.578125 -3.234375 -2.203125l-4.75 -1.5q-3.609375 -1.09375 -5.546875 -3.6875q-1.9375 -2.59375 -1.9375 -6.09375q0 -2.84375 1.265625 -4.921875q1.265625 -2.09375 3.5625 -3.265625q2.3125 -1.171875 5.4375 -1.171875q4.609375 0 7.390625 2.5625q2.78125 2.5625 2.828125 6.84375l-4.3125 0q0 -2.59375 -1.5625 -4.0625q-1.5625 -1.46875 -4.390625 -1.46875q-2.78125 0 -4.34375 1.359375q-1.5625 1.34375 -1.5625 3.734375q0 2.15625 1.15625 3.75q1.15625 1.578125 3.3125 2.25l4.796875 1.53125q3.5 1.109375 5.421875 3.75q1.921875 2.640625 1.921875 6.1875q0 2.890625 -1.34375 5.046875q-1.34375 2.15625 -3.765625 3.359375q-2.421875 1.203125 -5.640625 1.203125z" fill-rule="nonzero"/><path fill="#ffffff" d="m193.2029 614.1425q-3.171875 0 -5.484375 -1.203125q-2.296875 -1.203125 -3.578125 -3.484375q-1.265625 -2.28125 -1.265625 -5.40625l0 -7.0q0 -3.171875 1.265625 -5.421875q1.28125 -2.265625 3.578125 -3.453125q2.3125 -1.203125 5.484375 -1.203125q3.15625 0 5.453125 1.203125q2.3125 1.1875 3.578125 3.453125q1.28125 2.25 1.28125 5.375l0 7.046875q0 3.125 -1.28125 5.40625q-1.265625 2.28125 -3.578125 3.484375q-2.296875 1.203125 -5.453125 1.203125zm0 -3.84375q2.828125 0 4.40625 -1.578125q1.59375 -1.59375 1.59375 -4.671875l0 -7.0q0 -3.078125 -1.59375 -4.65625q-1.578125 -1.578125 -4.40625 -1.578125q-2.796875 0 -4.40625 1.578125q-1.59375 1.578125 -1.59375 4.65625l0 7.0q0 3.078125 1.59375 4.671875q1.609375 1.578125 4.40625 1.578125zm19.72194 3.453125l0 -26.40625l4.21875 0l0 5.046875l1.015625 0l-1.390625 3.125q0 -4.28125 1.84375 -6.453125q1.84375 -2.1875 5.5 -2.1875q4.171875 0 6.640625 2.625q2.46875 2.609375 2.46875 7.0625l0 1.59375l-4.3125 0l0 -1.203125q0 -3.125 -1.515625 -4.78125q-1.515625 -1.65625 -4.296875 -1.65625q-2.734375 0 -4.296875 1.6875q-1.5625 1.671875 -1.5625 4.75l0 16.796875l-4.3125 0z" fill-rule="nonzero"/><path fill="#f4cccc" d="m279.7906 614.23627q-3.171875 0 -5.5 -1.203125q-2.328125 -1.203125 -3.609375 -3.484375q-1.265625 -2.28125 -1.265625 -5.390625l0 -15.84375q0 -3.171875 1.265625 -5.421875q1.28125 -2.265625 3.609375 -3.453125q2.328125 -1.203125 5.5 -1.203125q3.171875 0 5.46875 1.21875q2.3125 1.21875 3.546875 3.484375q1.25 2.25 1.25 5.375l-4.3125 0q0 -2.984375 -1.5625 -4.578125q-1.5625 -1.609375 -4.390625 -1.609375q-2.828125 0 -4.4375 1.578125q-1.609375 1.578125 -1.609375 4.5625l0 15.890625q0 2.96875 1.609375 4.578125q1.609375 1.609375 4.4375 1.609375q2.828125 0 4.390625 -1.609375q1.5625 -1.609375 1.5625 -4.578125l4.3125 0q0 3.0625 -1.25 5.34375q-1.234375 2.28125 -3.546875 3.515625q-2.296875 1.21875 -5.46875 1.21875zm26.300049 0q-4.171875 0 -6.578125 -2.140625q-2.390625 -2.140625 -2.390625 -5.78125q0 -3.703125 2.390625 -5.8125q2.40625 -2.109375 6.484375 -2.109375l8.15625 0l0 -2.640625q0 -2.453125 -1.46875 -3.765625q-1.453125 -1.328125 -4.140625 -1.328125q-2.359375 0 -3.9375 0.984375q-1.578125 0.984375 -1.828125 2.671875l-4.3125 0q0.421875 -3.40625 3.203125 -5.421875q2.796875 -2.015625 6.96875 -2.015625q4.5625 0 7.203125 2.359375q2.640625 2.34375 2.640625 6.375l0 18.140625l-4.234375 0l0 -5.046875l-0.71875 0l0.71875 -0.71875q0 2.890625 -2.234375 4.578125q-2.21875 1.671875 -5.921875 1.671875zm1.0625 -3.40625q3.0625 0 5.03125 -1.53125q1.96875 -1.546875 1.96875 -3.953125l0 -3.734375l-8.0625 0q-2.15625 0 -3.40625 1.203125q-1.25 1.1875 -1.25 3.25q0 2.21875 1.515625 3.5q1.515625 1.265625 4.203125 1.265625zm20.065704 2.921875l0 -26.40625l4.3125 0l0 5.046875l0.90625 0l-0.90625 1.0q0 -3.109375 1.875 -4.8125q1.875 -1.703125 5.1875 -1.703125q3.984375 0 6.328125 2.453125q2.359375 2.4375 2.359375 6.65625l0 17.765625l-4.328125 0l0 -17.28125q0 -2.828125 -1.515625 -4.34375q-1.5 -1.515625 -4.09375 -1.515625q-2.6875 0 -4.25 1.640625q-1.5625 1.625 -1.5625 4.703125l0 16.796875l-4.3125 0zm36.471954 0.484375q-4.171875 0 -6.578125 -2.140625q-2.390625 -2.140625 -2.390625 -5.78125q0 -3.703125 2.390625 -5.8125q2.40625 -2.109375 6.484375 -2.109375l8.15625 0l0 -2.640625q0 -2.453125 -1.46875 -3.765625q-1.453125 -1.328125 -4.140625 -1.328125q-2.359375 0 -3.9375 0.984375q-1.578125 0.984375 -1.828125 2.671875l-4.3125 0q0.421875 -3.40625 3.203125 -5.421875q2.796875 -2.015625 6.96875 -2.015625q4.5625 0 7.203125 2.359375q2.640625 2.34375 2.640625 6.375l0 18.140625l-4.234375 0l0 -5.046875l-0.71875 0l0.71875 -0.71875q0 2.890625 -2.234375 4.578125q-2.21875 1.671875 -5.921875 1.671875zm1.0625 -3.40625q3.0625 0 5.03125 -1.53125q1.96875 -1.546875 1.96875 -3.953125l0 -3.734375l-8.0625 0q-2.15625 0 -3.40625 1.203125q-1.25 1.1875 -1.25 3.25q0 2.21875 1.515625 3.5q1.515625 1.265625 4.203125 1.265625zm28.503174 3.40625q-3.9375 0 -6.359375 -2.640625q-2.421875 -2.640625 -2.421875 -7.15625l0 -7.734375q0 -4.546875 2.390625 -7.1875q2.40625 -2.640625 6.390625 -2.640625q3.265625 0 5.234375 1.78125q1.96875 1.765625 1.96875 4.734375l-0.859375 -1.0l0.953125 0l-0.09375 -6.0l0 -7.6875l4.328125 0l0 35.046875l-4.328125 0l0 -5.046875l-0.859375 0l0.859375 -1.0q0 3.015625 -1.96875 4.78125q-1.96875 1.75 -5.234375 1.75zm1.4375 -3.75q2.6875 0 4.21875 -1.671875q1.546875 -1.6875 1.546875 -4.65625l0 -7.203125q0 -2.984375 -1.546875 -4.65625q-1.53125 -1.6875 -4.21875 -1.6875q-2.734375 0 -4.3125 1.640625q-1.578125 1.625 -1.578125 4.703125l0 7.203125q0 3.0625 1.578125 4.703125q1.578125 1.625 4.3125 1.625zm26.596924 3.75q-4.171875 0 -6.578125 -2.140625q-2.390625 -2.140625 -2.390625 -5.78125q0 -3.703125 2.390625 -5.8125q2.40625 -2.109375 6.484375 -2.109375l8.15625 0l0 -2.640625q0 -2.453125 -1.46875 -3.765625q-1.453125 -1.328125 -4.140625 -1.328125q-2.359375 0 -3.9375 0.984375q-1.578125 0.984375 -1.828125 2.671875l-4.3125 0q0.421875 -3.40625 3.203125 -5.421875q2.796875 -2.015625 6.96875 -2.015625q4.5625 0 7.203125 2.359375q2.640625 2.34375 2.640625 6.375l0 18.140625l-4.234375 0l0 -5.046875l-0.71875 0l0.71875 -0.71875q0 2.890625 -2.234375 4.578125q-2.21875 1.671875 -5.921875 1.671875zm1.0625 -3.40625q3.0625 0 5.03125 -1.53125q1.96875 -1.546875 1.96875 -3.953125l0 -3.734375l-8.0625 0q-2.15625 0 -3.40625 1.203125q-1.25 1.1875 -1.25 3.25q0 2.21875 1.515625 3.5q1.515625 1.265625 4.203125 1.265625z" fill-rule="nonzero"/><path fill="#313131" d="m0 776.13385l530.3937 0l0 297.95282l-530.3937 0z" fill-rule="evenodd"/><path fill="#ffffff" d="m109.48401 913.19025l0 -35.046875l7.109375 0l3.40625 11.140625q0.53125 1.6875 0.859375 3.078125q0.34375 1.390625 0.4375 2.015625q0.09375 -0.625 0.421875 -2.015625q0.34375 -1.390625 0.828125 -3.078125l3.265625 -11.140625l7.09375 0l0 35.046875l-5.609375 0l0 -10.890625q0 -2.40625 0.140625 -5.234375q0.140625 -2.828125 0.328125 -5.65625q0.203125 -2.84375 0.46875 -5.390625q0.265625 -2.546875 0.453125 -4.453125l-4.703125 16.546875l-5.46875 0l-4.859375 -16.546875q0.25 1.8125 0.484375 4.296875q0.234375 2.46875 0.453125 5.28125q0.21875 2.796875 0.359375 5.6875q0.140625 2.875 0.140625 5.46875l0 10.890625l-5.609375 0zm40.518814 0.4375q-3.359375 0 -5.84375 -1.265625q-2.46875 -1.28125 -3.84375 -3.609375q-1.359375 -2.328125 -1.359375 -5.5l0 -6.53125q0 -3.15625 1.359375 -5.484375q1.375 -2.328125 3.84375 -3.59375q2.484375 -1.28125 5.84375 -1.28125q3.40625 0 5.84375 1.28125q2.453125 1.265625 3.8125 3.59375q1.375 2.328125 1.375 5.4375l0 6.578125q0 3.171875 -1.375 5.5q-1.359375 2.328125 -3.8125 3.609375q-2.4375 1.265625 -5.84375 1.265625zm0 -5.234375q2.390625 0 3.703125 -1.3125q1.328125 -1.328125 1.328125 -3.828125l0 -6.53125q0 -2.546875 -1.328125 -3.828125q-1.3125 -1.296875 -3.703125 -1.296875q-2.359375 0 -3.703125 1.296875q-1.34375 1.28125 -1.34375 3.828125l0 6.53125q0 2.5 1.34375 3.828125q1.34375 1.3125 3.703125 1.3125zm18.90944 4.796875l0 -26.40625l5.65625 0l0 5.046875l1.484375 0l-1.765625 3.078125q0 -4.28125 1.921875 -6.4375q1.921875 -2.15625 5.65625 -2.15625q4.28125 0 6.71875 2.640625q2.453125 2.640625 2.453125 7.296875l0 1.90625l-6.28125 0l0 -1.484375q0 -2.546875 -1.328125 -3.9375q-1.3125 -1.390625 -3.625 -1.390625q-2.34375 0 -3.625 1.390625q-1.265625 1.390625 -1.265625 3.9375l0 16.515625l-6.0 0zm38.737564 0.484375q-3.359375 0 -5.859375 -1.296875q-2.5 -1.296875 -3.875 -3.625q-1.359375 -2.328125 -1.359375 -5.453125l0 -6.625q0 -3.109375 1.359375 -5.4375q1.375 -2.328125 3.875 -3.625q2.5 -1.296875 5.859375 -1.296875q3.3125 0 5.78125 1.296875q2.46875 1.296875 3.828125 3.625q1.375 2.328125 1.375 5.4375l0 4.75l-16.265625 0l0 1.875q0 2.78125 1.34375 4.203125q1.34375 1.421875 3.984375 1.421875q2.015625 0 3.265625 -0.6875q1.25 -0.703125 1.578125 -2.0625l5.90625 0q-0.671875 3.421875 -3.625 5.46875q-2.953125 2.03125 -7.171875 2.03125zm5.171875 -15.609375l0 -1.4375q0 -2.734375 -1.296875 -4.1875q-1.28125 -1.46875 -3.875 -1.46875q-2.59375 0 -3.9375 1.484375q-1.34375 1.484375 -1.34375 4.21875l0 1.015625l10.890625 -0.09375l-0.4375 0.46875zm56.412613 15.125q-2.59375 0 -4.546875 -1.046875q-1.9375 -1.0625 -3.046875 -3.0q-1.09375 -1.953125 -1.09375 -4.5l0 -21.0625l-8.45311 0l0 -5.4375l14.45311 0l0 26.5q0 1.4375 0.828125 2.28125q0.84375 0.84375 2.28125 0.84375l7.96875 0l0 5.421875l-8.390625 0zm14.003204 0l0 -5.46875l9.21875 0l0 -15.5l-8.015625 0l0 -5.4375l13.78125 0l0 20.9375l8.15625 0l0 5.46875l-23.140625 0zm11.625 -30.8125q-1.828125 0 -2.890625 -0.9375q-1.046875 -0.9375 -1.046875 -2.515625q0 -1.59375 1.046875 -2.53125q1.0625 -0.9375 2.890625 -0.9375q1.8125 0 2.875 0.9375q1.0625 0.9375 1.0625 2.53125q0 1.578125 -1.0625 2.515625q-1.0625 0.9375 -2.875 0.9375zm17.378204 30.8125l0 -35.046875l6.0 0l0 19.015625l4.171875 0l6.4375 -10.375l6.71875 0l-7.96875 12.78125l8.109375 13.625l-6.859375 0l-6.4375 -10.9375l-4.171875 0l0 10.9375l-6.0 0zm39.409424 0.484375q-3.359375 0 -5.859375 -1.296875q-2.5 -1.296875 -3.875 -3.625q-1.359375 -2.328125 -1.359375 -5.453125l0 -6.625q0 -3.109375 1.359375 -5.4375q1.375 -2.328125 3.875 -3.625q2.5 -1.296875 5.859375 -1.296875q3.3125 0 5.78125 1.296875q2.46875 1.296875 3.828125 3.625q1.375 2.328125 1.375 5.4375l0 4.75l-16.265625 0l0 1.875q0 2.78125 1.34375 4.203125q1.34375 1.421875 3.984375 1.421875q2.015625 0 3.265625 -0.6875q1.25 -0.703125 1.578125 -2.0625l5.90625 0q-0.671875 3.421875 -3.625 5.46875q-2.953125 2.03125 -7.171875 2.03125zm5.171875 -15.609375l0 -1.4375q0 -2.734375 -1.296875 -4.1875q-1.28125 -1.46875 -3.875 -1.46875q-2.59375 0 -3.9375 1.484375q-1.34375 1.484375 -1.34375 4.21875l0 1.015625l10.890625 -0.09375l-0.4375 0.46875zm27.612549 15.125q-2.59375 0 -4.546875 -1.046875q-1.9375 -1.0625 -3.046875 -3.0q-1.09375 -1.953125 -1.09375 -4.5l0 -21.0625l-8.453125 0l0 -5.4375l14.453125 0l0 26.5q0 1.4375 0.828125 2.28125q0.84375 0.84375 2.28125 0.84375l7.96875 0l0 5.421875l-8.390625 0zm18.331299 8.640625l3.6875 -10.078125l-9.828125 -24.96875l6.578125 0l4.890625 13.5q0.390625 1.09375 0.765625 2.65625q0.390625 1.5625 0.578125 2.5625q0.234375 -1.0 0.609375 -2.5625q0.390625 -1.5625 0.78125 -2.65625l4.609375 -13.5l6.328125 0l-12.71875 35.046875l-6.28125 0z" fill-rule="nonzero"/><path fill="#f4cccc" d="m193.3904 971.6746q-3.171875 0 -5.5 -1.203125q-2.328125 -1.203125 -3.609375 -3.484375q-1.265625 -2.28125 -1.265625 -5.390625l0 -15.84375q0 -3.171875 1.265625 -5.421875q1.28125 -2.265625 3.609375 -3.453125q2.328125 -1.203125 5.5 -1.203125q3.171875 0 5.46875 1.21875q2.3125 1.21875 3.546875 3.484375q1.25 2.25 1.25 5.375l-4.3125 0q0 -2.984375 -1.5625 -4.578125q-1.5625 -1.609375 -4.390625 -1.609375q-2.828125 0 -4.4375 1.578125q-1.609375 1.578125 -1.609375 4.5625l0 15.890625q0 2.96875 1.609375 4.578125q1.609375 1.609375 4.4375 1.609375q2.828125 0 4.390625 -1.609375q1.5625 -1.609375 1.5625 -4.578125l4.3125 0q0 3.0625 -1.25 5.34375q-1.234375 2.28125 -3.546875 3.515625q-2.296875 1.21875 -5.46875 1.21875zm26.300064 0q-4.171875 0 -6.578125 -2.140625q-2.390625 -2.140625 -2.390625 -5.78125q0 -3.703125 2.390625 -5.8125q2.40625 -2.109375 6.484375 -2.109375l8.15625 0l0 -2.640625q0 -2.453125 -1.46875 -3.765625q-1.453125 -1.328125 -4.140625 -1.328125q-2.359375 0 -3.9375 0.984375q-1.578125 0.984375 -1.828125 2.671875l-4.3125 0q0.421875 -3.40625 3.203125 -5.421875q2.796875 -2.015625 6.96875 -2.015625q4.5625 0 7.203125 2.359375q2.640625 2.34375 2.640625 6.375l0 18.140625l-4.234375 0l0 -5.046875l-0.71875 0l0.71875 -0.71875q0 2.890625 -2.234375 4.578125q-2.21875 1.671875 -5.921875 1.671875zm1.0625 -3.40625q3.0625 0 5.03125 -1.53125q1.96875 -1.546875 1.96875 -3.953125l0 -3.734375l-8.0625 0q-2.15625 0 -3.40625 1.203125q-1.25 1.1875 -1.25 3.25q0 2.21875 1.515625 3.5q1.515625 1.265625 4.203125 1.265625zm20.06569 2.921875l0 -26.40625l4.3125 0l0 5.046875l0.90625 0l-0.90625 1.0q0 -3.109375 1.875 -4.8125q1.875 -1.703125 5.1875 -1.703125q3.9843903 0 6.3281403 2.453125q2.359375 2.4375 2.359375 6.65625l0 17.765625l-4.328125 0l0 -17.28125q0 -2.828125 -1.5156403 -4.34375q-1.5 -1.515625 -4.09375 -1.515625q-2.6875 0 -4.25 1.640625q-1.5625 1.625 -1.5625 4.703125l0 16.796875l-4.3125 0zm36.47194 0.484375q-4.171875 0 -6.578125 -2.140625q-2.390625 -2.140625 -2.390625 -5.78125q0 -3.703125 2.390625 -5.8125q2.40625 -2.109375 6.484375 -2.109375l8.15625 0l0 -2.640625q0 -2.453125 -1.46875 -3.765625q-1.453125 -1.328125 -4.140625 -1.328125q-2.359375 0 -3.9375 0.984375q-1.578125 0.984375 -1.828125 2.671875l-4.3125 0q0.421875 -3.40625 3.203125 -5.421875q2.796875 -2.015625 6.96875 -2.015625q4.5625 0 7.203125 2.359375q2.640625 2.34375 2.640625 6.375l0 18.140625l-4.234375 0l0 -5.046875l-0.71875 0l0.71875 -0.71875q0 2.890625 -2.234375 4.578125q-2.21875 1.671875 -5.921875 1.671875zm1.0625 -3.40625q3.0625 0 5.03125 -1.53125q1.96875 -1.546875 1.96875 -3.953125l0 -3.734375l-8.0625 0q-2.15625 0 -3.40625 1.203125q-1.25 1.1875 -1.25 3.25q0 2.21875 1.515625 3.5q1.515625 1.265625 4.203125 1.265625zm28.503174 3.40625q-3.9375 0 -6.359375 -2.640625q-2.421875 -2.640625 -2.421875 -7.15625l0 -7.734375q0 -4.546875 2.390625 -7.1875q2.40625 -2.640625 6.390625 -2.640625q3.265625 0 5.234375 1.78125q1.96875 1.765625 1.96875 4.734375l-0.859375 -1.0l0.953125 0l-0.09375 -6.0l0 -7.6875l4.328125 0l0 35.046875l-4.328125 0l0 -5.046875l-0.859375 0l0.859375 -1.0q0 3.015625 -1.96875 4.78125q-1.96875 1.75 -5.234375 1.75zm1.4375 -3.75q2.6875 0 4.21875 -1.671875q1.546875 -1.6875 1.546875 -4.65625l0 -7.203125q0 -2.984375 -1.546875 -4.65625q-1.53125 -1.6875 -4.21875 -1.6875q-2.734375 0 -4.3125 1.640625q-1.578125 1.625 -1.578125 4.703125l0 7.203125q0 3.0625 1.578125 4.703125q1.578125 1.625 4.3125 1.625zm26.596954 3.75q-4.171875 0 -6.578125 -2.140625q-2.390625 -2.140625 -2.390625 -5.78125q0 -3.703125 2.390625 -5.8125q2.40625 -2.109375 6.484375 -2.109375l8.15625 0l0 -2.640625q0 -2.453125 -1.46875 -3.765625q-1.453125 -1.328125 -4.140625 -1.328125q-2.359375 0 -3.9375 0.984375q-1.578125 0.984375 -1.828125 2.671875l-4.3125 0q0.421875 -3.40625 3.203125 -5.421875q2.796875 -2.015625 6.96875 -2.015625q4.5625 0 7.203125 2.359375q2.640625 2.34375 2.640625 6.375l0 18.140625l-4.234375 0l0 -5.046875l-0.71875 0l0.71875 -0.71875q0 2.890625 -2.234375 4.578125q-2.21875 1.671875 -5.921875 1.671875zm1.0625 -3.40625q3.0625 0 5.03125 -1.53125q1.96875 -1.546875 1.96875 -3.953125l0 -3.734375l-8.0625 0q-2.15625 0 -3.40625 1.203125q-1.25 1.1875 -1.25 3.25q0 2.21875 1.515625 3.5q1.515625 1.265625 4.203125 1.265625z" fill-rule="nonzero"/></g></svg>