<svg version="1.1" viewBox="0.0 0.0 2730.6666666666665 786.6666666666666" fill="none" stroke="none" stroke-linecap="square" stroke-miterlimit="10" xmlns:xlink="http://www.w3.org/1999/xlink" xmlns="http://www.w3.org/2000/svg"><clipPath id="g1d56cf5e26d_0_5.0"><path d="m0 0l2730.6667 0l0 786.6667l-2730.6667 0l0 -786.6667z" clip-rule="nonzero"/></clipPath><g clip-path="url(#g1d56cf5e26d_0_5.0)"><path fill="#161616" d="m0 0l2730.6667 0l0 786.6667l-2730.6667 0z" fill-rule="evenodd"/><path fill="#1d1d1d" d="m-58.934425 739.1594l2730.299 -1011.0236l118.23633 319.3701l-2730.2993 1011.0237z" fill-rule="evenodd"/><path fill="#e9d3b6" d="m764.564 500.58344l-7.231262 -19.532532l150.99579 -55.91339l7.231262 19.532532l-150.99579 55.91339zm310.99323 105.026245q-7.765869 2.8757324 -14.677612 -2.562561q-6.394165 -5.0300903 -21.981323 -20.98529q-19.115967 -21.346497 -58.157715 -63.25647q-12.323975 -12.6315 -42.151184 -37.392883q-3.5975342 -2.9665833 -4.9211426 -6.541931q-2.0614624 -5.5681763 0.7345581 -11.202179q2.810608 -5.6394653 8.59845 -7.782654q6.930664 -2.5664368 13.814331 2.1657715q19.89569 13.776581 44.695557 39.44986q20.356384 22.086853 40.669373 44.056458q22.026611 23.717712 38.454346 39.378296q2.965332 2.8341064 4.055664 5.779358q2.0615234 5.5681763 -0.65197754 11.155029q-2.70813 5.6014404 -8.481323 7.739197zm21.697021 16.325317l-7.2313232 -19.532532l150.99573 -55.91339l7.2313232 19.532532l-150.99573 55.91339zm146.60083 -256.7941q-2.354126 4.9372253 -6.027954 12.745758q-6.4987793 16.019226 -4.5478516 40.956024q1.7559814 22.159851 8.911377 41.487213q8.126343 21.950287 20.227295 38.47992q16.028198 22.006714 34.45703 26.645935q16.654419 4.3464966 19.296387 11.482544q1.9420166 5.2457886 -0.8430176 10.4592285q-2.7851562 5.21344 -8.04541 7.161316q-4.293213 1.5897827 -10.708496 0.7329712q-56.11731 -7.745056 -85.16174 -86.19751q-10.415527 -28.13385 -9.318481 -61.263977q1.3380127 -37.384827 17.723999 -60.18103q4.147217 -5.5845337 7.9276123 -6.9844055q5.7731934 -2.1377869 11.352539 0.5115051q5.5793457 2.649292 7.5594482 7.99765q1.9475098 5.260437 -2.8027344 15.966858z" fill-rule="nonzero"/><path fill="#e9d3b6" d="m1435.795 303.4466q14.955566 71.08984 -4.3928223 114.77725q-17.112915 38.7442 -61.125366 73.68652l-30.989014 -17.233215q45.84265 -33.104095 61.2594 -63.738983q18.901001 -38.190002 -0.9970703 -119.02963l28.004517 -1.9891052q20.103271 -1.2792969 8.240356 13.527161zm-123.2583 109.77371q-23.876709 -25.565186 -49.290405 -46.145874l20.942871 -24.033752q23.890137 18.445648 50.40564 45.78293l-22.058105 24.396698zm46.234253 -35.331818q-24.954468 -25.865936 -48.55725 -42.635162l22.545288 -23.260834q22.869263 15.507965 48.018555 41.585022l-22.006592 24.310974z" fill-rule="nonzero"/><path fill="#e9d3b6" d="m1537.468 466.08945q-4.310547 4.8285522 -8.618408 6.4237366q-5.3481445 1.9804382 -10.812622 -0.17822266q-5.449707 -2.1641235 -7.3917236 -7.409912q-2.3326416 -6.300812 2.1018066 -13.674561q3.9898682 -6.009491 7.819214 -12.092773q14.64502 -31.098938 -3.6636963 -80.55301q-7.1552734 -19.327393 -20.252441 -37.28763q-14.772095 -20.189178 -30.120361 -28.11847q-7.1497803 -3.2007751 -14.319702 -6.4107666q-9.390747 -4.7535706 -11.180908 -9.589081q-1.9801025 -5.348358 0.5727539 -11.008972q2.567627 -5.6660767 8.238159 -7.765869q3.8829346 -1.4378357 10.549438 0.14239502q27.39624 6.5837708 52.63806 34.12607q22.42041 24.421661 32.83606 52.55551q29.044434 78.452484 -8.39563 120.84155zm37.784546 -21.156128l-7.2313232 -19.532501l150.99573 -55.91342l7.2313232 19.532532l-150.99573 55.91339zm178.1825 -278.86902q-0.8223877 10.334946 -1.7623291 31.693573q-0.25720215 21.222473 -4.223999 50.516663q-3.7458496 25.030258 -7.4538574 50.16313q-0.6409912 5.019287 -4.151367 47.15738q-0.8125 9.731476 -9.223145 12.845917q-5.4508057 2.0184326 -10.839233 0.06488037q-5.8100586 -2.1473083 -7.828125 -7.598236q-0.89501953 -2.4177551 -0.83776855 -5.188202q0.3244629 -24.596375 7.9799805 -73.58453q7.6556396 -48.98819 7.9040527 -73.7897q0.1977539 -18.81781 1.0646973 -25.836914q2.2452393 -19.092804 9.559692 -21.568024q5.444214 -1.7660675 10.812622 0.17823792q5.8100586 2.1473083 7.795532 7.51033q1.2042236 3.2529755 1.2032471 7.435501zm-12.922852 -26.872253l-7.231201 -19.532524l150.9956 -55.913353l7.2313232 19.532524l-150.99573 55.913353z" fill-rule="nonzero"/></g></svg>