<svg width="3840" height="1687" viewBox="0 0 3840 1687" fill="none" xmlns="http://www.w3.org/2000/svg">
<g clip-path="url(#clip0_38_17)">
<rect width="3840" height="1687" fill="#171717"/>
<circle cx="1919.5" cy="1830.5" r="1830.5" fill="#1F1E1E"/>
<circle cx="1920" cy="1831" r="1700" fill="#252525"/>
<circle cx="1920" cy="1831" r="1552" fill="#2B2B2B"/>
<path d="M953.019 1239.71C938.941 1112.64 1030.32 998.133 1157.35 983.66L1869.19 902.555C1996.5 888.05 2111.46 979.494 2125.96 1106.8L2279.79 2456.94C2294.28 2584.05 2203.14 2698.89 2076.07 2713.66L1360.2 2796.85C1232.45 2811.7 1116.99 2719.78 1102.83 2591.95L953.019 1239.71Z" fill="#E9D3B6"/>
<circle cx="1482.14" cy="677.853" r="483.04" transform="rotate(-6.5 1482.14 677.853)" fill="#F4E9DB"/>
<circle cx="1411.82" cy="513.472" r="31.1358" transform="rotate(8.5 1411.82 513.472)" fill="#1D1D1D"/>
<circle cx="1749.18" cy="482.939" r="31.1358" transform="rotate(8.5 1749.18 482.939)" fill="#1D1D1D"/>
<path d="M1542.98 499.29C1538.04 499.853 1534.5 504.313 1535.06 509.251L1538.94 543.293C1542.05 570.607 1566.71 590.228 1594.03 587.115C1621.34 584.003 1640.96 559.337 1637.85 532.023L1633.97 497.981C1633.41 493.043 1628.95 489.495 1624.01 490.058L1542.98 499.29Z" stroke="#1D1D1D" stroke-width="18" stroke-linejoin="round"/>
<g clip-path="url(#clip1_38_17)">
<path d="M2756.99 680.55C2763.83 653.569 2767.51 628.918 2772.01 598.789L2224.21 516.919C2219.7 547.048 2216.02 571.699 2214.67 599.499L2047.59 574.528L2043.49 601.919C2007.06 845.692 2290.78 1064.51 2359 1113.91L2345.09 1207.03C2338.13 1253.6 2297.2 1283.88 2250.63 1276.92L2195.85 1268.74L2179.48 1378.3L2562.94 1435.61L2579.32 1326.04L2524.54 1317.86C2477.97 1310.9 2447.69 1269.97 2454.65 1223.41L2468.56 1130.28C2548.25 1102.99 2883.55 976.684 2919.98 732.911L2924.07 705.52L2756.99 680.55ZM2096.92 637.905L2211.96 655.098C2204.49 779.991 2221.52 872.143 2244.98 940.053C2167.56 858.478 2091.5 749.104 2096.92 637.905ZM2631.18 997.771C2673.46 939.686 2716.69 856.54 2746.07 734.921L2861.11 752.114C2831.04 859.628 2726.32 941.985 2631.18 997.771Z" fill="#E9D3B6"/>
</g>
</g>
<defs>
<clipPath id="clip0_38_17">
<rect width="3840" height="1687" fill="white"/>
</clipPath>
<clipPath id="clip1_38_17">
<rect width="997" height="997" fill="white" transform="translate(2017.37 402) rotate(8.5)"/>
</clipPath>
</defs>
</svg>
