<svg xmlns="http://www.w3.org/2000/svg" width="632" height="304" fill="none" viewBox="0 0 632 304"><path fill="#000" fill-opacity=".1" d="M-1818-2027v1h4177v-2h-4177zm4179 2h-1V784h2v-2809zm-2 2811v-1h-4177v2h4177zm-4179-2h1v-2809h-2V784zm2 2v-1c-.55 0-1-.448-1-1h-2c0 1.657 1.34 3 3 3zm4179-2h-1c0 .552-.45 1-1 1v2c1.66 0 3-1.343 3-3zm-2-2811v1c.55 0 1 .45 1 1h2c0-1.66-1.34-3-3-3zm-4177 0v-1c-1.66 0-3 1.34-3 3h2c0-.55.45-1 1-1z"/><g clip-path="url(#f-background-dark-a)"><path fill="var(--background-l6)" d="m42.23 199.85.444-.231-.144-.27-.308.003zm-73.523 62.888-.413.281.285.411.413-.281zm-37.823-54.455-.285-.411-.413.282.285.41zM.551 160.888l-.285-.41zm15.919 1.902.467.185.115-.286-.209-.23zm2.877 25.327-.414.281zM42.23 199.85l-.444.231a11.45 11.45 0 0 1-3.688 14.862l.285.411.285.41a12.437 12.437 0 0 0 4.005-16.145zm-3.847 15.504-.285-.411-69.676 47.385.285.41.285.411 69.676-47.385zm-69.676 47.384.413-.281-37.822-54.455-.414.281-.413.281 37.823 54.455zm-37.823-54.455.286.411L.836 161.299l-.285-.411-.285-.41-69.667 47.394zM.551 160.888l.285.411c4.872-3.315 11.406-2.44 15.26 1.823l.374-.332.373-.331c-4.188-4.631-11.284-5.582-16.577-1.981zm15.919 1.902-.467-.185c-3.306 8.249-2.533 17.928 2.93 25.793l.414-.281.413-.281c-5.264-7.579-6.011-16.906-2.823-24.861zm2.877 25.327-.414.281c5.467 7.872 14.33 12.054 23.304 11.95l-.008-.498-.007-.498c-8.654.101-17.194-3.932-22.462-11.516z"/><ellipse cx="27.154" cy="27.256" stroke="var(--background-l6)" rx="27.154" ry="27.256" transform="matrix(.57046 .82132 -.8269 .56235 48.933 135.16)"/></g><defs><clipPath id="f-background-dark-a"><path fill="#fff" d="M0 0h632v304H0z"/></clipPath></defs></svg>