<svg width="579" height="483" viewBox="0 0 579 483" fill="none" xmlns="http://www.w3.org/2000/svg">
<mask id="mask0_346_50" style="mask-type:alpha" maskUnits="userSpaceOnUse" x="0" y="-2" width="581" height="485">
<rect x="1.97157" y="-0.353074" width="577.976" height="481.475" fill="#101010" stroke="#272727" stroke-width="2.05686"/>
</mask>
<g mask="url(#mask0_346_50)">
<path d="M-13.1579 365.734C-5.98449 358.559 5.64801 358.558 12.8225 365.732L58.6151 411.525C65.7889 418.699 65.7888 430.329 58.6151 437.503L-32.2783 528.397L-104.035 456.64L-13.1579 365.734Z" fill="#E9D3B6"/>
<circle cx="51.8904" cy="372.304" r="41.56" transform="rotate(45 51.8904 372.304)" fill="#F4E9DB"/>
<circle cx="51.9493" cy="351.954" r="2.67925" transform="rotate(27.5 51.9493 351.954)" fill="#101010"/>
<circle cx="80.2497" cy="358.92" r="2.67925" transform="rotate(27.5 80.2497 358.92)" fill="#101010"/>
<path d="M63.2307 353.958C62.8224 353.849 62.4027 354.091 62.2933 354.499L61.2909 358.24C60.6776 360.529 62.0358 362.881 64.3243 363.495C66.6129 364.108 68.9653 362.75 69.5785 360.461L70.581 356.72C70.6904 356.312 70.4481 355.892 70.0397 355.783L63.2307 353.958Z" stroke="#101010" stroke-width="1.53079" stroke-linejoin="round"/>
<path d="M111.143 339.651L111.055 365.523L102.319 372.593C101.071 373.603 101.072 375.722 102.593 376.525L111.022 380.969C111.148 382.899 111.964 385.121 113.169 386.912C114.465 388.835 116.385 390.507 118.646 390.507H243.702C247.846 390.507 251.205 387.147 251.205 383.003V339.651C251.205 335.507 247.846 332.147 243.702 332.147H118.646C114.503 332.147 111.144 335.506 111.143 339.649C111.143 339.65 111.143 339.65 111.143 339.651Z" fill="#101010" stroke="#272727" stroke-width="1.66741"/>
<path d="M131.723 356.468C131.013 356.468 130.397 356.338 129.877 356.078C129.356 355.808 128.951 355.432 128.661 354.952C128.38 354.462 128.24 353.886 128.24 353.225V348.451C128.24 347.79 128.38 347.22 128.661 346.739C128.951 346.249 129.356 345.874 129.877 345.613C130.397 345.343 131.013 345.208 131.723 345.208C132.424 345.208 133.035 345.343 133.555 345.613C134.076 345.874 134.481 346.249 134.771 346.739C135.062 347.22 135.207 347.79 135.207 348.451H133.315C133.315 347.94 133.175 347.55 132.895 347.28C132.624 347 132.234 346.859 131.723 346.859C131.213 346.859 130.818 346.995 130.537 347.265C130.257 347.535 130.117 347.925 130.117 348.436V353.225C130.117 353.736 130.257 354.131 130.537 354.411C130.818 354.682 131.213 354.817 131.723 354.817C132.234 354.817 132.624 354.682 132.895 354.411C133.175 354.131 133.315 353.736 133.315 353.225H135.207C135.207 353.886 135.062 354.462 134.771 354.952C134.481 355.432 134.076 355.808 133.555 356.078C133.035 356.338 132.424 356.468 131.723 356.468ZM137.318 356.318V345.358H139.195V348.061L139.15 349.637H139.18C139.27 349.097 139.505 348.676 139.885 348.376C140.266 348.066 140.761 347.91 141.372 347.91C142.182 347.91 142.828 348.181 143.308 348.721C143.799 349.262 144.044 349.987 144.044 350.898V356.318H142.167V351.093C142.167 350.593 142.032 350.208 141.762 349.937C141.502 349.667 141.146 349.532 140.696 349.532C140.226 349.532 139.855 349.672 139.585 349.952C139.325 350.233 139.195 350.633 139.195 351.153V356.318H137.318ZM149.683 356.468C148.983 356.468 148.372 356.333 147.852 356.063C147.331 355.793 146.926 355.417 146.636 354.937C146.355 354.446 146.215 353.876 146.215 353.225V351.153C146.215 350.503 146.355 349.937 146.636 349.457C146.926 348.966 147.331 348.586 147.852 348.316C148.372 348.046 148.983 347.91 149.683 347.91C150.374 347.91 150.975 348.046 151.485 348.316C152.006 348.586 152.406 348.966 152.686 349.457C152.977 349.937 153.122 350.503 153.122 351.153V352.64H148.032V353.225C148.032 354.396 148.587 354.982 149.698 354.982C150.559 354.982 151.065 354.697 151.215 354.126H153.062C152.921 354.837 152.541 355.407 151.921 355.838C151.31 356.258 150.564 356.468 149.683 356.468ZM148.032 351.153V351.469L151.305 351.454V351.138C151.305 350.568 151.17 350.132 150.9 349.832C150.629 349.522 150.224 349.367 149.683 349.367C149.133 349.367 148.718 349.522 148.437 349.832C148.167 350.142 148.032 350.583 148.032 351.153ZM158.716 356.468C158.015 356.468 157.4 356.338 156.869 356.078C156.349 355.808 155.943 355.432 155.653 354.952C155.363 354.462 155.218 353.886 155.218 353.225V351.153C155.218 350.493 155.363 349.922 155.653 349.442C155.943 348.951 156.349 348.576 156.869 348.316C157.4 348.046 158.015 347.91 158.716 347.91C159.757 347.91 160.588 348.181 161.208 348.721C161.829 349.252 162.154 349.977 162.184 350.898H160.353C160.323 350.468 160.157 350.137 159.857 349.907C159.567 349.667 159.186 349.547 158.716 349.547C158.216 349.547 157.82 349.687 157.53 349.967C157.24 350.238 157.095 350.628 157.095 351.138V353.225C157.095 353.736 157.24 354.131 157.53 354.411C157.82 354.692 158.216 354.832 158.716 354.832C159.196 354.832 159.582 354.717 159.872 354.487C160.162 354.246 160.323 353.911 160.353 353.481H162.184C162.154 354.401 161.829 355.132 161.208 355.673C160.588 356.203 159.757 356.468 158.716 356.468ZM164.37 356.318V345.358H166.247V351.304H167.568L169.58 348.061H171.667L169.175 352.054L171.712 356.318H169.58L167.568 352.895H166.247V356.318H164.37ZM185.679 356.453C184.618 356.453 183.777 356.163 183.156 355.583C182.536 354.992 182.225 354.201 182.225 353.21V351.168C182.225 350.178 182.536 349.392 183.156 348.811C183.777 348.221 184.618 347.925 185.679 347.925C186.74 347.925 187.58 348.221 188.201 348.811C188.821 349.392 189.132 350.173 189.132 351.153V353.21C189.132 354.201 188.821 354.992 188.201 355.583C187.58 356.163 186.74 356.453 185.679 356.453ZM185.679 354.817C186.179 354.817 186.564 354.682 186.835 354.411C187.115 354.131 187.255 353.731 187.255 353.21V351.168C187.255 350.648 187.115 350.253 186.835 349.982C186.564 349.702 186.179 349.562 185.679 349.562C185.178 349.562 184.788 349.702 184.507 349.982C184.237 350.253 184.102 350.648 184.102 351.168V353.21C184.102 353.731 184.237 354.131 184.507 354.411C184.788 354.682 185.178 354.817 185.679 354.817ZM194.681 356.468C193.63 356.468 192.804 356.178 192.204 355.598C191.603 355.007 191.303 354.206 191.303 353.195V348.061H193.18V353.18C193.18 353.711 193.31 354.121 193.57 354.411C193.83 354.692 194.201 354.832 194.681 354.832C195.152 354.832 195.517 354.692 195.777 354.411C196.047 354.121 196.182 353.711 196.182 353.18V348.061H198.059V353.195C198.059 354.206 197.754 355.007 197.143 355.598C196.533 356.178 195.712 356.468 194.681 356.468ZM204.584 356.318C203.814 356.318 203.198 356.098 202.738 355.658C202.287 355.207 202.062 354.602 202.062 353.841V349.757H199.825V348.061H202.062V345.733H203.954V348.061H207.122V349.757H203.954V353.796C203.954 354.036 204.019 354.236 204.149 354.396C204.289 354.547 204.479 354.622 204.72 354.622H206.972V356.318H204.584ZM217.92 356.318V348.061H219.452V349.172H219.527C219.577 348.791 219.727 348.486 219.977 348.256C220.227 348.026 220.538 347.91 220.908 347.91C221.248 347.91 221.544 348.026 221.794 348.256C222.044 348.486 222.214 348.791 222.304 349.172H222.349C222.409 348.791 222.564 348.486 222.815 348.256C223.075 348.026 223.395 347.91 223.776 347.91C224.266 347.91 224.666 348.111 224.977 348.511C225.297 348.901 225.457 349.407 225.457 350.027V356.318H223.836V350.163C223.836 349.582 223.595 349.292 223.115 349.292C222.635 349.292 222.394 349.582 222.394 350.163V356.318H220.983V350.163C220.983 349.582 220.743 349.292 220.262 349.292C219.792 349.292 219.557 349.582 219.557 350.163V356.318H217.92ZM228.679 359.021L229.85 355.868L226.667 348.061H228.709L230.331 352.279C230.421 352.51 230.506 352.79 230.586 353.12C230.666 353.441 230.726 353.706 230.766 353.916C230.816 353.706 230.881 353.441 230.961 353.12C231.052 352.79 231.137 352.51 231.217 352.279L232.763 348.061H234.715L230.646 359.021H228.679ZM133 376.318C132.179 376.318 131.518 376.073 131.018 375.583C130.527 375.092 130.282 374.446 130.282 373.646V367.055H127.565V365.358H132.159V373.601C132.159 373.911 132.244 374.161 132.414 374.351C132.594 374.532 132.834 374.622 133.135 374.622H135.552V376.318H133ZM139.75 376.468C138.899 376.468 138.229 376.248 137.738 375.808C137.248 375.357 137.003 374.747 137.003 373.976C137.003 373.165 137.283 372.54 137.843 372.099C138.404 371.649 139.185 371.424 140.185 371.424H142.167V370.733C142.167 370.333 142.037 370.022 141.777 369.802C141.517 369.582 141.151 369.472 140.681 369.472C140.251 369.472 139.895 369.562 139.615 369.742C139.345 369.922 139.195 370.163 139.165 370.463H137.378C137.418 369.692 137.743 369.076 138.354 368.616C138.974 368.146 139.77 367.91 140.741 367.91C141.762 367.91 142.568 368.161 143.158 368.661C143.749 369.162 144.044 369.847 144.044 370.718V376.318H142.227V374.922H142.197C142.087 375.402 141.817 375.783 141.387 376.063C140.956 376.333 140.411 376.468 139.75 376.468ZM140.366 375.072C140.896 375.072 141.327 374.942 141.657 374.682C141.997 374.411 142.167 374.056 142.167 373.616V372.625H140.231C139.81 372.625 139.48 372.735 139.24 372.955C138.999 373.165 138.879 373.456 138.879 373.826C138.879 374.216 139.009 374.522 139.27 374.742C139.54 374.962 139.905 375.072 140.366 375.072ZM150.569 376.318C149.799 376.318 149.183 376.098 148.723 375.658C148.272 375.207 148.047 374.602 148.047 373.841V369.757H145.81V368.061H148.047V365.733H149.939V368.061H153.107V369.757H149.939V373.796C149.939 374.036 150.004 374.236 150.134 374.396C150.274 374.547 150.464 374.622 150.704 374.622H152.957V376.318H150.569ZM158.686 376.468C157.985 376.468 157.375 376.333 156.854 376.063C156.334 375.793 155.928 375.417 155.638 374.937C155.358 374.446 155.218 373.876 155.218 373.225V371.153C155.218 370.503 155.358 369.937 155.638 369.457C155.928 368.966 156.334 368.586 156.854 368.316C157.375 368.046 157.985 367.91 158.686 367.91C159.377 367.91 159.977 368.046 160.488 368.316C161.008 368.586 161.409 368.966 161.689 369.457C161.979 369.937 162.124 370.503 162.124 371.153V372.64H157.034V373.225C157.034 374.396 157.59 374.982 158.701 374.982C159.562 374.982 160.067 374.697 160.217 374.126H162.064C161.924 374.837 161.544 375.407 160.923 375.838C160.312 376.258 159.567 376.468 158.686 376.468ZM157.034 371.153V371.469L160.307 371.454V371.138C160.307 370.568 160.172 370.132 159.902 369.832C159.632 369.522 159.226 369.367 158.686 369.367C158.135 369.367 157.72 369.522 157.44 369.832C157.17 370.142 157.034 370.583 157.034 371.153ZM167.358 376.453C166.728 376.453 166.172 376.358 165.692 376.168C165.211 375.968 164.836 375.688 164.566 375.327C164.305 374.967 164.175 374.542 164.175 374.051H166.067C166.067 374.341 166.182 374.567 166.412 374.727C166.653 374.877 166.973 374.952 167.373 374.952H168.019C168.489 374.952 168.84 374.867 169.07 374.697C169.3 374.527 169.415 374.291 169.415 373.991C169.415 373.421 168.99 373.07 168.139 372.94L166.983 372.79C165.251 372.54 164.385 371.714 164.385 370.313C164.385 369.532 164.646 368.941 165.166 368.541C165.697 368.131 166.462 367.925 167.463 367.925H168.034C168.965 367.925 169.71 368.136 170.271 368.556C170.841 368.966 171.127 369.512 171.127 370.193H169.235C169.235 369.952 169.13 369.767 168.92 369.637C168.709 369.497 168.409 369.427 168.019 369.427H167.448C166.628 369.427 166.217 369.722 166.217 370.313C166.217 370.823 166.582 371.133 167.313 371.244L168.484 371.424C169.415 371.554 170.106 371.824 170.556 372.234C171.017 372.645 171.247 373.215 171.247 373.946C171.247 374.737 170.972 375.352 170.421 375.793C169.881 376.233 169.08 376.453 168.019 376.453H167.358ZM177.577 376.318C176.806 376.318 176.191 376.098 175.73 375.658C175.28 375.207 175.055 374.602 175.055 373.841V369.757H172.817V368.061H175.055V365.733H176.946V368.061H180.114V369.757H176.946V373.796C176.946 374.036 177.011 374.236 177.141 374.396C177.282 374.547 177.472 374.622 177.712 374.622H179.964V376.318H177.577ZM191.333 379.021V368.061H193.165V369.547H193.195C193.345 369.026 193.61 368.626 193.99 368.346C194.381 368.056 194.861 367.91 195.432 367.91C196.243 367.91 196.893 368.196 197.384 368.766C197.884 369.337 198.134 370.102 198.134 371.063V373.3C198.134 374.271 197.884 375.042 197.384 375.613C196.893 376.183 196.243 376.468 195.432 376.468C194.871 376.468 194.396 376.328 194.005 376.048C193.615 375.758 193.345 375.352 193.195 374.832H193.165L193.21 376.709V379.021H191.333ZM194.741 374.847C195.222 374.847 195.592 374.707 195.852 374.426C196.122 374.146 196.258 373.746 196.258 373.225V371.153C196.258 370.633 196.122 370.233 195.852 369.952C195.592 369.672 195.222 369.532 194.741 369.532C194.261 369.532 193.885 369.677 193.615 369.967C193.345 370.258 193.21 370.668 193.21 371.198V373.18C193.21 373.711 193.345 374.121 193.615 374.411C193.885 374.702 194.261 374.847 194.741 374.847ZM203.684 376.453C202.623 376.453 201.782 376.163 201.161 375.583C200.541 374.992 200.23 374.201 200.23 373.21V371.168C200.23 370.178 200.541 369.392 201.161 368.811C201.782 368.221 202.623 367.925 203.684 367.925C204.745 367.925 205.585 368.221 206.206 368.811C206.827 369.392 207.137 370.173 207.137 371.153V373.21C207.137 374.201 206.827 374.992 206.206 375.583C205.585 376.163 204.745 376.453 203.684 376.453ZM203.684 374.817C204.184 374.817 204.569 374.682 204.84 374.411C205.12 374.131 205.26 373.731 205.26 373.21V371.168C205.26 370.648 205.12 370.253 204.84 369.982C204.569 369.702 204.184 369.562 203.684 369.562C203.183 369.562 202.793 369.702 202.513 369.982C202.242 370.253 202.107 370.648 202.107 371.168V373.21C202.107 373.731 202.242 374.131 202.513 374.411C202.793 374.682 203.183 374.817 203.684 374.817ZM212.371 376.453C211.74 376.453 211.185 376.358 210.704 376.168C210.224 375.968 209.848 375.688 209.578 375.327C209.318 374.967 209.188 374.542 209.188 374.051H211.08C211.08 374.341 211.195 374.567 211.425 374.727C211.665 374.877 211.985 374.952 212.386 374.952H213.031C213.502 374.952 213.852 374.867 214.082 374.697C214.313 374.527 214.428 374.291 214.428 373.991C214.428 373.421 214.002 373.07 213.152 372.94L211.995 372.79C210.264 372.54 209.398 371.714 209.398 370.313C209.398 369.532 209.658 368.941 210.179 368.541C210.709 368.131 211.475 367.925 212.476 367.925H213.046C213.977 367.925 214.723 368.136 215.284 368.556C215.854 368.966 216.139 369.512 216.139 370.193H214.248C214.248 369.952 214.142 369.767 213.932 369.637C213.722 369.497 213.422 369.427 213.031 369.427H212.461C211.64 369.427 211.23 369.722 211.23 370.313C211.23 370.823 211.595 371.133 212.326 371.244L213.497 371.424C214.428 371.554 215.118 371.824 215.569 372.234C216.029 372.645 216.259 373.215 216.259 373.946C216.259 374.737 215.984 375.352 215.434 375.793C214.893 376.233 214.092 376.453 213.031 376.453H212.371ZM222.589 376.318C221.819 376.318 221.203 376.098 220.743 375.658C220.292 375.207 220.067 374.602 220.067 373.841V369.757H217.83V368.061H220.067V365.733H221.959V368.061H225.127V369.757H221.959V373.796C221.959 374.036 222.024 374.236 222.154 374.396C222.294 374.547 222.484 374.622 222.725 374.622H224.977V376.318H222.589ZM230.001 372.82L229.67 367.43V365.358H231.712V367.43L231.382 372.82H230.001ZM230.466 376.393C230.156 376.393 229.905 376.303 229.715 376.123C229.525 375.933 229.43 375.693 229.43 375.402C229.43 375.112 229.525 374.877 229.715 374.697C229.905 374.507 230.156 374.411 230.466 374.411H230.916C231.237 374.411 231.487 374.507 231.667 374.697C231.857 374.877 231.952 375.112 231.952 375.402C231.952 375.693 231.852 375.933 231.652 376.123C231.462 376.303 231.212 376.393 230.901 376.393H230.466Z" fill="white"/>
</g>
</svg>
