<svg width="16" height="18" viewBox="0 0 16 18" fill="none" xmlns="http://www.w3.org/2000/svg">
<path d="M1.96875 6.23438V11.4844C1.96875 11.7454 1.86504 11.9958 1.68043 12.1804C1.49583 12.365 1.24545 12.4688 0.984375 12.4688C0.723302 12.4688 0.472923 12.365 0.288317 12.1804C0.103711 11.9958 0 11.7454 0 11.4844V6.23438C0 5.9733 0.103711 5.72292 0.288317 5.53832C0.472923 5.35371 0.723302 5.25 0.984375 5.25C1.24545 5.25 1.49583 5.35371 1.68043 5.53832C1.86504 5.72292 1.96875 5.9733 1.96875 6.23438ZM4.26562 0C4.00455 0 3.75417 0.103711 3.56957 0.288317C3.38496 0.472923 3.28125 0.723302 3.28125 0.984375V16.7344C3.28125 16.9954 3.38496 17.2458 3.56957 17.4304C3.75417 17.615 4.00455 17.7188 4.26562 17.7188C4.5267 17.7188 4.77708 17.615 4.96168 17.4304C5.14629 17.2458 5.25 16.9954 5.25 16.7344V0.984375C5.25 0.723302 5.14629 0.472923 4.96168 0.288317C4.77708 0.103711 4.5267 0 4.26562 0ZM7.54687 2.625C7.2858 2.625 7.03542 2.72871 6.85082 2.91332C6.66621 3.09792 6.5625 3.3483 6.5625 3.60937V14.1094C6.5625 14.3704 6.66621 14.6208 6.85082 14.8054C7.03542 14.99 7.2858 15.0937 7.54687 15.0937C7.80795 15.0937 8.05833 14.99 8.24293 14.8054C8.42754 14.6208 8.53125 14.3704 8.53125 14.1094V3.60937C8.53125 3.3483 8.42754 3.09792 8.24293 2.91332C8.05833 2.72871 7.80795 2.625 7.54687 2.625ZM10.8281 5.25C10.5671 5.25 10.3167 5.35371 10.1321 5.53832C9.94746 5.72292 9.84375 5.9733 9.84375 6.23438V11.4844C9.84375 11.7454 9.94746 11.9958 10.1321 12.1804C10.3167 12.365 10.5671 12.4688 10.8281 12.4688C11.0892 12.4688 11.3396 12.365 11.5242 12.1804C11.7088 11.9958 11.8125 11.7454 11.8125 11.4844V6.23438C11.8125 5.9733 11.7088 5.72292 11.5242 5.53832C11.3396 5.35371 11.0892 5.25 10.8281 5.25ZM14.1094 3.9375C13.8483 3.9375 13.5979 4.04121 13.4133 4.22582C13.2287 4.41042 13.125 4.6608 13.125 4.92188V12.7969C13.125 13.0579 13.2287 13.3083 13.4133 13.4929C13.5979 13.6775 13.8483 13.7812 14.1094 13.7812C14.3704 13.7812 14.6208 13.6775 14.8054 13.4929C14.99 13.3083 15.0937 13.0579 15.0937 12.7969V4.92188C15.0937 4.6608 14.99 4.41042 14.8054 4.22582C14.6208 4.04121 14.3704 3.9375 14.1094 3.9375Z" fill="#E9D3B6"/>
</svg>
