<svg width="280" height="280" viewBox="0 0 280 280" fill="none" xmlns="http://www.w3.org/2000/svg">
<mask id="mask0_8_95" style="mask-type:alpha" maskUnits="userSpaceOnUse" x="0" y="0" width="280" height="280">
<rect width="280" height="280" fill="#0F0F0F"/>
</mask>
<g mask="url(#mask0_8_95)">
<rect width="280" height="280" fill="#0F0F0F"/>
<path d="M308.116 59.6129C283.269 72.8158 257.539 85.8516 237.724 107.495C231.433 114.367 230.892 121.529 236.531 124.438C248.316 130.518 258.657 119.954 268.473 115.299C270.927 114.135 272.764 113.072 275.444 112.768C285.827 111.592 288.577 117.006 288.654 122.3C288.549 124.385 287.478 127.525 284.073 131.74C278.413 138.745 271.203 142.688 263.451 147.139C243.039 158.369 201.953 168.984 188.838 201.853" stroke="#5D5449" stroke-miterlimit="10"/>
<path d="M309.711 61.4464C284.63 75.3264 259.248 89.3582 239.399 111.785C239.01 112.224 238.639 112.665 238.284 113.106C232.278 120.596 234.312 126.892 238.52 129.111C243.956 131.979 249.679 130.994 254.716 128.757C261.057 125.941 266.737 121.211 272.676 118.128C272.769 118.08 272.864 118.035 272.959 117.989C275.572 116.724 277.886 115.86 280.766 115.817C289.582 115.686 292.235 120.426 292.173 125.358C292.169 125.666 292.133 125.991 292.073 126.334C291.722 128.34 290.624 130.881 288.306 134.024C283.506 140.533 277.181 144.554 270.637 148.837C258.288 156.92 241.95 163.714 226.379 174.284C214.674 182.229 197.206 196.97 196.889 211.892" stroke="#5D5449" stroke-miterlimit="10"/>
<path d="M311.307 63.2803C285.992 77.8371 260.957 92.8648 241.075 116.075C240.689 116.525 240.316 116.977 239.954 117.43C233.169 125.95 237.377 132.093 240.51 133.784C246.142 136.824 252.633 135.429 257.958 132.854C264.801 129.547 270.629 124.403 277.138 120.833C277.238 120.778 277.342 120.729 277.445 120.678C280.218 119.312 282.983 118.595 286.089 118.865C293.241 119.486 295.723 123.807 295.694 128.415C295.692 128.695 295.672 128.989 295.623 129.291C295.302 131.269 294.322 133.574 292.541 136.307C288.613 142.337 283.224 146.533 277.825 150.535C264.097 160.711 248.33 168.279 232.619 180.282C222.352 188.126 199.513 207.277 204.94 221.932" stroke="#5D5449" stroke-miterlimit="10"/>
<path d="M312.904 65.114C287.354 80.3479 262.665 96.3714 242.751 120.365C242.368 120.826 241.993 121.289 241.624 121.753C234.058 131.303 240.436 137.311 242.5 138.457C248.322 141.689 255.585 139.859 261.2 136.952C268.545 133.149 274.52 127.596 281.6 123.539C281.707 123.477 281.82 123.424 281.932 123.368C284.864 121.901 288.067 121.225 291.412 121.914C296.868 123.037 299.21 127.19 299.215 131.474C299.215 131.726 299.21 131.988 299.172 132.248C298.889 134.201 298.032 136.281 296.776 138.591C293.745 144.165 289.344 148.624 285.012 152.233C270.041 164.706 254.615 172.716 238.86 186.28C229.967 193.936 201.821 217.583 212.991 231.972" stroke="#5D5449" stroke-miterlimit="10"/>
<path d="M314.499 66.9475C288.225 83.1602 263.449 100.525 243.292 126.076C234.947 136.655 243.488 142.544 244.489 143.13C250.472 146.631 258.467 144.173 264.441 141.049C272.194 136.597 278.629 131.124 286.06 126.243C289.225 124.548 293.031 123.712 296.733 124.961C300.755 126.639 302.93 131.035 302.72 135.205C301.34 142.255 296.855 149.784 292.198 153.931C276.7 169.517 260.752 176.996 245.1 192.278C237.516 199.682 204.128 227.889 221.042 242.011" stroke="#5D5449" stroke-miterlimit="10"/>
<path d="M195.301 175.258C193.359 175.744 192.166 178.141 191.776 179.944C191.348 181.918 191.487 184.085 190.696 185.938C190.064 187.421 188.598 188.212 186.859 188.751L186.767 189.669L210.22 193.616C209.652 194.002 209.196 194.61 208.917 195.506C207.726 198.903 208.381 202.215 209.714 203.831C212.243 206.895 216.106 205.363 217.072 202.459C218.092 199.387 217.702 194.568 214.095 193.415C213.905 193.354 213.715 193.304 213.527 193.259L213.529 193.238L200.125 190.983C200.488 190.537 200.506 189.675 200.582 189.125C200.735 188.017 200.721 186.874 200.513 185.757C200.308 184.659 199.974 183.781 199.602 182.708C198.959 180.858 199.119 179.452 200.26 178.198C200.606 177.818 200.763 177.608 201.301 177.548C201.875 177.486 202.485 177.539 202.757 177.892C202.115 176.702 200.317 177.169 199.663 177.742C198.58 178.692 198.092 180.095 197.987 181.504C197.919 182.406 198.024 183.916 198.106 184.824C198.173 185.572 198.363 186.508 198.279 187.304C198.186 188.193 198.25 188.774 197.669 189.467C197.435 189.747 196.99 190.156 196.534 190.379L193.936 189.942C194.612 189.818 195.073 189.304 195.339 188.901C195.816 188.18 195.593 187.159 195.535 186.302C195.427 184.695 195.142 183.176 194.868 181.586C194.61 180.092 194.536 176.955 196.372 176.387C197.304 176.099 197.946 176.877 198.711 177.218C198.258 175.86 196.686 174.912 195.301 175.258Z" fill="#5D5449"/>
<path d="M254.844 121.674C253.81 120.996 252.395 121.17 251.552 121.512C250.629 121.887 249.884 122.554 248.847 122.743C248.017 122.895 247.079 122.502 246.115 121.925L245.732 122.145L254.568 133.081C254.175 132.951 253.748 132.931 253.292 133.066C251.505 133.52 250.56 134.725 250.545 135.737C250.516 137.658 252.783 138.847 254.288 138.435C255.879 138 257.5 136.483 256.345 134.648C256.284 134.551 256.219 134.458 256.153 134.366L256.162 134.361L251.112 128.111C251.437 128.138 251.766 127.903 252.003 127.78C252.483 127.533 252.902 127.207 253.227 126.806C253.545 126.411 253.725 126.025 253.961 125.567C254.366 124.779 254.96 124.451 255.928 124.577C256.221 124.615 256.369 124.622 256.627 124.831C256.903 125.054 257.151 125.324 257.139 125.537C257.3 124.934 256.336 124.312 255.836 124.199C255.007 124.012 254.27 124.201 253.7 124.552C253.334 124.777 252.818 125.245 252.517 125.535C252.268 125.773 252.003 126.116 251.67 126.304C251.298 126.515 251.111 126.704 250.597 126.656C250.39 126.637 250.042 126.565 249.759 126.437L248.781 125.226C249.124 125.474 249.518 125.523 249.785 125.521C250.262 125.518 250.544 125.139 250.838 124.874C251.388 124.377 251.828 123.831 252.299 123.269C252.742 122.742 253.877 121.83 254.894 122.439C255.411 122.749 255.404 123.237 255.613 123.653C255.92 123.082 255.582 122.157 254.844 121.674Z" fill="#5D5449"/>
<path d="M234.899 182.389C233.405 183.341 232.698 184.842 232.771 185.894C232.912 187.89 234.958 188.511 236.214 187.681C237.542 186.802 238.802 184.795 237.653 183.206C237.593 183.123 237.53 183.043 237.465 182.966L237.472 182.959L229.095 174.16C229.878 173.601 230.596 172.326 231.119 171.727C232.381 170.283 233.826 169.133 235.15 167.792L241.837 174.815C241.489 174.786 241.121 174.881 240.742 175.143C239.248 176.095 238.541 177.595 238.614 178.648C238.754 180.644 240.802 181.265 242.057 180.434C243.385 179.556 244.645 177.549 243.496 175.96C243.436 175.876 243.372 175.797 243.308 175.719L243.315 175.712L235.419 167.419C235.057 166.595 234.317 165.564 233.729 165.043C232.66 165.79 231.687 166.821 230.797 167.846C230.433 168.265 226.684 172.458 226.684 172.458C227.416 173.344 228.535 174.419 228.535 174.419C228.583 174.41 228.631 174.395 228.679 174.379L235.995 182.062C235.646 182.032 235.278 182.127 234.899 182.389Z" fill="#5D5449"/>
<path d="M269.021 136.602C267.817 137.369 267.247 138.578 267.306 139.426C267.419 141.035 269.069 141.535 270.08 140.866C271.15 140.158 272.166 138.541 271.24 137.261C271.192 137.193 271.141 137.129 271.089 137.067L271.094 137.061L264.343 129.97C264.974 129.519 265.553 128.491 265.974 128.009C266.991 126.845 268.156 125.919 269.223 124.838L274.612 130.497C274.331 130.474 274.035 130.55 273.729 130.762C272.525 131.529 271.955 132.738 272.015 133.586C272.127 135.194 273.777 135.695 274.789 135.026C275.858 134.318 276.874 132.701 275.949 131.42C275.9 131.353 275.849 131.289 275.797 131.227L275.803 131.221L269.439 124.538C269.148 123.873 268.552 123.043 268.077 122.623C267.216 123.225 266.432 124.056 265.715 124.882C265.421 125.22 262.4 128.599 262.4 128.599C262.99 129.313 263.892 130.179 263.892 130.179C263.931 130.173 263.97 130.16 264.008 130.147L269.904 136.339C269.623 136.315 269.327 136.391 269.021 136.602Z" fill="#5D5449"/>
<path d="M221.877 170.688L221.582 170.11L221.242 170.274C220.458 170.65 219.616 171.054 218.767 171.487C218.131 170.705 217.514 169.867 216.922 169.026C217.708 168.629 218.486 168.255 219.213 167.906L219.553 167.743L219.258 167.166L218.919 167.328C218.167 167.689 217.362 168.076 216.548 168.489C216.016 167.716 215.508 166.951 215.032 166.234L214.81 165.899L214.301 166.231L214.523 166.566C214.987 167.266 215.484 168.013 216.003 168.768C215.16 169.207 214.319 169.672 213.526 170.167C213.202 169.686 212.888 169.214 212.588 168.761L212.366 168.426L211.857 168.758L212.079 169.093C212.378 169.543 212.691 170.015 213.014 170.494C212.263 170.988 211.566 171.51 210.972 172.06L211.406 172.542C211.977 172.013 212.65 171.511 213.378 171.032C213.95 171.87 214.553 172.723 215.179 173.544C214.489 174.007 213.848 174.493 213.295 175.005L213.73 175.486C214.268 174.988 214.898 174.512 215.578 174.057C216.412 175.111 217.281 176.088 218.168 176.869L218.557 176.4C217.718 175.661 216.889 174.732 216.089 173.725C216.899 173.215 217.765 172.734 218.635 172.282C219.278 173.046 219.94 173.75 220.611 174.341L221.001 173.872C220.389 173.334 219.783 172.693 219.19 171.996C219.994 171.589 220.79 171.207 221.534 170.849L221.877 170.688ZM215.691 173.212C215.067 172.396 214.463 171.543 213.891 170.704C214.685 170.211 215.53 169.744 216.376 169.305C216.964 170.144 217.579 170.982 218.215 171.771C217.353 172.222 216.496 172.702 215.691 173.212Z" fill="#5D5449"/>
<path d="M248.023 94.5696L247.832 94.1961L247.611 94.3018C247.104 94.5455 246.559 94.807 246.01 95.0866C245.598 94.5802 245.198 94.0382 244.816 93.4941C245.325 93.2376 245.828 92.9954 246.298 92.7694L246.518 92.6636L246.328 92.2899L246.108 92.3954C245.622 92.6288 245.101 92.8798 244.574 93.1462C244.23 92.6461 243.9 92.1509 243.593 91.6873L243.449 91.4701L243.12 91.6849L243.264 91.902C243.564 92.3551 243.885 92.8382 244.222 93.3274C243.676 93.6107 243.132 93.9121 242.618 94.2323C242.408 93.921 242.206 93.6155 242.012 93.3228L241.867 93.1057L241.538 93.3204L241.682 93.5375C241.876 93.8293 242.078 94.1343 242.287 94.4442C241.801 94.7644 241.35 95.1016 240.966 95.4575L241.247 95.7692C241.616 95.4273 242.052 95.1019 242.523 94.7916C242.893 95.3338 243.284 95.8865 243.689 96.4174C243.242 96.7171 242.827 97.0319 242.47 97.3631L242.751 97.6748C243.1 97.3518 243.507 97.044 243.947 96.7498C244.487 97.432 245.05 98.0644 245.623 98.5698L245.876 98.2662C245.332 97.7876 244.796 97.1869 244.279 96.5349C244.803 96.2049 245.363 95.8935 245.926 95.6009C246.342 96.0952 246.77 96.5513 247.205 96.9335L247.457 96.6302C247.061 96.2815 246.669 95.8669 246.285 95.416C246.806 95.1528 247.321 94.9048 247.802 94.6738L248.023 94.5696ZM244.019 96.203C243.615 95.6751 243.225 95.1229 242.854 94.5802C243.368 94.2607 243.915 93.9588 244.463 93.6748C244.843 94.2175 245.242 94.7602 245.653 95.2708C245.095 95.5623 244.54 95.8733 244.019 96.203Z" fill="#5D5449"/>
<path d="M222.853 222.8C222.462 223.205 221.977 223.625 221.38 224.057C220.304 224.834 217.918 225.882 216.096 225.38C215.281 225.156 214.667 224.661 214.273 223.909C213.619 222.661 213.478 221.381 213.866 220.208C214.426 218.517 216.043 217.093 218.543 216.089C220.691 215.227 222.458 215.932 223.794 218.184C224.439 219.272 224.699 220.883 222.853 222.8ZM215.695 218.904C215.209 219.409 214.865 219.954 214.675 220.531C214.358 221.488 214.473 222.501 215.018 223.54C215.29 224.06 215.699 224.388 216.268 224.544C217.729 224.946 219.833 224.082 220.86 223.339C223.195 221.652 223.94 220.056 223.075 218.598C222.321 217.329 221.166 215.989 218.898 216.899C217.519 217.453 216.44 218.131 215.695 218.904Z" fill="#5D5449"/>
<path d="M246.695 111.788C246.427 112.066 246.095 112.353 245.687 112.648C244.951 113.18 243.319 113.896 242.073 113.553C241.515 113.4 241.095 113.062 240.826 112.547C240.378 111.693 240.282 110.818 240.548 110.016C240.931 108.859 242.037 107.885 243.747 107.199C245.216 106.609 246.425 107.091 247.339 108.632C247.78 109.375 247.957 110.478 246.695 111.788ZM241.799 109.123C241.466 109.468 241.231 109.842 241.1 110.236C240.884 110.891 240.962 111.583 241.335 112.294C241.521 112.65 241.801 112.874 242.19 112.982C243.189 113.256 244.628 112.665 245.331 112.157C246.928 111.003 247.437 109.911 246.846 108.914C246.331 108.046 245.54 107.129 243.989 107.751C243.046 108.131 242.308 108.595 241.799 109.123Z" fill="#5D5449"/>
<path d="M259.998 84.7094L259.653 84.9623L268.189 94.209C267.796 94.1059 267.382 94.1181 266.956 94.29C265.279 94.8893 264.495 96.1909 264.588 97.226C264.765 99.1903 267.081 100.234 268.491 99.7003C269.981 99.1359 271.386 97.4647 270.073 95.6767C270.004 95.5824 269.932 95.4917 269.858 95.4031L269.866 95.3972L259.998 84.7094Z" fill="#5D5449"/>
<path d="M285.612 157.504C284.746 156.498 283.331 156.253 282.439 156.354C281.462 156.464 280.597 156.927 279.548 156.812C278.707 156.72 277.876 156.036 277.058 155.153L276.64 155.264L282.95 169.162C282.595 168.911 282.183 168.763 281.711 168.765C279.876 168.699 278.703 169.656 278.476 170.693C278.045 172.661 280.003 174.563 281.555 174.59C283.195 174.618 285.092 173.541 284.352 171.307C284.313 171.189 284.27 171.074 284.225 170.959L284.234 170.957L280.627 163.014C280.938 163.139 281.308 162.996 281.565 162.941C282.084 162.83 282.56 162.619 282.96 162.303C283.353 161.993 283.609 161.648 283.935 161.248C284.496 160.558 285.142 160.398 286.059 160.817C286.336 160.944 286.478 160.995 286.687 161.288C286.908 161.599 287.093 161.952 287.037 162.167C287.319 161.594 286.512 160.666 286.048 160.4C285.28 159.96 284.523 159.934 283.893 160.125C283.49 160.248 282.89 160.575 282.536 160.783C282.243 160.954 281.913 161.227 281.55 161.321C281.143 161.427 280.921 161.566 280.431 161.363C280.234 161.281 279.91 161.103 279.661 160.886L278.962 159.346C279.244 159.704 279.617 159.872 279.878 159.951C280.343 160.091 280.697 159.784 281.039 159.599C281.679 159.252 282.222 158.822 282.798 158.385C283.34 157.974 284.636 157.375 285.5 158.307C285.938 158.78 285.828 159.28 285.945 159.77C286.364 159.275 286.228 158.222 285.612 157.504Z" fill="#5D5449"/>
<path d="M261.647 102.649C261.014 101.916 259.976 101.739 259.321 101.814C258.603 101.896 257.967 102.235 257.197 102.153C256.581 102.087 255.972 101.589 255.373 100.946L255.066 101.027L259.67 111.162C259.409 110.98 259.107 110.872 258.761 110.874C257.413 110.829 256.551 111.529 256.382 112.286C256.062 113.723 257.495 115.108 258.634 115.125C259.839 115.143 261.233 114.355 260.694 112.725C260.666 112.639 260.634 112.555 260.602 112.472L260.608 112.47L257.977 106.678C258.205 106.769 258.477 106.663 258.666 106.623C259.047 106.541 259.397 106.387 259.691 106.155C259.981 105.928 260.169 105.677 260.409 105.384C260.822 104.879 261.297 104.761 261.969 105.066C262.173 105.158 262.277 105.195 262.429 105.408C262.59 105.635 262.726 105.893 262.683 106.05C262.892 105.631 262.301 104.955 261.962 104.762C261.399 104.441 260.843 104.424 260.381 104.564C260.085 104.654 259.643 104.894 259.383 105.046C259.168 105.171 258.925 105.37 258.658 105.44C258.36 105.517 258.196 105.62 257.837 105.472C257.692 105.412 257.455 105.284 257.273 105.126L256.763 104.003C256.969 104.264 257.243 104.386 257.434 104.443C257.775 104.544 258.036 104.319 258.287 104.184C258.758 103.93 259.157 103.615 259.581 103.295C259.98 102.995 260.933 102.556 261.565 103.234C261.886 103.579 261.804 103.944 261.888 104.302C262.196 103.94 262.099 103.172 261.647 102.649Z" fill="#5D5449"/>
<path d="M270.354 170.599C269.663 168.352 268.251 166.293 266.48 164.949C265.271 164.031 264.038 163.557 262.911 163.559C262.724 162.969 262.533 162.381 262.339 161.796C261.972 160.693 261.482 159.516 260.964 158.268C260.895 158.104 260.827 157.94 260.759 157.775C261.033 157.656 261.397 157.466 261.94 157.149C263.057 156.5 263.333 154.412 262.661 151.699C262.233 149.977 261.576 148.517 260.707 147.359C260.13 146.592 259.609 146.407 259.272 146.387C259.261 146.386 259.25 146.385 259.24 146.385C258.646 146.368 258.15 146.832 257.767 147.765C256.765 150.2 257.728 153.418 258.947 156.519C258.67 156.593 258.286 156.726 257.692 156.988C255.596 157.91 254.131 160.279 253.772 163.323C253.406 166.424 254.233 169.812 256.1 172.862C257.321 174.856 260.372 177.976 263.332 178.67C264.028 178.833 264.8 178.855 265.579 178.763C266.074 181.248 266.745 185.432 265.079 186.086C263.942 186.533 262.177 186.273 260.882 185.468C260.122 184.996 259.582 184.387 259.276 183.659C258.878 182.714 258.779 181.627 259.034 181.019C259.202 180.617 259.506 180.427 259.963 180.438C259.966 180.438 259.969 180.439 259.972 180.439C260.614 180.457 261.258 180.872 261.697 181.548C262.036 182.069 262.179 182.649 262.064 183.026C261.966 183.344 261.681 183.53 261.244 183.569C261.246 183.48 261.252 183.373 261.264 183.244C261.302 182.838 261.038 182.378 260.675 182.216C260.312 182.054 259.987 182.25 259.949 182.656C259.896 183.223 259.879 183.946 260.22 184.514C260.388 184.793 260.622 185.001 260.879 185.099C260.931 185.12 260.983 185.132 261.035 185.138C262.644 185.307 263.159 184.438 263.323 183.905C263.589 183.041 263.333 181.858 262.657 180.816C261.882 179.622 260.755 178.891 259.641 178.858C259.636 178.858 259.631 178.858 259.626 178.857C258.772 178.837 258.147 179.242 257.817 180.027C257.4 181.022 257.52 182.592 258.122 184.026C258.605 185.176 259.446 186.147 260.555 186.836C261.598 187.484 262.846 187.848 263.987 187.882C264.64 187.901 265.257 187.813 265.78 187.607C268.304 186.615 267.405 181.464 266.803 178.525C268.403 178.09 269.868 177.207 270.559 176.103C271.443 174.69 270.914 172.42 270.354 170.599ZM264.433 173.588C264.002 173.524 263.498 173.365 262.921 173.08C261.472 172.364 260.429 170.892 260.198 169.24C260.002 167.841 260.426 166.048 262.193 165.359C263.017 168.065 263.766 170.815 264.433 173.588ZM258.987 148.751C259.244 148.124 259.479 147.965 259.57 147.967L259.572 147.968C259.609 147.97 259.708 148.05 259.837 148.221C260.518 149.128 261.043 150.312 261.397 151.737C261.888 153.718 261.776 155.306 261.119 155.688C260.66 155.955 260.351 156.12 260.127 156.224C259.016 153.407 258.192 150.681 258.987 148.751ZM263.224 177.12C260.855 176.564 258.141 173.895 257.091 172.182C255.48 169.55 254.766 166.627 255.082 163.951C255.392 161.319 256.642 159.28 258.425 158.495C258.993 158.244 259.336 158.127 259.573 158.066C259.651 158.254 259.729 158.441 259.806 158.627C260.308 159.834 260.783 160.975 261.123 161.998C261.318 162.585 261.509 163.174 261.698 163.766C259.632 164.464 258.537 166.51 258.894 169.065C259.224 171.425 260.694 173.517 262.732 174.524C263.496 174.902 264.192 175.107 264.806 175.175C264.958 175.84 265.105 176.505 265.247 177.172C264.537 177.271 263.836 177.263 263.224 177.12ZM269.424 174.95C268.895 175.795 267.74 176.502 266.46 176.898C266.331 176.298 266.197 175.698 266.06 175.1C266.887 174.885 267.441 174.335 267.653 173.622C267.957 172.606 267.549 171.407 266.617 170.566C266.29 170.272 265.893 170.295 265.73 170.617C265.567 170.94 265.7 171.441 266.027 171.735C266.377 172.05 266.499 172.393 266.391 172.755C266.307 173.035 266.072 173.316 265.678 173.479C265 170.671 264.241 167.885 263.404 165.144C264.224 165.177 265.125 165.545 266.014 166.221C267.414 167.283 268.576 168.978 269.122 170.753C269.537 172.1 270.02 174 269.424 174.95Z" fill="#5D5449"/>
<path d="M284.043 83.6492C282.838 82.3672 281.312 81.5166 279.856 81.3148C278.862 81.1769 278.02 81.359 277.41 81.8303C277.09 81.4962 276.77 81.1651 276.448 80.8372C275.842 80.2194 275.141 79.6002 274.399 78.945C274.301 78.8588 274.203 78.7722 274.106 78.6857C274.21 78.4882 274.336 78.2035 274.514 77.7559C274.878 76.8366 274.255 75.2624 272.887 73.6468C272.018 72.6207 271.123 71.8739 270.224 71.4274C269.628 71.1312 269.278 71.2195 269.088 71.3456C269.082 71.3496 269.076 71.354 269.07 71.3585C268.742 71.5936 268.645 72.1242 268.783 72.936C269.142 75.0553 270.853 76.9039 272.66 78.5626C272.538 78.7295 272.379 78.9828 272.154 79.4129C271.361 80.9307 271.444 83.1967 272.376 85.4738C273.325 87.7937 275.025 89.8166 277.165 91.1704C278.563 92.055 281.369 92.9649 283.228 92.2168C283.665 92.0408 284.091 91.7351 284.478 91.3455C285.666 92.8757 287.576 95.5205 286.917 96.6723C286.466 97.4579 285.415 98.0121 284.416 97.9886C283.831 97.9751 283.313 97.7749 282.878 97.3933C282.313 96.8978 281.858 96.1806 281.77 95.6487C281.713 95.2981 281.807 95.0388 282.058 94.8558C282.059 94.8547 282.061 94.8536 282.063 94.8522C282.417 94.5979 282.919 94.6186 283.407 94.9083C283.783 95.1317 284.076 95.4771 284.152 95.7883C284.217 96.0513 284.131 96.3008 283.909 96.5096C283.878 96.4466 283.841 96.3691 283.8 96.2736C283.671 95.9746 283.357 95.7628 283.101 95.8008C282.844 95.8388 282.741 96.1116 282.871 96.411C283.052 96.8292 283.31 97.342 283.705 97.5965C283.899 97.7221 284.103 97.7696 284.278 97.7315C284.314 97.7234 284.347 97.7107 284.377 97.6932C285.311 97.1408 285.268 96.3192 285.159 95.8779C284.983 95.164 284.407 94.4435 283.656 93.9971C282.794 93.4853 281.914 93.4441 281.299 93.8851C281.296 93.887 281.294 93.889 281.291 93.8912C280.821 94.2324 280.632 94.7758 280.744 95.4625C280.886 96.3314 281.532 97.3786 282.389 98.1298C283.075 98.7316 283.89 99.0607 284.745 99.0801C285.549 99.0987 286.36 98.833 286.99 98.3811C287.35 98.1226 287.651 97.8036 287.858 97.4417C288.858 95.6973 286.465 92.472 285.052 90.6682C285.757 89.6982 286.224 88.4707 286.19 87.4109C286.147 86.0551 285.02 84.6883 284.043 83.6492ZM281.944 88.2057C281.687 88.3404 281.356 88.4392 280.938 88.4805C279.889 88.5833 278.78 87.9899 278.043 86.9307C277.42 86.0344 276.986 84.6052 277.688 83.388C279.134 84.9354 280.557 86.5451 281.944 88.2057ZM269.808 73.1163C269.716 72.5709 269.784 72.3613 269.834 72.3253L269.835 72.3245C269.856 72.3105 269.939 72.3258 270.072 72.3912C270.777 72.7418 271.499 73.3499 272.217 74.1986C273.216 75.3782 273.743 76.534 273.529 77.0748C273.379 77.453 273.273 77.6972 273.19 77.8629C271.546 76.3578 270.093 74.7962 269.808 73.1163ZM282.596 91.177C281.109 91.7758 278.652 91.0416 277.451 90.2814C275.605 89.1132 274.137 87.3676 273.318 85.3659C272.513 83.3978 272.435 81.4512 273.109 80.1598C273.324 79.7482 273.466 79.5234 273.572 79.3818C273.683 79.4808 273.795 79.579 273.906 79.6766C274.624 80.311 275.303 80.9106 275.865 81.4841C276.188 81.813 276.51 82.1447 276.83 82.4803C275.971 83.8287 276.135 85.7151 277.273 87.3519C278.325 88.8639 279.895 89.7132 281.37 89.5685C281.924 89.5144 282.376 89.3678 282.733 89.1593C283.062 89.5608 283.388 89.964 283.711 90.3706C283.363 90.736 282.981 91.0227 282.596 91.177ZM285.15 87.0782C285.176 87.889 284.813 88.8645 284.266 89.6743C283.974 89.309 283.68 88.9455 283.384 88.5845C283.752 88.0899 283.849 87.475 283.7 86.8878C283.489 86.0515 282.824 85.3829 282.009 85.1838C281.723 85.1142 281.516 85.2954 281.547 85.5889C281.578 85.8822 281.835 86.1767 282.121 86.246C282.427 86.3204 282.621 86.5093 282.696 86.8068C282.754 87.0371 282.731 87.3314 282.578 87.6101C281.172 85.9296 279.73 84.2992 278.263 82.7316C278.719 82.4134 279.343 82.2951 280.075 82.3969C281.225 82.5564 282.481 83.2559 283.433 84.2691C284.156 85.0384 285.12 86.1656 285.15 87.0782Z" fill="#5D5449"/>
<path d="M242.737 201.56C242.701 201.499 242.662 201.441 242.623 201.385L242.627 201.381L237.85 195.129C237.623 194.572 237.171 193.833 236.817 193.426C236.203 193.712 235.651 194.186 235.148 194.669C234.942 194.867 232.819 196.824 232.819 196.824C233.264 197.476 233.939 198.301 233.939 198.301C233.967 198.303 233.995 198.301 234.023 198.299L238.449 204.092C238.244 204.021 238.03 204.021 237.813 204.12C236.954 204.465 236.566 205.265 236.628 205.914C236.746 207.145 237.957 207.84 238.678 207.531C239.441 207.205 240.144 206.185 239.442 205.043C239.405 204.983 239.367 204.925 239.328 204.868L239.332 204.865L235.13 199.366C235.429 198.99 236.128 198.426 236.807 197.879C237.661 197.19 238.247 196.705 238.496 196.355L241.745 200.608C241.54 200.537 241.326 200.536 241.109 200.637C240.25 200.981 239.862 201.781 239.924 202.43C240.042 203.661 241.253 204.356 241.974 204.047C242.736 203.722 243.44 202.702 242.737 201.56ZM236.43 197.369C235.738 197.926 235.08 198.457 234.742 198.859L234.262 198.231C234.711 198.013 235.109 197.352 235.405 197.071C236.119 196.392 236.945 195.92 237.698 195.313L238.103 195.842C237.948 196.144 237.111 196.82 236.43 197.369Z" fill="#5D5449"/>
<path d="M291.128 143.161C291.093 143.104 291.056 143.049 291.019 142.995L291.023 142.992L286.502 137.075C286.287 136.548 285.86 135.849 285.524 135.463C284.943 135.735 284.421 136.183 283.944 136.64C283.749 136.827 281.74 138.68 281.74 138.68C282.161 139.296 282.8 140.077 282.8 140.077C282.827 140.079 282.853 140.077 282.879 140.075L287.068 145.558C286.874 145.49 286.672 145.49 286.465 145.585C285.652 145.911 285.286 146.667 285.344 147.282C285.456 148.448 286.602 149.104 287.284 148.813C288.006 148.504 288.672 147.539 288.008 146.459C287.972 146.401 287.936 146.347 287.899 146.293L287.902 146.29L283.926 141.085C284.209 140.73 284.87 140.196 285.513 139.678C286.322 139.027 286.876 138.567 287.112 138.237L290.187 142.262C289.993 142.194 289.791 142.194 289.585 142.288C288.772 142.614 288.405 143.371 288.464 143.986C288.575 145.151 289.721 145.808 290.404 145.517C291.126 145.207 291.792 144.242 291.128 143.161ZM285.159 139.194C284.504 139.722 283.882 140.224 283.561 140.605L283.107 140.011C283.532 139.805 283.909 139.18 284.189 138.913C284.865 138.27 285.647 137.824 286.36 137.249L286.742 137.75C286.595 138.036 285.803 138.675 285.159 139.194Z" fill="#5D5449"/>
<path d="M289.282 72.2234C289.247 72.1662 289.21 72.1114 289.173 72.0579L289.177 72.0546L284.656 66.1371C284.441 65.6109 284.014 64.9116 283.678 64.5254C283.098 64.7967 282.575 65.2449 282.099 65.7016C281.904 65.8887 279.894 67.7417 279.894 67.7417C280.316 68.3579 280.955 69.1388 280.955 69.1388C280.981 69.1411 281.007 69.1391 281.034 69.1372L285.223 74.6197C285.029 74.552 284.826 74.5518 284.62 74.6466C283.807 74.9725 283.44 75.7292 283.499 76.3438C283.611 77.5093 284.756 78.1663 285.439 77.8748C286.161 77.5662 286.827 76.601 286.162 75.5205C286.127 75.4633 286.091 75.4085 286.054 75.355L286.057 75.3517L282.081 70.1473C282.364 69.7915 283.025 69.2577 283.668 68.7402C284.476 68.0885 285.031 67.6292 285.267 67.2984L288.342 71.3236C288.148 71.2559 287.945 71.2557 287.739 71.3505C286.926 71.6764 286.559 72.4331 286.618 73.0477C286.73 74.2133 287.875 74.8702 288.558 74.5787C289.28 74.2691 289.946 73.3039 289.282 72.2234ZM283.313 68.2569C282.658 68.7848 282.036 69.2867 281.715 69.6675L281.261 69.0735C281.686 68.8677 282.064 68.242 282.343 67.9754C283.019 67.3329 283.801 66.886 284.514 66.3117L284.897 66.8122C284.749 67.098 283.957 67.7377 283.313 68.2569Z" fill="#5D5449"/>
<path d="M279.511 116.646C279.476 116.589 279.44 116.534 279.403 116.48L279.406 116.477L274.885 110.559C274.671 110.033 274.243 109.334 273.907 108.948C273.327 109.22 272.804 109.668 272.328 110.124C272.133 110.311 270.124 112.165 270.124 112.165C270.545 112.781 271.184 113.562 271.184 113.562C271.211 113.564 271.237 113.562 271.263 113.56L275.452 119.043C275.258 118.975 275.055 118.975 274.85 119.069C274.037 119.395 273.67 120.152 273.729 120.767C273.84 121.932 274.986 122.589 275.669 122.298C276.391 121.989 277.056 121.024 276.392 119.943C276.357 119.886 276.32 119.831 276.283 119.778L276.287 119.774L272.311 114.57C272.594 114.214 273.255 113.681 273.898 113.163C274.706 112.511 275.261 112.052 275.496 111.721L278.572 115.746C278.378 115.678 278.175 115.678 277.969 115.773C277.156 116.099 276.79 116.856 276.848 117.47C276.96 118.636 278.105 119.293 278.788 119.001C279.51 118.691 280.175 117.726 279.511 116.646ZM273.542 112.679C272.887 113.207 272.264 113.709 271.944 114.089L271.49 113.495C271.915 113.29 272.292 112.664 272.572 112.398C273.247 111.755 274.03 111.308 274.743 110.734L275.125 111.234C274.978 111.52 274.186 112.16 273.542 112.679Z" fill="#5D5449"/>
<path d="M239.136 170.628C234.244 167.01 233.212 160.11 236.832 155.218L259.934 123.997C263.553 119.106 270.452 118.075 275.343 121.695L337.313 167.55L301.112 216.473L239.136 170.628Z" fill="#E9D3B6"/>
<circle cx="237.266" cy="131.463" r="24.9249" transform="rotate(-53.5 237.266 131.463)" fill="#F4E9DB"/>
<rect x="224.557" y="130.491" width="6" height="2" rx="1" transform="rotate(-54.5 224.557 130.491)" fill="#0F0F0F"/>
<rect x="235.591" y="115.023" width="6" height="2" rx="1" transform="rotate(-54.5 235.591 115.023)" fill="#0F0F0F"/>
<path d="M232.226 124.906C237.579 126.759 236.005 123.507 234.549 121.65" stroke="#0F0F0F" stroke-linejoin="round"/>
<path d="M234.549 121.65C239.901 123.502 238.328 120.251 236.872 118.393" stroke="#0F0F0F" stroke-linejoin="round"/>
<path d="M245.183 105.385L254.731 112.195C255.333 112.625 255.322 113.67 254.707 114.533C254.092 115.394 253.107 115.746 252.505 115.316L242.957 108.506C242.357 108.077 242.367 107.03 242.981 106.169C243.597 105.307 244.581 104.956 245.183 105.385Z" fill="#181818"/>
<path d="M218.297 143.265L227.728 149.992C228.323 150.416 228.305 151.457 227.691 152.319C227.076 153.181 226.097 153.536 225.502 153.112L216.071 146.386C215.478 145.962 215.494 144.92 216.109 144.058C216.724 143.195 217.703 142.841 218.297 143.265Z" fill="#181818"/>
<path d="M216.247 149.485L217.676 147.345C217.571 147.278 217.298 147.004 217.117 146.822C216.868 146.572 216.632 146.335 216.428 146.19C206.147 138.856 204.354 124.334 212.346 113.13C220.212 102.102 233.976 98.1301 244.329 105.515C244.538 105.664 244.748 105.819 244.952 105.976L247.549 104.92C247.33 104.752 247.183 104.458 246.959 104.298C241.543 100.434 234.594 98.7132 227.806 100.103C220.939 101.508 214.974 106.041 210.737 111.982C206.484 117.945 204.572 124.98 205.356 131.79C206.137 138.58 209.538 144.438 214.933 148.286C215.032 148.357 215.251 148.577 215.427 148.753C215.721 149.049 215.999 149.328 216.247 149.485Z" fill="#6A6A61"/>
<path d="M254.216 100.056L257.081 102.1C257.95 102.72 257.982 104.165 257.153 105.329L256.16 106.72L250.406 102.616C250.374 102.6 250.34 102.587 250.311 102.566C250.278 102.542 250.244 102.52 250.211 102.497L251.662 100.462C252.472 99.7495 253.51 99.5535 254.216 100.056Z" fill="#181818"/>
<path d="M214.147 156.23L217.013 158.274C217.881 158.894 219.259 158.454 220.088 157.291L221.081 155.9L215.327 151.795C215.301 151.77 215.278 151.742 215.248 151.721C215.215 151.698 215.183 151.674 215.151 151.649L213.7 153.684C213.289 154.682 213.442 155.727 214.147 156.23Z" fill="#181818"/>
<path d="M212.688 148.821L215.242 145.24C215.305 145.287 215.368 145.334 215.432 145.38C215.509 145.436 215.574 145.502 215.638 145.571L226.801 153.534L225.082 155.943C223.586 158.041 220.998 158.763 219.303 157.554L213.715 153.568C212.342 152.588 211.98 150.642 212.688 148.821Z" fill="black"/>
<path d="M250.952 101.26L256.609 105.295C258.324 106.518 258.52 109.186 257.045 111.255L255.281 113.728L243.921 105.626C243.859 105.593 243.793 105.566 243.734 105.524C243.669 105.478 243.604 105.433 243.538 105.389L246.118 101.771C247.597 100.532 249.56 100.267 250.952 101.26Z" fill="black"/>
<path d="M257.71 110.201C257.71 110.201 257.79 110.015 257.805 109.966C257.819 109.916 257.864 109.722 257.864 109.722L246.407 101.549L246.128 101.939L257.71 110.201Z" fill="#E9D3B6"/>
<path d="M223.867 157.276C224.19 157.04 224.598 156.622 224.598 156.622L213.016 148.361C213.016 148.361 212.843 148.604 212.672 148.844C212.568 149.028 212.533 149.216 212.543 149.198C212.565 149.158 223.823 157.241 223.867 157.276Z" fill="#E9D3B6"/>
</g>
</svg>
