<svg width="66" height="49" viewBox="0 0 66 49" fill="none" xmlns="http://www.w3.org/2000/svg">
<path d="M29.8564 4.39174C30.3702 4.51988 30.8106 4.58166 31.2507 4.63549C32.071 4.73549 32.8915 4.83825 33.7197 4.85507C33.8763 4.85813 34.0311 4.89208 34.1779 4.94743C34.432 5.04346 34.6045 5.26734 34.5895 5.50467C34.5733 5.76034 34.4354 5.93925 34.1953 6.03987C34.046 6.10257 33.8913 6.1093 33.7344 6.10563C33.231 6.094 32.7322 6.02702 32.2337 5.96555C31.3471 5.85606 30.4617 5.73587 29.5968 5.50007C29.3582 5.43493 29.1264 5.35297 28.9166 5.22176C28.4634 4.93887 28.3542 4.50398 28.6187 4.03972C28.7772 3.76203 29.0163 3.55803 29.2656 3.36811C29.613 3.10326 29.9879 2.88031 30.3764 2.68152C30.8837 2.42156 31.389 2.15763 31.8755 1.86005C31.941 1.81999 32.0196 1.79399 32.0545 1.69918C31.8633 1.52608 31.6193 1.44015 31.3844 1.34534C30.9183 1.15756 30.4452 0.987518 29.9757 0.807688C29.861 0.763649 29.7439 0.720828 29.6393 0.658132C29.3845 0.505216 29.3931 0.225072 29.6497 0.070015C29.7824 -0.0101131 29.9292 -0.00246337 30.0739 0.00334745C30.5595 0.0229207 31.0146 0.188071 31.4773 0.311933C31.8881 0.421727 32.2857 0.571587 32.6588 0.780165C33.5558 1.28112 33.6084 2.08759 32.7796 2.68825C32.4077 2.95799 32.0022 3.17238 31.5954 3.38341C31.1195 3.63052 30.6357 3.86387 30.1828 4.15257C30.0913 4.2116 30.0066 4.28133 29.8564 4.39174Z" fill="#2E2E2E"/>
<path d="M31.8976 9.86859C31.6599 9.68509 31.4517 9.55267 31.2859 9.36825C31.1877 9.25876 31.1012 9.14346 31.051 9.00491C30.9908 8.83854 31.029 8.66575 31.1501 8.58042C31.2819 8.48775 31.4244 8.49907 31.5624 8.56788C31.6113 8.59235 31.6532 8.63242 31.6957 8.66851C31.9419 8.87922 32.1988 9.07526 32.4618 9.26549C33.0548 9.69396 33.0405 10.1123 32.4159 10.5151C32.1162 10.7084 31.7954 10.8693 31.4847 11.046C31.3617 11.1158 31.2241 11.1672 31.1253 11.3072C31.2336 11.3785 31.3397 11.3987 31.4446 11.4253C31.6608 11.4806 31.8749 11.5439 32.0905 11.6017C32.2364 11.6412 32.3551 11.7228 32.4471 11.8394C32.6285 12.0684 32.5542 12.3642 32.2869 12.4758C32.1728 12.5235 32.0535 12.551 31.9269 12.522C31.5082 12.426 31.1155 12.2718 30.7825 11.9929C30.358 11.6375 30.3357 11.1509 30.744 10.7815C31.0002 10.5497 31.2841 10.3487 31.5559 10.1344C31.6587 10.0533 31.763 9.97318 31.8976 9.86859Z" fill="#2E2E2E"/>
<path d="M65.2069 25.3774C64.7928 23.3222 62.5459 22.5353 61.0357 21.4214C58.0609 19.3164 54.9833 17.5358 51.7436 15.9742C45.9673 13.1899 40.4727 11.6186 34.4304 14.4619C31.3452 15.9137 28.2599 17.3655 25.1747 18.8172C20.3144 21.1043 15.5009 23.8271 10.9403 26.7453C8.70133 28.1782 6.48771 29.6712 4.38358 31.3166C2.95259 32.4354 1.09497 33.7318 0.291239 35.4738C-0.920469 38.1012 2.025 39.5909 3.79455 40.5521C6.48557 42.014 9.19066 43.605 11.8902 45.1188C14.8024 46.752 17.891 48.1035 21.1515 48.7234C27.3458 49.9008 32.7376 47.1141 38.0842 44.2374C38.8595 44.2365 40.322 43.0334 41.0287 42.6529C42.1612 42.0437 43.2937 41.4342 44.4265 40.8247C46.6915 39.6059 48.9568 38.3872 51.2218 37.1684C54.5744 35.3646 58.4123 33.5685 61.303 30.9897C62.719 29.7266 65.6587 27.6228 65.2069 25.3774Z" fill="#2E2E2E"/>
<mask id="mask0_232_411" style="mask-type:luminance" maskUnits="userSpaceOnUse" x="0" y="12" width="66" height="37">
<path d="M65.214 25.4194C64.8027 23.3635 62.5567 22.5739 61.048 21.4582C58.0759 19.3495 55.0005 17.565 51.7629 15.9991C45.99 13.2075 40.4976 11.6291 34.4516 14.4647C31.3645 15.9125 28.2774 17.3604 25.1903 18.8085C20.3273 21.0894 15.5101 23.8058 10.9459 26.7185C8.70506 28.1483 6.4896 29.6389 4.38334 31.2815C2.95112 32.3984 1.09136 33.6924 0.285793 35.4335C-0.92928 38.0594 2.01436 39.5528 3.78268 40.5165C6.47187 41.9817 9.17482 43.576 11.8726 45.0936C14.7826 46.7304 17.8693 48.0858 21.1292 48.71C27.322 49.8954 32.7175 47.1154 38.0677 44.2455C38.843 44.2455 40.307 43.0442 41.0144 42.6649C42.1478 42.0569 43.2809 41.4489 44.4144 40.8413C46.6809 39.6253 48.9477 38.4096 51.2142 37.1936C54.5689 35.3941 58.4093 33.6028 61.303 31.0277C62.7203 29.7655 65.6627 27.6654 65.214 25.4194Z" fill="white"/>
</mask>
<g mask="url(#mask0_232_411)">
<path d="M-0.000172533 33.4376C-0.000172533 33.4376 1.73543 35.876 11.5236 41.5651C21.3118 47.2545 23.7587 47.2621 27.6223 46.378C31.4859 45.4938 56.729 32.1766 58.0169 30.9784C59.3047 29.7801 64.8428 27.0708 66.0019 22.6007L68.4488 33.5731L60.9789 50.0311L40.3725 57.5494L14.3568 59.9878C14.3568 59.9878 3.40955 58.4978 1.99294 57.4139C0.576322 56.3304 -6.24956 51.6667 -6.76488 50.6119C-7.27991 49.5574 -8.43901 40.4815 -8.43901 40.4815L-2.51473 34.7921L-0.000172533 33.4376Z" fill="#222222"/>
</g>
<mask id="mask1_232_411" style="mask-type:luminance" maskUnits="userSpaceOnUse" x="34" y="9" width="32" height="22">
<path d="M46.4099 9.62239C46.4099 9.62239 59.4855 13.3606 65.0841 20.4015C65.0841 20.4015 62.6383 27.2481 54.2863 30.8444C54.2863 30.8444 33.5723 21.582 34.3454 17.2275C34.3454 17.2275 39.9507 9.74319 46.4099 9.62239Z" fill="white"/>
</mask>
<g mask="url(#mask1_232_411)">
<path d="M46.4099 9.62239C46.4099 9.62239 59.4855 13.3606 65.0841 20.4015C65.0841 20.4015 62.6383 27.2481 54.2863 30.8444C54.2863 30.8444 33.5723 21.582 34.3454 17.2275C34.3454 17.2275 39.9507 9.74319 46.4099 9.62239Z" fill="#2E2E2E"/>
</g>
<mask id="mask2_232_411" style="mask-type:luminance" maskUnits="userSpaceOnUse" x="34" y="9" width="32" height="22">
<path d="M46.4099 9.62239C46.4099 9.62239 59.4855 13.3606 65.0841 20.4015C65.0841 20.4015 62.6383 27.2481 54.2863 30.8444C54.2863 30.8444 33.5723 21.582 34.3454 17.2275C34.3454 17.2275 39.9507 9.74319 46.4099 9.62239Z" fill="white"/>
</mask>
<g mask="url(#mask2_232_411)">
<path d="M33.8653 18.1368C33.8653 18.1368 52.1935 28.4225 55.0307 27.9259C57.8683 27.4292 64.0711 21.8857 65.0838 20.4015C66.0967 18.9173 66.1673 21.8254 66.1673 21.8254C66.1673 21.8254 63.117 26.0817 62.9754 26.2943C62.8334 26.5071 59.3577 30.2156 58.4356 30.8441C57.5135 31.4726 53.7539 33.1039 53.2572 33.033C52.7605 32.962 47.8801 31.3304 47.5892 31.1888C47.2984 31.0469 38.4503 26.3652 38.1573 26.0814C37.8644 25.7976 35.207 21.967 35.207 21.967L34.1357 19.839L33.8653 18.1368Z" fill="#222222"/>
</g>
<path d="M33.801 15.12C35.5418 13.7592 38.0561 14.0676 39.4165 15.8087L47.7733 26.505C49.1334 28.2458 48.8247 30.7596 47.0839 32.1197L37.4864 39.618C35.7456 40.9781 33.2318 40.6695 31.8717 38.9286L23.5168 28.2348C22.1569 26.4943 22.4652 23.981 24.2054 22.6207L33.801 15.12Z" fill="#E9D3B6"/>
<circle cx="47.4294" cy="18.1316" r="8.83374" transform="rotate(52 47.4294 18.1316)" fill="#F4E9DB"/>
<rect x="44.6751" y="10.772" width="1.72236" height="0.708828" rx="0.354414" transform="rotate(47 44.6751 10.772)" fill="#0F0F0F"/>
<rect x="49.2675" y="15.6968" width="1.71922" height="0.708828" rx="0.354414" transform="rotate(47 49.2675 15.6968)" fill="#0F0F0F"/>
<path d="M45.7002 13.3493C45.1882 15.6433 46.9333 15.8869 47.8698 15.7219" stroke="#0F0F0F" stroke-width="0.5" stroke-linejoin="round"/>
<path d="M46.1019 33.277C45.8279 32.1931 45.2753 31.2585 44.5281 30.4462C43.9627 29.8318 43.3565 29.2559 42.7045 28.7247C41.7967 27.9852 40.8499 27.3026 39.8883 26.6389C39.1268 26.1132 38.3314 25.641 37.5441 25.155C36.4636 24.4874 35.3923 23.8045 34.3005 23.1549C33.4374 22.6414 32.575 22.1306 31.6455 21.7404C30.636 21.3165 29.5922 21.0162 28.5221 20.792C28.1701 20.7183 27.811 20.7663 27.463 20.6752C27.3587 20.648 27.2333 20.6486 27.1302 20.6789C26.8051 20.7743 26.4663 20.7201 26.1381 20.7981C25.6745 20.9085 25.2023 20.9838 24.7331 21.07C24.6573 21.0841 24.6099 21.1144 24.5952 21.1905C24.5001 21.1645 24.4132 21.1517 24.3062 21.174C23.748 21.2893 23.204 21.4529 22.6565 21.6074C19.771 22.4218 16.9797 23.4867 14.273 24.7724C11.8851 25.9067 9.6412 27.2787 7.54594 28.8944C7.00432 29.3119 6.5263 29.7969 6.01892 30.2505C5.21458 30.9695 4.53625 31.7965 3.94691 32.6978C3.85608 32.8366 3.75576 32.9742 3.7365 33.1479C3.68389 33.1761 3.65575 33.2247 3.63588 33.277C3.45238 33.755 3.286 34.2352 3.17468 34.7395C3.05021 35.3035 3.21413 35.7922 3.51385 36.2243C3.69613 36.4873 3.87748 36.7555 4.06985 37.0137C4.53533 37.6379 4.99041 38.2688 5.50115 38.8597C5.94094 39.3686 6.39601 39.8585 6.93917 40.2515C7.81691 40.8864 8.75735 41.4225 9.72194 41.9137C10.3884 42.2529 11.063 42.5765 11.7374 42.9006C12.9142 43.4664 14.0892 44.0344 15.2808 44.5696C16.4298 45.0861 17.5834 45.5914 18.7379 46.0957C19.9478 46.6241 21.2228 46.8633 22.5232 46.9624C23.2988 47.0214 24.0832 47.0025 24.8533 46.8379C25.8525 46.6245 26.8119 46.3088 27.6544 45.7109C27.974 45.4843 28.3071 45.2956 28.6652 45.1329C29.6509 44.6852 30.6207 44.2035 31.6003 43.742C32.549 43.2949 33.5111 42.8759 34.45 42.4098C36.2804 41.5015 38.1109 40.5944 39.9718 39.7493C40.5401 39.4912 41.0958 39.2031 41.6408 38.8942C42.4066 38.4603 43.1843 38.0498 43.8996 37.5296C44.4345 37.1406 44.9352 36.7149 45.3713 36.2213C45.6426 35.9142 45.8906 35.5781 46.027 35.1823C46.2423 34.5563 46.265 33.9211 46.1019 33.277Z" fill="#4A4A4A"/>
<path d="M3.7368 33.1476C3.75607 32.9739 3.85638 32.8363 3.94721 32.6974C4.53655 31.7962 5.21489 30.9692 6.01923 30.2502C6.52661 29.7966 7.00462 29.3116 7.54625 28.8941C9.6412 27.2784 11.8854 25.9064 14.2733 24.7721C16.98 23.4864 19.7713 22.4215 22.6568 21.607C23.2043 21.4526 23.7483 21.289 24.3065 21.1737C24.4135 21.1516 24.5004 21.1645 24.5955 21.1902C25.1096 21.2529 25.5913 21.4284 26.0739 21.6046C27.4278 22.0985 28.753 22.6625 30.0699 23.2454C30.5595 23.4622 31.0666 23.6497 31.5199 23.9393C34.1185 25.5988 36.7068 27.2732 39.1745 29.1262C40.5416 30.1526 41.8738 31.2221 43.1871 32.3158C43.4907 32.5687 43.6837 32.8427 43.7461 33.2544C43.8287 33.7997 43.7067 34.2434 43.3339 34.6349C43.1326 34.8462 42.9167 35.0395 42.6702 35.1961C41.3964 36.005 40.1052 36.7785 38.691 37.3299C38.2359 37.5073 37.7738 37.6791 37.3496 37.9327C36.3493 38.5312 35.3027 39.041 34.1846 39.3677C33.4839 39.5726 32.8166 39.8402 32.1541 40.1374C31.044 40.6356 29.92 41.1029 28.7784 41.5253C27.5639 41.9746 26.3189 42.3333 25.0934 42.7514C24.5863 42.9245 24.0835 43.1147 23.5679 43.2572C22.7828 43.4744 21.9724 43.4123 21.1696 43.4163C21.105 43.4166 21.0399 43.3854 20.9763 43.3655C19.3532 42.8618 17.7843 42.2149 16.227 41.5418C14.9969 41.0103 13.7828 40.4427 12.5613 39.8912C10.7532 39.075 9.03321 38.1085 7.46092 36.8913C6.56606 36.1986 5.73939 35.4359 5.0265 34.5523C4.62677 34.0578 4.2032 33.5825 3.7368 33.1476Z" fill="#2E2E2E"/>
<path d="M23.5309 26.415C23.6584 26.6255 23.7924 26.7429 23.9147 26.8692C24.0315 26.9897 24.1554 27.1032 24.2698 27.2255C24.5001 27.4726 24.5527 27.7387 24.4282 27.9919C24.3049 28.2424 24.0077 28.3913 23.6939 28.354C23.4664 28.3268 23.2682 28.2237 23.0816 28.0965C22.9905 28.0344 22.9036 27.9665 22.796 27.887C22.7024 28.009 22.7262 28.1485 22.7048 28.2702C22.6654 28.4923 22.6195 28.7103 22.4938 28.9012C22.1663 29.3978 21.5775 29.3981 21.2552 28.8999C21.0283 28.5488 20.9796 28.1482 20.9601 27.7442C20.9487 27.5118 20.9579 27.2787 20.9579 27.0503C20.8408 27.0029 20.7784 27.087 20.7062 27.1298C20.4365 27.2885 20.1713 27.4549 19.9019 27.6139C19.7083 27.7283 19.5022 27.8139 19.281 27.8595C18.9382 27.9301 18.622 27.8102 18.4565 27.55C18.2972 27.2998 18.3235 26.9952 18.5345 26.7047C18.647 26.5499 18.7865 26.4212 18.9373 26.304C19.2838 26.0349 19.6658 25.8269 20.0658 25.6499C20.1566 25.6098 20.2569 25.5878 20.3337 25.5144C20.2793 25.3994 20.1563 25.3874 20.0612 25.3367C19.7633 25.1776 19.4878 24.9899 19.2523 24.7461C19.1501 24.6403 19.0663 24.5226 19.014 24.3846C18.8458 23.9406 19.1199 23.5044 19.5948 23.4659C19.9734 23.4353 20.3248 23.5414 20.6628 23.7011C21.101 23.9081 21.48 24.2008 21.8259 24.5226C21.9262 24.5079 21.9286 24.4317 21.9503 24.3742C22.1724 23.7824 22.4984 23.2506 22.8819 22.7521C23.0468 22.5377 23.2446 22.3563 23.485 22.2273C23.8147 22.0505 24.1618 22.0707 24.3952 22.2774C24.63 22.4854 24.6998 22.8224 24.5475 23.1723C24.3352 23.6598 23.9939 24.0617 23.6499 24.4599C23.5498 24.5755 23.4257 24.6736 23.3278 24.8773C23.7187 24.8165 24.0667 24.8051 24.4147 24.7932C24.8851 24.777 25.3536 24.7914 25.8112 24.9211C25.9515 24.9608 26.0895 25.0064 26.2124 25.0871C26.6409 25.3691 26.6348 25.9178 26.1959 26.1951C25.9427 26.3554 25.6531 26.3961 25.3616 26.4141C24.8701 26.4447 24.378 26.4291 23.8863 26.415C23.7878 26.4129 23.6899 26.415 23.5309 26.415Z" fill="#222222"/>
<path d="M29.1405 28.9926C28.8524 28.8443 28.5832 28.7091 28.3172 28.5678C28.1395 28.4733 27.9661 28.3702 27.8278 28.2188C27.6024 27.9717 27.5483 27.669 27.6841 27.416C27.8214 27.1607 28.0954 27.0405 28.4331 27.1016C28.7001 27.15 28.9383 27.2766 29.1781 27.3977C29.454 27.5371 29.7023 27.7237 29.9956 27.9142C30.0259 27.4799 30.0509 27.0943 30.0806 26.7086C30.0986 26.4744 30.1341 26.2422 30.1984 26.0156C30.2745 25.7465 30.4323 25.5572 30.7216 25.5147C30.9706 25.478 31.2208 25.6343 31.3642 25.9113C31.4896 26.1536 31.5339 26.4184 31.5633 26.6863C31.5774 26.8169 31.5981 26.9466 31.6183 27.0967C31.7853 27.0472 31.8709 26.9236 31.9774 26.8343C32.1921 26.6545 32.4052 26.4735 32.6579 26.3481C32.9677 26.1942 33.2597 26.219 33.4714 26.4123C33.6781 26.6013 33.7344 26.9083 33.6099 27.2178C33.5169 27.4491 33.3674 27.6445 33.1983 27.8255C32.9447 28.0968 32.6487 28.3167 32.3465 28.5296C32.2487 28.5984 32.1361 28.6522 32.0639 28.7489C32.1067 28.8681 32.2135 28.8571 32.2899 28.884C32.6514 29.0103 32.9891 29.1819 33.3016 29.4018C33.4108 29.4786 33.516 29.5648 33.6087 29.6605C33.7934 29.8511 33.8674 30.0765 33.7741 30.337C33.683 30.5918 33.4974 30.7392 33.2337 30.7829C32.8169 30.8521 32.4383 30.727 32.0725 30.5429C31.9746 30.4936 31.8933 30.4095 31.7746 30.3973C31.6893 30.4566 31.7321 30.5386 31.7367 30.6089C31.7593 30.9545 31.8064 31.2989 31.7911 31.6466C31.7816 31.8595 31.7642 32.0714 31.6881 32.2727C31.5752 32.5702 31.3666 32.7647 31.0428 32.7788C30.7332 32.7923 30.5124 32.6247 30.3763 32.3528C30.1669 31.9338 30.1149 31.4781 30.0818 31.019C30.0733 30.8989 30.0696 30.7787 30.0641 30.6695C29.9561 30.6111 29.8974 30.6802 29.8326 30.7147C29.5564 30.8615 29.2851 31.0184 29.005 31.1576C28.7726 31.2732 28.5245 31.3386 28.26 31.3227C27.7006 31.2891 27.392 30.7765 27.6251 30.2655C27.7346 30.0254 27.9119 29.8404 28.112 29.6755C28.3371 29.4899 28.5842 29.3373 28.8395 29.1972C28.9362 29.144 29.0493 29.1152 29.1405 28.9926Z" fill="#222222"/>
<path d="M20.4576 34.3835C20.0698 34.5251 19.6988 34.7111 19.2988 34.8203C19.0829 34.8793 18.8679 34.9398 18.6412 34.9392C18.2843 34.938 18.0155 34.7784 17.9121 34.5062C17.8082 34.2325 17.8984 33.9385 18.1709 33.6988C18.3733 33.5205 18.607 33.3874 18.8434 33.2596C19.2168 33.0581 19.6049 32.8874 19.9967 32.732C19.9838 32.5926 19.8747 32.5626 19.8019 32.5048C19.4593 32.2335 19.1217 31.9589 18.8611 31.6017C18.7682 31.4745 18.6828 31.3432 18.6302 31.1949C18.5379 30.935 18.5541 30.6857 18.7428 30.471C18.9318 30.256 19.1783 30.208 19.4465 30.2707C19.6655 30.3221 19.8676 30.4172 20.0591 30.5368C20.4249 30.7652 20.7191 31.0686 20.9818 31.4063C21.0491 31.4928 21.0983 31.5971 21.1922 31.6567C21.2971 31.6216 21.2821 31.5301 21.3014 31.4598C21.4497 30.9175 21.6473 30.3967 21.9653 29.9285C22.1173 29.7049 22.2935 29.5021 22.5164 29.3474C22.7902 29.1575 23.0724 29.1523 23.2966 29.3214C23.5052 29.4792 23.5875 29.7486 23.4881 30.049C23.422 30.2493 23.3245 30.4401 23.2321 30.631C23.0816 30.9417 22.9241 31.2487 22.7675 31.561C22.8795 31.6421 22.97 31.5757 23.0599 31.5549C23.4743 31.4589 23.8875 31.3604 24.3184 31.442C24.4181 31.461 24.516 31.4812 24.6053 31.5304C24.9723 31.7329 24.9971 32.2051 24.6518 32.443C24.4826 32.5595 24.2823 32.599 24.0881 32.6498C23.645 32.7651 23.2012 32.8779 22.7581 32.9929C22.6733 33.0149 22.5853 33.0299 22.5152 33.0917C22.5434 33.1932 22.6421 33.2122 22.7131 33.2599C23.0403 33.481 23.3324 33.7385 23.5596 34.0639C23.7841 34.3851 23.8025 34.7089 23.6159 34.9695C23.4214 35.2411 23.0902 35.3279 22.7119 35.2185C22.4479 35.1423 22.2458 34.9628 22.0286 34.82C21.9185 34.8671 21.9565 34.9585 21.9485 35.0282C21.9149 35.3298 21.8531 35.6243 21.7405 35.9066C21.6693 36.0852 21.5726 36.2488 21.4329 36.3818C21.0353 36.7608 20.4692 36.5926 20.3414 36.0595C20.3044 35.905 20.3111 35.7497 20.3233 35.5928C20.3533 35.2016 20.4603 34.8233 20.5142 34.4364C20.5368 34.4083 20.5518 34.3771 20.5123 34.3551C20.5019 34.3499 20.4759 34.3734 20.4576 34.3835Z" fill="#222222"/>
<path d="M29.9216 35.0882C30.0482 35.0148 30.0757 34.9007 30.1329 34.8105C30.439 34.3272 30.769 33.8642 31.225 33.5076C31.4104 33.3626 31.6061 33.2345 31.8446 33.1899C32.3526 33.0947 32.7303 33.4896 32.6059 33.9902C32.5594 34.1774 32.4551 34.3376 32.3471 34.4942C31.9844 35.0215 31.5394 35.4772 31.0944 35.9332C31.0177 36.0118 30.9161 36.069 30.8718 36.1769C30.8938 36.2772 30.9834 36.2757 31.0519 36.3005C31.3893 36.4216 31.7147 36.5678 32.0248 36.747C32.1019 36.7916 32.1771 36.8409 32.2474 36.8956C32.4838 37.0794 32.6236 37.3128 32.5649 37.6214C32.504 37.9419 32.2826 38.1342 31.9835 38.2058C31.3177 38.3648 30.6935 38.3116 30.2035 37.7544C30.1892 37.7382 30.1699 37.726 30.1509 37.7149C30.1433 37.7104 30.1308 37.7143 30.0956 37.7143C30.0687 37.8462 30.0411 37.9838 30.0121 38.1208C29.9075 38.6172 29.7372 39.0869 29.4497 39.509C29.342 39.6668 29.2215 39.8142 29.0613 39.9212C28.6028 40.228 28.049 39.9604 28.0019 39.4105C27.9817 39.1729 28.0343 38.9432 28.0915 38.7156C28.2062 38.2602 28.3643 37.8183 28.5166 37.3746C28.545 37.292 28.6025 37.2158 28.5866 37.1189C28.5325 37.0302 28.4481 37.0712 28.3774 37.077C27.9434 37.1131 27.5116 37.1742 27.0743 37.1617C26.8834 37.1562 26.6941 37.1455 26.5121 37.084C26.2262 36.9874 26.0268 36.8082 25.9901 36.4935C25.9564 36.2057 26.1094 35.9417 26.4192 35.8023C26.8825 35.5937 27.3761 35.5029 27.8832 35.4867C28.0159 35.4824 28.149 35.486 28.2799 35.486C28.3126 35.3671 28.2218 35.3136 28.1774 35.2429C27.8957 34.7918 27.6817 34.3178 27.6511 33.7771C27.6498 33.7547 27.6465 33.7327 27.6459 33.7101C27.6297 33.2871 27.7908 33.0024 28.1031 32.9021C28.3973 32.8073 28.6781 32.9308 28.9224 33.2755C29.2591 33.7511 29.5304 34.2645 29.7751 34.7924C29.8206 34.89 29.8705 34.9851 29.9216 35.0882Z" fill="#222222"/>
<path d="M13.0384 30.9294C12.8812 30.9352 12.8053 31.0261 12.7151 31.0845C12.3585 31.3151 12.0077 31.5542 11.623 31.738C11.4609 31.8154 11.2957 31.8855 11.1177 31.9112C10.8303 31.9521 10.5789 31.8784 10.4186 31.6218C10.2666 31.3784 10.3009 31.1285 10.451 30.8946C10.5724 30.7056 10.726 30.5435 10.8939 30.3939C11.2538 30.074 11.6401 29.789 12.0395 29.5214C12.1499 29.4474 12.2588 29.3706 12.3689 29.2948C12.3331 29.1629 12.2184 29.1574 12.1365 29.1171C11.9062 29.003 11.6682 28.9027 11.4624 28.7461C11.2541 28.5877 11.1193 28.3886 11.1908 28.1112C11.252 27.8732 11.478 27.7154 11.7799 27.6952C12.2423 27.6647 12.6585 27.8213 13.0638 28.02C13.4341 28.2017 13.4344 28.2023 13.5577 27.8096C13.7051 27.3402 13.8721 26.8784 14.1027 26.442C14.2024 26.2536 14.314 26.0725 14.4721 25.9269C14.6204 25.7908 14.7914 25.7144 14.9933 25.7942C15.2021 25.8768 15.3 26.0416 15.3135 26.2624C15.33 26.5346 15.2587 26.7934 15.2043 27.0561C15.1511 27.3136 15.0318 27.5595 15.0425 27.8338C15.204 27.8485 15.3092 27.7518 15.4291 27.7014C15.7282 27.5757 16.03 27.4601 16.3505 27.4007C16.6643 27.3426 16.9062 27.4368 17.0139 27.6582C17.1219 27.8803 17.0475 28.121 16.7958 28.3363C16.5741 28.5259 16.3227 28.6727 16.0698 28.8158C15.701 29.0244 15.3205 29.211 14.8868 29.4021C15.2801 29.6244 15.6208 29.8505 15.9496 30.0933C16.0395 30.1596 16.1349 30.2208 16.2144 30.2982C16.561 30.6364 16.4453 31.1597 15.9912 31.3264C15.7465 31.4163 15.5061 31.3701 15.267 31.3029C15.0293 31.2362 14.8162 31.1163 14.6027 30.9612C14.4923 31.1041 14.518 31.2521 14.5051 31.3885C14.4703 31.757 14.4189 32.121 14.2614 32.4613C14.1999 32.5941 14.1299 32.7204 14.0201 32.8207C13.6598 33.1495 13.1436 32.9987 13.0209 32.5265C12.9582 32.2852 12.9745 32.0381 12.9867 31.7925C13.0011 31.5084 13.0206 31.2243 13.0384 30.9294Z" fill="#222222"/>
<path d="M16.1502 36.2405C16.2218 36.3989 16.3313 36.4433 16.4136 36.5152C16.7521 36.8106 17.0671 37.1277 17.2956 37.5183C17.5084 37.8822 17.472 38.267 17.217 38.4661C16.9601 38.6664 16.5861 38.6043 16.2848 38.2994C16.1597 38.1725 16.0521 38.0281 15.9383 37.8905C15.8258 37.7538 15.7129 37.6177 15.5722 37.5128C15.4676 37.5712 15.5086 37.6587 15.5068 37.7287C15.5 38.0416 15.5007 38.3547 15.4973 38.6679C15.4955 38.8251 15.4817 38.9817 15.4294 39.1306C15.3398 39.386 15.1171 39.5383 14.8673 39.5224C14.622 39.5071 14.433 39.3545 14.3688 39.0973C14.3394 38.9795 14.3315 38.8542 14.3311 38.7321C14.3305 38.4303 14.3425 38.1284 14.3434 37.8266C14.3437 37.7186 14.3767 37.6042 14.3091 37.5045C14.2116 37.4651 14.1617 37.5412 14.1039 37.5865C13.8492 37.7868 13.599 37.9932 13.3433 38.192C13.2017 38.3021 13.0473 38.3933 12.8742 38.4468C12.5995 38.5318 12.3344 38.4615 12.1784 38.2556C12.0108 38.0345 12.0187 37.8009 12.1454 37.5629C12.2145 37.433 12.3111 37.325 12.4114 37.2195C12.6589 36.9592 12.9411 36.7393 13.2207 36.5161C13.2883 36.4619 13.3794 36.4295 13.4121 36.3157C13.1017 36.1509 12.7842 35.9925 12.494 35.7888C12.3203 35.6668 12.142 35.5493 12.005 35.3833C11.8218 35.1615 11.7291 34.9153 11.871 34.6404C12.012 34.367 12.2625 34.2921 12.5518 34.3159C13.1314 34.3639 13.6608 34.5603 14.1602 34.8517C14.5468 35.0774 14.5501 35.0744 14.6792 34.634C14.7798 34.2905 14.8777 33.9459 15.0428 33.6266C15.1092 33.4981 15.1814 33.3697 15.2701 33.2565C15.4257 33.058 15.6358 32.9611 15.8906 33.0079C16.1478 33.055 16.2986 33.2296 16.3759 33.4675C16.4787 33.7834 16.4656 34.1073 16.4185 34.4306C16.3949 34.5933 16.3628 34.7548 16.3344 34.9172C16.4845 34.9713 16.6172 34.9303 16.7484 34.9205C16.9393 34.9065 17.1298 34.9083 17.3158 34.9514C17.5042 34.9952 17.6366 35.1123 17.676 35.3071C17.7185 35.516 17.6357 35.6802 17.4635 35.7977C17.3424 35.8805 17.2029 35.9231 17.0628 35.964C16.7653 36.0509 16.4692 36.1433 16.1502 36.2405Z" fill="#222222"/>
<path d="M38.4757 33.5361C38.609 33.637 38.7537 33.7394 38.891 33.8511C39.1033 34.0239 39.2684 34.2315 39.3385 34.5028C39.4271 34.8462 39.2755 35.0527 38.9222 35.0567C38.7042 35.0591 38.5066 34.9808 38.3234 34.8661C38.2225 34.8031 38.1219 34.7395 38.0041 34.6655C37.9399 34.8212 37.9741 34.9542 37.9729 35.0827C37.9714 35.2836 37.9873 35.4851 37.9374 35.6833C37.8689 35.9558 37.6943 36.1317 37.4744 36.1476C37.2515 36.1635 37.0545 36.0222 36.9429 35.761C36.8536 35.5521 36.8377 35.3282 36.8169 35.1056C36.8108 35.0405 36.8248 34.9713 36.7734 34.9059C36.6453 34.9233 36.5765 35.0377 36.4798 35.1056C36.3058 35.2276 36.1339 35.3524 35.9333 35.4282C35.7162 35.5102 35.563 35.4867 35.4434 35.3475C35.3094 35.1918 35.3165 35.0221 35.4042 34.8478C35.4804 34.6964 35.5871 34.5676 35.7052 34.4474C35.9795 34.1676 36.2713 33.908 36.578 33.6642C36.637 33.6174 36.7162 33.5899 36.756 33.4865C36.5844 33.4483 36.4141 33.4214 36.2505 33.3715C35.9287 33.2733 35.6186 33.1458 35.362 32.9186C35.2837 32.8495 35.2268 32.7614 35.273 32.6516C35.3262 32.5253 35.4409 32.5072 35.5553 32.5314C35.8413 32.5923 36.1024 32.7219 36.3673 32.84C36.5389 32.9168 36.7077 32.9996 36.9468 33.1125C36.8579 32.7748 36.8545 32.4901 36.8358 32.206C36.8123 31.8469 36.8371 31.491 36.9233 31.1411C36.9499 31.0334 36.9851 30.9255 37.0328 30.8258C37.0992 30.6866 37.2099 30.5891 37.3735 30.5967C37.5512 30.6053 37.6567 30.7193 37.7096 30.8796C37.7628 31.0402 37.7692 31.2081 37.7695 31.3766C37.7708 31.8457 37.7023 32.31 37.6631 32.7742C37.7873 32.8174 37.8362 32.7219 37.9014 32.6736C38.2246 32.4338 38.5494 32.1968 38.9137 32.0204C39.0562 31.9515 39.2042 31.902 39.3657 31.9197C39.6272 31.9482 39.7535 32.1791 39.6223 32.406C39.5675 32.5008 39.4868 32.5843 39.4051 32.6589C39.1409 32.8996 38.8702 33.1336 38.6029 33.3709C38.5549 33.414 38.487 33.4403 38.4757 33.5361Z" fill="#222222"/>
<path d="M7.59641 33.4253C7.78878 33.5449 7.95209 33.6415 8.11051 33.7461C8.29096 33.8651 8.43256 34.022 8.53562 34.2125C8.6711 34.463 8.6029 34.6694 8.33897 34.7841C8.12091 34.8789 7.90377 34.8496 7.68694 34.7661C7.57347 34.7223 7.48203 34.6278 7.34043 34.6202C7.30923 34.7376 7.2863 34.8578 7.24501 34.9713C7.16763 35.1842 7.01257 35.2933 6.81959 35.2863C6.61132 35.2787 6.5 35.1499 6.42752 34.9722C6.3376 34.7514 6.37706 34.5101 6.32996 34.2823C6.18805 34.2489 6.08682 34.3459 5.96632 34.3575C5.78833 34.3749 5.6293 34.3554 5.52439 34.1917C5.4198 34.0287 5.45803 33.8703 5.55589 33.7201C5.6559 33.5666 5.80331 33.4632 5.95348 33.3654C6.09171 33.2752 6.23301 33.1898 6.3743 33.1014C6.31467 32.9727 6.20365 32.9082 6.12505 32.8155C5.9859 32.6509 5.87763 32.4705 5.8238 32.2604C5.78802 32.1216 5.79536 31.9836 5.91678 31.894C6.04064 31.8029 6.17459 31.8429 6.28959 31.9274C6.37002 31.9867 6.43945 32.0607 6.51621 32.1252C6.58227 32.1806 6.61041 32.2803 6.73457 32.3002C6.77647 32.0023 6.81593 31.7065 6.86088 31.4114C6.88596 31.2456 6.91104 31.0793 6.95233 30.9172C7.0138 30.6756 7.13644 30.5487 7.2866 30.5447C7.44777 30.5404 7.57928 30.678 7.64076 30.9355C7.701 31.1872 7.71293 31.4441 7.68785 31.7023C7.68021 31.7793 7.67256 31.8564 7.66247 31.9555C7.80682 31.9359 7.87686 31.8243 7.97931 31.7741C8.12703 31.7016 8.27689 31.6463 8.41696 31.7671C8.56254 31.8928 8.51972 32.0521 8.44693 32.198C8.2515 32.5907 7.98788 32.9378 7.71721 33.2803C7.68357 33.3235 7.64718 33.3645 7.59641 33.4253Z" fill="#222222"/>
<path d="M22.3898 39.8564C22.2409 39.8316 22.169 39.9341 22.0779 39.9894C21.9149 40.0882 21.7503 40.1837 21.5623 40.2234C21.3999 40.258 21.2488 40.2307 21.1411 40.0888C21.0316 39.9448 21.0585 39.7959 21.1371 39.6491C21.2463 39.4451 21.4283 39.3142 21.609 39.1827C21.7167 39.1044 21.828 39.031 21.9504 38.9469C21.8672 38.8368 21.7415 38.8089 21.6503 38.7352C21.5188 38.6291 21.3944 38.519 21.3298 38.3569C21.209 38.0544 21.3791 37.8113 21.7029 37.8245C21.8877 37.8318 22.0461 37.9168 22.2027 38.0021C22.3372 38.0759 22.4678 38.1566 22.6229 38.2477C22.6688 38.0153 22.6963 37.8061 22.7752 37.6104C22.8676 37.381 22.9761 37.1599 23.1547 36.9856C23.2902 36.8528 23.452 36.7862 23.6422 36.8742C23.8294 36.9611 23.8945 37.1229 23.8817 37.3137C23.8734 37.4345 23.8346 37.5535 23.8083 37.6731C23.7924 37.7462 23.7367 37.8147 23.7896 37.9086C23.937 37.9076 24.0447 37.796 24.1762 37.7498C24.327 37.6969 24.4631 37.6884 24.5683 37.8266C24.6759 37.9679 24.6267 38.1055 24.5249 38.2223C24.4227 38.3398 24.3089 38.448 24.1927 38.552C24.0771 38.6554 23.9526 38.7487 23.8279 38.8496C23.8814 38.9808 23.9961 39.0359 24.0869 39.1111C24.2967 39.2851 24.4606 39.4949 24.5824 39.7362C24.6973 39.9641 24.6475 40.0586 24.3949 40.1096C24.1695 40.1549 23.9514 40.1216 23.7392 40.0362C23.6471 39.9992 23.5704 39.9261 23.4648 39.9188C23.3792 39.9797 23.4025 40.0791 23.3761 40.1598C23.3554 40.2231 23.3443 40.2901 23.322 40.3528C23.2186 40.6436 23.0437 40.7944 22.8308 40.7797C22.6076 40.7644 22.4587 40.5736 22.4198 40.2454C22.4042 40.1151 22.3993 39.9839 22.3898 39.8564Z" fill="#222222"/>
</svg>
