<svg width="280" height="280" viewBox="0 0 280 280" fill="none" xmlns="http://www.w3.org/2000/svg">
<rect width="280" height="280" fill="#101010"/>
<path d="M190 108.529C186.319 110.197 182.352 111.293 178.241 111.817C182.447 109.292 185.698 105.289 187.228 100.477C183.26 102.859 178.862 104.527 174.226 105.48C170.449 101.382 165.143 99 159.12 99C147.887 99 138.709 108.148 138.709 119.441C138.709 121.061 138.901 122.633 139.235 124.11C122.218 123.252 107.065 115.105 96.979 102.764C95.2103 105.766 94.2065 109.292 94.2065 113.008C94.2065 120.108 97.7916 126.397 103.337 129.971C99.9426 129.971 96.7878 129.018 94.0153 127.588V127.731C94.0153 137.642 101.09 145.932 110.459 147.791C107.451 148.611 104.293 148.725 101.233 148.124C102.532 152.186 105.074 155.74 108.504 158.287C111.934 160.834 116.078 162.245 120.354 162.323C113.105 168.043 104.12 171.134 94.8757 171.09C93.2505 171.09 91.6252 170.995 90 170.804C99.0822 176.617 109.885 180 121.453 180C159.12 180 179.818 148.839 179.818 121.823C179.818 120.918 179.818 120.06 179.771 119.155C183.786 116.296 187.228 112.675 190 108.529Z" fill="#E9D3B6"/>
</svg>
