<svg width="280" height="280" viewBox="0 0 280 280" fill="none" xmlns="http://www.w3.org/2000/svg">
<rect width="280" height="280" fill="#101010"/>
<path fill-rule="evenodd" clip-rule="evenodd" d="M140.5 86C110.941 86 87 110.547 87 140.853C87 165.126 102.314 185.627 123.581 192.895C126.256 193.375 127.259 191.73 127.259 190.29C127.259 188.987 127.192 184.667 127.192 180.073C113.75 182.61 110.272 176.714 109.202 173.628C108.601 172.051 105.993 167.183 103.719 165.88C101.846 164.852 99.1713 162.315 103.652 162.246C107.865 162.177 110.874 166.223 111.878 167.868C116.693 176.165 124.383 173.834 127.459 172.394C127.928 168.828 129.332 166.429 130.87 165.057C118.966 163.686 106.528 158.955 106.528 137.973C106.528 132.008 108.601 127.071 112.011 123.232C111.476 121.86 109.604 116.238 112.546 108.696C112.546 108.696 117.027 107.256 127.259 114.318C131.539 113.084 136.086 112.467 140.634 112.467C145.181 112.467 149.729 113.084 154.009 114.318C164.241 107.187 168.721 108.696 168.721 108.696C171.664 116.238 169.791 121.86 169.256 123.232C172.667 127.071 174.74 131.94 174.74 137.973C174.74 159.023 162.234 163.686 150.331 165.057C152.27 166.771 153.942 170.063 153.942 175.205C153.942 182.542 153.875 188.438 153.875 190.29C153.875 191.73 154.878 193.444 157.553 192.895C178.686 185.627 194 165.057 194 140.853C194 110.547 170.059 86 140.5 86Z" fill="#E9D3B6"/>
</svg>
