<svg width="280" height="280" viewBox="0 0 280 280" fill="none" xmlns="http://www.w3.org/2000/svg">
<mask id="mask0_8_60" style="mask-type:alpha" maskUnits="userSpaceOnUse" x="0" y="0" width="280" height="280">
<rect width="280" height="280" fill="#0F0F0F"/>
</mask>
<g mask="url(#mask0_8_60)">
<path d="M255.223 242.785C262.925 245.476 264.81 252.691 262.007 260.506L241.023 319.009L164.467 287.841L184.95 233.582C187.752 225.763 193.33 220.509 201.034 223.202" stroke="#E9D3B6" stroke-opacity="0.5" stroke-width="0.307316" stroke-linejoin="round" stroke-dasharray="3.69 3.69"/>
<path d="M266.693 226.722C266.905 226.124 267.099 225.524 267.275 224.923L266.98 224.837C267.335 223.626 267.618 222.409 267.831 221.191L268.133 221.244C268.352 219.993 268.498 218.74 268.574 217.492L268.267 217.474C268.342 216.22 268.346 214.971 268.281 213.731L268.588 213.715C268.521 212.452 268.383 211.198 268.176 209.96L267.873 210.011C267.667 208.776 267.392 207.557 267.05 206.359L267.346 206.275C267 205.062 266.587 203.87 266.11 202.706L265.825 202.822C265.351 201.667 264.813 200.539 264.214 199.444L264.484 199.296C263.879 198.193 263.213 197.122 262.488 196.089L262.236 196.266C261.52 195.247 260.746 194.266 259.916 193.329L260.146 193.125C259.314 192.185 258.427 191.289 257.487 190.442L257.281 190.671C256.359 189.84 255.386 189.056 254.364 188.326L254.543 188.076C253.526 187.349 252.461 186.675 251.35 186.057L251.201 186.326C250.12 185.725 248.997 185.179 247.832 184.693L247.95 184.409C247.373 184.168 246.785 183.941 246.187 183.729C245.589 183.518 244.99 183.324 244.389 183.148L244.302 183.443C243.091 183.088 241.874 182.805 240.656 182.592L240.709 182.289C239.458 182.07 238.206 181.924 236.957 181.849L236.939 182.156C235.685 182.08 234.436 182.076 233.197 182.142L233.18 181.835C231.917 181.902 230.663 182.04 229.425 182.246L229.476 182.549C228.241 182.756 227.022 183.031 225.824 183.372L225.74 183.076C224.527 183.422 223.335 183.835 222.171 184.313L222.288 184.597C221.133 185.071 220.005 185.609 218.909 186.209L218.762 185.939C217.658 186.543 216.587 187.209 215.555 187.935L215.732 188.186C214.712 188.902 213.731 189.676 212.794 190.506L212.591 190.276C211.651 191.108 210.755 191.995 209.908 192.935L210.136 193.141C209.305 194.063 208.522 195.036 207.792 196.058L207.542 195.88C206.815 196.897 206.14 197.962 205.523 199.072L205.791 199.222C205.19 200.302 204.644 201.426 204.158 202.59L203.874 202.472C203.633 203.05 203.406 203.638 203.195 204.236C202.983 204.833 202.789 205.433 202.613 206.034L202.908 206.12C202.553 207.331 202.27 208.548 202.057 209.766L201.754 209.713C201.536 210.965 201.39 212.217 201.314 213.465L201.621 213.484C201.545 214.737 201.542 215.986 201.607 217.226L201.3 217.242C201.367 218.506 201.505 219.759 201.712 220.997L202.015 220.946C202.221 222.181 202.496 223.4 202.837 224.598L202.542 224.682C202.888 225.895 203.301 227.087 203.778 228.251L204.063 228.135C204.536 229.29 205.074 230.418 205.674 231.513L205.404 231.661C206.009 232.765 206.675 233.835 207.4 234.868L207.651 234.691C208.368 235.71 209.142 236.691 209.972 237.628L209.741 237.832C210.574 238.772 211.461 239.668 212.401 240.515L212.606 240.287C213.529 241.117 214.502 241.901 215.524 242.631L215.345 242.881C216.362 243.608 217.427 244.282 218.538 244.9L218.687 244.631C219.767 245.232 220.891 245.778 222.056 246.264L221.937 246.548C222.515 246.789 223.103 247.016 223.701 247.228C224.299 247.439 224.898 247.633 225.499 247.809L225.586 247.514C226.797 247.869 228.014 248.152 229.232 248.365L229.179 248.668C230.43 248.887 231.682 249.033 232.93 249.108L232.949 248.801C234.202 248.877 235.452 248.881 236.691 248.815L236.707 249.122C237.971 249.056 239.225 248.918 240.462 248.711L240.412 248.408C241.647 248.202 242.866 247.926 244.063 247.585L244.148 247.881C245.361 247.535 246.552 247.122 247.717 246.644L247.6 246.36C248.755 245.886 249.883 245.348 250.978 244.749L251.126 245.018C252.23 244.414 253.301 243.748 254.333 243.022L254.156 242.771C255.175 242.055 256.156 241.281 257.094 240.451L257.297 240.681C258.237 239.849 259.133 238.962 259.98 238.022L259.752 237.816C260.583 236.894 261.366 235.921 262.096 234.899L262.346 235.078C263.073 234.06 263.748 232.995 264.365 231.885L264.097 231.735C264.698 230.655 265.244 229.531 265.73 228.367L266.013 228.485C266.255 227.907 266.482 227.319 266.693 226.722Z" stroke="#E9D3B6" stroke-opacity="0.5" stroke-width="0.614633" stroke-linejoin="round" stroke-dasharray="3.69 3.69"/>
</g>
</svg>
