<svg width="576" height="280" viewBox="0 0 576 280" fill="none" xmlns="http://www.w3.org/2000/svg">
<rect width="576" height="280" fill="#0F0F0F"/>
<mask id="mask0_8_94" style="mask-type:alpha" maskUnits="userSpaceOnUse" x="0" y="0" width="576" height="280">
<rect width="576" height="280" fill="#101010"/>
</mask>
<g mask="url(#mask0_8_94)">
<path d="M603.116 59.6129C578.269 72.8158 552.539 85.8516 532.724 107.495C526.433 114.367 525.892 121.529 531.531 124.438C543.316 130.518 553.657 119.954 563.473 115.299C565.927 114.135 567.764 113.072 570.444 112.768C580.827 111.592 583.577 117.006 583.654 122.3C583.549 124.385 582.478 127.525 579.073 131.74C573.413 138.745 566.203 142.688 558.451 147.139C538.039 158.369 496.953 168.984 483.838 201.853" stroke="#5D5449" stroke-miterlimit="10"/>
<path d="M604.711 61.4464C579.63 75.3264 554.248 89.3582 534.399 111.785C534.01 112.224 533.639 112.665 533.284 113.106C527.278 120.596 529.313 126.892 533.52 129.111C538.956 131.979 544.679 130.994 549.716 128.757C556.057 125.941 561.738 121.211 567.676 118.128C567.77 118.08 567.864 118.035 567.959 117.989C570.572 116.724 572.886 115.86 575.766 115.817C584.582 115.686 587.235 120.426 587.173 125.358C587.169 125.666 587.133 125.991 587.073 126.334C586.722 128.34 585.624 130.881 583.307 134.024C578.506 140.533 572.181 144.554 565.637 148.837C553.288 156.92 536.95 163.714 521.379 174.284C509.674 182.229 492.206 196.97 491.889 211.892" stroke="#5D5449" stroke-miterlimit="10"/>
<path d="M606.307 63.2803C580.992 77.8371 555.957 92.8648 536.075 116.075C535.689 116.525 535.316 116.977 534.954 117.43C528.169 125.95 532.377 132.093 535.51 133.784C541.143 136.824 547.633 135.429 552.958 132.854C559.801 129.547 565.63 124.403 572.138 120.833C572.238 120.778 572.342 120.729 572.445 120.678C575.218 119.312 577.983 118.595 581.089 118.865C588.241 119.486 590.723 123.807 590.694 128.415C590.692 128.695 590.672 128.989 590.623 129.291C590.302 131.269 589.322 133.574 587.541 136.307C583.613 142.337 578.224 146.533 572.825 150.535C559.097 160.711 543.33 168.279 527.619 180.282C517.352 188.126 494.513 207.277 499.94 221.932" stroke="#5D5449" stroke-miterlimit="10"/>
<path d="M607.904 65.114C582.354 80.3479 557.665 96.3714 537.751 120.365C537.368 120.826 536.993 121.289 536.624 121.753C529.058 131.303 535.436 137.311 537.5 138.457C543.322 141.689 550.585 139.859 556.2 136.952C563.545 133.149 569.52 127.596 576.6 123.539C576.707 123.477 576.82 123.424 576.932 123.368C579.864 121.901 583.067 121.225 586.412 121.914C591.868 123.037 594.21 127.19 594.215 131.474C594.215 131.726 594.21 131.988 594.172 132.248C593.889 134.201 593.032 136.281 591.776 138.591C588.745 144.165 584.344 148.624 580.012 152.233C565.041 164.706 549.615 172.716 533.86 186.28C524.967 193.936 496.821 217.583 507.991 231.972" stroke="#5D5449" stroke-miterlimit="10"/>
<path d="M609.499 66.9475C583.225 83.1602 558.449 100.525 538.292 126.076C529.947 136.655 538.488 142.544 539.489 143.13C545.472 146.631 553.467 144.173 559.441 141.049C567.194 136.597 573.629 131.124 581.06 126.243C584.225 124.548 588.031 123.712 591.733 124.961C595.755 126.639 597.93 131.035 597.72 135.205C596.34 142.255 591.855 149.784 587.198 153.931C571.7 169.517 555.752 176.996 540.1 192.278C532.516 199.681 499.128 227.889 516.042 242.011" stroke="#5D5449" stroke-miterlimit="10"/>
<path d="M490.302 175.258C488.359 175.744 487.166 178.141 486.776 179.944C486.348 181.918 486.487 184.085 485.696 185.938C485.064 187.421 483.598 188.212 481.859 188.751L481.767 189.669L505.22 193.616C504.652 194.002 504.196 194.61 503.917 195.506C502.726 198.903 503.381 202.215 504.714 203.831C507.243 206.895 511.106 205.363 512.072 202.459C513.092 199.387 512.702 194.568 509.095 193.415C508.905 193.354 508.715 193.304 508.527 193.259L508.529 193.238L495.125 190.983C495.488 190.537 495.506 189.675 495.582 189.126C495.735 188.017 495.721 186.874 495.513 185.757C495.308 184.659 494.974 183.781 494.602 182.708C493.959 180.858 494.119 179.452 495.26 178.198C495.606 177.818 495.763 177.608 496.301 177.548C496.875 177.486 497.485 177.539 497.757 177.892C497.115 176.702 495.317 177.169 494.663 177.742C493.58 178.692 493.092 180.095 492.987 181.504C492.919 182.406 493.024 183.916 493.106 184.824C493.174 185.572 493.363 186.508 493.279 187.304C493.186 188.193 493.25 188.774 492.669 189.467C492.435 189.747 491.99 190.156 491.534 190.379L488.936 189.942C489.612 189.818 490.073 189.304 490.339 188.901C490.816 188.18 490.593 187.159 490.535 186.302C490.427 184.695 490.142 183.176 489.868 181.587C489.61 180.092 489.536 176.955 491.372 176.387C492.304 176.099 492.946 176.877 493.711 177.218C493.258 175.86 491.686 174.912 490.302 175.258Z" fill="#5D5449"/>
<path d="M549.844 121.674C548.81 120.996 547.395 121.17 546.552 121.512C545.629 121.887 544.884 122.554 543.847 122.743C543.017 122.895 542.079 122.502 541.115 121.925L540.732 122.145L549.568 133.081C549.175 132.951 548.748 132.931 548.292 133.066C546.505 133.52 545.56 134.725 545.545 135.737C545.516 137.658 547.783 138.847 549.288 138.435C550.879 138 552.5 136.483 551.345 134.648C551.284 134.551 551.219 134.458 551.153 134.366L551.162 134.361L546.112 128.111C546.437 128.138 546.766 127.903 547.003 127.78C547.483 127.533 547.902 127.207 548.227 126.806C548.545 126.411 548.725 126.025 548.961 125.567C549.366 124.779 549.96 124.451 550.928 124.577C551.221 124.615 551.369 124.622 551.627 124.831C551.903 125.054 552.151 125.324 552.139 125.537C552.299 124.934 551.336 124.312 550.836 124.199C550.007 124.012 549.27 124.201 548.7 124.552C548.334 124.777 547.818 125.245 547.517 125.535C547.268 125.773 547.003 126.115 546.67 126.304C546.298 126.515 546.11 126.704 545.597 126.656C545.39 126.637 545.042 126.565 544.759 126.437L543.781 125.226C544.124 125.474 544.518 125.523 544.785 125.521C545.262 125.518 545.544 125.139 545.838 124.874C546.388 124.377 546.828 123.831 547.299 123.269C547.742 122.742 548.877 121.83 549.894 122.439C550.411 122.749 550.404 123.237 550.613 123.653C550.92 123.082 550.581 122.157 549.844 121.674Z" fill="#5D5449"/>
<path d="M529.899 182.389C528.405 183.341 527.698 184.842 527.771 185.894C527.911 187.89 529.958 188.511 531.214 187.681C532.542 186.802 533.802 184.795 532.653 183.206C532.593 183.123 532.53 183.043 532.465 182.966L532.472 182.959L524.095 174.16C524.878 173.601 525.596 172.326 526.119 171.727C527.381 170.283 528.826 169.133 530.15 167.792L536.837 174.815C536.489 174.786 536.121 174.881 535.742 175.143C534.248 176.095 533.541 177.595 533.614 178.648C533.754 180.644 535.801 181.265 537.057 180.434C538.385 179.556 539.645 177.549 538.496 175.96C538.436 175.876 538.372 175.797 538.308 175.719L538.315 175.712L530.419 167.419C530.057 166.595 529.317 165.565 528.729 165.043C527.66 165.79 526.687 166.821 525.797 167.846C525.433 168.265 521.684 172.458 521.684 172.458C522.416 173.345 523.535 174.419 523.535 174.419C523.583 174.411 523.631 174.395 523.679 174.379L530.995 182.062C530.646 182.032 530.278 182.127 529.899 182.389Z" fill="#5D5449"/>
<path d="M564.021 136.602C562.817 137.369 562.247 138.578 562.306 139.426C562.419 141.035 564.069 141.535 565.08 140.866C566.15 140.158 567.166 138.541 566.24 137.261C566.192 137.193 566.141 137.129 566.089 137.067L566.094 137.061L559.343 129.97C559.974 129.519 560.553 128.491 560.974 128.009C561.991 126.845 563.156 125.919 564.223 124.838L569.612 130.497C569.331 130.474 569.035 130.55 568.729 130.762C567.525 131.529 566.955 132.738 567.014 133.586C567.127 135.194 568.777 135.695 569.788 135.026C570.858 134.318 571.874 132.701 570.949 131.42C570.9 131.353 570.849 131.289 570.797 131.227L570.803 131.221L564.439 124.538C564.148 123.873 563.552 123.043 563.077 122.623C562.216 123.225 561.432 124.056 560.715 124.882C560.421 125.22 557.4 128.599 557.4 128.599C557.99 129.313 558.892 130.179 558.892 130.179C558.931 130.173 558.97 130.16 559.008 130.147L564.904 136.339C564.623 136.315 564.327 136.391 564.021 136.602Z" fill="#5D5449"/>
<path d="M516.877 170.688L516.582 170.11L516.242 170.274C515.458 170.65 514.616 171.054 513.767 171.487C513.131 170.705 512.514 169.867 511.922 169.026C512.708 168.629 513.486 168.255 514.213 167.906L514.553 167.743L514.258 167.166L513.919 167.328C513.167 167.689 512.362 168.076 511.548 168.489C511.016 167.716 510.508 166.951 510.032 166.234L509.81 165.899L509.301 166.231L509.523 166.566C509.987 167.266 510.484 168.013 511.003 168.768C510.16 169.206 509.319 169.672 508.526 170.167C508.202 169.686 507.888 169.214 507.588 168.761L507.366 168.426L506.857 168.758L507.079 169.093C507.378 169.543 507.691 170.015 508.014 170.494C507.263 170.988 506.566 171.51 505.972 172.06L506.406 172.542C506.977 172.013 507.65 171.511 508.378 171.032C508.95 171.87 509.553 172.723 510.179 173.544C509.489 174.007 508.848 174.493 508.295 175.005L508.73 175.486C509.268 174.988 509.898 174.512 510.578 174.057C511.412 175.111 512.281 176.088 513.168 176.869L513.557 176.4C512.718 175.661 511.889 174.732 511.089 173.725C511.899 173.215 512.765 172.734 513.635 172.282C514.278 173.046 514.94 173.75 515.611 174.341L516.001 173.872C515.389 173.334 514.783 172.693 514.19 171.996C514.994 171.589 515.79 171.207 516.534 170.849L516.877 170.688ZM510.691 173.212C510.067 172.396 509.463 171.543 508.891 170.704C509.685 170.211 510.53 169.744 511.376 169.305C511.964 170.144 512.579 170.982 513.215 171.771C512.353 172.222 511.496 172.702 510.691 173.212Z" fill="#5D5449"/>
<path d="M543.023 94.5696L542.832 94.1961L542.611 94.3018C542.104 94.5455 541.559 94.807 541.01 95.0866C540.598 94.5802 540.198 94.0382 539.816 93.4941C540.325 93.2376 540.828 92.9954 541.298 92.7694L541.518 92.6636L541.328 92.2899L541.108 92.3954C540.622 92.6288 540.101 92.8798 539.574 93.1462C539.23 92.6461 538.9 92.1509 538.593 91.6873L538.449 91.4701L538.12 91.6849L538.264 91.902C538.564 92.3551 538.885 92.8382 539.222 93.3274C538.676 93.6107 538.132 93.9121 537.618 94.2323C537.408 93.921 537.206 93.6155 537.012 93.3228L536.867 93.1057L536.538 93.3204L536.682 93.5375C536.876 93.8293 537.078 94.1343 537.287 94.4442C536.801 94.7644 536.35 95.1016 535.966 95.4575L536.247 95.7692C536.616 95.4273 537.052 95.1019 537.523 94.7916C537.893 95.3338 538.284 95.8865 538.689 96.4174C538.242 96.7171 537.827 97.0319 537.47 97.3631L537.751 97.6748C538.1 97.3518 538.507 97.044 538.947 96.7498C539.487 97.432 540.05 98.0644 540.623 98.5698L540.876 98.2662C540.332 97.7876 539.796 97.1869 539.279 96.5349C539.803 96.2049 540.363 95.8935 540.926 95.6009C541.342 96.0952 541.77 96.5513 542.205 96.9335L542.457 96.6302C542.061 96.2815 541.669 95.8669 541.285 95.416C541.806 95.1528 542.321 94.9048 542.802 94.6738L543.023 94.5696ZM539.019 96.203C538.615 95.6751 538.225 95.1229 537.854 94.5802C538.368 94.2607 538.915 93.9588 539.463 93.6748C539.843 94.2175 540.242 94.7602 540.653 95.2708C540.095 95.5623 539.54 95.8733 539.019 96.203Z" fill="#5D5449"/>
<path d="M517.853 222.8C517.462 223.205 516.977 223.625 516.38 224.057C515.304 224.834 512.918 225.882 511.096 225.38C510.281 225.156 509.667 224.661 509.273 223.909C508.619 222.661 508.478 221.381 508.866 220.208C509.426 218.517 511.043 217.093 513.543 216.089C515.691 215.227 517.458 215.932 518.794 218.184C519.439 219.272 519.699 220.883 517.853 222.8ZM510.695 218.904C510.209 219.409 509.865 219.954 509.675 220.531C509.358 221.488 509.473 222.501 510.018 223.54C510.29 224.06 510.699 224.388 511.268 224.544C512.729 224.946 514.833 224.082 515.86 223.339C518.195 221.652 518.94 220.056 518.075 218.598C517.321 217.329 516.166 215.989 513.898 216.899C512.519 217.453 511.44 218.131 510.695 218.904Z" fill="#5D5449"/>
<path d="M541.695 111.788C541.427 112.066 541.095 112.353 540.687 112.648C539.951 113.18 538.319 113.896 537.073 113.553C536.515 113.4 536.095 113.062 535.826 112.547C535.378 111.693 535.282 110.818 535.548 110.016C535.931 108.859 537.037 107.885 538.747 107.199C540.216 106.609 541.425 107.091 542.339 108.632C542.78 109.375 542.957 110.478 541.695 111.788ZM536.799 109.123C536.466 109.468 536.231 109.841 536.1 110.236C535.884 110.891 535.962 111.583 536.335 112.294C536.521 112.65 536.801 112.874 537.19 112.982C538.189 113.256 539.628 112.665 540.331 112.157C541.928 111.003 542.437 109.911 541.846 108.914C541.331 108.046 540.54 107.129 538.989 107.751C538.046 108.131 537.308 108.595 536.799 109.123Z" fill="#5D5449"/>
<path d="M554.998 84.7093L554.653 84.9623L563.189 94.209C562.796 94.1059 562.382 94.1181 561.956 94.29C560.279 94.8893 559.495 96.1909 559.588 97.226C559.765 99.1902 562.081 100.234 563.491 99.7003C564.981 99.1359 566.386 97.4647 565.073 95.6767C565.004 95.5823 564.932 95.4917 564.858 95.4031L564.866 95.3972L554.998 84.7093Z" fill="#5D5449"/>
<path d="M580.612 157.504C579.746 156.498 578.331 156.253 577.439 156.354C576.462 156.464 575.597 156.927 574.548 156.812C573.707 156.72 572.876 156.036 572.058 155.153L571.64 155.264L577.95 169.162C577.595 168.911 577.183 168.763 576.711 168.765C574.876 168.699 573.703 169.656 573.476 170.693C573.045 172.661 575.003 174.563 576.555 174.59C578.195 174.618 580.092 173.541 579.352 171.307C579.313 171.189 579.27 171.074 579.225 170.959L579.234 170.957L575.627 163.014C575.938 163.139 576.308 162.996 576.565 162.941C577.084 162.83 577.56 162.619 577.96 162.303C578.353 161.993 578.609 161.648 578.935 161.248C579.496 160.558 580.142 160.398 581.059 160.817C581.336 160.944 581.478 160.995 581.687 161.288C581.908 161.599 582.093 161.952 582.037 162.167C582.319 161.595 581.512 160.666 581.048 160.4C580.28 159.96 579.523 159.934 578.893 160.125C578.49 160.248 577.89 160.575 577.536 160.783C577.243 160.954 576.913 161.227 576.55 161.321C576.143 161.427 575.921 161.566 575.431 161.363C575.234 161.281 574.91 161.103 574.661 160.886L573.962 159.346C574.244 159.704 574.617 159.872 574.878 159.951C575.343 160.091 575.697 159.784 576.039 159.599C576.679 159.252 577.222 158.822 577.798 158.385C578.34 157.974 579.636 157.375 580.5 158.307C580.938 158.78 580.828 159.28 580.945 159.77C581.364 159.275 581.228 158.222 580.612 157.504Z" fill="#5D5449"/>
<path d="M556.647 102.649C556.014 101.916 554.976 101.739 554.321 101.814C553.603 101.896 552.967 102.235 552.197 102.153C551.581 102.087 550.972 101.589 550.373 100.946L550.066 101.027L554.67 111.162C554.409 110.98 554.107 110.872 553.761 110.874C552.413 110.829 551.551 111.529 551.382 112.286C551.062 113.723 552.495 115.108 553.634 115.125C554.839 115.143 556.233 114.355 555.694 112.725C555.666 112.639 555.634 112.555 555.602 112.472L555.608 112.47L552.977 106.678C553.205 106.769 553.477 106.663 553.666 106.623C554.047 106.541 554.397 106.387 554.691 106.155C554.981 105.928 555.169 105.677 555.409 105.384C555.822 104.879 556.297 104.761 556.969 105.066C557.173 105.158 557.277 105.195 557.429 105.408C557.59 105.635 557.726 105.893 557.683 106.05C557.892 105.631 557.301 104.955 556.962 104.762C556.399 104.441 555.843 104.424 555.381 104.564C555.085 104.654 554.643 104.894 554.383 105.046C554.168 105.171 553.925 105.37 553.658 105.44C553.36 105.517 553.196 105.62 552.837 105.472C552.692 105.412 552.455 105.284 552.273 105.126L551.763 104.003C551.969 104.264 552.243 104.386 552.434 104.443C552.775 104.544 553.036 104.319 553.287 104.184C553.758 103.93 554.157 103.615 554.581 103.295C554.98 102.995 555.933 102.556 556.565 103.234C556.886 103.579 556.804 103.944 556.888 104.302C557.196 103.94 557.099 103.172 556.647 102.649Z" fill="#5D5449"/>
<path d="M565.354 170.599C564.663 168.352 563.251 166.293 561.48 164.949C560.271 164.031 559.038 163.557 557.911 163.559C557.724 162.969 557.533 162.381 557.339 161.796C556.972 160.693 556.482 159.516 555.964 158.268C555.895 158.104 555.827 157.94 555.759 157.775C556.033 157.656 556.397 157.466 556.94 157.149C558.057 156.5 558.333 154.412 557.66 151.699C557.233 149.977 556.576 148.517 555.707 147.359C555.13 146.592 554.609 146.407 554.272 146.387C554.261 146.386 554.25 146.385 554.24 146.385C553.646 146.368 553.15 146.832 552.767 147.765C551.765 150.2 552.728 153.418 553.947 156.519C553.67 156.593 553.286 156.726 552.692 156.988C550.596 157.91 549.131 160.279 548.772 163.323C548.406 166.424 549.233 169.812 551.1 172.862C552.321 174.856 555.372 177.976 558.332 178.67C559.028 178.833 559.8 178.855 560.579 178.763C561.074 181.248 561.745 185.432 560.079 186.086C558.942 186.533 557.177 186.274 555.882 185.468C555.122 184.996 554.582 184.387 554.276 183.659C553.878 182.714 553.779 181.627 554.034 181.019C554.202 180.617 554.506 180.427 554.963 180.438C554.966 180.438 554.969 180.439 554.972 180.439C555.614 180.457 556.258 180.872 556.697 181.548C557.036 182.069 557.179 182.649 557.064 183.026C556.966 183.344 556.681 183.53 556.244 183.569C556.246 183.48 556.252 183.373 556.264 183.244C556.302 182.838 556.038 182.378 555.675 182.216C555.312 182.054 554.987 182.25 554.949 182.656C554.896 183.223 554.879 183.946 555.22 184.514C555.388 184.793 555.622 185.001 555.879 185.099C555.931 185.12 555.983 185.132 556.035 185.138C557.644 185.307 558.159 184.438 558.323 183.905C558.589 183.041 558.333 181.858 557.657 180.816C556.881 179.622 555.755 178.891 554.641 178.858C554.636 178.858 554.631 178.858 554.626 178.857C553.772 178.837 553.147 179.242 552.817 180.027C552.4 181.022 552.52 182.592 553.122 184.026C553.605 185.176 554.446 186.147 555.555 186.836C556.598 187.484 557.846 187.848 558.987 187.882C559.64 187.901 560.257 187.813 560.78 187.607C563.304 186.615 562.405 181.464 561.803 178.525C563.403 178.09 564.868 177.207 565.559 176.103C566.443 174.69 565.914 172.42 565.354 170.599ZM559.433 173.588C559.002 173.524 558.498 173.365 557.921 173.08C556.472 172.364 555.429 170.892 555.198 169.24C555.002 167.841 555.425 166.048 557.193 165.359C558.017 168.065 558.766 170.815 559.433 173.588ZM553.987 148.751C554.244 148.124 554.479 147.965 554.57 147.967L554.572 147.968C554.609 147.97 554.708 148.05 554.837 148.221C555.518 149.128 556.043 150.312 556.397 151.737C556.888 153.718 556.776 155.306 556.119 155.688C555.66 155.955 555.351 156.12 555.127 156.224C554.016 153.407 553.192 150.681 553.987 148.751ZM558.224 177.12C555.855 176.564 553.141 173.895 552.091 172.182C550.48 169.55 549.766 166.627 550.082 163.951C550.392 161.319 551.642 159.28 553.425 158.495C553.993 158.244 554.336 158.127 554.573 158.066C554.651 158.254 554.729 158.441 554.806 158.627C555.308 159.834 555.783 160.975 556.123 161.998C556.318 162.585 556.509 163.174 556.698 163.766C554.632 164.464 553.537 166.51 553.894 169.065C554.224 171.425 555.694 173.517 557.732 174.524C558.496 174.902 559.192 175.107 559.806 175.175C559.958 175.84 560.105 176.505 560.247 177.172C559.537 177.271 558.836 177.263 558.224 177.12ZM564.424 174.95C563.895 175.795 562.74 176.502 561.46 176.898C561.331 176.298 561.197 175.698 561.06 175.1C561.887 174.885 562.441 174.335 562.653 173.622C562.957 172.606 562.549 171.407 561.617 170.566C561.29 170.272 560.893 170.295 560.73 170.617C560.567 170.94 560.7 171.441 561.027 171.735C561.377 172.05 561.499 172.393 561.391 172.755C561.307 173.035 561.072 173.316 560.678 173.479C560 170.671 559.241 167.885 558.404 165.144C559.224 165.177 560.125 165.545 561.014 166.221C562.414 167.283 563.576 168.978 564.122 170.753C564.537 172.1 565.02 174 564.424 174.95Z" fill="#5D5449"/>
<path d="M579.043 83.6492C577.838 82.3672 576.312 81.5166 574.856 81.3148C573.862 81.1769 573.02 81.359 572.41 81.8303C572.09 81.4962 571.77 81.1651 571.448 80.8372C570.842 80.2194 570.141 79.6002 569.399 78.945C569.301 78.8588 569.203 78.7723 569.106 78.6857C569.21 78.4882 569.336 78.2035 569.513 77.7559C569.878 76.8366 569.255 75.2624 567.887 73.6468C567.018 72.6207 566.123 71.8739 565.224 71.4274C564.628 71.1313 564.277 71.2195 564.088 71.3456C564.082 71.3496 564.076 71.354 564.07 71.3585C563.742 71.5936 563.645 72.1242 563.783 72.936C564.142 75.0553 565.853 76.9039 567.66 78.5626C567.537 78.7295 567.379 78.9829 567.154 79.4129C566.361 80.9307 566.444 83.1967 567.376 85.4739C568.325 87.7937 570.025 89.8166 572.165 91.1704C573.563 92.055 576.369 92.9649 578.227 92.2168C578.665 92.0408 579.091 91.7351 579.478 91.3455C580.666 92.8757 582.576 95.5205 581.917 96.6723C581.466 97.4579 580.415 98.0121 579.416 97.9886C578.831 97.9751 578.313 97.7749 577.878 97.3933C577.313 96.8978 576.857 96.1806 576.77 95.6487C576.713 95.2981 576.807 95.0388 577.058 94.8559C577.059 94.8547 577.061 94.8536 577.063 94.8522C577.417 94.5979 577.919 94.6187 578.407 94.9083C578.783 95.1317 579.076 95.4771 579.152 95.7883C579.217 96.0513 579.131 96.3008 578.909 96.5096C578.878 96.4466 578.841 96.3691 578.8 96.2736C578.671 95.9746 578.357 95.7628 578.101 95.8008C577.844 95.8389 577.741 96.1116 577.871 96.4111C578.052 96.8292 578.31 97.342 578.705 97.5965C578.899 97.7222 579.103 97.7696 579.278 97.7316C579.314 97.7234 579.347 97.7107 579.377 97.6932C580.311 97.1408 580.268 96.3192 580.159 95.8779C579.983 95.164 579.407 94.4435 578.656 93.9971C577.794 93.4853 576.914 93.4441 576.299 93.8851C576.296 93.8871 576.294 93.889 576.291 93.8912C575.821 94.2324 575.632 94.7758 575.744 95.4625C575.886 96.3314 576.532 97.3786 577.389 98.1298C578.075 98.7316 578.89 99.0608 579.745 99.0801C580.549 99.0987 581.36 98.833 581.99 98.3812C582.35 98.1226 582.651 97.8037 582.858 97.4417C583.858 95.6973 581.465 92.472 580.052 90.6682C580.757 89.6982 581.224 88.4707 581.19 87.4109C581.147 86.0551 580.02 84.6883 579.043 83.6492ZM576.944 88.2058C576.687 88.3404 576.356 88.4392 575.938 88.4805C574.889 88.5833 573.78 87.9899 573.043 86.9307C572.42 86.0344 571.986 84.6052 572.688 83.388C574.134 84.9354 575.557 86.5451 576.944 88.2058ZM564.808 73.1163C564.716 72.571 564.784 72.3613 564.834 72.3253L564.835 72.3245C564.856 72.3105 564.939 72.3258 565.072 72.3912C565.777 72.7418 566.499 73.35 567.217 74.1986C568.216 75.3782 568.743 76.534 568.529 77.0748C568.379 77.453 568.272 77.6972 568.19 77.8629C566.546 76.3578 565.093 74.7962 564.808 73.1163ZM577.596 91.177C576.109 91.7758 573.652 91.0416 572.451 90.2814C570.605 89.1132 569.137 87.3676 568.318 85.3659C567.512 83.3978 567.434 81.4513 568.109 80.1598C568.324 79.7482 568.466 79.5234 568.572 79.3818C568.683 79.4808 568.795 79.579 568.906 79.6766C569.624 80.311 570.303 80.9106 570.865 81.4841C571.188 81.813 571.51 82.1447 571.83 82.4803C570.971 83.8287 571.135 85.7151 572.273 87.3519C573.325 88.8639 574.895 89.7132 576.37 89.5685C576.924 89.5144 577.376 89.3678 577.733 89.1593C578.062 89.5608 578.388 89.964 578.711 90.3706C578.363 90.7361 577.981 91.0227 577.596 91.177ZM580.15 87.0782C580.176 87.889 579.813 88.8645 579.266 89.6743C578.974 89.309 578.68 88.9455 578.384 88.5846C578.752 88.0899 578.849 87.475 578.7 86.8879C578.489 86.0515 577.824 85.3829 577.009 85.1838C576.723 85.1142 576.516 85.2954 576.547 85.5889C576.578 85.8822 576.835 86.1767 577.121 86.246C577.427 86.3204 577.621 86.5093 577.696 86.8068C577.754 87.0371 577.731 87.3314 577.578 87.6101C576.172 85.9296 574.73 84.2993 573.263 82.7316C573.719 82.4134 574.343 82.2951 575.075 82.3969C576.225 82.5564 577.481 83.2559 578.433 84.2691C579.156 85.0385 580.12 86.1656 580.15 87.0782Z" fill="#5D5449"/>
<path d="M537.737 201.56C537.701 201.499 537.662 201.441 537.623 201.385L537.627 201.381L532.85 195.129C532.623 194.572 532.171 193.833 531.817 193.426C531.203 193.712 530.651 194.186 530.148 194.669C529.942 194.867 527.819 196.824 527.819 196.824C528.264 197.476 528.939 198.301 528.939 198.301C528.967 198.303 528.995 198.301 529.023 198.299L533.449 204.092C533.244 204.021 533.03 204.021 532.813 204.12C531.954 204.465 531.566 205.265 531.628 205.914C531.746 207.145 532.957 207.84 533.678 207.531C534.441 207.205 535.144 206.185 534.442 205.043C534.405 204.983 534.367 204.925 534.328 204.868L534.332 204.865L530.13 199.366C530.429 198.99 531.128 198.426 531.807 197.879C532.661 197.19 533.247 196.705 533.496 196.355L536.745 200.608C536.54 200.537 536.326 200.536 536.109 200.637C535.25 200.981 534.862 201.781 534.924 202.43C535.042 203.661 536.253 204.356 536.974 204.047C537.736 203.722 538.44 202.702 537.737 201.56ZM531.43 197.369C530.738 197.926 530.08 198.457 529.742 198.859L529.262 198.231C529.711 198.013 530.109 197.352 530.405 197.071C531.119 196.392 531.945 195.92 532.698 195.313L533.103 195.842C532.948 196.144 532.111 196.82 531.43 197.369Z" fill="#5D5449"/>
<path d="M586.128 143.161C586.093 143.104 586.056 143.049 586.019 142.995L586.023 142.992L581.502 137.075C581.287 136.548 580.86 135.849 580.524 135.463C579.943 135.735 579.421 136.183 578.944 136.64C578.749 136.827 576.74 138.68 576.74 138.68C577.161 139.296 577.8 140.077 577.8 140.077C577.827 140.079 577.853 140.077 577.879 140.075L582.068 145.558C581.874 145.49 581.672 145.49 581.465 145.585C580.652 145.911 580.286 146.667 580.344 147.282C580.456 148.448 581.602 149.104 582.284 148.813C583.006 148.504 583.672 147.539 583.008 146.459C582.972 146.401 582.936 146.347 582.899 146.293L582.902 146.29L578.926 141.085C579.209 140.73 579.87 140.196 580.513 139.678C581.322 139.027 581.876 138.567 582.112 138.237L585.187 142.262C584.993 142.194 584.791 142.194 584.585 142.288C583.772 142.614 583.405 143.371 583.464 143.986C583.575 145.151 584.721 145.808 585.404 145.517C586.126 145.207 586.792 144.242 586.128 143.161ZM580.159 139.194C579.504 139.722 578.882 140.224 578.561 140.605L578.107 140.011C578.532 139.805 578.909 139.18 579.189 138.913C579.865 138.27 580.647 137.824 581.36 137.249L581.742 137.75C581.595 138.036 580.803 138.675 580.159 139.194Z" fill="#5D5449"/>
<path d="M584.282 72.2234C584.247 72.1662 584.21 72.1114 584.173 72.0579L584.177 72.0546L579.656 66.1371C579.441 65.6109 579.014 64.9116 578.678 64.5254C578.098 64.7967 577.575 65.2449 577.099 65.7016C576.904 65.8887 574.894 67.7417 574.894 67.7417C575.316 68.3579 575.955 69.1388 575.955 69.1388C575.981 69.1411 576.007 69.1391 576.034 69.1372L580.223 74.6197C580.029 74.552 579.826 74.5518 579.62 74.6466C578.807 74.9725 578.44 75.7292 578.499 76.3438C578.611 77.5093 579.756 78.1663 580.439 77.8748C581.161 77.5662 581.827 76.601 581.162 75.5205C581.127 75.4633 581.091 75.4085 581.054 75.355L581.057 75.3517L577.081 70.1473C577.364 69.7915 578.025 69.2577 578.668 68.7402C579.476 68.0885 580.031 67.6292 580.267 67.2984L583.342 71.3236C583.148 71.2559 582.945 71.2557 582.739 71.3505C581.926 71.6764 581.559 72.4331 581.618 73.0477C581.73 74.2133 582.875 74.8702 583.558 74.5787C584.28 74.2691 584.946 73.3039 584.282 72.2234ZM578.313 68.2569C577.658 68.7848 577.036 69.2867 576.715 69.6675L576.261 69.0735C576.686 68.8677 577.064 68.242 577.343 67.9754C578.019 67.3329 578.801 66.886 579.514 66.3117L579.897 66.8122C579.749 67.098 578.957 67.7377 578.313 68.2569Z" fill="#5D5449"/>
<path d="M574.511 116.646C574.476 116.589 574.44 116.534 574.403 116.48L574.406 116.477L569.885 110.559C569.671 110.033 569.243 109.334 568.907 108.948C568.327 109.22 567.804 109.668 567.328 110.124C567.133 110.311 565.124 112.165 565.124 112.165C565.545 112.781 566.184 113.562 566.184 113.562C566.211 113.564 566.237 113.562 566.263 113.56L570.452 119.043C570.258 118.975 570.055 118.975 569.85 119.069C569.037 119.395 568.67 120.152 568.729 120.767C568.84 121.932 569.986 122.589 570.669 122.298C571.391 121.989 572.056 121.024 571.392 119.943C571.357 119.886 571.32 119.831 571.283 119.778L571.287 119.774L567.311 114.57C567.594 114.214 568.255 113.681 568.898 113.163C569.706 112.511 570.261 112.052 570.496 111.721L573.572 115.746C573.378 115.678 573.175 115.678 572.969 115.773C572.156 116.099 571.79 116.856 571.848 117.47C571.96 118.636 573.105 119.293 573.788 119.001C574.51 118.691 575.175 117.726 574.511 116.646ZM568.542 112.679C567.887 113.207 567.264 113.709 566.944 114.089L566.49 113.495C566.915 113.29 567.292 112.664 567.572 112.398C568.247 111.755 569.03 111.308 569.743 110.734L570.125 111.234C569.978 111.52 569.186 112.16 568.542 112.679Z" fill="#5D5449"/>
<path d="M534.136 170.628C529.244 167.01 528.212 160.11 531.832 155.218L554.934 123.997C558.553 119.106 565.452 118.075 570.343 121.695L632.313 167.55L596.112 216.473L534.136 170.628Z" fill="#E9D3B6"/>
<circle cx="532.266" cy="131.463" r="24.9249" transform="rotate(-53.5 532.266 131.463)" fill="#F4E9DB"/>
<rect x="519.557" y="130.491" width="6" height="2" rx="1" transform="rotate(-54.5 519.557 130.491)" fill="#0F0F0F"/>
<rect x="530.591" y="115.023" width="6" height="2" rx="1" transform="rotate(-54.5 530.591 115.023)" fill="#0F0F0F"/>
<path d="M527.226 124.906C532.579 126.759 531.005 123.507 529.549 121.65" stroke="#0F0F0F" stroke-linejoin="round"/>
<path d="M529.549 121.65C534.901 123.502 533.328 120.251 531.872 118.393" stroke="#0F0F0F" stroke-linejoin="round"/>
<path d="M540.183 105.385L549.731 112.195C550.333 112.625 550.322 113.67 549.707 114.533C549.092 115.394 548.107 115.746 547.505 115.316L537.957 108.506C537.357 108.077 537.367 107.03 537.981 106.169C538.597 105.307 539.581 104.956 540.183 105.385Z" fill="#181818"/>
<path d="M513.297 143.265L522.728 149.992C523.323 150.416 523.305 151.457 522.691 152.319C522.076 153.181 521.097 153.536 520.502 153.112L511.071 146.386C510.478 145.962 510.494 144.92 511.109 144.058C511.724 143.195 512.703 142.841 513.297 143.265Z" fill="#181818"/>
<path d="M511.247 149.485L512.676 147.345C512.571 147.278 512.298 147.004 512.117 146.822C511.868 146.572 511.632 146.335 511.428 146.19C501.147 138.856 499.354 124.334 507.346 113.13C515.212 102.102 528.976 98.1301 539.329 105.515C539.538 105.664 539.748 105.819 539.953 105.976L542.549 104.92C542.33 104.752 542.183 104.458 541.959 104.298C536.543 100.434 529.594 98.7132 522.806 100.103C515.939 101.508 509.974 106.041 505.737 111.982C501.484 117.945 499.572 124.98 500.356 131.79C501.137 138.58 504.538 144.438 509.933 148.286C510.032 148.357 510.251 148.577 510.427 148.753C510.721 149.049 511 149.328 511.247 149.485Z" fill="#6A6A61"/>
<path d="M549.216 100.056L552.081 102.1C552.95 102.72 552.982 104.165 552.153 105.329L551.16 106.72L545.406 102.616C545.374 102.6 545.34 102.587 545.311 102.566C545.278 102.542 545.244 102.52 545.211 102.497L546.662 100.462C547.472 99.7494 548.51 99.5535 549.216 100.056Z" fill="#181818"/>
<path d="M509.147 156.23L512.013 158.274C512.881 158.894 514.259 158.454 515.088 157.291L516.081 155.9L510.327 151.795C510.301 151.77 510.278 151.742 510.248 151.721C510.215 151.698 510.183 151.674 510.151 151.649L508.7 153.684C508.289 154.682 508.442 155.727 509.147 156.23Z" fill="#181818"/>
<path d="M507.688 148.821L510.242 145.24C510.305 145.287 510.368 145.334 510.432 145.38C510.51 145.436 510.574 145.502 510.638 145.571L521.801 153.534L520.082 155.943C518.586 158.041 515.998 158.763 514.303 157.554L508.715 153.568C507.342 152.588 506.98 150.642 507.688 148.821Z" fill="black"/>
<path d="M545.952 101.26L551.609 105.295C553.324 106.518 553.52 109.186 552.045 111.255L550.281 113.728L538.921 105.626C538.859 105.593 538.793 105.566 538.734 105.524C538.669 105.478 538.604 105.433 538.538 105.389L541.118 101.771C542.597 100.532 544.56 100.267 545.952 101.26Z" fill="black"/>
<path d="M552.71 110.201C552.71 110.201 552.79 110.015 552.805 109.966C552.819 109.916 552.864 109.722 552.864 109.722L541.407 101.549L541.128 101.939L552.71 110.201Z" fill="#E9D3B6"/>
<path d="M518.867 157.276C519.19 157.04 519.598 156.622 519.598 156.622L508.016 148.361C508.016 148.361 507.843 148.604 507.672 148.844C507.568 149.028 507.533 149.216 507.543 149.198C507.565 149.158 518.823 157.241 518.867 157.276Z" fill="#E9D3B6"/>
</g>
</svg>
