<svg width="280" height="280" viewBox="0 0 280 280" fill="none" xmlns="http://www.w3.org/2000/svg">
<mask id="mask0_8_60" style="mask-type:alpha" maskUnits="userSpaceOnUse" x="0" y="0" width="280" height="280">
<rect width="280" height="280" fill="#0F0F0F"/>
</mask>
<g mask="url(#mask0_8_60)">
<path d="M225.175 172.015L219.509 162.268C219.769 161.13 219.907 159.946 219.907 158.73V91.2698C219.907 82.5413 212.831 75.4656 204.102 75.4656H19.2698C10.5413 75.4656 3.46556 82.5413 3.46556 91.2698V158.73C3.46556 167.459 10.5413 174.534 19.2698 174.534H204.102C205.739 174.534 207.318 174.286 208.803 173.824L222.811 175.586C224.774 175.833 226.169 173.725 225.175 172.015Z" fill="#0F0F0F" stroke="#272727" stroke-width="1.06888"/>
<path d="M19.737 100.256V99.0969H21.2446V93.928H19.737V92.7691H24.0444V93.928H22.5368V99.0969H24.0444V100.256H19.737ZM34.2204 100.358C33.7418 100.358 33.3213 100.269 32.959 100.092C32.6034 99.9071 32.3265 99.6507 32.1283 99.3225C31.93 98.9875 31.8308 98.5944 31.8308 98.1431V96.7278C31.8308 96.2766 31.93 95.8868 32.1283 95.5587C32.3265 95.2236 32.6034 94.9672 32.959 94.7895C33.3213 94.6049 33.7418 94.5126 34.2204 94.5126C34.9315 94.5126 35.499 94.6972 35.9229 95.0664C36.3468 95.4287 36.569 95.9244 36.5895 96.5535H35.3383C35.3178 96.2595 35.205 96.0338 34.9999 95.8766C34.8016 95.7125 34.5418 95.6304 34.2204 95.6304C33.8786 95.6304 33.6085 95.7262 33.4102 95.9176C33.212 96.1022 33.1128 96.3689 33.1128 96.7176V98.1431C33.1128 98.4918 33.212 98.7619 33.4102 98.9533C33.6085 99.1448 33.8786 99.2405 34.2204 99.2405C34.5486 99.2405 34.8119 99.1619 35.0101 99.0046C35.2084 98.8405 35.3178 98.6115 35.3383 98.3175H36.5895C36.569 98.9465 36.3468 99.4456 35.9229 99.8148C35.499 100.177 34.9315 100.358 34.2204 100.358ZM40.3392 100.358C39.6212 100.358 39.0572 100.16 38.6469 99.7635C38.2367 99.3601 38.0316 98.8132 38.0316 98.1226V94.6151H39.3136V98.1123C39.3136 98.4747 39.4025 98.755 39.5802 98.9533C39.758 99.1448 40.011 99.2405 40.3392 99.2405C40.6605 99.2405 40.9101 99.1448 41.0878 98.9533C41.2724 98.755 41.3647 98.4747 41.3647 98.1123V94.6151H42.6467V98.1226C42.6467 98.8132 42.4382 99.3601 42.0211 99.7635C41.604 100.16 41.0434 100.358 40.3392 100.358ZM44.3657 100.256V94.6151H45.6169V95.692H45.6477C45.7024 95.3228 45.8665 95.0356 46.1399 94.8305C46.4134 94.6185 46.7621 94.5126 47.186 94.5126C47.7672 94.5126 48.2321 94.704 48.5808 95.0869C48.9295 95.4629 49.1039 95.9791 49.1039 96.6355V97.097H47.7604V96.7278C47.7604 96.3791 47.6681 96.109 47.4835 95.9176C47.3057 95.7193 47.0459 95.6202 46.704 95.6202C45.9998 95.6202 45.6477 96.0133 45.6477 96.7996V100.256H44.3657ZM50.5152 100.256V94.6151H51.7664V95.692H51.7971C51.8518 95.3228 52.0159 95.0356 52.2894 94.8305C52.5629 94.6185 52.9116 94.5126 53.3355 94.5126C53.9167 94.5126 54.3816 94.704 54.7303 95.0869C55.079 95.4629 55.2534 95.9791 55.2534 96.6355V97.097H53.9098V96.7278C53.9098 96.3791 53.8175 96.109 53.6329 95.9176C53.4552 95.7193 53.1954 95.6202 52.8535 95.6202C52.1493 95.6202 51.7971 96.0133 51.7971 96.7996V100.256H50.5152ZM58.7979 100.358C58.3192 100.358 57.9022 100.266 57.5466 100.081C57.1911 99.8969 56.9142 99.6405 56.7159 99.3123C56.5245 98.9773 56.4288 98.5875 56.4288 98.1431V96.7278C56.4288 96.2834 56.5245 95.8971 56.7159 95.5689C56.9142 95.2339 57.1911 94.9741 57.5466 94.7895C57.9022 94.6049 58.3192 94.5126 58.7979 94.5126C59.2696 94.5126 59.6799 94.6049 60.0286 94.7895C60.3841 94.9741 60.6576 95.2339 60.849 95.5689C61.0473 95.8971 61.1464 96.2834 61.1464 96.7278V97.7431H57.6697V98.1431C57.6697 98.9431 58.0492 99.343 58.8081 99.343C59.3961 99.343 59.7414 99.1482 59.8439 98.7585H61.1054C61.0097 99.2439 60.7499 99.6336 60.326 99.9276C59.9089 100.215 59.3995 100.358 58.7979 100.358ZM57.6697 96.7278V96.9432L59.9055 96.9329V96.7176C59.9055 96.3278 59.8132 96.0304 59.6286 95.8253C59.444 95.6133 59.1671 95.5074 58.7979 95.5074C58.4218 95.5074 58.1381 95.6133 57.9466 95.8253C57.762 96.0373 57.6697 96.3381 57.6697 96.7278ZM62.65 100.256V94.6151H63.9012V95.692H63.9218C63.9833 95.3228 64.144 95.0356 64.4038 94.8305C64.6636 94.6185 65.002 94.5126 65.4191 94.5126C65.9729 94.5126 66.4139 94.6972 66.7421 95.0664C67.0771 95.4356 67.2446 95.9313 67.2446 96.5535V100.256H65.9627V96.6868C65.9627 96.3449 65.8704 96.0817 65.6858 95.8971C65.508 95.7125 65.2653 95.6202 64.9576 95.6202C64.6362 95.6202 64.3833 95.7159 64.1987 95.9073C64.0209 96.0988 63.932 96.3723 63.932 96.7278V100.256H62.65ZM71.7019 100.256C71.1754 100.256 70.755 100.105 70.4404 99.8046C70.1328 99.4969 69.9789 99.0832 69.9789 98.5636V95.774H68.4508V94.6151H69.9789V93.0255H71.2712V94.6151H73.4351V95.774H71.2712V98.5328C71.2712 98.6969 71.3156 98.8337 71.4045 98.9431C71.5002 99.0456 71.6301 99.0969 71.7942 99.0969H73.3326V100.256H71.7019ZM78.1488 100.256C77.5882 100.256 77.1369 100.088 76.795 99.7533C76.46 99.4183 76.2925 98.9773 76.2925 98.4303V93.928H74.4362V92.7691H77.5745V98.3995C77.5745 98.6115 77.6326 98.7824 77.7488 98.9123C77.8719 99.0354 78.036 99.0969 78.2411 99.0969H79.8923V100.256H78.1488ZM82.0112 102.102L82.8112 99.9481L80.637 94.6151H82.0318L83.1394 97.497C83.2009 97.6543 83.259 97.8457 83.3137 98.0713C83.3684 98.2901 83.4095 98.4713 83.4368 98.6149C83.471 98.4713 83.5154 98.2901 83.5701 98.0713C83.6317 97.8457 83.6898 97.6543 83.7445 97.497L84.8008 94.6151H86.1341L83.3548 102.102H82.0112ZM93.3974 102.102V94.6151H94.6486V95.6304H94.6692C94.7717 95.2749 94.9529 95.0014 95.2127 94.81C95.4794 94.6117 95.8076 94.5126 96.1973 94.5126C96.7511 94.5126 97.1955 94.7074 97.5305 95.0971C97.8724 95.4869 98.0433 96.0099 98.0433 96.6663V98.1944C98.0433 98.8576 97.8724 99.3841 97.5305 99.7738C97.1955 100.164 96.7511 100.358 96.1973 100.358C95.8144 100.358 95.4896 100.263 95.223 100.071C94.9563 99.8729 94.7717 99.596 94.6692 99.2405H94.6486L94.6794 100.522V102.102H93.3974ZM95.7255 99.2507C96.0537 99.2507 96.3067 99.155 96.4844 98.9636C96.669 98.7721 96.7613 98.4987 96.7613 98.1431V96.7278C96.7613 96.3723 96.669 96.0988 96.4844 95.9073C96.3067 95.7159 96.0537 95.6202 95.7255 95.6202C95.3973 95.6202 95.1409 95.7193 94.9563 95.9176C94.7717 96.1159 94.6794 96.3962 94.6794 96.7586V98.1123C94.6794 98.4747 94.7717 98.755 94.9563 98.9533C95.1409 99.1516 95.3973 99.2507 95.7255 99.2507ZM102.747 100.256C102.186 100.256 101.735 100.088 101.393 99.7533C101.058 99.4183 100.89 98.9773 100.89 98.4303V93.928H99.0341V92.7691H102.172V98.3995C102.172 98.6115 102.231 98.7824 102.347 98.9123C102.47 99.0354 102.634 99.0969 102.839 99.0969H104.49V100.256H102.747ZM107.358 100.358C106.777 100.358 106.319 100.208 105.984 99.9071C105.649 99.5994 105.481 99.1824 105.481 98.6559C105.481 98.1021 105.672 97.6748 106.055 97.3739C106.438 97.0663 106.972 96.9124 107.655 96.9124H109.009V96.4407C109.009 96.1672 108.92 95.9552 108.742 95.8048C108.565 95.6544 108.315 95.5792 107.994 95.5792C107.7 95.5792 107.457 95.6407 107.266 95.7638C107.081 95.8868 106.978 96.0509 106.958 96.256H105.737C105.765 95.7296 105.987 95.3091 106.404 94.9946C106.828 94.6732 107.372 94.5126 108.035 94.5126C108.732 94.5126 109.283 94.6835 109.686 95.0253C110.089 95.3672 110.291 95.8356 110.291 96.4304V100.256H109.05V99.302H109.03C108.954 99.6302 108.77 99.89 108.476 100.081C108.182 100.266 107.809 100.358 107.358 100.358ZM107.778 99.4046C108.141 99.4046 108.435 99.3157 108.66 99.1379C108.893 98.9533 109.009 98.7106 109.009 98.4098V97.7329H107.686C107.399 97.7329 107.173 97.8081 107.009 97.9585C106.845 98.1021 106.763 98.3004 106.763 98.5533C106.763 98.82 106.852 99.0285 107.03 99.179C107.214 99.3294 107.464 99.4046 107.778 99.4046ZM112.759 102.102L113.559 99.9481L111.384 94.6151H112.779L113.887 97.497C113.948 97.6543 114.006 97.8457 114.061 98.0713C114.116 98.2901 114.157 98.4713 114.184 98.6149C114.218 98.4713 114.263 98.2901 114.318 98.0713C114.379 97.8457 114.437 97.6543 114.492 97.497L115.548 94.6151H116.881L114.102 102.102H112.759ZM126.463 100.358C125.984 100.358 125.564 100.269 125.201 100.092C124.846 99.9071 124.569 99.6507 124.37 99.3225C124.172 98.9875 124.073 98.5944 124.073 98.1431V96.7278C124.073 96.2766 124.172 95.8868 124.37 95.5587C124.569 95.2236 124.846 94.9672 125.201 94.7895C125.564 94.6049 125.984 94.5126 126.463 94.5126C127.174 94.5126 127.741 94.6972 128.165 95.0664C128.589 95.4287 128.811 95.9244 128.832 96.5535H127.581C127.56 96.2595 127.447 96.0338 127.242 95.8766C127.044 95.7125 126.784 95.6304 126.463 95.6304C126.121 95.6304 125.851 95.7262 125.652 95.9176C125.454 96.1022 125.355 96.3689 125.355 96.7176V98.1431C125.355 98.4918 125.454 98.7619 125.652 98.9533C125.851 99.1448 126.121 99.2405 126.463 99.2405C126.791 99.2405 127.054 99.1619 127.252 99.0046C127.451 98.8405 127.56 98.6115 127.581 98.3175H128.832C128.811 98.9465 128.589 99.4456 128.165 99.8148C127.741 100.177 127.174 100.358 126.463 100.358ZM131.207 102.102L132.007 99.9481L129.833 94.6151H131.228L132.335 97.497C132.397 97.6543 132.455 97.8457 132.51 98.0713C132.564 98.2901 132.605 98.4713 132.633 98.6149C132.667 98.4713 132.711 98.2901 132.766 98.0713C132.828 97.8457 132.886 97.6543 132.94 97.497L133.997 94.6151H135.33L132.551 102.102H131.207ZM139.213 100.358C138.803 100.358 138.464 100.259 138.198 100.061C137.931 99.8627 137.763 99.5823 137.695 99.22V100.256H136.444V92.7691H137.726V94.3485L137.685 95.692C137.746 95.3228 137.91 95.0356 138.177 94.8305C138.451 94.6185 138.796 94.5126 139.213 94.5126C139.78 94.5126 140.235 94.7074 140.577 95.0971C140.919 95.4869 141.09 96.0133 141.09 96.6765V98.2047C141.09 98.8679 140.919 99.3943 140.577 99.784C140.235 100.167 139.78 100.358 139.213 100.358ZM138.762 99.2507C139.09 99.2507 139.346 99.155 139.531 98.9636C139.715 98.7721 139.808 98.4987 139.808 98.1431V96.7278C139.808 96.3723 139.715 96.0988 139.531 95.9073C139.346 95.7159 139.09 95.6202 138.762 95.6202C138.433 95.6202 138.177 95.7193 137.992 95.9176C137.815 96.109 137.726 96.3791 137.726 96.7278V98.1431C137.726 98.4918 137.815 98.7653 137.992 98.9636C138.177 99.155 138.433 99.2507 138.762 99.2507ZM144.891 100.358C144.412 100.358 143.995 100.266 143.639 100.081C143.284 99.8969 143.007 99.6405 142.809 99.3123C142.617 98.9773 142.522 98.5875 142.522 98.1431V96.7278C142.522 96.2834 142.617 95.8971 142.809 95.5689C143.007 95.2339 143.284 94.9741 143.639 94.7895C143.995 94.6049 144.412 94.5126 144.891 94.5126C145.362 94.5126 145.773 94.6049 146.121 94.7895C146.477 94.9741 146.75 95.2339 146.942 95.5689C147.14 95.8971 147.239 96.2834 147.239 96.7278V97.7431H143.762V98.1431C143.762 98.9431 144.142 99.343 144.901 99.343C145.489 99.343 145.834 99.1482 145.937 98.7585H147.198C147.102 99.2439 146.843 99.6336 146.419 99.9276C146.002 100.215 145.492 100.358 144.891 100.358ZM143.762 96.7278V96.9432L145.998 96.9329V96.7176C145.998 96.3278 145.906 96.0304 145.721 95.8253C145.537 95.6133 145.26 95.5074 144.891 95.5074C144.515 95.5074 144.231 95.6133 144.039 95.8253C143.855 96.0373 143.762 96.3381 143.762 96.7278ZM148.907 100.256V94.6151H150.158V95.692H150.189C150.244 95.3228 150.408 95.0356 150.681 94.8305C150.955 94.6185 151.303 94.5126 151.727 94.5126C152.308 94.5126 152.773 94.704 153.122 95.0869C153.471 95.4629 153.645 95.9791 153.645 96.6355V97.097H152.302V96.7278C152.302 96.3791 152.209 96.109 152.025 95.9176C151.847 95.7193 151.587 95.6202 151.245 95.6202C150.541 95.6202 150.189 96.0133 150.189 96.7996V100.256H148.907ZM156.964 100.348C156.533 100.348 156.154 100.283 155.826 100.153C155.497 100.017 155.241 99.8251 155.056 99.5789C154.879 99.3328 154.79 99.0422 154.79 98.7072H156.082C156.082 98.9055 156.161 99.0593 156.318 99.1687C156.482 99.2713 156.701 99.3225 156.974 99.3225H157.415C157.737 99.3225 157.976 99.2644 158.133 99.1482C158.29 99.032 158.369 98.8713 158.369 98.6662C158.369 98.2764 158.078 98.0371 157.497 97.9483L156.708 97.8457C155.525 97.6748 154.933 97.1107 154.933 96.1535C154.933 95.6202 155.111 95.2168 155.467 94.9433C155.829 94.663 156.352 94.5228 157.036 94.5228H157.425C158.061 94.5228 158.571 94.6664 158.954 94.9536C159.343 95.2339 159.538 95.6065 159.538 96.0714H158.246C158.246 95.9073 158.174 95.7809 158.031 95.692C157.887 95.5963 157.682 95.5484 157.415 95.5484H157.025C156.465 95.5484 156.184 95.7501 156.184 96.1535C156.184 96.5022 156.434 96.7141 156.933 96.7893L157.733 96.9124C158.369 97.0013 158.841 97.1859 159.148 97.4662C159.463 97.7466 159.62 98.1363 159.62 98.6354C159.62 99.1755 159.432 99.596 159.056 99.8969C158.687 100.198 158.14 100.348 157.415 100.348H156.964ZM163.339 100.358C162.86 100.358 162.443 100.266 162.088 100.081C161.732 99.8969 161.455 99.6405 161.257 99.3123C161.066 98.9773 160.97 98.5875 160.97 98.1431V96.7278C160.97 96.2834 161.066 95.8971 161.257 95.5689C161.455 95.2339 161.732 94.9741 162.088 94.7895C162.443 94.6049 162.86 94.5126 163.339 94.5126C163.811 94.5126 164.221 94.6049 164.57 94.7895C164.925 94.9741 165.199 95.2339 165.39 95.5689C165.588 95.8971 165.688 96.2834 165.688 96.7278V97.7431H162.211V98.1431C162.211 98.9431 162.59 99.343 163.349 99.343C163.937 99.343 164.283 99.1482 164.385 98.7585H165.647C165.551 99.2439 165.291 99.6336 164.867 99.9276C164.45 100.215 163.941 100.358 163.339 100.358ZM162.211 96.7278V96.9432L164.447 96.9329V96.7176C164.447 96.3278 164.354 96.0304 164.17 95.8253C163.985 95.6133 163.708 95.5074 163.339 95.5074C162.963 95.5074 162.679 95.6133 162.488 95.8253C162.303 96.0373 162.211 96.3381 162.211 96.7278ZM169.509 100.358C169.03 100.358 168.61 100.269 168.248 100.092C167.892 99.9071 167.615 99.6507 167.417 99.3225C167.219 98.9875 167.119 98.5944 167.119 98.1431V96.7278C167.119 96.2766 167.219 95.8868 167.417 95.5587C167.615 95.2236 167.892 94.9672 168.248 94.7895C168.61 94.6049 169.03 94.5126 169.509 94.5126C170.22 94.5126 170.788 94.6972 171.211 95.0664C171.635 95.4287 171.858 95.9244 171.878 96.5535H170.627C170.606 96.2595 170.494 96.0338 170.288 95.8766C170.09 95.7125 169.83 95.6304 169.509 95.6304C169.167 95.6304 168.897 95.7262 168.699 95.9176C168.501 96.1022 168.401 96.3689 168.401 96.7176V98.1431C168.401 98.4918 168.501 98.7619 168.699 98.9533C168.897 99.1448 169.167 99.2405 169.509 99.2405C169.837 99.2405 170.1 99.1619 170.299 99.0046C170.497 98.8405 170.606 98.6115 170.627 98.3175H171.878C171.858 98.9465 171.635 99.4456 171.211 99.8148C170.788 100.177 170.22 100.358 169.509 100.358ZM175.628 100.358C174.91 100.358 174.346 100.16 173.936 99.7635C173.525 99.3601 173.32 98.8132 173.32 98.1226V94.6151H174.602V98.1123C174.602 98.4747 174.691 98.755 174.869 98.9533C175.047 99.1448 175.3 99.2405 175.628 99.2405C175.949 99.2405 176.199 99.1448 176.376 98.9533C176.561 98.755 176.653 98.4747 176.653 98.1123V94.6151H177.935V98.1226C177.935 98.8132 177.727 99.3601 177.31 99.7635C176.893 100.16 176.332 100.358 175.628 100.358ZM179.654 100.256V94.6151H180.905V95.692H180.936C180.991 95.3228 181.155 95.0356 181.429 94.8305C181.702 94.6185 182.051 94.5126 182.475 94.5126C183.056 94.5126 183.521 94.704 183.869 95.0869C184.218 95.4629 184.392 95.9791 184.392 96.6355V97.097H183.049V96.7278C183.049 96.3791 182.957 96.109 182.772 95.9176C182.594 95.7193 182.334 95.6202 181.993 95.6202C181.288 95.6202 180.936 96.0133 180.936 96.7996V100.256H179.654ZM185.629 100.256V99.0969H187.558V95.774H185.835V94.6151H188.839V99.0969H190.573V100.256H185.629ZM188.111 93.6716C187.852 93.6716 187.646 93.6066 187.496 93.4767C187.346 93.34 187.27 93.1588 187.27 92.9332C187.27 92.7075 187.346 92.5298 187.496 92.3999C187.646 92.2631 187.852 92.1947 188.111 92.1947C188.371 92.1947 188.576 92.2631 188.727 92.3999C188.877 92.5298 188.952 92.7075 188.952 92.9332C188.952 93.1588 188.877 93.34 188.727 93.4767C188.576 93.6066 188.371 93.6716 188.111 93.6716ZM194.692 100.256C194.165 100.256 193.745 100.105 193.43 99.8046C193.122 99.4969 192.969 99.0832 192.969 98.5636V95.774H191.44V94.6151H192.969V93.0255H194.261V94.6151H196.425V95.774H194.261V98.5328C194.261 98.6969 194.305 98.8337 194.394 98.9431C194.49 99.0456 194.62 99.0969 194.784 99.0969H196.322V100.256H194.692ZM198.851 102.102L199.651 99.9481L197.477 94.6151H198.872L199.98 97.497C200.041 97.6543 200.099 97.8457 200.154 98.0713C200.209 98.2901 200.25 98.4713 200.277 98.6149C200.311 98.4713 200.356 98.2901 200.41 98.0713C200.472 97.8457 200.53 97.6543 200.585 97.497L201.641 94.6151H202.974L200.195 102.102H198.851ZM21.9215 114.358C21.4429 114.358 21.0224 114.269 20.66 114.092C20.3045 113.907 20.0276 113.651 19.8293 113.323C19.631 112.988 19.5319 112.594 19.5319 112.143V110.728C19.5319 110.277 19.631 109.887 19.8293 109.559C20.0276 109.224 20.3045 108.967 20.66 108.789C21.0224 108.605 21.4429 108.513 21.9215 108.513C22.6325 108.513 23.2 108.697 23.6239 109.066C24.0478 109.429 24.2701 109.924 24.2906 110.553H23.0394C23.0188 110.259 22.906 110.034 22.7009 109.877C22.5026 109.712 22.2428 109.63 21.9215 109.63C21.5796 109.63 21.3095 109.726 21.1113 109.918C20.913 110.102 20.8138 110.369 20.8138 110.718V112.143C20.8138 112.492 20.913 112.762 21.1113 112.953C21.3095 113.145 21.5796 113.24 21.9215 113.24C22.2497 113.24 22.5129 113.162 22.7112 113.005C22.9095 112.841 23.0188 112.611 23.0394 112.317H24.2906C24.2701 112.946 24.0478 113.446 23.6239 113.815C23.2 114.177 22.6325 114.358 21.9215 114.358ZM27.4146 114.358C26.8334 114.358 26.3753 114.208 26.0403 113.907C25.7053 113.599 25.5378 113.182 25.5378 112.656C25.5378 112.102 25.7292 111.675 26.1121 111.374C26.495 111.066 27.0283 110.912 27.712 110.912H29.0658V110.441C29.0658 110.167 28.9769 109.955 28.7991 109.805C28.6214 109.654 28.3718 109.579 28.0504 109.579C27.7564 109.579 27.5137 109.641 27.3223 109.764C27.1377 109.887 27.0351 110.051 27.0146 110.256H25.7942C25.8215 109.73 26.0437 109.309 26.4608 108.995C26.8847 108.673 27.4283 108.513 28.0915 108.513C28.7889 108.513 29.3393 108.683 29.7427 109.025C30.1461 109.367 30.3477 109.836 30.3477 110.43V114.256H29.1068V113.302H29.0863C29.0111 113.63 28.8265 113.89 28.5325 114.081C28.2385 114.266 27.8658 114.358 27.4146 114.358ZM27.8351 113.405C28.1974 113.405 28.4914 113.316 28.7171 113.138C28.9495 112.953 29.0658 112.711 29.0658 112.41V111.733H27.7428C27.4556 111.733 27.23 111.808 27.0659 111.959C26.9018 112.102 26.8197 112.3 26.8197 112.553C26.8197 112.82 26.9086 113.029 27.0864 113.179C27.271 113.329 27.5206 113.405 27.8351 113.405ZM31.9026 116.102V108.615H33.1538V109.63H33.1743C33.2769 109.275 33.4581 109.001 33.7179 108.81C33.9846 108.612 34.3127 108.513 34.7025 108.513C35.2563 108.513 35.7007 108.707 36.0357 109.097C36.3776 109.487 36.5485 110.01 36.5485 110.666V112.194C36.5485 112.858 36.3776 113.384 36.0357 113.774C35.7007 114.164 35.2563 114.358 34.7025 114.358C34.3196 114.358 33.9948 114.263 33.7282 114.071C33.4615 113.873 33.2769 113.596 33.1743 113.24H33.1538L33.1846 114.522V116.102H31.9026ZM34.2307 113.251C34.5589 113.251 34.8119 113.155 34.9896 112.964C35.1742 112.772 35.2665 112.499 35.2665 112.143V110.728C35.2665 110.372 35.1742 110.099 34.9896 109.907C34.8119 109.716 34.5589 109.62 34.2307 109.62C33.9025 109.62 33.6461 109.719 33.4615 109.918C33.2769 110.116 33.1846 110.396 33.1846 110.759V112.112C33.1846 112.475 33.2769 112.755 33.4615 112.953C33.6461 113.152 33.9025 113.251 34.2307 113.251ZM40.9545 114.256C40.428 114.256 40.0075 114.105 39.693 113.805C39.3854 113.497 39.2315 113.083 39.2315 112.564V109.774H37.7034V108.615H39.2315V107.025H40.5238V108.615H42.6877V109.774H40.5238V112.533C40.5238 112.697 40.5682 112.834 40.6571 112.943C40.7528 113.046 40.8827 113.097 41.0468 113.097H42.5852V114.256H40.9545ZM46.4886 114.358C45.7707 114.358 45.2067 114.16 44.7964 113.764C44.3862 113.36 44.1811 112.813 44.1811 112.123V108.615H45.4631V112.112C45.4631 112.475 45.5519 112.755 45.7297 112.953C45.9075 113.145 46.1605 113.24 46.4886 113.24C46.81 113.24 47.0595 113.145 47.2373 112.953C47.4219 112.755 47.5142 112.475 47.5142 112.112V108.615H48.7962V112.123C48.7962 112.813 48.5877 113.36 48.1706 113.764C47.7535 114.16 47.1929 114.358 46.4886 114.358ZM50.5152 114.256V108.615H51.7664V109.692H51.7971C51.8518 109.323 52.0159 109.036 52.2894 108.83C52.5629 108.619 52.9116 108.513 53.3355 108.513C53.9167 108.513 54.3816 108.704 54.7303 109.087C55.079 109.463 55.2534 109.979 55.2534 110.636V111.097H53.9098V110.728C53.9098 110.379 53.8175 110.109 53.6329 109.918C53.4552 109.719 53.1954 109.62 52.8535 109.62C52.1493 109.62 51.7971 110.013 51.7971 110.8V114.256H50.5152ZM58.7979 114.358C58.3192 114.358 57.9022 114.266 57.5466 114.081C57.1911 113.897 56.9142 113.64 56.7159 113.312C56.5245 112.977 56.4288 112.588 56.4288 112.143V110.728C56.4288 110.283 56.5245 109.897 56.7159 109.569C56.9142 109.234 57.1911 108.974 57.5466 108.789C57.9022 108.605 58.3192 108.513 58.7979 108.513C59.2696 108.513 59.6799 108.605 60.0286 108.789C60.3841 108.974 60.6576 109.234 60.849 109.569C61.0473 109.897 61.1464 110.283 61.1464 110.728V111.743H57.6697V112.143C57.6697 112.943 58.0492 113.343 58.8081 113.343C59.3961 113.343 59.7414 113.148 59.8439 112.758H61.1054C61.0097 113.244 60.7499 113.634 60.326 113.928C59.9089 114.215 59.3995 114.358 58.7979 114.358ZM57.6697 110.728V110.943L59.9055 110.933V110.718C59.9055 110.328 59.8132 110.03 59.6286 109.825C59.444 109.613 59.1671 109.507 58.7979 109.507C58.4218 109.507 58.1381 109.613 57.9466 109.825C57.762 110.037 57.6697 110.338 57.6697 110.728ZM63.2962 111.466V110.277H66.578V111.466H63.2962ZM71.7019 114.256C71.1754 114.256 70.755 114.105 70.4404 113.805C70.1328 113.497 69.9789 113.083 69.9789 112.564V109.774H68.4508V108.615H69.9789V107.025H71.2712V108.615H73.4351V109.774H71.2712V112.533C71.2712 112.697 71.3156 112.834 71.4045 112.943C71.5002 113.046 71.6301 113.097 71.7942 113.097H73.3326V114.256H71.7019ZM74.949 114.256V106.769H76.231V108.615L76.2002 109.692H76.2207C76.2823 109.323 76.4429 109.036 76.7027 108.83C76.9626 108.619 77.301 108.513 77.7181 108.513C78.2719 108.513 78.7129 108.697 79.0411 109.066C79.3761 109.436 79.5436 109.931 79.5436 110.553V114.256H78.2616V110.687C78.2616 110.345 78.1693 110.082 77.9847 109.897C77.807 109.712 77.5642 109.62 77.2566 109.62C76.9352 109.62 76.6822 109.716 76.4976 109.907C76.3199 110.099 76.231 110.372 76.231 110.728V114.256H74.949ZM83.3958 114.358C82.9172 114.358 82.5001 114.266 82.1446 114.081C81.789 113.897 81.5121 113.64 81.3139 113.312C81.1224 112.977 81.0267 112.588 81.0267 112.143V110.728C81.0267 110.283 81.1224 109.897 81.3139 109.569C81.5121 109.234 81.789 108.974 82.1446 108.789C82.5001 108.605 82.9172 108.513 83.3958 108.513C83.8676 108.513 84.2778 108.605 84.6265 108.789C84.982 108.974 85.2555 109.234 85.4469 109.569C85.6452 109.897 85.7444 110.283 85.7444 110.728V111.743H82.2676V112.143C82.2676 112.943 82.6471 113.343 83.406 113.343C83.994 113.343 84.3393 113.148 84.4419 112.758H85.7033C85.6076 113.244 85.3478 113.634 84.9239 113.928C84.5068 114.215 83.9975 114.358 83.3958 114.358ZM82.2676 110.728V110.943L84.5034 110.933V110.718C84.5034 110.328 84.4111 110.03 84.2265 109.825C84.0419 109.613 83.765 109.507 83.3958 109.507C83.0197 109.507 82.736 109.613 82.5446 109.825C82.3599 110.037 82.2676 110.338 82.2676 110.728ZM87.8941 111.466V110.277H91.1759V111.466H87.8941ZM94.7102 114.256V110.4H93.1616V109.241H94.7102V108.389C94.7102 107.897 94.8743 107.504 95.2025 107.21C95.5306 106.916 95.9648 106.769 96.505 106.769H98.1561V107.897H96.5357C96.3716 107.897 96.2383 107.945 96.1357 108.041C96.04 108.13 95.9922 108.253 95.9922 108.41V109.241H98.1561V110.4H95.9922V114.256H94.7102ZM102.747 114.256C102.186 114.256 101.735 114.088 101.393 113.753C101.058 113.418 100.89 112.977 100.89 112.43V107.928H99.0341V106.769H102.172V112.4C102.172 112.611 102.231 112.782 102.347 112.912C102.47 113.035 102.634 113.097 102.839 113.097H104.49V114.256H102.747ZM107.358 114.358C106.777 114.358 106.319 114.208 105.984 113.907C105.649 113.599 105.481 113.182 105.481 112.656C105.481 112.102 105.672 111.675 106.055 111.374C106.438 111.066 106.972 110.912 107.655 110.912H109.009V110.441C109.009 110.167 108.92 109.955 108.742 109.805C108.565 109.654 108.315 109.579 107.994 109.579C107.7 109.579 107.457 109.641 107.266 109.764C107.081 109.887 106.978 110.051 106.958 110.256H105.737C105.765 109.73 105.987 109.309 106.404 108.995C106.828 108.673 107.372 108.513 108.035 108.513C108.732 108.513 109.283 108.683 109.686 109.025C110.089 109.367 110.291 109.836 110.291 110.43V114.256H109.05V113.302H109.03C108.954 113.63 108.77 113.89 108.476 114.081C108.182 114.266 107.809 114.358 107.358 114.358ZM107.778 113.405C108.141 113.405 108.435 113.316 108.66 113.138C108.893 112.953 109.009 112.711 109.009 112.41V111.733H107.686C107.399 111.733 107.173 111.808 107.009 111.959C106.845 112.102 106.763 112.3 106.763 112.553C106.763 112.82 106.852 113.029 107.03 113.179C107.214 113.329 107.464 113.405 107.778 113.405ZM112.615 116.102V115.035H114.287C114.861 115.035 115.148 114.765 115.148 114.225V113.805L115.169 112.748H115.148C115.094 113.117 114.936 113.408 114.676 113.62C114.417 113.825 114.082 113.928 113.671 113.928C113.097 113.928 112.639 113.733 112.297 113.343C111.962 112.953 111.795 112.427 111.795 111.764V110.666C111.795 110.01 111.962 109.487 112.297 109.097C112.639 108.707 113.097 108.513 113.671 108.513C114.082 108.513 114.417 108.619 114.676 108.83C114.936 109.036 115.094 109.323 115.148 109.692H115.169L115.138 108.615H116.42V114.256C116.42 114.83 116.232 115.281 115.856 115.61C115.48 115.938 114.964 116.102 114.307 116.102H112.615ZM114.102 112.82C114.43 112.82 114.683 112.724 114.861 112.533C115.046 112.335 115.138 112.061 115.138 111.712V110.728C115.138 110.379 115.046 110.109 114.861 109.918C114.683 109.719 114.43 109.62 114.102 109.62C113.774 109.62 113.521 109.716 113.343 109.907C113.165 110.099 113.077 110.372 113.077 110.728V111.712C113.077 112.068 113.165 112.341 113.343 112.533C113.521 112.724 113.774 112.82 114.102 112.82ZM120.067 114.348C119.636 114.348 119.257 114.283 118.929 114.153C118.6 114.017 118.344 113.825 118.159 113.579C117.982 113.333 117.893 113.042 117.893 112.707H119.185C119.185 112.905 119.264 113.059 119.421 113.169C119.585 113.271 119.804 113.323 120.077 113.323H120.518C120.84 113.323 121.079 113.264 121.236 113.148C121.393 113.032 121.472 112.871 121.472 112.666C121.472 112.276 121.182 112.037 120.6 111.948L119.811 111.846C118.628 111.675 118.036 111.111 118.036 110.153C118.036 109.62 118.214 109.217 118.57 108.943C118.932 108.663 119.455 108.523 120.139 108.523H120.529C121.164 108.523 121.674 108.666 122.057 108.954C122.446 109.234 122.641 109.607 122.641 110.071H121.349C121.349 109.907 121.277 109.781 121.134 109.692C120.99 109.596 120.785 109.548 120.518 109.548H120.129C119.568 109.548 119.288 109.75 119.288 110.153C119.288 110.502 119.537 110.714 120.036 110.789L120.836 110.912C121.472 111.001 121.944 111.186 122.252 111.466C122.566 111.747 122.723 112.136 122.723 112.635C122.723 113.176 122.535 113.596 122.159 113.897C121.79 114.198 121.243 114.348 120.518 114.348H120.067ZM130.571 114.256L129.71 108.615H130.735L131.207 112.071C131.234 112.27 131.255 112.488 131.269 112.728C131.289 112.967 131.306 113.165 131.32 113.323H131.371C131.385 113.165 131.405 112.97 131.433 112.738C131.46 112.499 131.487 112.276 131.515 112.071L132.058 108.615H133.125L133.648 112.071C133.675 112.27 133.703 112.492 133.73 112.738C133.757 112.977 133.778 113.176 133.792 113.333H133.843C133.857 113.169 133.874 112.97 133.894 112.738C133.915 112.499 133.939 112.276 133.966 112.071L134.458 108.615H135.453L134.571 114.256H133.248L132.756 110.779C132.728 110.588 132.698 110.376 132.663 110.143C132.636 109.904 132.616 109.709 132.602 109.559H132.561C132.54 109.709 132.516 109.904 132.489 110.143C132.462 110.376 132.434 110.588 132.407 110.779L131.894 114.256H130.571ZM136.434 114.256V113.097H138.362V109.774H136.639V108.615H139.644V113.097H141.377V114.256H136.434ZM138.915 107.672C138.656 107.672 138.451 107.607 138.3 107.477C138.15 107.34 138.074 107.159 138.074 106.933C138.074 106.708 138.15 106.53 138.3 106.4C138.451 106.263 138.656 106.195 138.915 106.195C139.175 106.195 139.38 106.263 139.531 106.4C139.681 106.53 139.756 106.708 139.756 106.933C139.756 107.159 139.681 107.34 139.531 107.477C139.38 107.607 139.175 107.672 138.915 107.672ZM145.496 114.256C144.969 114.256 144.549 114.105 144.234 113.805C143.927 113.497 143.773 113.083 143.773 112.564V109.774H142.245V108.615H143.773V107.025H145.065V108.615H147.229V109.774H145.065V112.533C145.065 112.697 145.109 112.834 145.198 112.943C145.294 113.046 145.424 113.097 145.588 113.097H147.126V114.256H145.496ZM148.743 114.256V106.769H150.025V108.615L149.994 109.692H150.014C150.076 109.323 150.237 109.036 150.497 108.83C150.756 108.619 151.095 108.513 151.512 108.513C152.066 108.513 152.507 108.697 152.835 109.066C153.17 109.436 153.337 109.931 153.337 110.553V114.256H152.055V110.687C152.055 110.345 151.963 110.082 151.778 109.897C151.601 109.712 151.358 109.62 151.05 109.62C150.729 109.62 150.476 109.716 150.291 109.907C150.114 110.099 150.025 110.372 150.025 110.728V114.256H148.743ZM161.042 114.256V106.769H163.534C164.033 106.769 164.467 106.865 164.836 107.056C165.212 107.248 165.503 107.518 165.708 107.866C165.913 108.208 166.016 108.612 166.016 109.077C166.016 109.542 165.913 109.948 165.708 110.297C165.503 110.639 165.212 110.906 164.836 111.097C164.467 111.288 164.033 111.384 163.534 111.384H162.324V114.256H161.042ZM162.324 110.256H163.534C163.896 110.256 164.183 110.147 164.395 109.928C164.607 109.709 164.713 109.425 164.713 109.077C164.713 108.728 164.607 108.444 164.395 108.225C164.183 108.007 163.896 107.897 163.534 107.897H162.324V110.256ZM167.355 114.256V108.615H168.607V109.692H168.637C168.692 109.323 168.856 109.036 169.13 108.83C169.403 108.619 169.752 108.513 170.176 108.513C170.757 108.513 171.222 108.704 171.57 109.087C171.919 109.463 172.093 109.979 172.093 110.636V111.097H170.75V110.728C170.75 110.379 170.658 110.109 170.473 109.918C170.295 109.719 170.035 109.62 169.694 109.62C168.989 109.62 168.637 110.013 168.637 110.8V114.256H167.355ZM175.628 114.348C174.903 114.348 174.329 114.15 173.905 113.753C173.481 113.35 173.269 112.81 173.269 112.133V110.738C173.269 110.061 173.481 109.524 173.905 109.128C174.329 108.725 174.903 108.523 175.628 108.523C176.352 108.523 176.927 108.725 177.351 109.128C177.775 109.524 177.987 110.058 177.987 110.728V112.133C177.987 112.81 177.775 113.35 177.351 113.753C176.927 114.15 176.352 114.348 175.628 114.348ZM175.628 113.23C175.97 113.23 176.233 113.138 176.417 112.953C176.609 112.762 176.705 112.488 176.705 112.133V110.738C176.705 110.383 176.609 110.112 176.417 109.928C176.233 109.736 175.97 109.641 175.628 109.641C175.286 109.641 175.019 109.736 174.828 109.928C174.643 110.112 174.551 110.383 174.551 110.738V112.133C174.551 112.488 174.643 112.762 174.828 112.953C175.019 113.138 175.286 113.23 175.628 113.23ZM179.357 116.102V114.943H181.018C181.346 114.943 181.606 114.844 181.798 114.646C181.989 114.454 182.085 114.191 182.085 113.856V109.774H179.562V108.615H183.367V113.887C183.367 114.57 183.162 115.11 182.752 115.507C182.341 115.904 181.787 116.102 181.09 116.102H179.357ZM182.711 107.672C182.451 107.672 182.246 107.607 182.095 107.477C181.945 107.34 181.87 107.159 181.87 106.933C181.87 106.708 181.945 106.53 182.095 106.4C182.246 106.263 182.451 106.195 182.711 106.195C182.97 106.195 183.175 106.263 183.326 106.4C183.476 106.53 183.551 106.708 183.551 106.933C183.551 107.159 183.476 107.34 183.326 107.477C183.175 107.607 182.97 107.672 182.711 107.672ZM187.937 114.358C187.458 114.358 187.041 114.266 186.686 114.081C186.33 113.897 186.053 113.64 185.855 113.312C185.664 112.977 185.568 112.588 185.568 112.143V110.728C185.568 110.283 185.664 109.897 185.855 109.569C186.053 109.234 186.33 108.974 186.686 108.789C187.041 108.605 187.458 108.513 187.937 108.513C188.409 108.513 188.819 108.605 189.168 108.789C189.523 108.974 189.797 109.234 189.988 109.569C190.186 109.897 190.286 110.283 190.286 110.728V111.743H186.809V112.143C186.809 112.943 187.188 113.343 187.947 113.343C188.535 113.343 188.881 113.148 188.983 112.758H190.245C190.149 113.244 189.889 113.634 189.465 113.928C189.048 114.215 188.539 114.358 187.937 114.358ZM186.809 110.728V110.943L189.045 110.933V110.718C189.045 110.328 188.952 110.03 188.768 109.825C188.583 109.613 188.306 109.507 187.937 109.507C187.561 109.507 187.277 109.613 187.086 109.825C186.901 110.037 186.809 110.338 186.809 110.728ZM194.107 114.358C193.628 114.358 193.208 114.269 192.845 114.092C192.49 113.907 192.213 113.651 192.015 113.323C191.816 112.988 191.717 112.594 191.717 112.143V110.728C191.717 110.277 191.816 109.887 192.015 109.559C192.213 109.224 192.49 108.967 192.845 108.789C193.208 108.605 193.628 108.513 194.107 108.513C194.818 108.513 195.386 108.697 195.809 109.066C196.233 109.429 196.456 109.924 196.476 110.553H195.225C195.204 110.259 195.092 110.034 194.886 109.877C194.688 109.712 194.428 109.63 194.107 109.63C193.765 109.63 193.495 109.726 193.297 109.918C193.098 110.102 192.999 110.369 192.999 110.718V112.143C192.999 112.492 193.098 112.762 193.297 112.953C193.495 113.145 193.765 113.24 194.107 113.24C194.435 113.24 194.698 113.162 194.897 113.005C195.095 112.841 195.204 112.611 195.225 112.317H196.476C196.456 112.946 196.233 113.446 195.809 113.815C195.386 114.177 194.818 114.358 194.107 114.358ZM200.841 114.256C200.315 114.256 199.894 114.105 199.58 113.805C199.272 113.497 199.118 113.083 199.118 112.564V109.774H197.59V108.615H199.118V107.025H200.41V108.615H202.574V109.774H200.41V112.533C200.41 112.697 200.455 112.834 200.544 112.943C200.639 113.046 200.769 113.097 200.933 113.097H202.472V114.256H200.841ZM21.9112 128.358C21.3984 128.358 20.954 128.273 20.578 128.102C20.2088 127.924 19.9182 127.678 19.7062 127.364C19.5011 127.042 19.3985 126.666 19.3985 126.235H20.6805C20.6805 126.543 20.7933 126.789 21.019 126.974C21.2446 127.152 21.5454 127.24 21.9215 127.24C22.2907 127.24 22.5778 127.152 22.783 126.974C22.9949 126.796 23.1009 126.553 23.1009 126.246C23.1009 125.993 23.0291 125.777 22.8855 125.6C22.7419 125.415 22.5437 125.288 22.2907 125.22L21.3882 124.974C20.807 124.817 20.3558 124.547 20.0344 124.164C19.7131 123.774 19.5524 123.306 19.5524 122.759C19.5524 122.123 19.7643 121.617 20.1882 121.241C20.6122 120.858 21.1831 120.667 21.901 120.667C22.6257 120.667 23.2 120.855 23.6239 121.231C24.0547 121.6 24.2701 122.099 24.2701 122.728H22.9881C22.9881 122.441 22.8889 122.212 22.6907 122.041C22.4992 121.87 22.2326 121.784 21.8907 121.784C21.5557 121.784 21.2925 121.87 21.101 122.041C20.9164 122.205 20.8241 122.437 20.8241 122.738C20.8241 122.971 20.8925 123.172 21.0292 123.343C21.1728 123.514 21.3779 123.634 21.6446 123.702L22.5573 123.959C23.1385 124.116 23.5863 124.389 23.9008 124.779C24.2222 125.162 24.3829 125.637 24.3829 126.205C24.3829 126.635 24.2803 127.015 24.0752 127.343C23.8701 127.664 23.5829 127.914 23.2137 128.092C22.8445 128.269 22.4103 128.358 21.9112 128.358ZM28.0504 128.358C27.5718 128.358 27.1548 128.266 26.7992 128.081C26.4437 127.897 26.1668 127.64 25.9685 127.312C25.7771 126.977 25.6814 126.588 25.6814 126.143V124.728C25.6814 124.283 25.7771 123.897 25.9685 123.569C26.1668 123.234 26.4437 122.974 26.7992 122.789C27.1548 122.605 27.5718 122.513 28.0504 122.513C28.5222 122.513 28.9324 122.605 29.2811 122.789C29.6367 122.974 29.9102 123.234 30.1016 123.569C30.2999 123.897 30.399 124.283 30.399 124.728V125.743H26.9223V126.143C26.9223 126.943 27.3018 127.343 28.0607 127.343C28.6487 127.343 28.994 127.148 29.0965 126.758H30.358C30.2623 127.244 30.0025 127.634 29.5786 127.928C29.1615 128.215 28.6521 128.358 28.0504 128.358ZM26.9223 124.728V124.943L29.1581 124.933V124.718C29.1581 124.328 29.0658 124.03 28.8812 123.825C28.6966 123.613 28.4197 123.507 28.0504 123.507C27.6744 123.507 27.3907 123.613 27.1992 123.825C27.0146 124.037 26.9223 124.338 26.9223 124.728ZM31.9334 128.256V120.769H33.2154V124.83H34.1179L35.4922 122.615H36.9177L35.2153 125.343L36.9485 128.256H35.4922L34.1179 125.917H33.2154V128.256H31.9334ZM39.7135 128.358C39.1324 128.358 38.6743 128.208 38.3393 127.907C38.0042 127.599 37.8367 127.182 37.8367 126.656C37.8367 126.102 38.0282 125.675 38.4111 125.374C38.7939 125.066 39.3272 124.912 40.011 124.912H41.3647V124.441C41.3647 124.167 41.2759 123.955 41.0981 123.805C40.9203 123.654 40.6708 123.579 40.3494 123.579C40.0554 123.579 39.8127 123.641 39.6212 123.764C39.4366 123.887 39.3341 124.051 39.3136 124.256H38.0931C38.1205 123.73 38.3427 123.309 38.7598 122.995C39.1837 122.673 39.7272 122.513 40.3904 122.513C41.0878 122.513 41.6382 122.683 42.0416 123.025C42.445 123.367 42.6467 123.836 42.6467 124.43V128.256H41.4058V127.302H41.3852C41.31 127.63 41.1254 127.89 40.8314 128.081C40.5374 128.266 40.1648 128.358 39.7135 128.358ZM40.134 127.405C40.4964 127.405 40.7904 127.316 41.016 127.138C41.2485 126.953 41.3647 126.711 41.3647 126.41V125.733H40.0417C39.7546 125.733 39.5289 125.808 39.3649 125.959C39.2008 126.102 39.1187 126.3 39.1187 126.553C39.1187 126.82 39.2076 127.029 39.3854 127.179C39.57 127.329 39.8195 127.405 40.134 127.405ZM44.1913 128.256V127.097H46.1194V123.774H44.3965V122.615H47.4014V127.097H49.1346V128.256H44.1913ZM46.6732 121.672C46.4134 121.672 46.2083 121.607 46.0579 121.477C45.9075 121.34 45.8323 121.159 45.8323 120.933C45.8323 120.708 45.9075 120.53 46.0579 120.4C46.2083 120.263 46.4134 120.195 46.6732 120.195C46.9331 120.195 47.1382 120.263 47.2886 120.4C47.439 120.53 47.5142 120.708 47.5142 120.933C47.5142 121.159 47.439 121.34 47.2886 121.477C47.1382 121.607 46.9331 121.672 46.6732 121.672ZM52.6381 128.358C52.3441 128.358 52.1082 128.273 51.9305 128.102C51.7595 127.931 51.6741 127.699 51.6741 127.405C51.6741 127.111 51.7595 126.878 51.9305 126.707C52.1082 126.529 52.3441 126.441 52.6381 126.441C52.9321 126.441 53.1646 126.529 53.3355 126.707C53.5133 126.878 53.6022 127.111 53.6022 127.405C53.6022 127.699 53.5133 127.931 53.3355 128.102C53.1646 128.273 52.9321 128.358 52.6381 128.358ZM62.65 128.256V120.769H63.932V123.774H65.9422V120.769H67.2241V128.256H65.9422V124.933H63.932V128.256H62.65ZM71.0866 128.348C70.3618 128.348 69.7875 128.15 69.3636 127.753C68.9397 127.35 68.7277 126.81 68.7277 126.133V124.738C68.7277 124.061 68.9397 123.524 69.3636 123.128C69.7875 122.725 70.3618 122.523 71.0866 122.523C71.8113 122.523 72.3856 122.725 72.8095 123.128C73.2334 123.524 73.4454 124.058 73.4454 124.728V126.133C73.4454 126.81 73.2334 127.35 72.8095 127.753C72.3856 128.15 71.8113 128.348 71.0866 128.348ZM71.0866 127.23C71.4284 127.23 71.6917 127.138 71.8763 126.953C72.0677 126.762 72.1634 126.488 72.1634 126.133V124.738C72.1634 124.383 72.0677 124.112 71.8763 123.928C71.6917 123.736 71.4284 123.641 71.0866 123.641C70.7447 123.641 70.4781 123.736 70.2866 123.928C70.102 124.112 70.0097 124.383 70.0097 124.738V126.133C70.0097 126.488 70.102 126.762 70.2866 126.953C70.4781 127.138 70.7447 127.23 71.0866 127.23ZM77.0207 128.348C76.5899 128.348 76.2105 128.283 75.8823 128.153C75.5541 128.017 75.2977 127.825 75.1131 127.579C74.9353 127.333 74.8464 127.042 74.8464 126.707H76.1387C76.1387 126.905 76.2173 127.059 76.3746 127.169C76.5387 127.271 76.7574 127.323 77.0309 127.323H77.4719C77.7933 127.323 78.0326 127.264 78.1898 127.148C78.3471 127.032 78.4257 126.871 78.4257 126.666C78.4257 126.276 78.1351 126.037 77.554 125.948L76.7643 125.846C75.5814 125.675 74.99 125.111 74.99 124.153C74.99 123.62 75.1678 123.217 75.5233 122.943C75.8857 122.663 76.4087 122.523 77.0925 122.523H77.4822C78.118 122.523 78.6274 122.666 79.0103 122.954C79.4 123.234 79.5949 123.607 79.5949 124.071H78.3027C78.3027 123.907 78.2309 123.781 78.0873 123.692C77.9437 123.596 77.7386 123.548 77.4719 123.548H77.0822C76.5216 123.548 76.2412 123.75 76.2412 124.153C76.2412 124.502 76.4908 124.714 76.9899 124.789L77.7899 124.912C78.4257 125.001 78.8975 125.186 79.2052 125.466C79.5197 125.747 79.6769 126.136 79.6769 126.635C79.6769 127.176 79.4889 127.596 79.1129 127.897C78.7437 128.198 78.1967 128.348 77.4719 128.348H77.0207ZM84.0009 128.256C83.4744 128.256 83.0539 128.105 82.7394 127.805C82.4317 127.497 82.2779 127.083 82.2779 126.564V123.774H80.7498V122.615H82.2779V121.025H83.5701V122.615H85.7341V123.774H83.5701V126.533C83.5701 126.697 83.6146 126.834 83.7035 126.943C83.7992 127.046 83.9291 127.097 84.0932 127.097H85.6316V128.256H84.0009ZM89.5453 128.358C89.0667 128.358 88.6496 128.266 88.2941 128.081C87.9385 127.897 87.6616 127.64 87.4633 127.312C87.2719 126.977 87.1762 126.588 87.1762 126.143V124.728C87.1762 124.283 87.2719 123.897 87.4633 123.569C87.6616 123.234 87.9385 122.974 88.2941 122.789C88.6496 122.605 89.0667 122.513 89.5453 122.513C90.017 122.513 90.4273 122.605 90.776 122.789C91.1315 122.974 91.405 123.234 91.5964 123.569C91.7947 123.897 91.8938 124.283 91.8938 124.728V125.743H88.4171V126.143C88.4171 126.943 88.7966 127.343 89.5555 127.343C90.1435 127.343 90.4888 127.148 90.5914 126.758H91.8528C91.7571 127.244 91.4973 127.634 91.0734 127.928C90.6563 128.215 90.1469 128.358 89.5453 128.358ZM88.4171 124.728V124.943L90.6529 124.933V124.718C90.6529 124.328 90.5606 124.03 90.376 123.825C90.1914 123.613 89.9145 123.507 89.5453 123.507C89.1692 123.507 88.8855 123.613 88.694 123.825C88.5094 124.037 88.4171 124.338 88.4171 124.728ZM95.1717 128.358C94.6247 128.358 94.1803 128.164 93.8384 127.774C93.4966 127.384 93.3256 126.861 93.3256 126.205V124.677C93.3256 124.013 93.4932 123.487 93.8282 123.097C94.17 122.707 94.6179 122.513 95.1717 122.513C95.5614 122.513 95.8896 122.612 96.1563 122.81C96.4229 123.001 96.6075 123.275 96.7101 123.63H96.7306L96.6896 122.348V120.769H97.9715V128.256H96.7203V127.24H96.7101C96.6075 127.596 96.4229 127.873 96.1563 128.071C95.8964 128.263 95.5683 128.358 95.1717 128.358ZM95.6537 127.251C95.9819 127.251 96.2349 127.152 96.4126 126.953C96.5973 126.755 96.6896 126.475 96.6896 126.112V124.759C96.6896 124.396 96.5973 124.116 96.4126 123.918C96.2349 123.719 95.9819 123.62 95.6537 123.62C95.3255 123.62 95.0691 123.716 94.8845 123.907C94.6999 124.099 94.6076 124.372 94.6076 124.728V126.143C94.6076 126.499 94.6999 126.772 94.8845 126.964C95.0691 127.155 95.3255 127.251 95.6537 127.251ZM107.983 128.348C107.259 128.348 106.684 128.15 106.26 127.753C105.837 127.35 105.625 126.81 105.625 126.133V124.738C105.625 124.061 105.837 123.524 106.26 123.128C106.684 122.725 107.259 122.523 107.983 122.523C108.708 122.523 109.283 122.725 109.706 123.128C110.13 123.524 110.342 124.058 110.342 124.728V126.133C110.342 126.81 110.13 127.35 109.706 127.753C109.283 128.15 108.708 128.348 107.983 128.348ZM107.983 127.23C108.325 127.23 108.589 127.138 108.773 126.953C108.965 126.762 109.06 126.488 109.06 126.133V124.738C109.06 124.383 108.965 124.112 108.773 123.928C108.589 123.736 108.325 123.641 107.983 123.641C107.642 123.641 107.375 123.736 107.183 123.928C106.999 124.112 106.907 124.383 106.907 124.738V126.133C106.907 126.488 106.999 126.762 107.183 126.953C107.375 127.138 107.642 127.23 107.983 127.23ZM111.846 128.256V122.615H113.097V123.692H113.118C113.179 123.323 113.34 123.036 113.6 122.83C113.859 122.619 114.198 122.513 114.615 122.513C115.169 122.513 115.61 122.697 115.938 123.066C116.273 123.436 116.44 123.931 116.44 124.553V128.256H115.159V124.687C115.159 124.345 115.066 124.082 114.882 123.897C114.704 123.712 114.461 123.62 114.153 123.62C113.832 123.62 113.579 123.716 113.395 123.907C113.217 124.099 113.128 124.372 113.128 124.728V128.256H111.846ZM127.047 128.256C126.521 128.256 126.1 128.105 125.786 127.805C125.478 127.497 125.324 127.083 125.324 126.564V123.774H123.796V122.615H125.324V121.025H126.617V122.615H128.78V123.774H126.617V126.533C126.617 126.697 126.661 126.834 126.75 126.943C126.846 127.046 126.975 127.097 127.14 127.097H128.678V128.256H127.047ZM130.294 128.256V120.769H131.576V122.615L131.546 123.692H131.566C131.628 123.323 131.788 123.036 132.048 122.83C132.308 122.619 132.646 122.513 133.063 122.513C133.617 122.513 134.058 122.697 134.386 123.066C134.721 123.436 134.889 123.931 134.889 124.553V128.256H133.607V124.687C133.607 124.345 133.515 124.082 133.33 123.897C133.152 123.712 132.91 123.62 132.602 123.62C132.281 123.62 132.028 123.716 131.843 123.907C131.665 124.099 131.576 124.372 131.576 124.728V128.256H130.294ZM136.434 128.256V127.097H138.362V123.774H136.639V122.615H139.644V127.097H141.377V128.256H136.434ZM138.915 121.672C138.656 121.672 138.451 121.607 138.3 121.477C138.15 121.34 138.074 121.159 138.074 120.933C138.074 120.708 138.15 120.53 138.3 120.4C138.451 120.263 138.656 120.195 138.915 120.195C139.175 120.195 139.38 120.263 139.531 120.4C139.681 120.53 139.756 120.708 139.756 120.933C139.756 121.159 139.681 121.34 139.531 121.477C139.38 121.607 139.175 121.672 138.915 121.672ZM144.665 128.348C144.234 128.348 143.855 128.283 143.527 128.153C143.198 128.017 142.942 127.825 142.757 127.579C142.58 127.333 142.491 127.042 142.491 126.707H143.783C143.783 126.905 143.862 127.059 144.019 127.169C144.183 127.271 144.402 127.323 144.675 127.323H145.116C145.438 127.323 145.677 127.264 145.834 127.148C145.991 127.032 146.07 126.871 146.07 126.666C146.07 126.276 145.779 126.037 145.198 125.948L144.409 125.846C143.226 125.675 142.634 125.111 142.634 124.153C142.634 123.62 142.812 123.217 143.168 122.943C143.53 122.663 144.053 122.523 144.737 122.523H145.126C145.762 122.523 146.272 122.666 146.655 122.954C147.044 123.234 147.239 123.607 147.239 124.071H145.947C145.947 123.907 145.875 123.781 145.732 123.692C145.588 123.596 145.383 123.548 145.116 123.548H144.727C144.166 123.548 143.886 123.75 143.886 124.153C143.886 124.502 144.135 124.714 144.634 124.789L145.434 124.912C146.07 125.001 146.542 125.186 146.849 125.466C147.164 125.747 147.321 126.136 147.321 126.635C147.321 127.176 147.133 127.596 146.757 127.897C146.388 128.198 145.841 128.348 145.116 128.348H144.665ZM157.661 128.358C157.251 128.358 156.913 128.259 156.646 128.061C156.379 127.863 156.212 127.582 156.143 127.22V128.256H154.892V120.769H156.174V122.348L156.133 123.692C156.195 123.323 156.359 123.036 156.625 122.83C156.899 122.619 157.244 122.513 157.661 122.513C158.229 122.513 158.683 122.707 159.025 123.097C159.367 123.487 159.538 124.013 159.538 124.677V126.205C159.538 126.868 159.367 127.394 159.025 127.784C158.683 128.167 158.229 128.358 157.661 128.358ZM157.21 127.251C157.538 127.251 157.795 127.155 157.979 126.964C158.164 126.772 158.256 126.499 158.256 126.143V124.728C158.256 124.372 158.164 124.099 157.979 123.907C157.795 123.716 157.538 123.62 157.21 123.62C156.882 123.62 156.625 123.719 156.441 123.918C156.263 124.109 156.174 124.379 156.174 124.728V126.143C156.174 126.492 156.263 126.765 156.441 126.964C156.625 127.155 156.882 127.251 157.21 127.251ZM164.242 128.256C163.681 128.256 163.23 128.088 162.888 127.753C162.553 127.418 162.385 126.977 162.385 126.43V121.928H160.529V120.769H163.667V126.4C163.667 126.611 163.725 126.782 163.842 126.912C163.965 127.035 164.129 127.097 164.334 127.097H165.985V128.256H164.242ZM169.478 128.348C168.754 128.348 168.179 128.15 167.755 127.753C167.331 127.35 167.119 126.81 167.119 126.133V124.738C167.119 124.061 167.331 123.524 167.755 123.128C168.179 122.725 168.754 122.523 169.478 122.523C170.203 122.523 170.777 122.725 171.201 123.128C171.625 123.524 171.837 124.058 171.837 124.728V126.133C171.837 126.81 171.625 127.35 171.201 127.753C170.777 128.15 170.203 128.348 169.478 128.348ZM169.478 127.23C169.82 127.23 170.083 127.138 170.268 126.953C170.459 126.762 170.555 126.488 170.555 126.133V124.738C170.555 124.383 170.459 124.112 170.268 123.928C170.083 123.736 169.82 123.641 169.478 123.641C169.136 123.641 168.87 123.736 168.678 123.928C168.494 124.112 168.401 124.383 168.401 124.738V126.133C168.401 126.488 168.494 126.762 168.678 126.953C168.87 127.138 169.136 127.23 169.478 127.23ZM174.11 130.102V129.035H175.782C176.356 129.035 176.643 128.765 176.643 128.225V127.805L176.664 126.748H176.643C176.588 127.117 176.431 127.408 176.171 127.62C175.911 127.825 175.576 127.928 175.166 127.928C174.592 127.928 174.134 127.733 173.792 127.343C173.457 126.953 173.289 126.427 173.289 125.764V124.666C173.289 124.01 173.457 123.487 173.792 123.097C174.134 122.707 174.592 122.513 175.166 122.513C175.576 122.513 175.911 122.619 176.171 122.83C176.431 123.036 176.588 123.323 176.643 123.692H176.664L176.633 122.615H177.915V128.256C177.915 128.83 177.727 129.281 177.351 129.61C176.975 129.938 176.458 130.102 175.802 130.102H174.11ZM175.597 126.82C175.925 126.82 176.178 126.724 176.356 126.533C176.541 126.335 176.633 126.061 176.633 125.712V124.728C176.633 124.379 176.541 124.109 176.356 123.918C176.178 123.719 175.925 123.62 175.597 123.62C175.269 123.62 175.016 123.716 174.838 123.907C174.66 124.099 174.571 124.372 174.571 124.728V125.712C174.571 126.068 174.66 126.341 174.838 126.533C175.016 126.724 175.269 126.82 175.597 126.82ZM187.301 128.358C186.72 128.358 186.262 128.208 185.927 127.907C185.592 127.599 185.424 127.182 185.424 126.656C185.424 126.102 185.616 125.675 185.999 125.374C186.382 125.066 186.915 124.912 187.599 124.912H188.952V124.441C188.952 124.167 188.863 123.955 188.686 123.805C188.508 123.654 188.258 123.579 187.937 123.579C187.643 123.579 187.4 123.641 187.209 123.764C187.024 123.887 186.922 124.051 186.901 124.256H185.681C185.708 123.73 185.93 123.309 186.347 122.995C186.771 122.673 187.315 122.513 187.978 122.513C188.675 122.513 189.226 122.683 189.629 123.025C190.033 123.367 190.234 123.836 190.234 124.43V128.256H188.993V127.302H188.973C188.898 127.63 188.713 127.89 188.419 128.081C188.125 128.266 187.752 128.358 187.301 128.358ZM187.722 127.405C188.084 127.405 188.378 127.316 188.604 127.138C188.836 126.953 188.952 126.711 188.952 126.41V125.733H187.629C187.342 125.733 187.117 125.808 186.952 125.959C186.788 126.102 186.706 126.3 186.706 126.553C186.706 126.82 186.795 127.029 186.973 127.179C187.158 127.329 187.407 127.405 187.722 127.405ZM191.953 128.256V122.615H193.204V123.692H193.235C193.29 123.323 193.454 123.036 193.727 122.83C194.001 122.619 194.35 122.513 194.774 122.513C195.355 122.513 195.82 122.704 196.168 123.087C196.517 123.463 196.691 123.979 196.691 124.636V125.097H195.348V124.728C195.348 124.379 195.256 124.109 195.071 123.918C194.893 123.719 194.633 123.62 194.292 123.62C193.587 123.62 193.235 124.013 193.235 124.8V128.256H191.953ZM200.236 128.358C199.757 128.358 199.34 128.266 198.985 128.081C198.629 127.897 198.352 127.64 198.154 127.312C197.963 126.977 197.867 126.588 197.867 126.143V124.728C197.867 124.283 197.963 123.897 198.154 123.569C198.352 123.234 198.629 122.974 198.985 122.789C199.34 122.605 199.757 122.513 200.236 122.513C200.708 122.513 201.118 122.605 201.467 122.789C201.822 122.974 202.096 123.234 202.287 123.569C202.485 123.897 202.585 124.283 202.585 124.728V125.743H199.108V126.143C199.108 126.943 199.487 127.343 200.246 127.343C200.834 127.343 201.179 127.148 201.282 126.758H202.543C202.448 127.244 202.188 127.634 201.764 127.928C201.347 128.215 200.838 128.358 200.236 128.358ZM199.108 124.728V124.943L201.344 124.933V124.718C201.344 124.328 201.251 124.03 201.067 123.825C200.882 123.613 200.605 123.507 200.236 123.507C199.86 123.507 199.576 123.613 199.385 123.825C199.2 124.037 199.108 124.338 199.108 124.728ZM19.5934 142.256V141.097H21.5215V137.774H19.7985V136.615H22.8035V141.097H24.5367V142.256H19.5934ZM22.0753 135.672C21.8155 135.672 21.6104 135.607 21.46 135.477C21.3095 135.34 21.2343 135.159 21.2343 134.933C21.2343 134.708 21.3095 134.53 21.46 134.4C21.6104 134.263 21.8155 134.195 22.0753 134.195C22.3351 134.195 22.5402 134.263 22.6907 134.4C22.8411 134.53 22.9163 134.708 22.9163 134.933C22.9163 135.159 22.8411 135.34 22.6907 135.477C22.5402 135.607 22.3351 135.672 22.0753 135.672ZM25.7531 142.256V136.615H27.0044V137.692H27.0249C27.0864 137.323 27.2471 137.036 27.5069 136.83C27.7667 136.619 28.1051 136.513 28.5222 136.513C29.076 136.513 29.517 136.697 29.8452 137.066C30.1802 137.436 30.3477 137.931 30.3477 138.553V142.256H29.0658V138.687C29.0658 138.345 28.9735 138.082 28.7889 137.897C28.6111 137.712 28.3684 137.62 28.0607 137.62C27.7394 137.62 27.4864 137.716 27.3018 137.907C27.124 138.099 27.0351 138.372 27.0351 138.728V142.256H25.7531ZM32.5487 139.466V138.277H35.8306V139.466H32.5487ZM39.8264 142.358C39.2794 142.358 38.835 142.164 38.4931 141.774C38.1512 141.384 37.9803 140.861 37.9803 140.205V138.677C37.9803 138.013 38.1478 137.487 38.4829 137.097C38.8247 136.707 39.2725 136.513 39.8264 136.513C40.2161 136.513 40.5443 136.612 40.8109 136.81C41.0776 137.001 41.2622 137.275 41.3647 137.63H41.3852L41.3442 136.348V134.769H42.6262V142.256H41.375V141.24H41.3647C41.2622 141.596 41.0776 141.873 40.8109 142.071C40.5511 142.263 40.2229 142.358 39.8264 142.358ZM40.3084 141.251C40.6366 141.251 40.8895 141.152 41.0673 140.953C41.2519 140.755 41.3442 140.475 41.3442 140.112V138.759C41.3442 138.396 41.2519 138.116 41.0673 137.918C40.8895 137.719 40.6366 137.62 40.3084 137.62C39.9802 137.62 39.7238 137.716 39.5392 137.907C39.3546 138.099 39.2623 138.372 39.2623 138.728V140.143C39.2623 140.499 39.3546 140.772 39.5392 140.964C39.7238 141.155 39.9802 141.251 40.3084 141.251ZM46.4989 142.358C46.0203 142.358 45.6032 142.266 45.2477 142.081C44.8921 141.897 44.6152 141.64 44.417 141.312C44.2255 140.977 44.1298 140.588 44.1298 140.143V138.728C44.1298 138.283 44.2255 137.897 44.417 137.569C44.6152 137.234 44.8921 136.974 45.2477 136.789C45.6032 136.605 46.0203 136.513 46.4989 136.513C46.9707 136.513 47.3809 136.605 47.7296 136.789C48.0851 136.974 48.3586 137.234 48.5501 137.569C48.7483 137.897 48.8475 138.283 48.8475 138.728V139.743H45.3708V140.143C45.3708 140.943 45.7502 141.343 46.5091 141.343C47.0971 141.343 47.4424 141.148 47.545 140.758H48.8065C48.7107 141.244 48.4509 141.634 48.027 141.928C47.6099 142.215 47.1006 142.358 46.4989 142.358ZM45.3708 138.728V138.943L47.6065 138.933V138.718C47.6065 138.328 47.5142 138.03 47.3296 137.825C47.145 137.613 46.8681 137.507 46.4989 137.507C46.1228 137.507 45.8391 137.613 45.6477 137.825C45.4631 138.037 45.3708 138.338 45.3708 138.728ZM50.3511 144.102V136.615H51.6023V137.63H51.6228C51.7254 137.275 51.9065 137.001 52.1664 136.81C52.433 136.612 52.7612 136.513 53.1509 136.513C53.7047 136.513 54.1491 136.707 54.4842 137.097C54.826 137.487 54.997 138.01 54.997 138.666V140.194C54.997 140.858 54.826 141.384 54.4842 141.774C54.1491 142.164 53.7047 142.358 53.1509 142.358C52.768 142.358 52.4433 142.263 52.1766 142.071C51.91 141.873 51.7254 141.596 51.6228 141.24H51.6023L51.633 142.522V144.102H50.3511ZM52.6791 141.251C53.0073 141.251 53.2603 141.155 53.4381 140.964C53.6227 140.772 53.715 140.499 53.715 140.143V138.728C53.715 138.372 53.6227 138.099 53.4381 137.907C53.2603 137.716 53.0073 137.62 52.6791 137.62C52.351 137.62 52.0946 137.719 51.91 137.918C51.7254 138.116 51.633 138.396 51.633 138.759V140.112C51.633 140.475 51.7254 140.755 51.91 140.953C52.0946 141.152 52.351 141.251 52.6791 141.251ZM59.4029 142.256C58.8765 142.256 58.456 142.105 58.1415 141.805C57.8338 141.497 57.68 141.083 57.68 140.564V137.774H56.1519V136.615H57.68V135.025H58.9722V136.615H61.1362V137.774H58.9722V140.533C58.9722 140.697 59.0166 140.834 59.1055 140.943C59.2012 141.046 59.3312 141.097 59.4952 141.097H61.0336V142.256H59.4029ZM62.65 142.256V134.769H63.932V136.615L63.9012 137.692H63.9218C63.9833 137.323 64.144 137.036 64.4038 136.83C64.6636 136.619 65.002 136.513 65.4191 136.513C65.9729 136.513 66.4139 136.697 66.7421 137.066C67.0771 137.436 67.2446 137.931 67.2446 138.553V142.256H65.9627V138.687C65.9627 138.345 65.8704 138.082 65.6858 137.897C65.508 137.712 65.2653 137.62 64.9576 137.62C64.6362 137.62 64.3833 137.716 64.1987 137.907C64.0209 138.099 63.932 138.372 63.932 138.728V142.256H62.65ZM69.5482 143.897L70.3687 140.707H72.0096L70.6763 143.897H69.5482ZM83.8676 142.358C83.4573 142.358 83.1189 142.259 82.8522 142.061C82.5856 141.863 82.4181 141.582 82.3497 141.22V142.256H81.0985V134.769H82.3805V136.348L82.3394 137.692C82.401 137.323 82.5651 137.036 82.8317 136.83C83.1052 136.619 83.4505 136.513 83.8676 136.513C84.435 136.513 84.8897 136.707 85.2316 137.097C85.5734 137.487 85.7444 138.013 85.7444 138.677V140.205C85.7444 140.868 85.5734 141.394 85.2316 141.784C84.8897 142.167 84.435 142.358 83.8676 142.358ZM83.4163 141.251C83.7445 141.251 84.0009 141.155 84.1855 140.964C84.3701 140.772 84.4624 140.499 84.4624 140.143V138.728C84.4624 138.372 84.3701 138.099 84.1855 137.907C84.0009 137.716 83.7445 137.62 83.4163 137.62C83.0881 137.62 82.8317 137.719 82.6471 137.918C82.4693 138.109 82.3805 138.379 82.3805 138.728V140.143C82.3805 140.492 82.4693 140.765 82.6471 140.964C82.8317 141.155 83.0881 141.251 83.4163 141.251ZM89.5453 142.358C89.0667 142.358 88.6496 142.266 88.2941 142.081C87.9385 141.897 87.6616 141.64 87.4633 141.312C87.2719 140.977 87.1762 140.588 87.1762 140.143V138.728C87.1762 138.283 87.2719 137.897 87.4633 137.569C87.6616 137.234 87.9385 136.974 88.2941 136.789C88.6496 136.605 89.0667 136.513 89.5453 136.513C90.017 136.513 90.4273 136.605 90.776 136.789C91.1315 136.974 91.405 137.234 91.5964 137.569C91.7947 137.897 91.8938 138.283 91.8938 138.728V139.743H88.4171V140.143C88.4171 140.943 88.7966 141.343 89.5555 141.343C90.1435 141.343 90.4888 141.148 90.5914 140.758H91.8528C91.7571 141.244 91.4973 141.634 91.0734 141.928C90.6563 142.215 90.1469 142.358 89.5453 142.358ZM88.4171 138.728V138.943L90.6529 138.933V138.718C90.6529 138.328 90.5606 138.03 90.376 137.825C90.1914 137.613 89.9145 137.507 89.5453 137.507C89.1692 137.507 88.8855 137.613 88.694 137.825C88.5094 138.037 88.4171 138.338 88.4171 138.728ZM94.1666 144.102V143.035H95.8383C96.4126 143.035 96.6998 142.765 96.6998 142.225V141.805L96.7203 140.748H96.6998C96.6451 141.117 96.4879 141.408 96.228 141.62C95.9682 141.825 95.6332 141.928 95.223 141.928C94.6486 141.928 94.1906 141.733 93.8487 141.343C93.5137 140.953 93.3462 140.427 93.3462 139.764V138.666C93.3462 138.01 93.5137 137.487 93.8487 137.097C94.1906 136.707 94.6486 136.513 95.223 136.513C95.6332 136.513 95.9682 136.619 96.228 136.83C96.4879 137.036 96.6451 137.323 96.6998 137.692H96.7203L96.6896 136.615H97.9715V142.256C97.9715 142.83 97.7835 143.281 97.4075 143.61C97.0314 143.938 96.5152 144.102 95.8588 144.102H94.1666ZM95.6537 140.82C95.9819 140.82 96.2349 140.724 96.4126 140.533C96.5973 140.335 96.6896 140.061 96.6896 139.712V138.728C96.6896 138.379 96.5973 138.109 96.4126 137.918C96.2349 137.719 95.9819 137.62 95.6537 137.62C95.3255 137.62 95.0726 137.716 94.8948 137.907C94.717 138.099 94.6281 138.372 94.6281 138.728V139.712C94.6281 140.068 94.717 140.341 94.8948 140.533C95.0726 140.724 95.3255 140.82 95.6537 140.82ZM99.5367 142.256V141.097H101.465V137.774H99.7418V136.615H102.747V141.097H104.48V142.256H99.5367ZM102.019 135.672C101.759 135.672 101.554 135.607 101.403 135.477C101.253 135.34 101.178 135.159 101.178 134.933C101.178 134.708 101.253 134.53 101.403 134.4C101.554 134.263 101.759 134.195 102.019 134.195C102.278 134.195 102.484 134.263 102.634 134.4C102.784 134.53 102.86 134.708 102.86 134.933C102.86 135.159 102.784 135.34 102.634 135.477C102.484 135.607 102.278 135.672 102.019 135.672ZM105.696 142.256V136.615H106.948V137.692H106.968C107.03 137.323 107.19 137.036 107.45 136.83C107.71 136.619 108.048 136.513 108.465 136.513C109.019 136.513 109.46 136.697 109.788 137.066C110.123 137.436 110.291 137.931 110.291 138.553V142.256H109.009V138.687C109.009 138.345 108.917 138.082 108.732 137.897C108.554 137.712 108.312 137.62 108.004 137.62C107.683 137.62 107.43 137.716 107.245 137.907C107.067 138.099 106.978 138.372 106.978 138.728V142.256H105.696ZM111.846 142.256V136.615H113.097V137.692H113.118C113.179 137.323 113.34 137.036 113.6 136.83C113.859 136.619 114.198 136.513 114.615 136.513C115.169 136.513 115.61 136.697 115.938 137.066C116.273 137.436 116.44 137.931 116.44 138.553V142.256H115.159V138.687C115.159 138.345 115.066 138.082 114.882 137.897C114.704 137.712 114.461 137.62 114.153 137.62C113.832 137.62 113.579 137.716 113.395 137.907C113.217 138.099 113.128 138.372 113.128 138.728V142.256H111.846ZM120.293 142.358C119.814 142.358 119.397 142.266 119.041 142.081C118.686 141.897 118.409 141.64 118.211 141.312C118.019 140.977 117.924 140.588 117.924 140.143V138.728C117.924 138.283 118.019 137.897 118.211 137.569C118.409 137.234 118.686 136.974 119.041 136.789C119.397 136.605 119.814 136.513 120.293 136.513C120.764 136.513 121.175 136.605 121.523 136.789C121.879 136.974 122.152 137.234 122.344 137.569C122.542 137.897 122.641 138.283 122.641 138.728V139.743H119.165V140.143C119.165 140.943 119.544 141.343 120.303 141.343C120.891 141.343 121.236 141.148 121.339 140.758H122.6C122.505 141.244 122.245 141.634 121.821 141.928C121.404 142.215 120.894 142.358 120.293 142.358ZM119.165 138.728V138.943L121.4 138.933V138.718C121.4 138.328 121.308 138.03 121.123 137.825C120.939 137.613 120.662 137.507 120.293 137.507C119.917 137.507 119.633 137.613 119.441 137.825C119.257 138.037 119.165 138.338 119.165 138.728ZM124.309 142.256V136.615H125.56V137.692H125.591C125.646 137.323 125.81 137.036 126.083 136.83C126.357 136.619 126.705 136.513 127.129 136.513C127.71 136.513 128.175 136.704 128.524 137.087C128.873 137.463 129.047 137.979 129.047 138.636V139.097H127.704V138.728C127.704 138.379 127.611 138.109 127.427 137.918C127.249 137.719 126.989 137.62 126.647 137.62C125.943 137.62 125.591 138.013 125.591 138.8V142.256H124.309ZM130.94 139.466V138.277H134.222V139.466H130.94ZM137.757 142.256V138.4H136.208V137.241H137.757V136.389C137.757 135.897 137.921 135.504 138.249 135.21C138.577 134.916 139.011 134.769 139.551 134.769H141.203V135.897H139.582C139.418 135.897 139.285 135.945 139.182 136.041C139.086 136.13 139.039 136.253 139.039 136.41V137.241H141.203V138.4H139.039V142.256H137.757ZM142.757 142.256V136.615H144.009V137.692H144.039C144.094 137.323 144.258 137.036 144.532 136.83C144.805 136.619 145.154 136.513 145.578 136.513C146.159 136.513 146.624 136.704 146.973 137.087C147.321 137.463 147.496 137.979 147.496 138.636V139.097H146.152V138.728C146.152 138.379 146.06 138.109 145.875 137.918C145.697 137.719 145.438 137.62 145.096 137.62C144.391 137.62 144.039 138.013 144.039 138.8V142.256H142.757ZM148.733 142.256V141.097H150.661V137.774H148.938V136.615H151.943V141.097H153.676V142.256H148.733ZM151.214 135.672C150.955 135.672 150.749 135.607 150.599 135.477C150.449 135.34 150.373 135.159 150.373 134.933C150.373 134.708 150.449 134.53 150.599 134.4C150.749 134.263 150.955 134.195 151.214 134.195C151.474 134.195 151.679 134.263 151.83 134.4C151.98 134.53 152.055 134.708 152.055 134.933C152.055 135.159 151.98 135.34 151.83 135.477C151.679 135.607 151.474 135.672 151.214 135.672ZM157.19 142.358C156.711 142.358 156.294 142.266 155.938 142.081C155.583 141.897 155.306 141.64 155.108 141.312C154.916 140.977 154.82 140.588 154.82 140.143V138.728C154.82 138.283 154.916 137.897 155.108 137.569C155.306 137.234 155.583 136.974 155.938 136.789C156.294 136.605 156.711 136.513 157.19 136.513C157.661 136.513 158.072 136.605 158.42 136.789C158.776 136.974 159.049 137.234 159.241 137.569C159.439 137.897 159.538 138.283 159.538 138.728V139.743H156.061V140.143C156.061 140.943 156.441 141.343 157.2 141.343C157.788 141.343 158.133 141.148 158.236 140.758H159.497C159.401 141.244 159.142 141.634 158.718 141.928C158.301 142.215 157.791 142.358 157.19 142.358ZM156.061 138.728V138.943L158.297 138.933V138.718C158.297 138.328 158.205 138.03 158.02 137.825C157.836 137.613 157.559 137.507 157.19 137.507C156.814 137.507 156.53 137.613 156.338 137.825C156.154 138.037 156.061 138.338 156.061 138.728ZM161.042 142.256V136.615H162.293V137.692H162.313C162.375 137.323 162.536 137.036 162.795 136.83C163.055 136.619 163.394 136.513 163.811 136.513C164.365 136.513 164.806 136.697 165.134 137.066C165.469 137.436 165.636 137.931 165.636 138.553V142.256H164.354V138.687C164.354 138.345 164.262 138.082 164.077 137.897C163.9 137.712 163.657 137.62 163.349 137.62C163.028 137.62 162.775 137.716 162.59 137.907C162.413 138.099 162.324 138.372 162.324 138.728V142.256H161.042ZM168.965 142.358C168.418 142.358 167.974 142.164 167.632 141.774C167.29 141.384 167.119 140.861 167.119 140.205V138.677C167.119 138.013 167.287 137.487 167.622 137.097C167.964 136.707 168.412 136.513 168.965 136.513C169.355 136.513 169.683 136.612 169.95 136.81C170.217 137.001 170.401 137.275 170.504 137.63H170.524L170.483 136.348V134.769H171.765V142.256H170.514V141.24H170.504C170.401 141.596 170.217 141.873 169.95 142.071C169.69 142.263 169.362 142.358 168.965 142.358ZM169.447 141.251C169.776 141.251 170.029 141.152 170.206 140.953C170.391 140.755 170.483 140.475 170.483 140.112V138.759C170.483 138.396 170.391 138.116 170.206 137.918C170.029 137.719 169.776 137.62 169.447 137.62C169.119 137.62 168.863 137.716 168.678 137.907C168.494 138.099 168.401 138.372 168.401 138.728V140.143C168.401 140.499 168.494 140.772 168.678 140.964C168.863 141.155 169.119 141.251 169.447 141.251ZM176.541 142.256C175.98 142.256 175.529 142.088 175.187 141.753C174.852 141.418 174.684 140.977 174.684 140.43V135.928H172.828V134.769H175.966V140.4C175.966 140.611 176.024 140.782 176.141 140.912C176.264 141.035 176.428 141.097 176.633 141.097H178.284V142.256H176.541ZM180.403 144.102L181.203 141.948L179.029 136.615H180.423L181.531 139.497C181.593 139.654 181.651 139.846 181.705 140.071C181.76 140.29 181.801 140.471 181.829 140.615C181.863 140.471 181.907 140.29 181.962 140.071C182.023 139.846 182.081 139.654 182.136 139.497L183.193 136.615H184.526L181.746 144.102H180.403ZM19.8806 156.256L19.0191 150.615H20.0447L20.5164 154.071C20.5438 154.27 20.5643 154.488 20.578 154.728C20.5985 154.967 20.6156 155.165 20.6292 155.323H20.6805C20.6942 155.165 20.7147 154.97 20.7421 154.738C20.7694 154.499 20.7968 154.276 20.8241 154.071L21.3677 150.615H22.4343L22.9573 154.071C22.9847 154.27 23.012 154.492 23.0394 154.738C23.0667 154.977 23.0872 155.176 23.1009 155.333H23.1522C23.1658 155.169 23.1829 154.97 23.2035 154.738C23.224 154.499 23.2479 154.276 23.2752 154.071L23.7675 150.615H24.7623L23.8803 156.256H22.5573L22.0651 152.779C22.0377 152.588 22.0069 152.376 21.9728 152.143C21.9454 151.904 21.9249 151.709 21.9112 151.559H21.8702C21.8497 151.709 21.8258 151.904 21.7984 152.143C21.7711 152.376 21.7437 152.588 21.7164 152.779L21.2036 156.256H19.8806ZM25.9172 156.256V150.615H27.1684V151.692H27.1992C27.2539 151.323 27.418 151.036 27.6915 150.83C27.965 150.619 28.3137 150.513 28.7376 150.513C29.3187 150.513 29.7837 150.704 30.1324 151.087C30.4811 151.463 30.6554 151.979 30.6554 152.636V153.097H29.3119V152.728C29.3119 152.379 29.2196 152.109 29.035 151.918C28.8572 151.719 28.5974 151.62 28.2556 151.62C27.5513 151.62 27.1992 152.013 27.1992 152.8V156.256H25.9172ZM31.8924 156.256V155.097H33.8205V151.774H32.0975V150.615H35.1024V155.097H36.8357V156.256H31.8924ZM34.3743 149.672C34.1145 149.672 33.9093 149.607 33.7589 149.477C33.6085 149.34 33.5333 149.159 33.5333 148.933C33.5333 148.708 33.6085 148.53 33.7589 148.4C33.9093 148.263 34.1145 148.195 34.3743 148.195C34.6341 148.195 34.8392 148.263 34.9896 148.4C35.14 148.53 35.2153 148.708 35.2153 148.933C35.2153 149.159 35.14 149.34 34.9896 149.477C34.8392 149.607 34.6341 149.672 34.3743 149.672ZM40.9545 156.256C40.428 156.256 40.0075 156.105 39.693 155.805C39.3854 155.497 39.2315 155.083 39.2315 154.564V151.774H37.7034V150.615H39.2315V149.025H40.5238V150.615H42.6877V151.774H40.5238V154.533C40.5238 154.697 40.5682 154.834 40.6571 154.943C40.7528 155.046 40.8827 155.097 41.0468 155.097H42.5852V156.256H40.9545ZM46.4989 156.358C46.0203 156.358 45.6032 156.266 45.2477 156.081C44.8921 155.897 44.6152 155.64 44.417 155.312C44.2255 154.977 44.1298 154.588 44.1298 154.143V152.728C44.1298 152.283 44.2255 151.897 44.417 151.569C44.6152 151.234 44.8921 150.974 45.2477 150.789C45.6032 150.605 46.0203 150.513 46.4989 150.513C46.9707 150.513 47.3809 150.605 47.7296 150.789C48.0851 150.974 48.3586 151.234 48.5501 151.569C48.7483 151.897 48.8475 152.283 48.8475 152.728V153.743H45.3708V154.143C45.3708 154.943 45.7502 155.343 46.5091 155.343C47.0971 155.343 47.4424 155.148 47.545 154.758H48.8065C48.7107 155.244 48.4509 155.634 48.027 155.928C47.6099 156.215 47.1006 156.358 46.4989 156.358ZM45.3708 152.728V152.943L47.6065 152.933V152.718C47.6065 152.328 47.5142 152.03 47.3296 151.825C47.145 151.613 46.8681 151.507 46.4989 151.507C46.1228 151.507 45.8391 151.613 45.6477 151.825C45.4631 152.037 45.3708 152.338 45.3708 152.728ZM52.6381 156.358C51.9202 156.358 51.3561 156.16 50.9459 155.764C50.5357 155.36 50.3306 154.813 50.3306 154.123V150.615H51.6125V154.112C51.6125 154.475 51.7014 154.755 51.8792 154.953C52.057 155.145 52.3099 155.24 52.6381 155.24C52.9595 155.24 53.209 155.145 53.3868 154.953C53.5714 154.755 53.6637 154.475 53.6637 154.112V150.615H54.9457V154.123C54.9457 154.813 54.7371 155.36 54.3201 155.764C53.903 156.16 53.3424 156.358 52.6381 156.358ZM56.5006 158.102V150.615H57.7518V151.63H57.7723C57.8748 151.275 58.056 151.001 58.3158 150.81C58.5825 150.612 58.9107 150.513 59.3004 150.513C59.8542 150.513 60.2986 150.707 60.6336 151.097C60.9755 151.487 61.1464 152.01 61.1464 152.666V154.194C61.1464 154.858 60.9755 155.384 60.6336 155.774C60.2986 156.164 59.8542 156.358 59.3004 156.358C58.9175 156.358 58.5927 156.263 58.3261 156.071C58.0594 155.873 57.8748 155.596 57.7723 155.24H57.7518L57.7825 156.522V158.102H56.5006ZM58.8286 155.251C59.1568 155.251 59.4098 155.155 59.5876 154.964C59.7722 154.772 59.8645 154.499 59.8645 154.143V152.728C59.8645 152.372 59.7722 152.099 59.5876 151.907C59.4098 151.716 59.1568 151.62 58.8286 151.62C58.5004 151.62 58.244 151.719 58.0594 151.918C57.8748 152.116 57.7825 152.396 57.7825 152.759V154.112C57.7825 154.475 57.8748 154.755 58.0594 154.953C58.244 155.152 58.5004 155.251 58.8286 155.251ZM64.7217 156.348C64.291 156.348 63.9115 156.283 63.5833 156.153C63.2551 156.017 62.9987 155.825 62.8141 155.579C62.6364 155.333 62.5475 155.042 62.5475 154.707H63.8397C63.8397 154.905 63.9183 155.059 64.0756 155.169C64.2397 155.271 64.4585 155.323 64.732 155.323H65.173C65.4943 155.323 65.7336 155.264 65.8909 155.148C66.0481 155.032 66.1268 154.871 66.1268 154.666C66.1268 154.276 65.8362 154.037 65.255 153.948L64.4653 153.846C63.2825 153.675 62.6911 153.111 62.6911 152.153C62.6911 151.62 62.8688 151.217 63.2244 150.943C63.5867 150.663 64.1098 150.523 64.7935 150.523H65.1832C65.8191 150.523 66.3285 150.666 66.7113 150.954C67.1011 151.234 67.2959 151.607 67.2959 152.071H66.0037C66.0037 151.907 65.9319 151.781 65.7883 151.692C65.6447 151.596 65.4396 151.548 65.173 151.548H64.7832C64.2226 151.548 63.9423 151.75 63.9423 152.153C63.9423 152.502 64.1918 152.714 64.6909 152.789L65.4909 152.912C66.1268 153.001 66.5985 153.186 66.9062 153.466C67.2207 153.747 67.378 154.136 67.378 154.635C67.378 155.176 67.1899 155.596 66.8139 155.897C66.4447 156.198 65.8977 156.348 65.173 156.348H64.7217ZM76.2617 156.256V152.4H74.7131V151.241H76.2617V150.389C76.2617 149.897 76.4258 149.504 76.754 149.21C77.0822 148.916 77.5164 148.769 78.0565 148.769H79.7077V149.897H78.0873C77.9232 149.897 77.7899 149.945 77.6873 150.041C77.5916 150.13 77.5437 150.253 77.5437 150.41V151.241H79.7077V152.4H77.5437V156.256H76.2617ZM83.3855 156.348C82.6608 156.348 82.0865 156.15 81.6626 155.753C81.2386 155.35 81.0267 154.81 81.0267 154.133V152.738C81.0267 152.061 81.2386 151.524 81.6626 151.128C82.0865 150.725 82.6608 150.523 83.3855 150.523C84.1103 150.523 84.6846 150.725 85.1085 151.128C85.5324 151.524 85.7444 152.058 85.7444 152.728V154.133C85.7444 154.81 85.5324 155.35 85.1085 155.753C84.6846 156.15 84.1103 156.348 83.3855 156.348ZM83.3855 155.23C83.7274 155.23 83.9906 155.138 84.1752 154.953C84.3667 154.762 84.4624 154.488 84.4624 154.133V152.738C84.4624 152.383 84.3667 152.112 84.1752 151.928C83.9906 151.736 83.7274 151.641 83.3855 151.641C83.0437 151.641 82.777 151.736 82.5856 151.928C82.401 152.112 82.3087 152.383 82.3087 152.738V154.133C82.3087 154.488 82.401 154.762 82.5856 154.953C82.777 155.138 83.0437 155.23 83.3855 155.23ZM87.4121 156.256V150.615H88.6633V151.692H88.694C88.7487 151.323 88.9128 151.036 89.1863 150.83C89.4598 150.619 89.8085 150.513 90.2324 150.513C90.8136 150.513 91.2785 150.704 91.6272 151.087C91.9759 151.463 92.1502 151.979 92.1502 152.636V153.097H90.8067V152.728C90.8067 152.379 90.7144 152.109 90.5298 151.918C90.3521 151.719 90.0922 151.62 89.7504 151.62C89.0462 151.62 88.694 152.013 88.694 152.8V156.256H87.4121ZM101.875 156.358C101.39 156.358 100.969 156.269 100.614 156.092C100.258 155.907 99.9811 155.651 99.7828 155.323C99.5914 154.988 99.4956 154.594 99.4956 154.143V150.882C99.4956 150.431 99.5914 150.041 99.7828 149.713C99.9811 149.378 100.258 149.121 100.614 148.943C100.969 148.759 101.39 148.667 101.875 148.667C102.354 148.667 102.771 148.759 103.126 148.943C103.482 149.121 103.759 149.378 103.957 149.713C104.155 150.041 104.254 150.431 104.254 150.882H102.962C102.962 150.533 102.866 150.266 102.675 150.082C102.49 149.89 102.224 149.795 101.875 149.795C101.526 149.795 101.256 149.887 101.065 150.072C100.873 150.256 100.778 150.523 100.778 150.872V154.143C100.778 154.492 100.873 154.762 101.065 154.953C101.256 155.138 101.526 155.23 101.875 155.23C102.224 155.23 102.49 155.138 102.675 154.953C102.866 154.762 102.962 154.492 102.962 154.143H104.254C104.254 154.594 104.155 154.988 103.957 155.323C103.759 155.651 103.482 155.907 103.126 156.092C102.771 156.269 102.354 156.358 101.875 156.358ZM107.337 156.256V149.928H105.378V148.769H110.588V149.928H108.63V156.256H107.337ZM111.877 156.256V148.769H116.533V149.959H113.138V151.959H116.266V153.148H113.159V156.256H111.877ZM126.463 156.358C125.984 156.358 125.564 156.269 125.201 156.092C124.846 155.907 124.569 155.651 124.37 155.323C124.172 154.988 124.073 154.594 124.073 154.143V152.728C124.073 152.277 124.172 151.887 124.37 151.559C124.569 151.224 124.846 150.967 125.201 150.789C125.564 150.605 125.984 150.513 126.463 150.513C127.174 150.513 127.741 150.697 128.165 151.066C128.589 151.429 128.811 151.924 128.832 152.553H127.581C127.56 152.259 127.447 152.034 127.242 151.877C127.044 151.712 126.784 151.63 126.463 151.63C126.121 151.63 125.851 151.726 125.652 151.918C125.454 152.102 125.355 152.369 125.355 152.718V154.143C125.355 154.492 125.454 154.762 125.652 154.953C125.851 155.145 126.121 155.24 126.463 155.24C126.791 155.24 127.054 155.162 127.252 155.005C127.451 154.841 127.56 154.611 127.581 154.317H128.832C128.811 154.946 128.589 155.446 128.165 155.815C127.741 156.177 127.174 156.358 126.463 156.358ZM130.294 156.256V148.769H131.576V150.615L131.546 151.692H131.566C131.628 151.323 131.788 151.036 132.048 150.83C132.308 150.619 132.646 150.513 133.063 150.513C133.617 150.513 134.058 150.697 134.386 151.066C134.721 151.436 134.889 151.931 134.889 152.553V156.256H133.607V152.687C133.607 152.345 133.515 152.082 133.33 151.897C133.152 151.712 132.91 151.62 132.602 151.62C132.281 151.62 132.028 151.716 131.843 151.907C131.665 152.099 131.576 152.372 131.576 152.728V156.256H130.294ZM138.105 156.358C137.524 156.358 137.066 156.208 136.731 155.907C136.396 155.599 136.228 155.182 136.228 154.656C136.228 154.102 136.42 153.675 136.803 153.374C137.186 153.066 137.719 152.912 138.403 152.912H139.756V152.441C139.756 152.167 139.668 151.955 139.49 151.805C139.312 151.654 139.062 151.579 138.741 151.579C138.447 151.579 138.204 151.641 138.013 151.764C137.828 151.887 137.726 152.051 137.705 152.256H136.485C136.512 151.73 136.734 151.309 137.151 150.995C137.575 150.673 138.119 150.513 138.782 150.513C139.48 150.513 140.03 150.683 140.433 151.025C140.837 151.367 141.038 151.836 141.038 152.43V156.256H139.797V155.302H139.777C139.702 155.63 139.517 155.89 139.223 156.081C138.929 156.266 138.557 156.358 138.105 156.358ZM138.526 155.405C138.888 155.405 139.182 155.316 139.408 155.138C139.64 154.953 139.756 154.711 139.756 154.41V153.733H138.433C138.146 153.733 137.921 153.808 137.757 153.959C137.592 154.102 137.51 154.3 137.51 154.553C137.51 154.82 137.599 155.029 137.777 155.179C137.962 155.329 138.211 155.405 138.526 155.405ZM145.793 156.256C145.232 156.256 144.781 156.088 144.439 155.753C144.104 155.418 143.937 154.977 143.937 154.43V149.928H142.081V148.769H145.219V154.4C145.219 154.611 145.277 154.782 145.393 154.912C145.516 155.035 145.68 155.097 145.885 155.097H147.537V156.256H145.793ZM151.943 156.256C151.382 156.256 150.931 156.088 150.589 155.753C150.254 155.418 150.086 154.977 150.086 154.43V149.928H148.23V148.769H151.368V154.4C151.368 154.611 151.426 154.782 151.543 154.912C151.666 155.035 151.83 155.097 152.035 155.097H153.686V156.256H151.943ZM157.19 156.358C156.711 156.358 156.294 156.266 155.938 156.081C155.583 155.897 155.306 155.64 155.108 155.312C154.916 154.977 154.82 154.588 154.82 154.143V152.728C154.82 152.283 154.916 151.897 155.108 151.569C155.306 151.234 155.583 150.974 155.938 150.789C156.294 150.605 156.711 150.513 157.19 150.513C157.661 150.513 158.072 150.605 158.42 150.789C158.776 150.974 159.049 151.234 159.241 151.569C159.439 151.897 159.538 152.283 159.538 152.728V153.743H156.061V154.143C156.061 154.943 156.441 155.343 157.2 155.343C157.788 155.343 158.133 155.148 158.236 154.758H159.497C159.401 155.244 159.142 155.634 158.718 155.928C158.301 156.215 157.791 156.358 157.19 156.358ZM156.061 152.728V152.943L158.297 152.933V152.718C158.297 152.328 158.205 152.03 158.02 151.825C157.836 151.613 157.559 151.507 157.19 151.507C156.814 151.507 156.53 151.613 156.338 151.825C156.154 152.037 156.061 152.338 156.061 152.728ZM161.042 156.256V150.615H162.293V151.692H162.313C162.375 151.323 162.536 151.036 162.795 150.83C163.055 150.619 163.394 150.513 163.811 150.513C164.365 150.513 164.806 150.697 165.134 151.066C165.469 151.436 165.636 151.931 165.636 152.553V156.256H164.354V152.687C164.354 152.345 164.262 152.082 164.077 151.897C163.9 151.712 163.657 151.62 163.349 151.62C163.028 151.62 162.775 151.716 162.59 151.907C162.413 152.099 162.324 152.372 162.324 152.728V156.256H161.042ZM167.96 158.102V157.035H169.632C170.206 157.035 170.494 156.765 170.494 156.225V155.805L170.514 154.748H170.494C170.439 155.117 170.282 155.408 170.022 155.62C169.762 155.825 169.427 155.928 169.017 155.928C168.442 155.928 167.984 155.733 167.642 155.343C167.307 154.953 167.14 154.427 167.14 153.764V152.666C167.14 152.01 167.307 151.487 167.642 151.097C167.984 150.707 168.442 150.513 169.017 150.513C169.427 150.513 169.762 150.619 170.022 150.83C170.282 151.036 170.439 151.323 170.494 151.692H170.514L170.483 150.615H171.765V156.256C171.765 156.83 171.577 157.281 171.201 157.61C170.825 157.938 170.309 158.102 169.653 158.102H167.96ZM169.447 154.82C169.776 154.82 170.029 154.724 170.206 154.533C170.391 154.335 170.483 154.061 170.483 153.712V152.728C170.483 152.379 170.391 152.109 170.206 151.918C170.029 151.719 169.776 151.62 169.447 151.62C169.119 151.62 168.866 151.716 168.689 151.907C168.511 152.099 168.422 152.372 168.422 152.728V153.712C168.422 154.068 168.511 154.341 168.689 154.533C168.866 154.724 169.119 154.82 169.447 154.82ZM175.638 156.358C175.159 156.358 174.742 156.266 174.387 156.081C174.031 155.897 173.754 155.64 173.556 155.312C173.365 154.977 173.269 154.588 173.269 154.143V152.728C173.269 152.283 173.365 151.897 173.556 151.569C173.754 151.234 174.031 150.974 174.387 150.789C174.742 150.605 175.159 150.513 175.638 150.513C176.11 150.513 176.52 150.605 176.869 150.789C177.224 150.974 177.498 151.234 177.689 151.569C177.887 151.897 177.987 152.283 177.987 152.728V153.743H174.51V154.143C174.51 154.943 174.889 155.343 175.648 155.343C176.236 155.343 176.582 155.148 176.684 154.758H177.946C177.85 155.244 177.59 155.634 177.166 155.928C176.749 156.215 176.24 156.358 175.638 156.358ZM174.51 152.728V152.943L176.746 152.933V152.718C176.746 152.328 176.653 152.03 176.469 151.825C176.284 151.613 176.007 151.507 175.638 151.507C175.262 151.507 174.978 151.613 174.787 151.825C174.602 152.037 174.51 152.338 174.51 152.728ZM181.562 156.348C181.131 156.348 180.752 156.283 180.423 156.153C180.095 156.017 179.839 155.825 179.654 155.579C179.477 155.333 179.388 155.042 179.388 154.707H180.68C180.68 154.905 180.758 155.059 180.916 155.169C181.08 155.271 181.299 155.323 181.572 155.323H182.013C182.334 155.323 182.574 155.264 182.731 155.148C182.888 155.032 182.967 154.871 182.967 154.666C182.967 154.276 182.676 154.037 182.095 153.948L181.305 153.846C180.123 153.675 179.531 153.111 179.531 152.153C179.531 151.62 179.709 151.217 180.065 150.943C180.427 150.663 180.95 150.523 181.634 150.523H182.023C182.659 150.523 183.169 150.666 183.551 150.954C183.941 151.234 184.136 151.607 184.136 152.071H182.844C182.844 151.907 182.772 151.781 182.628 151.692C182.485 151.596 182.28 151.548 182.013 151.548H181.623C181.063 151.548 180.782 151.75 180.782 152.153C180.782 152.502 181.032 152.714 181.531 152.789L182.331 152.912C182.967 153.001 183.439 153.186 183.746 153.466C184.061 153.747 184.218 154.136 184.218 154.635C184.218 155.176 184.03 155.596 183.654 155.897C183.285 156.198 182.738 156.348 182.013 156.348H181.562ZM187.455 153.866L187.229 150.184V148.769H188.624V150.184L188.398 153.866H187.455ZM187.773 156.307C187.561 156.307 187.39 156.246 187.26 156.122C187.13 155.993 187.065 155.828 187.065 155.63C187.065 155.432 187.13 155.271 187.26 155.148C187.39 155.018 187.561 154.953 187.773 154.953H188.081C188.299 154.953 188.47 155.018 188.593 155.148C188.723 155.271 188.788 155.432 188.788 155.63C188.788 155.828 188.72 155.993 188.583 156.122C188.453 156.246 188.282 156.307 188.07 156.307H187.773Z" fill="white"/>
<path d="M184.571 231.083C187 224.362 194.399 220.863 201.136 223.248L255.164 242.381C261.932 244.777 265.476 252.207 263.079 258.975L245.987 307.24C243.583 314.029 236.116 317.57 229.338 315.134L175.083 295.642C168.317 293.211 164.808 285.75 167.253 278.988L184.571 231.083Z" fill="#E9D3B6"/>
<ellipse cx="234.964" cy="215.413" rx="34.0765" ry="33.7812" transform="rotate(19.5 234.964 215.413)" fill="#F4E9DB"/>
<ellipse cx="218.955" cy="192.99" rx="2.17747" ry="2.17747" transform="rotate(34.5 218.955 192.99)" fill="#0F0F0F"/>
<ellipse cx="241.097" cy="201.414" rx="2.17747" ry="2.17747" transform="rotate(34.5 241.097 201.414)" fill="#0F0F0F"/>
<path d="M227.959 195.476C227.503 195.291 226.984 195.512 226.799 195.968L225.62 198.887C224.843 200.81 225.772 202.999 227.695 203.776C229.618 204.552 231.807 203.623 232.584 201.7L233.763 198.782C233.948 198.325 233.727 197.806 233.271 197.622L227.959 195.476Z" stroke="#0F0F0F" stroke-width="1.78154" stroke-linejoin="round"/>
<path d="M225.678 273.137L222.255 273.665C223.506 270.709 224.453 268.035 225.439 265.96C227.051 262.56 229.379 259.586 230.134 256.676C230.891 253.761 233.876 249.122 233.876 249.122L246.608 253.22C246.608 253.22 246.098 255.408 245.993 257.675C245.888 259.942 245.406 261.323 244.837 263.935C244.268 266.547 244.625 269.22 243.973 271.579C243.339 273.868 242.13 275.719 240.808 278.761L236.041 278.697L233.34 275.879L228.374 275.97L225.678 273.137Z" fill="#5D5449"/>
<path d="M228.865 250.131C226.472 249.437 223.824 248.572 220.87 247.343C213.76 244.398 204.458 235.82 200.13 231.823C202.754 233.311 206.089 234.884 209.666 238.238C214.154 242.445 222.472 247.058 228.865 250.131Z" fill="#5D5449"/>
<path d="M251.918 255.462C248.995 255.641 243.075 254.671 239.254 253.155C236.392 252.017 233.02 251.336 228.876 250.136L228.864 250.131C222.471 247.058 214.153 242.445 209.666 238.238C206.089 234.884 202.754 233.311 200.13 231.823C200.124 231.821 200.124 231.821 200.118 231.819C199.522 231.266 199.018 230.802 198.632 230.455C197.756 229.663 196.908 229.143 196.13 228.717C194.981 227.371 193.609 226.327 192.44 225.587L192.434 225.585C192.243 225.129 192.101 224.592 192.008 223.935C191.984 223.789 191.972 223.647 191.96 223.505C193.308 224.26 195.309 225.584 196.844 227.461C199.415 230.592 204.499 231.417 210.185 236.751C215.872 242.085 227.73 248.075 234.001 250.749C240.079 253.349 247.25 253.797 251.918 255.462Z" fill="#867F76"/>
<path d="M254.077 254.743C253.85 254.941 253.564 255.11 253.194 255.247C252.895 255.358 252.459 255.427 251.925 255.465C251.925 255.465 251.925 255.465 251.919 255.463C247.251 253.797 240.079 253.349 234.001 250.75C227.73 248.075 215.871 242.085 210.185 236.751C204.499 231.418 199.414 230.592 196.843 227.461C195.31 225.585 193.308 224.261 191.959 223.506C191.897 222.897 191.913 222.361 191.978 221.879C193.306 222.578 195.6 223.986 197.324 226.085C199.893 229.221 204.977 230.047 210.664 235.38C216.35 240.714 228.21 246.699 234.479 249.379C240.749 252.059 248.174 252.449 252.828 254.253C253.269 254.424 253.686 254.585 254.077 254.743Z" fill="#5D5449"/>
<path d="M254.966 253.411C254.734 253.941 254.488 254.389 254.082 254.744L254.076 254.742C253.685 254.584 253.268 254.423 252.827 254.252C248.173 252.449 240.748 252.058 234.478 249.378C228.209 246.698 216.348 240.713 210.663 235.38C204.976 230.046 199.892 229.221 197.323 226.085C195.599 223.985 193.305 222.578 191.977 221.879C192.061 221.285 192.215 220.784 192.41 220.365C193.723 221.047 196.081 222.467 197.836 224.614C200.407 227.745 205.492 228.57 211.178 233.904C216.864 239.238 228.722 245.228 234.994 247.903C241.263 250.582 248.688 250.973 253.342 252.776C253.923 253.001 254.467 253.212 254.966 253.411Z" fill="#867F76"/>
<path d="M255.634 251.816C255.359 252.407 255.166 252.94 254.967 253.412C254.467 253.212 253.923 253.001 253.343 252.777C248.689 250.973 241.263 250.583 234.994 247.903C228.723 245.228 216.864 239.238 211.179 233.904C205.492 228.571 200.408 227.745 197.837 224.614C196.082 222.467 193.723 221.046 192.41 220.365C192.708 219.729 193.092 219.276 193.44 218.969C194.788 219.724 196.84 221.061 198.409 222.975C200.98 226.106 206.063 226.937 211.749 232.271C217.435 237.604 229.295 243.59 235.564 246.269C241.836 248.944 249.259 249.339 253.913 251.143C254.536 251.384 255.11 251.607 255.634 251.816Z" fill="#5D5449"/>
<path d="M256.601 250.145C256.545 250.249 256.474 250.352 256.403 250.456C256.078 250.938 255.836 251.393 255.634 251.816C255.11 251.607 254.536 251.384 253.913 251.143C249.259 249.34 241.836 248.944 235.565 246.269C229.295 243.59 217.434 237.604 211.749 232.271C206.063 226.937 200.98 226.106 198.409 222.975C196.84 221.062 194.788 219.724 193.44 218.969C193.888 218.57 194.257 218.415 194.257 218.415C194.208 218.026 194.24 217.658 194.346 217.275C195.697 218.025 197.76 219.367 199.34 221.291C201.909 224.427 206.993 225.253 212.679 230.586C218.366 235.92 230.226 241.906 236.495 244.585C242.764 247.265 250.19 247.655 254.844 249.459C255.479 249.704 256.066 249.931 256.601 250.145Z" fill="#867F76"/>
<path d="M256.601 250.145C256.065 249.931 255.479 249.704 254.845 249.458C250.19 247.655 242.765 247.264 236.496 244.584C230.227 241.905 218.366 235.919 212.68 230.586C206.994 225.252 201.91 224.427 199.341 221.29C197.762 219.367 195.698 218.025 194.347 217.275C194.464 216.825 194.686 216.344 194.989 215.77C196.269 216.427 198.729 217.875 200.544 220.087C203.115 223.218 208.197 224.048 213.883 229.382C219.57 234.716 231.43 240.701 237.699 243.38C243.97 246.055 251.394 246.45 256.048 248.254C256.465 248.416 256.864 248.57 257.237 248.721C257.109 249.161 256.917 249.635 256.601 250.145Z" fill="#5D5449"/>
<path d="M257.236 248.721C256.863 248.57 256.464 248.416 256.047 248.254C251.393 246.451 243.969 246.055 237.698 243.381C231.429 240.701 219.568 234.715 213.883 229.382C208.196 224.048 203.114 223.218 200.543 220.087C198.728 217.875 196.269 216.427 194.989 215.77C195.147 215.474 195.323 215.148 195.525 214.785C195.619 214.613 195.731 214.448 195.85 214.285C197.186 215 199.43 216.394 201.115 218.448C203.686 221.579 208.768 222.41 214.455 227.743C220.141 233.077 232.001 239.063 238.27 241.742C244.542 244.416 251.965 244.812 256.619 246.616C256.903 246.726 257.181 246.834 257.445 246.942C257.44 247.507 257.41 248.085 257.236 248.721Z" fill="#867F76"/>
<path d="M257.52 245.295L257.133 245.145C252.479 243.342 245.053 242.951 238.784 240.271C232.515 237.591 220.654 231.606 214.968 226.273C209.282 220.939 204.198 220.113 201.628 216.977C200.165 215.194 198.282 213.904 196.939 213.133C197.394 212.755 197.868 212.437 198.284 212.211C199.634 212.961 201.69 214.306 203.258 216.219C205.823 219.348 210.912 220.181 216.598 225.515C222.284 230.848 234.144 236.834 240.414 239.513C246.273 242.01 253.129 242.52 257.804 244.046C257.761 244.25 257.7 244.482 257.63 244.741C257.584 244.932 257.548 245.115 257.52 245.295Z" fill="#867F76"/>
<path d="M257.804 244.046C253.129 242.52 246.274 242.011 240.414 239.513C234.145 236.833 222.284 230.848 216.598 225.515C210.912 220.181 205.823 219.348 203.258 216.219C201.689 214.306 199.634 212.961 198.283 212.211C198.746 211.967 199.146 211.823 199.396 211.813C200.011 211.783 200.485 211.818 201.039 212.062L201.045 212.064C201.983 212.756 202.965 213.619 203.806 214.649C206.371 217.778 211.46 218.611 217.146 223.944C222.832 229.278 234.692 235.264 240.962 237.943C246.295 240.218 252.453 240.839 257.046 242.088L257.052 242.091C257.052 242.091 257.052 242.091 257.058 242.093C257.993 242.622 258.061 242.977 257.804 244.046Z" fill="#5D5449"/>
<path d="M257.047 242.089C252.454 240.839 246.296 240.219 240.963 237.943C234.693 235.263 222.832 229.278 217.147 223.945C211.461 218.611 206.372 217.778 203.807 214.65C202.966 213.62 201.984 212.756 201.045 212.065C201.719 212.356 202.492 212.953 203.747 214.095C206.021 216.17 212.338 219.44 216.011 222.205C219.672 224.965 230.821 233.089 238.753 236.902C246.681 240.726 254.678 240.915 256.436 241.775C256.67 241.889 256.875 241.992 257.047 242.089Z" fill="#867F76"/>
<path d="M257.445 246.942C257.181 246.833 256.903 246.726 256.619 246.616C251.965 244.813 244.541 244.417 238.27 241.742C232.001 239.062 220.14 233.077 214.455 227.744C208.768 222.41 203.686 221.579 201.115 218.448C199.43 216.394 197.186 215 195.85 214.285C196.156 213.862 196.541 213.468 196.939 213.133C198.282 213.904 200.165 215.194 201.628 216.977C204.198 220.114 209.282 220.939 214.968 226.273C220.655 231.606 232.515 237.592 238.784 240.271C245.053 242.951 252.479 243.341 257.133 245.145L257.52 245.295C257.438 245.86 257.451 246.395 257.445 246.942Z" fill="#5D5449"/>
<path d="M196.13 228.717C194.49 227.813 193.141 227.314 192.44 225.587C193.609 226.327 194.98 227.371 196.13 228.717Z" fill="#5D5449"/>
<path d="M204.023 264.269L199.896 260.798L195.371 260.983L192.643 257.987L187.587 257.966L185.692 255.294C185.692 255.294 184.153 255.36 182.878 255.414C182.911 255.319 182.946 255.22 182.985 255.127C183.123 254.769 183.271 254.427 183.43 254.089C184.686 254.028 186.154 253.97 186.154 253.97L188.046 256.648L193.105 256.664L195.831 259.664L200.358 259.473L204.303 262.797C204.213 263.293 204.122 263.789 204.023 264.269Z" fill="#F9EDD8"/>
<path d="M183.43 254.089C184.855 251.027 186.913 248.473 187.95 244.385C189.111 239.838 191 237.141 192.806 234.168C194.613 231.194 195.485 228.223 195.548 228.045C195.548 228.045 207.257 236.505 207.266 236.735C207.269 236.963 207.768 238.719 207.337 241.683C206.907 244.646 207.417 248.571 206.385 251.528C205.581 253.829 205.093 258.512 204.303 262.797L200.358 259.474L195.832 259.664L193.105 256.664L188.047 256.648L186.154 253.97C186.154 253.97 184.687 254.027 183.43 254.089Z" fill="#5D5449"/>
<path d="M202.224 272.546L198.314 269.141L193.082 269.546L189.366 266.115L184.523 266.23L181.518 263.455C181.576 262.935 181.636 262.392 181.701 261.833L184.994 264.88L189.839 264.759L193.553 268.196L198.787 267.785L202.528 271.047C202.424 271.58 202.325 272.078 202.224 272.546Z" fill="#F9EDD8"/>
<path d="M184.995 264.88L181.701 261.833C181.945 259.619 182.24 257.205 182.878 255.413C184.153 255.359 185.693 255.293 185.693 255.293L187.587 257.966L192.644 257.987L195.372 260.982L199.896 260.797L204.023 264.268C203.874 264.968 203.718 265.653 203.546 266.302C203.117 267.924 202.812 269.584 202.527 271.048L198.787 267.786L193.552 268.196L189.839 264.76L184.995 264.88Z" fill="#5D5449"/>
<path d="M200.291 275.626C199.656 275.303 199.041 275.177 198.392 275.11C197.574 275.014 196.706 275.006 195.669 274.771C195.269 274.681 194.839 274.556 194.379 274.378C192.934 273.818 192.099 273.167 191.156 272.563C190.46 272.12 189.711 271.711 188.624 271.385C188.556 271.364 188.487 271.344 188.413 271.321C187.292 271.012 185.657 270.587 184.177 270.049C183.195 269.698 182.284 269.298 181.636 268.856C180.873 268.328 180.481 267.74 180.782 267.094C181.13 266.352 181.333 265.024 181.518 263.455L184.522 266.23L189.365 266.115L193.081 269.546L198.313 269.141L202.223 272.546C201.752 274.725 201.258 276.12 200.291 275.626Z" fill="#5D5449"/>
<path d="M240.373 279.946L235.626 279.883L232.927 277.06L227.961 277.152L225.266 274.318L221.74 274.866C221.917 274.457 222.09 274.059 222.255 273.665L225.679 273.136L228.374 275.97L233.34 275.878L236.041 278.696L240.808 278.76C240.764 278.845 240.727 278.931 240.688 279.024C240.571 279.301 240.463 279.611 240.373 279.946Z" fill="#F9EDD8"/>
<path d="M239.139 287.512L233.795 287.588L230.14 284.788L225.006 284.517L222.025 281.871C222.025 281.871 219.449 281.821 218.125 281.779C218.311 281.463 218.516 281.113 218.741 280.723C220.112 280.766 222.396 280.81 222.396 280.81L225.377 283.456L230.512 283.722L234.167 286.522L239.304 286.45C239.25 286.821 239.195 287.175 239.139 287.512Z" fill="#F9EDD8"/>
<path d="M239.304 286.449L234.166 286.521L230.512 283.722L225.376 283.455L222.396 280.809C222.396 280.809 220.113 280.765 218.741 280.723C218.945 280.373 219.161 279.991 219.397 279.57C220.299 277.969 221.064 276.387 221.739 274.866L225.265 274.318L227.96 277.151L232.926 277.06L235.625 279.883L240.372 279.945C240.179 280.616 240.019 281.389 239.886 282.202C239.765 282.942 239.659 283.718 239.557 284.483C239.472 285.16 239.391 285.826 239.304 286.449Z" fill="#5D5449"/>
<path d="M238.037 290.293C236.562 290.843 234.978 289.484 232.472 289.783C229.967 290.077 227.257 289.253 224.725 287.896C222.193 286.539 218.19 287.451 217.221 285.805C216.419 284.445 216.429 284.634 218.125 281.779C219.449 281.821 222.025 281.871 222.025 281.871L225.006 284.517L230.14 284.788L233.795 287.588L239.139 287.512C238.889 288.995 238.571 290.1 238.037 290.293Z" fill="#5D5449"/>
<path d="M185.316 260.076C185.094 260.711 184.323 260.996 183.593 260.713C182.863 260.43 182.45 259.686 182.672 259.052C182.894 258.417 183.665 258.132 184.396 258.415C185.126 258.698 185.538 259.442 185.316 260.076Z" fill="#F9EDD8"/>
<path d="M192.541 262.625C192.319 263.259 191.548 263.545 190.818 263.262C190.087 262.979 189.675 262.235 189.896 261.601C190.118 260.967 190.889 260.681 191.62 260.964C192.35 261.248 192.762 261.991 192.541 262.625Z" fill="#F9EDD8"/>
<path d="M200.243 265.61C200.022 266.244 199.25 266.53 198.52 266.247C197.79 265.964 197.377 265.22 197.599 264.585C197.821 263.95 198.592 263.666 199.322 263.948C200.052 264.232 200.465 264.975 200.243 265.61Z" fill="#F9EDD8"/>
<path d="M225.305 278.636C225.072 279.302 224.262 279.602 223.495 279.305C222.729 279.007 222.296 278.226 222.528 277.56C222.761 276.894 223.571 276.595 224.338 276.892C225.104 277.189 225.537 277.969 225.305 278.636Z" fill="#F9EDD8"/>
<path d="M232.816 281.275C232.584 281.941 231.774 282.241 231.007 281.944C230.241 281.647 229.808 280.866 230.04 280.199C230.273 279.533 231.083 279.234 231.849 279.531C232.616 279.828 233.049 280.609 232.816 281.275Z" fill="#F9EDD8"/>
<path d="M183.175 275.303C182.879 274.991 182.472 274.72 181.983 274.53C181.5 274.343 181.023 274.272 180.614 274.304C181.034 273.71 181.577 272.626 181.462 271.127C181.379 270.087 181.491 269.355 181.637 268.857C182.285 269.299 183.195 269.699 184.178 270.05C183.951 270.738 183.749 271.554 183.775 272.208C183.819 273.238 183.4 274.638 183.175 275.303Z" fill="#C3B297"/>
<path d="M190.244 277.558C189.944 277.198 189.488 276.872 188.932 276.657C188.539 276.504 188.155 276.427 187.808 276.418C188.192 275.791 188.599 274.798 188.496 273.482C188.423 272.554 188.502 271.874 188.624 271.385C189.712 271.711 190.461 272.12 191.157 272.563C190.955 273.219 190.785 273.964 190.809 274.563C190.85 275.545 190.474 276.86 190.244 277.558Z" fill="#C3B297"/>
<path d="M197.336 280.515C197.042 280.138 196.572 279.795 195.991 279.571C195.604 279.421 195.22 279.343 194.871 279.339C195.277 278.727 195.765 277.682 195.653 276.255C195.605 275.664 195.618 275.174 195.67 274.771C196.706 275.005 197.575 275.014 198.392 275.111C198.155 275.812 197.933 276.662 197.966 277.336C198.014 278.416 197.552 279.895 197.336 280.515Z" fill="#C3B297"/>
<path d="M183.615 276.558C183.521 276.826 183.29 277.017 182.978 277.123C182.799 277.184 182.595 277.219 182.368 277.22C182.234 277.228 182.087 277.219 181.943 277.198C181.759 277.175 181.561 277.134 181.37 277.072C181.289 277.047 181.203 277.019 181.124 276.988C181.07 276.968 181.021 276.948 180.969 276.922C180.796 276.849 180.64 276.765 180.494 276.672C180.325 276.565 180.178 276.455 180.049 276.333C179.851 276.155 179.699 275.959 179.602 275.766C179.452 275.488 179.41 275.215 179.498 274.963C179.634 274.574 180.057 274.344 180.613 274.304C181.022 274.272 181.498 274.343 181.982 274.53C182.471 274.72 182.878 274.99 183.174 275.302C183.569 275.706 183.75 276.17 183.615 276.558Z" fill="#5D5449"/>
<path d="M190.558 278.682C190.464 278.95 190.23 279.151 189.906 279.252C189.734 279.311 189.53 279.345 189.317 279.346C189.178 279.352 189.023 279.345 188.872 279.323C188.688 279.299 188.504 279.258 188.319 279.198C188.238 279.173 188.152 279.145 188.073 279.114C188.013 279.091 187.952 279.068 187.9 279.041C187.732 278.97 187.582 278.888 187.441 278.804C187.274 278.691 187.121 278.578 186.988 278.449C186.79 278.271 186.638 278.075 186.541 277.882C186.397 277.606 186.355 277.333 186.441 277.086C186.596 276.64 187.131 276.406 187.806 276.417C188.153 276.426 188.537 276.503 188.93 276.656C189.487 276.872 189.942 277.197 190.242 277.558C190.546 277.932 190.679 278.335 190.558 278.682Z" fill="#5D5449"/>
<path d="M197.616 280.952C197.522 281.22 197.287 281.421 196.963 281.522C196.792 281.581 196.588 281.615 196.375 281.616C196.235 281.622 196.08 281.615 195.93 281.593C195.746 281.569 195.562 281.528 195.376 281.468C195.296 281.443 195.209 281.415 195.131 281.384C195.07 281.361 195.01 281.338 194.957 281.311C194.79 281.24 194.64 281.158 194.498 281.074C194.332 280.961 194.179 280.848 194.045 280.719C193.847 280.541 193.696 280.345 193.598 280.152C193.454 279.876 193.412 279.603 193.498 279.356C193.654 278.91 194.189 278.676 194.864 278.687C195.21 278.696 195.595 278.773 195.988 278.926C196.544 279.142 197 279.467 197.299 279.828C197.603 280.202 197.737 280.605 197.616 280.952Z" fill="#5D5449"/>
<path d="M177.106 283.255C177.044 283.433 176.956 283.626 176.802 283.691C176.785 283.702 176.763 283.706 176.745 283.699C176.708 283.685 176.707 283.63 176.708 283.589C176.718 283.325 176.784 283.058 176.882 282.816C176.966 282.616 177.071 282.43 177.149 282.228C177.236 281.999 177.272 281.757 177.316 281.512C177.427 280.94 177.553 280.226 177.799 279.659C177.896 279.852 178.047 280.048 178.246 280.226C178.097 280.514 177.904 280.791 177.84 281.113C177.808 281.285 177.815 281.461 177.77 281.628C177.701 281.887 177.526 282.093 177.409 282.329C177.26 282.616 177.2 282.945 177.106 283.255Z" fill="#C3B297"/>
</g>
</svg>
