<svg width="280" height="280" viewBox="0 0 280 280" fill="none" xmlns="http://www.w3.org/2000/svg">
<rect y="0.00012207" width="280" height="280" fill="#0F0F0F"/>
<path d="M259.572 45.2712C259.572 59.2282 247.976 70.5425 233.672 70.5425C219.368 70.5425 207.772 59.2282 207.772 45.2712C207.772 31.3143 219.368 19.9999 233.672 19.9999C247.976 19.9999 259.572 31.3143 259.572 45.2712Z" fill="#252525"/>
<path d="M234.061 27.7217L218.594 36.5257L218.564 54.0752L233.999 62.8207L249.47 54.0167L249.5 36.4672L234.061 27.7217ZM241.226 52.7882L239.801 53.6043L238.363 52.7648V46.719H229.7V52.7882L228.276 53.6043L226.838 52.7648V37.7454L228.268 36.9381L229.7 37.7615V43.8234H238.363V37.7542L239.795 36.9469L241.226 37.7703V52.7882Z" fill="#E9D3B6"/>
<path d="M196.981 45.2712C196.981 59.2282 185.385 70.5425 171.081 70.5425C156.777 70.5425 145.182 59.2282 145.182 45.2712C145.182 31.3143 156.777 19.9999 171.081 19.9999C185.385 19.9999 196.981 31.3143 196.981 45.2712Z" fill="#252525"/>
<path d="M171.441 48.0791C173.229 48.0791 174.678 46.6648 174.678 44.9202C174.678 43.1756 173.229 41.7613 171.441 41.7613C169.653 41.7613 168.204 43.1756 168.204 44.9202C168.204 46.6648 169.653 48.0791 171.441 48.0791Z" fill="#E9D3B6"/>
<path d="M184.628 39.3722C183.958 39.1361 183.258 38.9 182.527 38.6934C182.709 37.9852 182.862 37.2769 182.984 36.5982C183.623 32.7028 182.923 29.9583 180.973 28.8959C180.395 28.5712 179.755 28.4237 179.024 28.4237C176.892 28.4237 174.182 29.9583 171.441 32.5257C168.7 29.9583 165.989 28.4237 163.858 28.4237C163.127 28.4237 162.487 28.5712 161.908 28.8959C159.959 29.9878 159.259 32.7323 159.898 36.5982C160.02 37.2769 160.173 37.9852 160.355 38.6934C159.624 38.9 158.924 39.1066 158.254 39.3722C154.447 40.7887 152.376 42.7364 152.376 44.9202C152.376 47.104 154.477 49.0517 158.254 50.4683C158.924 50.7043 159.624 50.9404 160.355 51.147C160.173 51.8553 160.02 52.5635 159.898 53.2423C159.259 57.1377 159.959 59.8822 161.908 60.9446C162.487 61.2692 163.127 61.4167 163.858 61.4167C166.02 61.4167 168.73 59.8822 171.441 57.3148C174.182 59.8822 176.892 61.4167 179.024 61.4167C179.755 61.4167 180.395 61.2692 180.973 60.9446C182.923 59.8527 183.623 57.1082 182.984 53.2423C182.862 52.5635 182.709 51.8553 182.527 51.147C183.258 50.9404 183.958 50.7338 184.628 50.4683C188.435 49.0517 190.506 47.104 190.506 44.9202C190.506 42.7364 188.435 40.7887 184.628 39.3722ZM180.121 30.3714C181.369 31.0797 181.796 33.2635 181.278 36.3621C181.187 36.9818 181.034 37.6311 180.852 38.3098C179.268 37.9557 177.593 37.7196 175.827 37.572C174.791 36.1555 173.725 34.8866 172.659 33.7356C174.913 31.5813 177.197 30.1058 179.055 30.1058C179.451 30.1058 179.816 30.1943 180.121 30.3714ZM176.71 47.8713C176.162 48.8156 175.522 49.76 174.852 50.7043C173.725 50.7929 172.598 50.8224 171.441 50.8224C170.253 50.8224 169.126 50.7929 168.03 50.7043C167.36 49.76 166.751 48.8156 166.203 47.8713C165.624 46.8974 165.076 45.8941 164.589 44.9202C165.076 43.9464 165.624 42.943 166.203 41.9691C166.751 41.0248 167.39 40.0805 168.06 39.1361C169.187 39.0476 170.314 39.0181 171.471 39.0181C172.659 39.0181 173.786 39.0476 174.882 39.1361C175.552 40.0805 176.162 41.0248 176.71 41.9691C177.288 42.943 177.837 43.9464 178.324 44.9202C177.806 45.8941 177.288 46.8679 176.71 47.8713ZM179.238 46.8974C179.694 47.9303 180.06 48.9337 180.395 49.9371C179.359 50.1731 178.263 50.3502 177.106 50.4978C177.471 49.9371 177.867 49.3468 178.202 48.7271C178.568 48.1074 178.903 47.4877 179.238 46.8974ZM171.441 54.8949C170.71 54.1276 170.01 53.3013 169.34 52.4455C170.04 52.475 170.74 52.5045 171.441 52.5045C172.141 52.5045 172.842 52.475 173.542 52.4455C172.872 53.3013 172.172 54.1276 171.441 54.8949ZM165.776 50.4683C164.619 50.3207 163.523 50.1436 162.487 49.9075C162.822 48.9337 163.188 47.9008 163.644 46.8679C163.979 47.4581 164.314 48.0779 164.68 48.6681C165.045 49.3173 165.411 49.878 165.776 50.4683ZM163.644 42.943C163.188 41.9101 162.822 40.9068 162.487 39.9034C163.523 39.6673 164.619 39.4902 165.776 39.3427C165.411 39.9034 165.015 40.4936 164.68 41.1133C164.314 41.7331 163.979 42.3528 163.644 42.943ZM171.441 34.9456C172.172 35.7129 172.872 36.5392 173.542 37.395C172.842 37.3655 172.141 37.336 171.441 37.336C170.74 37.336 170.04 37.3655 169.34 37.395C170.01 36.5392 170.71 35.7129 171.441 34.9456ZM178.202 41.1428L177.106 39.3722C178.263 39.5197 179.359 39.6968 180.395 39.9329C180.06 40.9068 179.694 41.9396 179.238 42.9725C178.903 42.3528 178.568 41.7331 178.202 41.1428ZM161.604 36.3621C161.086 33.2635 161.513 31.0797 162.761 30.3714C163.066 30.1943 163.431 30.1058 163.827 30.1058C165.654 30.1058 167.939 31.5518 170.223 33.7356C169.157 34.857 168.091 36.1555 167.055 37.572C165.289 37.7196 163.614 37.9852 162.03 38.3098C161.848 37.6311 161.726 36.9818 161.604 36.3621ZM154.081 44.9202C154.081 43.5332 155.817 42.0577 158.863 40.9658C159.472 40.7297 160.142 40.5231 160.812 40.3461C161.299 41.8216 161.908 43.3857 162.639 44.9497C161.908 46.5138 161.269 48.0484 160.812 49.5239C156.609 48.3435 154.081 46.5728 154.081 44.9202ZM162.761 59.469C161.513 58.7608 161.086 56.577 161.604 53.4783C161.695 52.8586 161.848 52.2094 162.03 51.5306C163.614 51.8848 165.289 52.1209 167.055 52.2684C168.091 53.6849 169.157 54.9539 170.223 56.1048C167.969 58.2591 165.685 59.7346 163.827 59.7346C163.431 59.7346 163.066 59.6461 162.761 59.469ZM181.278 53.4783C181.796 56.577 181.369 58.7608 180.121 59.469C179.816 59.6461 179.451 59.7346 179.055 59.7346C177.227 59.7346 174.943 58.2886 172.659 56.1048C173.725 54.9834 174.791 53.6849 175.827 52.2684C177.593 52.1209 179.268 51.8553 180.852 51.5306C181.034 52.2094 181.156 52.8586 181.278 53.4783ZM184.019 48.8747C183.41 49.1108 182.74 49.3173 182.07 49.4944C181.583 48.0189 180.973 46.4548 180.243 44.8907C180.973 43.3266 181.613 41.7921 182.07 40.3165C186.273 41.497 188.8 43.2676 188.8 44.9202C188.8 46.3072 187.034 47.7828 184.019 48.8747Z" fill="#E9D3B6"/>
<path d="M133.863 108.955C133.863 122.912 122.267 134.226 107.963 134.226C93.659 134.226 82.0633 122.912 82.0633 108.955C82.0633 94.998 93.659 83.6837 107.963 83.6837C122.267 83.6837 133.863 94.998 133.863 108.955Z" fill="#252525"/>
<path d="M113.428 92.2925C113.73 92.6517 113.884 93.1364 114.191 94.1047L120.913 115.273C118.388 114.017 115.678 113.137 112.877 112.665L108.501 98.4864C108.466 98.3731 108.394 98.2736 108.295 98.2028C108.197 98.132 108.077 98.0939 107.954 98.094C107.831 98.0941 107.711 98.1326 107.612 98.2036C107.514 98.2745 107.442 98.3742 107.408 98.4876L103.084 112.657C100.271 113.128 97.5487 114.009 95.0131 115.269L101.767 94.1002C102.076 93.1331 102.23 92.6493 102.532 92.2901C102.798 91.974 103.145 91.7283 103.538 91.5765C103.983 91.4054 104.512 91.4054 105.567 91.4054H110.391C111.447 91.4054 111.976 91.4054 112.422 91.5777C112.816 91.7295 113.162 91.9756 113.428 92.2925Z" fill="#E9D3B6"/>
<path d="M114.221 115.935C113.166 116.847 111.06 117.469 108.634 117.469C105.658 117.469 103.162 116.532 102.501 115.273C102.264 115.995 102.211 116.82 102.211 117.349C102.211 117.349 102.055 119.939 103.839 121.74C103.839 121.518 103.882 121.298 103.966 121.092C104.051 120.887 104.174 120.7 104.33 120.543C104.485 120.386 104.67 120.261 104.874 120.176C105.077 120.091 105.295 120.047 105.515 120.047C107.102 120.047 107.101 121.445 107.1 122.581V122.682C107.1 124.405 108.142 125.882 109.625 126.504C109.396 126.03 109.278 125.51 109.279 124.982C109.279 123.338 110.233 122.727 111.344 122.016C112.227 121.45 113.208 120.821 113.884 119.561C114.248 118.882 114.439 118.121 114.438 117.349C114.438 116.869 114.365 116.392 114.221 115.935Z" fill="#8C7F6D"/>
<path d="M134.39 45.2712C134.39 59.2282 122.794 70.5425 108.49 70.5425C94.1865 70.5425 82.5908 59.2282 82.5908 45.2712C82.5908 31.3143 94.1865 19.9999 108.49 19.9999C122.794 19.9999 134.39 31.3143 134.39 45.2712Z" fill="#252525"/>
<path d="M108.85 33.3376C103.382 33.3376 99.9662 35.9886 98.5982 41.2928C100.648 38.6415 103.041 37.6473 105.774 38.3102C107.334 38.6875 108.45 39.7852 109.685 41.0016C111.695 42.9804 114.021 45.2712 119.102 45.2712C124.57 45.2712 127.986 42.6199 129.354 37.3144C127.304 39.9673 124.911 40.9615 122.178 40.2986C120.618 39.921 119.504 38.8236 118.267 37.6072C116.258 35.6284 113.933 33.3376 108.85 33.3376ZM98.5982 45.2712C93.1307 45.2712 89.7143 47.9225 88.3463 53.228C90.396 50.5751 92.7886 49.5809 95.522 50.2438C97.0825 50.6214 98.1977 51.7188 99.4328 52.9353C101.443 54.914 103.769 57.2049 108.85 57.2049C114.318 57.2049 117.734 54.5538 119.102 49.2496C117.052 51.901 114.659 52.8952 111.926 52.2323C110.366 51.855 109.252 50.7572 108.015 49.5408C106.007 47.562 103.681 45.2712 98.5982 45.2712Z" fill="#E9D3B6"/>
<path d="M71.7993 108.955C71.7993 122.912 60.2036 134.226 45.8996 134.226C31.5957 134.226 20 122.912 20 108.955C20 94.998 31.5957 83.6837 45.8996 83.6837C60.2036 83.6837 71.7993 94.998 71.7993 108.955Z" fill="#252525"/>
<path d="M59.1263 96.0495C55.8348 91.3846 49.3325 90.002 44.6323 92.9674L36.3759 98.1774C35.2587 98.871 34.3 99.7877 33.5613 100.869C32.8226 101.95 32.3201 103.172 32.0859 104.456C31.9815 105.032 31.9284 105.62 31.9274 106.21C31.9324 107.809 32.3283 109.383 33.0811 110.797C32.3753 111.859 31.8937 113.052 31.6652 114.302C31.4311 115.61 31.4639 116.965 31.7609 118.254C32.058 119.552 32.6139 120.778 33.3959 121.861C36.6877 126.525 43.2048 127.908 47.89 124.943L56.138 119.732C57.2545 119.038 58.2119 118.12 58.9487 117.038C59.6855 115.956 60.1855 114.733 60.4164 113.448C60.5225 112.87 60.5755 112.284 60.5749 111.697C60.573 110.101 60.1821 108.529 59.4353 107.115C60.141 106.054 60.6229 104.863 60.852 103.613C60.9543 103.035 61.0064 102.449 61.0078 101.862C61.0082 99.7795 60.3506 97.749 59.1269 96.0547L59.1263 96.0495Z" fill="#E9D3B6"/>
<path d="M44.1418 122.087C43.5897 122.224 43.0266 122.292 42.462 122.293C41.3837 122.292 40.3216 122.042 39.3666 121.563C38.4116 121.085 37.5922 120.391 36.9787 119.543C36.2293 118.54 35.8268 117.338 35.8276 116.105C35.828 115.758 35.8595 115.411 35.9215 115.071C35.972 114.815 36.0399 114.564 36.1247 114.32L36.2829 113.859L36.7118 114.171C37.707 114.87 38.8192 115.403 40.0009 115.745L40.3124 115.835L40.283 116.133V116.288C40.2823 116.661 40.4035 117.024 40.6295 117.328C40.812 117.587 41.0578 117.799 41.3455 117.945C41.6401 118.094 41.9583 118.171 42.28 118.171C42.4498 118.172 42.6191 118.151 42.785 118.11C42.965 118.064 43.139 117.992 43.3021 117.893L51.6985 112.74C51.9503 112.587 52.1575 112.376 52.3007 112.126C52.444 111.875 52.5187 111.595 52.5178 111.309C52.5154 110.936 52.391 110.574 52.1623 110.272C51.977 110.017 51.7298 109.808 51.442 109.664C51.1473 109.519 50.8297 109.444 50.509 109.446C50.3392 109.445 50.1698 109.466 50.004 109.508C49.8247 109.552 49.6516 109.624 49.4899 109.724L46.2888 111.68C45.7501 112.005 45.1763 112.246 44.5825 112.397C43.2601 112.726 41.8639 112.659 40.5828 112.205C39.3016 111.75 38.1973 110.93 37.4191 109.856C36.6706 108.853 36.2682 107.651 36.268 106.418C36.2685 106.071 36.3001 105.725 36.3619 105.383C36.5055 104.624 36.8126 103.901 37.2636 103.261C37.7146 102.621 38.2997 102.077 38.9818 101.664L47.3872 96.5395C47.9145 96.2182 48.4899 95.9755 49.0935 95.8197C49.6424 95.6852 50.2068 95.6172 50.7733 95.6173C51.8538 95.615 52.9188 95.8635 53.8768 96.3414C54.8348 96.8193 55.6574 97.5123 56.2738 98.3611C57.0179 99.367 57.4152 100.57 57.4106 101.802C57.41 102.151 57.3784 102.498 57.3163 102.839C57.266 103.095 57.1983 103.346 57.1138 103.59L56.9552 104.051L56.5263 103.75C55.5318 103.05 54.4194 102.517 53.2372 102.176L52.9258 102.083L52.9551 101.785V101.631C52.955 101.257 52.834 100.893 52.6086 100.588C52.4235 100.333 52.1767 100.124 51.8892 99.9803C51.5951 99.8349 51.2783 99.7602 50.9581 99.7609C50.7899 99.7644 50.6224 99.7889 50.4588 99.8341C50.2785 99.8774 50.1045 99.9503 49.9422 100.051L41.5366 105.175C41.3372 105.294 41.161 105.459 41.0186 105.658C40.8856 105.845 40.7926 106.065 40.7469 106.3C40.7261 106.398 40.7133 106.497 40.7085 106.598C40.7083 106.97 40.8294 107.332 41.0549 107.635C41.2399 107.89 41.4866 108.099 41.7741 108.242C42.0683 108.388 42.3852 108.463 42.7054 108.462C42.8752 108.462 43.0446 108.441 43.2105 108.4C43.3908 108.356 43.5649 108.283 43.7276 108.183L46.9346 106.215C47.4731 105.89 48.047 105.649 48.641 105.499C49.1931 105.363 49.7562 105.294 50.3208 105.294C51.3992 105.293 52.4616 105.543 53.417 106.022C54.3725 106.5 55.1926 107.192 55.8072 108.04C56.2865 108.682 56.6266 109.41 56.8077 110.18C56.9887 110.95 57.007 111.747 56.8615 112.524C56.7187 113.284 56.412 114.007 55.961 114.647C55.5099 115.287 54.9243 115.831 54.2416 116.243L45.851 121.368C45.3116 121.694 44.7367 121.936 44.1418 122.087Z" fill="#252525"/>
<path d="M71.7993 45.2713C71.7993 59.2282 60.2036 70.5425 45.8996 70.5425C31.5957 70.5425 20 59.2282 20 45.2713C20 31.3143 31.5957 20 45.8996 20C60.2036 20 71.7993 31.3143 71.7993 45.2713Z" fill="#252525"/>
<path d="M45.8996 27.7218C35.9793 27.7218 27.9138 35.5916 27.9138 45.2713C27.9138 54.9509 35.9793 62.8208 45.8996 62.8208C49.0472 62.8208 51.998 62.0256 54.5553 60.6545L41.5156 42.8856V52.9218H39.6046V39.1838H41.5156L55.7076 59.969C60.6256 56.843 63.8855 51.441 63.8855 45.2713C63.8855 35.5916 55.82 27.7218 45.8996 27.7218ZM52.1104 50.92L50.0027 47.8214V39.1838H52.1104V50.92Z" fill="#E9D3B6"/>
<path d="M196.927 108.955C196.927 122.912 185.331 134.226 171.027 134.226C156.723 134.226 145.128 122.912 145.128 108.955C145.128 94.9979 156.723 83.6836 171.027 83.6836C185.331 83.6836 196.927 94.9979 196.927 108.955Z" fill="#252525"/>
<path d="M171.027 92.781L187.21 120.129H154.844L171.027 92.781Z" fill="#E9D3B6"/>
<path d="M258.99 108.955C258.99 122.912 247.395 134.226 233.091 134.226C218.787 134.226 207.191 122.912 207.191 108.955C207.191 94.998 218.787 83.6837 233.091 83.6837C247.395 83.6837 258.99 94.998 258.99 108.955Z" fill="#252525"/>
<path d="M223.019 104.743H246.76V122.293H223.019V104.743Z" fill="#252525"/>
<path d="M217.982 123.697H248.199V94.2134H217.982V123.697ZM242.332 107.776C243.056 107.939 243.713 108.309 244.222 108.837C244.502 109.122 244.746 109.438 244.947 109.78C244.947 109.818 243.642 110.679 242.847 111.16C242.818 111.179 242.702 111.056 242.574 110.87C242.428 110.626 242.222 110.421 241.974 110.276C241.726 110.13 241.444 110.048 241.155 110.038C240.239 109.976 239.649 110.446 239.654 111.217C239.646 111.409 239.691 111.599 239.784 111.769C239.985 112.177 240.359 112.42 241.534 112.915C243.698 113.823 244.624 114.422 245.199 115.274C245.842 116.217 245.984 117.741 245.549 118.868C245.066 120.095 243.881 120.927 242.206 121.203C241.441 121.289 240.668 121.281 239.905 121.18C238.735 120.992 237.658 120.444 236.83 119.616C236.552 119.316 236.011 118.536 236.045 118.479C236.133 118.415 236.226 118.358 236.323 118.307L237.442 117.703L238.31 117.213L238.491 117.474C238.797 117.901 239.186 118.265 239.637 118.545C240.604 119.041 241.923 118.972 242.576 118.399C242.795 118.189 242.932 117.911 242.962 117.612C242.993 117.314 242.915 117.015 242.743 116.767C242.501 116.439 242.018 116.163 240.666 115.587C239.107 114.932 238.435 114.526 237.821 113.88C237.438 113.453 237.155 112.95 236.992 112.406C236.871 111.784 236.853 111.146 236.939 110.519C237.26 109.049 238.389 108.023 240.038 107.719C240.801 107.627 241.575 107.647 242.332 107.78V107.776ZM235.24 109.012V110.219H231.316V121.123H228.534V110.217H224.601V109.037C224.589 108.631 224.598 108.224 224.63 107.818C224.649 107.797 227.047 107.797 229.948 107.797H235.225L235.24 109.012Z" fill="#E9D3B6"/>
<path d="M71.7993 172.638C71.7993 186.595 60.2036 197.91 45.8996 197.91C31.5957 197.91 20 186.595 20 172.638C20 158.682 31.5957 147.367 45.8996 147.367C60.2036 147.367 71.7993 158.682 71.7993 172.638Z" fill="#252525"/>
<path d="M30.7915 157.897H61.0078V187.38H30.7915V157.897Z" fill="#1E1E1E"/>
<path d="M58.7666 180.479C58.5423 179.109 57.6317 177.958 54.9342 176.885C53.9971 176.463 52.9524 176.16 52.6411 175.464C52.5306 175.058 52.5159 174.83 52.5858 174.585C52.7866 173.788 53.7557 173.54 54.5238 173.768C55.0185 173.931 55.4868 174.305 55.7693 174.901C57.0903 174.062 57.0876 174.068 58.01 173.491C57.6723 172.978 57.492 172.741 57.271 172.521C56.4765 171.65 55.3939 171.202 53.6626 171.236L52.7607 171.351C51.8965 171.565 51.0729 172.01 50.5899 172.607C49.1408 174.219 49.554 177.042 51.3174 178.204C53.0546 179.483 55.6066 179.774 55.9326 180.97C56.2498 182.434 54.8356 182.908 53.43 182.74C52.3941 182.529 51.818 182.012 51.1952 181.073C50.0487 181.724 50.0487 181.724 48.8701 182.389C49.1496 182.988 49.4433 183.259 49.9118 183.779C52.1293 185.985 57.6784 185.877 58.6737 182.537C58.714 182.423 58.982 181.658 58.7666 180.479ZM47.3013 171.413H44.438L44.4263 178.675C44.4263 180.219 44.5077 181.635 44.2517 182.069C43.8328 182.922 42.7473 182.816 42.2526 182.651C41.7491 182.408 41.493 182.063 41.1964 181.575C41.115 181.435 41.0539 181.327 41.0333 181.318L38.7053 182.717C39.0924 183.496 39.6627 184.172 40.3931 184.612C41.4842 185.254 42.9507 185.451 44.4845 185.106C45.4827 184.821 46.344 184.23 46.7949 183.33C47.4468 182.151 47.307 180.724 47.3011 179.146C47.3158 176.571 47.3013 173.996 47.3013 171.413Z" fill="#E9D3B6"/>
<path d="M133.863 172.639C133.863 186.595 122.267 197.91 107.963 197.91C93.659 197.91 82.0633 186.595 82.0633 172.639C82.0633 158.682 93.659 147.367 107.963 147.367C122.267 147.367 133.863 158.682 133.863 172.639Z" fill="#252525"/>
<path d="M108.221 155.089C106.698 155.096 105.245 155.221 103.965 155.44C100.196 156.084 99.5117 157.431 99.5117 159.915V163.195H108.419V164.289H96.1686C93.5801 164.289 91.3134 165.792 90.6043 168.653C89.7862 171.931 89.7501 173.977 90.6043 177.401C91.2373 179.949 92.7494 181.764 95.3382 181.764H98.401V177.832C98.401 174.991 100.944 172.485 103.965 172.485H112.862C115.339 172.485 117.316 170.514 117.316 168.111V159.915C117.316 157.582 115.279 155.83 112.862 155.441C111.331 155.195 109.744 155.083 108.221 155.089ZM103.404 157.728C104.324 157.728 105.076 158.465 105.076 159.373C105.076 160.277 104.325 161.008 103.404 161.008C102.481 161.008 101.733 160.277 101.733 159.373C101.733 158.465 102.481 157.728 103.404 157.728Z" fill="#E9D3B6"/>
<path d="M117.709 164.215V167.909C117.709 170.771 115.183 173.181 112.302 173.181H103.657C101.289 173.181 99.3298 175.129 99.3298 177.408V185.328C99.3298 187.582 101.369 188.908 103.657 189.554C106.397 190.328 109.024 190.468 112.302 189.554C114.481 188.948 116.63 187.728 116.63 185.328V182.158H107.985V181.101H120.958C123.473 181.101 124.411 179.415 125.286 176.885C126.189 174.279 126.15 171.774 125.286 168.432C124.664 166.025 123.477 164.215 120.958 164.215L117.709 164.215ZM112.847 184.271C113.744 184.271 114.471 184.978 114.471 185.852C114.471 186.728 113.744 187.441 112.847 187.441C111.953 187.441 111.223 186.728 111.223 185.852C111.223 184.978 111.953 184.271 112.847 184.271Z" fill="#8C7F6D"/>
<path d="M258.99 172.638C258.99 186.595 247.395 197.91 233.091 197.91C218.787 197.91 207.191 186.595 207.191 172.638C207.191 158.682 218.787 147.367 233.091 147.367C247.395 147.367 258.99 158.682 258.99 172.638Z" fill="#252525"/>
<path d="M248.197 162.759L233.692 154.593C233.452 154.446 233.121 154.387 232.761 154.387C232.401 154.387 232.07 154.475 231.83 154.593L217.415 162.788C216.904 163.082 216.544 163.816 216.544 164.374V180.736C216.544 181.059 216.604 181.441 216.844 181.764L248.918 163.552C248.738 163.199 248.468 162.935 248.197 162.759Z" fill="#E9D3B6"/>
<path d="M216.544 181.863C216.695 182.1 216.906 182.307 217.117 182.425L231.674 190.683C231.915 190.831 232.248 190.89 232.61 190.89C232.973 190.89 233.305 190.801 233.546 190.683L248.042 182.425C248.556 182.129 248.918 181.389 248.918 180.827V164.341C248.918 164.075 248.888 163.779 248.737 163.513L216.544 181.863Z" fill="#8C7F6D"/>
<path d="M239.288 176.294C238.015 178.53 235.59 180.04 232.832 180.04C228.741 180.04 225.407 176.717 225.407 172.638C225.407 168.56 228.741 165.237 232.832 165.237C235.59 165.237 238.015 166.747 239.288 169.013L243.228 166.747C241.167 163.152 237.288 160.705 232.832 160.705C226.225 160.705 220.86 166.052 220.86 172.638C220.86 179.225 226.225 184.572 232.832 184.572C237.257 184.572 241.137 182.155 243.198 178.59L239.288 176.294ZM242.834 173.303L243.107 172.004H241.834V170.584H243.38L243.743 168.711H245.228L244.865 170.554H246.017L246.38 168.711H247.835L247.471 170.554H248.199V171.974H247.199L246.926 173.273H248.199V174.693H246.653L246.289 176.506H244.804L245.168 174.693H244.016L243.652 176.506H242.198L242.561 174.693H241.834V173.273H242.834V173.303ZM244.289 173.303H245.441L245.713 172.004H244.562L244.289 173.303Z" fill="#252525"/>
<ellipse cx="171.027" cy="172.639" rx="25.8996" ry="25.2713" fill="#252525"/>
<path d="M171.059 191.821L186.846 182.926L180.795 179.511L174.609 182.998C174.556 183.027 174.497 183.041 174.437 183.041C174.377 183.04 174.318 183.025 174.265 182.996C174.213 182.966 174.17 182.924 174.139 182.873C174.109 182.822 174.093 182.764 174.092 182.705V174.424C174.092 174.18 174.221 173.959 174.438 173.838L181.789 169.695C181.841 169.666 181.901 169.651 181.961 169.651C182.021 169.652 182.08 169.668 182.132 169.698C182.24 169.756 182.307 169.866 182.308 169.986V176.956L188.363 180.369V162.58L171.059 172.326V191.821Z" fill="#5D5449"/>
<path d="M167.519 183.002L161.33 179.511L155.274 182.925L171.059 191.821V172.326L153.761 162.58V180.368L159.814 176.957V169.987C159.817 169.867 159.883 169.757 159.989 169.699C160.041 169.669 160.1 169.653 160.161 169.652C160.222 169.652 160.281 169.667 160.334 169.696L167.689 173.838C167.794 173.897 167.881 173.983 167.942 174.086C168.003 174.189 168.035 174.305 168.035 174.424V182.707C168.033 182.827 167.968 182.937 167.862 182.999C167.757 183.06 167.627 183.06 167.519 183.002Z" fill="#8C7F6D"/>
<path d="M172.576 153.685V160.508L178.763 163.993C178.869 164.053 178.932 164.164 178.932 164.286C178.932 164.406 178.868 164.516 178.763 164.576L171.409 168.721C171.303 168.78 171.184 168.81 171.062 168.81C170.941 168.81 170.822 168.78 170.716 168.721L163.364 164.576C163.312 164.547 163.269 164.504 163.239 164.453C163.209 164.402 163.193 164.345 163.193 164.286C163.193 164.226 163.208 164.168 163.238 164.117C163.268 164.065 163.312 164.022 163.364 163.993L169.55 160.508V153.685L153.761 162.58L171.059 172.326L188.361 162.58L172.576 153.685Z" fill="#E9D3B6"/>
<ellipse cx="45.8996" cy="234.3" rx="25.8996" ry="25.2713" fill="#252525"/>
<g clip-path="url(#clip0_107_383)">
<path d="M33.0914 240.537C34.0504 239.378 34.1655 238.18 33.4219 235.958C32.9527 234.551 32.1708 233.467 32.7432 232.594C33.354 231.661 34.6523 232.564 33.5724 233.809L33.7878 233.961C35.0861 234.113 35.7264 232.317 34.7556 231.804C32.1974 230.454 29.9578 233.05 30.9463 236.053C31.3712 237.325 31.9613 238.675 31.4833 239.751C31.0702 240.671 30.2706 241.214 29.7336 241.241C28.6123 241.288 29.3677 238.693 30.6453 238.037C30.7574 237.981 30.9168 237.903 30.7663 237.716C29.1759 237.534 28.2435 238.276 27.7094 239.313C26.1485 242.334 30.6748 243.446 33.0914 240.537ZM61.0401 231.682C61.406 232.594 61.9637 233.496 61.6303 234.295C61.3588 234.98 60.9988 235.263 60.6034 235.332C60.0487 235.427 60.1992 233.669 61.1493 233.148C61.2349 233.1 61.3559 232.874 61.2437 232.74C60.0399 232.674 59.3612 233.252 58.9953 234.024C57.9331 236.276 61.4031 236.893 63.1085 234.679C63.7872 233.786 63.8138 232.921 63.1646 231.333C62.7515 230.326 62.1201 229.575 62.5155 228.911C62.9109 228.246 63.9554 228.815 63.1941 229.757L63.3623 229.852C64.3508 229.909 64.755 228.58 64.0026 228.246C62.0168 227.385 60.1638 229.543 61.0401 231.682Z" fill="#E9D3B6"/>
<path d="M48.4673 229.277C47.7798 228.726 45.8531 229.647 45.3013 231.017C44.6138 232.758 43.5987 235.293 42.6014 236.405C41.548 237.573 41.4448 236.67 41.548 235.996C41.7929 234.408 43.3184 230.731 44.1653 229.697C43.8555 229.233 41.8224 229.298 40.412 231.512C39.8868 232.346 38.6829 235.129 37.3345 237.325C37.0394 237.799 36.6765 237.468 36.9568 236.357C37.2755 235.073 38.2167 231.548 39.4324 228.774C42.6132 228.136 45.9917 227.689 48.5795 227.68C48.9277 227.585 49.1696 227.272 48.5795 227.251C46.3488 227.174 42.9998 227.442 39.8662 227.847C40.4563 226.631 41.1172 225.663 41.7752 225.252C41.0612 224.796 39.6124 224.978 38.7833 226.211C38.3792 226.832 38.0174 227.48 37.7004 228.151C35.4165 228.503 33.4514 228.917 32.4541 229.295C31.4567 229.674 31.5305 230.958 32.159 230.719C33.8079 230.126 35.4921 229.637 37.2017 229.256C35.9536 232.108 34.9739 235.472 34.7379 236.846C34.1478 240.171 36.1955 240.153 37.1928 238.842C38.2787 237.403 40.536 232.355 40.8753 231.825C40.9786 231.643 41.1202 231.739 41.0435 231.902C38.5206 236.986 38.739 238.952 40.7809 238.517C41.7044 238.318 43.2919 236.729 43.7079 235.895C43.7935 235.695 43.9705 235.713 43.9351 235.8C42.3506 239.986 40.3088 243.377 38.9455 244.444C37.7033 245.403 36.7827 243.323 41.1762 240.338C41.8254 239.891 41.5244 239.283 40.7897 239.492C38.5147 239.852 32.0233 241.935 29.1788 243.928C28.9634 244.08 28.7657 244.202 28.7746 244.524C28.7746 244.706 29.0933 244.637 29.2437 244.542C32.9321 242.31 35.9536 241.434 39.4147 240.704C39.4631 240.723 39.5168 240.723 39.5652 240.704C39.7245 240.666 39.7157 240.752 39.6124 240.817C39.3763 240.952 39.1432 241.074 39.0842 241.092C36.7502 242.012 35.3398 244.047 35.8385 245.081C36.2634 245.975 38.5472 245.65 39.6301 245.063C42.2857 243.609 44.2125 240.758 45.5314 236.825C46.6792 233.345 48.128 229.397 48.4673 229.277ZM63.8905 237.325C59.5707 236.756 50.2554 237.516 46.1422 238.618C44.9177 238.94 45.257 239.596 45.8796 239.474L46.1747 239.408C49.5532 238.744 57.7501 238.163 62.5302 239.086C63.0909 239.188 64.814 237.442 63.8905 237.325ZM49.6712 236.813C50.878 236.205 52.6779 232.442 53.8405 230.38C53.9261 230.228 54.0766 230.35 53.991 230.457C51.0167 235.627 52.2796 236.226 53.454 236.148C55.0385 236.053 56.4755 233.771 56.8089 233.27C56.9417 233.07 57.0154 233.231 56.9417 233.374C56.8649 233.613 56.5935 234.03 56.3515 234.599C55.9945 235.406 56.3692 235.719 56.682 235.862C57.1718 236.101 58.5085 235.949 58.715 235.12C57.3784 235.091 60.5769 228.726 60.9074 228.336C60.0222 227.814 58.6294 228.383 58.001 229.638C56.6554 232.32 55.5253 234.495 54.8201 234.53C53.4451 234.608 56.4017 228.535 56.8856 228.345C56.5905 227.916 54.7228 228.097 53.6782 229.733C53.3005 230.329 51.0049 234.426 50.4325 235.097C49.4352 236.288 49.3584 235.266 49.6417 234.072C49.7671 233.56 49.9207 233.055 50.102 232.561C50.76 231.071 51.4652 230.585 51.899 230.1C54.8054 226.84 56.4725 224.2 55.8145 223.163C55.2244 222.242 53.2828 222.651 52.0318 224.552C49.7273 228.038 47.6058 232.817 47.3254 235.004C47.0451 237.191 48.609 237.343 49.6712 236.813ZM50.9075 230.419C51.0108 230.18 51.0757 230.121 51.2557 229.715C52.2796 227.415 53.5631 224.993 54.472 223.86C55.0267 223.264 55.8086 224.069 54.3952 226.244C53.5862 227.513 52.6498 228.694 51.601 229.769C51.3383 230.067 51.1023 230.311 51.0108 230.454C50.9253 230.57 50.8397 230.55 50.9075 230.419Z" fill="#E9D3B6"/>
</g>
<ellipse cx="107.963" cy="234.3" rx="25.8996" ry="25.2713" fill="#252525"/>
<path d="M122.613 233.111L118.013 230.447L117.22 230.101L98.3999 230.231V239.879H122.613V233.111Z" fill="#252525"/>
<path d="M114.238 238.991C114.463 238.211 114.377 237.497 114.002 236.966C113.659 236.479 113.08 236.197 112.383 236.165L99.1824 235.992C99.0965 235.992 99.0216 235.949 98.9785 235.884C98.9354 235.819 98.9248 235.732 98.9464 235.645C98.9891 235.515 99.1178 235.418 99.2573 235.407L112.576 235.234C114.152 235.158 115.868 233.869 116.468 232.288L117.23 230.285C117.262 230.198 117.272 230.112 117.251 230.025C116.394 226.105 112.93 223.181 108.791 223.181C104.973 223.181 101.735 225.672 100.577 229.126C99.7917 228.536 98.8169 228.262 97.8425 228.357C96.0087 228.541 94.5398 230.025 94.3575 231.877C94.3147 232.353 94.3469 232.819 94.454 233.252C91.4617 233.338 89.0705 235.807 89.0705 238.85C89.0705 239.121 89.092 239.392 89.1242 239.662C89.1334 239.725 89.1643 239.782 89.2115 239.824C89.2586 239.865 89.3189 239.889 89.3815 239.89H113.745C113.884 239.89 114.013 239.792 114.056 239.651L114.238 238.991Z" fill="#E9D3B6"/>
<path d="M118.442 230.425C118.324 230.425 118.195 230.425 118.077 230.436C117.991 230.436 117.916 230.501 117.884 230.588L117.37 232.396C117.145 233.176 117.23 233.891 117.606 234.421C117.949 234.908 118.528 235.19 119.225 235.222L122.035 235.396C122.121 235.396 122.196 235.439 122.239 235.504C122.281 235.569 122.292 235.666 122.271 235.742C122.228 235.872 122.099 235.969 121.96 235.98L119.032 236.154C117.444 236.23 115.739 237.518 115.139 239.099L114.925 239.651C114.882 239.76 114.957 239.868 115.075 239.868H125.133C125.251 239.868 125.358 239.792 125.391 239.673C125.562 239.045 125.659 238.384 125.659 237.702C125.659 233.696 122.42 230.425 118.442 230.425Z" fill="#B8A388"/>
<ellipse cx="233.091" cy="234.3" rx="25.8996" ry="25.2713" fill="#252525"/>
<path d="M216.559 236.157V232.171L230.557 224.782V228.443L220.217 234.091L230.559 239.854V243.549L216.559 236.157ZM249.387 225.573L237.172 242.78H232.979L245.217 225.572L249.387 225.573ZM246.003 240.719C246.141 240.722 246.279 240.694 246.405 240.636C246.531 240.579 246.643 240.494 246.733 240.388C246.936 240.145 247.041 239.833 247.026 239.515C247.038 239.191 246.934 238.872 246.733 238.618C246.649 238.507 246.54 238.417 246.415 238.355C246.291 238.293 246.154 238.261 246.015 238.261C245.876 238.261 245.739 238.293 245.615 238.355C245.49 238.417 245.382 238.507 245.297 238.618C245.096 238.872 244.992 239.191 245.004 239.515C244.989 239.831 245.089 240.141 245.284 240.388C245.371 240.495 245.481 240.58 245.605 240.637C245.73 240.695 245.866 240.723 246.003 240.719ZM248.583 241.961C247.878 242.604 246.962 242.959 246.012 242.957C245.063 242.955 244.148 242.595 243.446 241.949C243.124 241.631 242.867 241.251 242.692 240.832C242.517 240.412 242.427 239.961 242.427 239.506C242.427 239.051 242.517 238.6 242.692 238.18C242.867 237.761 243.124 237.381 243.446 237.063C244.148 236.414 245.064 236.055 246.015 236.055C246.965 236.055 247.882 236.414 248.583 237.063C248.912 237.377 249.173 237.757 249.349 238.178C249.525 238.6 249.613 239.053 249.606 239.511C249.615 239.968 249.528 240.422 249.352 240.843C249.176 241.264 248.914 241.644 248.584 241.956L248.583 241.961ZM236.412 230.661C236.55 230.664 236.688 230.636 236.814 230.578C236.94 230.521 237.053 230.436 237.143 230.33C237.345 230.086 237.45 229.775 237.435 229.457C237.447 229.132 237.343 228.814 237.143 228.56C237.058 228.449 236.949 228.359 236.824 228.298C236.7 228.236 236.563 228.204 236.424 228.204C236.286 228.204 236.149 228.236 236.024 228.298C235.9 228.359 235.791 228.449 235.706 228.56C235.505 228.814 235.402 229.132 235.413 229.457C235.399 229.773 235.498 230.083 235.693 230.33C235.78 230.437 235.89 230.522 236.015 230.579C236.139 230.637 236.275 230.665 236.412 230.661ZM238.992 231.899C238.287 232.542 237.371 232.897 236.421 232.895C235.472 232.893 234.557 232.534 233.855 231.888C233.533 231.57 233.276 231.19 233.101 230.77C232.926 230.35 232.836 229.9 232.836 229.444C232.836 228.989 232.926 228.538 233.101 228.118C233.276 227.699 233.533 227.319 233.855 227.001C234.557 226.353 235.473 225.993 236.424 225.993C237.374 225.993 238.291 226.353 238.992 227.001C239.322 227.317 239.584 227.698 239.76 228.122C239.936 228.545 240.022 229.001 240.014 229.46C240.022 229.916 239.935 230.369 239.759 230.789C239.583 231.209 239.322 231.587 238.992 231.899Z" fill="#E9D3B6"/>
<ellipse cx="171.027" cy="234.3" rx="25.8996" ry="25.2713" fill="#252525"/>
<g clip-path="url(#clip1_107_383)">
<path d="M188.941 232.489L172.678 216.067C171.742 215.121 170.223 215.121 169.285 216.067L165.909 219.477L170.192 223.803C171.188 223.464 172.329 223.691 173.123 224.492C173.92 225.299 174.144 226.461 173.8 227.47L177.928 231.639C178.927 231.292 180.08 231.516 180.877 232.323C181.993 233.449 181.993 235.273 180.877 236.399C180.612 236.667 180.297 236.879 179.951 237.024C179.605 237.169 179.233 237.244 178.859 237.244C178.484 237.244 178.112 237.169 177.766 237.024C177.42 236.879 177.105 236.667 176.84 236.399C176.442 235.997 176.17 235.484 176.06 234.927C175.949 234.369 176.004 233.79 176.219 233.264L172.369 229.376L172.368 239.609C172.647 239.748 172.902 239.932 173.123 240.153C174.238 241.279 174.238 243.103 173.123 244.231C172.008 245.356 170.201 245.356 169.087 244.231C167.972 243.103 167.972 241.279 169.087 240.153C169.354 239.883 169.672 239.67 170.021 239.525V229.198C169.671 229.053 169.354 228.839 169.087 228.569C168.242 227.716 168.039 226.465 168.472 225.417L164.249 221.153L153.098 232.413C152.648 232.867 152.395 233.483 152.395 234.126C152.395 234.769 152.648 235.385 153.098 235.839L169.361 252.261C170.298 253.207 171.816 253.207 172.754 252.261L188.941 235.916C189.391 235.461 189.643 234.845 189.643 234.202C189.643 233.559 189.39 232.943 188.941 232.489Z" fill="#E9D3B6"/>
</g>
<defs>
<clipPath id="clip0_107_383">
<rect width="37.7685" height="38.1394" fill="white" transform="translate(27.0071 215.094)"/>
</clipPath>
<clipPath id="clip1_107_383">
<rect width="37.7685" height="38.1394" fill="white" transform="translate(152.135 215.094)"/>
</clipPath>
</defs>
</svg>
