<svg width="280" height="280" viewBox="0 0 280 280" fill="none" xmlns="http://www.w3.org/2000/svg">
<path d="M111.007 9.20703C183.244 -6.80756 254.786 38.7697 270.801 111.007C286.815 183.244 241.238 254.786 169.001 270.801C96.7638 286.815 25.2217 241.238 9.20703 169.001C-6.80756 96.7638 38.7697 25.2217 111.007 9.20703Z" fill="#FAF4ED" stroke="#BBB3AB" stroke-width="12"/>
<path d="M118.435 99.4604C115.891 105.574 108.873 108.448 102.759 105.882C96.6453 103.315 93.7506 96.2782 96.2938 90.1651C98.837 84.052 105.855 81.1771 111.969 83.744C118.083 86.3108 120.978 93.3473 118.435 99.4604Z" fill="#483F35"/>
<path d="M229.54 119.624C226.997 125.738 219.979 128.612 213.865 126.046C207.751 123.479 204.856 116.442 207.399 110.329C209.942 104.216 216.961 101.341 223.075 103.908C229.189 106.475 232.083 113.511 229.54 119.624Z" fill="#483F35"/>
<path d="M175.954 114.435C178 114.806 179.364 116.766 179 118.813L174.975 141.464C173.162 151.664 163.426 158.433 153.229 156.583C143.032 154.733 136.235 144.964 138.047 134.764L142.072 112.113C142.436 110.066 144.39 108.708 146.436 109.079L175.954 114.435Z" stroke="#483F35" stroke-width="7.52941" stroke-linejoin="round"/>
</svg>
