<svg version="1.1" viewBox="0.0 0.0 960.0 96.0" fill="none" stroke="none" stroke-linecap="square" stroke-miterlimit="10" xmlns:xlink="http://www.w3.org/1999/xlink" xmlns="http://www.w3.org/2000/svg"><clipPath id="gf41c80375d_0_0.0"><path d="m0 0l960.0 0l0 96.0l-960.0 0l0 -96.0z" clip-rule="nonzero"/></clipPath><g clip-path="url(#gf41c80375d_0_0.0)"><path fill="#ffffff" fill-opacity="0.0" d="m0 0l960.0 0l0 96.0l-960.0 0z" fill-rule="evenodd"/><path fill="#1b1c1f" d="m265.46442 29.355946l57.417328 0l0 65.03937l-57.417328 0z" fill-rule="evenodd"/><path stroke="#000000" stroke-width="2.0" stroke-linejoin="round" stroke-linecap="butt" d="m265.46442 29.355946l57.417328 0l0 65.03937l-57.417328 0z" fill-rule="evenodd"/><path fill="#e9d3b6" d="m285.41046 61.237507l0 -7.78125l1.296875 0l0 1.125l0.296875 0l-0.296875 0.296875q0 -0.703125 0.421875 -1.109375q0.421875 -0.421875 1.15625 -0.421875q0.875 0 1.40625 0.609375q0.53125 0.609375 0.53125 1.625l0 1.59375q0 0.6875 -0.234375 1.1875q-0.234375 0.5 -0.671875 0.78125q-0.4375 0.28125 -1.03125 0.28125q-0.734375 0 -1.15625 -0.40625q-0.421875 -0.421875 -0.421875 -1.125l0.296875 0.296875l-0.3125 0l0.046875 1.40625l0 1.640625l-1.328125 0zm2.40625 -2.96875q0.5 0 0.78125 -0.296875q0.296875 -0.296875 0.296875 -0.84375l0 -1.484375q0 -0.546875 -0.296875 -0.84375q-0.28125 -0.296875 -0.78125 -0.296875q-0.5 0 -0.796875 0.3125q-0.28125 0.296875 -0.28125 0.828125l0 1.484375q0 0.53125 0.28125 0.84375q0.296875 0.296875 0.796875 0.296875zm6.3625793 1.140625q-0.75 0 -1.296875 -0.28125q-0.546875 -0.28125 -0.859375 -0.796875q-0.296875 -0.515625 -0.296875 -1.21875l0 -1.453125q0 -0.703125 0.296875 -1.21875q0.3125 -0.515625 0.859375 -0.796875q0.546875 -0.28125 1.296875 -0.28125q0.75 0 1.296875 0.28125q0.546875 0.28125 0.84375 0.796875q0.296875 0.515625 0.296875 1.203125l0 1.46875q0 0.703125 -0.296875 1.21875q-0.296875 0.515625 -0.84375 0.796875q-0.546875 0.28125 -1.296875 0.28125zm0 -1.15625q0.53125 0 0.8125 -0.296875q0.296875 -0.296875 0.296875 -0.84375l0 -1.453125q0 -0.5625 -0.296875 -0.84375q-0.28125 -0.296875 -0.8125 -0.296875q-0.53125 0 -0.828125 0.296875q-0.296875 0.28125 -0.296875 0.84375l0 1.453125q0 0.546875 0.296875 0.84375q0.296875 0.296875 0.828125 0.296875zm4.018799 2.984375l0 -7.78125l1.296875 0l0 1.125l0.296875 0l-0.296875 0.296875q0 -0.703125 0.421875 -1.109375q0.421875 -0.421875 1.15625 -0.421875q0.875 0 1.40625 0.609375q0.53125 0.609375 0.53125 1.625l0 1.59375q0 0.6875 -0.234375 1.1875q-0.234375 0.5 -0.671875 0.78125q-0.4375 0.28125 -1.03125 0.28125q-0.734375 0 -1.15625 -0.40625q-0.421875 -0.421875 -0.421875 -1.125l0.296875 0.296875l-0.3125 0l0.046875 1.40625l0 1.640625l-1.328125 0zm2.40625 -2.96875q0.5 0 0.78125 -0.296875q0.296875 -0.296875 0.296875 -0.84375l0 -1.484375q0 -0.546875 -0.296875 -0.84375q-0.28125 -0.296875 -0.78125 -0.296875q-0.5 0 -0.796875 0.3125q-0.28125 0.296875 -0.28125 0.828125l0 1.484375q0 0.53125 0.28125 0.84375q0.296875 0.296875 0.796875 0.296875z" fill-rule="nonzero"/><path fill="#ffffff" d="m284.32294 73.600006l0 -1.390625q-1.015625 -0.078125 -1.59375 -0.640625q-0.5625 -0.5625 -0.578125 -1.484375l0.953125 0q0 0.53125 0.3125 0.859375q0.328125 0.328125 0.90625 0.40625l0 -2.796875l-0.296875 -0.078125q-0.796875 -0.25 -1.234375 -0.828125q-0.421875 -0.578125 -0.421875 -1.34375q0 -0.859375 0.515625 -1.40625q0.53125 -0.5625 1.4375 -0.640625l0 -1.4062538l0.625 0l0 1.3906288q0.890625 0.078125 1.421875 0.640625q0.53125 0.546875 0.546875 1.421875l-0.953125 0q0 -0.5 -0.265625 -0.8125q-0.265625 -0.3125 -0.75 -0.390625l0 2.640625l0.4375 0.140625q0.78125 0.25 1.203125 0.84375q0.421875 0.578125 0.421875 1.359375q0 0.875 -0.5625 1.453125q-0.5625 0.578125 -1.5 0.671875l0 1.390625l-0.625 0zm0.625 -2.25q0.53125 -0.09375 0.8125 -0.40625q0.296875 -0.3125 0.296875 -0.828125q0 -0.46875 -0.25 -0.8125q-0.25 -0.359375 -0.71875 -0.5l-0.140625 -0.046875l0 2.59375zm-0.625 -3.375l0 -2.875q-0.46875 0.078125 -0.734375 0.375q-0.265625 0.28125 -0.265625 0.734375q0 0.5625 0.34375 0.9375q0.34375 0.375 0.984375 0.46875l-0.328125 0.359375zm4.6438293 4.140625l0 -5.859375l0.9375 0l0 1.125l0.21875 0l-0.3125 0.6875q0 -0.953125 0.40625 -1.4375q0.421875 -0.484375 1.234375 -0.484375q0.921875 0 1.46875 0.578125q0.546875 0.578125 0.546875 1.578125l0 0.34375l-0.953125 0l0 -0.265625q0 -0.6875 -0.34375 -1.046875q-0.328125 -0.375 -0.953125 -0.375q-0.609375 0 -0.953125 0.375q-0.34375 0.375 -0.34375 1.046875l0 3.734375l-0.953125 0zm8.065674 0.109375q-0.875 0 -1.421875 -0.578125q-0.53125 -0.59375 -0.53125 -1.59375l0 -1.71875q0 -1.015625 0.53125 -1.59375q0.53125 -0.59375 1.421875 -0.59375q0.71875 0 1.15625 0.40625q0.4375 0.390625 0.4375 1.046875l-0.1875 -0.21875l0.203125 0l-0.015625 -1.34375l0 -1.703125l0.953125 0l0 7.78125l-0.953125 0l0 -1.125l-0.1875 0l0.1875 -0.21875q0 0.671875 -0.4375 1.0625q-0.4375 0.390625 -1.15625 0.390625zm0.3125 -0.828125q0.59375 0 0.9375 -0.375q0.34375 -0.375 0.34375 -1.03125l0 -1.609375q0 -0.65625 -0.34375 -1.03125q-0.34375 -0.375 -0.9375 -0.375q-0.609375 0 -0.96875 0.375q-0.34375 0.359375 -0.34375 1.03125l0 1.609375q0 0.671875 0.34375 1.046875q0.359375 0.359375 0.96875 0.359375zm4.1282043 0.71875l0 -0.875l2.078125 0l0 -4.109375l-1.8125 0l0 -0.875l2.765625 0l0 4.984375l1.984375 0l0 0.875l-5.015625 0zm2.453125 -6.921875q-0.359375 0 -0.5625 -0.171875q-0.203125 -0.1875 -0.203125 -0.5q0 -0.3125 0.203125 -0.5q0.203125 -0.18750381 0.5625 -0.18750381q0.34375 0 0.546875 0.18750381q0.203125 0.1875 0.203125 0.5q0 0.3125 -0.203125 0.5q-0.203125 0.171875 -0.546875 0.171875z" fill-rule="nonzero"/><path fill="#1b1c1f" d="m-3.937008E-6 1.6036745l265.48032 0l0 92.7874l-265.48032 0z" fill-rule="evenodd"/><path stroke="#000000" stroke-width="2.0" stroke-linejoin="round" stroke-linecap="butt" d="m-3.937008E-6 1.6036745l265.48032 0l0 92.7874l-265.48032 0z" fill-rule="evenodd"/><path fill="#e9d3b6" d="m45.69531 54.237377l0 -12.65625l3.890625 0q1.828125 0 2.90625 0.875q1.078125 0.875 1.078125 2.390625q0 0.84375 -0.390625 1.46875q-0.375 0.625 -1.03125 0.96875q-0.640625 0.34375 -1.484375 0.34375l0 -0.0625q0.90625 -0.015625 1.625 0.34375q0.71875 0.34375 1.140625 1.046875q0.4375 0.6875 0.4375 1.671875q0 1.09375 -0.515625 1.90625q-0.5 0.8125 -1.40625 1.265625q-0.90625 0.4375 -2.171875 0.4375l-4.078125 0zm2.125 -1.796875l1.8125 0q0.953125 0 1.5 -0.515625q0.546875 -0.515625 0.546875 -1.390625q0 -0.890625 -0.546875 -1.4375q-0.546875 -0.546875 -1.5 -0.546875l-1.8125 0l0 3.890625zm0 -5.640625l1.734375 0q0.859375 0 1.34375 -0.453125q0.5 -0.46875 0.5 -1.265625q0 -0.796875 -0.5 -1.234375q-0.484375 -0.453125 -1.34375 -0.453125l-1.734375 0l0 3.40625zm12.14682 7.609375q-1.828125 0 -2.875 -1.015625q-1.03125 -1.015625 -1.03125 -2.765625l0 -5.921875l2.171875 0l0 5.90625q0 0.921875 0.4375 1.421875q0.453125 0.484375 1.296875 0.484375q0.8125 0 1.265625 -0.484375q0.46875 -0.5 0.46875 -1.421875l0 -5.90625l2.15625 0l0 5.921875q0 1.75 -1.0625 2.765625q-1.046875 1.015625 -2.828125 1.015625zm8.740566 -0.171875l0 -6.515625l-2.609375 0l0 -1.953125l2.609375 0l0 -1.4375q0 -1.25 0.828125 -2.0q0.84375 -0.75 2.203125 -0.75l2.796875 0l0 1.90625l-2.734375 0q-0.421875 0 -0.671875 0.234375q-0.25 0.234375 -0.25 0.640625l0 1.40625l3.65625 0l0 1.953125l-3.65625 0l0 6.515625l-2.171875 0zm10.39682 0l0 -6.515625l-2.609375 0l0 -1.953125l2.609375 0l0 -1.4375q0 -1.25 0.828125 -2.0q0.84375 -0.75 2.203125 -0.75l2.796875 0l0 1.90625l-2.734375 0q-0.421875 0 -0.671875 0.234375q-0.25 0.234375 -0.25 0.640625l0 1.40625l3.65625 0l0 1.953125l-3.65625 0l0 6.515625l-2.171875 0zm12.068695 0.171875q-1.21875 0 -2.125 -0.46875q-0.890625 -0.46875 -1.390625 -1.296875q-0.484375 -0.84375 -0.484375 -1.96875l0 -2.390625q0 -1.140625 0.484375 -1.96875q0.5 -0.84375 1.390625 -1.3125q0.90625 -0.46875 2.125 -0.46875q1.1875 0 2.078125 0.46875q0.90625 0.46875 1.390625 1.3125q0.5 0.828125 0.5 1.96875l0 1.703125l-5.875 0l0 0.6875q0 1.0 0.484375 1.515625q0.484375 0.5 1.4375 0.5q0.71875 0 1.171875 -0.25q0.453125 -0.25 0.578125 -0.734375l2.125 0q-0.234375 1.234375 -1.3125 1.96875q-1.0625 0.734375 -2.578125 0.734375zm1.875 -5.625l0 -0.53125q0 -0.984375 -0.46875 -1.5q-0.46875 -0.53125 -1.40625 -0.53125q-0.9375 0 -1.421875 0.53125q-0.484375 0.53125 -0.484375 1.53125l0 0.359375l3.9375 -0.03125l-0.15625 0.171875zm4.92807 5.453125l0 -9.53125l2.046875 0l0 1.8125l0.53125 0l-0.640625 1.109375q0 -1.53125 0.6875 -2.3125q0.703125 -0.78125 2.0625 -0.78125q1.53125 0 2.40625 0.953125q0.890625 0.953125 0.890625 2.640625l0 0.6875l-2.265625 0l0 -0.53125q0 -0.921875 -0.484375 -1.421875q-0.46875 -0.515625 -1.296875 -0.515625q-0.84375 0 -1.3125 0.515625q-0.453125 0.5 -0.453125 1.421875l0 5.953125l-2.171875 0z" fill-rule="nonzero"/><path fill="#ffffff" d="m125.55117 56.315502q-2.46875 -0.609375 -3.84375 -2.390625q-1.359375 -1.78125 -1.359375 -4.359375l0 -3.125q0 -1.703125 0.625 -3.078125q0.640625 -1.375 1.8125 -2.328125q1.171875 -0.953125 2.765625 -1.359375l0 1.484375q-1.109375 0.25 -1.921875 1.0q-0.8125 0.734375 -1.265625 1.828125q-0.453125 1.078125 -0.453125 2.453125l0 3.125q0 1.328125 0.4375 2.421875q0.453125 1.09375 1.265625 1.8125q0.828125 0.71875 1.9375 0.96875l0 1.546875zm9.099953 -2.078125l0 -2.765625l-5.71875 0l0 -2.453125l5.0 -7.4375l1.703125 0l-5.140625 7.765625l0 0.703125l4.15625 0l0 -3.09375l1.546875 0l0 7.28125l-1.546875 0zm8.49057 0.171875q-1.171875 0 -2.03125 -0.453125q-0.84375 -0.46875 -1.3125 -1.296875q-0.46875 -0.84375 -0.46875 -1.96875l0 -5.546875q0 -1.140625 0.46875 -1.96875q0.46875 -0.84375 1.3125 -1.296875q0.859375 -0.46875 2.03125 -0.46875q1.171875 0 2.015625 0.46875q0.859375 0.453125 1.328125 1.296875q0.46875 0.828125 0.46875 1.96875l0 5.546875q0 1.125 -0.46875 1.96875q-0.46875 0.828125 -1.328125 1.296875q-0.859375 0.453125 -2.015625 0.453125zm0 -1.328125q1.03125 0 1.65625 -0.671875q0.640625 -0.671875 0.640625 -1.71875l0 -5.546875q0 -1.0625 -0.640625 -1.71875q-0.625 -0.671875 -1.65625 -0.671875q-1.046875 0 -1.6875 0.671875q-0.625 0.65625 -0.625 1.71875l0 5.546875q0 1.046875 0.625 1.71875q0.640625 0.671875 1.6875 0.671875zm0 -4.140625q-0.46875 0 -0.765625 -0.296875q-0.28125 -0.296875 -0.28125 -0.78125q0 -0.46875 0.28125 -0.75q0.296875 -0.296875 0.765625 -0.296875q0.46875 0 0.75 0.296875q0.28125 0.28125 0.28125 0.75q0 0.484375 -0.28125 0.78125q-0.28125 0.296875 -0.75 0.296875zm21.340515 5.46875q-1.171875 0 -1.890625 -0.625q-0.703125 -0.640625 -0.703125 -1.734375l0.3125 0.375l-0.3125 0l0 1.8125l-1.5625 0l0 -12.65625l1.5625 0l0 2.78125l-0.03125 2.15625l0.34375 0l-0.3125 0.375q0 -1.078125 0.71875 -1.71875q0.71875 -0.640625 1.875 -0.640625q1.4375 0 2.296875 0.953125q0.875 0.953125 0.875 2.59375l0 2.796875q0 1.625 -0.875 2.578125q-0.859375 0.953125 -2.296875 0.953125zm-0.515625 -1.34375q0.984375 0 1.546875 -0.59375q0.578125 -0.59375 0.578125 -1.703125l0 -2.59375q0 -1.109375 -0.578125 -1.703125q-0.5625 -0.59375 -1.546875 -0.59375q-0.953125 0 -1.515625 0.609375q-0.5625 0.609375 -0.5625 1.6875l0 2.59375q0 1.078125 0.5625 1.6875q0.5625 0.609375 1.515625 0.609375zm8.24057 4.296875l1.40625 -3.71875l-3.53125 -8.9375l1.734375 0l2.21875 5.890625q0.125 0.296875 0.21875 0.703125q0.109375 0.40625 0.171875 0.6875q0.078125 -0.28125 0.171875 -0.6875q0.109375 -0.40625 0.21875 -0.703125l2.078125 -5.890625l1.671875 0l-4.6875 12.65625l-1.671875 0zm13.55307 -3.125q-1.234375 0 -1.921875 -0.65625q-0.671875 -0.65625 -0.671875 -1.859375l0 -5.59375l-2.6875 0l0 -1.421875l2.6875 0l0 -2.6875l1.5625 0l0 2.6875l3.8125 0l0 1.421875l-3.8125 0l0 5.59375q0 1.09375 1.03125 1.09375l2.609375 0l0 1.421875l-2.609375 0zm9.36557 0.171875q-1.125 0 -1.96875 -0.453125q-0.84375 -0.453125 -1.3125 -1.265625q-0.453125 -0.828125 -0.453125 -1.921875l0 -2.59375q0 -1.109375 0.453125 -1.921875q0.46875 -0.8125 1.3125 -1.265625q0.84375 -0.453125 1.96875 -0.453125q1.125 0 1.953125 0.453125q0.84375 0.453125 1.296875 1.265625q0.46875 0.8125 0.46875 1.921875l0 1.671875l-5.921875 0l0 0.921875q0 1.125 0.5625 1.734375q0.578125 0.59375 1.640625 0.59375q0.890625 0 1.4375 -0.3125q0.5625 -0.328125 0.6875 -0.96875l1.5625 0q-0.15625 1.1875 -1.171875 1.890625q-1.015625 0.703125 -2.515625 0.703125zm2.203125 -5.59375l0 -0.640625q0 -1.125 -0.578125 -1.734375q-0.5625 -0.609375 -1.625 -0.609375q-1.0625 0 -1.640625 0.609375q-0.5625 0.609375 -0.5625 1.734375l0 0.5l4.515625 0l-0.109375 0.140625zm7.89682 5.5625q-0.96875 0 -1.6875 -0.296875q-0.71875 -0.3125 -1.15625 -0.859375q-0.421875 -0.5625 -0.5 -1.328125l1.5625 0q0.09375 0.5 0.546875 0.796875q0.46875 0.296875 1.234375 0.296875l0.71875 0q0.921875 0 1.375 -0.375q0.453125 -0.375 0.453125 -0.984375q0 -0.609375 -0.40625 -0.96875q-0.40625 -0.359375 -1.203125 -0.484375l-1.28125 -0.203125q-1.40625 -0.234375 -2.09375 -0.859375q-0.6875 -0.640625 -0.6875 -1.859375q0 -1.28125 0.8125 -1.984375q0.8125 -0.703125 2.453125 -0.703125l0.65625 0q1.359375 0 2.1875 0.640625q0.84375 0.640625 1.015625 1.734375l-1.5625 0q-0.09375 -0.453125 -0.515625 -0.71875q-0.421875 -0.265625 -1.125 -0.265625l-0.65625 0q-0.890625 0 -1.296875 0.328125q-0.40625 0.328125 -0.40625 0.984375q0 0.59375 0.34375 0.875q0.34375 0.265625 1.09375 0.390625l1.28125 0.203125q1.546875 0.25 2.25 0.90625q0.703125 0.65625 0.703125 1.90625q0 1.3125 -0.84375 2.078125q-0.84375 0.75 -2.546875 0.75l-0.71875 0zm7.49057 1.9375l0 -1.546875q1.125 -0.25 1.9375 -0.96875q0.8125 -0.71875 1.25 -1.8125q0.4375 -1.09375 0.4375 -2.421875l0 -3.125q0 -1.375 -0.453125 -2.453125q-0.4375 -1.09375 -1.25 -1.828125q-0.8125 -0.75 -1.921875 -1.0l0 -1.484375q1.609375 0.40625 2.765625 1.359375q1.15625 0.953125 1.78125 2.328125q0.640625 1.375 0.640625 3.078125l0 3.125q0 2.578125 -1.375 4.359375q-1.359375 1.78125 -3.8125 2.390625z" fill-rule="nonzero"/><path fill="#1b1c1f" d="m322.1538 29.35774l57.417297 0l0 65.03937l-57.417297 0z" fill-rule="evenodd"/><path stroke="#000000" stroke-width="2.0" stroke-linejoin="round" stroke-linecap="butt" d="m322.1538 29.35774l57.417297 0l0 65.03937l-57.417297 0z" fill-rule="evenodd"/><path fill="#e9d3b6" d="m335.86877 66.67743l0 -9.734375l2.890625 0q0.984375 0 1.703125 0.375q0.734375 0.375 1.125 1.0625q0.40625 0.671875 0.40625 1.609375l0 3.640625q0 0.921875 -0.40625 1.609375q-0.390625 0.671875 -1.125 1.0625q-0.71875 0.375 -1.703125 0.375l-2.890625 0zm1.671875 -1.53125l1.21875 0q0.71875 0 1.140625 -0.40625q0.4375 -0.40625 0.4375 -1.109375l0 -3.640625q0 -0.703125 -0.4375 -1.109375q-0.421875 -0.40625 -1.140625 -0.40625l-1.21875 0l0 6.671875zm5.7937317 1.53125l2.453125 -9.734375l2.140625 0l2.46875 9.734375l-1.703125 0l-0.53125 -2.359375l-2.59375 0l-0.53125 2.359375l-1.703125 0zm2.546875 -3.71875l1.96875 0l-0.59375 -2.609375q-0.140625 -0.65625 -0.25 -1.171875q-0.109375 -0.53125 -0.140625 -0.78125q-0.046875 0.25 -0.140625 0.78125q-0.09375 0.515625 -0.265625 1.15625l-0.578125 2.625zm5.996826 3.71875l0 -9.734375l3.078125 0q0.96875 0 1.671875 0.359375q0.71875 0.359375 1.125 1.015625q0.40625 0.640625 0.40625 1.515625q0 0.96875 -0.5 1.703125q-0.484375 0.734375 -1.3125 1.03125l1.9375 4.109375l-1.859375 0l-1.703125 -3.859375l-1.1875 0l0 3.859375l-1.65625 0zm1.65625 -5.328125l1.421875 0q0.703125 0 1.09375 -0.390625q0.40625 -0.390625 0.40625 -1.0625q0 -0.703125 -0.40625 -1.09375q-0.390625 -0.390625 -1.09375 -0.390625l-1.421875 0l0 2.9375zm6.3406067 5.328125l0 -9.734375l1.65625 0l0 3.9375l1.171875 0l1.828125 -3.9375l1.8125 0l-2.1875 4.671875l2.28125 5.0625l-1.84375 0l-1.921875 -4.28125l-1.140625 0l0 4.28125l-1.65625 0z" fill-rule="nonzero"/><path fill="#1b1c1f" d="m377.18262 29.356844l57.417328 0l0 65.039375l-57.417328 0z" fill-rule="evenodd"/><path stroke="#000000" stroke-width="2.0" stroke-linejoin="round" stroke-linecap="butt" d="m377.18262 29.356844l57.417328 0l0 65.039375l-57.417328 0z" fill-rule="evenodd"/><path fill="#e9d3b6" d="m397.1287 48.438404l0 -7.78125l1.296875 0l0 1.125l0.296875 0l-0.296875 0.296875q0 -0.703125 0.421875 -1.109375q0.421875 -0.421875 1.15625 -0.421875q0.875 0 1.40625 0.609375q0.53125 0.609375 0.53125 1.625l0 1.59375q0 0.6875 -0.234375 1.1875q-0.234375 0.5 -0.671875 0.78125q-0.4375 0.28125 -1.03125 0.28125q-0.734375 0 -1.15625 -0.40625q-0.421875 -0.421875 -0.421875 -1.125l0.296875 0.296875l-0.3125 0l0.046875 1.40625l0 1.640625l-1.328125 0zm2.40625 -2.96875q0.5 0 0.78125 -0.296875q0.296875 -0.296875 0.296875 -0.84375l0 -1.484375q0 -0.546875 -0.296875 -0.84375q-0.28125 -0.296875 -0.78125 -0.296875q-0.5 0 -0.796875 0.3125q-0.28125 0.296875 -0.28125 0.828125l0 1.484375q0 0.53125 0.28125 0.84375q0.296875 0.296875 0.796875 0.296875zm6.3625793 1.140625q-0.75 0 -1.296875 -0.28125q-0.546875 -0.28125 -0.859375 -0.796875q-0.296875 -0.515625 -0.296875 -1.21875l0 -1.453125q0 -0.703125 0.296875 -1.21875q0.3125 -0.515625 0.859375 -0.796875q0.546875 -0.28125 1.296875 -0.28125q0.75 0 1.296875 0.28125q0.546875 0.28125 0.84375 0.796875q0.296875 0.515625 0.296875 1.203125l0 1.46875q0 0.703125 -0.296875 1.21875q-0.296875 0.515625 -0.84375 0.796875q-0.546875 0.28125 -1.296875 0.28125zm0 -1.15625q0.53125 0 0.8125 -0.296875q0.296875 -0.296875 0.296875 -0.84375l0 -1.453125q0 -0.5625 -0.296875 -0.84375q-0.28125 -0.296875 -0.8125 -0.296875q-0.53125 0 -0.828125 0.296875q-0.296875 0.28125 -0.296875 0.84375l0 1.453125q0 0.546875 0.296875 0.84375q0.296875 0.296875 0.828125 0.296875zm4.018799 2.984375l0 -7.78125l1.296875 0l0 1.125l0.296875 0l-0.296875 0.296875q0 -0.703125 0.421875 -1.109375q0.421875 -0.421875 1.15625 -0.421875q0.875 0 1.40625 0.609375q0.53125 0.609375 0.53125 1.625l0 1.59375q0 0.6875 -0.234375 1.1875q-0.234375 0.5 -0.671875 0.78125q-0.4375 0.28125 -1.03125 0.28125q-0.734375 0 -1.15625 -0.40625q-0.421875 -0.421875 -0.421875 -1.125l0.296875 0.296875l-0.3125 0l0.046875 1.40625l0 1.640625l-1.328125 0zm2.40625 -2.96875q0.5 0 0.78125 -0.296875q0.296875 -0.296875 0.296875 -0.84375l0 -1.484375q0 -0.546875 -0.296875 -0.84375q-0.28125 -0.296875 -0.78125 -0.296875q-0.5 0 -0.796875 0.3125q-0.28125 0.296875 -0.28125 0.828125l0 1.484375q0 0.53125 0.28125 0.84375q0.296875 0.296875 0.796875 0.296875z" fill-rule="nonzero"/><path fill="#ffffff" d="m392.84427 60.800903l0 -1.390625q-1.015625 -0.078125 -1.59375 -0.640625q-0.5625 -0.5625 -0.578125 -1.484375l0.953125 0q0 0.53125 0.3125 0.859375q0.328125 0.328125 0.90625 0.40625l0 -2.796875l-0.296875 -0.078125q-0.796875 -0.25 -1.234375 -0.828125q-0.421875 -0.578125 -0.421875 -1.34375q0 -0.859375 0.515625 -1.40625q0.53125 -0.5625 1.4375 -0.640625l0 -1.40625l0.625 0l0 1.390625q0.890625 0.078125 1.421875 0.640625q0.53125 0.546875 0.546875 1.421875l-0.953125 0q0 -0.5 -0.265625 -0.8125q-0.265625 -0.3125 -0.75 -0.390625l0 2.640625l0.4375 0.140625q0.78125 0.25 1.203125 0.84375q0.421875 0.578125 0.421875 1.359375q0 0.875 -0.5625 1.453125q-0.5625 0.578125 -1.5 0.671875l0 1.390625l-0.625 0zm0.625 -2.25q0.53125 -0.09375 0.8125 -0.40625q0.296875 -0.3125 0.296875 -0.828125q0 -0.46875 -0.25 -0.8125q-0.25 -0.359375 -0.71875 -0.5l-0.140625 -0.046875l0 2.59375zm-0.625 -3.375l0 -2.875q-0.46875 0.078125 -0.734375 0.375q-0.265625 0.28125 -0.265625 0.734375q0 0.5625 0.34375 0.9375q0.34375 0.375 0.984375 0.46875l-0.328125 0.359375zm4.643799 4.140625l0 -5.859375l0.9375 0l0 1.125l0.21875 0l-0.3125 0.6875q0 -0.953125 0.40625 -1.4375q0.421875 -0.484375 1.234375 -0.484375q0.921875 0 1.46875 0.578125q0.546875 0.578125 0.546875 1.578125l0 0.34375l-0.953125 0l0 -0.265625q0 -0.6875 -0.34375 -1.046875q-0.328125 -0.375 -0.953125 -0.375q-0.609375 0 -0.953125 0.375q-0.34375 0.375 -0.34375 1.046875l0 3.734375l-0.953125 0zm8.221954 0.078125q-0.59375 0 -1.046875 -0.171875q-0.4375 -0.1875 -0.703125 -0.53125q-0.25 -0.34375 -0.3125 -0.8125l0.96875 0q0.0625 0.3125 0.34375 0.5q0.28125 0.171875 0.75 0.171875l0.453125 0q0.5625 0 0.828125 -0.21875q0.28125 -0.234375 0.28125 -0.625q0 -0.375 -0.25 -0.59375q-0.25 -0.21875 -0.734375 -0.296875l-0.796875 -0.125q-0.859375 -0.140625 -1.28125 -0.53125q-0.421875 -0.390625 -0.421875 -1.140625q0 -0.78125 0.5 -1.21875q0.5 -0.4375 1.5 -0.4375l0.40625 0q0.84375 0 1.359375 0.40625q0.515625 0.390625 0.625 1.0625l-0.96875 0q-0.0625 -0.28125 -0.328125 -0.4375q-0.25 -0.171875 -0.6875 -0.171875l-0.40625 0q-0.53125 0 -0.78125 0.203125q-0.25 0.203125 -0.25 0.609375q0 0.359375 0.203125 0.53125q0.21875 0.171875 0.671875 0.25l0.796875 0.125q0.9375 0.140625 1.375 0.546875q0.4375 0.40625 0.4375 1.171875q0 0.8125 -0.53125 1.28125q-0.515625 0.453125 -1.546875 0.453125l-0.453125 0zm4.284424 -0.078125l0 -0.875l2.078125 0l0 -4.109375l-1.8125 0l0 -0.875l2.765625 0l0 4.984375l1.984375 0l0 0.875l-5.015625 0zm2.453125 -6.921875q-0.359375 0 -0.5625 -0.171875q-0.203125 -0.1875 -0.203125 -0.5q0 -0.3125 0.203125 -0.5q0.203125 -0.1875 0.5625 -0.1875q0.34375 0 0.546875 0.1875q0.203125 0.1875 0.203125 0.5q0 0.3125 -0.203125 0.5q-0.203125 0.171875 -0.546875 0.171875zm4.8469543 8.625l0.859375 -3.3125l1.375 0l-1.375 3.3125l-0.859375 0zm1.28125 -6.078125q-0.359375 0 -0.578125 -0.21875q-0.21875 -0.21875 -0.21875 -0.578125q0 -0.34375 0.21875 -0.5625q0.234375 -0.234375 0.578125 -0.234375l0.203125 0q0.34375 0 0.578125 0.234375q0.234375 0.21875 0.234375 0.5625q0 0.359375 -0.234375 0.578125q-0.21875 0.21875 -0.578125 0.21875l-0.203125 0z" fill-rule="nonzero"/><path fill="#e9d3b6" d="m397.1287 74.0384l0 -7.78125l1.296875 0l0 1.125l0.296875 0l-0.296875 0.296875q0 -0.703125 0.421875 -1.109375q0.421875 -0.421875 1.15625 -0.421875q0.875 0 1.40625 0.609375q0.53125 0.609375 0.53125 1.625l0 1.59375q0 0.6875 -0.234375 1.1875q-0.234375 0.5 -0.671875 0.78125q-0.4375 0.28125 -1.03125 0.28125q-0.734375 0 -1.15625 -0.40625q-0.421875 -0.421875 -0.421875 -1.125l0.296875 0.296875l-0.3125 0l0.046875 1.40625l0 1.640625l-1.328125 0zm2.40625 -2.96875q0.5 0 0.78125 -0.296875q0.296875 -0.296875 0.296875 -0.84375l0 -1.484375q0 -0.546875 -0.296875 -0.84375q-0.28125 -0.296875 -0.78125 -0.296875q-0.5 0 -0.796875 0.3125q-0.28125 0.296875 -0.28125 0.828125l0 1.484375q0 0.53125 0.28125 0.84375q0.296875 0.296875 0.796875 0.296875zm6.3625793 1.140625q-0.75 0 -1.296875 -0.28125q-0.546875 -0.28125 -0.859375 -0.796875q-0.296875 -0.515625 -0.296875 -1.21875l0 -1.453125q0 -0.703125 0.296875 -1.21875q0.3125 -0.515625 0.859375 -0.796875q0.546875 -0.28125 1.296875 -0.28125q0.75 0 1.296875 0.28125q0.546875 0.28125 0.84375 0.796875q0.296875 0.515625 0.296875 1.203125l0 1.46875q0 0.703125 -0.296875 1.21875q-0.296875 0.515625 -0.84375 0.796875q-0.546875 0.28125 -1.296875 0.28125zm0 -1.15625q0.53125 0 0.8125 -0.296875q0.296875 -0.296875 0.296875 -0.84375l0 -1.453125q0 -0.5625 -0.296875 -0.84375q-0.28125 -0.296875 -0.8125 -0.296875q-0.53125 0 -0.828125 0.296875q-0.296875 0.28125 -0.296875 0.84375l0 1.453125q0 0.546875 0.296875 0.84375q0.296875 0.296875 0.828125 0.296875zm4.018799 2.984375l0 -7.78125l1.296875 0l0 1.125l0.296875 0l-0.296875 0.296875q0 -0.703125 0.421875 -1.109375q0.421875 -0.421875 1.15625 -0.421875q0.875 0 1.40625 0.609375q0.53125 0.609375 0.53125 1.625l0 1.59375q0 0.6875 -0.234375 1.1875q-0.234375 0.5 -0.671875 0.78125q-0.4375 0.28125 -1.03125 0.28125q-0.734375 0 -1.15625 -0.40625q-0.421875 -0.421875 -0.421875 -1.125l0.296875 0.296875l-0.3125 0l0.046875 1.40625l0 1.640625l-1.328125 0zm2.40625 -2.96875q0.5 0 0.78125 -0.296875q0.296875 -0.296875 0.296875 -0.84375l0 -1.484375q0 -0.546875 -0.296875 -0.84375q-0.28125 -0.296875 -0.78125 -0.296875q-0.5 0 -0.796875 0.3125q-0.28125 0.296875 -0.28125 0.828125l0 1.484375q0 0.53125 0.28125 0.84375q0.296875 0.296875 0.796875 0.296875z" fill-rule="nonzero"/><path fill="#ffffff" d="m396.04117 86.400894l0 -1.390625q-1.015625 -0.078125 -1.59375 -0.640625q-0.5625 -0.5625 -0.578125 -1.484375l0.953125 0q0 0.53125 0.3125 0.859375q0.328125 0.328125 0.90625 0.40625l0 -2.796875l-0.296875 -0.078125q-0.796875 -0.25 -1.234375 -0.828125q-0.421875 -0.578125 -0.421875 -1.34375q0 -0.859375 0.515625 -1.40625q0.53125 -0.5625 1.4375 -0.640625l0 -1.40625l0.625 0l0 1.390625q0.890625 0.078125 1.421875 0.640625q0.53125 0.546875 0.546875 1.421875l-0.953125 0q0 -0.5 -0.265625 -0.8125q-0.265625 -0.3125 -0.75 -0.390625l0 2.640625l0.4375 0.140625q0.78125 0.25 1.203125 0.84375q0.421875 0.578125 0.421875 1.359375q0 0.875 -0.5625 1.453125q-0.5625 0.578125 -1.5 0.671875l0 1.390625l-0.625 0zm0.625 -2.25q0.53125 -0.09375 0.8125 -0.40625q0.296875 -0.3125 0.296875 -0.828125q0 -0.46875 -0.25 -0.8125q-0.25 -0.359375 -0.71875 -0.5l-0.140625 -0.046875l0 2.59375zm-0.625 -3.375l0 -2.875q-0.46875 0.078125 -0.734375 0.375q-0.265625 0.28125 -0.265625 0.734375q0 0.5625 0.34375 0.9375q0.34375 0.375 0.984375 0.46875l-0.328125 0.359375zm4.643799 4.140625l0 -5.859375l0.9375 0l0 1.125l0.21875 0l-0.3125 0.6875q0 -0.953125 0.40625 -1.4375q0.421875 -0.484375 1.234375 -0.484375q0.921875 0 1.46875 0.578125q0.546875 0.578125 0.546875 1.578125l0 0.34375l-0.953125 0l0 -0.265625q0 -0.6875 -0.34375 -1.046875q-0.328125 -0.375 -0.953125 -0.375q-0.609375 0 -0.953125 0.375q-0.34375 0.375 -0.34375 1.046875l0 3.734375l-0.953125 0zm6.1594543 0l0 -0.875l2.109375 0l0 -6.109375l-2.109375 1.578125l0 -1.0625l1.765625 -1.3125l1.3125 0l0 6.90625l1.71875 0l0 0.875l-4.796875 0zm8.612549 0.109375q-0.9375 0 -1.546875 -0.484375q-0.609375 -0.5 -0.71875 -1.328125l0.953125 0q0.0625 0.453125 0.390625 0.703125q0.34375 0.25 0.9375 0.25q0.671875 0 1.0 -0.359375q0.34375 -0.359375 0.34375 -1.015625l0 -0.765625q0 -0.65625 -0.34375 -1.015625q-0.328125 -0.359375 -0.984375 -0.359375q-0.421875 0 -0.734375 0.21875q-0.3125 0.203125 -0.4375 0.578125l-0.96875 0l0.0625 -4.3125l4.09375 0l0 0.875l-3.171875 0l-0.03125 2.59375l0.296875 0l-0.296875 0.28125q0 -0.515625 0.390625 -0.796875q0.40625 -0.28125 1.078125 -0.28125q0.953125 -0.015625 1.46875 0.578125q0.53125 0.59375 0.53125 1.640625l0 0.765625q0 1.03125 -0.609375 1.640625q-0.609375 0.59375 -1.703125 0.59375z" fill-rule="nonzero"/><path fill="#1b1c1f" d="m433.872 29.358639l57.417328 0l0 65.03937l-57.417328 0z" fill-rule="evenodd"/><path stroke="#000000" stroke-width="2.0" stroke-linejoin="round" stroke-linecap="butt" d="m433.872 29.358639l57.417328 0l0 65.03937l-57.417328 0z" fill-rule="evenodd"/><path fill="#e9d3b6" d="m450.61826 66.81895q-1.0 0 -1.734375 -0.328125q-0.734375 -0.34375 -1.140625 -0.953125q-0.390625 -0.625 -0.390625 -1.46875l1.65625 0q0 0.59375 0.4375 0.9375q0.4375 0.34375 1.171875 0.34375q0.734375 0 1.140625 -0.328125q0.40625 -0.34375 0.40625 -0.921875q0 -0.4999962 -0.296875 -0.8593712q-0.28125 -0.375 -0.8125 -0.5l-1.125 -0.3125q-1.140625 -0.296875 -1.765625 -1.046875q-0.625 -0.765625 -0.625 -1.84375q0 -0.828125 0.375 -1.4375q0.375 -0.625 1.0625 -0.953125q0.6875 -0.328125 1.625 -0.328125q1.40625 0 2.234375 0.734375q0.828125 0.71875 0.84375 1.9375l-1.671875 0q0 -0.5625 -0.375 -0.890625q-0.375 -0.328125 -1.046875 -0.328125q-0.65625 0 -1.015625 0.3125q-0.359375 0.296875 -0.359375 0.859375q0 0.5 0.265625 0.859375q0.28125 0.34375 0.796875 0.5l1.15625 0.3125q1.171875 0.296875 1.78125 1.046875q0.609375 0.75 0.609375 1.8593712q0 0.828125 -0.40625 1.46875q-0.390625 0.625 -1.109375 0.984375q-0.71875 0.34375 -1.6875 0.34375zm5.090576 -0.140625l0 -1.46875l2.53125 0l0 -6.781246l-2.546875 1.890625l0 -1.75l2.234375 -1.625l1.96875 0l0 8.265621l2.046875 0l0 1.46875l-6.234375 0zm7.8718567 0l0 -9.734371l2.890625 0q0.984375 0 1.703125 0.375q0.734375 0.375 1.125 1.0625q0.40625 0.671875 0.40625 1.609375l0 3.640625q0 0.9218712 -0.40625 1.6093712q-0.390625 0.671875 -1.125 1.0625q-0.71875 0.375 -1.703125 0.375l-2.890625 0zm1.671875 -1.53125l1.21875 0q0.71875 0 1.140625 -0.40625q0.4375 -0.40625 0.4375 -1.1093712l0 -3.640625q0 -0.703125 -0.4375 -1.109375q-0.421875 -0.40625 -1.140625 -0.40625l-1.21875 0l0 6.671871zm9.231201 1.671875q-0.953125 0 -1.65625 -0.34375q-0.6875 -0.359375 -1.078125 -0.984375q-0.390625 -0.625 -0.390625 -1.484375l1.6875 0q0 0.65625 0.375 1.03125q0.375 0.359375 1.078125 0.359375q0.6875 0 1.0625 -0.375q0.375 -0.375 0.375 -1.015625l0 -0.7499962q0 -0.65625 -0.375 -1.015625q-0.375 -0.375 -1.0625 -0.375l-1.09375 0l0 -1.5l2.140625 -1.984375l-3.75 0l0 -1.4375l5.4375 0l0 1.515625l-2.734375 2.515625l0 -0.53125q1.4375 0 2.265625 0.765625q0.84375 0.75 0.84375 2.046875l0 0.7499962q0 0.859375 -0.390625 1.484375q-0.375 0.625 -1.09375 0.984375q-0.703125 0.34375 -1.640625 0.34375z" fill-rule="nonzero"/><path fill="#1b1c1f" d="m491.29996 29.355946l66.17325 0l0 65.03937l-66.17325 0z" fill-rule="evenodd"/><path stroke="#000000" stroke-width="2.0" stroke-linejoin="round" stroke-linecap="butt" d="m491.29996 29.355946l66.17325 0l0 65.03937l-66.17325 0z" fill-rule="evenodd"/><path fill="#ffffff" d="m508.40823 59.425007q-0.78125 0 -1.34375 -0.265625q-0.5625 -0.265625 -0.875 -0.734375q-0.296875 -0.484375 -0.296875 -1.125q0 -0.703125 0.390625 -1.203125q0.390625 -0.5 1.171875 -0.859375l1.1875 -0.53125q0.390625 -0.1875 0.609375 -0.484375q0.21875 -0.3125 0.21875 -0.703125q0 -0.4375 -0.296875 -0.6875q-0.28125 -0.265625 -0.765625 -0.265625q-0.5 0 -0.796875 0.265625q-0.28125 0.265625 -0.28125 0.703125q0 0.375 0.21875 0.6875q0.21875 0.296875 0.59375 0.46875l1.1875 0.546875q0.84375 0.375 1.21875 0.875q0.375 0.5 0.375 1.1875q0 0.984375 -0.6875 1.5625q-0.671875 0.5625 -1.828125 0.5625zm0 -1.140625q0.546875 0 0.875 -0.296875q0.328125 -0.296875 0.328125 -0.765625q0 -0.375 -0.234375 -0.703125q-0.21875 -0.34375 -0.609375 -0.53125l-1.265625 -0.578125q-0.734375 -0.34375 -1.109375 -0.8125q-0.375 -0.484375 -0.375 -1.140625q0 -0.59375 0.28125 -1.046875q0.296875 -0.46875 0.828125 -0.71875q0.546875 -0.265625 1.28125 -0.265625q0.734375 0 1.25 0.265625q0.53125 0.25 0.828125 0.71875q0.296875 0.453125 0.296875 1.046875q0 0.671875 -0.375 1.140625q-0.375 0.46875 -1.09375 0.8125l-1.28125 0.59375q-0.390625 0.171875 -0.609375 0.5q-0.21875 0.328125 -0.21875 0.703125q0 0.484375 0.3125 0.78125q0.328125 0.296875 0.890625 0.296875zm4.6750793 -1.875l0 -1.234375l3.421875 0l0 1.234375l-3.421875 0zm8.612549 3.015625q-0.734375 0 -1.15625 -0.40625q-0.421875 -0.421875 -0.421875 -1.125l0.296875 0.296875l-0.296875 0l0 1.125l-1.296875 0l0 -7.78125l1.328125 0l0 1.640625l-0.046875 1.40625l0.3125 0l-0.296875 0.296875q0 -0.703125 0.421875 -1.109375q0.421875 -0.421875 1.15625 -0.421875q0.875 0 1.40625 0.609375q0.53125 0.609375 0.53125 1.640625l0 1.59375q0 1.015625 -0.53125 1.625q-0.53125 0.609375 -1.40625 0.609375zm-0.46875 -1.15625q0.5 0 0.78125 -0.296875q0.296875 -0.296875 0.296875 -0.84375l0 -1.484375q0 -0.546875 -0.296875 -0.84375q-0.28125 -0.296875 -0.78125 -0.296875q-0.5 0 -0.796875 0.3125q-0.28125 0.296875 -0.28125 0.828125l0 1.484375q0 0.53125 0.28125 0.84375q0.296875 0.296875 0.796875 0.296875zm4.925049 2.96875l0.828125 -2.234375l-2.1875 -5.546875l1.453125 0l1.09375 3.0q0.078125 0.234375 0.15625 0.59375q0.09375 0.34375 0.140625 0.5625q0.046875 -0.21875 0.125 -0.5625q0.09375 -0.359375 0.1875 -0.59375l1.015625 -3.0l1.40625 0l-2.8125 7.78125l-1.40625 0zm8.471985 -1.921875q-0.84375 0 -1.328125 -0.46875q-0.46875 -0.46875 -0.46875 -1.296875l0 -2.890625l-1.59375 0l0 -1.203125l1.59375 0l0 -1.65625l1.34375 0l0 1.65625l2.25 0l0 1.203125l-2.25 0l0 2.890625q0 0.5625 0.546875 0.5625l1.59375 0l0 1.203125l-1.6875 0zm5.753174 0.109375q-0.734375 0 -1.296875 -0.28125q-0.546875 -0.296875 -0.859375 -0.8125q-0.296875 -0.515625 -0.296875 -1.203125l0 -1.484375q0 -0.6875 0.296875 -1.203125q0.3125 -0.515625 0.859375 -0.796875q0.5625 -0.296875 1.296875 -0.296875q0.734375 0 1.28125 0.296875q0.5625 0.28125 0.859375 0.796875q0.296875 0.515625 0.296875 1.203125l0 1.0625l-3.609375 0l0 0.421875q0 0.609375 0.296875 0.921875q0.296875 0.3125 0.890625 0.3125q0.453125 0 0.71875 -0.140625q0.28125 -0.15625 0.359375 -0.46875l1.3125 0q-0.15625 0.765625 -0.8125 1.21875q-0.65625 0.453125 -1.59375 0.453125zm1.15625 -3.46875l0 -0.3125q0 -0.609375 -0.296875 -0.9375q-0.28125 -0.328125 -0.859375 -0.328125q-0.578125 0 -0.875 0.34375q-0.296875 0.328125 -0.296875 0.921875l0 0.234375l2.421875 -0.03125l-0.09375 0.109375z" fill-rule="nonzero"/><path fill="#ffffff" d="m512.2458 72.11563q-0.84375 0 -1.328125 -0.46875q-0.46875 -0.46875 -0.46875 -1.296875l0 -2.890625l-1.59375 0l0 -1.203125l1.59375 0l0 -1.65625l1.34375 0l0 1.65625l2.25 0l0 1.203125l-2.25 0l0 2.890625q0 0.5625 0.546875 0.5625l1.59375 0l0 1.203125l-1.6875 0zm3.5500488 0l0 -5.859375l1.265625 0l0 1.125l0.328125 0l-0.40625 0.671875q0 -0.953125 0.421875 -1.421875q0.4375 -0.484375 1.265625 -0.484375q0.953125 0 1.5 0.59375q0.546875 0.578125 0.546875 1.609375l0 0.4375l-1.40625 0l0 -0.34375q0 -0.5625 -0.296875 -0.859375q-0.28125 -0.3125 -0.796875 -0.3125q-0.515625 0 -0.8125 0.3125q-0.28125 0.296875 -0.28125 0.859375l0 3.671875l-1.328125 0zm7.940674 0.109375q-0.90625 0 -1.4375 -0.484375q-0.515625 -0.484375 -0.515625 -1.28125q0 -0.875 0.578125 -1.34375q0.578125 -0.46875 1.625 -0.46875l1.46875 0l0 -0.5q0 -0.421875 -0.28125 -0.65625q-0.28125 -0.25 -0.75 -0.25q-0.4375 0 -0.734375 0.203125q-0.28125 0.1875 -0.34375 0.515625l-1.296875 0q0.09375 -0.828125 0.75 -1.3125q0.65625 -0.5 1.65625 -0.5q1.078125 0 1.703125 0.546875q0.625 0.53125 0.625 1.453125l0 3.96875l-1.28125 0l0 -1.015625l-0.21875 0l0.21875 -0.296875q0 0.65625 -0.484375 1.046875q-0.484375 0.375 -1.28125 0.375zm0.4375 -1.0q0.5625 0 0.921875 -0.28125q0.359375 -0.296875 0.359375 -0.75l0 -0.71875l-1.4375 0q-0.40625 0 -0.65625 0.234375q-0.25 0.234375 -0.25 0.609375q0 0.421875 0.28125 0.671875q0.296875 0.234375 0.78125 0.234375zm6.378235 0.984375q-0.671875 0 -1.171875 -0.203125q-0.5 -0.21875 -0.78125 -0.59375q-0.28125 -0.390625 -0.296875 -0.890625l1.328125 0q0.015625 0.265625 0.265625 0.4375q0.25 0.171875 0.65625 0.171875l0.46875 0q0.5 0 0.734375 -0.1875q0.25 -0.1875 0.25 -0.515625q0 -0.3125 -0.21875 -0.484375q-0.21875 -0.1875 -0.671875 -0.234375l-0.734375 -0.109375q-1.0 -0.140625 -1.46875 -0.53125q-0.46875 -0.390625 -0.46875 -1.1875q0 -0.8125 0.546875 -1.265625q0.5625 -0.453125 1.640625 -0.453125l0.40625 0q0.984375 0 1.5625 0.4375q0.59375 0.4375 0.625 1.171875l-1.328125 0q-0.03125 -0.234375 -0.265625 -0.375q-0.21875 -0.15625 -0.59375 -0.15625l-0.40625 0q-0.453125 0 -0.671875 0.171875q-0.203125 0.15625 -0.203125 0.46875q0 0.296875 0.171875 0.453125q0.1875 0.140625 0.59375 0.203125l0.765625 0.109375q1.03125 0.140625 1.53125 0.5625q0.5 0.40625 0.5 1.203125q0 0.84375 -0.578125 1.328125q-0.578125 0.46875 -1.71875 0.46875l-0.46875 0zm4.253174 -0.09375l0 -7.78125l1.328125 0l0 1.921875l-0.03125 1.125l0.359375 0l-0.359375 0.296875q0 -0.71875 0.421875 -1.125q0.421875 -0.40625 1.15625 -0.40625q0.859375 0 1.375 0.578125q0.515625 0.578125 0.515625 1.546875l0 3.84375l-1.328125 0l0 -3.703125q0 -0.53125 -0.28125 -0.8125q-0.28125 -0.296875 -0.78125 -0.296875q-0.484375 0 -0.765625 0.296875q-0.28125 0.296875 -0.28125 0.84375l0 3.671875l-1.328125 0z" fill-rule="nonzero"/><path fill="#1b1c1f" d="m557.4868 29.358639l57.41736 0l0 65.03937l-57.41736 0z" fill-rule="evenodd"/><path stroke="#000000" stroke-width="2.0" stroke-linejoin="round" stroke-linecap="butt" d="m557.4868 29.358639l57.41736 0l0 65.03937l-57.41736 0z" fill-rule="evenodd"/><path fill="#e9d3b6" d="m577.4329 61.2402l0 -7.78125l1.296875 0l0 1.125l0.296875 0l-0.296875 0.296875q0 -0.703125 0.421875 -1.109375q0.421875 -0.421875 1.15625 -0.421875q0.875 0 1.40625 0.609375q0.53125 0.609375 0.53125 1.625l0 1.59375q0 0.6875 -0.234375 1.1875q-0.234375 0.5 -0.671875 0.78125q-0.4375 0.28125 -1.03125 0.28125q-0.734375 0 -1.15625 -0.40625q-0.421875 -0.421875 -0.421875 -1.125l0.296875 0.296875l-0.3125 0l0.046875 1.40625l0 1.640625l-1.328125 0zm2.40625 -2.96875q0.5 0 0.78125 -0.296875q0.296875 -0.296875 0.296875 -0.84375l0 -1.484375q0 -0.546875 -0.296875 -0.84375q-0.28125 -0.296875 -0.78125 -0.296875q-0.5 0 -0.796875 0.3125q-0.28125 0.296875 -0.28125 0.828125l0 1.484375q0 0.53125 0.28125 0.84375q0.296875 0.296875 0.796875 0.296875zm6.362549 1.140625q-0.75 0 -1.296875 -0.28125q-0.546875 -0.28125 -0.859375 -0.796875q-0.296875 -0.515625 -0.296875 -1.21875l0 -1.453125q0 -0.703125 0.296875 -1.21875q0.3125 -0.515625 0.859375 -0.796875q0.546875 -0.28125 1.296875 -0.28125q0.75 0 1.296875 0.28125q0.546875 0.28125 0.84375 0.796875q0.296875 0.515625 0.296875 1.203125l0 1.46875q0 0.703125 -0.296875 1.21875q-0.296875 0.515625 -0.84375 0.796875q-0.546875 0.28125 -1.296875 0.28125zm0 -1.15625q0.53125 0 0.8125 -0.296875q0.296875 -0.296875 0.296875 -0.84375l0 -1.453125q0 -0.5625 -0.296875 -0.84375q-0.28125 -0.296875 -0.8125 -0.296875q-0.53125 0 -0.828125 0.296875q-0.296875 0.28125 -0.296875 0.84375l0 1.453125q0 0.546875 0.296875 0.84375q0.296875 0.296875 0.828125 0.296875zm4.018799 2.984375l0 -7.78125l1.296875 0l0 1.125l0.296875 0l-0.296875 0.296875q0 -0.703125 0.421875 -1.109375q0.421875 -0.421875 1.15625 -0.421875q0.875 0 1.40625 0.609375q0.53125 0.609375 0.53125 1.625l0 1.59375q0 0.6875 -0.234375 1.1875q-0.234375 0.5 -0.671875 0.78125q-0.4375 0.28125 -1.03125 0.28125q-0.734375 0 -1.15625 -0.40625q-0.421875 -0.421875 -0.421875 -1.125l0.296875 0.296875l-0.3125 0l0.046875 1.40625l0 1.640625l-1.328125 0zm2.40625 -2.96875q0.5 0 0.78125 -0.296875q0.296875 -0.296875 0.296875 -0.84375l0 -1.484375q0 -0.546875 -0.296875 -0.84375q-0.28125 -0.296875 -0.78125 -0.296875q-0.5 0 -0.796875 0.3125q-0.28125 0.296875 -0.28125 0.828125l0 1.484375q0 0.53125 0.28125 0.84375q0.296875 0.296875 0.796875 0.296875z" fill-rule="nonzero"/><path fill="#ffffff" d="m576.3454 73.60269l0 -1.390625q-1.015625 -0.078125 -1.59375 -0.640625q-0.5625 -0.5625 -0.578125 -1.484375l0.953125 0q0 0.53125 0.3125 0.859375q0.328125 0.328125 0.90625 0.40625l0 -2.796875l-0.296875 -0.078125q-0.796875 -0.25 -1.234375 -0.828125q-0.421875 -0.578125 -0.421875 -1.34375q0 -0.859375 0.515625 -1.40625q0.53125 -0.5625 1.4375 -0.640625l0 -1.4062462l0.625 0l0 1.3906212q0.890625 0.078125 1.421875 0.640625q0.53125 0.546875 0.546875 1.421875l-0.953125 0q0 -0.5 -0.265625 -0.8125q-0.265625 -0.3125 -0.75 -0.390625l0 2.640625l0.4375 0.140625q0.78125 0.25 1.203125 0.84375q0.421875 0.578125 0.421875 1.359375q0 0.875 -0.5625 1.453125q-0.5625 0.578125 -1.5 0.671875l0 1.390625l-0.625 0zm0.625 -2.25q0.53125 -0.09375 0.8125 -0.40625q0.296875 -0.3125 0.296875 -0.828125q0 -0.46875 -0.25 -0.8125q-0.25 -0.359375 -0.71875 -0.5l-0.140625 -0.046875l0 2.59375zm-0.625 -3.375l0 -2.875q-0.46875 0.078125 -0.734375 0.375q-0.265625 0.28125 -0.265625 0.734375q0 0.5625 0.34375 0.9375q0.34375 0.375 0.984375 0.46875l-0.328125 0.359375zm4.643799 4.140625l0 -5.859375l0.9375 0l0 1.125l0.21875 0l-0.3125 0.6875q0 -0.953125 0.40625 -1.4375q0.421875 -0.484375 1.234375 -0.484375q0.921875 0 1.46875 0.578125q0.546875 0.578125 0.546875 1.578125l0 0.34375l-0.953125 0l0 -0.265625q0 -0.6875 -0.34375 -1.046875q-0.328125 -0.375 -0.953125 -0.375q-0.609375 0 -0.953125 0.375q-0.34375 0.375 -0.34375 1.046875l0 3.734375l-0.953125 0zm8.065674 0.109375q-0.875 0 -1.421875 -0.578125q-0.53125 -0.59375 -0.53125 -1.59375l0 -1.71875q0 -1.015625 0.53125 -1.59375q0.53125 -0.59375 1.421875 -0.59375q0.71875 0 1.15625 0.40625q0.4375 0.390625 0.4375 1.046875l-0.1875 -0.21875l0.203125 0l-0.015625 -1.34375l0 -1.703125l0.953125 0l0 7.78125l-0.953125 0l0 -1.125l-0.1875 0l0.1875 -0.21875q0 0.671875 -0.4375 1.0625q-0.4375 0.390625 -1.15625 0.390625zm0.3125 -0.828125q0.59375 0 0.9375 -0.375q0.34375 -0.375 0.34375 -1.03125l0 -1.609375q0 -0.65625 -0.34375 -1.03125q-0.34375 -0.375 -0.9375 -0.375q-0.609375 0 -0.96875 0.375q-0.34375 0.359375 -0.34375 1.03125l0 1.609375q0 0.671875 0.34375 1.046875q0.359375 0.359375 0.96875 0.359375zm3.7531738 0.71875l2.078125 -3.015625l-1.953125 -2.84375l1.140625 0l1.15625 1.8125q0.078125 0.109375 0.140625 0.25q0.078125 0.140625 0.109375 0.234375q0.03125 -0.09375 0.09375 -0.234375q0.078125 -0.140625 0.15625 -0.25l1.171875 -1.8125l1.125 0l-1.953125 2.859375l2.0625 3.0l-1.125 0l-1.265625 -1.921875q-0.0625 -0.109375 -0.140625 -0.265625q-0.0625 -0.15625 -0.125 -0.25q-0.03125 0.09375 -0.125 0.25q-0.078125 0.15625 -0.15625 0.265625l-1.265625 1.921875l-1.125 0z" fill-rule="nonzero"/><path fill="#1b1c1f" d="m614.1762 29.360434l57.41736 0l0 65.03937l-57.41736 0z" fill-rule="evenodd"/><path stroke="#000000" stroke-width="2.0" stroke-linejoin="round" stroke-linecap="butt" d="m614.1762 29.360434l57.41736 0l0 65.03937l-57.41736 0z" fill-rule="evenodd"/><path fill="#e9d3b6" d="m638.88806 66.82075q-0.9375 0 -1.625 -0.359375q-0.6875 -0.359375 -1.0625 -1.0q-0.359375 -0.640625 -0.359375 -1.5312538l0 -4.234375q0 -0.875 0.359375 -1.515625q0.375 -0.65625 1.0625 -1.0q0.6875 -0.359375 1.625 -0.359375q0.9375 0 1.609375 0.359375q0.6875 0.34375 1.046875 1.0q0.375 0.640625 0.375 1.5l0 4.25q0 0.8906288 -0.375 1.5312538q-0.359375 0.640625 -1.046875 1.0q-0.671875 0.359375 -1.609375 0.359375zm0 -1.46875q0.671875 0 1.015625 -0.359375q0.359375 -0.375 0.359375 -1.0625038l0 -4.234375q0 -0.6875 -0.359375 -1.046875q-0.34375 -0.359375 -1.015625 -0.359375q-0.6875 0 -1.03125 0.359375q-0.34375 0.359375 -0.34375 1.046875l0 4.234375q0 0.6875038 0.34375 1.0625038q0.359375 0.359375 1.03125 0.359375zm5.059326 1.328125l0 -9.734379l6.0625 0l0 1.546875l-4.421875 0l0 2.609375l4.0625 0l0 1.546875l-4.03125 0l0 4.031254l-1.671875 0z" fill-rule="nonzero"/><path fill="#1b1c1f" d="m669.2038 29.35415l57.417297 0l0 65.039375l-57.417297 0z" fill-rule="evenodd"/><path stroke="#000000" stroke-width="2.0" stroke-linejoin="round" stroke-linecap="butt" d="m669.2038 29.35415l57.417297 0l0 65.039375l-57.417297 0z" fill-rule="evenodd"/><path fill="#e9d3b6" d="m689.14984 48.435715l0 -7.78125l1.296875 0l0 1.125l0.296875 0l-0.296875 0.296875q0 -0.703125 0.421875 -1.109375q0.421875 -0.421875 1.15625 -0.421875q0.875 0 1.40625 0.609375q0.53125 0.609375 0.53125 1.625l0 1.59375q0 0.6875 -0.234375 1.1875q-0.234375 0.5 -0.671875 0.78125q-0.4375 0.28125 -1.03125 0.28125q-0.734375 0 -1.15625 -0.40625q-0.421875 -0.421875 -0.421875 -1.125l0.296875 0.296875l-0.3125 0l0.046875 1.40625l0 1.640625l-1.328125 0zm2.40625 -2.96875q0.5 0 0.78125 -0.296875q0.296875 -0.296875 0.296875 -0.84375l0 -1.484375q0 -0.546875 -0.296875 -0.84375q-0.28125 -0.296875 -0.78125 -0.296875q-0.5 0 -0.796875 0.3125q-0.28125 0.296875 -0.28125 0.828125l0 1.484375q0 0.53125 0.28125 0.84375q0.296875 0.296875 0.796875 0.296875zm6.362549 1.140625q-0.75 0 -1.296875 -0.28125q-0.546875 -0.28125 -0.859375 -0.796875q-0.296875 -0.515625 -0.296875 -1.21875l0 -1.453125q0 -0.703125 0.296875 -1.21875q0.3125 -0.515625 0.859375 -0.796875q0.546875 -0.28125 1.296875 -0.28125q0.75 0 1.296875 0.28125q0.546875 0.28125 0.84375 0.796875q0.296875 0.515625 0.296875 1.203125l0 1.46875q0 0.703125 -0.296875 1.21875q-0.296875 0.515625 -0.84375 0.796875q-0.546875 0.28125 -1.296875 0.28125zm0 -1.15625q0.53125 0 0.8125 -0.296875q0.296875 -0.296875 0.296875 -0.84375l0 -1.453125q0 -0.5625 -0.296875 -0.84375q-0.28125 -0.296875 -0.8125 -0.296875q-0.53125 0 -0.828125 0.296875q-0.296875 0.28125 -0.296875 0.84375l0 1.453125q0 0.546875 0.296875 0.84375q0.296875 0.296875 0.828125 0.296875zm4.01886 2.984375l0 -7.78125l1.296875 0l0 1.125l0.296875 0l-0.296875 0.296875q0 -0.703125 0.421875 -1.109375q0.421875 -0.421875 1.15625 -0.421875q0.875 0 1.40625 0.609375q0.53125 0.609375 0.53125 1.625l0 1.59375q0 0.6875 -0.234375 1.1875q-0.234375 0.5 -0.671875 0.78125q-0.4375 0.28125 -1.03125 0.28125q-0.734375 0 -1.15625 -0.40625q-0.421875 -0.421875 -0.421875 -1.125l0.296875 0.296875l-0.3125 0l0.046875 1.40625l0 1.640625l-1.328125 0zm2.40625 -2.96875q0.5 0 0.78125 -0.296875q0.296875 -0.296875 0.296875 -0.84375l0 -1.484375q0 -0.546875 -0.296875 -0.84375q-0.28125 -0.296875 -0.78125 -0.296875q-0.5 0 -0.796875 0.3125q-0.28125 0.296875 -0.28125 0.828125l0 1.484375q0 0.53125 0.28125 0.84375q0.296875 0.296875 0.796875 0.296875z" fill-rule="nonzero"/><path fill="#ffffff" d="m684.8654 60.798214l0 -1.390625q-1.015625 -0.078125 -1.59375 -0.640625q-0.5625 -0.5625 -0.578125 -1.484375l0.953125 0q0 0.53125 0.3125 0.859375q0.328125 0.328125 0.90625 0.40625l0 -2.796875l-0.296875 -0.078125q-0.796875 -0.25 -1.234375 -0.828125q-0.421875 -0.578125 -0.421875 -1.34375q0 -0.859375 0.515625 -1.40625q0.53125 -0.5625 1.4375 -0.640625l0 -1.40625l0.625 0l0 1.390625q0.890625 0.078125 1.421875 0.640625q0.53125 0.546875 0.546875 1.421875l-0.953125 0q0 -0.5 -0.265625 -0.8125q-0.265625 -0.3125 -0.75 -0.390625l0 2.640625l0.4375 0.140625q0.78125 0.25 1.203125 0.84375q0.421875 0.578125 0.421875 1.359375q0 0.875 -0.5625 1.453125q-0.5625 0.578125 -1.5 0.671875l0 1.390625l-0.625 0zm0.625 -2.25q0.53125 -0.09375 0.8125 -0.40625q0.296875 -0.3125 0.296875 -0.828125q0 -0.46875 -0.25 -0.8125q-0.25 -0.359375 -0.71875 -0.5l-0.140625 -0.046875l0 2.59375zm-0.625 -3.375l0 -2.875q-0.46875 0.078125 -0.734375 0.375q-0.265625 0.28125 -0.265625 0.734375q0 0.5625 0.34375 0.9375q0.34375 0.375 0.984375 0.46875l-0.328125 0.359375zm4.643799 4.140625l0 -5.859375l0.9375 0l0 1.125l0.21875 0l-0.3125 0.6875q0 -0.953125 0.40625 -1.4375q0.421875 -0.484375 1.234375 -0.484375q0.921875 0 1.46875 0.578125q0.546875 0.578125 0.546875 1.578125l0 0.34375l-0.953125 0l0 -0.265625q0 -0.6875 -0.34375 -1.046875q-0.328125 -0.375 -0.953125 -0.375q-0.609375 0 -0.953125 0.375q-0.34375 0.375 -0.34375 1.046875l0 3.734375l-0.953125 0zm8.440674 0.109375q-0.703125 0 -1.234375 -0.265625q-0.515625 -0.265625 -0.8125 -0.765625q-0.28125 -0.515625 -0.28125 -1.203125l0 -1.609375q0 -0.703125 0.28125 -1.203125q0.296875 -0.5 0.8125 -0.765625q0.53125 -0.265625 1.234375 -0.265625q1.015625 0 1.625 0.546875q0.625 0.546875 0.65625 1.484375l-0.953125 0q-0.03125 -0.5625 -0.375 -0.859375q-0.34375 -0.3125 -0.953125 -0.3125q-0.625 0 -1.0 0.359375q-0.375 0.34375 -0.375 1.015625l0 1.609375q0 0.65625 0.375 1.015625q0.375 0.359375 1.0 0.359375q0.609375 0 0.953125 -0.296875q0.34375 -0.3125 0.375 -0.875l0.953125 0q-0.03125 0.9375 -0.65625 1.484375q-0.609375 0.546875 -1.625 0.546875zm3.6907349 -0.109375l2.078125 -3.015625l-1.953125 -2.84375l1.140625 0l1.15625 1.8125q0.078125 0.109375 0.140625 0.25q0.078125 0.140625 0.109375 0.234375q0.03125 -0.09375 0.09375 -0.234375q0.078125 -0.140625 0.15625 -0.25l1.171875 -1.8125l1.125 0l-1.953125 2.859375l2.0625 3.0l-1.125 0l-1.265625 -1.921875q-0.0625 -0.109375 -0.140625 -0.265625q-0.0625 -0.15625 -0.125 -0.25q-0.03125 0.09375 -0.125 0.25q-0.078125 0.15625 -0.15625 0.265625l-1.265625 1.921875l-1.125 0zm7.675049 1.703125l0.859375 -3.3125l1.375 0l-1.375 3.3125l-0.859375 0zm1.28125 -6.078125q-0.359375 0 -0.578125 -0.21875q-0.21875 -0.21875 -0.21875 -0.578125q0 -0.34375 0.21875 -0.5625q0.234375 -0.234375 0.578125 -0.234375l0.203125 0q0.34375 0 0.578125 0.234375q0.234375 0.21875 0.234375 0.5625q0 0.359375 -0.234375 0.578125q-0.21875 0.21875 -0.578125 0.21875l-0.203125 0z" fill-rule="nonzero"/><path fill="#e9d3b6" d="m689.14984 74.035706l0 -7.78125l1.296875 0l0 1.125l0.296875 0l-0.296875 0.296875q0 -0.703125 0.421875 -1.109375q0.421875 -0.421875 1.15625 -0.421875q0.875 0 1.40625 0.609375q0.53125 0.609375 0.53125 1.625l0 1.59375q0 0.6875 -0.234375 1.1875q-0.234375 0.5 -0.671875 0.78125q-0.4375 0.28125 -1.03125 0.28125q-0.734375 0 -1.15625 -0.40625q-0.421875 -0.421875 -0.421875 -1.125l0.296875 0.296875l-0.3125 0l0.046875 1.40625l0 1.640625l-1.328125 0zm2.40625 -2.96875q0.5 0 0.78125 -0.296875q0.296875 -0.296875 0.296875 -0.84375l0 -1.484375q0 -0.546875 -0.296875 -0.84375q-0.28125 -0.296875 -0.78125 -0.296875q-0.5 0 -0.796875 0.3125q-0.28125 0.296875 -0.28125 0.828125l0 1.484375q0 0.53125 0.28125 0.84375q0.296875 0.296875 0.796875 0.296875zm6.362549 1.140625q-0.75 0 -1.296875 -0.28125q-0.546875 -0.28125 -0.859375 -0.796875q-0.296875 -0.515625 -0.296875 -1.21875l0 -1.453125q0 -0.703125 0.296875 -1.21875q0.3125 -0.515625 0.859375 -0.796875q0.546875 -0.28125 1.296875 -0.28125q0.75 0 1.296875 0.28125q0.546875 0.28125 0.84375 0.796875q0.296875 0.515625 0.296875 1.203125l0 1.46875q0 0.703125 -0.296875 1.21875q-0.296875 0.515625 -0.84375 0.796875q-0.546875 0.28125 -1.296875 0.28125zm0 -1.15625q0.53125 0 0.8125 -0.296875q0.296875 -0.296875 0.296875 -0.84375l0 -1.453125q0 -0.5625 -0.296875 -0.84375q-0.28125 -0.296875 -0.8125 -0.296875q-0.53125 0 -0.828125 0.296875q-0.296875 0.28125 -0.296875 0.84375l0 1.453125q0 0.546875 0.296875 0.84375q0.296875 0.296875 0.828125 0.296875zm4.01886 2.984375l0 -7.78125l1.296875 0l0 1.125l0.296875 0l-0.296875 0.296875q0 -0.703125 0.421875 -1.109375q0.421875 -0.421875 1.15625 -0.421875q0.875 0 1.40625 0.609375q0.53125 0.609375 0.53125 1.625l0 1.59375q0 0.6875 -0.234375 1.1875q-0.234375 0.5 -0.671875 0.78125q-0.4375 0.28125 -1.03125 0.28125q-0.734375 0 -1.15625 -0.40625q-0.421875 -0.421875 -0.421875 -1.125l0.296875 0.296875l-0.3125 0l0.046875 1.40625l0 1.640625l-1.328125 0zm2.40625 -2.96875q0.5 0 0.78125 -0.296875q0.296875 -0.296875 0.296875 -0.84375l0 -1.484375q0 -0.546875 -0.296875 -0.84375q-0.28125 -0.296875 -0.78125 -0.296875q-0.5 0 -0.796875 0.3125q-0.28125 0.296875 -0.28125 0.828125l0 1.484375q0 0.53125 0.28125 0.84375q0.296875 0.296875 0.796875 0.296875z" fill-rule="nonzero"/><path fill="#ffffff" d="m691.2592 86.3982l0 -1.390625q-1.015625 -0.078125 -1.59375 -0.640625q-0.5625 -0.5625 -0.578125 -1.484375l0.953125 0q0 0.53125 0.3125 0.859375q0.328125 0.328125 0.90625 0.40625l0 -2.796875l-0.296875 -0.078125q-0.796875 -0.25 -1.234375 -0.828125q-0.421875 -0.578125 -0.421875 -1.34375q0 -0.859375 0.515625 -1.40625q0.53125 -0.5625 1.4375 -0.640625l0 -1.40625l0.625 0l0 1.390625q0.890625 0.078125 1.421875 0.640625q0.53125 0.546875 0.546875 1.421875l-0.953125 0q0 -0.5 -0.265625 -0.8125q-0.265625 -0.3125 -0.75 -0.390625l0 2.640625l0.4375 0.140625q0.78125 0.25 1.203125 0.84375q0.421875 0.578125 0.421875 1.359375q0 0.875 -0.5625 1.453125q-0.5625 0.578125 -1.5 0.671875l0 1.390625l-0.625 0zm0.625 -2.25q0.53125 -0.09375 0.8125 -0.40625q0.296875 -0.3125 0.296875 -0.828125q0 -0.46875 -0.25 -0.8125q-0.25 -0.359375 -0.71875 -0.5l-0.140625 -0.046875l0 2.59375zm-0.625 -3.375l0 -2.875q-0.46875 0.078125 -0.734375 0.375q-0.265625 0.28125 -0.265625 0.734375q0 0.5625 0.34375 0.9375q0.34375 0.375 0.984375 0.46875l-0.328125 0.359375zm4.643799 4.140625l0 -5.859375l0.9375 0l0 1.125l0.21875 0l-0.3125 0.6875q0 -0.953125 0.40625 -1.4375q0.421875 -0.484375 1.234375 -0.484375q0.921875 0 1.46875 0.578125q0.546875 0.578125 0.546875 1.578125l0 0.34375l-0.953125 0l0 -0.265625q0 -0.6875 -0.34375 -1.046875q-0.328125 -0.375 -0.953125 -0.375q-0.609375 0 -0.953125 0.375q-0.34375 0.375 -0.34375 1.046875l0 3.734375l-0.953125 0zm8.409485 0.109375q-0.71875 0 -1.25 -0.25q-0.53125 -0.25 -0.8125 -0.71875q-0.28125 -0.46875 -0.28125 -1.09375q0 -0.703125 0.375 -1.203125q0.375 -0.5 1.1875 -0.890625l1.046875 -0.5q0.46875 -0.234375 0.71875 -0.59375q0.25 -0.359375 0.25 -0.796875q0 -0.515625 -0.34375 -0.8125q-0.328125 -0.296875 -0.890625 -0.296875q-0.578125 0 -0.921875 0.3125q-0.328125 0.296875 -0.328125 0.8125q0 0.421875 0.25 0.78125q0.25 0.359375 0.6875 0.578125l1.03125 0.484375q0.859375 0.40625 1.234375 0.90625q0.390625 0.5 0.390625 1.21875q0 0.9375 -0.640625 1.5q-0.640625 0.5625 -1.703125 0.5625zm0 -0.859375q0.640625 0 1.015625 -0.328125q0.390625 -0.34375 0.390625 -0.90625q0 -0.453125 -0.25 -0.828125q-0.25 -0.375 -0.703125 -0.59375l-1.03125 -0.5q-0.84375 -0.421875 -1.234375 -0.890625q-0.375 -0.484375 -0.375 -1.15625q0 -0.59375 0.265625 -1.03125q0.265625 -0.4375 0.75 -0.671875q0.5 -0.234375 1.171875 -0.234375q0.671875 0 1.15625 0.234375q0.484375 0.234375 0.75 0.671875q0.265625 0.4375 0.265625 1.03125q0 0.671875 -0.390625 1.140625q-0.375 0.46875 -1.25 0.90625l-1.03125 0.5q-0.4375 0.21875 -0.671875 0.59375q-0.234375 0.359375 -0.234375 0.8125q0 0.578125 0.375 0.921875q0.375 0.328125 1.03125 0.328125z" fill-rule="nonzero"/><path fill="#1b1c1f" d="m725.8932 29.355946l57.417297 0l0 65.03937l-57.417297 0z" fill-rule="evenodd"/><path stroke="#000000" stroke-width="2.0" stroke-linejoin="round" stroke-linecap="butt" d="m725.8932 29.355946l57.417297 0l0 65.03937l-57.417297 0z" fill-rule="evenodd"/><path fill="#e9d3b6" d="m745.7628 66.67564l0 -8.187504l-2.546875 0l0 -1.546875l6.78125 0l0 1.546875l-2.546875 0l0 8.187504l-1.6875 0zm5.871826 0l0 -9.734379l1.65625 0l0 3.90625l2.609375 0l0 -3.90625l1.671875 0l0 9.734379l-1.671875 0l0 -4.281254l-2.609375 0l0 4.281254l-1.65625 0zm10.871887 0.140625q-0.953125 0 -1.65625 -0.34375q-0.6875 -0.359375 -1.078125 -0.984375q-0.390625 -0.625 -0.390625 -1.484375l1.6875 0q0 0.65625 0.375 1.03125q0.375 0.359375 1.078125 0.359375q0.6875 0 1.0625 -0.375q0.375 -0.375 0.375 -1.015625l0 -0.7500038q0 -0.65625 -0.375 -1.015625q-0.375 -0.375 -1.0625 -0.375l-1.09375 0l0 -1.5l2.140625 -1.984375l-3.75 0l0 -1.4375l5.4375 0l0 1.515625l-2.734375 2.515625l0 -0.53125q1.4375 0 2.265625 0.765625q0.84375 0.75 0.84375 2.046875l0 0.7500038q0 0.859375 -0.390625 1.484375q-0.375 0.625 -1.09375 0.984375q-0.703125 0.34375 -1.640625 0.34375z" fill-rule="nonzero"/><path fill="#1b1c1f" d="m780.9207 29.36133l57.417297 0l0 65.039375l-57.417297 0z" fill-rule="evenodd"/><path stroke="#000000" stroke-width="2.0" stroke-linejoin="round" stroke-linecap="butt" d="m780.9207 29.36133l57.417297 0l0 65.039375l-57.417297 0z" fill-rule="evenodd"/><path fill="#e9d3b6" d="m794.6982 58.681015l0 -9.734375l6.0625 0l0 1.546875l-4.421875 0l0 2.609375l4.0625 0l0 1.546875l-4.03125 0l0 4.03125l-1.671875 0zm10.934387 0.140625q-0.9375 0 -1.625 -0.359375q-0.6875 -0.359375 -1.0625 -1.0q-0.359375 -0.640625 -0.359375 -1.53125l0 -4.234375q0 -0.875 0.359375 -1.515625q0.375 -0.65625 1.0625 -1.0q0.6875 -0.359375 1.625 -0.359375q0.9375 0 1.609375 0.359375q0.6875 0.34375 1.046875 1.0q0.375 0.640625 0.375 1.5l0 4.25q0 0.890625 -0.375 1.53125q-0.359375 0.640625 -1.046875 1.0q-0.671875 0.359375 -1.609375 0.359375zm0 -1.46875q0.671875 0 1.015625 -0.359375q0.359375 -0.375 0.359375 -1.0625l0 -4.234375q0 -0.6875 -0.359375 -1.046875q-0.34375 -0.359375 -1.015625 -0.359375q-0.6875 0 -1.03125 0.359375q-0.34375 0.359375 -0.34375 1.046875l0 4.234375q0 0.6875 0.34375 1.0625q0.359375 0.359375 1.03125 0.359375zm5.012451 1.328125l0 -9.734375l3.078125 0q0.96875 0 1.671875 0.359375q0.71875 0.359375 1.125 1.015625q0.40625 0.640625 0.40625 1.515625q0 0.96875 -0.5 1.703125q-0.484375 0.734375 -1.3125 1.03125l1.9375 4.109375l-1.859375 0l-1.703125 -3.859375l-1.1875 0l0 3.859375l-1.65625 0zm1.65625 -5.328125l1.421875 0q0.703125 0 1.09375 -0.390625q0.40625 -0.390625 0.40625 -1.0625q0 -0.703125 -0.40625 -1.09375q-0.390625 -0.390625 -1.09375 -0.390625l-1.421875 0l0 2.9375zm9.371826 5.46875q-0.921875 0 -1.625 -0.359375q-0.703125 -0.359375 -1.09375 -1.0q-0.375 -0.640625 -0.375 -1.53125l0 -4.234375q0 -0.890625 0.375 -1.53125q0.390625 -0.640625 1.09375 -0.984375q0.703125 -0.359375 1.625 -0.359375q0.953125 0 1.640625 0.359375q0.6875 0.34375 1.0625 0.984375q0.390625 0.640625 0.390625 1.53125l-1.671875 0q0 -0.6875 -0.375 -1.046875q-0.359375 -0.359375 -1.046875 -0.359375q-0.671875 0 -1.046875 0.359375q-0.375 0.359375 -0.375 1.03125l0 4.25q0 0.6875 0.375 1.0625q0.375 0.359375 1.046875 0.359375q0.6875 0 1.046875 -0.359375q0.375 -0.375 0.375 -1.0625l1.671875 0q0 0.875 -0.390625 1.53125q-0.375 0.640625 -1.0625 1.0q-0.6875 0.359375 -1.640625 0.359375z" fill-rule="nonzero"/><path fill="#e9d3b6" d="m809.53723 74.82164q-0.953125 0 -1.65625 -0.34375q-0.6875 -0.359375 -1.078125 -0.984375q-0.390625 -0.625 -0.390625 -1.484375l1.6875 0q0 0.65625 0.375 1.03125q0.375 0.359375 1.078125 0.359375q0.6875 0 1.0625 -0.375q0.375 -0.375 0.375 -1.015625l0 -0.75q0 -0.65625 -0.375 -1.015625q-0.375 -0.375 -1.0625 -0.375l-1.09375 0l0 -1.5l2.140625 -1.984375l-3.75 0l0 -1.4375l5.4375 0l0 1.515625l-2.734375 2.515625l0 -0.53125q1.4375 0 2.265625 0.765625q0.84375 0.75 0.84375 2.046875l0 0.75q0 0.859375 -0.390625 1.484375q-0.375 0.625 -1.09375 0.984375q-0.703125 0.34375 -1.640625 0.34375z" fill-rule="nonzero"/><path fill="#1b1c1f" d="m837.6116 1.6010499l122.39374 0l0 92.7874l-122.39374 0z" fill-rule="evenodd"/><path stroke="#000000" stroke-width="2.0" stroke-linejoin="round" stroke-linecap="butt" d="m837.6116 1.6010499l122.39374 0l0 92.7874l-122.39374 0z" fill-rule="evenodd"/><path fill="#e9d3b6" d="m873.757 44.794754l-2.421875 -7.328125l1.703125 0l1.40625 4.453125q0.125 0.390625 0.234375 0.828125q0.109375 0.421875 0.171875 0.671875q0.0625 -0.25 0.171875 -0.671875q0.109375 -0.4375 0.203125 -0.8125l1.375 -4.46875l1.703125 0l-2.40625 7.328125l-2.140625 0zm8.246826 0.140625q-1.140625 0 -1.796875 -0.59375q-0.640625 -0.609375 -0.640625 -1.625q0 -1.078125 0.71875 -1.65625q0.71875 -0.59375 2.03125 -0.59375l1.828125 0l0 -0.625q0 -0.53125 -0.34375 -0.828125q-0.34375 -0.3125 -0.953125 -0.3125q-0.546875 0 -0.90625 0.25q-0.359375 0.234375 -0.421875 0.640625l-1.625 0q0.125 -1.03125 0.9375 -1.640625q0.8125 -0.625 2.078125 -0.625q1.34375 0 2.125 0.671875q0.78125 0.671875 0.78125 1.828125l0 4.96875l-1.609375 0l0 -1.28125l-0.265625 0l0.265625 -0.359375q0 0.8125 -0.609375 1.296875q-0.59375 0.484375 -1.59375 0.484375zm0.546875 -1.265625q0.703125 0 1.140625 -0.359375q0.453125 -0.359375 0.453125 -0.921875l0 -0.90625l-1.796875 0q-0.5 0 -0.8125 0.296875q-0.3125 0.296875 -0.3125 0.78125q0 0.515625 0.359375 0.8125q0.359375 0.296875 0.96875 0.296875zm7.637451 1.265625q-1.09375 0 -1.765625 -0.765625q-0.671875 -0.765625 -0.671875 -2.046875l0 -1.984375q0 -1.28125 0.65625 -2.046875q0.671875 -0.765625 1.78125 -0.765625q0.90625 0 1.4375 0.515625q0.53125 0.515625 0.53125 1.40625l-0.375 -0.390625l0.390625 0l-0.0625 -1.734375l0 -2.0625l1.671875 0l0 9.734375l-1.625 0l0 -1.40625l-0.375 0l0.375 -0.375q0 0.890625 -0.53125 1.40625q-0.53125 0.515625 -1.4375 0.515625zm0.578125 -1.453125q0.640625 0 0.984375 -0.375q0.359375 -0.375 0.359375 -1.0625l0 -1.828125q0 -0.6875 -0.359375 -1.0625q-0.34375 -0.390625 -0.984375 -0.390625q-0.640625 0 -1.0 0.375q-0.359375 0.375 -0.359375 1.078125l0 1.828125q0 0.703125 0.359375 1.078125q0.359375 0.359375 1.0 0.359375zm8.059387 1.453125q-0.9375 0 -1.640625 -0.359375q-0.6875 -0.375 -1.0625 -1.015625q-0.375 -0.640625 -0.375 -1.515625l0 -1.828125q0 -0.875 0.375 -1.515625q0.375 -0.65625 1.0625 -1.015625q0.703125 -0.359375 1.640625 -0.359375q0.921875 0 1.59375 0.359375q0.6875 0.359375 1.0625 1.015625q0.39056396 0.640625 0.39056396 1.515625l0 1.3125l-4.515564 0l0 0.515625q0 0.78125 0.375 1.171875q0.375 0.390625 1.109375 0.390625q0.546875 0 0.890625 -0.1875q0.359375 -0.203125 0.453125 -0.578125l1.640564 0q-0.1875 0.953125 -1.015564 1.53125q-0.8125 0.5625 -1.984375 0.5625zm1.4375 -4.34375l0 -0.390625q0 -0.765625 -0.359375 -1.171875q-0.359375 -0.40625 -1.078125 -0.40625q-0.71875 0 -1.09375 0.421875q-0.375 0.40625 -0.375 1.171875l0 0.265625l3.03125 -0.015625l-0.125 0.125zm3.7937012 4.203125l0 -7.328125l1.578125 0l0 1.390625l0.40625 0l-0.484375 0.859375q0 -1.1875 0.53125 -1.78125q0.53125 -0.609375 1.5625 -0.609375q1.1875 0 1.859375 0.734375q0.6875 0.734375 0.6875 2.03125l0 0.53125l-1.734375 0l0 -0.40625q0 -0.71875 -0.375 -1.09375q-0.359375 -0.390625 -1.0 -0.390625q-0.65625 0 -1.015625 0.390625q-0.34375 0.375 -0.34375 1.09375l0 4.578125l-1.671875 0zm13.215576 1.59375q-2.03125 -0.53125 -3.140625 -1.875q-1.109375 -1.359375 -1.109375 -3.296875l0 -2.421875q0 -1.28125 0.515625 -2.328125q0.515625 -1.046875 1.46875 -1.78125q0.953125 -0.734375 2.265625 -1.09375l0 1.640625q-0.796875 0.1875 -1.375 0.6875q-0.578125 0.484375 -0.890625 1.21875q-0.296875 0.734375 -0.296875 1.65625l0 2.421875q0 0.890625 0.296875 1.625q0.3125 0.71875 0.890625 1.203125q0.578125 0.484375 1.375 0.671875l0 1.671875zm3.0593262 0l0 -1.671875q0.796875 -0.1875 1.375 -0.671875q0.578125 -0.484375 0.875 -1.203125q0.3125 -0.734375 0.3125 -1.625l0 -2.421875q0 -0.921875 -0.3125 -1.65625q-0.296875 -0.734375 -0.875 -1.21875q-0.578125 -0.5 -1.375 -0.6875l0 -1.640625q1.328125 0.359375 2.265625 1.09375q0.953125 0.734375 1.453125 1.78125q0.515625 1.046875 0.515625 2.328125l0 2.421875q0 1.9375 -1.109375 3.296875q-1.09375 1.34375 -3.125 1.875z" fill-rule="nonzero"/><path fill="#ffffff" d="m874.007 60.93538q-1.140625 0 -1.796875 -0.59375q-0.640625 -0.609375 -0.640625 -1.625q0 -1.078125 0.71875 -1.65625q0.71875 -0.59375 2.03125 -0.59375l1.828125 0l0 -0.625q0 -0.53125 -0.34375 -0.828125q-0.34375 -0.3125 -0.953125 -0.3125q-0.546875 0 -0.90625 0.25q-0.359375 0.234375 -0.421875 0.640625l-1.625 0q0.125 -1.03125 0.9375 -1.640625q0.8125 -0.625 2.078125 -0.625q1.34375 0 2.125 0.671875q0.78125 0.671875 0.78125 1.828125l0 4.96875l-1.609375 0l0 -1.28125l-0.265625 0l0.265625 -0.359375q0 0.8125 -0.609375 1.296875q-0.59375 0.484375 -1.59375 0.484375zm0.546875 -1.265625q0.703125 0 1.140625 -0.359375q0.453125 -0.359375 0.453125 -0.921875l0 -0.90625l-1.796875 0q-0.5 0 -0.8125 0.296875q-0.3125 0.296875 -0.3125 0.78125q0 0.515625 0.359375 0.8125q0.359375 0.296875 0.96875 0.296875zm7.637451 1.265625q-1.09375 0 -1.765625 -0.765625q-0.671875 -0.765625 -0.671875 -2.046875l0 -1.984375q0 -1.28125 0.65625 -2.046875q0.671875 -0.765625 1.78125 -0.765625q0.90625 0 1.4375 0.515625q0.53125 0.515625 0.53125 1.40625l-0.375 -0.390625l0.390625 0l-0.0625 -1.734375l0 -2.0625l1.671875 0l0 9.734375l-1.625 0l0 -1.40625l-0.375 0l0.375 -0.375q0 0.890625 -0.53125 1.40625q-0.53125 0.515625 -1.4375 0.515625zm0.578125 -1.453125q0.640625 0 0.984375 -0.375q0.359375 -0.375 0.359375 -1.0625l0 -1.828125q0 -0.6875 -0.359375 -1.0625q-0.34375 -0.390625 -0.984375 -0.390625q-0.640625 0 -1.0 0.375q-0.359375 0.375 -0.359375 1.078125l0 1.828125q0 0.703125 0.359375 1.078125q0.359375 0.359375 1.0 0.359375zm7.418701 1.453125q-1.09375 0 -1.765625 -0.765625q-0.671875 -0.765625 -0.671875 -2.046875l0 -1.984375q0 -1.28125 0.65625 -2.046875q0.671875 -0.765625 1.78125 -0.765625q0.90625 0 1.4375 0.515625q0.53125 0.515625 0.53125 1.40625l-0.375 -0.390625l0.390625 0l-0.0625 -1.734375l0 -2.0625l1.671875 0l0 9.734375l-1.625 0l0 -1.40625l-0.375 0l0.375 -0.375q0 0.890625 -0.53125 1.40625q-0.53125 0.515625 -1.4375 0.515625zm0.578125 -1.453125q0.640625 0 0.984375 -0.375q0.359375 -0.375 0.359375 -1.0625l0 -1.828125q0 -0.6875 -0.359375 -1.0625q-0.34375 -0.390625 -0.984375 -0.390625q-0.640625 0 -1.0 0.375q-0.359375 0.375 -0.359375 1.078125l0 1.828125q0 0.703125 0.359375 1.078125q0.359375 0.359375 1.0 0.359375zm5.293762 1.3125l0 -7.328125l1.578125 0l0 1.390625l0.40625 0l-0.484375 0.859375q0 -1.1875 0.53125 -1.78125q0.53125 -0.609375 1.5625 -0.609375q1.1875 0 1.859375 0.734375q0.68743896 0.734375 0.68743896 2.03125l0 0.53125l-1.734314 0l0 -0.40625q0 -0.71875 -0.375 -1.09375q-0.359375 -0.390625 -1.0 -0.390625q-0.65625 0 -1.015625 0.390625q-0.34375 0.375 -0.34375 1.09375l0 4.578125l-1.671875 0zm10.762451 0.140625q-0.9375 0 -1.640625 -0.359375q-0.6875 -0.375 -1.0625 -1.015625q-0.375 -0.640625 -0.375 -1.515625l0 -1.828125q0 -0.875 0.375 -1.515625q0.375 -0.65625 1.0625 -1.015625q0.703125 -0.359375 1.640625 -0.359375q0.921875 0 1.59375 0.359375q0.6875 0.359375 1.0625 1.015625q0.390625 0.640625 0.390625 1.515625l0 1.3125l-4.515625 0l0 0.515625q0 0.78125 0.375 1.171875q0.375 0.390625 1.109375 0.390625q0.546875 0 0.890625 -0.1875q0.359375 -0.203125 0.453125 -0.578125l1.640625 0q-0.1875 0.953125 -1.015625 1.53125q-0.8125 0.5625 -1.984375 0.5625zm1.4375 -4.34375l0 -0.390625q0 -0.765625 -0.359375 -1.171875q-0.359375 -0.40625 -1.078125 -0.40625q-0.71875 0 -1.09375 0.421875q-0.375 0.40625 -0.375 1.171875l0 0.265625l3.03125 -0.015625l-0.125 0.125zm6.262451 4.328125q-0.84375 0 -1.46875 -0.265625q-0.625 -0.265625 -0.984375 -0.734375q-0.34375 -0.484375 -0.375 -1.125l1.671875 0q0.015625 0.34375 0.328125 0.5625q0.328125 0.21875 0.828125 0.21875l0.59375 0q0.609375 0 0.90625 -0.234375q0.3125 -0.25 0.3125 -0.671875q0 -0.375 -0.28125 -0.59375q-0.265625 -0.234375 -0.84375 -0.296875l-0.90625 -0.125q-1.25 -0.171875 -1.84375 -0.671875q-0.578125 -0.5 -0.578125 -1.484375q0 -1.015625 0.6875 -1.578125q0.703125 -0.578125 2.046875 -0.578125l0.5 0q1.234375 0 1.96875 0.546875q0.734375 0.546875 0.78125 1.46875l-1.671875 0q-0.03125 -0.296875 -0.328125 -0.484375q-0.28125 -0.1875 -0.75 -0.1875l-0.5 0q-0.578125 0 -0.84375 0.21875q-0.25 0.203125 -0.25 0.59375q0 0.375 0.21875 0.5625q0.234375 0.171875 0.734375 0.25l0.953125 0.140625q1.3125 0.1875 1.921875 0.703125q0.625 0.515625 0.625 1.515625q0 1.0625 -0.734375 1.65625q-0.71875 0.59375 -2.125 0.59375l-0.59375 0zm7.996826 0q-0.84375 0 -1.46875 -0.265625q-0.625 -0.265625 -0.984375 -0.734375q-0.34375 -0.484375 -0.375 -1.125l1.671875 0q0.015625 0.34375 0.328125 0.5625q0.328125 0.21875 0.828125 0.21875l0.59375 0q0.609375 0 0.90625 -0.234375q0.3125 -0.25 0.3125 -0.671875q0 -0.375 -0.28125 -0.59375q-0.265625 -0.234375 -0.84375 -0.296875l-0.90625 -0.125q-1.25 -0.171875 -1.84375 -0.671875q-0.578125 -0.5 -0.578125 -1.484375q0 -1.015625 0.6875 -1.578125q0.703125 -0.578125 2.046875 -0.578125l0.5 0q1.234375 0 1.96875 0.546875q0.734375 0.546875 0.78125 1.46875l-1.671875 0q-0.03125 -0.296875 -0.328125 -0.484375q-0.28125 -0.1875 -0.75 -0.1875l-0.5 0q-0.578125 0 -0.84375 0.21875q-0.25 0.203125 -0.25 0.59375q0 0.375 0.21875 0.5625q0.234375 0.171875 0.734375 0.25l0.953125 0.140625q1.3125 0.1875 1.921875 0.703125q0.625 0.515625 0.625 1.515625q0 1.0625 -0.734375 1.65625q-0.71875 0.59375 -2.125 0.59375l-0.59375 0z" fill-rule="nonzero"/><path fill="#1b1c1f" d="m265.46442 1.6048588l572.1575 0l0 27.748032l-572.1575 0z" fill-rule="evenodd"/><path stroke="#000000" stroke-width="2.0" stroke-linejoin="round" stroke-linecap="butt" d="m265.46442 1.6048588l572.1575 0l0 27.748032l-572.1575 0z" fill-rule="evenodd"/><path fill="#e9d3b6" d="m516.0261 20.278873l2.453125 -9.734375l2.140625 0l2.46875 9.734375l-1.703125 0l-0.53125 -2.359375l-2.59375 0l-0.53125 2.359375l-1.703125 0zm2.546875 -3.71875l1.96875 0l-0.59375 -2.609375q-0.140625 -0.65625 -0.25 -1.171875q-0.109375 -0.53125 -0.140625 -0.78125q-0.046875 0.25 -0.140625 0.78125q-0.09375 0.515625 -0.265625 1.15625l-0.578125 2.625zm6.231201 3.71875l0 -7.328125l1.578125 0l0 1.390625l0.40625 0l-0.484375 0.859375q0 -1.1875 0.53125 -1.78125q0.53125 -0.609375 1.5625 -0.609375q1.1875 0 1.859375 0.734375q0.6875 0.734375 0.6875 2.03125l0 0.53125l-1.734375 0l0 -0.40625q0 -0.71875 -0.375 -1.09375q-0.359375 -0.390625 -1.0 -0.390625q-0.65625 0 -1.015625 0.390625q-0.34375 0.375 -0.34375 1.09375l0 4.578125l-1.671875 0zm8.778076 2.40625l0 -1.390625l2.171875 0q0.5625 0 0.828125 -0.28125q0.28125 -0.265625 0.28125 -0.78125l0 -0.546875l0.03125 -1.359375l-0.359375 0l0.359375 -0.359375q0 0.890625 -0.53125 1.390625q-0.515625 0.5 -1.40625 0.5q-1.125 0 -1.796875 -0.765625q-0.65625 -0.765625 -0.65625 -2.046875l0 -1.4375q0 -1.265625 0.65625 -2.03125q0.671875 -0.765625 1.796875 -0.765625q0.890625 0 1.40625 0.5q0.53125 0.5 0.53125 1.390625l-0.359375 -0.359375l0.359375 0l-0.046875 -1.390625l1.671875 0l0 7.328125q0 1.109375 -0.734375 1.75q-0.734375 0.65625 -2.015625 0.65625l-2.1875 0zm1.921875 -4.265625q0.640625 0 0.984375 -0.375q0.359375 -0.390625 0.359375 -1.078125l0 -1.265625q0 -0.6875 -0.359375 -1.0625q-0.34375 -0.390625 -0.984375 -0.390625q-0.640625 0 -0.984375 0.375q-0.34375 0.375 -0.34375 1.078125l0 1.265625q0 0.703125 0.34375 1.078125q0.34375 0.375 0.984375 0.375zm8.043762 2.0q-1.40625 0 -2.203125 -0.78125q-0.796875 -0.78125 -0.796875 -2.125l0 -4.5625l1.671875 0l0 4.546875q0 0.703125 0.34375 1.09375q0.34375 0.375 0.984375 0.375q0.625 0 0.96875 -0.375q0.359375 -0.390625 0.359375 -1.09375l0 -4.546875l1.671875 0l0 4.5625q0 1.34375 -0.8125 2.125q-0.8125 0.78125 -2.1875 0.78125zm4.684326 -0.140625l0 -7.328125l1.359375 0l0 0.984375l0.28125 0l-0.21875 0.234375q0 -0.609375 0.34375 -0.984375q0.34375 -0.375 0.890625 -0.375q0.59375 0 0.90625 0.484375q0.328125 0.484375 0.328125 1.296875l-0.28125 -0.65625l0.453125 0l-0.171875 0.234375q0 -0.609375 0.34375 -0.984375q0.34375 -0.375 0.921875 -0.375q0.671875 0 1.0625 0.515625q0.40625 0.5 0.40625 1.375l0 5.578125l-1.46875 0l0 -5.515625q0 -0.359375 -0.15625 -0.5625q-0.15625 -0.21875 -0.46875 -0.21875q-0.28125 0 -0.453125 0.203125q-0.171875 0.203125 -0.171875 0.578125l0 5.515625l-1.1875 0l0 -5.515625q0 -0.375 -0.171875 -0.578125q-0.15625 -0.203125 -0.46875 -0.203125q-0.296875 0 -0.453125 0.203125q-0.15625 0.203125 -0.15625 0.578125l0 5.515625l-1.46875 0zm11.324951 0.140625q-0.9375 0 -1.640625 -0.359375q-0.6875 -0.375 -1.0625 -1.015625q-0.375 -0.640625 -0.375 -1.515625l0 -1.828125q0 -0.875 0.375 -1.515625q0.375 -0.65625 1.0625 -1.015625q0.703125 -0.359375 1.640625 -0.359375q0.921875 0 1.59375 0.359375q0.6875 0.359375 1.0625 1.015625q0.390625 0.640625 0.390625 1.515625l0 1.3125l-4.515625 0l0 0.515625q0 0.78125 0.375 1.171875q0.375 0.390625 1.109375 0.390625q0.546875 0 0.890625 -0.1875q0.359375 -0.203125 0.453125 -0.578125l1.640625 0q-0.1875 0.953125 -1.015625 1.53125q-0.8125 0.5625 -1.984375 0.5625zm1.4375 -4.34375l0 -0.390625q0 -0.765625 -0.359375 -1.171875q-0.359375 -0.40625 -1.078125 -0.40625q-0.71875 0 -1.09375 0.421875q-0.375 0.40625 -0.375 1.171875l0 0.265625l3.03125 -0.015625l-0.125 0.125zm3.5749512 4.203125l0 -7.328125l1.625 0l0 1.390625l0.453125 0l-0.453125 0.390625q0 -0.90625 0.515625 -1.40625q0.53125 -0.515625 1.453125 -0.515625q1.078125 0 1.71875 0.71875q0.65625 0.71875 0.65625 1.9375l0 4.8125l-1.671875 0l0 -4.640625q0 -0.65625 -0.34375 -1.015625q-0.34375 -0.375 -0.96875 -0.375q-0.609375 0 -0.96875 0.375q-0.359375 0.375 -0.359375 1.078125l0 4.578125l-1.65625 0zm11.762512 0q-1.046875 0 -1.640625 -0.578125q-0.59375 -0.59375 -0.59375 -1.625l0 -3.625l-1.984375 0l0 -1.5l1.984375 0l0 -2.0625l1.671875 0l0 2.0625l2.8125 0l0 1.5l-2.8125 0l0 3.625q0 0.703125 0.6875 0.703125l2.0 0l0 1.5l-2.125 0zm6.918701 0.125q-0.84375 0 -1.46875 -0.265625q-0.625 -0.265625 -0.984375 -0.734375q-0.34375 -0.484375 -0.375 -1.125l1.671875 0q0.015625 0.34375 0.328125 0.5625q0.328125 0.21875 0.828125 0.21875l0.59375 0q0.609375 0 0.90625 -0.234375q0.3125 -0.25 0.3125 -0.671875q0 -0.375 -0.28125 -0.59375q-0.265625 -0.234375 -0.84375 -0.296875l-0.90625 -0.125q-1.25 -0.171875 -1.84375 -0.671875q-0.578125 -0.5 -0.578125 -1.484375q0 -1.015625 0.6875 -1.578125q0.703125 -0.578125 2.046875 -0.578125l0.5 0q1.234375 0 1.96875 0.546875q0.734375 0.546875 0.78125 1.46875l-1.671875 0q-0.03125 -0.296875 -0.328125 -0.484375q-0.28125 -0.1875 -0.75 -0.1875l-0.5 0q-0.578125 0 -0.84375 0.21875q-0.25 0.203125 -0.25 0.59375q0 0.375 0.21875 0.5625q0.234375 0.171875 0.734375 0.25l0.953125 0.140625q1.3125 0.1875 1.921875 0.703125q0.625 0.515625 0.625 1.515625q0 1.0625 -0.734375 1.65625q-0.71875 0.59375 -2.125 0.59375l-0.59375 0z" fill-rule="nonzero"/></g></svg>